<?xml version="1.0" encoding="utf-8"?>
<!-- Generator: Adobe Illustrator 16.0.0, SVG Export Plug-In . SVG Version: 6.00 Build 0)  -->
<!DOCTYPE svg PUBLIC "-//W3C//DTD SVG 1.1//EN" "http://www.w3.org/Graphics/SVG/1.1/DTD/svg11.dtd">
<svg version="1.1" id="Layer_1" xmlns="http://www.w3.org/2000/svg" xmlns:xlink="http://www.w3.org/1999/xlink" x="0px" y="0px"
	 width="756.151px" height="220.214px" viewBox="0 0 756.151 220.214" enable-background="new 0 0 756.151 220.214"
	 xml:space="preserve">
<rect x="0.075" y="0.075" fill="none" stroke="#A6A8AB" stroke-width="0.15" stroke-miterlimit="10" width="756" height="220.063"/>
<g>
	<rect x="240.464" y="50.271" fill="#20B5AE" width="120" height="120"/>
	<g>
		<rect x="533.899" y="50.271" fill="#DDDDDD" width="120" height="120"/>
		<g>
			<g>
				<g>
					<g>
						<g>
							<path fill="#FFFFFF" d="M279.164,83.846c0.563,0,1.023,0.073,1.379,0.218c0.356,0.145,0.636,0.33,0.838,0.554
								c0.202,0.225,0.343,0.475,0.422,0.752s0.119,0.552,0.119,0.825c0,0.247-0.039,0.482-0.117,0.707
								c-0.078,0.224-0.187,0.424-0.325,0.601c-0.139,0.176-0.299,0.323-0.481,0.442c-0.182,0.119-0.382,0.196-0.598,0.231v0.04
								c0.191,0.035,0.398,0.097,0.62,0.185s0.428,0.22,0.62,0.396c0.191,0.176,0.352,0.403,0.482,0.68
								c0.13,0.277,0.196,0.623,0.196,1.036c0,0.335-0.048,0.656-0.145,0.964c-0.097,0.308-0.271,0.581-0.521,0.818
								s-0.587,0.429-1.01,0.574s-0.964,0.218-1.624,0.218h-3.907v-9.24H279.164z M276.352,87.766h2.51
								c0.345,0,0.633-0.04,0.863-0.119c0.23-0.079,0.416-0.185,0.558-0.317c0.142-0.132,0.244-0.284,0.306-0.455
								c0.062-0.172,0.093-0.354,0.093-0.548c0-0.132-0.02-0.282-0.06-0.449c-0.04-0.167-0.122-0.324-0.246-0.469
								s-0.303-0.269-0.538-0.37c-0.235-0.101-0.547-0.152-0.937-0.152h-2.55V87.766z M276.352,92.043h2.588
								c0.212,0,0.445-0.015,0.697-0.046c0.252-0.031,0.484-0.101,0.697-0.211c0.212-0.11,0.39-0.272,0.531-0.488
								c0.142-0.215,0.212-0.513,0.212-0.891c0-0.299-0.051-0.55-0.153-0.752c-0.102-0.202-0.246-0.365-0.431-0.488
								c-0.186-0.123-0.409-0.213-0.67-0.271s-0.556-0.086-0.883-0.086h-2.588V92.043z"/>
							<path fill="#FFFFFF" d="M283.81,88.36c0-0.22,0.037-0.462,0.112-0.726c0.075-0.264,0.215-0.508,0.422-0.732
								c0.207-0.225,0.497-0.412,0.871-0.561s0.855-0.225,1.445-0.225c0.273,0,0.565,0.026,0.878,0.079
								c0.312,0.053,0.603,0.159,0.871,0.317c0.269,0.159,0.491,0.385,0.667,0.68c0.176,0.295,0.26,0.689,0.251,1.182l-0.066,3.102
								c0,0.132,0.002,0.249,0.006,0.35c0.004,0.102,0.029,0.185,0.073,0.251s0.114,0.117,0.211,0.152
								c0.097,0.035,0.233,0.048,0.41,0.04v0.818c-0.08,0.018-0.157,0.031-0.231,0.04s-0.174,0.013-0.297,0.013
								c-0.158,0-0.306-0.011-0.442-0.033c-0.137-0.022-0.255-0.066-0.356-0.132c-0.102-0.066-0.185-0.163-0.251-0.291
								c-0.066-0.127-0.117-0.301-0.152-0.521c-0.114,0.211-0.255,0.392-0.422,0.541c-0.167,0.15-0.352,0.273-0.554,0.37
								c-0.203,0.097-0.416,0.167-0.641,0.211c-0.224,0.043-0.451,0.066-0.68,0.066c-0.704,0-1.273-0.161-1.709-0.482
								c-0.436-0.321-0.653-0.833-0.653-1.538c0-0.291,0.044-0.552,0.132-0.786c0.088-0.233,0.255-0.44,0.501-0.621
								c0.246-0.18,0.581-0.33,1.003-0.449c0.422-0.119,0.973-0.209,1.65-0.271c0.246-0.018,0.453-0.035,0.62-0.053
								s0.301-0.055,0.403-0.112c0.101-0.057,0.173-0.143,0.218-0.257c0.044-0.114,0.066-0.282,0.066-0.501
								c0-0.079-0.009-0.193-0.026-0.343c-0.018-0.149-0.075-0.299-0.172-0.449c-0.097-0.149-0.246-0.279-0.449-0.39
								c-0.203-0.11-0.488-0.165-0.858-0.165c-0.105,0-0.257,0.009-0.456,0.026c-0.198,0.018-0.394,0.073-0.587,0.165
								c-0.193,0.093-0.361,0.233-0.501,0.422c-0.141,0.189-0.207,0.46-0.198,0.812H283.81z M288.166,89.654
								c-0.087,0.071-0.179,0.121-0.275,0.152c-0.096,0.031-0.201,0.055-0.314,0.073c-0.114,0.018-0.243,0.033-0.386,0.046
								c-0.145,0.013-0.308,0.033-0.491,0.06c-0.253,0.044-0.496,0.086-0.727,0.125s-0.435,0.101-0.609,0.185
								c-0.175,0.084-0.312,0.205-0.413,0.363c-0.101,0.158-0.151,0.37-0.151,0.633c0,0.396,0.12,0.702,0.36,0.917
								c0.24,0.216,0.548,0.324,0.923,0.324c0.227,0,0.456-0.033,0.688-0.099s0.445-0.185,0.642-0.356
								c0.196-0.172,0.36-0.407,0.491-0.706s0.209-0.682,0.236-1.148L288.166,89.654z"/>
							<path fill="#FFFFFF" d="M292.495,83.846v9.24h-1.162v-9.24H292.495z"/>
							<path fill="#FFFFFF" d="M295.558,83.846v9.24h-1.162v-9.24H295.558z"/>
							<path fill="#FFFFFF" d="M303.399,91.146c-0.044,0.238-0.125,0.486-0.245,0.746c-0.119,0.26-0.29,0.498-0.515,0.713
								c-0.224,0.216-0.513,0.394-0.865,0.535s-0.788,0.211-1.307,0.211c-0.554,0-1.023-0.075-1.406-0.225s-0.7-0.341-0.95-0.574
								c-0.251-0.233-0.447-0.49-0.587-0.772c-0.141-0.282-0.245-0.555-0.311-0.818c-0.066-0.264-0.105-0.504-0.119-0.72
								c-0.013-0.215-0.02-0.376-0.02-0.481c0-0.15,0.009-0.346,0.027-0.587c0.017-0.242,0.061-0.497,0.132-0.766
								c0.07-0.269,0.176-0.539,0.317-0.812c0.141-0.272,0.332-0.519,0.574-0.739c0.242-0.22,0.543-0.398,0.904-0.535
								c0.361-0.136,0.801-0.205,1.32-0.205c0.668,0,1.203,0.117,1.604,0.35c0.4,0.233,0.708,0.526,0.924,0.877
								c0.215,0.352,0.36,0.737,0.436,1.155c0.075,0.418,0.121,0.808,0.139,1.168c0,0.053,0.002,0.108,0.006,0.165
								c0.004,0.058,0.007,0.112,0.007,0.165h-5.161c0,0.291,0.04,0.585,0.119,0.884c0.079,0.299,0.202,0.57,0.37,0.812
								c0.167,0.242,0.385,0.442,0.653,0.601s0.596,0.238,0.983,0.238c0.272,0,0.519-0.038,0.739-0.112
								c0.22-0.075,0.407-0.176,0.561-0.304c0.154-0.127,0.277-0.275,0.37-0.442c0.092-0.167,0.156-0.343,0.191-0.528H303.399z
								 M302.237,89.179c-0.009-0.22-0.04-0.462-0.093-0.726c-0.053-0.264-0.147-0.508-0.284-0.732
								c-0.137-0.225-0.323-0.411-0.561-0.561c-0.237-0.149-0.545-0.225-0.924-0.225c-0.422,0-0.77,0.077-1.043,0.231
								c-0.273,0.154-0.486,0.346-0.64,0.574c-0.154,0.229-0.257,0.473-0.31,0.733s-0.079,0.495-0.079,0.706H302.237z"/>
							<path fill="#FFFFFF" d="M308.731,86.935c-0.396,0.018-0.746,0.071-1.049,0.159s-0.563,0.224-0.779,0.409
								c-0.216,0.185-0.387,0.422-0.515,0.713c-0.127,0.29-0.205,0.646-0.231,1.069c-0.009,0.124-0.013,0.242-0.013,0.356
								c0,0.115,0,0.233,0,0.356v3.089h-1.162V86.38h1.162v1.293h0.026c0.08-0.246,0.196-0.464,0.35-0.653
								c0.154-0.189,0.33-0.348,0.528-0.475c0.198-0.127,0.411-0.227,0.64-0.297s0.462-0.11,0.7-0.119l0.343-0.013V86.935z"/>
							<path fill="#FFFFFF" d="M309.827,83.846h1.162v1.215h-1.162V83.846z M310.988,86.38v6.706h-1.162V86.38H310.988z"/>
							<path fill="#FFFFFF" d="M314.024,86.38v0.937c0.229-0.334,0.537-0.618,0.924-0.851c0.387-0.233,0.845-0.35,1.373-0.35
								c0.44,0,0.803,0.068,1.089,0.205c0.286,0.137,0.511,0.319,0.673,0.548c0.163,0.229,0.277,0.495,0.343,0.799
								c0.066,0.303,0.099,0.623,0.099,0.957v4.461h-1.162v-4.105c0-0.176-0.007-0.383-0.02-0.621s-0.062-0.462-0.145-0.673
								c-0.084-0.211-0.222-0.389-0.416-0.535c-0.193-0.145-0.471-0.218-0.832-0.218c-0.158,0-0.348,0.026-0.567,0.08
								c-0.22,0.053-0.431,0.165-0.634,0.336c-0.203,0.171-0.374,0.422-0.515,0.752c-0.141,0.33-0.211,0.772-0.211,1.327v3.656
								h-1.162V86.38H314.024z"/>
							<path fill="#FFFFFF" d="M320.202,88.36c0-0.22,0.037-0.462,0.112-0.726c0.075-0.264,0.215-0.508,0.422-0.732
								c0.207-0.225,0.497-0.412,0.871-0.561s0.855-0.225,1.445-0.225c0.273,0,0.565,0.026,0.878,0.079
								c0.312,0.053,0.603,0.159,0.871,0.317c0.269,0.159,0.491,0.385,0.667,0.68c0.176,0.295,0.26,0.689,0.251,1.182l-0.066,3.102
								c0,0.132,0.002,0.249,0.006,0.35c0.004,0.102,0.029,0.185,0.073,0.251s0.114,0.117,0.211,0.152
								c0.097,0.035,0.233,0.048,0.41,0.04v0.818c-0.08,0.018-0.157,0.031-0.231,0.04s-0.174,0.013-0.297,0.013
								c-0.158,0-0.306-0.011-0.442-0.033c-0.137-0.022-0.255-0.066-0.356-0.132c-0.102-0.066-0.185-0.163-0.251-0.291
								c-0.066-0.127-0.117-0.301-0.152-0.521c-0.114,0.211-0.255,0.392-0.422,0.541c-0.167,0.15-0.352,0.273-0.554,0.37
								c-0.203,0.097-0.416,0.167-0.641,0.211c-0.224,0.043-0.451,0.066-0.68,0.066c-0.704,0-1.273-0.161-1.709-0.482
								c-0.436-0.321-0.653-0.833-0.653-1.538c0-0.291,0.044-0.552,0.132-0.786c0.088-0.233,0.255-0.44,0.501-0.621
								c0.246-0.18,0.581-0.33,1.003-0.449c0.422-0.119,0.973-0.209,1.65-0.271c0.246-0.018,0.453-0.035,0.62-0.053
								s0.301-0.055,0.403-0.112c0.101-0.057,0.173-0.143,0.218-0.257c0.044-0.114,0.066-0.282,0.066-0.501
								c0-0.079-0.009-0.193-0.026-0.343c-0.018-0.149-0.075-0.299-0.172-0.449c-0.097-0.149-0.246-0.279-0.449-0.39
								c-0.203-0.11-0.488-0.165-0.858-0.165c-0.105,0-0.257,0.009-0.456,0.026c-0.198,0.018-0.394,0.073-0.587,0.165
								c-0.193,0.093-0.361,0.233-0.501,0.422c-0.141,0.189-0.207,0.46-0.198,0.812H320.202z M324.558,89.654
								c-0.087,0.071-0.179,0.121-0.275,0.152c-0.096,0.031-0.201,0.055-0.314,0.073c-0.114,0.018-0.243,0.033-0.386,0.046
								c-0.145,0.013-0.308,0.033-0.491,0.06c-0.253,0.044-0.496,0.086-0.727,0.125s-0.435,0.101-0.609,0.185
								c-0.175,0.084-0.312,0.205-0.413,0.363c-0.101,0.158-0.151,0.37-0.151,0.633c0,0.396,0.12,0.702,0.36,0.917
								c0.24,0.216,0.548,0.324,0.923,0.324c0.227,0,0.456-0.033,0.688-0.099s0.445-0.185,0.642-0.356
								c0.196-0.172,0.36-0.407,0.491-0.706s0.209-0.682,0.236-1.148L324.558,89.654z"/>
							<path fill="#FFFFFF" d="M264.776,106.766c-0.009,0.308,0.044,0.594,0.158,0.858c0.114,0.264,0.286,0.493,0.515,0.686
								c0.229,0.194,0.508,0.346,0.838,0.456c0.33,0.11,0.706,0.165,1.128,0.165c0.414,0,0.764-0.048,1.05-0.145
								c0.286-0.097,0.519-0.225,0.699-0.383c0.181-0.159,0.312-0.341,0.396-0.548s0.125-0.42,0.125-0.64
								c0-0.282-0.057-0.517-0.171-0.707c-0.115-0.189-0.26-0.343-0.436-0.462c-0.176-0.119-0.376-0.213-0.601-0.284
								c-0.225-0.07-0.442-0.127-0.654-0.171c-0.528-0.114-1.032-0.222-1.511-0.324c-0.479-0.101-0.902-0.244-1.267-0.429
								c-0.365-0.185-0.656-0.434-0.871-0.746c-0.216-0.312-0.324-0.732-0.324-1.26c0-0.431,0.083-0.814,0.251-1.148
								c0.167-0.334,0.405-0.612,0.713-0.832c0.308-0.22,0.677-0.387,1.109-0.501c0.431-0.114,0.906-0.171,1.425-0.171
								c0.572,0,1.067,0.072,1.485,0.218c0.417,0.145,0.765,0.341,1.042,0.587s0.488,0.532,0.634,0.858
								c0.145,0.326,0.231,0.665,0.257,1.017h-1.241c-0.044-0.378-0.156-0.678-0.337-0.898c-0.18-0.22-0.385-0.385-0.614-0.495
								c-0.229-0.11-0.462-0.178-0.699-0.205c-0.238-0.027-0.427-0.04-0.568-0.04c-0.643,0-1.16,0.139-1.551,0.416
								c-0.392,0.277-0.587,0.653-0.587,1.128c0,0.282,0.063,0.508,0.191,0.68c0.127,0.171,0.297,0.312,0.508,0.422
								c0.211,0.11,0.456,0.196,0.733,0.257s0.569,0.123,0.878,0.185c0.413,0.079,0.829,0.17,1.247,0.271
								c0.418,0.102,0.796,0.253,1.135,0.456c0.339,0.203,0.614,0.473,0.825,0.812c0.211,0.339,0.317,0.785,0.317,1.34
								c0,0.458-0.073,0.845-0.218,1.162c-0.145,0.316-0.332,0.579-0.561,0.785c-0.229,0.207-0.484,0.368-0.766,0.482
								c-0.282,0.114-0.557,0.198-0.825,0.25c-0.269,0.053-0.52,0.084-0.752,0.093c-0.233,0.008-0.412,0.013-0.535,0.013
								c-0.326,0-0.702-0.031-1.128-0.093c-0.427-0.062-0.834-0.2-1.221-0.416c-0.387-0.215-0.719-0.537-0.997-0.964
								c-0.277-0.426-0.434-1.005-0.468-1.735H264.776z"/>
							<path fill="#FFFFFF" d="M272.973,102.99v-2.006h1.162v2.006h1.426v0.818h-1.426v4.264c0,0.123,0.002,0.24,0.007,0.35
								c0.004,0.11,0.026,0.209,0.066,0.297s0.108,0.156,0.205,0.205s0.238,0.072,0.422,0.072c0.123,0,0.247-0.011,0.37-0.033
								s0.242-0.051,0.356-0.086v0.818c-0.185,0.079-0.383,0.143-0.594,0.191c-0.211,0.048-0.418,0.073-0.621,0.073
								c-0.343,0-0.609-0.053-0.799-0.159c-0.189-0.105-0.326-0.24-0.409-0.402c-0.083-0.163-0.132-0.341-0.145-0.535
								c-0.013-0.193-0.02-0.378-0.02-0.555v-4.501h-1.201v-0.818H272.973z"/>
							<path fill="#FFFFFF" d="M276.391,106.343c0-0.449,0.057-0.889,0.172-1.32c0.114-0.431,0.301-0.816,0.561-1.155
								c0.259-0.339,0.601-0.614,1.023-0.825c0.422-0.211,0.937-0.317,1.544-0.317c0.607,0,1.122,0.106,1.544,0.317
								c0.422,0.211,0.763,0.486,1.023,0.825c0.259,0.339,0.446,0.724,0.561,1.155c0.114,0.431,0.171,0.871,0.171,1.32
								c0,0.449-0.057,0.889-0.171,1.32c-0.115,0.431-0.302,0.816-0.561,1.155c-0.26,0.339-0.601,0.614-1.023,0.825
								c-0.422,0.211-0.938,0.317-1.544,0.317c-0.607,0-1.122-0.106-1.544-0.317c-0.422-0.211-0.764-0.486-1.023-0.825
								c-0.26-0.338-0.447-0.724-0.561-1.155C276.448,107.232,276.391,106.792,276.391,106.343z M277.619,106.343
								c0,0.666,0.083,1.187,0.25,1.563c0.167,0.377,0.365,0.657,0.594,0.841c0.229,0.184,0.458,0.296,0.686,0.335
								c0.229,0.039,0.41,0.059,0.542,0.059s0.312-0.02,0.541-0.059c0.229-0.04,0.458-0.151,0.687-0.335
								c0.229-0.184,0.427-0.464,0.594-0.841c0.167-0.376,0.251-0.897,0.251-1.563c0-0.666-0.083-1.187-0.251-1.563
								c-0.167-0.377-0.365-0.657-0.594-0.841c-0.229-0.184-0.458-0.296-0.687-0.335c-0.229-0.04-0.409-0.06-0.541-0.06
								s-0.312,0.02-0.542,0.06c-0.229,0.039-0.458,0.151-0.686,0.335c-0.229,0.184-0.427,0.464-0.594,0.841
								C277.703,105.156,277.619,105.677,277.619,106.343z"/>
							<path fill="#FFFFFF" d="M290.317,107.307c-0.018,0.203-0.068,0.453-0.152,0.752s-0.229,0.589-0.436,0.871
								s-0.497,0.524-0.871,0.726s-0.86,0.304-1.458,0.304c-0.115,0-0.273-0.009-0.475-0.026c-0.203-0.018-0.427-0.062-0.673-0.132
								c-0.247-0.07-0.495-0.183-0.746-0.336c-0.25-0.154-0.477-0.365-0.68-0.634c-0.203-0.268-0.37-0.609-0.501-1.023
								c-0.132-0.414-0.198-0.919-0.198-1.518c0-0.387,0.044-0.792,0.132-1.214c0.088-0.422,0.25-0.807,0.488-1.155
								s0.563-0.634,0.977-0.858c0.413-0.225,0.946-0.337,1.597-0.337c0.475,0,0.889,0.064,1.241,0.191
								c0.352,0.128,0.646,0.302,0.884,0.521c0.238,0.22,0.424,0.471,0.561,0.752c0.136,0.282,0.222,0.581,0.257,0.897h-1.109
								c-0.062-0.37-0.171-0.66-0.33-0.871c-0.158-0.211-0.33-0.365-0.515-0.462c-0.185-0.097-0.368-0.156-0.548-0.178
								s-0.319-0.033-0.416-0.033c-0.361,0-0.669,0.073-0.924,0.218c-0.255,0.146-0.462,0.341-0.62,0.587
								c-0.159,0.247-0.273,0.537-0.343,0.872c-0.071,0.334-0.105,0.691-0.105,1.069c0,0.378,0.04,0.739,0.119,1.083
								s0.2,0.647,0.363,0.911c0.163,0.264,0.376,0.473,0.64,0.627c0.264,0.154,0.581,0.231,0.951,0.231
								c0.325,0,0.601-0.062,0.825-0.185c0.225-0.123,0.407-0.275,0.548-0.456c0.141-0.18,0.242-0.378,0.304-0.594
								c0.062-0.215,0.097-0.416,0.105-0.601H290.317z"/>
							<path fill="#FFFFFF" d="M296.099,102.99h1.386l-2.667,2.587l2.904,4.118h-1.32l-2.363-3.406l-1.135,1.122v2.284h-1.162v-9.24
								h1.162v5.729L296.099,102.99z"/>
							<path fill="#FFFFFF" d="M309.893,110.026l-0.687,0.646l-1.095-1.228c-0.044,0.026-0.124,0.068-0.238,0.125
								c-0.114,0.058-0.269,0.117-0.462,0.178c-0.194,0.062-0.427,0.114-0.7,0.159c-0.273,0.044-0.585,0.066-0.937,0.066
								c-0.898,0-1.63-0.161-2.198-0.482c-0.568-0.321-1.017-0.726-1.347-1.214s-0.557-1.019-0.68-1.591
								c-0.124-0.572-0.185-1.108-0.185-1.61c0-0.264,0.021-0.567,0.066-0.911c0.044-0.343,0.123-0.695,0.237-1.056
								s0.275-0.717,0.482-1.069c0.207-0.352,0.473-0.667,0.799-0.944c0.325-0.277,0.719-0.5,1.181-0.667
								c0.462-0.167,1.01-0.25,1.644-0.25c0.642,0,1.234,0.104,1.775,0.31c0.541,0.207,1.005,0.515,1.393,0.924
								s0.69,0.92,0.911,1.531c0.22,0.612,0.33,1.322,0.33,2.132c0,0.238-0.011,0.508-0.033,0.812s-0.079,0.623-0.171,0.957
								s-0.227,0.675-0.403,1.023c-0.176,0.348-0.418,0.684-0.726,1.01L309.893,110.026z M308.031,107.967
								c0.282-0.361,0.491-0.77,0.627-1.228c0.136-0.457,0.205-1.012,0.205-1.663c0-0.862-0.117-1.549-0.35-2.059
								s-0.513-0.897-0.838-1.162c-0.326-0.264-0.665-0.436-1.017-0.515s-0.647-0.119-0.884-0.119c-0.167,0-0.359,0.016-0.574,0.046
								c-0.216,0.031-0.438,0.095-0.667,0.191c-0.229,0.097-0.456,0.231-0.68,0.403c-0.224,0.171-0.422,0.4-0.594,0.686
								c-0.172,0.286-0.31,0.636-0.416,1.049c-0.105,0.414-0.158,0.907-0.158,1.479c0,0.361,0.037,0.764,0.112,1.208
								c0.075,0.444,0.222,0.862,0.442,1.254c0.22,0.392,0.532,0.722,0.938,0.99c0.404,0.268,0.937,0.402,1.597,0.402
								c0.105,0,0.227-0.006,0.363-0.02c0.136-0.014,0.273-0.033,0.409-0.06s0.271-0.064,0.403-0.112
								c0.132-0.048,0.25-0.107,0.356-0.178l-1.03-1.148l0.713-0.62L308.031,107.967z"/>
							<path fill="#FFFFFF" d="M316.229,109.696v-0.95h-0.026c-0.167,0.29-0.37,0.517-0.607,0.68
								c-0.237,0.163-0.468,0.284-0.693,0.363s-0.427,0.127-0.607,0.146c-0.18,0.018-0.301,0.026-0.363,0.026
								c-0.493,0-0.887-0.084-1.181-0.251c-0.295-0.167-0.517-0.378-0.667-0.634c-0.149-0.255-0.246-0.528-0.29-0.818
								c-0.044-0.29-0.066-0.563-0.066-0.818v-4.448h1.162v4.105c0,0.422,0.035,0.766,0.106,1.03c0.07,0.264,0.167,0.473,0.29,0.627
								c0.124,0.154,0.271,0.257,0.442,0.31c0.171,0.053,0.363,0.08,0.574,0.08c0.484,0,0.858-0.108,1.122-0.324
								c0.264-0.215,0.455-0.464,0.574-0.746c0.119-0.282,0.187-0.559,0.205-0.832c0.018-0.273,0.026-0.471,0.026-0.594v-3.656
								h1.162v6.706H316.229z"/>
							<path fill="#FFFFFF" d="M318.908,106.343c0-0.449,0.057-0.889,0.172-1.32c0.114-0.431,0.301-0.816,0.561-1.155
								c0.259-0.339,0.601-0.614,1.023-0.825c0.422-0.211,0.937-0.317,1.544-0.317c0.607,0,1.122,0.106,1.544,0.317
								c0.422,0.211,0.763,0.486,1.023,0.825c0.259,0.339,0.446,0.724,0.561,1.155c0.114,0.431,0.171,0.871,0.171,1.32
								c0,0.449-0.057,0.889-0.171,1.32c-0.115,0.431-0.302,0.816-0.561,1.155c-0.26,0.339-0.601,0.614-1.023,0.825
								c-0.422,0.211-0.938,0.317-1.544,0.317c-0.607,0-1.122-0.106-1.544-0.317c-0.422-0.211-0.764-0.486-1.023-0.825
								c-0.26-0.338-0.447-0.724-0.561-1.155C318.965,107.232,318.908,106.792,318.908,106.343z M320.136,106.343
								c0,0.666,0.083,1.187,0.25,1.563c0.167,0.377,0.365,0.657,0.594,0.841c0.229,0.184,0.458,0.296,0.686,0.335
								c0.229,0.039,0.41,0.059,0.542,0.059s0.312-0.02,0.541-0.059c0.229-0.04,0.458-0.151,0.687-0.335
								c0.229-0.184,0.427-0.464,0.594-0.841c0.167-0.376,0.251-0.897,0.251-1.563c0-0.666-0.083-1.187-0.251-1.563
								c-0.167-0.377-0.365-0.657-0.594-0.841c-0.229-0.184-0.458-0.296-0.687-0.335c-0.229-0.04-0.409-0.06-0.541-0.06
								s-0.312,0.02-0.542,0.06c-0.229,0.039-0.458,0.151-0.686,0.335c-0.229,0.184-0.427,0.464-0.594,0.841
								C320.219,105.156,320.136,105.677,320.136,106.343z"/>
							<path fill="#FFFFFF" d="M327.448,102.99v-2.006h1.162v2.006h1.426v0.818h-1.426v4.264c0,0.123,0.002,0.24,0.007,0.35
								c0.004,0.11,0.026,0.209,0.066,0.297s0.108,0.156,0.205,0.205s0.238,0.072,0.422,0.072c0.123,0,0.247-0.011,0.37-0.033
								s0.242-0.051,0.356-0.086v0.818c-0.185,0.079-0.383,0.143-0.594,0.191c-0.211,0.048-0.418,0.073-0.621,0.073
								c-0.343,0-0.609-0.053-0.799-0.159c-0.189-0.105-0.326-0.24-0.409-0.402c-0.083-0.163-0.132-0.341-0.145-0.535
								c-0.013-0.193-0.02-0.378-0.02-0.555v-4.501h-1.201v-0.818H327.448z"/>
							<path fill="#FFFFFF" d="M337.19,107.755c-0.044,0.238-0.125,0.486-0.245,0.746c-0.119,0.26-0.29,0.498-0.515,0.713
								c-0.224,0.216-0.513,0.394-0.865,0.535s-0.788,0.211-1.307,0.211c-0.554,0-1.023-0.075-1.406-0.225s-0.7-0.341-0.95-0.574
								c-0.251-0.233-0.447-0.49-0.587-0.772c-0.141-0.282-0.245-0.555-0.311-0.818c-0.066-0.264-0.105-0.504-0.119-0.72
								c-0.013-0.215-0.02-0.376-0.02-0.481c0-0.15,0.009-0.346,0.027-0.587c0.017-0.242,0.061-0.497,0.132-0.766
								c0.07-0.269,0.176-0.539,0.317-0.812c0.141-0.272,0.332-0.519,0.574-0.739c0.242-0.22,0.543-0.398,0.904-0.535
								c0.361-0.136,0.801-0.205,1.32-0.205c0.668,0,1.203,0.117,1.604,0.35c0.4,0.233,0.708,0.526,0.924,0.877
								c0.215,0.352,0.36,0.737,0.436,1.155c0.075,0.418,0.121,0.808,0.139,1.168c0,0.053,0.002,0.108,0.006,0.165
								c0.004,0.058,0.007,0.112,0.007,0.165h-5.161c0,0.291,0.04,0.585,0.119,0.884c0.079,0.299,0.202,0.57,0.37,0.812
								c0.167,0.242,0.385,0.442,0.653,0.601s0.596,0.238,0.983,0.238c0.272,0,0.519-0.038,0.739-0.112
								c0.22-0.075,0.407-0.176,0.561-0.304c0.154-0.127,0.277-0.275,0.37-0.442c0.092-0.167,0.156-0.343,0.191-0.528H337.19z
								 M336.029,105.789c-0.009-0.22-0.04-0.462-0.093-0.726c-0.053-0.264-0.147-0.508-0.284-0.732
								c-0.137-0.225-0.323-0.411-0.561-0.561c-0.237-0.149-0.545-0.225-0.924-0.225c-0.422,0-0.77,0.077-1.043,0.231
								c-0.273,0.154-0.486,0.346-0.64,0.574c-0.154,0.229-0.257,0.473-0.31,0.733s-0.079,0.495-0.079,0.706H336.029z"/>
							<path fill="#FFFFFF" d="M273.059,123.376c-0.009,0.308,0.044,0.594,0.158,0.858c0.114,0.264,0.286,0.492,0.515,0.686
								c0.229,0.193,0.508,0.346,0.838,0.455c0.33,0.111,0.706,0.166,1.128,0.166c0.414,0,0.764-0.049,1.05-0.146
								c0.286-0.097,0.519-0.225,0.699-0.383c0.181-0.159,0.312-0.341,0.396-0.548s0.125-0.42,0.125-0.641
								c0-0.281-0.057-0.517-0.171-0.706c-0.115-0.188-0.26-0.343-0.436-0.462c-0.176-0.119-0.376-0.213-0.601-0.283
								c-0.225-0.07-0.442-0.128-0.654-0.172c-0.528-0.114-1.032-0.223-1.511-0.324c-0.479-0.101-0.902-0.244-1.267-0.428
								c-0.365-0.186-0.656-0.434-0.871-0.746c-0.216-0.312-0.324-0.732-0.324-1.261c0-0.431,0.083-0.813,0.251-1.148
								c0.167-0.335,0.405-0.612,0.713-0.832c0.308-0.22,0.677-0.387,1.109-0.501c0.431-0.115,0.906-0.172,1.425-0.172
								c0.572,0,1.067,0.072,1.485,0.218c0.417,0.146,0.765,0.341,1.042,0.587c0.277,0.247,0.488,0.533,0.634,0.858
								c0.145,0.325,0.231,0.665,0.257,1.017h-1.241c-0.044-0.379-0.156-0.678-0.337-0.898c-0.18-0.219-0.385-0.385-0.614-0.494
								c-0.229-0.11-0.462-0.178-0.699-0.205c-0.238-0.026-0.427-0.039-0.568-0.039c-0.643,0-1.16,0.139-1.551,0.416
								c-0.392,0.277-0.587,0.652-0.587,1.128c0,0.282,0.063,0.509,0.191,0.681c0.127,0.171,0.297,0.312,0.508,0.422
								c0.211,0.109,0.456,0.195,0.733,0.258c0.277,0.061,0.569,0.123,0.878,0.184c0.413,0.08,0.829,0.17,1.247,0.271
								s0.796,0.253,1.135,0.455c0.339,0.203,0.614,0.473,0.825,0.812c0.211,0.338,0.317,0.785,0.317,1.34
								c0,0.457-0.073,0.844-0.218,1.161c-0.145,0.316-0.332,0.579-0.561,0.785c-0.229,0.207-0.484,0.368-0.766,0.481
								c-0.282,0.115-0.557,0.198-0.825,0.251c-0.269,0.054-0.52,0.084-0.752,0.093c-0.233,0.008-0.412,0.014-0.535,0.014
								c-0.326,0-0.702-0.031-1.128-0.094c-0.427-0.061-0.834-0.199-1.221-0.415s-0.719-0.536-0.997-0.964
								c-0.277-0.426-0.434-1.005-0.468-1.735H273.059z"/>
							<path fill="#FFFFFF" d="M285.335,126.307v-0.951h-0.026c-0.167,0.291-0.37,0.518-0.607,0.68
								c-0.237,0.164-0.468,0.284-0.693,0.363s-0.427,0.127-0.607,0.146c-0.18,0.018-0.301,0.026-0.363,0.026
								c-0.493,0-0.887-0.084-1.181-0.251c-0.295-0.167-0.517-0.378-0.667-0.634c-0.149-0.255-0.246-0.527-0.29-0.818
								c-0.044-0.29-0.066-0.562-0.066-0.818v-4.448h1.162v4.104c0,0.423,0.035,0.766,0.106,1.03c0.07,0.265,0.167,0.474,0.29,0.627
								c0.124,0.154,0.271,0.257,0.442,0.31c0.171,0.054,0.363,0.08,0.574,0.08c0.484,0,0.858-0.107,1.122-0.324
								c0.264-0.215,0.455-0.463,0.574-0.745c0.119-0.282,0.187-0.559,0.205-0.831c0.018-0.273,0.026-0.471,0.026-0.595v-3.656
								h1.162v6.706H285.335z"/>
							<path fill="#FFFFFF" d="M289.559,119.601v0.911l-0.013,0.078c0.088-0.193,0.207-0.367,0.356-0.521s0.317-0.286,0.502-0.396
								c0.185-0.111,0.38-0.194,0.587-0.252c0.207-0.057,0.416-0.086,0.627-0.086c0.29,0,0.545,0.043,0.766,0.126
								c0.22,0.084,0.407,0.194,0.561,0.33c0.154,0.137,0.279,0.29,0.376,0.462c0.097,0.172,0.167,0.346,0.211,0.521
								c0.062-0.132,0.154-0.279,0.277-0.442s0.277-0.319,0.462-0.468c0.185-0.15,0.407-0.275,0.667-0.377
								c0.259-0.102,0.565-0.152,0.917-0.152c0.51,0,0.911,0.104,1.201,0.311c0.291,0.207,0.506,0.451,0.647,0.732
								c0.141,0.282,0.227,0.572,0.257,0.871c0.031,0.3,0.046,0.542,0.046,0.727v4.33h-1.162v-4.251
								c0-0.176-0.011-0.374-0.033-0.594s-0.077-0.427-0.165-0.62s-0.218-0.357-0.389-0.488c-0.172-0.133-0.407-0.199-0.706-0.199
								c-0.194,0-0.396,0.031-0.607,0.094c-0.211,0.061-0.402,0.174-0.574,0.336c-0.171,0.163-0.312,0.383-0.422,0.66
								c-0.11,0.277-0.165,0.631-0.165,1.062v4h-1.162v-4.238c0-0.246-0.018-0.483-0.053-0.713c-0.035-0.229-0.101-0.43-0.198-0.606
								c-0.097-0.176-0.229-0.319-0.396-0.429c-0.167-0.11-0.383-0.166-0.647-0.166c-0.238,0-0.464,0.051-0.68,0.152
								c-0.216,0.102-0.405,0.244-0.568,0.43c-0.163,0.184-0.291,0.411-0.383,0.68c-0.092,0.268-0.139,0.564-0.139,0.891v4h-1.162
								v-6.706H289.559z"/>
							<path fill="#FFFFFF" d="M301.069,119.601v0.911l-0.013,0.078c0.088-0.193,0.207-0.367,0.356-0.521s0.317-0.286,0.502-0.396
								c0.185-0.111,0.38-0.194,0.587-0.252c0.207-0.057,0.416-0.086,0.627-0.086c0.29,0,0.545,0.043,0.766,0.126
								c0.22,0.084,0.407,0.194,0.561,0.33c0.154,0.137,0.279,0.29,0.376,0.462c0.097,0.172,0.167,0.346,0.211,0.521
								c0.062-0.132,0.154-0.279,0.277-0.442s0.277-0.319,0.462-0.468c0.185-0.15,0.407-0.275,0.667-0.377
								c0.259-0.102,0.565-0.152,0.917-0.152c0.51,0,0.911,0.104,1.201,0.311c0.291,0.207,0.506,0.451,0.647,0.732
								c0.141,0.282,0.227,0.572,0.257,0.871c0.031,0.3,0.046,0.542,0.046,0.727v4.33h-1.162v-4.251
								c0-0.176-0.011-0.374-0.033-0.594s-0.077-0.427-0.165-0.62s-0.218-0.357-0.389-0.488c-0.172-0.133-0.407-0.199-0.706-0.199
								c-0.194,0-0.396,0.031-0.607,0.094c-0.211,0.061-0.402,0.174-0.574,0.336c-0.171,0.163-0.312,0.383-0.422,0.66
								c-0.11,0.277-0.165,0.631-0.165,1.062v4h-1.162v-4.238c0-0.246-0.018-0.483-0.053-0.713c-0.035-0.229-0.101-0.43-0.198-0.606
								c-0.097-0.176-0.229-0.319-0.396-0.429c-0.167-0.11-0.383-0.166-0.647-0.166c-0.238,0-0.464,0.051-0.68,0.152
								c-0.216,0.102-0.405,0.244-0.568,0.43c-0.163,0.184-0.291,0.411-0.383,0.68c-0.092,0.268-0.139,0.564-0.139,0.891v4h-1.162
								v-6.706H301.069z"/>
							<path fill="#FFFFFF" d="M311.193,121.58c0-0.219,0.037-0.461,0.112-0.726c0.075-0.265,0.215-0.509,0.422-0.732
								c0.207-0.225,0.497-0.411,0.871-0.562c0.374-0.148,0.855-0.225,1.445-0.225c0.273,0,0.565,0.027,0.878,0.08
								c0.312,0.053,0.603,0.158,0.871,0.316s0.491,0.385,0.667,0.68c0.176,0.295,0.26,0.689,0.251,1.182l-0.066,3.102
								c0,0.133,0.002,0.249,0.006,0.35c0.004,0.102,0.029,0.186,0.073,0.252c0.044,0.065,0.114,0.116,0.211,0.151
								c0.097,0.035,0.233,0.048,0.41,0.04v0.818c-0.08,0.018-0.157,0.03-0.231,0.039s-0.174,0.014-0.297,0.014
								c-0.158,0-0.306-0.012-0.442-0.033c-0.137-0.021-0.255-0.066-0.356-0.133c-0.102-0.065-0.185-0.162-0.251-0.29
								s-0.117-0.302-0.152-0.521c-0.114,0.211-0.255,0.391-0.422,0.541c-0.167,0.149-0.352,0.272-0.554,0.369
								c-0.203,0.097-0.416,0.167-0.641,0.211c-0.224,0.044-0.451,0.066-0.68,0.066c-0.704,0-1.273-0.16-1.709-0.482
								c-0.436-0.32-0.653-0.833-0.653-1.537c0-0.291,0.044-0.553,0.132-0.785c0.088-0.233,0.255-0.44,0.501-0.621
								c0.246-0.18,0.581-0.33,1.003-0.449c0.422-0.118,0.973-0.209,1.65-0.27c0.246-0.018,0.453-0.035,0.62-0.053
								s0.301-0.055,0.403-0.113c0.101-0.057,0.173-0.143,0.218-0.257c0.044-0.114,0.066-0.282,0.066-0.501
								c0-0.08-0.009-0.193-0.026-0.344c-0.018-0.149-0.075-0.299-0.172-0.449c-0.097-0.148-0.246-0.279-0.449-0.389
								c-0.203-0.11-0.488-0.166-0.858-0.166c-0.105,0-0.257,0.01-0.456,0.027c-0.198,0.018-0.394,0.072-0.587,0.164
								c-0.193,0.094-0.361,0.234-0.501,0.423c-0.141,0.189-0.207,0.46-0.198,0.812H311.193z M315.549,122.874
								c-0.087,0.071-0.179,0.121-0.275,0.151c-0.096,0.031-0.201,0.056-0.314,0.073c-0.114,0.018-0.243,0.032-0.386,0.046
								c-0.145,0.014-0.308,0.033-0.491,0.06c-0.253,0.044-0.496,0.086-0.727,0.126c-0.231,0.039-0.435,0.101-0.609,0.184
								c-0.175,0.084-0.312,0.205-0.413,0.363c-0.101,0.158-0.151,0.37-0.151,0.634c0,0.396,0.12,0.702,0.36,0.917
								c0.24,0.217,0.548,0.324,0.923,0.324c0.227,0,0.456-0.033,0.688-0.1c0.231-0.065,0.445-0.185,0.642-0.355
								c0.196-0.172,0.36-0.407,0.491-0.707c0.131-0.299,0.209-0.682,0.236-1.148L315.549,122.874z"/>
							<path fill="#FFFFFF" d="M322.466,120.154c-0.396,0.019-0.746,0.071-1.049,0.159s-0.563,0.224-0.779,0.409
								c-0.216,0.185-0.387,0.422-0.515,0.713c-0.127,0.29-0.205,0.646-0.231,1.068c-0.009,0.124-0.013,0.242-0.013,0.357
								c0,0.114,0,0.232,0,0.355v3.09h-1.162v-6.706h1.162v1.294h0.026c0.08-0.246,0.196-0.465,0.35-0.654
								c0.154-0.188,0.33-0.348,0.528-0.475c0.198-0.127,0.411-0.227,0.64-0.297s0.462-0.11,0.7-0.119l0.343-0.014V120.154z"/>
							<path fill="#FFFFFF" d="M324.168,127.877c0.174,0.026,0.301,0.044,0.379,0.053s0.144,0.014,0.196,0.014
								c0.166,0,0.306-0.031,0.419-0.093c0.114-0.062,0.209-0.146,0.288-0.251c0.078-0.105,0.142-0.227,0.19-0.363
								c0.048-0.137,0.098-0.279,0.151-0.429l0.159-0.501l-2.892-6.706h1.386l2.143,5.425l1.791-5.425h1.162l-2.667,7.497
								c-0.053,0.158-0.114,0.337-0.185,0.535c-0.07,0.197-0.169,0.383-0.297,0.555s-0.292,0.316-0.495,0.436
								c-0.202,0.119-0.462,0.178-0.779,0.178c-0.185,0-0.358-0.004-0.521-0.014c-0.163-0.008-0.306-0.025-0.429-0.053V127.877z"/>
							<path fill="#FFFFFF" d="M279.54,139.984c-0.009,0.309,0.044,0.596,0.158,0.859s0.286,0.492,0.515,0.686
								c0.229,0.193,0.508,0.346,0.838,0.455c0.33,0.111,0.706,0.166,1.128,0.166c0.414,0,0.764-0.049,1.05-0.146
								c0.286-0.096,0.519-0.223,0.699-0.383c0.181-0.158,0.312-0.34,0.396-0.547s0.125-0.42,0.125-0.641
								c0-0.281-0.057-0.516-0.171-0.705c-0.115-0.189-0.26-0.344-0.436-0.463c-0.176-0.119-0.376-0.213-0.601-0.283
								c-0.225-0.07-0.442-0.129-0.654-0.172c-0.528-0.115-1.032-0.223-1.511-0.324c-0.479-0.1-0.902-0.244-1.267-0.428
								c-0.365-0.186-0.656-0.434-0.871-0.746c-0.216-0.312-0.324-0.732-0.324-1.261c0-0.431,0.083-0.813,0.251-1.148
								c0.167-0.335,0.405-0.612,0.713-0.832c0.308-0.22,0.677-0.387,1.109-0.501c0.431-0.115,0.906-0.172,1.425-0.172
								c0.572,0,1.067,0.072,1.485,0.218c0.417,0.146,0.765,0.341,1.042,0.587c0.277,0.247,0.488,0.533,0.634,0.858
								c0.145,0.325,0.231,0.665,0.257,1.017h-1.241c-0.044-0.379-0.156-0.678-0.337-0.898c-0.18-0.219-0.385-0.385-0.614-0.494
								c-0.229-0.11-0.462-0.178-0.699-0.205c-0.238-0.026-0.427-0.039-0.568-0.039c-0.643,0-1.16,0.139-1.551,0.416
								c-0.392,0.277-0.587,0.652-0.587,1.128c0,0.282,0.063,0.509,0.191,0.681c0.127,0.171,0.297,0.312,0.508,0.422
								c0.211,0.109,0.456,0.195,0.733,0.258c0.277,0.061,0.569,0.123,0.878,0.184c0.413,0.08,0.829,0.17,1.247,0.271
								s0.796,0.252,1.135,0.455s0.614,0.473,0.825,0.812c0.211,0.338,0.317,0.785,0.317,1.34c0,0.457-0.073,0.844-0.218,1.16
								c-0.145,0.318-0.332,0.58-0.561,0.787c-0.229,0.205-0.484,0.367-0.766,0.48c-0.282,0.115-0.557,0.199-0.825,0.252
								s-0.52,0.082-0.752,0.092c-0.233,0.008-0.412,0.014-0.535,0.014c-0.326,0-0.702-0.031-1.128-0.094
								c-0.427-0.061-0.834-0.199-1.221-0.416c-0.387-0.215-0.719-0.535-0.997-0.963c-0.277-0.426-0.434-1.006-0.468-1.736H279.54z"
								/>
							<path fill="#FFFFFF" d="M293.255,140.975c-0.044,0.238-0.125,0.486-0.245,0.746c-0.119,0.26-0.29,0.498-0.515,0.713
								c-0.224,0.217-0.513,0.395-0.865,0.535s-0.788,0.211-1.307,0.211c-0.554,0-1.023-0.074-1.406-0.225s-0.7-0.342-0.95-0.574
								c-0.251-0.232-0.447-0.49-0.587-0.771c-0.141-0.281-0.245-0.555-0.311-0.818c-0.066-0.266-0.105-0.504-0.119-0.721
								c-0.013-0.215-0.02-0.375-0.02-0.48c0-0.15,0.009-0.346,0.027-0.588c0.017-0.242,0.061-0.498,0.132-0.766
								c0.07-0.268,0.176-0.539,0.317-0.812c0.141-0.271,0.332-0.519,0.574-0.738c0.242-0.221,0.543-0.398,0.904-0.535
								s0.801-0.205,1.32-0.205c0.668,0,1.203,0.117,1.604,0.351s0.708,0.526,0.924,0.878c0.215,0.352,0.36,0.736,0.436,1.154
								c0.075,0.418,0.121,0.809,0.139,1.168c0,0.053,0.002,0.109,0.006,0.166s0.007,0.111,0.007,0.164h-5.161
								c0,0.291,0.04,0.586,0.119,0.885s0.202,0.57,0.37,0.812c0.167,0.242,0.385,0.441,0.653,0.6s0.596,0.238,0.983,0.238
								c0.272,0,0.519-0.037,0.739-0.113c0.22-0.074,0.407-0.176,0.561-0.303c0.154-0.127,0.277-0.275,0.37-0.441
								c0.092-0.168,0.156-0.344,0.191-0.529H293.255z M292.093,139.008c-0.009-0.219-0.04-0.461-0.093-0.725
								c-0.053-0.266-0.147-0.51-0.284-0.732c-0.137-0.226-0.323-0.412-0.561-0.562c-0.237-0.148-0.545-0.225-0.924-0.225
								c-0.422,0-0.77,0.078-1.043,0.231c-0.273,0.154-0.486,0.346-0.64,0.575c-0.154,0.229-0.257,0.473-0.31,0.732
								s-0.079,0.494-0.079,0.705H292.093z"/>
							<path fill="#FFFFFF" d="M298.587,136.764c-0.396,0.019-0.746,0.071-1.049,0.159s-0.563,0.224-0.779,0.409
								c-0.216,0.186-0.387,0.422-0.515,0.713c-0.127,0.291-0.205,0.646-0.231,1.068c-0.009,0.123-0.013,0.242-0.013,0.357
								c0,0.113,0,0.232,0,0.355v3.09h-1.162v-6.706H296v1.294h0.026c0.08-0.246,0.196-0.465,0.35-0.654
								c0.154-0.188,0.33-0.348,0.528-0.475c0.198-0.127,0.411-0.227,0.64-0.297s0.462-0.11,0.7-0.119l0.343-0.014V136.764z"/>
							<path fill="#FFFFFF" d="M304.078,136.21h1.241l-2.481,6.706h-1.32l-2.481-6.706h1.241l1.901,5.544L304.078,136.21z"/>
							<path fill="#FFFFFF" d="M306.216,133.676h1.162v1.215h-1.162V133.676z M307.378,136.21v6.706h-1.162v-6.706H307.378z"/>
							<path fill="#FFFFFF" d="M315.06,140.525c-0.018,0.203-0.068,0.455-0.152,0.754s-0.229,0.59-0.436,0.871
								s-0.497,0.523-0.871,0.725c-0.374,0.203-0.86,0.305-1.458,0.305c-0.115,0-0.273-0.01-0.475-0.027
								c-0.203-0.018-0.427-0.061-0.673-0.131c-0.247-0.07-0.495-0.184-0.746-0.338c-0.25-0.152-0.477-0.363-0.68-0.633
								c-0.203-0.268-0.37-0.609-0.501-1.023c-0.132-0.412-0.198-0.918-0.198-1.518c0-0.387,0.044-0.791,0.132-1.215
								c0.088-0.422,0.25-0.807,0.488-1.154s0.563-0.634,0.977-0.857c0.413-0.225,0.946-0.338,1.597-0.338
								c0.475,0,0.889,0.064,1.241,0.191c0.352,0.129,0.646,0.303,0.884,0.521c0.238,0.221,0.424,0.471,0.561,0.753
								c0.136,0.282,0.222,0.581,0.257,0.897h-1.109c-0.062-0.369-0.171-0.66-0.33-0.871c-0.158-0.211-0.33-0.365-0.515-0.462
								c-0.185-0.097-0.368-0.156-0.548-0.179c-0.18-0.021-0.319-0.033-0.416-0.033c-0.361,0-0.669,0.073-0.924,0.219
								c-0.255,0.145-0.462,0.341-0.62,0.588c-0.159,0.246-0.273,0.535-0.343,0.871c-0.071,0.334-0.105,0.689-0.105,1.068
								s0.04,0.74,0.119,1.082c0.079,0.344,0.2,0.646,0.363,0.912c0.163,0.264,0.376,0.473,0.64,0.627
								c0.264,0.154,0.581,0.23,0.951,0.23c0.325,0,0.601-0.062,0.825-0.186c0.225-0.123,0.407-0.273,0.548-0.455
								c0.141-0.18,0.242-0.379,0.304-0.594s0.097-0.416,0.105-0.602H315.06z"/>
							<path fill="#FFFFFF" d="M322.426,140.975c-0.044,0.238-0.125,0.486-0.245,0.746c-0.119,0.26-0.29,0.498-0.515,0.713
								c-0.224,0.217-0.513,0.395-0.865,0.535s-0.788,0.211-1.307,0.211c-0.554,0-1.023-0.074-1.406-0.225s-0.7-0.342-0.95-0.574
								c-0.251-0.232-0.447-0.49-0.587-0.771c-0.141-0.281-0.245-0.555-0.311-0.818c-0.066-0.266-0.105-0.504-0.119-0.721
								c-0.013-0.215-0.02-0.375-0.02-0.48c0-0.15,0.009-0.346,0.027-0.588c0.017-0.242,0.061-0.498,0.132-0.766
								c0.07-0.268,0.176-0.539,0.317-0.812c0.141-0.271,0.332-0.519,0.574-0.738c0.242-0.221,0.543-0.398,0.904-0.535
								s0.801-0.205,1.32-0.205c0.668,0,1.203,0.117,1.604,0.351s0.708,0.526,0.924,0.878c0.215,0.352,0.36,0.736,0.436,1.154
								c0.075,0.418,0.121,0.809,0.139,1.168c0,0.053,0.002,0.109,0.006,0.166s0.007,0.111,0.007,0.164h-5.161
								c0,0.291,0.04,0.586,0.119,0.885s0.202,0.57,0.37,0.812c0.167,0.242,0.385,0.441,0.653,0.6s0.596,0.238,0.983,0.238
								c0.272,0,0.519-0.037,0.739-0.113c0.22-0.074,0.407-0.176,0.561-0.303c0.154-0.127,0.277-0.275,0.37-0.441
								c0.092-0.168,0.156-0.344,0.191-0.529H322.426z M321.264,139.008c-0.009-0.219-0.04-0.461-0.093-0.725
								c-0.053-0.266-0.147-0.51-0.284-0.732c-0.137-0.226-0.323-0.412-0.561-0.562c-0.237-0.148-0.545-0.225-0.924-0.225
								c-0.422,0-0.77,0.078-1.043,0.231c-0.273,0.154-0.486,0.346-0.64,0.575c-0.154,0.229-0.257,0.473-0.31,0.732
								s-0.079,0.494-0.079,0.705H321.264z"/>
						</g>
					</g>
				</g>
			</g>
			<g>
				<g>
					<g>
						<g>
							<path fill="#585A5E" d="M562.186,103.156c-0.009,0.308,0.044,0.594,0.158,0.858c0.114,0.264,0.286,0.493,0.515,0.686
								c0.229,0.194,0.509,0.346,0.839,0.456c0.33,0.11,0.705,0.165,1.128,0.165c0.413,0,0.764-0.048,1.05-0.145
								c0.285-0.097,0.52-0.225,0.699-0.383c0.181-0.159,0.312-0.341,0.396-0.548c0.083-0.207,0.125-0.42,0.125-0.64
								c0-0.282-0.057-0.517-0.172-0.707c-0.114-0.189-0.26-0.343-0.436-0.462c-0.176-0.119-0.376-0.213-0.6-0.284
								c-0.225-0.07-0.443-0.127-0.654-0.171c-0.527-0.114-1.031-0.222-1.512-0.324c-0.479-0.101-0.901-0.244-1.267-0.429
								c-0.365-0.185-0.655-0.434-0.871-0.746c-0.216-0.312-0.323-0.732-0.323-1.26c0-0.431,0.083-0.814,0.25-1.148
								c0.168-0.334,0.405-0.612,0.713-0.832c0.309-0.22,0.678-0.387,1.109-0.501c0.431-0.114,0.906-0.171,1.426-0.171
								c0.572,0,1.066,0.072,1.484,0.218c0.418,0.145,0.766,0.341,1.043,0.587s0.488,0.532,0.634,0.858s0.231,0.665,0.257,1.017
								h-1.24c-0.045-0.378-0.156-0.678-0.337-0.898c-0.181-0.22-0.385-0.385-0.614-0.495c-0.229-0.11-0.461-0.178-0.699-0.205
								c-0.237-0.027-0.427-0.04-0.567-0.04c-0.643,0-1.159,0.139-1.551,0.416s-0.587,0.653-0.587,1.128
								c0,0.282,0.062,0.508,0.191,0.68c0.127,0.171,0.297,0.312,0.508,0.422s0.455,0.196,0.732,0.257s0.569,0.123,0.878,0.185
								c0.413,0.079,0.829,0.17,1.247,0.271c0.418,0.102,0.797,0.253,1.135,0.456c0.34,0.203,0.614,0.473,0.826,0.812
								c0.211,0.339,0.316,0.785,0.316,1.34c0,0.458-0.072,0.845-0.219,1.162c-0.145,0.316-0.332,0.579-0.561,0.785
								c-0.229,0.207-0.484,0.368-0.766,0.482s-0.557,0.198-0.824,0.25c-0.27,0.053-0.52,0.084-0.753,0.093
								c-0.233,0.008-0.411,0.013-0.534,0.013c-0.326,0-0.702-0.031-1.129-0.093c-0.428-0.062-0.834-0.2-1.221-0.416
								c-0.388-0.215-0.72-0.537-0.997-0.964c-0.277-0.426-0.434-1.005-0.468-1.735H562.186z"/>
							<path fill="#585A5E" d="M570.383,99.38v-2.006h1.161v2.006h1.426v0.818h-1.426v4.264c0,0.123,0.003,0.24,0.007,0.35
								c0.004,0.11,0.026,0.209,0.066,0.297c0.039,0.088,0.107,0.156,0.204,0.205s0.237,0.072,0.423,0.072
								c0.123,0,0.246-0.011,0.369-0.033s0.242-0.051,0.356-0.086v0.818c-0.185,0.079-0.383,0.143-0.594,0.191
								c-0.212,0.048-0.419,0.073-0.62,0.073c-0.344,0-0.609-0.053-0.799-0.159c-0.189-0.105-0.326-0.24-0.41-0.402
								c-0.083-0.163-0.131-0.341-0.145-0.535c-0.014-0.193-0.02-0.378-0.02-0.555v-4.501h-1.201V99.38H570.383z"/>
							<path fill="#585A5E" d="M573.801,102.733c0-0.449,0.057-0.889,0.172-1.32c0.114-0.431,0.301-0.816,0.561-1.155
								s0.602-0.614,1.023-0.825c0.422-0.211,0.938-0.317,1.545-0.317c0.606,0,1.121,0.106,1.544,0.317
								c0.423,0.211,0.763,0.486,1.022,0.825s0.447,0.724,0.562,1.155s0.171,0.871,0.171,1.32c0,0.449-0.057,0.889-0.171,1.32
								s-0.302,0.816-0.562,1.155c-0.26,0.339-0.6,0.614-1.022,0.825c-0.423,0.211-0.938,0.317-1.544,0.317
								c-0.607,0-1.123-0.106-1.545-0.317c-0.422-0.211-0.764-0.486-1.023-0.825c-0.26-0.338-0.446-0.724-0.561-1.155
								C573.858,103.622,573.801,103.182,573.801,102.733z M575.03,102.733c0,0.666,0.083,1.187,0.25,1.563
								c0.167,0.377,0.365,0.657,0.594,0.841c0.229,0.184,0.458,0.296,0.687,0.335c0.229,0.039,0.409,0.059,0.542,0.059
								c0.131,0,0.312-0.02,0.541-0.059c0.229-0.04,0.457-0.151,0.686-0.335c0.229-0.184,0.428-0.464,0.594-0.841
								c0.168-0.376,0.252-0.897,0.252-1.563c0-0.666-0.084-1.187-0.252-1.563c-0.166-0.377-0.365-0.657-0.594-0.841
								c-0.229-0.184-0.457-0.296-0.686-0.335c-0.229-0.04-0.41-0.06-0.541-0.06c-0.133,0-0.312,0.02-0.542,0.06
								c-0.229,0.039-0.458,0.151-0.687,0.335c-0.229,0.184-0.427,0.464-0.594,0.841C575.113,101.546,575.03,102.067,575.03,102.733
								z"/>
							<path fill="#585A5E" d="M587.727,103.697c-0.018,0.203-0.068,0.453-0.151,0.752s-0.229,0.589-0.436,0.871
								s-0.497,0.524-0.871,0.726s-0.86,0.304-1.458,0.304c-0.115,0-0.273-0.009-0.476-0.026c-0.202-0.018-0.427-0.062-0.673-0.132
								c-0.247-0.07-0.496-0.183-0.746-0.336c-0.251-0.154-0.478-0.365-0.68-0.634c-0.203-0.268-0.37-0.609-0.502-1.023
								c-0.132-0.414-0.198-0.919-0.198-1.518c0-0.387,0.044-0.792,0.132-1.214s0.251-0.807,0.488-1.155
								c0.238-0.348,0.563-0.634,0.978-0.858c0.413-0.225,0.946-0.337,1.597-0.337c0.476,0,0.889,0.064,1.241,0.191
								c0.352,0.128,0.646,0.302,0.884,0.521c0.238,0.22,0.425,0.471,0.562,0.752c0.136,0.282,0.222,0.581,0.257,0.897h-1.108
								c-0.062-0.37-0.171-0.66-0.33-0.871c-0.158-0.211-0.329-0.365-0.515-0.462c-0.185-0.097-0.367-0.156-0.548-0.178
								s-0.319-0.033-0.415-0.033c-0.361,0-0.67,0.073-0.925,0.218c-0.255,0.146-0.462,0.341-0.62,0.587
								c-0.158,0.247-0.273,0.537-0.344,0.872s-0.105,0.691-0.105,1.069c0,0.378,0.04,0.739,0.119,1.083s0.2,0.647,0.363,0.911
								c0.162,0.264,0.376,0.473,0.64,0.627c0.265,0.154,0.581,0.231,0.95,0.231c0.326,0,0.602-0.062,0.825-0.185
								c0.225-0.123,0.407-0.275,0.548-0.456c0.141-0.18,0.242-0.378,0.304-0.594c0.062-0.215,0.097-0.416,0.105-0.601H587.727z"/>
							<path fill="#585A5E" d="M593.509,99.38h1.386l-2.666,2.587l2.904,4.118h-1.32l-2.363-3.406l-1.135,1.122v2.284h-1.162v-9.24
								h1.162v5.729L593.509,99.38z"/>
							<path fill="#585A5E" d="M602.696,96.846c0.158,0,0.377,0.009,0.654,0.027c0.276,0.018,0.578,0.072,0.903,0.165
								c0.325,0.093,0.657,0.233,0.997,0.423c0.338,0.189,0.645,0.453,0.917,0.792s0.495,0.768,0.667,1.287
								c0.172,0.52,0.258,1.153,0.258,1.901c0,0.757-0.084,1.397-0.252,1.921c-0.167,0.523-0.387,0.957-0.66,1.3
								c-0.271,0.343-0.582,0.612-0.93,0.805c-0.348,0.194-0.702,0.337-1.062,0.429c-0.361,0.092-0.711,0.147-1.05,0.165
								s-0.64,0.026-0.904,0.026h-2.931v-9.24H602.696z M600.544,105.043h1.729c1.188,0,2.067-0.288,2.64-0.864
								c0.571-0.577,0.858-1.48,0.858-2.713c0-0.695-0.091-1.274-0.271-1.736c-0.18-0.462-0.418-0.829-0.713-1.102
								c-0.295-0.272-0.629-0.464-1.002-0.574c-0.375-0.11-0.76-0.165-1.156-0.165h-2.085V105.043z"/>
							<path fill="#585A5E" d="M608.399,101.36c0-0.22,0.037-0.462,0.111-0.726c0.075-0.264,0.216-0.508,0.423-0.732
								c0.206-0.225,0.497-0.412,0.871-0.561s0.855-0.225,1.445-0.225c0.272,0,0.565,0.026,0.878,0.079
								c0.312,0.053,0.603,0.159,0.871,0.317c0.269,0.159,0.49,0.385,0.666,0.68c0.177,0.295,0.26,0.689,0.252,1.182l-0.066,3.102
								c0,0.132,0.002,0.249,0.006,0.35c0.005,0.102,0.029,0.185,0.073,0.251s0.114,0.117,0.211,0.152s0.233,0.048,0.409,0.04v0.818
								c-0.079,0.018-0.156,0.031-0.23,0.04c-0.075,0.009-0.174,0.013-0.297,0.013c-0.158,0-0.307-0.011-0.442-0.033
								c-0.137-0.022-0.255-0.066-0.356-0.132s-0.186-0.163-0.251-0.291c-0.065-0.127-0.116-0.301-0.151-0.521
								c-0.115,0.211-0.256,0.392-0.423,0.541c-0.167,0.15-0.353,0.273-0.554,0.37c-0.203,0.097-0.416,0.167-0.641,0.211
								c-0.225,0.043-0.451,0.066-0.68,0.066c-0.705,0-1.273-0.161-1.71-0.482c-0.436-0.321-0.653-0.833-0.653-1.538
								c0-0.291,0.044-0.552,0.133-0.786c0.088-0.233,0.254-0.44,0.501-0.621c0.246-0.18,0.581-0.33,1.003-0.449
								c0.422-0.119,0.973-0.209,1.65-0.271c0.246-0.018,0.453-0.035,0.62-0.053s0.302-0.055,0.403-0.112
								c0.101-0.057,0.173-0.143,0.217-0.257c0.045-0.114,0.066-0.282,0.066-0.501c0-0.079-0.009-0.193-0.026-0.343
								c-0.018-0.149-0.075-0.299-0.172-0.449s-0.246-0.279-0.448-0.39c-0.203-0.11-0.488-0.165-0.858-0.165
								c-0.105,0-0.257,0.009-0.456,0.026c-0.197,0.018-0.393,0.073-0.587,0.165c-0.193,0.093-0.36,0.233-0.501,0.422
								c-0.141,0.189-0.207,0.46-0.198,0.812H608.399z M612.754,102.654c-0.088,0.071-0.18,0.121-0.275,0.152
								c-0.096,0.031-0.201,0.055-0.314,0.073s-0.242,0.033-0.386,0.046c-0.145,0.013-0.308,0.033-0.491,0.06
								c-0.254,0.044-0.496,0.086-0.727,0.125c-0.232,0.04-0.436,0.101-0.609,0.185c-0.175,0.084-0.312,0.205-0.412,0.363
								c-0.102,0.158-0.151,0.37-0.151,0.633c0,0.396,0.12,0.702,0.36,0.917c0.24,0.216,0.548,0.324,0.924,0.324
								c0.227,0,0.455-0.033,0.688-0.099c0.23-0.066,0.445-0.185,0.641-0.356c0.197-0.172,0.361-0.407,0.492-0.706
								s0.209-0.682,0.235-1.148L612.754,102.654z"/>
							<path fill="#585A5E" d="M616.344,99.38v-2.006h1.162v2.006h1.426v0.818h-1.426v4.264c0,0.123,0.002,0.24,0.006,0.35
								c0.005,0.11,0.027,0.209,0.066,0.297s0.107,0.156,0.205,0.205c0.096,0.048,0.237,0.072,0.422,0.072
								c0.123,0,0.246-0.011,0.369-0.033s0.242-0.051,0.357-0.086v0.818c-0.186,0.079-0.383,0.143-0.594,0.191
								c-0.212,0.048-0.419,0.073-0.621,0.073c-0.344,0-0.609-0.053-0.799-0.159c-0.189-0.105-0.326-0.24-0.409-0.402
								c-0.083-0.163-0.132-0.341-0.146-0.535c-0.013-0.193-0.02-0.378-0.02-0.555v-4.501h-1.201V99.38H616.344z"/>
							<path fill="#585A5E" d="M619.922,101.36c0-0.22,0.037-0.462,0.111-0.726c0.075-0.264,0.216-0.508,0.423-0.732
								c0.206-0.225,0.497-0.412,0.871-0.561s0.855-0.225,1.445-0.225c0.272,0,0.565,0.026,0.878,0.079
								c0.312,0.053,0.603,0.159,0.871,0.317c0.269,0.159,0.49,0.385,0.666,0.68c0.177,0.295,0.26,0.689,0.252,1.182l-0.066,3.102
								c0,0.132,0.002,0.249,0.006,0.35c0.005,0.102,0.029,0.185,0.073,0.251s0.114,0.117,0.211,0.152s0.233,0.048,0.409,0.04v0.818
								c-0.079,0.018-0.156,0.031-0.23,0.04c-0.075,0.009-0.174,0.013-0.297,0.013c-0.158,0-0.307-0.011-0.442-0.033
								c-0.137-0.022-0.255-0.066-0.356-0.132s-0.186-0.163-0.251-0.291c-0.065-0.127-0.116-0.301-0.151-0.521
								c-0.115,0.211-0.256,0.392-0.423,0.541c-0.167,0.15-0.353,0.273-0.554,0.37c-0.203,0.097-0.416,0.167-0.641,0.211
								c-0.225,0.043-0.451,0.066-0.68,0.066c-0.705,0-1.273-0.161-1.71-0.482c-0.436-0.321-0.653-0.833-0.653-1.538
								c0-0.291,0.044-0.552,0.133-0.786c0.088-0.233,0.254-0.44,0.501-0.621c0.246-0.18,0.581-0.33,1.003-0.449
								c0.422-0.119,0.973-0.209,1.65-0.271c0.246-0.018,0.453-0.035,0.62-0.053s0.302-0.055,0.403-0.112
								c0.101-0.057,0.173-0.143,0.217-0.257c0.045-0.114,0.066-0.282,0.066-0.501c0-0.079-0.009-0.193-0.026-0.343
								c-0.018-0.149-0.075-0.299-0.172-0.449s-0.246-0.279-0.448-0.39c-0.203-0.11-0.488-0.165-0.858-0.165
								c-0.105,0-0.257,0.009-0.456,0.026c-0.197,0.018-0.393,0.073-0.587,0.165c-0.193,0.093-0.36,0.233-0.501,0.422
								c-0.141,0.189-0.207,0.46-0.198,0.812H619.922z M624.278,102.654c-0.088,0.071-0.18,0.121-0.275,0.152
								c-0.096,0.031-0.201,0.055-0.314,0.073s-0.242,0.033-0.386,0.046c-0.145,0.013-0.308,0.033-0.491,0.06
								c-0.254,0.044-0.496,0.086-0.727,0.125c-0.232,0.04-0.436,0.101-0.609,0.185c-0.175,0.084-0.312,0.205-0.412,0.363
								c-0.102,0.158-0.151,0.37-0.151,0.633c0,0.396,0.12,0.702,0.36,0.917c0.24,0.216,0.548,0.324,0.924,0.324
								c0.227,0,0.455-0.033,0.688-0.099c0.23-0.066,0.445-0.185,0.641-0.356c0.197-0.172,0.361-0.407,0.492-0.706
								s0.209-0.682,0.235-1.148L624.278,102.654z"/>
							<path fill="#585A5E" d="M571.834,113.455c0.563,0,1.023,0.073,1.38,0.219c0.356,0.145,0.636,0.33,0.839,0.555
								c0.201,0.225,0.343,0.475,0.422,0.752s0.119,0.553,0.119,0.824c0,0.247-0.039,0.482-0.117,0.707s-0.188,0.424-0.325,0.601
								c-0.14,0.177-0.3,0.323-0.481,0.442s-0.382,0.195-0.598,0.23v0.04c0.191,0.035,0.397,0.097,0.619,0.185
								s0.428,0.221,0.619,0.396s0.353,0.402,0.482,0.68c0.131,0.277,0.196,0.623,0.196,1.035c0,0.336-0.048,0.656-0.146,0.965
								c-0.097,0.308-0.27,0.58-0.521,0.818c-0.25,0.237-0.587,0.429-1.01,0.574c-0.422,0.145-0.963,0.217-1.623,0.217h-3.907v-9.24
								H571.834z M569.024,117.376h2.51c0.346,0,0.633-0.04,0.863-0.118c0.23-0.08,0.416-0.186,0.558-0.317s0.243-0.284,0.306-0.455
								c0.062-0.172,0.093-0.354,0.093-0.548c0-0.133-0.021-0.281-0.06-0.449c-0.04-0.166-0.122-0.323-0.246-0.469
								c-0.124-0.145-0.303-0.268-0.537-0.369c-0.235-0.102-0.547-0.152-0.938-0.152h-2.549V117.376z M569.024,121.652h2.588
								c0.213,0,0.445-0.015,0.697-0.045c0.252-0.031,0.484-0.102,0.696-0.212s0.39-0.272,0.531-0.488s0.212-0.513,0.212-0.892
								c0-0.299-0.051-0.549-0.152-0.752c-0.102-0.202-0.246-0.365-0.432-0.488s-0.408-0.213-0.67-0.271s-0.556-0.086-0.883-0.086
								h-2.588V121.652z"/>
							<path fill="#585A5E" d="M576.481,117.971c0-0.221,0.037-0.463,0.113-0.727c0.074-0.264,0.215-0.508,0.422-0.732
								s0.497-0.412,0.871-0.561c0.374-0.15,0.855-0.225,1.445-0.225c0.273,0,0.565,0.025,0.878,0.078
								c0.312,0.054,0.603,0.159,0.871,0.317c0.269,0.159,0.491,0.386,0.667,0.68c0.176,0.296,0.26,0.688,0.25,1.182l-0.065,3.103
								c0,0.131,0.002,0.248,0.007,0.35c0.004,0.102,0.028,0.185,0.072,0.25c0.044,0.066,0.114,0.117,0.211,0.152
								c0.098,0.035,0.233,0.049,0.41,0.039v0.818c-0.08,0.018-0.157,0.031-0.232,0.04c-0.074,0.009-0.174,0.013-0.297,0.013
								c-0.158,0-0.305-0.011-0.441-0.032c-0.137-0.022-0.256-0.066-0.356-0.132c-0.102-0.066-0.185-0.163-0.251-0.291
								c-0.066-0.127-0.117-0.301-0.152-0.521c-0.113,0.211-0.255,0.393-0.422,0.541c-0.168,0.15-0.352,0.273-0.555,0.37
								c-0.202,0.097-0.416,0.167-0.641,0.212c-0.224,0.043-0.45,0.065-0.68,0.065c-0.703,0-1.273-0.161-1.709-0.481
								c-0.436-0.322-0.653-0.834-0.653-1.538c0-0.29,0.044-0.552,0.132-0.786c0.088-0.232,0.256-0.439,0.502-0.62
								s0.58-0.329,1.003-0.448s0.973-0.209,1.65-0.271c0.246-0.018,0.453-0.035,0.62-0.053s0.301-0.055,0.402-0.111
								c0.102-0.058,0.174-0.144,0.219-0.258c0.043-0.114,0.065-0.281,0.065-0.502c0-0.078-0.009-0.193-0.026-0.343
								s-0.074-0.3-0.172-0.448c-0.097-0.15-0.246-0.279-0.449-0.391c-0.202-0.109-0.488-0.164-0.857-0.164
								c-0.105,0-0.258,0.009-0.455,0.025c-0.198,0.019-0.395,0.073-0.588,0.166c-0.193,0.092-0.361,0.232-0.502,0.422
								s-0.206,0.46-0.197,0.812H576.481z M580.837,119.264c-0.087,0.07-0.179,0.121-0.275,0.152
								c-0.096,0.031-0.2,0.055-0.313,0.072c-0.114,0.018-0.243,0.033-0.387,0.046c-0.145,0.013-0.309,0.033-0.491,0.06
								c-0.253,0.044-0.495,0.086-0.728,0.125c-0.23,0.04-0.434,0.102-0.608,0.186s-0.312,0.204-0.413,0.363
								c-0.1,0.158-0.15,0.369-0.15,0.633c0,0.396,0.12,0.702,0.36,0.918c0.24,0.215,0.548,0.323,0.923,0.323
								c0.228,0,0.457-0.033,0.688-0.099c0.232-0.066,0.445-0.186,0.643-0.357c0.195-0.172,0.359-0.406,0.49-0.705
								c0.131-0.3,0.21-0.683,0.236-1.148L580.837,119.264z"/>
							<path fill="#585A5E" d="M589.813,120.307c-0.018,0.203-0.068,0.453-0.152,0.752c-0.083,0.3-0.229,0.59-0.436,0.871
								c-0.206,0.282-0.496,0.524-0.871,0.727c-0.373,0.202-0.859,0.304-1.458,0.304c-0.114,0-0.272-0.009-0.476-0.026
								c-0.202-0.018-0.427-0.062-0.673-0.133c-0.247-0.07-0.495-0.182-0.746-0.336s-0.478-0.365-0.68-0.634
								s-0.37-0.608-0.501-1.022c-0.133-0.414-0.199-0.92-0.199-1.519c0-0.388,0.045-0.792,0.133-1.214
								c0.088-0.423,0.25-0.808,0.488-1.155s0.562-0.634,0.977-0.858s0.946-0.336,1.598-0.336c0.475,0,0.889,0.063,1.24,0.191
								c0.352,0.127,0.646,0.301,0.885,0.521c0.238,0.22,0.424,0.471,0.561,0.752s0.223,0.58,0.258,0.897h-1.109
								c-0.061-0.37-0.171-0.659-0.33-0.871c-0.158-0.211-0.329-0.365-0.514-0.462c-0.186-0.097-0.368-0.156-0.549-0.178
								c-0.18-0.022-0.318-0.033-0.415-0.033c-0.361,0-0.669,0.072-0.925,0.217c-0.255,0.146-0.461,0.342-0.619,0.588
								c-0.159,0.246-0.273,0.537-0.344,0.871c-0.07,0.335-0.105,0.691-0.105,1.069s0.039,0.739,0.119,1.083
								c0.078,0.343,0.199,0.646,0.362,0.91s0.376,0.473,0.64,0.627c0.265,0.154,0.582,0.231,0.951,0.231
								c0.325,0,0.601-0.062,0.824-0.185c0.225-0.123,0.408-0.275,0.549-0.456s0.242-0.378,0.303-0.594
								c0.062-0.216,0.098-0.416,0.105-0.601H589.813z"/>
							<path fill="#585A5E" d="M595.594,115.99h1.387l-2.667,2.588l2.904,4.117h-1.32l-2.362-3.405l-1.136,1.122v2.283h-1.161v-9.24
								h1.161v5.729L595.594,115.99z"/>
							<path fill="#585A5E" d="M604.083,120.756c-0.045,0.237-0.125,0.486-0.244,0.745c-0.119,0.26-0.291,0.497-0.516,0.713
								c-0.224,0.216-0.512,0.394-0.864,0.534s-0.788,0.212-1.307,0.212c-0.554,0-1.022-0.075-1.405-0.225s-0.7-0.341-0.951-0.574
								c-0.25-0.233-0.446-0.49-0.587-0.772c-0.142-0.281-0.245-0.555-0.311-0.818s-0.105-0.504-0.118-0.719
								c-0.014-0.216-0.021-0.377-0.021-0.482c0-0.149,0.009-0.346,0.026-0.587c0.018-0.242,0.062-0.497,0.133-0.766
								c0.07-0.269,0.176-0.539,0.316-0.812c0.141-0.273,0.332-0.52,0.574-0.74c0.242-0.219,0.543-0.397,0.904-0.534
								c0.36-0.136,0.801-0.204,1.32-0.204c0.668,0,1.203,0.116,1.604,0.35c0.4,0.232,0.708,0.525,0.924,0.877
								c0.215,0.353,0.36,0.738,0.436,1.156c0.074,0.418,0.121,0.807,0.139,1.168c0,0.053,0.002,0.107,0.006,0.164
								c0.005,0.059,0.008,0.113,0.008,0.166h-5.162c0,0.29,0.04,0.585,0.119,0.884c0.079,0.3,0.202,0.569,0.369,0.812
								c0.168,0.242,0.385,0.443,0.654,0.602c0.268,0.158,0.596,0.237,0.982,0.237c0.273,0,0.52-0.038,0.74-0.112
								c0.219-0.074,0.406-0.176,0.561-0.304s0.277-0.274,0.369-0.442c0.093-0.167,0.156-0.343,0.191-0.527H604.083z
								 M602.92,118.789c-0.009-0.221-0.039-0.463-0.092-0.727s-0.148-0.508-0.284-0.732c-0.137-0.225-0.323-0.411-0.562-0.561
								c-0.236-0.15-0.545-0.225-0.924-0.225c-0.422,0-0.77,0.076-1.043,0.23c-0.272,0.154-0.486,0.346-0.64,0.574
								s-0.257,0.473-0.31,0.732s-0.08,0.496-0.08,0.707H602.92z"/>
							<path fill="#585A5E" d="M606.828,115.99v0.938c0.229-0.334,0.536-0.619,0.925-0.852c0.387-0.233,0.844-0.35,1.372-0.35
								c0.44,0,0.804,0.068,1.089,0.204c0.286,0.137,0.511,0.319,0.674,0.548c0.162,0.229,0.277,0.495,0.343,0.799
								c0.065,0.303,0.099,0.623,0.099,0.957v4.461h-1.161v-4.104c0-0.177-0.007-0.383-0.021-0.62
								c-0.013-0.238-0.061-0.463-0.145-0.674s-0.223-0.389-0.416-0.535c-0.193-0.145-0.471-0.217-0.832-0.217
								c-0.158,0-0.348,0.025-0.566,0.079c-0.221,0.053-0.432,0.165-0.635,0.337c-0.202,0.171-0.373,0.422-0.514,0.752
								c-0.142,0.33-0.212,0.771-0.212,1.326v3.656h-1.161v-6.705H606.828z"/>
							<path fill="#585A5E" d="M619.236,113.455v9.24h-1.083v-0.924h-0.039c-0.053,0.105-0.132,0.229-0.238,0.37
								c-0.105,0.141-0.246,0.271-0.422,0.39c-0.176,0.118-0.392,0.219-0.646,0.303c-0.256,0.084-0.559,0.126-0.911,0.126
								c-0.493,0-0.929-0.089-1.307-0.265s-0.695-0.424-0.95-0.745c-0.256-0.321-0.451-0.704-0.588-1.148s-0.205-0.935-0.205-1.472
								c0-0.352,0.035-0.737,0.106-1.155c0.07-0.418,0.216-0.81,0.436-1.175s0.526-0.668,0.917-0.91
								c0.392-0.242,0.913-0.363,1.564-0.363c0.449,0,0.86,0.074,1.234,0.225c0.374,0.148,0.697,0.453,0.971,0.91v-3.406H619.236z
								 M614.075,119.33c0,0.633,0.076,1.137,0.23,1.512c0.154,0.373,0.339,0.655,0.555,0.844c0.215,0.189,0.442,0.312,0.68,0.37
								c0.238,0.058,0.439,0.086,0.607,0.086c0.255,0,0.504-0.051,0.746-0.151c0.242-0.102,0.455-0.265,0.64-0.489
								c0.185-0.224,0.335-0.517,0.449-0.878c0.114-0.36,0.171-0.801,0.171-1.32c0-0.483-0.055-0.898-0.164-1.246
								c-0.111-0.348-0.262-0.635-0.456-0.858c-0.193-0.225-0.415-0.39-0.667-0.495c-0.25-0.105-0.512-0.158-0.785-0.158
								c-0.281,0-0.543,0.053-0.785,0.158s-0.453,0.271-0.633,0.495c-0.182,0.224-0.324,0.513-0.43,0.864
								S614.075,118.837,614.075,119.33z"/>
						</g>
					</g>
				</g>
			</g>
			<g>
				<g>
					<g>
						<g>
							<path fill="#585A5E" d="M186.451,95.208h-0.977v3.287h-1.373V90.39h3.129c0.854,0,1.526,0.209,2.02,0.627
								c0.492,0.418,0.739,1.019,0.739,1.802c0,0.668-0.183,1.199-0.548,1.59s-0.874,0.64-1.525,0.746l2.35,3.34h-1.557
								L186.451,95.208z M185.474,91.578v2.482h1.729c0.448,0,0.798-0.112,1.049-0.337c0.251-0.224,0.376-0.525,0.376-0.904
								s-0.125-0.68-0.376-0.904c-0.251-0.225-0.601-0.337-1.049-0.337H185.474z"/>
							<path fill="#585A5E" d="M194.965,96.673h1.214c-0.105,0.599-0.372,1.074-0.799,1.426s-0.983,0.528-1.669,0.528
								c-0.818,0-1.485-0.281-2-0.845c-0.515-0.563-0.772-1.298-0.772-2.204c0-0.88,0.26-1.613,0.779-2.198
								c0.519-0.585,1.175-0.877,1.967-0.877c0.809,0,1.437,0.262,1.881,0.785c0.444,0.524,0.666,1.226,0.666,2.105v0.475h-3.999
								c0.018,0.511,0.16,0.913,0.429,1.208s0.618,0.442,1.05,0.442C194.406,97.519,194.824,97.237,194.965,96.673z M193.698,93.611
								c-0.369,0-0.68,0.112-0.931,0.336c-0.251,0.224-0.416,0.543-0.495,0.957h2.653c-0.009-0.378-0.119-0.688-0.33-0.931
								C194.384,93.732,194.084,93.611,193.698,93.611z"/>
							<path fill="#585A5E" d="M201.248,100.739v-2.746c-0.141,0.176-0.348,0.326-0.62,0.449c-0.273,0.123-0.563,0.185-0.872,0.185
								c-0.827,0-1.486-0.297-1.979-0.891c-0.493-0.594-0.739-1.318-0.739-2.171s0.246-1.578,0.739-2.171
								c0.493-0.594,1.152-0.891,1.979-0.891c0.309,0,0.599,0.062,0.872,0.185c0.272,0.124,0.479,0.273,0.62,0.449v-0.501h1.32
								v8.105H201.248z M201.248,96.673v-2.217c-0.114-0.229-0.286-0.416-0.515-0.561c-0.229-0.146-0.48-0.218-0.753-0.218
								c-0.501,0-0.897,0.176-1.188,0.528c-0.291,0.352-0.436,0.805-0.436,1.36c0,0.554,0.145,1.007,0.436,1.359
								c0.29,0.352,0.687,0.528,1.188,0.528c0.272,0,0.523-0.072,0.753-0.218C200.961,97.089,201.133,96.902,201.248,96.673z"/>
							<path fill="#585A5E" d="M209.076,92.634v5.861h-1.32v-0.554c-0.396,0.458-0.92,0.686-1.57,0.686
								c-0.651,0-1.157-0.198-1.519-0.594c-0.36-0.396-0.541-0.924-0.541-1.584v-3.815h1.32v3.59c0,0.801,0.364,1.201,1.096,1.201
								c0.29,0,0.547-0.085,0.771-0.257c0.225-0.171,0.372-0.398,0.442-0.68v-3.854H209.076z"/>
							<path fill="#585A5E" d="M214.33,96.673h1.214c-0.105,0.599-0.372,1.074-0.799,1.426s-0.983,0.528-1.669,0.528
								c-0.818,0-1.485-0.281-2-0.845c-0.515-0.563-0.772-1.298-0.772-2.204c0-0.88,0.26-1.613,0.779-2.198
								c0.519-0.585,1.175-0.877,1.967-0.877c0.809,0,1.437,0.262,1.881,0.785c0.444,0.524,0.666,1.226,0.666,2.105v0.475h-3.999
								c0.018,0.511,0.16,0.913,0.429,1.208s0.618,0.442,1.05,0.442C213.77,97.519,214.188,97.237,214.33,96.673z M213.062,93.611
								c-0.369,0-0.68,0.112-0.931,0.336c-0.251,0.224-0.416,0.543-0.495,0.957h2.653c-0.009-0.378-0.119-0.688-0.33-0.931
								C213.749,93.732,213.449,93.611,213.062,93.611z"/>
							<path fill="#585A5E" d="M216.401,96.806h1.347c0.149,0.493,0.536,0.739,1.161,0.739c0.309,0,0.553-0.06,0.732-0.178
								c0.181-0.119,0.271-0.292,0.271-0.521c0-0.159-0.053-0.284-0.158-0.376c-0.105-0.092-0.281-0.169-0.527-0.231l-1.215-0.29
								c-0.968-0.229-1.452-0.766-1.452-1.611c0-0.528,0.209-0.965,0.627-1.313s0.948-0.521,1.591-0.521
								c0.669,0,1.201,0.152,1.598,0.455c0.396,0.304,0.646,0.729,0.752,1.274h-1.294c-0.132-0.431-0.488-0.646-1.068-0.646
								c-0.256,0-0.476,0.057-0.66,0.171c-0.186,0.114-0.277,0.282-0.277,0.501c0,0.255,0.202,0.436,0.607,0.542l1.24,0.29
								c1.003,0.238,1.505,0.792,1.505,1.664c0,0.572-0.213,1.027-0.64,1.366c-0.428,0.339-0.976,0.508-1.644,0.508
								c-0.687,0-1.252-0.163-1.696-0.488C216.755,97.813,216.489,97.369,216.401,96.806z"/>
							<path fill="#585A5E" d="M222.777,96.911V93.73h-0.924v-1.096h0.924v-1.571h1.32v1.571h1.319v1.096h-1.319v3.036
								c0,0.458,0.232,0.686,0.699,0.686c0.281,0,0.532-0.079,0.752-0.237v1.201c-0.237,0.141-0.567,0.211-0.989,0.211
								c-0.546,0-0.979-0.145-1.301-0.436S222.777,97.475,222.777,96.911z"/>
						</g>
					</g>
					<g>
						<g>
							<path fill="#585A5E" d="M185.45,127.285h-0.977v3.287H183.1v-8.105h3.129c0.854,0,1.526,0.209,2.02,0.627
								c0.492,0.418,0.739,1.02,0.739,1.803c0,0.668-0.183,1.198-0.548,1.59s-0.874,0.641-1.525,0.746l2.35,3.34h-1.557
								L185.45,127.285z M184.473,123.654v2.482h1.729c0.448,0,0.798-0.112,1.049-0.337c0.251-0.224,0.376-0.525,0.376-0.903
								c0-0.379-0.125-0.681-0.376-0.904c-0.251-0.225-0.601-0.338-1.049-0.338H184.473z"/>
							<path fill="#585A5E" d="M193.964,128.75h1.214c-0.105,0.599-0.372,1.074-0.799,1.426s-0.983,0.527-1.669,0.527
								c-0.818,0-1.485-0.281-2-0.844c-0.515-0.563-0.772-1.299-0.772-2.205c0-0.879,0.26-1.612,0.779-2.197
								c0.519-0.586,1.175-0.878,1.967-0.878c0.809,0,1.437,0.262,1.881,0.785c0.444,0.524,0.666,1.226,0.666,2.105v0.476h-3.999
								c0.018,0.51,0.16,0.912,0.429,1.207s0.618,0.443,1.05,0.443C193.405,129.596,193.823,129.313,193.964,128.75z
								 M192.697,125.688c-0.369,0-0.68,0.112-0.931,0.337c-0.251,0.224-0.416,0.544-0.495,0.957h2.653
								c-0.009-0.378-0.119-0.688-0.33-0.931S193.083,125.688,192.697,125.688z"/>
							<path fill="#585A5E" d="M196.036,128.883h1.347c0.149,0.492,0.536,0.738,1.161,0.738c0.309,0,0.553-0.059,0.732-0.178
								c0.181-0.119,0.271-0.293,0.271-0.521c0-0.158-0.053-0.283-0.158-0.377c-0.105-0.092-0.281-0.168-0.527-0.23l-1.215-0.29
								c-0.968-0.229-1.452-0.766-1.452-1.61c0-0.528,0.209-0.966,0.627-1.313s0.948-0.521,1.591-0.521
								c0.669,0,1.201,0.151,1.598,0.455c0.396,0.304,0.646,0.729,0.752,1.274h-1.294c-0.132-0.432-0.488-0.646-1.068-0.646
								c-0.256,0-0.476,0.057-0.66,0.171c-0.186,0.114-0.277,0.282-0.277,0.501c0,0.256,0.202,0.436,0.607,0.542l1.24,0.29
								c1.003,0.238,1.505,0.792,1.505,1.664c0,0.571-0.213,1.027-0.64,1.365c-0.428,0.34-0.976,0.508-1.644,0.508
								c-0.687,0-1.252-0.162-1.696-0.488C196.39,129.891,196.124,129.445,196.036,128.883z"/>
							<path fill="#585A5E" d="M203.428,130.07v2.746h-1.32v-8.105h1.32v0.502c0.141-0.176,0.348-0.326,0.62-0.449
								s0.563-0.185,0.871-0.185c0.827,0,1.487,0.297,1.98,0.892c0.492,0.594,0.739,1.317,0.739,2.171s-0.247,1.577-0.739,2.171
								c-0.493,0.594-1.153,0.891-1.98,0.891c-0.308,0-0.599-0.061-0.871-0.184S203.569,130.246,203.428,130.07z M203.428,126.533
								v2.217c0.114,0.229,0.285,0.416,0.515,0.561c0.229,0.146,0.479,0.219,0.752,0.219c0.502,0,0.897-0.176,1.188-0.528
								c0.29-0.353,0.436-0.806,0.436-1.359c0-0.555-0.146-1.008-0.436-1.36c-0.291-0.352-0.687-0.527-1.188-0.527
								c-0.272,0-0.523,0.072-0.752,0.218C203.713,126.117,203.542,126.304,203.428,126.533z"/>
							<path fill="#585A5E" d="M213.254,125.438c0.516,0.572,0.772,1.307,0.772,2.204s-0.257,1.632-0.772,2.204
								c-0.515,0.572-1.186,0.857-2.013,0.857s-1.498-0.285-2.013-0.857s-0.772-1.307-0.772-2.204s0.258-1.632,0.772-2.204
								s1.186-0.858,2.013-0.858S212.74,124.865,213.254,125.438z M212.324,129.034c0.256-0.356,0.383-0.821,0.383-1.393
								c0-0.572-0.127-1.036-0.383-1.394c-0.255-0.355-0.615-0.533-1.082-0.533s-0.827,0.178-1.082,0.533
								c-0.256,0.357-0.383,0.821-0.383,1.394c0,0.571,0.127,1.036,0.383,1.393c0.255,0.356,0.615,0.534,1.082,0.534
								S212.069,129.391,212.324,129.034z"/>
							<path fill="#585A5E" d="M215.254,130.572v-5.861h1.32v0.555c0.396-0.457,0.924-0.687,1.584-0.687
								c0.65,0,1.159,0.198,1.524,0.594s0.548,0.925,0.548,1.584v3.815h-1.32v-3.591c0-0.378-0.092-0.673-0.277-0.884
								c-0.185-0.212-0.462-0.317-0.831-0.317c-0.291,0-0.55,0.086-0.779,0.257c-0.229,0.172-0.378,0.398-0.448,0.68v3.855H215.254z
								"/>
							<path fill="#585A5E" d="M221.379,128.883h1.347c0.149,0.492,0.536,0.738,1.161,0.738c0.309,0,0.553-0.059,0.732-0.178
								c0.181-0.119,0.271-0.293,0.271-0.521c0-0.158-0.053-0.283-0.158-0.377c-0.105-0.092-0.281-0.168-0.527-0.23l-1.215-0.29
								c-0.968-0.229-1.452-0.766-1.452-1.61c0-0.528,0.209-0.966,0.627-1.313s0.948-0.521,1.591-0.521
								c0.669,0,1.201,0.151,1.598,0.455c0.396,0.304,0.646,0.729,0.752,1.274h-1.294c-0.132-0.432-0.488-0.646-1.068-0.646
								c-0.256,0-0.476,0.057-0.66,0.171c-0.186,0.114-0.277,0.282-0.277,0.501c0,0.256,0.202,0.436,0.607,0.542l1.24,0.29
								c1.003,0.238,1.505,0.792,1.505,1.664c0,0.571-0.213,1.027-0.64,1.365c-0.428,0.34-0.976,0.508-1.644,0.508
								c-0.687,0-1.252-0.162-1.696-0.488C221.734,129.891,221.467,129.445,221.379,128.883z"/>
							<path fill="#585A5E" d="M231.069,128.75h1.214c-0.105,0.599-0.372,1.074-0.799,1.426s-0.983,0.527-1.669,0.527
								c-0.818,0-1.485-0.281-2-0.844c-0.515-0.563-0.772-1.299-0.772-2.205c0-0.879,0.26-1.612,0.779-2.197
								c0.519-0.586,1.175-0.878,1.967-0.878c0.809,0,1.437,0.262,1.881,0.785c0.444,0.524,0.666,1.226,0.666,2.105v0.476h-3.999
								c0.018,0.51,0.16,0.912,0.429,1.207s0.618,0.443,1.05,0.443C230.509,129.596,230.927,129.313,231.069,128.75z
								 M229.801,125.688c-0.369,0-0.68,0.112-0.931,0.337c-0.251,0.224-0.416,0.544-0.495,0.957h2.653
								c-0.009-0.378-0.119-0.688-0.33-0.931S230.188,125.688,229.801,125.688z"/>
						</g>
					</g>
				</g>
			</g>
			<g>
				<g>
					<g>
						<g>
							
								<line fill="none" stroke="#585A5E" stroke-width="1.1" stroke-miterlimit="10" x1="170.15" y1="105.578" x2="236.162" y2="105.578"/>
							<g>
								<polygon fill="#585A5E" points="235.343,108.375 240.188,105.578 235.343,102.781 								"/>
							</g>
						</g>
					</g>
					<g>
						<g>
							<path fill="#585A5E" d="M374.603,95.394h1.32l3.115,8.105h-1.399l-0.831-2.244h-3.103l-0.831,2.244h-1.387L374.603,95.394z
								 M375.25,97.071l-1.109,2.996h2.218L375.25,97.071z"/>
							<path fill="#585A5E" d="M379.58,101.81h1.347c0.149,0.493,0.536,0.739,1.161,0.739c0.309,0,0.553-0.06,0.732-0.178
								c0.181-0.119,0.271-0.292,0.271-0.521c0-0.159-0.053-0.284-0.158-0.376c-0.105-0.092-0.281-0.169-0.527-0.231l-1.215-0.29
								c-0.968-0.229-1.452-0.766-1.452-1.611c0-0.528,0.209-0.965,0.627-1.313s0.948-0.521,1.591-0.521
								c0.669,0,1.201,0.152,1.598,0.455c0.396,0.304,0.646,0.729,0.752,1.274h-1.294c-0.132-0.431-0.488-0.646-1.068-0.646
								c-0.256,0-0.476,0.057-0.66,0.171c-0.186,0.114-0.277,0.282-0.277,0.501c0,0.255,0.202,0.436,0.607,0.542l1.24,0.29
								c1.003,0.238,1.505,0.792,1.505,1.664c0,0.572-0.213,1.027-0.64,1.366c-0.428,0.339-0.976,0.508-1.644,0.508
								c-0.687,0-1.252-0.163-1.696-0.488C379.934,102.817,379.667,102.373,379.58,101.81z"/>
							<path fill="#585A5E" d="M387.659,105.743h-1.28l0.831-2.086l-2.271-6.019h1.413l1.531,4.316l1.504-4.316h1.36
								L387.659,105.743z"/>
							<path fill="#585A5E" d="M391.803,103.499v-5.861h1.32v0.554c0.396-0.457,0.924-0.686,1.584-0.686
								c0.65,0,1.159,0.198,1.524,0.594s0.548,0.924,0.548,1.584v3.815h-1.32v-3.59c0-0.378-0.092-0.673-0.277-0.884
								c-0.185-0.211-0.462-0.317-0.831-0.317c-0.291,0-0.55,0.086-0.779,0.257c-0.229,0.171-0.378,0.398-0.448,0.68v3.854H391.803z
								"/>
							<path fill="#585A5E" d="M398.693,102.78c-0.511-0.568-0.766-1.305-0.766-2.211s0.255-1.644,0.766-2.211
								c0.511-0.567,1.166-0.851,1.967-0.851c0.687,0,1.245,0.178,1.677,0.535c0.431,0.356,0.69,0.833,0.778,1.432h-1.32
								c-0.053-0.264-0.178-0.466-0.376-0.607c-0.198-0.141-0.446-0.211-0.745-0.211c-0.432,0-0.777,0.178-1.037,0.535
								c-0.259,0.356-0.389,0.816-0.389,1.379c0,0.563,0.13,1.023,0.389,1.379c0.26,0.356,0.605,0.534,1.037,0.534
								c0.299,0,0.547-0.07,0.745-0.211s0.323-0.343,0.376-0.607h1.32c-0.088,0.599-0.348,1.076-0.778,1.432
								c-0.432,0.356-0.99,0.535-1.677,0.535C399.859,103.631,399.204,103.347,398.693,102.78z"/>
							<path fill="#585A5E" d="M412.803,100.489h-1.769v-1.175h3.075v0.634c0,1.109-0.323,2-0.97,2.673
								c-0.646,0.673-1.472,1.01-2.476,1.01c-1.1,0-2.011-0.389-2.732-1.168s-1.082-1.784-1.082-3.016s0.358-2.238,1.076-3.016
								c0.717-0.779,1.612-1.168,2.686-1.168c0.906,0,1.648,0.238,2.225,0.713s0.943,1.126,1.103,1.954h-1.373
								c-0.177-0.466-0.416-0.82-0.72-1.062s-0.715-0.363-1.234-0.363c-0.713,0-1.287,0.275-1.723,0.825s-0.653,1.256-0.653,2.119
								c0,0.871,0.22,1.584,0.66,2.138c0.44,0.555,1.03,0.832,1.769,0.832c0.599,0,1.083-0.173,1.452-0.521
								C412.487,101.548,412.715,101.079,412.803,100.489z"/>
							<path fill="#585A5E" d="M415.47,95.394h5.293v1.214h-3.946v2.139h3.577v1.201h-3.577v2.323h3.946v1.228h-5.293V95.394z"/>
							<path fill="#585A5E" d="M421.753,96.608v-1.214h6.758v1.214h-2.692v6.891h-1.373v-6.891H421.753z"/>
							<path fill="#585A5E" d="M435.917,97.612v1.359c-0.185-0.132-0.444-0.198-0.778-0.198c-0.282,0-0.533,0.082-0.753,0.244
								c-0.22,0.163-0.36,0.394-0.422,0.693v3.789h-1.32v-5.861h1.32v0.607c0.114-0.22,0.29-0.398,0.527-0.535
								c0.238-0.136,0.497-0.205,0.779-0.205C435.578,97.506,435.793,97.542,435.917,97.612z"/>
							<path fill="#585A5E" d="M440.748,101.677h1.214c-0.105,0.599-0.372,1.074-0.799,1.426s-0.983,0.528-1.669,0.528
								c-0.818,0-1.485-0.281-2-0.845c-0.515-0.563-0.772-1.298-0.772-2.204c0-0.88,0.26-1.613,0.779-2.198
								c0.519-0.585,1.175-0.877,1.967-0.877c0.809,0,1.437,0.262,1.881,0.785c0.444,0.524,0.666,1.226,0.666,2.105v0.475h-3.999
								c0.018,0.511,0.16,0.913,0.429,1.208s0.618,0.442,1.05,0.442C440.188,102.522,440.606,102.241,440.748,101.677z
								 M439.48,98.615c-0.369,0-0.68,0.112-0.931,0.336c-0.251,0.224-0.416,0.543-0.495,0.957h2.653
								c-0.009-0.378-0.119-0.688-0.33-0.931C440.167,98.736,439.867,98.615,439.48,98.615z"/>
							<path fill="#585A5E" d="M447.031,105.743v-2.746c-0.141,0.176-0.348,0.326-0.62,0.449c-0.273,0.123-0.563,0.185-0.872,0.185
								c-0.827,0-1.486-0.297-1.979-0.891c-0.493-0.594-0.739-1.318-0.739-2.171s0.246-1.578,0.739-2.171
								c0.493-0.594,1.152-0.891,1.979-0.891c0.309,0,0.599,0.062,0.872,0.185c0.272,0.124,0.479,0.273,0.62,0.449v-0.501h1.32
								v8.105H447.031z M447.031,101.677V99.46c-0.114-0.229-0.286-0.416-0.515-0.561c-0.229-0.146-0.48-0.218-0.753-0.218
								c-0.501,0-0.897,0.176-1.188,0.528c-0.291,0.352-0.436,0.805-0.436,1.36c0,0.554,0.145,1.007,0.436,1.359
								c0.29,0.352,0.687,0.528,1.188,0.528c0.272,0,0.523-0.072,0.753-0.218C446.745,102.093,446.917,101.906,447.031,101.677z"/>
							<path fill="#585A5E" d="M454.859,97.638v5.861h-1.32v-0.554c-0.396,0.458-0.92,0.686-1.57,0.686
								c-0.651,0-1.157-0.198-1.519-0.594c-0.36-0.396-0.541-0.924-0.541-1.584v-3.815h1.32v3.59c0,0.801,0.364,1.201,1.096,1.201
								c0.29,0,0.547-0.085,0.771-0.257c0.225-0.171,0.372-0.398,0.442-0.68v-3.854H454.859z"/>
							<path fill="#585A5E" d="M460.112,101.677h1.214c-0.105,0.599-0.372,1.074-0.799,1.426s-0.983,0.528-1.669,0.528
								c-0.818,0-1.485-0.281-2-0.845c-0.515-0.563-0.772-1.298-0.772-2.204c0-0.88,0.26-1.613,0.779-2.198
								c0.519-0.585,1.175-0.877,1.967-0.877c0.809,0,1.437,0.262,1.881,0.785c0.444,0.524,0.666,1.226,0.666,2.105v0.475h-3.999
								c0.018,0.511,0.16,0.913,0.429,1.208s0.618,0.442,1.05,0.442C459.552,102.522,459.97,102.241,460.112,101.677z
								 M458.844,98.615c-0.369,0-0.68,0.112-0.931,0.336c-0.251,0.224-0.416,0.543-0.495,0.957h2.653
								c-0.009-0.378-0.119-0.688-0.33-0.931C459.531,98.736,459.231,98.615,458.844,98.615z"/>
							<path fill="#585A5E" d="M462.184,101.81h1.347c0.149,0.493,0.536,0.739,1.161,0.739c0.309,0,0.553-0.06,0.732-0.178
								c0.181-0.119,0.271-0.292,0.271-0.521c0-0.159-0.053-0.284-0.158-0.376c-0.105-0.092-0.281-0.169-0.527-0.231l-1.215-0.29
								c-0.968-0.229-1.452-0.766-1.452-1.611c0-0.528,0.209-0.965,0.627-1.313s0.948-0.521,1.591-0.521
								c0.669,0,1.201,0.152,1.598,0.455c0.396,0.304,0.646,0.729,0.752,1.274h-1.294c-0.132-0.431-0.488-0.646-1.068-0.646
								c-0.256,0-0.476,0.057-0.66,0.171c-0.186,0.114-0.277,0.282-0.277,0.501c0,0.255,0.202,0.436,0.607,0.542l1.24,0.29
								c1.003,0.238,1.505,0.792,1.505,1.664c0,0.572-0.213,1.027-0.64,1.366c-0.428,0.339-0.976,0.508-1.644,0.508
								c-0.687,0-1.252-0.163-1.696-0.488C462.539,102.817,462.272,102.373,462.184,101.81z"/>
							<path fill="#585A5E" d="M468.559,101.915v-3.181h-0.924v-1.096h0.924v-1.571h1.32v1.571h1.319v1.096h-1.319v3.036
								c0,0.458,0.232,0.686,0.699,0.686c0.281,0,0.532-0.079,0.752-0.237v1.201c-0.237,0.141-0.567,0.211-0.989,0.211
								c-0.546,0-0.979-0.145-1.301-0.436S468.559,102.479,468.559,101.915z"/>
							<path fill="#585A5E" d="M476.129,102.878c-0.638-0.871-0.956-1.909-0.956-3.115c0-1.205,0.318-2.244,0.956-3.115
								c0.639-0.872,1.499-1.448,2.581-1.729v1.426c-0.66,0.158-1.197,0.545-1.61,1.162c-0.414,0.616-0.62,1.368-0.62,2.257
								c0,0.889,0.206,1.642,0.62,2.257c0.413,0.616,0.95,1.003,1.61,1.162v1.426C477.628,104.326,476.768,103.75,476.129,102.878z"
								/>
							<path fill="#585A5E" d="M482.353,95.394h1.32l3.115,8.105h-1.399l-0.831-2.244h-3.103l-0.831,2.244h-1.387L482.353,95.394z
								 M483,97.071l-1.109,2.996h2.218L483,97.071z"/>
							<path fill="#585A5E" d="M491.079,100.476h-1.756v3.023h-1.373v-8.105h3.129c0.854,0,1.528,0.22,2.025,0.66
								s0.746,1.069,0.746,1.888c0,0.81-0.249,1.435-0.746,1.875S491.932,100.476,491.079,100.476z M492.491,97.942
								c0-0.414-0.123-0.744-0.37-0.99c-0.246-0.246-0.603-0.37-1.068-0.37h-1.729v2.706h1.729c0.457,0,0.812-0.123,1.062-0.37
								C492.366,98.672,492.491,98.347,492.491,97.942z"/>
							<path fill="#585A5E" d="M498.273,100.476h-1.756v3.023h-1.373v-8.105h3.129c0.854,0,1.528,0.22,2.025,0.66
								s0.746,1.069,0.746,1.888c0,0.81-0.249,1.435-0.746,1.875S499.126,100.476,498.273,100.476z M499.685,97.942
								c0-0.414-0.123-0.744-0.37-0.99c-0.246-0.246-0.603-0.37-1.068-0.37h-1.729v2.706h1.729c0.457,0,0.812-0.123,1.062-0.37
								C499.56,98.672,499.685,98.347,499.685,97.942z"/>
							<path fill="#585A5E" d="M502.337,103.499v-8.105h1.373v6.877h3.894v1.228H502.337z"/>
							<path fill="#585A5E" d="M511.083,96.648c0.638,0.871,0.957,1.91,0.957,3.115c0,1.206-0.319,2.244-0.957,3.115
								c-0.639,0.872-1.498,1.448-2.581,1.729v-1.426c0.66-0.158,1.197-0.545,1.61-1.162c0.414-0.616,0.621-1.368,0.621-2.257
								c0-0.889-0.207-1.641-0.621-2.257c-0.413-0.616-0.95-1.003-1.61-1.162v-1.426C509.584,95.201,510.444,95.777,511.083,96.648z
								"/>
						</g>
					</g>
					<g>
						<g>
							
								<line fill="none" stroke="#585A5E" stroke-width="1.1" stroke-miterlimit="10" x1="361.054" y1="110.583" x2="530.225" y2="110.583"/>
							<g>
								<polygon fill="#585A5E" points="529.407,113.38 534.251,110.583 529.407,107.786 								"/>
							</g>
						</g>
					</g>
					<g>
						<g>
							<path fill="#585A5E" d="M374.603,66.394h1.32l3.115,8.105h-1.399l-0.831-2.244h-3.103l-0.831,2.244h-1.387L374.603,66.394z
								 M375.25,68.071l-1.109,2.996h2.218L375.25,68.071z"/>
							<path fill="#585A5E" d="M379.58,72.81h1.347c0.149,0.493,0.536,0.739,1.161,0.739c0.309,0,0.553-0.06,0.732-0.178
								c0.181-0.119,0.271-0.292,0.271-0.521c0-0.159-0.053-0.284-0.158-0.376c-0.105-0.092-0.281-0.169-0.527-0.231l-1.215-0.29
								c-0.968-0.229-1.452-0.766-1.452-1.611c0-0.528,0.209-0.965,0.627-1.313s0.948-0.521,1.591-0.521
								c0.669,0,1.201,0.152,1.598,0.455c0.396,0.304,0.646,0.729,0.752,1.274h-1.294c-0.132-0.431-0.488-0.646-1.068-0.646
								c-0.256,0-0.476,0.057-0.66,0.171c-0.186,0.114-0.277,0.282-0.277,0.501c0,0.255,0.202,0.436,0.607,0.542l1.24,0.29
								c1.003,0.238,1.505,0.792,1.505,1.664c0,0.572-0.213,1.027-0.64,1.366c-0.428,0.339-0.976,0.508-1.644,0.508
								c-0.687,0-1.252-0.163-1.696-0.488C379.934,73.817,379.667,73.373,379.58,72.81z"/>
							<path fill="#585A5E" d="M387.659,76.743h-1.28l0.831-2.086l-2.271-6.019h1.413l1.531,4.316l1.504-4.316h1.36L387.659,76.743z
								"/>
							<path fill="#585A5E" d="M391.803,74.499v-5.861h1.32v0.554c0.396-0.457,0.924-0.686,1.584-0.686
								c0.65,0,1.159,0.198,1.524,0.594s0.548,0.924,0.548,1.584v3.815h-1.32v-3.59c0-0.378-0.092-0.673-0.277-0.884
								c-0.185-0.211-0.462-0.317-0.831-0.317c-0.291,0-0.55,0.086-0.779,0.257c-0.229,0.171-0.378,0.398-0.448,0.68v3.854H391.803z
								"/>
							<path fill="#585A5E" d="M398.693,73.78c-0.511-0.568-0.766-1.305-0.766-2.211s0.255-1.644,0.766-2.211
								c0.511-0.567,1.166-0.851,1.967-0.851c0.687,0,1.245,0.178,1.677,0.535c0.431,0.356,0.69,0.833,0.778,1.432h-1.32
								c-0.053-0.264-0.178-0.466-0.376-0.607c-0.198-0.141-0.446-0.211-0.745-0.211c-0.432,0-0.777,0.178-1.037,0.535
								c-0.259,0.356-0.389,0.816-0.389,1.379c0,0.563,0.13,1.023,0.389,1.379c0.26,0.356,0.605,0.534,1.037,0.534
								c0.299,0,0.547-0.07,0.745-0.211s0.323-0.343,0.376-0.607h1.32c-0.088,0.599-0.348,1.076-0.778,1.432
								c-0.432,0.356-0.99,0.535-1.677,0.535C399.859,74.631,399.204,74.347,398.693,73.78z"/>
							<path fill="#585A5E" d="M412.803,71.489h-1.769v-1.175h3.075v0.634c0,1.109-0.323,2-0.97,2.673
								c-0.646,0.673-1.472,1.01-2.476,1.01c-1.1,0-2.011-0.389-2.732-1.168s-1.082-1.784-1.082-3.016s0.358-2.238,1.076-3.016
								c0.717-0.779,1.612-1.168,2.686-1.168c0.906,0,1.648,0.238,2.225,0.713s0.943,1.126,1.103,1.954h-1.373
								c-0.177-0.466-0.416-0.82-0.72-1.062s-0.715-0.363-1.234-0.363c-0.713,0-1.287,0.275-1.723,0.825s-0.653,1.256-0.653,2.119
								c0,0.871,0.22,1.584,0.66,2.138c0.44,0.555,1.03,0.832,1.769,0.832c0.599,0,1.083-0.173,1.452-0.521
								C412.487,72.548,412.715,72.079,412.803,71.489z"/>
							<path fill="#585A5E" d="M415.47,66.394h5.293v1.214h-3.946v2.139h3.577v1.201h-3.577v2.323h3.946v1.228h-5.293V66.394z"/>
							<path fill="#585A5E" d="M421.753,67.608v-1.214h6.758v1.214h-2.692v6.891h-1.373v-6.891H421.753z"/>
							<path fill="#585A5E" d="M435.917,68.612v1.359c-0.185-0.132-0.444-0.198-0.778-0.198c-0.282,0-0.533,0.082-0.753,0.244
								c-0.22,0.163-0.36,0.394-0.422,0.693v3.789h-1.32v-5.861h1.32v0.607c0.114-0.22,0.29-0.398,0.527-0.535
								c0.238-0.136,0.497-0.205,0.779-0.205C435.578,68.506,435.793,68.542,435.917,68.612z"/>
							<path fill="#585A5E" d="M440.748,72.677h1.214c-0.105,0.599-0.372,1.074-0.799,1.426s-0.983,0.528-1.669,0.528
								c-0.818,0-1.485-0.281-2-0.845c-0.515-0.563-0.772-1.298-0.772-2.204c0-0.88,0.26-1.613,0.779-2.198
								c0.519-0.585,1.175-0.877,1.967-0.877c0.809,0,1.437,0.262,1.881,0.785c0.444,0.524,0.666,1.226,0.666,2.105v0.475h-3.999
								c0.018,0.511,0.16,0.913,0.429,1.208s0.618,0.442,1.05,0.442C440.188,73.522,440.606,73.241,440.748,72.677z M439.48,69.615
								c-0.369,0-0.68,0.112-0.931,0.336c-0.251,0.224-0.416,0.543-0.495,0.957h2.653c-0.009-0.378-0.119-0.688-0.33-0.931
								C440.167,69.736,439.867,69.615,439.48,69.615z"/>
							<path fill="#585A5E" d="M447.031,76.743v-2.746c-0.141,0.176-0.348,0.326-0.62,0.449c-0.273,0.123-0.563,0.185-0.872,0.185
								c-0.827,0-1.486-0.297-1.979-0.891c-0.493-0.594-0.739-1.318-0.739-2.171s0.246-1.578,0.739-2.171
								c0.493-0.594,1.152-0.891,1.979-0.891c0.309,0,0.599,0.062,0.872,0.185c0.272,0.124,0.479,0.273,0.62,0.449v-0.501h1.32
								v8.105H447.031z M447.031,72.677V70.46c-0.114-0.229-0.286-0.416-0.515-0.561c-0.229-0.146-0.48-0.218-0.753-0.218
								c-0.501,0-0.897,0.176-1.188,0.528c-0.291,0.352-0.436,0.805-0.436,1.36c0,0.554,0.145,1.007,0.436,1.359
								c0.29,0.352,0.687,0.528,1.188,0.528c0.272,0,0.523-0.072,0.753-0.218C446.745,73.093,446.917,72.906,447.031,72.677z"/>
							<path fill="#585A5E" d="M454.859,68.638v5.861h-1.32v-0.554c-0.396,0.458-0.92,0.686-1.57,0.686
								c-0.651,0-1.157-0.198-1.519-0.594c-0.36-0.396-0.541-0.924-0.541-1.584v-3.815h1.32v3.59c0,0.801,0.364,1.201,1.096,1.201
								c0.29,0,0.547-0.085,0.771-0.257c0.225-0.171,0.372-0.398,0.442-0.68v-3.854H454.859z"/>
							<path fill="#585A5E" d="M460.112,72.677h1.214c-0.105,0.599-0.372,1.074-0.799,1.426s-0.983,0.528-1.669,0.528
								c-0.818,0-1.485-0.281-2-0.845c-0.515-0.563-0.772-1.298-0.772-2.204c0-0.88,0.26-1.613,0.779-2.198
								c0.519-0.585,1.175-0.877,1.967-0.877c0.809,0,1.437,0.262,1.881,0.785c0.444,0.524,0.666,1.226,0.666,2.105v0.475h-3.999
								c0.018,0.511,0.16,0.913,0.429,1.208s0.618,0.442,1.05,0.442C459.552,73.522,459.97,73.241,460.112,72.677z M458.844,69.615
								c-0.369,0-0.68,0.112-0.931,0.336c-0.251,0.224-0.416,0.543-0.495,0.957h2.653c-0.009-0.378-0.119-0.688-0.33-0.931
								C459.531,69.736,459.231,69.615,458.844,69.615z"/>
							<path fill="#585A5E" d="M462.184,72.81h1.347c0.149,0.493,0.536,0.739,1.161,0.739c0.309,0,0.553-0.06,0.732-0.178
								c0.181-0.119,0.271-0.292,0.271-0.521c0-0.159-0.053-0.284-0.158-0.376c-0.105-0.092-0.281-0.169-0.527-0.231l-1.215-0.29
								c-0.968-0.229-1.452-0.766-1.452-1.611c0-0.528,0.209-0.965,0.627-1.313s0.948-0.521,1.591-0.521
								c0.669,0,1.201,0.152,1.598,0.455c0.396,0.304,0.646,0.729,0.752,1.274h-1.294c-0.132-0.431-0.488-0.646-1.068-0.646
								c-0.256,0-0.476,0.057-0.66,0.171c-0.186,0.114-0.277,0.282-0.277,0.501c0,0.255,0.202,0.436,0.607,0.542l1.24,0.29
								c1.003,0.238,1.505,0.792,1.505,1.664c0,0.572-0.213,1.027-0.64,1.366c-0.428,0.339-0.976,0.508-1.644,0.508
								c-0.687,0-1.252-0.163-1.696-0.488C462.539,73.817,462.272,73.373,462.184,72.81z"/>
							<path fill="#585A5E" d="M468.559,72.915v-3.181h-0.924v-1.096h0.924v-1.571h1.32v1.571h1.319v1.096h-1.319v3.036
								c0,0.458,0.232,0.686,0.699,0.686c0.281,0,0.532-0.079,0.752-0.237v1.201c-0.237,0.141-0.567,0.211-0.989,0.211
								c-0.546,0-0.979-0.145-1.301-0.436S468.559,73.479,468.559,72.915z"/>
							<path fill="#585A5E" d="M476.129,73.878c-0.638-0.871-0.956-1.909-0.956-3.115c0-1.205,0.318-2.244,0.956-3.115
								c0.639-0.872,1.499-1.448,2.581-1.729v1.426c-0.66,0.158-1.197,0.545-1.61,1.162c-0.414,0.616-0.62,1.368-0.62,2.257
								c0,0.889,0.206,1.642,0.62,2.257c0.413,0.616,0.95,1.003,1.61,1.162v1.426C477.628,75.326,476.768,74.75,476.129,73.878z"/>
							<path fill="#585A5E" d="M485.389,71.489h-1.769v-1.175h3.075v0.634c0,1.109-0.323,2-0.97,2.673
								c-0.646,0.673-1.472,1.01-2.476,1.01c-1.1,0-2.011-0.389-2.732-1.168s-1.082-1.784-1.082-3.016s0.358-2.238,1.076-3.016
								c0.717-0.779,1.612-1.168,2.686-1.168c0.906,0,1.648,0.238,2.225,0.713s0.943,1.126,1.103,1.954h-1.373
								c-0.177-0.466-0.416-0.82-0.72-1.062s-0.715-0.363-1.234-0.363c-0.713,0-1.287,0.275-1.723,0.825s-0.653,1.256-0.653,2.119
								c0,0.871,0.22,1.584,0.66,2.138c0.44,0.555,1.03,0.832,1.769,0.832c0.599,0,1.083-0.173,1.452-0.521
								C485.073,72.548,485.301,72.079,485.389,71.489z"/>
							<path fill="#585A5E" d="M494.048,67.444c0.704,0.788,1.056,1.789,1.056,3.003s-0.352,2.215-1.056,3.003
								s-1.602,1.181-2.693,1.181c-1.091,0-1.986-0.394-2.686-1.181c-0.7-0.788-1.05-1.789-1.05-3.003s0.35-2.215,1.05-3.003
								c0.699-0.788,1.595-1.182,2.686-1.182C492.447,66.262,493.344,66.656,494.048,67.444z M493.065,72.572
								c0.436-0.554,0.653-1.263,0.653-2.125s-0.218-1.571-0.653-2.125c-0.436-0.554-1.006-0.832-1.71-0.832
								s-1.271,0.275-1.702,0.825c-0.432,0.55-0.647,1.26-0.647,2.132c0,0.871,0.216,1.582,0.647,2.132
								c0.431,0.55,0.998,0.825,1.702,0.825S492.629,73.126,493.065,72.572z"/>
							<path fill="#585A5E" d="M502.457,67.444c0.704,0.788,1.056,1.789,1.056,3.003s-0.352,2.215-1.056,3.003
								s-1.602,1.181-2.693,1.181c-1.091,0-1.986-0.394-2.686-1.181c-0.7-0.788-1.05-1.789-1.05-3.003s0.35-2.215,1.05-3.003
								c0.699-0.788,1.595-1.182,2.686-1.182C500.855,66.262,501.752,66.656,502.457,67.444z M501.473,72.572
								c0.436-0.554,0.653-1.263,0.653-2.125s-0.218-1.571-0.653-2.125c-0.436-0.554-1.006-0.832-1.71-0.832
								s-1.271,0.275-1.702,0.825c-0.432,0.55-0.647,1.26-0.647,2.132c0,0.871,0.216,1.582,0.647,2.132
								c0.431,0.55,0.998,0.825,1.702,0.825S501.038,73.126,501.473,72.572z"/>
							<path fill="#585A5E" d="M510.389,71.489h-1.769v-1.175h3.075v0.634c0,1.109-0.323,2-0.97,2.673
								c-0.646,0.673-1.472,1.01-2.476,1.01c-1.1,0-2.011-0.389-2.732-1.168s-1.082-1.784-1.082-3.016s0.358-2.238,1.076-3.016
								c0.717-0.779,1.612-1.168,2.686-1.168c0.906,0,1.648,0.238,2.225,0.713s0.943,1.126,1.103,1.954h-1.373
								c-0.177-0.466-0.416-0.82-0.72-1.062s-0.715-0.363-1.234-0.363c-0.713,0-1.287,0.275-1.723,0.825s-0.653,1.256-0.653,2.119
								c0,0.871,0.22,1.584,0.66,2.138c0.44,0.555,1.03,0.832,1.769,0.832c0.599,0,1.083-0.173,1.452-0.521
								C510.073,72.548,510.301,72.079,510.389,71.489z"/>
							<path fill="#585A5E" d="M515.069,67.648c0.638,0.871,0.957,1.91,0.957,3.115c0,1.206-0.319,2.244-0.957,3.115
								c-0.639,0.872-1.498,1.448-2.581,1.729v-1.426c0.66-0.158,1.197-0.545,1.61-1.162c0.414-0.616,0.621-1.368,0.621-2.257
								c0-0.889-0.207-1.641-0.621-2.257c-0.413-0.616-0.95-1.003-1.61-1.162v-1.426C513.571,66.201,514.43,66.777,515.069,67.648z"
								/>
						</g>
					</g>
					<g>
						<g>
							
								<line fill="none" stroke="#585A5E" stroke-width="1.1" stroke-miterlimit="10" x1="361.054" y1="81.583" x2="530.225" y2="81.583"/>
							<g>
								<polygon fill="#585A5E" points="529.407,84.38 534.251,81.583 529.407,78.786 								"/>
							</g>
						</g>
					</g>
					<g>
						<g>
							<path fill="#585A5E" d="M374.603,124.395h1.32l3.115,8.104h-1.399l-0.831-2.244h-3.103l-0.831,2.244h-1.387L374.603,124.395z
								 M375.25,126.07l-1.109,2.996h2.218L375.25,126.07z"/>
							<path fill="#585A5E" d="M379.58,130.81h1.347c0.149,0.493,0.536,0.739,1.161,0.739c0.309,0,0.553-0.06,0.732-0.178
								c0.181-0.119,0.271-0.293,0.271-0.521c0-0.159-0.053-0.284-0.158-0.377c-0.105-0.092-0.281-0.169-0.527-0.23l-1.215-0.291
								c-0.968-0.229-1.452-0.766-1.452-1.61c0-0.528,0.209-0.966,0.627-1.313s0.948-0.521,1.591-0.521
								c0.669,0,1.201,0.152,1.598,0.455c0.396,0.305,0.646,0.729,0.752,1.274h-1.294c-0.132-0.431-0.488-0.646-1.068-0.646
								c-0.256,0-0.476,0.058-0.66,0.171c-0.186,0.115-0.277,0.282-0.277,0.502c0,0.256,0.202,0.436,0.607,0.541l1.24,0.291
								c1.003,0.237,1.505,0.791,1.505,1.663c0,0.571-0.213,1.027-0.64,1.366c-0.428,0.339-0.976,0.508-1.644,0.508
								c-0.687,0-1.252-0.162-1.696-0.488C379.934,131.817,379.667,131.373,379.58,130.81z"/>
							<path fill="#585A5E" d="M387.659,134.743h-1.28l0.831-2.086l-2.271-6.019h1.413l1.531,4.316l1.504-4.316h1.36
								L387.659,134.743z"/>
							<path fill="#585A5E" d="M391.803,132.499v-5.86h1.32v0.554c0.396-0.457,0.924-0.687,1.584-0.687
								c0.65,0,1.159,0.198,1.524,0.594c0.365,0.396,0.548,0.925,0.548,1.584v3.815h-1.32v-3.591c0-0.378-0.092-0.673-0.277-0.884
								c-0.185-0.212-0.462-0.317-0.831-0.317c-0.291,0-0.55,0.086-0.779,0.258c-0.229,0.172-0.378,0.398-0.448,0.68v3.854H391.803z
								"/>
							<path fill="#585A5E" d="M398.693,131.779c-0.511-0.567-0.766-1.305-0.766-2.211s0.255-1.643,0.766-2.211
								c0.511-0.567,1.166-0.852,1.967-0.852c0.687,0,1.245,0.179,1.677,0.535c0.431,0.356,0.69,0.834,0.778,1.432h-1.32
								c-0.053-0.264-0.178-0.466-0.376-0.607c-0.198-0.141-0.446-0.211-0.745-0.211c-0.432,0-0.777,0.179-1.037,0.535
								c-0.259,0.355-0.389,0.816-0.389,1.379c0,0.563,0.13,1.023,0.389,1.38c0.26,0.356,0.605,0.534,1.037,0.534
								c0.299,0,0.547-0.07,0.745-0.211s0.323-0.344,0.376-0.607h1.32c-0.088,0.599-0.348,1.076-0.778,1.432
								c-0.432,0.357-0.99,0.535-1.677,0.535C399.859,132.631,399.204,132.348,398.693,131.779z"/>
							<path fill="#585A5E" d="M412.803,129.489h-1.769v-1.175h3.075v0.634c0,1.108-0.323,2-0.97,2.673
								c-0.646,0.674-1.472,1.01-2.476,1.01c-1.1,0-2.011-0.389-2.732-1.168s-1.082-1.784-1.082-3.016
								c0-1.232,0.358-2.238,1.076-3.017c0.717-0.778,1.612-1.169,2.686-1.169c0.906,0,1.648,0.238,2.225,0.713
								c0.576,0.476,0.943,1.127,1.103,1.954h-1.373c-0.177-0.466-0.416-0.82-0.72-1.062s-0.715-0.363-1.234-0.363
								c-0.713,0-1.287,0.275-1.723,0.825s-0.653,1.256-0.653,2.119c0,0.871,0.22,1.584,0.66,2.138
								c0.44,0.555,1.03,0.831,1.769,0.831c0.599,0,1.083-0.173,1.452-0.521C412.487,130.548,412.715,130.079,412.803,129.489z"/>
							<path fill="#585A5E" d="M415.47,124.395h5.293v1.214h-3.946v2.139h3.577v1.201h-3.577v2.323h3.946v1.228h-5.293V124.395z"/>
							<path fill="#585A5E" d="M421.753,125.608v-1.214h6.758v1.214h-2.692v6.891h-1.373v-6.891H421.753z"/>
							<path fill="#585A5E" d="M435.917,126.611v1.359c-0.185-0.131-0.444-0.197-0.778-0.197c-0.282,0-0.533,0.082-0.753,0.244
								c-0.22,0.163-0.36,0.395-0.422,0.693v3.788h-1.32v-5.86h1.32v0.607c0.114-0.221,0.29-0.398,0.527-0.535
								c0.238-0.137,0.497-0.205,0.779-0.205C435.578,126.506,435.793,126.541,435.917,126.611z"/>
							<path fill="#585A5E" d="M440.748,130.678h1.214c-0.105,0.598-0.372,1.073-0.799,1.426c-0.427,0.352-0.983,0.527-1.669,0.527
								c-0.818,0-1.485-0.281-2-0.845s-0.772-1.298-0.772-2.204c0-0.88,0.26-1.613,0.779-2.198c0.519-0.585,1.175-0.878,1.967-0.878
								c0.809,0,1.437,0.262,1.881,0.785c0.444,0.524,0.666,1.227,0.666,2.105v0.476h-3.999c0.018,0.511,0.16,0.913,0.429,1.208
								s0.618,0.442,1.05,0.442C440.188,131.522,440.606,131.24,440.748,130.678z M439.48,127.615c-0.369,0-0.68,0.111-0.931,0.336
								s-0.416,0.544-0.495,0.957h2.653c-0.009-0.378-0.119-0.688-0.33-0.93S439.867,127.615,439.48,127.615z"/>
							<path fill="#585A5E" d="M447.031,134.743v-2.745c-0.141,0.176-0.348,0.325-0.62,0.448c-0.273,0.123-0.563,0.185-0.872,0.185
								c-0.827,0-1.486-0.297-1.979-0.891s-0.739-1.318-0.739-2.172s0.246-1.577,0.739-2.171c0.493-0.595,1.152-0.892,1.979-0.892
								c0.309,0,0.599,0.062,0.872,0.186c0.272,0.123,0.479,0.272,0.62,0.448v-0.501h1.32v8.104H447.031z M447.031,130.678v-2.218
								c-0.114-0.229-0.286-0.416-0.515-0.562c-0.229-0.145-0.48-0.217-0.753-0.217c-0.501,0-0.897,0.176-1.188,0.527
								c-0.291,0.352-0.436,0.805-0.436,1.359s0.145,1.008,0.436,1.359c0.29,0.353,0.687,0.528,1.188,0.528
								c0.272,0,0.523-0.072,0.753-0.218C446.745,131.094,446.917,130.906,447.031,130.678z"/>
							<path fill="#585A5E" d="M454.859,126.639v5.86h-1.32v-0.554c-0.396,0.457-0.92,0.686-1.57,0.686
								c-0.651,0-1.157-0.197-1.519-0.594c-0.36-0.396-0.541-0.924-0.541-1.584v-3.814h1.32v3.59c0,0.801,0.364,1.201,1.096,1.201
								c0.29,0,0.547-0.086,0.771-0.258c0.225-0.171,0.372-0.397,0.442-0.68v-3.854H454.859z"/>
							<path fill="#585A5E" d="M460.112,130.678h1.214c-0.105,0.598-0.372,1.073-0.799,1.426c-0.427,0.352-0.983,0.527-1.669,0.527
								c-0.818,0-1.485-0.281-2-0.845s-0.772-1.298-0.772-2.204c0-0.88,0.26-1.613,0.779-2.198c0.519-0.585,1.175-0.878,1.967-0.878
								c0.809,0,1.437,0.262,1.881,0.785c0.444,0.524,0.666,1.227,0.666,2.105v0.476h-3.999c0.018,0.511,0.16,0.913,0.429,1.208
								s0.618,0.442,1.05,0.442C459.552,131.522,459.97,131.24,460.112,130.678z M458.844,127.615c-0.369,0-0.68,0.111-0.931,0.336
								s-0.416,0.544-0.495,0.957h2.653c-0.009-0.378-0.119-0.688-0.33-0.93S459.231,127.615,458.844,127.615z"/>
							<path fill="#585A5E" d="M462.184,130.81h1.347c0.149,0.493,0.536,0.739,1.161,0.739c0.309,0,0.553-0.06,0.732-0.178
								c0.181-0.119,0.271-0.293,0.271-0.521c0-0.159-0.053-0.284-0.158-0.377c-0.105-0.092-0.281-0.169-0.527-0.23l-1.215-0.291
								c-0.968-0.229-1.452-0.766-1.452-1.61c0-0.528,0.209-0.966,0.627-1.313s0.948-0.521,1.591-0.521
								c0.669,0,1.201,0.152,1.598,0.455c0.396,0.305,0.646,0.729,0.752,1.274h-1.294c-0.132-0.431-0.488-0.646-1.068-0.646
								c-0.256,0-0.476,0.058-0.66,0.171c-0.186,0.115-0.277,0.282-0.277,0.502c0,0.256,0.202,0.436,0.607,0.541l1.24,0.291
								c1.003,0.237,1.505,0.791,1.505,1.663c0,0.571-0.213,1.027-0.64,1.366c-0.428,0.339-0.976,0.508-1.644,0.508
								c-0.687,0-1.252-0.162-1.696-0.488C462.539,131.817,462.272,131.373,462.184,130.81z"/>
							<path fill="#585A5E" d="M468.559,130.915v-3.181h-0.924v-1.096h0.924v-1.571h1.32v1.571h1.319v1.096h-1.319v3.035
								c0,0.458,0.232,0.687,0.699,0.687c0.281,0,0.532-0.079,0.752-0.237v1.201c-0.237,0.141-0.567,0.211-0.989,0.211
								c-0.546,0-0.979-0.145-1.301-0.436S468.559,131.479,468.559,130.915z"/>
							<path fill="#585A5E" d="M476.129,131.879c-0.638-0.871-0.956-1.91-0.956-3.115s0.318-2.244,0.956-3.115
								c0.639-0.871,1.499-1.447,2.581-1.729v1.426c-0.66,0.158-1.197,0.546-1.61,1.161c-0.414,0.616-0.62,1.369-0.62,2.258
								s0.206,1.641,0.62,2.257c0.413,0.616,0.95,1.003,1.61,1.161v1.426C477.628,133.326,476.768,132.75,476.129,131.879z"/>
							<path fill="#585A5E" d="M484.386,132.499h-0.977l-2.231-5.636v5.636h-1.307v-8.104h1.571l2.468,6.23l2.442-6.23h1.531v8.104
								h-1.32v-5.636L484.386,132.499z"/>
							<path fill="#585A5E" d="M489.045,130.255h1.399c0.255,0.81,0.867,1.214,1.835,1.214c0.476,0,0.855-0.107,1.142-0.322
								c0.286-0.216,0.429-0.509,0.429-0.879c0-0.289-0.09-0.521-0.271-0.692c-0.18-0.171-0.481-0.306-0.904-0.402l-1.372-0.33
								c-1.347-0.317-2.02-1.043-2.02-2.179c0-0.694,0.257-1.269,0.771-1.723c0.516-0.453,1.177-0.68,1.987-0.68
								c0.854,0,1.542,0.201,2.065,0.602s0.86,0.947,1.01,1.643h-1.373c-0.255-0.721-0.818-1.082-1.689-1.082
								c-0.44,0-0.794,0.104-1.062,0.311s-0.402,0.477-0.402,0.812c0,0.536,0.356,0.889,1.069,1.056l1.412,0.33
								c0.66,0.15,1.175,0.414,1.544,0.792c0.37,0.378,0.555,0.862,0.555,1.452c0,0.748-0.269,1.344-0.805,1.789
								c-0.537,0.443-1.232,0.666-2.086,0.666c-0.862,0-1.582-0.209-2.158-0.627S489.186,131.003,489.045,130.255z"/>
							<path fill="#585A5E" d="M497.903,132.499h-1.373v-8.104h5.175v1.214h-3.802v2.403h3.551v1.201h-3.551V132.499z"/>
							<path fill="#585A5E" d="M502.563,125.608v-1.214h6.758v1.214h-2.692v6.891h-1.373v-6.891H502.563z"/>
							<path fill="#585A5E" d="M512.693,125.648c0.638,0.871,0.957,1.91,0.957,3.115s-0.319,2.244-0.957,3.115
								c-0.639,0.871-1.498,1.447-2.581,1.729v-1.426c0.66-0.158,1.197-0.545,1.61-1.161c0.414-0.616,0.621-1.368,0.621-2.257
								s-0.207-1.642-0.621-2.258c-0.413-0.615-0.95-1.003-1.61-1.161v-1.426C511.195,124.201,512.054,124.777,512.693,125.648z"/>
						</g>
					</g>
					<g>
						<g>
							
								<line fill="none" stroke="#585A5E" stroke-width="1.1" stroke-miterlimit="10" x1="361.054" y1="139.583" x2="530.225" y2="139.583"/>
							<g>
								<polygon fill="#585A5E" points="529.407,142.38 534.251,139.583 529.407,136.786 								"/>
							</g>
						</g>
					</g>
					<g>
						<g>
							
								<line fill="none" stroke="#585A5E" stroke-width="1.1" stroke-miterlimit="10" x1="240.188" y1="115.078" x2="174.176" y2="115.078"/>
							<g>
								<polygon fill="#585A5E" points="174.994,112.281 170.15,115.078 174.994,117.875 								"/>
							</g>
						</g>
					</g>
				</g>
			</g>
			<g>
				<g>
					<g>
						<g>
							<path fill="#585A5E" d="M121.599,156.895c-0.681-0.758-1.021-1.748-1.021-2.971c0-1.221,0.34-2.211,1.021-2.971
								c0.68-0.758,1.532-1.137,2.555-1.137c0.823,0,1.505,0.221,2.047,0.664c0.542,0.441,0.895,1.039,1.06,1.793h-1.014
								c-0.364-1.021-1.062-1.533-2.093-1.533c-0.763,0-1.378,0.291-1.846,0.877c-0.468,0.584-0.702,1.354-0.702,2.307
								c0,0.945,0.234,1.713,0.702,2.301c0.468,0.59,1.083,0.885,1.846,0.885c1.04,0,1.737-0.516,2.093-1.547h1.014
								c-0.165,0.764-0.518,1.365-1.06,1.807c-0.542,0.443-1.224,0.664-2.047,0.664C123.13,158.033,122.279,157.654,121.599,156.895
								z"/>
							<path fill="#585A5E" d="M129.562,149.465v8.451h-0.975v-8.451H129.562z"/>
							<path fill="#585A5E" d="M132.232,149.959c0.126,0.121,0.188,0.27,0.188,0.443c0,0.172-0.062,0.32-0.188,0.441
								c-0.125,0.121-0.275,0.182-0.448,0.182s-0.321-0.061-0.442-0.182c-0.122-0.121-0.182-0.27-0.182-0.441
								c0-0.174,0.061-0.322,0.182-0.443c0.121-0.121,0.269-0.182,0.442-0.182S132.107,149.838,132.232,149.959z M132.278,152.143
								v5.773h-0.975v-5.773H132.278z"/>
							<path fill="#585A5E" d="M137.66,156.188h0.923c-0.104,0.562-0.36,1.012-0.767,1.344c-0.407,0.334-0.927,0.502-1.56,0.502
								c-0.789,0-1.428-0.275-1.917-0.826s-0.734-1.271-0.734-2.164c0-0.875,0.243-1.598,0.728-2.164
								c0.485-0.568,1.118-0.852,1.898-0.852c0.771,0,1.369,0.258,1.794,0.773c0.424,0.516,0.637,1.201,0.637,2.061v0.35h-4.082
								c0.008,0.607,0.167,1.09,0.474,1.449c0.308,0.361,0.708,0.541,1.203,0.541c0.364,0,0.669-0.09,0.917-0.268
								S137.582,156.508,137.66,156.188z M136.243,152.859c-0.434,0-0.798,0.143-1.092,0.428c-0.295,0.287-0.477,0.682-0.546,1.184
								h3.068c-0.009-0.459-0.134-0.844-0.377-1.15C137.053,153.012,136.702,152.859,136.243,152.859z"/>
							<path fill="#585A5E" d="M139.961,157.916v-5.773h0.975v0.729c0.182-0.242,0.422-0.443,0.721-0.604
								c0.299-0.16,0.626-0.24,0.981-0.24c0.642,0,1.14,0.189,1.495,0.57c0.355,0.383,0.533,0.895,0.533,1.535v3.783h-0.988v-3.627
								c0-0.416-0.106-0.748-0.318-0.994c-0.212-0.248-0.531-0.371-0.956-0.371c-0.338,0-0.642,0.102-0.91,0.305
								c-0.269,0.205-0.455,0.463-0.559,0.773v3.914H139.961z"/>
							<path fill="#585A5E" d="M146.591,156.459v-3.484h-0.936v-0.832h0.936v-1.52h0.975v1.52h1.391v0.832h-1.391v3.381
								c0,0.537,0.255,0.807,0.767,0.807c0.268,0,0.52-0.078,0.754-0.234v0.91c-0.243,0.129-0.546,0.195-0.91,0.195
								c-0.485,0-0.871-0.133-1.157-0.396C146.734,157.371,146.591,156.98,146.591,156.459z"/>
						</g>
					</g>
					<g id="hVCAm4_14_">
						<g>
							<path fill-rule="evenodd" clip-rule="evenodd" fill="#585A5E" d="M112.386,131.709c0.151-0.213,0.443-0.432,0.436-0.639
								c-0.25-5.545,2.992-7.986,7.875-9.254c1.987-0.516,3.899-1.516,5.688-2.564c4.67-2.734,5.23-4.906,2.691-9.549
								c-2.778-5.08-2.293-10.461-1.207-15.787c0.247-1.215,1.588-2.463,2.744-3.186c3.265-2.043,9.669-1.34,12.621,1.115
								c2.58,2.146,2.085,5.188,2.549,8.023c0.731,4.471-0.407,8.445-2.451,12.293c-1.134,2.133-0.485,3.904,1.199,5.307
								c1.24,1.031,2.628,1.928,4.06,2.672c1.442,0.752,2.972,1.445,4.547,1.814c4.621,1.084,7.543,3.559,7.78,8.582
								c0.029,0.584,0.438,1.146,0.671,1.719c0,0.363,0,0.73,0,1.094c-13.099,12.721-33.543,14.994-49.202,0
								C112.386,132.803,112.386,132.256,112.386,131.709z"/>
						</g>
					</g>
				</g>
				<path fill="none" stroke="#585A5E" stroke-width="1.363" stroke-miterlimit="10" d="M170.664,109.678
					c0,9.076-3.535,17.328-9.304,23.451c-6.239,6.621-15.087,10.756-24.902,10.756c-9.445,0-17.998-3.83-24.188-10.02
					c-6.19-6.189-10.019-14.742-10.019-24.188c0-18.893,15.313-34.205,34.206-34.205S170.664,90.785,170.664,109.678z"/>
			</g>
		</g>
	</g>
</g>
</svg>
