<?xml version="1.0" encoding="utf-8"?>
<!-- Generator: Adobe Illustrator 16.0.0, SVG Export Plug-In . SVG Version: 6.00 Build 0)  -->
<!DOCTYPE svg PUBLIC "-//W3C//DTD SVG 1.1//EN" "http://www.w3.org/Graphics/SVG/1.1/DTD/svg11.dtd">
<svg version="1.1" id="Layer_1" xmlns="http://www.w3.org/2000/svg" xmlns:xlink="http://www.w3.org/1999/xlink" x="0px" y="0px"
	 width="756.151px" height="284.925px" viewBox="0 0 756.151 284.925" enable-background="new 0 0 756.151 284.925"
	 xml:space="preserve">
<rect x="0.075" y="0.075" fill="none" stroke="#A6A8AB" stroke-width="0.15" stroke-miterlimit="10" width="756.001" height="284.774"/>
<g>
	<g>
		<g>
			<rect x="319.617" y="50.733" fill="#20B5AE" width="175.236" height="47.234"/>
			<g>
				<g>
					<path fill="#FFFFFF" d="M378.305,76.792c-0.041,0.307-0.121,0.637-0.242,0.992c-0.121,0.355-0.317,0.686-0.587,0.992
						c-0.271,0.307-0.627,0.562-1.071,0.768c-0.444,0.206-1.004,0.309-1.682,0.309c-0.629,0-1.194-0.099-1.694-0.296
						c-0.5-0.197-0.922-0.484-1.265-0.859s-0.607-0.831-0.792-1.367c-0.186-0.537-0.278-1.144-0.278-1.821
						c0-0.75,0.083-1.385,0.248-1.906c0.166-0.52,0.375-0.952,0.629-1.294c0.254-0.343,0.538-0.611,0.853-0.805
						c0.314-0.194,0.619-0.337,0.914-0.43c0.294-0.093,0.562-0.149,0.805-0.169c0.242-0.02,0.423-0.03,0.544-0.03
						c0.678,0,1.234,0.089,1.67,0.266c0.436,0.178,0.784,0.405,1.046,0.684s0.452,0.587,0.569,0.926
						c0.117,0.339,0.191,0.67,0.224,0.992h-1.137c-0.016-0.153-0.059-0.339-0.127-0.557c-0.069-0.218-0.188-0.427-0.357-0.629
						s-0.406-0.373-0.708-0.515c-0.303-0.141-0.696-0.211-1.18-0.211c-0.533,0-0.976,0.103-1.331,0.309
						c-0.355,0.206-0.64,0.478-0.853,0.816c-0.214,0.339-0.367,0.726-0.46,1.162s-0.139,0.883-0.139,1.343
						c0,0.492,0.064,0.948,0.194,1.367c0.129,0.419,0.318,0.783,0.568,1.089c0.25,0.307,0.551,0.547,0.902,0.72
						c0.351,0.173,0.752,0.26,1.204,0.26c0.339,0,0.651-0.053,0.938-0.157c0.286-0.105,0.534-0.252,0.744-0.442
						c0.209-0.189,0.377-0.411,0.502-0.666c0.125-0.254,0.196-0.534,0.212-0.841H378.305z"/>
					<path fill="#FFFFFF" d="M379.285,76.525c0-0.412,0.053-0.815,0.158-1.21c0.104-0.396,0.275-0.749,0.514-1.059
						s0.551-0.562,0.938-0.756c0.387-0.193,0.859-0.29,1.416-0.29s1.028,0.097,1.416,0.29c0.387,0.194,0.699,0.446,0.938,0.756
						s0.409,0.664,0.514,1.059c0.105,0.395,0.158,0.798,0.158,1.21c0,0.411-0.053,0.815-0.158,1.21
						c-0.104,0.395-0.275,0.748-0.514,1.059s-0.551,0.562-0.938,0.756c-0.388,0.193-0.859,0.291-1.416,0.291
						s-1.029-0.097-1.416-0.291c-0.387-0.194-0.699-0.446-0.938-0.756s-0.41-0.664-0.514-1.059
						C379.338,77.34,379.285,76.937,379.285,76.525z M380.41,76.525c0,0.61,0.077,1.088,0.23,1.433s0.334,0.602,0.545,0.771
						c0.209,0.169,0.419,0.271,0.629,0.307c0.209,0.036,0.375,0.054,0.496,0.054s0.286-0.018,0.496-0.054
						c0.209-0.036,0.42-0.138,0.629-0.307c0.21-0.168,0.392-0.425,0.545-0.771c0.152-0.345,0.229-0.823,0.229-1.433
						s-0.077-1.088-0.229-1.433c-0.153-0.345-0.335-0.603-0.545-0.771c-0.209-0.168-0.42-0.271-0.629-0.307
						c-0.21-0.036-0.375-0.054-0.496-0.054s-0.287,0.018-0.496,0.054c-0.21,0.036-0.42,0.139-0.629,0.307
						c-0.211,0.168-0.392,0.426-0.545,0.771S380.41,75.915,380.41,76.525z"/>
					<path fill="#FFFFFF" d="M387.791,73.452v0.859c0.21-0.307,0.492-0.567,0.848-0.781c0.354-0.213,0.774-0.32,1.258-0.32
						c0.404,0,0.736,0.062,0.998,0.188c0.263,0.125,0.469,0.292,0.617,0.502c0.15,0.21,0.254,0.454,0.314,0.732
						c0.061,0.278,0.092,0.571,0.092,0.877v4.09h-1.065v-3.763c0-0.161-0.006-0.351-0.019-0.569
						c-0.012-0.218-0.056-0.423-0.133-0.617c-0.076-0.194-0.203-0.357-0.381-0.49s-0.432-0.2-0.762-0.2
						c-0.146,0-0.319,0.024-0.521,0.073c-0.201,0.048-0.395,0.151-0.58,0.309s-0.344,0.387-0.473,0.689
						c-0.129,0.303-0.193,0.708-0.193,1.216v3.352h-1.064v-6.147H387.791z"/>
					<path fill="#FFFFFF" d="M394.047,73.452v-1.839h1.065v1.839h1.307v0.75h-1.307v3.908c0,0.113,0.002,0.22,0.006,0.321
						c0.004,0.101,0.024,0.191,0.061,0.272c0.036,0.081,0.099,0.144,0.188,0.188c0.089,0.044,0.218,0.067,0.388,0.067
						c0.112,0,0.226-0.01,0.338-0.03c0.113-0.02,0.223-0.046,0.327-0.079v0.75c-0.169,0.073-0.351,0.131-0.544,0.175
						s-0.384,0.067-0.569,0.067c-0.314,0-0.559-0.049-0.731-0.146c-0.174-0.097-0.299-0.22-0.375-0.369
						c-0.077-0.149-0.121-0.312-0.134-0.49c-0.012-0.177-0.019-0.347-0.019-0.508v-4.126h-1.101v-0.75H394.047z"/>
					<path fill="#FFFFFF" d="M402.977,77.82c-0.04,0.218-0.115,0.446-0.224,0.684c-0.108,0.238-0.267,0.456-0.472,0.654
						c-0.206,0.198-0.471,0.361-0.793,0.49s-0.722,0.194-1.197,0.194c-0.509,0-0.938-0.069-1.289-0.206
						c-0.352-0.137-0.641-0.312-0.871-0.526c-0.23-0.213-0.41-0.449-0.539-0.708s-0.223-0.508-0.283-0.75
						c-0.061-0.242-0.098-0.461-0.109-0.659s-0.018-0.345-0.018-0.442c0-0.137,0.008-0.316,0.023-0.539
						c0.016-0.222,0.057-0.456,0.121-0.702s0.161-0.494,0.291-0.744c0.129-0.25,0.304-0.476,0.525-0.678
						c0.223-0.201,0.498-0.365,0.829-0.49s0.733-0.188,1.21-0.188c0.613,0,1.104,0.107,1.471,0.32
						c0.367,0.214,0.648,0.482,0.847,0.805c0.197,0.323,0.331,0.676,0.399,1.059s0.11,0.74,0.127,1.071
						c0,0.048,0.002,0.099,0.006,0.151c0.004,0.052,0.006,0.103,0.006,0.151h-4.73c0,0.266,0.036,0.537,0.108,0.811
						c0.073,0.274,0.186,0.522,0.339,0.744c0.153,0.222,0.354,0.405,0.6,0.55c0.245,0.146,0.546,0.218,0.9,0.218
						c0.25,0,0.477-0.034,0.678-0.103c0.201-0.069,0.373-0.162,0.515-0.278c0.142-0.117,0.254-0.252,0.339-0.406
						c0.084-0.153,0.143-0.314,0.176-0.484H402.977z M401.912,76.017c-0.008-0.202-0.036-0.423-0.085-0.666
						c-0.048-0.242-0.135-0.466-0.26-0.671c-0.126-0.206-0.297-0.377-0.515-0.515c-0.218-0.137-0.5-0.206-0.847-0.206
						c-0.388,0-0.706,0.071-0.956,0.212s-0.445,0.316-0.587,0.526s-0.235,0.434-0.284,0.671c-0.049,0.238-0.072,0.454-0.072,0.647
						H401.912z"/>
					<path fill="#FFFFFF" d="M405.494,73.452v0.859c0.209-0.307,0.491-0.567,0.847-0.781c0.354-0.213,0.774-0.32,1.259-0.32
						c0.402,0,0.735,0.062,0.998,0.188c0.262,0.125,0.467,0.292,0.617,0.502c0.148,0.21,0.254,0.454,0.314,0.732
						c0.061,0.278,0.09,0.571,0.09,0.877v4.09h-1.064v-3.763c0-0.161-0.006-0.351-0.018-0.569c-0.012-0.218-0.057-0.423-0.133-0.617
						c-0.077-0.194-0.205-0.357-0.382-0.49s-0.432-0.2-0.763-0.2c-0.145,0-0.318,0.024-0.52,0.073
						c-0.202,0.048-0.396,0.151-0.581,0.309s-0.343,0.387-0.472,0.689c-0.129,0.303-0.193,0.708-0.193,1.216v3.352h-1.065v-6.147
						H405.494z"/>
					<path fill="#FFFFFF" d="M411.749,73.452v-1.839h1.065v1.839h1.307v0.75h-1.307v3.908c0,0.113,0.002,0.22,0.006,0.321
						c0.004,0.101,0.023,0.191,0.061,0.272c0.036,0.081,0.098,0.144,0.188,0.188c0.088,0.044,0.217,0.067,0.387,0.067
						c0.113,0,0.227-0.01,0.339-0.03s0.222-0.046,0.327-0.079v0.75c-0.17,0.073-0.352,0.131-0.545,0.175s-0.383,0.067-0.568,0.067
						c-0.314,0-0.559-0.049-0.732-0.146s-0.299-0.22-0.375-0.369c-0.076-0.149-0.121-0.312-0.133-0.49s-0.019-0.347-0.019-0.508
						v-4.126h-1.101v-0.75H411.749z"/>
					<path fill="#FFFFFF" d="M423.329,74.843v0.956h-3.981v3.799h-1.137v-8.47h5.687v0.956h-4.55v2.759H423.329z"/>
					<path fill="#FFFFFF" d="M424.902,71.128h1.064v1.113h-1.064V71.128z M425.967,73.452v6.147h-1.064v-6.147H425.967z"/>
					<path fill="#FFFFFF" d="M428.75,71.128v8.47h-1.065v-8.47H428.75z"/>
					<path fill="#FFFFFF" d="M430.879,73.452v-1.839h1.064v1.839h1.307v0.75h-1.307v3.908c0,0.113,0.002,0.22,0.006,0.321
						c0.004,0.101,0.025,0.191,0.061,0.272c0.037,0.081,0.1,0.144,0.188,0.188c0.09,0.044,0.219,0.067,0.388,0.067
						c0.112,0,0.226-0.01,0.339-0.03s0.222-0.046,0.326-0.079v0.75c-0.169,0.073-0.35,0.131-0.544,0.175
						c-0.193,0.044-0.384,0.067-0.569,0.067c-0.314,0-0.559-0.049-0.731-0.146s-0.298-0.22-0.375-0.369
						c-0.077-0.149-0.121-0.312-0.134-0.49c-0.012-0.177-0.018-0.347-0.018-0.508v-4.126h-1.102v-0.75H430.879z"/>
					<path fill="#FFFFFF" d="M439.809,77.82c-0.04,0.218-0.115,0.446-0.224,0.684c-0.108,0.238-0.267,0.456-0.472,0.654
						c-0.206,0.198-0.471,0.361-0.793,0.49s-0.722,0.194-1.197,0.194c-0.509,0-0.938-0.069-1.289-0.206
						c-0.352-0.137-0.641-0.312-0.871-0.526c-0.23-0.213-0.41-0.449-0.539-0.708s-0.223-0.508-0.283-0.75
						c-0.061-0.242-0.098-0.461-0.109-0.659s-0.018-0.345-0.018-0.442c0-0.137,0.008-0.316,0.023-0.539
						c0.016-0.222,0.057-0.456,0.121-0.702s0.161-0.494,0.291-0.744c0.129-0.25,0.304-0.476,0.525-0.678
						c0.223-0.201,0.498-0.365,0.829-0.49s0.733-0.188,1.21-0.188c0.613,0,1.104,0.107,1.471,0.32
						c0.367,0.214,0.648,0.482,0.847,0.805c0.197,0.323,0.331,0.676,0.399,1.059s0.11,0.74,0.127,1.071
						c0,0.048,0.002,0.099,0.006,0.151c0.004,0.052,0.006,0.103,0.006,0.151h-4.73c0,0.266,0.036,0.537,0.108,0.811
						c0.073,0.274,0.186,0.522,0.339,0.744c0.153,0.222,0.354,0.405,0.6,0.55c0.245,0.146,0.546,0.218,0.9,0.218
						c0.25,0,0.477-0.034,0.678-0.103c0.201-0.069,0.373-0.162,0.515-0.278c0.142-0.117,0.254-0.252,0.339-0.406
						c0.084-0.153,0.143-0.314,0.176-0.484H439.809z M438.744,76.017c-0.008-0.202-0.036-0.423-0.085-0.666
						c-0.048-0.242-0.135-0.466-0.26-0.671c-0.126-0.206-0.297-0.377-0.515-0.515c-0.218-0.137-0.5-0.206-0.847-0.206
						c-0.388,0-0.706,0.071-0.956,0.212s-0.445,0.316-0.587,0.526s-0.235,0.434-0.284,0.671c-0.049,0.238-0.072,0.454-0.072,0.647
						H438.744z"/>
					<path fill="#FFFFFF" d="M444.697,73.96c-0.363,0.016-0.684,0.065-0.963,0.146c-0.277,0.081-0.516,0.206-0.713,0.375
						c-0.198,0.169-0.355,0.387-0.473,0.653s-0.188,0.593-0.211,0.98c-0.009,0.113-0.013,0.222-0.013,0.327c0,0.105,0,0.214,0,0.327
						v2.832h-1.065v-6.147h1.065v1.186h0.024c0.072-0.226,0.18-0.425,0.32-0.599c0.141-0.173,0.303-0.318,0.484-0.436
						c0.182-0.117,0.377-0.208,0.586-0.272c0.211-0.064,0.424-0.101,0.643-0.109l0.314-0.012V73.96z"/>
				</g>
			</g>
		</g>
		<g>
			<g>
				<g>
					
						<line fill="none" stroke="#585A5E" stroke-width="1.1" stroke-miterlimit="10" x1="201.262" y1="73.312" x2="315.591" y2="73.312"/>
					<g>
						<polygon fill="#585A5E" points="314.773,76.108 319.617,73.312 314.773,70.515 						"/>
					</g>
				</g>
			</g>
		</g>
		<g>
			<g>
				<g>
					
						<line fill="none" stroke="#585A5E" stroke-width="1.1" stroke-miterlimit="10" x1="494.85" y1="73.312" x2="609.18" y2="73.312"/>
					<g>
						<polygon fill="#585A5E" points="608.36,76.108 613.205,73.312 608.36,70.515 						"/>
					</g>
				</g>
			</g>
		</g>
	</g>
	
		<rect x="123.315" y="54.737" fill-rule="evenodd" clip-rule="evenodd" fill="none" stroke="#585A5E" stroke-miterlimit="10" width="75.593" height="37.539"/>
	<g>
		<g>
			<path fill="#585A5E" d="M149.688,64.171v8.104h-1.373v-8.104H149.688z"/>
			<path fill="#585A5E" d="M151.403,72.275v-5.86h1.32v0.554c0.396-0.457,0.924-0.687,1.584-0.687c0.651,0,1.16,0.198,1.525,0.595
				c0.365,0.396,0.548,0.924,0.548,1.584v3.814h-1.32v-3.591c0-0.378-0.092-0.673-0.277-0.884c-0.185-0.211-0.462-0.317-0.832-0.317
				c-0.291,0-0.55,0.086-0.779,0.258c-0.229,0.172-0.379,0.398-0.449,0.68v3.854H151.403z"/>
			<path fill="#585A5E" d="M159.257,71.773v2.746h-1.32v-8.104h1.32v0.501c0.141-0.176,0.348-0.325,0.621-0.448
				c0.272-0.123,0.563-0.186,0.871-0.186c0.827,0,1.487,0.298,1.98,0.892s0.739,1.317,0.739,2.171s-0.247,1.578-0.739,2.172
				s-1.153,0.891-1.98,0.891c-0.308,0-0.599-0.062-0.871-0.185C159.604,72.1,159.398,71.95,159.257,71.773z M159.257,68.236v2.218
				c0.114,0.229,0.286,0.415,0.515,0.561c0.229,0.146,0.479,0.218,0.752,0.218c0.501,0,0.897-0.176,1.188-0.527
				c0.29-0.353,0.436-0.806,0.436-1.36c0-0.554-0.146-1.007-0.436-1.359c-0.291-0.352-0.687-0.528-1.188-0.528
				c-0.273,0-0.524,0.073-0.752,0.218C159.543,67.82,159.371,68.008,159.257,68.236z"/>
			<path fill="#585A5E" d="M169.566,66.415v5.86h-1.32v-0.555c-0.396,0.458-0.919,0.687-1.571,0.687s-1.157-0.198-1.518-0.594
				c-0.361-0.396-0.541-0.924-0.541-1.584v-3.814h1.32v3.59c0,0.801,0.365,1.201,1.096,1.201c0.291,0,0.548-0.086,0.772-0.257
				c0.225-0.172,0.372-0.398,0.442-0.681v-3.854H169.566z"/>
			<path fill="#585A5E" d="M171.507,70.691V67.51h-0.924v-1.095h0.924v-1.571h1.32v1.571h1.32v1.095h-1.32v3.036
				c0,0.458,0.233,0.687,0.7,0.687c0.282,0,0.532-0.079,0.752-0.237v1.201c-0.238,0.141-0.568,0.211-0.99,0.211
				c-0.545,0-0.979-0.146-1.3-0.436C171.667,71.682,171.507,71.255,171.507,70.691z"/>
		</g>
	</g>
	<g>
		<g>
			<path fill="#585A5E" d="M142.922,81.146h-0.977v3.287h-1.373v-8.104h3.128c0.854,0,1.527,0.209,2.02,0.627
				c0.493,0.418,0.739,1.019,0.739,1.802c0,0.669-0.183,1.199-0.548,1.591s-0.873,0.64-1.524,0.745l2.35,3.34h-1.558L142.922,81.146
				z M141.946,77.516v2.481h1.729c0.449,0,0.799-0.112,1.049-0.336c0.251-0.225,0.376-0.526,0.376-0.904
				c0-0.379-0.125-0.68-0.376-0.904c-0.25-0.225-0.601-0.337-1.049-0.337H141.946z"/>
			<path fill="#585A5E" d="M151.436,82.611h1.214c-0.105,0.599-0.372,1.073-0.798,1.425c-0.427,0.353-0.983,0.528-1.67,0.528
				c-0.818,0-1.485-0.281-2-0.845c-0.515-0.562-0.772-1.298-0.772-2.204c0-0.88,0.259-1.612,0.779-2.198
				c0.519-0.585,1.175-0.878,1.967-0.878c0.81,0,1.437,0.263,1.881,0.786s0.667,1.226,0.667,2.105v0.475h-4
				c0.018,0.511,0.161,0.913,0.429,1.208c0.268,0.295,0.618,0.442,1.049,0.442C150.877,83.456,151.295,83.174,151.436,82.611z
				 M150.169,79.549c-0.37,0-0.68,0.112-0.931,0.336c-0.25,0.225-0.416,0.544-0.495,0.957h2.653
				c-0.009-0.378-0.119-0.688-0.33-0.931C150.855,79.67,150.556,79.549,150.169,79.549z"/>
			<path fill="#585A5E" d="M157.72,86.677v-2.746c-0.141,0.177-0.348,0.326-0.621,0.449s-0.563,0.185-0.871,0.185
				c-0.827,0-1.487-0.297-1.98-0.891c-0.493-0.594-0.739-1.318-0.739-2.172s0.246-1.577,0.739-2.171
				c0.493-0.594,1.153-0.892,1.98-0.892c0.308,0,0.598,0.062,0.871,0.186s0.479,0.272,0.621,0.448v-0.501h1.32v8.104H157.72z
				 M157.72,82.611v-2.218c-0.115-0.229-0.286-0.416-0.515-0.562c-0.229-0.145-0.479-0.218-0.752-0.218
				c-0.502,0-0.898,0.177-1.188,0.528c-0.291,0.353-0.436,0.806-0.436,1.359c0,0.555,0.146,1.008,0.436,1.36
				c0.29,0.352,0.686,0.527,1.188,0.527c0.272,0,0.523-0.072,0.752-0.218C157.434,83.026,157.605,82.84,157.72,82.611z"/>
			<path fill="#585A5E" d="M165.547,78.572v5.86h-1.32v-0.555c-0.396,0.458-0.919,0.687-1.571,0.687s-1.157-0.198-1.518-0.594
				c-0.361-0.396-0.541-0.924-0.541-1.584v-3.814h1.32v3.59c0,0.801,0.365,1.201,1.096,1.201c0.291,0,0.548-0.086,0.772-0.257
				c0.225-0.172,0.372-0.398,0.442-0.681v-3.854H165.547z"/>
			<path fill="#585A5E" d="M170.8,82.611h1.214c-0.105,0.599-0.372,1.073-0.798,1.425c-0.427,0.353-0.983,0.528-1.67,0.528
				c-0.818,0-1.485-0.281-2-0.845c-0.515-0.562-0.772-1.298-0.772-2.204c0-0.88,0.259-1.612,0.779-2.198
				c0.519-0.585,1.175-0.878,1.967-0.878c0.81,0,1.437,0.263,1.881,0.786s0.667,1.226,0.667,2.105v0.475h-4
				c0.018,0.511,0.161,0.913,0.429,1.208c0.268,0.295,0.618,0.442,1.049,0.442C170.242,83.456,170.66,83.174,170.8,82.611z
				 M169.533,79.549c-0.37,0-0.68,0.112-0.931,0.336c-0.25,0.225-0.416,0.544-0.495,0.957h2.653
				c-0.009-0.378-0.119-0.688-0.33-0.931C170.22,79.67,169.92,79.549,169.533,79.549z"/>
			<path fill="#585A5E" d="M172.873,82.743h1.346c0.15,0.493,0.537,0.739,1.162,0.739c0.308,0,0.552-0.06,0.733-0.179
				c0.18-0.118,0.271-0.292,0.271-0.521c0-0.158-0.053-0.283-0.158-0.376c-0.106-0.092-0.282-0.169-0.528-0.23l-1.214-0.291
				c-0.968-0.229-1.452-0.766-1.452-1.61c0-0.527,0.209-0.966,0.627-1.313c0.417-0.348,0.948-0.521,1.59-0.521
				c0.669,0,1.201,0.152,1.597,0.456s0.647,0.728,0.752,1.273h-1.293c-0.132-0.431-0.488-0.646-1.069-0.646
				c-0.255,0-0.475,0.057-0.66,0.171c-0.185,0.115-0.277,0.282-0.277,0.502c0,0.256,0.202,0.436,0.607,0.541l1.241,0.291
				c1.003,0.237,1.505,0.792,1.505,1.663c0,0.572-0.213,1.027-0.64,1.366s-0.975,0.508-1.644,0.508
				c-0.686,0-1.252-0.162-1.696-0.488C173.227,83.751,172.96,83.307,172.873,82.743z"/>
			<path fill="#585A5E" d="M179.248,82.849v-3.182h-0.924v-1.095h0.924v-1.571h1.32v1.571h1.32v1.095h-1.32v3.036
				c0,0.458,0.233,0.687,0.7,0.687c0.282,0,0.532-0.079,0.752-0.237v1.201c-0.238,0.141-0.568,0.211-0.99,0.211
				c-0.545,0-0.979-0.146-1.3-0.436C179.408,83.839,179.248,83.412,179.248,82.849z"/>
		</g>
	</g>
	
		<rect x="514.745" y="81.737" fill-rule="evenodd" clip-rule="evenodd" fill="none" stroke="#585A5E" stroke-miterlimit="10" width="75.593" height="37.539"/>
	<g>
		<g>
			<path fill="#585A5E" d="M540.92,92.22c0.703,0.788,1.055,1.789,1.055,3.003c0,1.215-0.352,2.216-1.055,3.003
				c-0.705,0.788-1.603,1.182-2.693,1.182c-1.092,0-1.986-0.394-2.687-1.182c-0.699-0.787-1.05-1.788-1.05-3.003
				c0-1.214,0.351-2.215,1.05-3.003c0.7-0.787,1.595-1.181,2.687-1.181C539.317,91.039,540.215,91.433,540.92,92.22z
				 M539.936,97.349c0.436-0.555,0.654-1.263,0.654-2.126c0-0.862-0.219-1.57-0.654-2.125s-1.006-0.831-1.709-0.831
				c-0.704,0-1.271,0.274-1.703,0.824c-0.432,0.551-0.646,1.261-0.646,2.132s0.215,1.582,0.646,2.132
				c0.432,0.551,0.999,0.825,1.703,0.825C538.93,98.18,539.5,97.902,539.936,97.349z"/>
			<path fill="#585A5E" d="M548.126,93.415v5.86h-1.319v-0.555c-0.396,0.458-0.92,0.687-1.571,0.687s-1.157-0.198-1.519-0.594
				c-0.36-0.396-0.541-0.924-0.541-1.584v-3.814h1.32v3.59c0,0.801,0.365,1.201,1.096,1.201c0.291,0,0.548-0.086,0.771-0.257
				c0.225-0.172,0.373-0.398,0.443-0.681v-3.854H548.126z"/>
			<path fill="#585A5E" d="M550.066,97.691V94.51h-0.924v-1.095h0.924v-1.571h1.32v1.571h1.32v1.095h-1.32v3.036
				c0,0.458,0.233,0.687,0.699,0.687c0.282,0,0.533-0.079,0.753-0.237v1.201c-0.237,0.141-0.567,0.211-0.99,0.211
				c-0.546,0-0.979-0.146-1.3-0.436C550.227,98.682,550.066,98.255,550.066,97.691z"/>
			<path fill="#585A5E" d="M555.505,98.773v2.746h-1.319v-8.104h1.319v0.501c0.142-0.176,0.348-0.325,0.62-0.448
				c0.273-0.123,0.563-0.186,0.871-0.186c0.828,0,1.488,0.298,1.98,0.892s0.739,1.317,0.739,2.171s-0.247,1.578-0.739,2.172
				s-1.152,0.891-1.98,0.891c-0.308,0-0.598-0.062-0.871-0.185C555.853,99.1,555.646,98.95,555.505,98.773z M555.505,95.236v2.218
				c0.114,0.229,0.286,0.415,0.515,0.561s0.48,0.218,0.753,0.218c0.501,0,0.897-0.176,1.188-0.527
				c0.289-0.353,0.436-0.806,0.436-1.36c0-0.554-0.146-1.007-0.436-1.359c-0.291-0.352-0.688-0.528-1.188-0.528
				c-0.272,0-0.524,0.073-0.753,0.218C555.791,94.82,555.619,95.008,555.505,95.236z"/>
			<path fill="#585A5E" d="M565.814,93.415v5.86h-1.32v-0.555c-0.396,0.458-0.92,0.687-1.57,0.687c-0.652,0-1.158-0.198-1.519-0.594
				c-0.36-0.396-0.541-0.924-0.541-1.584v-3.814h1.319v3.59c0,0.801,0.365,1.201,1.096,1.201c0.291,0,0.549-0.086,0.772-0.257
				c0.225-0.172,0.372-0.398,0.442-0.681v-3.854H565.814z"/>
			<path fill="#585A5E" d="M567.754,97.691V94.51h-0.924v-1.095h0.924v-1.571h1.32v1.571h1.32v1.095h-1.32v3.036
				c0,0.458,0.233,0.687,0.699,0.687c0.282,0,0.533-0.079,0.753-0.237v1.201c-0.237,0.141-0.567,0.211-0.99,0.211
				c-0.546,0-0.979-0.146-1.3-0.436C567.914,98.682,567.754,98.255,567.754,97.691z"/>
		</g>
	</g>
	<g>
		<g>
			<path fill="#585A5E" d="M534.352,108.146h-0.977v3.287h-1.373v-8.104h3.129c0.854,0,1.527,0.209,2.02,0.627
				c0.493,0.418,0.739,1.019,0.739,1.802c0,0.669-0.183,1.199-0.548,1.591s-0.873,0.64-1.524,0.745l2.35,3.34h-1.558
				L534.352,108.146z M533.375,104.516v2.481h1.729c0.448,0,0.799-0.112,1.05-0.336c0.25-0.225,0.376-0.526,0.376-0.904
				c0-0.379-0.126-0.68-0.376-0.904c-0.251-0.225-0.602-0.337-1.05-0.337H533.375z"/>
			<path fill="#585A5E" d="M542.865,109.611h1.215c-0.105,0.599-0.371,1.073-0.799,1.425c-0.427,0.353-0.982,0.528-1.67,0.528
				c-0.818,0-1.484-0.281-1.999-0.845c-0.515-0.562-0.772-1.298-0.772-2.204c0-0.88,0.26-1.612,0.779-2.198
				c0.519-0.585,1.174-0.878,1.967-0.878c0.809,0,1.436,0.263,1.881,0.786c0.443,0.523,0.666,1.226,0.666,2.105v0.475h-4
				c0.018,0.511,0.161,0.913,0.43,1.208c0.268,0.295,0.618,0.442,1.049,0.442C542.307,110.456,542.725,110.174,542.865,109.611z
				 M541.599,106.549c-0.37,0-0.68,0.112-0.931,0.336c-0.25,0.225-0.416,0.544-0.495,0.957h2.653
				c-0.009-0.378-0.119-0.688-0.33-0.931C542.285,106.67,541.986,106.549,541.599,106.549z"/>
			<path fill="#585A5E" d="M549.149,113.677v-2.746c-0.142,0.177-0.348,0.326-0.62,0.449c-0.273,0.123-0.563,0.185-0.871,0.185
				c-0.828,0-1.488-0.297-1.98-0.891c-0.493-0.594-0.739-1.318-0.739-2.172s0.246-1.577,0.739-2.171
				c0.492-0.594,1.152-0.892,1.98-0.892c0.308,0,0.598,0.062,0.871,0.186c0.272,0.123,0.479,0.272,0.62,0.448v-0.501h1.319v8.104
				H549.149z M549.149,109.611v-2.218c-0.114-0.229-0.286-0.416-0.515-0.562c-0.229-0.145-0.48-0.218-0.752-0.218
				c-0.502,0-0.898,0.177-1.188,0.528c-0.29,0.353-0.437,0.806-0.437,1.359c0,0.555,0.146,1.008,0.437,1.36
				c0.29,0.352,0.687,0.527,1.188,0.527c0.271,0,0.523-0.072,0.752-0.218S549.035,109.84,549.149,109.611z"/>
			<path fill="#585A5E" d="M556.977,105.572v5.86h-1.32v-0.555c-0.396,0.458-0.919,0.687-1.57,0.687s-1.157-0.198-1.518-0.594
				c-0.361-0.396-0.541-0.924-0.541-1.584v-3.814h1.319v3.59c0,0.801,0.365,1.201,1.096,1.201c0.29,0,0.548-0.086,0.772-0.257
				c0.225-0.172,0.371-0.398,0.441-0.681v-3.854H556.977z"/>
			<path fill="#585A5E" d="M562.23,109.611h1.214c-0.105,0.599-0.372,1.073-0.798,1.425c-0.428,0.353-0.984,0.528-1.67,0.528
				c-0.818,0-1.485-0.281-2-0.845c-0.516-0.562-0.772-1.298-0.772-2.204c0-0.88,0.259-1.612,0.778-2.198
				c0.52-0.585,1.176-0.878,1.967-0.878c0.811,0,1.438,0.263,1.881,0.786c0.445,0.523,0.668,1.226,0.668,2.105v0.475h-4
				c0.018,0.511,0.16,0.913,0.429,1.208s0.618,0.442,1.05,0.442C561.672,110.456,562.09,110.174,562.23,109.611z M560.963,106.549
				c-0.369,0-0.68,0.112-0.931,0.336c-0.251,0.225-0.415,0.544-0.495,0.957h2.653c-0.009-0.378-0.118-0.688-0.33-0.931
				C561.649,106.67,561.35,106.549,560.963,106.549z"/>
			<path fill="#585A5E" d="M564.303,109.743h1.346c0.15,0.493,0.537,0.739,1.162,0.739c0.308,0,0.552-0.06,0.732-0.179
				c0.18-0.118,0.271-0.292,0.271-0.521c0-0.158-0.053-0.283-0.158-0.376c-0.106-0.092-0.282-0.169-0.528-0.23l-1.215-0.291
				c-0.968-0.229-1.451-0.766-1.451-1.61c0-0.527,0.209-0.966,0.627-1.313s0.947-0.521,1.59-0.521c0.67,0,1.201,0.152,1.598,0.456
				s0.646,0.728,0.752,1.273h-1.293c-0.133-0.431-0.488-0.646-1.069-0.646c-0.255,0-0.476,0.057-0.66,0.171
				c-0.185,0.115-0.276,0.282-0.276,0.502c0,0.256,0.201,0.436,0.606,0.541l1.241,0.291c1.003,0.237,1.504,0.792,1.504,1.663
				c0,0.572-0.213,1.027-0.64,1.366s-0.975,0.508-1.644,0.508c-0.686,0-1.252-0.162-1.695-0.488
				C564.656,110.751,564.391,110.307,564.303,109.743z"/>
			<path fill="#585A5E" d="M570.678,109.849v-3.182h-0.924v-1.095h0.924v-1.571h1.32v1.571h1.32v1.095h-1.32v3.036
				c0,0.458,0.232,0.687,0.699,0.687c0.281,0,0.532-0.079,0.752-0.237v1.201c-0.237,0.141-0.567,0.211-0.99,0.211
				c-0.545,0-0.979-0.146-1.299-0.436C570.838,110.839,570.678,110.412,570.678,109.849z"/>
		</g>
	</g>
	<g>
		<g>
			<g>
				<path fill="none" d="M553.769,144.536"/>
			</g>
			<g>
				<path fill="none" d="M553.769,119.275"/>
			</g>
		</g>
		<g>
			<g>
				<g>
					<polyline fill="none" stroke="#585A5E" stroke-width="0.5" stroke-miterlimit="10" points="528.508,119.276 528.508,153.302 
						551.938,153.302 					"/>
					<g>
						<polygon fill="#585A5E" points="551.566,154.573 553.769,153.302 551.566,152.03 						"/>
					</g>
				</g>
			</g>
		</g>
		
			<rect x="553.769" y="139.531" fill-rule="evenodd" clip-rule="evenodd" fill="none" stroke="#585A5E" stroke-width="0.4283" stroke-miterlimit="10" width="75.593" height="27.539"/>
		<g>
			<g>
				<path fill="#585A5E" d="M567.092,156.509h0.959c0.281,0.816,0.904,1.224,1.873,1.224c0.487,0,0.882-0.113,1.182-0.342
					c0.3-0.228,0.45-0.542,0.45-0.942c0-0.295-0.093-0.537-0.276-0.726c-0.184-0.188-0.484-0.334-0.9-0.438l-1.319-0.349
					c-1.177-0.304-1.765-0.936-1.765-1.896c0-0.616,0.229-1.118,0.685-1.506c0.456-0.389,1.036-0.582,1.739-0.582
					c0.744,0,1.345,0.174,1.801,0.521s0.756,0.822,0.9,1.422h-0.949c-0.264-0.76-0.848-1.14-1.752-1.14
					c-0.447,0-0.813,0.11-1.098,0.33c-0.283,0.22-0.426,0.514-0.426,0.882c0,0.304,0.096,0.542,0.288,0.714s0.487,0.311,0.888,0.414
					l1.26,0.324c1.225,0.312,1.836,0.972,1.836,1.979c0,0.656-0.237,1.177-0.713,1.561c-0.477,0.384-1.086,0.576-1.83,0.576
					s-1.368-0.179-1.873-0.534C567.547,157.646,567.228,157.148,567.092,156.509z"/>
				<path fill="#585A5E" d="M573.955,157.085v-3.216h-0.863v-0.769h0.863v-1.404h0.9v1.404h1.284v0.769h-1.284v3.119
					c0,0.496,0.236,0.744,0.708,0.744c0.248,0,0.479-0.071,0.696-0.216v0.84c-0.225,0.12-0.504,0.181-0.84,0.181
					c-0.449,0-0.805-0.122-1.068-0.366S573.955,157.564,573.955,157.085z"/>
				<path fill="#585A5E" d="M581.73,153.101v5.328h-0.911v-0.672c-0.16,0.224-0.376,0.41-0.647,0.558
					c-0.273,0.148-0.572,0.223-0.9,0.223c-0.592,0-1.051-0.177-1.375-0.528c-0.323-0.352-0.485-0.824-0.485-1.416v-3.492h0.912
					v3.348c0,0.393,0.097,0.7,0.288,0.925c0.191,0.224,0.484,0.336,0.876,0.336c0.304,0,0.577-0.092,0.821-0.276
					c0.244-0.184,0.414-0.424,0.511-0.72v-3.612H581.73z"/>
				<path fill="#585A5E" d="M586.843,158.429v-0.624c-0.144,0.208-0.353,0.382-0.624,0.522c-0.271,0.14-0.564,0.21-0.876,0.21
					c-0.752,0-1.34-0.265-1.764-0.792c-0.425-0.528-0.636-1.188-0.636-1.98c0-0.784,0.211-1.441,0.636-1.974
					c0.424-0.532,1.012-0.798,1.764-0.798c0.312,0,0.604,0.069,0.876,0.21c0.271,0.14,0.48,0.313,0.624,0.521v-3.096h0.912v7.8
					H586.843z M586.843,156.845v-2.16c-0.136-0.271-0.325-0.486-0.569-0.642c-0.244-0.156-0.51-0.234-0.799-0.234
					c-0.496,0-0.89,0.183-1.182,0.546c-0.292,0.364-0.438,0.834-0.438,1.41s0.146,1.046,0.438,1.41s0.686,0.546,1.182,0.546
					c0.289,0,0.555-0.078,0.799-0.234C586.518,157.331,586.707,157.117,586.843,156.845z"/>
				<path fill="#585A5E" d="M592.711,156.833h0.852c-0.096,0.52-0.332,0.934-0.707,1.242c-0.377,0.308-0.857,0.462-1.44,0.462
					c-0.728,0-1.318-0.254-1.771-0.763c-0.451-0.508-0.678-1.174-0.678-1.998c0-0.808,0.225-1.474,0.672-1.998
					c0.448-0.523,1.032-0.785,1.752-0.785c0.713,0,1.264,0.237,1.656,0.714c0.393,0.476,0.588,1.109,0.588,1.901v0.324h-3.768
					c0.008,0.561,0.154,1.006,0.438,1.338c0.284,0.332,0.654,0.498,1.11,0.498c0.336,0,0.618-0.082,0.846-0.246
					S592.639,157.129,592.711,156.833z M591.402,153.761c-0.399,0-0.735,0.132-1.008,0.396c-0.271,0.265-0.439,0.629-0.504,1.093
					h2.832c-0.008-0.424-0.124-0.778-0.348-1.062C592.15,153.903,591.826,153.761,591.402,153.761z"/>
				<path fill="#585A5E" d="M594.835,158.429v-5.328h0.899v0.672c0.168-0.224,0.391-0.409,0.666-0.558
					c0.276-0.148,0.578-0.222,0.906-0.222c0.592,0,1.052,0.176,1.38,0.527c0.328,0.353,0.492,0.824,0.492,1.416v3.492h-0.912v-3.348
					c0-0.385-0.099-0.69-0.294-0.918c-0.195-0.229-0.49-0.343-0.882-0.343c-0.312,0-0.593,0.095-0.84,0.282
					c-0.248,0.188-0.421,0.426-0.517,0.714v3.612H594.835z"/>
				<path fill="#585A5E" d="M600.955,157.085v-3.216h-0.864v-0.769h0.864v-1.404h0.9v1.404h1.283v0.769h-1.283v3.119
					c0,0.496,0.235,0.744,0.707,0.744c0.248,0,0.48-0.071,0.696-0.216v0.84c-0.224,0.12-0.504,0.181-0.84,0.181
					c-0.448,0-0.804-0.122-1.067-0.366C601.087,157.927,600.955,157.564,600.955,157.085z"/>
				<path fill="#585A5E" d="M608.179,151.061v7.368h-0.948v-7.368H608.179z"/>
				<path fill="#585A5E" d="M609.931,158.429v-7.368h2.364c1.08,0,1.945,0.334,2.598,1.002s0.979,1.562,0.979,2.683
					s-0.326,2.014-0.979,2.682s-1.518,1.002-2.598,1.002H609.931z M610.879,157.577h1.404c0.832,0,1.481-0.254,1.949-0.763
					c0.469-0.508,0.702-1.197,0.702-2.069s-0.235-1.564-0.708-2.076s-1.12-0.769-1.943-0.769h-1.404V157.577z"/>
			</g>
		</g>
	</g>
	<g>
		<g>
			<g>
				<path fill="none" d="M187.599,117.536"/>
			</g>
			<g>
				<path fill="none" d="M187.599,92.275"/>
			</g>
		</g>
		<g>
			<g>
				<g>
					<polyline fill="none" stroke="#585A5E" stroke-width="0.5" stroke-miterlimit="10" points="162.338,92.276 162.338,222.302 
						185.769,222.302 					"/>
					<g>
						<polygon fill="#585A5E" points="185.396,223.573 187.599,222.302 185.396,221.03 						"/>
					</g>
				</g>
			</g>
		</g>
		
			<rect x="187.599" y="112.531" fill-rule="evenodd" clip-rule="evenodd" fill="none" stroke="#585A5E" stroke-width="0.4283" stroke-miterlimit="10" width="75.593" height="27.539"/>
		<g>
			<g>
				<path fill="#585A5E" d="M200.921,129.509h0.96c0.28,0.816,0.904,1.224,1.872,1.224c0.488,0,0.882-0.113,1.182-0.342
					c0.3-0.228,0.45-0.542,0.45-0.942c0-0.295-0.092-0.537-0.276-0.726c-0.184-0.188-0.484-0.334-0.9-0.438l-1.32-0.349
					c-1.176-0.304-1.764-0.936-1.764-1.896c0-0.616,0.228-1.118,0.684-1.506c0.456-0.389,1.036-0.582,1.74-0.582
					c0.744,0,1.344,0.174,1.8,0.521s0.756,0.822,0.9,1.422h-0.948c-0.264-0.76-0.848-1.14-1.752-1.14
					c-0.448,0-0.814,0.11-1.098,0.33c-0.284,0.22-0.426,0.514-0.426,0.882c0,0.304,0.096,0.542,0.288,0.714s0.488,0.311,0.888,0.414
					l1.26,0.324c1.224,0.312,1.836,0.972,1.836,1.979c0,0.656-0.238,1.177-0.714,1.561s-1.086,0.576-1.83,0.576
					s-1.368-0.179-1.872-0.534C201.377,130.646,201.058,130.148,200.921,129.509z"/>
				<path fill="#585A5E" d="M207.786,130.085v-3.216h-0.864v-0.769h0.864v-1.404h0.9v1.404h1.284v0.769h-1.284v3.119
					c0,0.496,0.236,0.744,0.708,0.744c0.248,0,0.48-0.071,0.696-0.216v0.84c-0.224,0.12-0.504,0.181-0.84,0.181
					c-0.448,0-0.804-0.122-1.068-0.366C207.917,130.927,207.786,130.564,207.786,130.085z"/>
				<path fill="#585A5E" d="M215.561,126.101v5.328h-0.912v-0.672c-0.16,0.224-0.376,0.41-0.648,0.558
					c-0.272,0.148-0.572,0.223-0.9,0.223c-0.592,0-1.05-0.177-1.374-0.528c-0.324-0.352-0.486-0.824-0.486-1.416v-3.492h0.912v3.348
					c0,0.393,0.096,0.7,0.288,0.925c0.192,0.224,0.484,0.336,0.876,0.336c0.304,0,0.578-0.092,0.822-0.276
					c0.244-0.184,0.414-0.424,0.51-0.72v-3.612H215.561z"/>
				<path fill="#585A5E" d="M220.673,131.429v-0.624c-0.144,0.208-0.352,0.382-0.624,0.522c-0.272,0.14-0.564,0.21-0.876,0.21
					c-0.752,0-1.34-0.265-1.764-0.792c-0.424-0.528-0.636-1.188-0.636-1.98c0-0.784,0.212-1.441,0.636-1.974
					c0.424-0.532,1.012-0.798,1.764-0.798c0.312,0,0.604,0.069,0.876,0.21c0.272,0.14,0.48,0.313,0.624,0.521v-3.096h0.912v7.8
					H220.673z M220.673,129.845v-2.16c-0.136-0.271-0.326-0.486-0.57-0.642c-0.244-0.156-0.51-0.234-0.798-0.234
					c-0.496,0-0.89,0.183-1.182,0.546c-0.292,0.364-0.438,0.834-0.438,1.41s0.146,1.046,0.438,1.41s0.686,0.546,1.182,0.546
					c0.288,0,0.554-0.078,0.798-0.234C220.347,130.331,220.537,130.117,220.673,129.845z"/>
				<path fill="#585A5E" d="M226.541,129.833h0.852c-0.096,0.52-0.332,0.934-0.708,1.242c-0.376,0.308-0.856,0.462-1.44,0.462
					c-0.728,0-1.318-0.254-1.77-0.763c-0.452-0.508-0.678-1.174-0.678-1.998c0-0.808,0.224-1.474,0.672-1.998
					c0.448-0.523,1.032-0.785,1.752-0.785c0.712,0,1.264,0.237,1.656,0.714c0.392,0.476,0.588,1.109,0.588,1.901v0.324h-3.768
					c0.008,0.561,0.154,1.006,0.438,1.338c0.284,0.332,0.654,0.498,1.11,0.498c0.336,0,0.618-0.082,0.846-0.246
					S226.469,130.129,226.541,129.833z M225.233,126.761c-0.4,0-0.736,0.132-1.008,0.396c-0.272,0.265-0.44,0.629-0.504,1.093h2.832
					c-0.008-0.424-0.124-0.778-0.348-1.062C225.981,126.903,225.657,126.761,225.233,126.761z"/>
				<path fill="#585A5E" d="M228.665,131.429v-5.328h0.9v0.672c0.168-0.224,0.39-0.409,0.666-0.558s0.578-0.222,0.906-0.222
					c0.592,0,1.052,0.176,1.38,0.527c0.328,0.353,0.492,0.824,0.492,1.416v3.492h-0.912v-3.348c0-0.385-0.098-0.69-0.294-0.918
					c-0.196-0.229-0.49-0.343-0.882-0.343c-0.312,0-0.592,0.095-0.84,0.282c-0.248,0.188-0.42,0.426-0.516,0.714v3.612H228.665z"/>
				<path fill="#585A5E" d="M234.785,130.085v-3.216h-0.864v-0.769h0.864v-1.404h0.9v1.404h1.284v0.769h-1.284v3.119
					c0,0.496,0.236,0.744,0.708,0.744c0.248,0,0.48-0.071,0.696-0.216v0.84c-0.224,0.12-0.504,0.181-0.84,0.181
					c-0.448,0-0.804-0.122-1.068-0.366C234.917,130.927,234.785,130.564,234.785,130.085z"/>
				<path fill="#585A5E" d="M242.009,124.061v7.368h-0.948v-7.368H242.009z"/>
				<path fill="#585A5E" d="M243.761,131.429v-7.368h2.364c1.08,0,1.946,0.334,2.598,1.002s0.978,1.562,0.978,2.683
					s-0.326,2.014-0.978,2.682s-1.518,1.002-2.598,1.002H243.761z M244.709,130.577h1.404c0.832,0,1.482-0.254,1.95-0.763
					c0.468-0.508,0.702-1.197,0.702-2.069s-0.236-1.564-0.708-2.076s-1.12-0.769-1.944-0.769h-1.404V130.577z"/>
			</g>
		</g>
		
			<rect x="187.599" y="144.531" fill-rule="evenodd" clip-rule="evenodd" fill="none" stroke="#585A5E" stroke-width="0.4283" stroke-miterlimit="10" width="75.593" height="27.539"/>
		<g>
			<g>
				<path fill="#585A5E" d="M192.419,161.509h0.96c0.28,0.816,0.904,1.224,1.872,1.224c0.488,0,0.882-0.113,1.182-0.342
					c0.3-0.228,0.45-0.542,0.45-0.942c0-0.295-0.092-0.537-0.276-0.726c-0.184-0.188-0.484-0.334-0.9-0.438l-1.32-0.349
					c-1.176-0.304-1.764-0.936-1.764-1.896c0-0.616,0.228-1.118,0.684-1.506c0.456-0.389,1.036-0.582,1.74-0.582
					c0.744,0,1.344,0.174,1.8,0.521s0.756,0.822,0.9,1.422h-0.948c-0.264-0.76-0.848-1.14-1.752-1.14
					c-0.448,0-0.814,0.11-1.098,0.33c-0.284,0.22-0.426,0.514-0.426,0.882c0,0.304,0.096,0.542,0.288,0.714s0.488,0.311,0.888,0.414
					l1.26,0.324c1.224,0.312,1.836,0.972,1.836,1.979c0,0.656-0.238,1.177-0.714,1.561s-1.086,0.576-1.83,0.576
					s-1.368-0.179-1.872-0.534C192.875,162.646,192.556,162.148,192.419,161.509z"/>
				<path fill="#585A5E" d="M199.284,162.085v-3.216h-0.864v-0.769h0.864v-1.404h0.9v1.404h1.284v0.769h-1.284v3.119
					c0,0.496,0.236,0.744,0.708,0.744c0.248,0,0.48-0.071,0.696-0.216v0.84c-0.224,0.12-0.504,0.181-0.84,0.181
					c-0.448,0-0.804-0.122-1.068-0.366C199.416,162.927,199.284,162.564,199.284,162.085z"/>
				<path fill="#585A5E" d="M207.059,158.101v5.328h-0.912v-0.672c-0.16,0.224-0.376,0.41-0.648,0.558
					c-0.272,0.148-0.572,0.223-0.9,0.223c-0.592,0-1.05-0.177-1.374-0.528c-0.324-0.352-0.486-0.824-0.486-1.416v-3.492h0.912v3.348
					c0,0.393,0.096,0.7,0.288,0.925c0.192,0.224,0.484,0.336,0.876,0.336c0.304,0,0.578-0.092,0.822-0.276
					c0.244-0.184,0.414-0.424,0.51-0.72v-3.612H207.059z"/>
				<path fill="#585A5E" d="M212.171,163.429v-0.624c-0.144,0.208-0.352,0.382-0.624,0.522c-0.272,0.14-0.564,0.21-0.876,0.21
					c-0.752,0-1.34-0.265-1.764-0.792c-0.424-0.528-0.636-1.188-0.636-1.98c0-0.784,0.212-1.441,0.636-1.974
					c0.424-0.532,1.012-0.798,1.764-0.798c0.312,0,0.604,0.069,0.876,0.21c0.272,0.14,0.48,0.313,0.624,0.521v-3.096h0.912v7.8
					H212.171z M212.171,161.845v-2.16c-0.136-0.271-0.326-0.486-0.57-0.642c-0.244-0.156-0.51-0.234-0.798-0.234
					c-0.496,0-0.89,0.183-1.182,0.546c-0.292,0.364-0.438,0.834-0.438,1.41s0.146,1.046,0.438,1.41s0.686,0.546,1.182,0.546
					c0.288,0,0.554-0.078,0.798-0.234C211.845,162.331,212.035,162.117,212.171,161.845z"/>
				<path fill="#585A5E" d="M218.039,161.833h0.852c-0.096,0.52-0.332,0.934-0.708,1.242c-0.376,0.308-0.856,0.462-1.44,0.462
					c-0.728,0-1.318-0.254-1.77-0.763c-0.452-0.508-0.678-1.174-0.678-1.998c0-0.808,0.224-1.474,0.672-1.998
					c0.448-0.523,1.032-0.785,1.752-0.785c0.712,0,1.264,0.237,1.656,0.714c0.392,0.476,0.588,1.109,0.588,1.901v0.324h-3.768
					c0.008,0.561,0.154,1.006,0.438,1.338c0.284,0.332,0.654,0.498,1.11,0.498c0.336,0,0.618-0.082,0.846-0.246
					S217.967,162.129,218.039,161.833z M216.731,158.761c-0.4,0-0.736,0.132-1.008,0.396c-0.272,0.265-0.44,0.629-0.504,1.093h2.832
					c-0.008-0.424-0.124-0.778-0.348-1.062C217.479,158.903,217.155,158.761,216.731,158.761z"/>
				<path fill="#585A5E" d="M220.163,163.429v-5.328h0.9v0.672c0.168-0.224,0.39-0.409,0.666-0.558s0.578-0.222,0.906-0.222
					c0.592,0,1.052,0.176,1.38,0.527c0.328,0.353,0.492,0.824,0.492,1.416v3.492h-0.912v-3.348c0-0.385-0.098-0.69-0.294-0.918
					c-0.196-0.229-0.49-0.343-0.882-0.343c-0.312,0-0.592,0.095-0.84,0.282c-0.248,0.188-0.42,0.426-0.516,0.714v3.612H220.163z"/>
				<path fill="#585A5E" d="M226.283,162.085v-3.216h-0.864v-0.769h0.864v-1.404h0.9v1.404h1.284v0.769h-1.284v3.119
					c0,0.496,0.236,0.744,0.708,0.744c0.248,0,0.48-0.071,0.696-0.216v0.84c-0.224,0.12-0.504,0.181-0.84,0.181
					c-0.448,0-0.804-0.122-1.068-0.366C226.415,162.927,226.283,162.564,226.283,162.085z"/>
				<path fill="#585A5E" d="M238.283,156.061v7.368h-0.696l-4.116-5.856v5.856h-0.912v-7.368h0.9l3.924,5.604v-5.604H238.283z"/>
				<path fill="#585A5E" d="M243.827,163.429h-0.864v-0.396c-0.112,0.12-0.3,0.232-0.564,0.337c-0.264,0.104-0.544,0.155-0.84,0.155
					c-0.56,0-1.03-0.155-1.41-0.468c-0.38-0.312-0.57-0.724-0.57-1.236c0-0.487,0.196-0.888,0.588-1.199
					c0.392-0.312,0.876-0.469,1.452-0.469c0.264,0,0.524,0.044,0.78,0.133c0.256,0.088,0.444,0.188,0.564,0.3v-0.672
					c0-0.345-0.102-0.62-0.306-0.828s-0.494-0.312-0.87-0.312c-0.56,0-0.924,0.244-1.092,0.732h-0.888
					c0.088-0.448,0.314-0.812,0.678-1.092c0.364-0.28,0.802-0.42,1.314-0.42c0.632,0,1.128,0.168,1.488,0.504s0.54,0.796,0.54,1.38
					V163.429z M242.963,162.108v-0.552c-0.08-0.192-0.238-0.35-0.474-0.474c-0.236-0.124-0.494-0.187-0.774-0.187
					c-0.352,0-0.652,0.08-0.9,0.24s-0.372,0.388-0.372,0.684c0,0.305,0.124,0.538,0.372,0.702s0.548,0.246,0.9,0.246
					c0.28,0,0.538-0.062,0.774-0.186C242.725,162.459,242.883,162.301,242.963,162.108z"/>
				<path fill="#585A5E" d="M249.143,158.845c0.4-0.568,0.94-0.852,1.62-0.852c0.536,0,0.95,0.172,1.242,0.516
					s0.438,0.808,0.438,1.392v3.528h-0.912v-3.384c0-0.384-0.084-0.687-0.252-0.906c-0.168-0.22-0.42-0.33-0.756-0.33
					c-0.272,0-0.516,0.086-0.732,0.258c-0.216,0.173-0.364,0.402-0.444,0.69v3.672h-0.9v-3.384c0-0.384-0.084-0.687-0.252-0.906
					c-0.168-0.22-0.42-0.33-0.756-0.33c-0.272,0-0.516,0.086-0.732,0.258c-0.216,0.173-0.364,0.402-0.444,0.69v3.672h-0.9v-5.328
					h0.9v0.624c0.304-0.487,0.784-0.731,1.44-0.731C248.375,157.993,248.854,158.276,249.143,158.845z"/>
				<path fill="#585A5E" d="M257.327,161.833h0.852c-0.096,0.52-0.332,0.934-0.708,1.242c-0.376,0.308-0.856,0.462-1.44,0.462
					c-0.728,0-1.318-0.254-1.77-0.763c-0.452-0.508-0.678-1.174-0.678-1.998c0-0.808,0.224-1.474,0.672-1.998
					c0.448-0.523,1.032-0.785,1.752-0.785c0.712,0,1.264,0.237,1.656,0.714c0.392,0.476,0.588,1.109,0.588,1.901v0.324h-3.768
					c0.008,0.561,0.154,1.006,0.438,1.338c0.284,0.332,0.654,0.498,1.11,0.498c0.336,0,0.618-0.082,0.846-0.246
					S257.254,162.129,257.327,161.833z M256.019,158.761c-0.4,0-0.736,0.132-1.008,0.396c-0.272,0.265-0.44,0.629-0.504,1.093h2.832
					c-0.008-0.424-0.124-0.778-0.348-1.062C256.767,158.903,256.442,158.761,256.019,158.761z"/>
			</g>
		</g>
		
			<rect x="187.599" y="176.531" fill-rule="evenodd" clip-rule="evenodd" fill="none" stroke="#585A5E" stroke-width="0.4283" stroke-miterlimit="10" width="75.593" height="27.539"/>
		<g>
			<g>
				<path fill="#585A5E" d="M193.235,193.509h0.96c0.28,0.816,0.904,1.224,1.872,1.224c0.488,0,0.882-0.113,1.182-0.342
					c0.3-0.228,0.45-0.542,0.45-0.942c0-0.295-0.092-0.537-0.276-0.726c-0.184-0.188-0.484-0.334-0.9-0.438l-1.32-0.349
					c-1.176-0.304-1.764-0.936-1.764-1.896c0-0.616,0.228-1.118,0.684-1.506c0.456-0.389,1.036-0.582,1.74-0.582
					c0.744,0,1.344,0.174,1.8,0.521s0.756,0.822,0.9,1.422h-0.948c-0.264-0.76-0.848-1.14-1.752-1.14
					c-0.448,0-0.814,0.11-1.098,0.33c-0.284,0.22-0.426,0.514-0.426,0.882c0,0.304,0.096,0.542,0.288,0.714s0.488,0.311,0.888,0.414
					l1.26,0.324c1.224,0.312,1.836,0.972,1.836,1.979c0,0.656-0.238,1.177-0.714,1.561s-1.086,0.576-1.83,0.576
					s-1.368-0.179-1.872-0.534C193.691,194.646,193.372,194.148,193.235,193.509z"/>
				<path fill="#585A5E" d="M200.1,194.085v-3.216h-0.864v-0.769h0.864v-1.404h0.9v1.404h1.284v0.769H201v3.119
					c0,0.496,0.236,0.744,0.708,0.744c0.248,0,0.48-0.071,0.696-0.216v0.84c-0.224,0.12-0.504,0.181-0.84,0.181
					c-0.448,0-0.804-0.122-1.068-0.366C200.231,194.927,200.1,194.564,200.1,194.085z"/>
				<path fill="#585A5E" d="M207.875,190.101v5.328h-0.912v-0.672c-0.16,0.224-0.376,0.41-0.648,0.558
					c-0.272,0.148-0.572,0.223-0.9,0.223c-0.592,0-1.05-0.177-1.374-0.528c-0.324-0.352-0.486-0.824-0.486-1.416v-3.492h0.912v3.348
					c0,0.393,0.096,0.7,0.288,0.925c0.192,0.224,0.484,0.336,0.876,0.336c0.304,0,0.578-0.092,0.822-0.276
					c0.244-0.184,0.414-0.424,0.51-0.72v-3.612H207.875z"/>
				<path fill="#585A5E" d="M212.987,195.429v-0.624c-0.144,0.208-0.352,0.382-0.624,0.522c-0.272,0.14-0.564,0.21-0.876,0.21
					c-0.752,0-1.34-0.265-1.764-0.792c-0.424-0.528-0.636-1.188-0.636-1.98c0-0.784,0.212-1.441,0.636-1.974
					c0.424-0.532,1.012-0.798,1.764-0.798c0.312,0,0.604,0.069,0.876,0.21c0.272,0.14,0.48,0.313,0.624,0.521v-3.096h0.912v7.8
					H212.987z M212.987,193.845v-2.16c-0.136-0.271-0.326-0.486-0.57-0.642c-0.244-0.156-0.51-0.234-0.798-0.234
					c-0.496,0-0.89,0.183-1.182,0.546c-0.292,0.364-0.438,0.834-0.438,1.41s0.146,1.046,0.438,1.41s0.686,0.546,1.182,0.546
					c0.288,0,0.554-0.078,0.798-0.234C212.661,194.331,212.851,194.117,212.987,193.845z"/>
				<path fill="#585A5E" d="M218.855,193.833h0.852c-0.096,0.52-0.332,0.934-0.708,1.242c-0.376,0.308-0.856,0.462-1.44,0.462
					c-0.728,0-1.318-0.254-1.77-0.763c-0.452-0.508-0.678-1.174-0.678-1.998c0-0.808,0.224-1.474,0.672-1.998
					c0.448-0.523,1.032-0.785,1.752-0.785c0.712,0,1.264,0.237,1.656,0.714c0.392,0.476,0.588,1.109,0.588,1.901v0.324h-3.768
					c0.008,0.561,0.154,1.006,0.438,1.338c0.284,0.332,0.654,0.498,1.11,0.498c0.336,0,0.618-0.082,0.846-0.246
					S218.783,194.129,218.855,193.833z M217.547,190.761c-0.4,0-0.736,0.132-1.008,0.396c-0.272,0.265-0.44,0.629-0.504,1.093h2.832
					c-0.008-0.424-0.124-0.778-0.348-1.062C218.295,190.903,217.971,190.761,217.547,190.761z"/>
				<path fill="#585A5E" d="M220.979,195.429v-5.328h0.9v0.672c0.168-0.224,0.39-0.409,0.666-0.558s0.578-0.222,0.906-0.222
					c0.592,0,1.052,0.176,1.38,0.527c0.328,0.353,0.492,0.824,0.492,1.416v3.492h-0.912v-3.348c0-0.385-0.098-0.69-0.294-0.918
					c-0.196-0.229-0.49-0.343-0.882-0.343c-0.312,0-0.592,0.095-0.84,0.282c-0.248,0.188-0.42,0.426-0.516,0.714v3.612H220.979z"/>
				<path fill="#585A5E" d="M227.099,194.085v-3.216h-0.864v-0.769h0.864v-1.404h0.9v1.404h1.284v0.769h-1.284v3.119
					c0,0.496,0.236,0.744,0.708,0.744c0.248,0,0.48-0.071,0.696-0.216v0.84c-0.224,0.12-0.504,0.181-0.84,0.181
					c-0.448,0-0.804-0.122-1.068-0.366C227.231,194.927,227.099,194.564,227.099,194.085z"/>
				<path fill="#585A5E" d="M230.159,190.425l0.732-1.236c-0.152-0.023-0.278-0.09-0.378-0.198c-0.1-0.107-0.15-0.241-0.15-0.401
					c0-0.185,0.062-0.336,0.186-0.456c0.124-0.12,0.278-0.18,0.462-0.18s0.336,0.062,0.456,0.186c0.12,0.124,0.18,0.294,0.18,0.51
					c0,0.208-0.088,0.46-0.264,0.756l-0.612,1.021H230.159z"/>
				<path fill="#585A5E" d="M231.851,193.965h0.936c0.168,0.544,0.588,0.815,1.26,0.815c0.328,0,0.592-0.065,0.792-0.197
					c0.2-0.132,0.3-0.33,0.3-0.595c0-0.359-0.264-0.607-0.792-0.743l-1.056-0.276c-0.856-0.216-1.284-0.684-1.284-1.404
					c0-0.464,0.18-0.842,0.54-1.134c0.36-0.292,0.816-0.438,1.368-0.438c0.576,0,1.04,0.132,1.392,0.396s0.576,0.636,0.672,1.116
					h-0.9c-0.16-0.504-0.552-0.756-1.176-0.756c-0.28,0-0.52,0.065-0.72,0.197c-0.2,0.133-0.3,0.322-0.3,0.57
					c0,0.176,0.058,0.314,0.174,0.414c0.116,0.101,0.306,0.187,0.57,0.258l1.032,0.252c0.904,0.24,1.356,0.736,1.356,1.488
					c0,0.496-0.184,0.888-0.552,1.176c-0.368,0.288-0.844,0.433-1.428,0.433s-1.074-0.141-1.47-0.42
					C232.169,194.837,231.931,194.453,231.851,193.965z"/>
				<path fill="#585A5E" d="M240.497,194.486c-0.628-0.699-0.942-1.613-0.942-2.741s0.314-2.042,0.942-2.742
					c0.628-0.7,1.414-1.05,2.358-1.05c0.76,0,1.39,0.203,1.89,0.611s0.826,0.96,0.978,1.656h-0.936
					c-0.336-0.944-0.98-1.416-1.932-1.416c-0.704,0-1.272,0.271-1.704,0.81c-0.432,0.54-0.648,1.251-0.648,2.131
					c0,0.872,0.216,1.58,0.648,2.124s1,0.815,1.704,0.815c0.96,0,1.604-0.476,1.932-1.428h0.936
					c-0.152,0.704-0.478,1.26-0.978,1.668s-1.13,0.612-1.89,0.612C241.91,195.537,241.125,195.187,240.497,194.486z"/>
				<path fill="#585A5E" d="M247.805,188.085c0.116,0.112,0.174,0.248,0.174,0.408s-0.058,0.296-0.174,0.407
					c-0.116,0.112-0.254,0.168-0.414,0.168c-0.16,0-0.296-0.056-0.408-0.168c-0.112-0.111-0.168-0.247-0.168-0.407
					s0.056-0.296,0.168-0.408c0.112-0.112,0.248-0.168,0.408-0.168C247.55,187.917,247.688,187.973,247.805,188.085z
					 M247.847,190.101v5.328h-0.9v-5.328H247.847z"/>
				<path fill="#585A5E" d="M249.707,194.085v-3.216h-0.864v-0.769h0.864v-1.404h0.9v1.404h1.284v0.769h-1.284v3.119
					c0,0.496,0.236,0.744,0.708,0.744c0.248,0,0.48-0.071,0.696-0.216v0.84c-0.224,0.12-0.504,0.181-0.84,0.181
					c-0.448,0-0.804-0.122-1.068-0.366C249.838,194.927,249.707,194.564,249.707,194.085z"/>
				<path fill="#585A5E" d="M254.747,197.469h-0.888l0.804-2.004l-2.076-5.364h0.972l1.572,4.2l1.548-4.2h0.936L254.747,197.469z"/>
			</g>
		</g>
		
			<rect x="187.599" y="208.531" fill-rule="evenodd" clip-rule="evenodd" fill="none" stroke="#585A5E" stroke-width="0.4283" stroke-miterlimit="10" width="75.593" height="27.539"/>
		<g>
			<g>
				<path fill="#585A5E" d="M214.355,224.608h-1.764v-0.815h2.664v0.504c0,0.976-0.282,1.76-0.846,2.352
					c-0.564,0.593-1.298,0.889-2.202,0.889c-0.976,0-1.784-0.349-2.424-1.044c-0.64-0.696-0.96-1.612-0.96-2.748
					c0-1.128,0.32-2.042,0.96-2.742s1.44-1.05,2.4-1.05c0.768,0,1.406,0.203,1.914,0.611c0.508,0.408,0.838,0.96,0.99,1.656h-0.948
					c-0.344-0.944-0.996-1.416-1.956-1.416c-0.72,0-1.302,0.271-1.746,0.81c-0.444,0.54-0.666,1.251-0.666,2.131
					s0.224,1.592,0.672,2.136c0.448,0.544,1.036,0.815,1.764,0.815c0.632,0,1.134-0.186,1.506-0.558
					S214.299,225.257,214.355,224.608z"/>
				<path fill="#585A5E" d="M219.863,225.833h0.852c-0.096,0.52-0.332,0.934-0.708,1.242c-0.376,0.308-0.856,0.462-1.44,0.462
					c-0.728,0-1.318-0.254-1.77-0.763c-0.452-0.508-0.678-1.174-0.678-1.998c0-0.808,0.224-1.474,0.672-1.998
					c0.448-0.523,1.032-0.785,1.752-0.785c0.712,0,1.264,0.237,1.656,0.714c0.392,0.476,0.588,1.109,0.588,1.901v0.324h-3.768
					c0.008,0.561,0.154,1.006,0.438,1.338c0.284,0.332,0.654,0.498,1.11,0.498c0.336,0,0.618-0.082,0.846-0.246
					S219.791,226.129,219.863,225.833z M218.555,222.761c-0.4,0-0.736,0.132-1.008,0.396c-0.272,0.265-0.44,0.629-0.504,1.093h2.832
					c-0.008-0.424-0.124-0.778-0.348-1.062C219.303,222.903,218.979,222.761,218.555,222.761z"/>
				<path fill="#585A5E" d="M221.987,227.429v-5.328h0.9v0.672c0.168-0.224,0.39-0.409,0.666-0.558s0.578-0.222,0.906-0.222
					c0.592,0,1.052,0.176,1.38,0.527c0.328,0.353,0.492,0.824,0.492,1.416v3.492h-0.912v-3.348c0-0.385-0.098-0.69-0.294-0.918
					c-0.196-0.229-0.49-0.343-0.882-0.343c-0.312,0-0.592,0.095-0.84,0.282c-0.248,0.188-0.42,0.426-0.516,0.714v3.612H221.987z"/>
				<path fill="#585A5E" d="M231.371,227.429v-0.624c-0.144,0.208-0.352,0.382-0.624,0.522c-0.272,0.14-0.564,0.21-0.876,0.21
					c-0.752,0-1.34-0.265-1.764-0.792c-0.424-0.528-0.636-1.188-0.636-1.98c0-0.784,0.212-1.441,0.636-1.974
					c0.424-0.532,1.012-0.798,1.764-0.798c0.312,0,0.604,0.069,0.876,0.21c0.272,0.14,0.48,0.313,0.624,0.521v-3.096h0.912v7.8
					H231.371z M231.371,225.845v-2.16c-0.136-0.271-0.326-0.486-0.57-0.642c-0.244-0.156-0.51-0.234-0.798-0.234
					c-0.496,0-0.89,0.183-1.182,0.546c-0.292,0.364-0.438,0.834-0.438,1.41s0.146,1.046,0.438,1.41s0.686,0.546,1.182,0.546
					c0.288,0,0.554-0.078,0.798-0.234C231.045,226.331,231.235,226.117,231.371,225.845z"/>
				<path fill="#585A5E" d="M237.239,225.833h0.852c-0.096,0.52-0.332,0.934-0.708,1.242c-0.376,0.308-0.856,0.462-1.44,0.462
					c-0.728,0-1.318-0.254-1.77-0.763c-0.452-0.508-0.678-1.174-0.678-1.998c0-0.808,0.224-1.474,0.672-1.998
					c0.448-0.523,1.032-0.785,1.752-0.785c0.712,0,1.264,0.237,1.656,0.714c0.392,0.476,0.588,1.109,0.588,1.901v0.324h-3.768
					c0.008,0.561,0.154,1.006,0.438,1.338c0.284,0.332,0.654,0.498,1.11,0.498c0.336,0,0.618-0.082,0.846-0.246
					S237.167,226.129,237.239,225.833z M235.931,222.761c-0.4,0-0.736,0.132-1.008,0.396c-0.272,0.265-0.44,0.629-0.504,1.093h2.832
					c-0.008-0.424-0.124-0.778-0.348-1.062C236.679,222.903,236.355,222.761,235.931,222.761z"/>
				<path fill="#585A5E" d="M242.099,222.077v0.924c-0.144-0.097-0.344-0.145-0.6-0.145c-0.288,0-0.544,0.089-0.768,0.265
					s-0.38,0.42-0.468,0.731v3.576h-0.9v-5.328h0.9v0.696c0.12-0.232,0.298-0.424,0.534-0.576s0.498-0.228,0.786-0.228
					C241.814,221.993,241.986,222.021,242.099,222.077z"/>
			</g>
		</g>
		<g>
			<g>
				
					<line fill="none" stroke="#585A5E" stroke-width="0.5" stroke-miterlimit="10" x1="162.338" y1="190.302" x2="185.769" y2="190.302"/>
				<g>
					<polygon fill="#585A5E" points="185.396,191.573 187.599,190.302 185.396,189.03 					"/>
				</g>
			</g>
		</g>
		<g>
			<g>
				
					<line fill="none" stroke="#585A5E" stroke-width="0.5" stroke-miterlimit="10" x1="162.338" y1="158.302" x2="185.769" y2="158.302"/>
				<g>
					<polygon fill="#585A5E" points="185.396,159.573 187.599,158.302 185.396,157.03 					"/>
				</g>
			</g>
		</g>
		<g>
			<g>
				
					<line fill="none" stroke="#585A5E" stroke-width="0.5" stroke-miterlimit="10" x1="162.338" y1="126.302" x2="185.769" y2="126.302"/>
				<g>
					<polygon fill="#585A5E" points="185.396,127.573 187.599,126.302 185.396,125.03 					"/>
				</g>
			</g>
		</g>
	</g>
</g>
</svg>
