<?xml version="1.0" encoding="utf-8"?>
<!-- Generator: Adobe Illustrator 16.0.0, SVG Export Plug-In . SVG Version: 6.00 Build 0)  -->
<!DOCTYPE svg PUBLIC "-//W3C//DTD SVG 1.1//EN" "http://www.w3.org/Graphics/SVG/1.1/DTD/svg11.dtd">
<svg version="1.1" id="Layer_1" xmlns="http://www.w3.org/2000/svg" xmlns:xlink="http://www.w3.org/1999/xlink" x="0px" y="0px"
	 width="756.151px" height="209.984px" viewBox="0 0 756.151 209.984" enable-background="new 0 0 756.151 209.984"
	 xml:space="preserve">
<g>
	<g>
		<rect x="290.125" y="73.786" fill="#20B5AE" width="175.236" height="47.234"/>
		<g>
			<g>
				<path fill="#FFFFFF" d="M311.722,95.536h-0.024l0.024,0.327v6.788h-1.138v-8.47h1.706l2.65,6.97l2.65-6.97h1.707v8.47h-1.138
					v-6.788l0.024-0.327h-0.037l-2.747,7.115h-0.919L311.722,95.536z"/>
				<path fill="#FFFFFF" d="M326.642,100.872c-0.041,0.218-0.115,0.446-0.224,0.684c-0.109,0.238-0.266,0.456-0.472,0.654
					c-0.206,0.198-0.47,0.361-0.792,0.49c-0.323,0.129-0.722,0.194-1.198,0.194c-0.508,0-0.938-0.069-1.289-0.206
					c-0.351-0.137-0.641-0.312-0.871-0.526c-0.23-0.213-0.41-0.449-0.539-0.708s-0.224-0.508-0.284-0.75
					c-0.061-0.242-0.097-0.461-0.109-0.659s-0.018-0.345-0.018-0.442c0-0.137,0.008-0.316,0.024-0.539
					c0.016-0.222,0.057-0.456,0.121-0.702s0.161-0.494,0.291-0.744c0.129-0.25,0.304-0.476,0.526-0.678
					c0.222-0.201,0.498-0.365,0.829-0.49s0.734-0.188,1.21-0.188c0.613,0,1.103,0.107,1.47,0.32
					c0.367,0.214,0.649,0.482,0.847,0.805c0.197,0.323,0.331,0.676,0.399,1.059c0.068,0.383,0.11,0.74,0.127,1.071
					c0,0.048,0.002,0.099,0.006,0.151c0.004,0.052,0.006,0.103,0.006,0.151h-4.731c0,0.266,0.037,0.537,0.109,0.811
					c0.073,0.274,0.186,0.522,0.339,0.744c0.153,0.222,0.353,0.405,0.599,0.55c0.246,0.146,0.546,0.218,0.901,0.218
					c0.25,0,0.476-0.034,0.678-0.103c0.201-0.069,0.373-0.162,0.514-0.278c0.141-0.117,0.254-0.252,0.339-0.406
					c0.084-0.153,0.143-0.314,0.175-0.484H326.642z M325.577,99.069c-0.008-0.202-0.036-0.423-0.085-0.666
					c-0.048-0.242-0.135-0.466-0.26-0.671c-0.125-0.206-0.297-0.377-0.515-0.515c-0.218-0.137-0.5-0.206-0.847-0.206
					c-0.387,0-0.706,0.071-0.956,0.212s-0.446,0.316-0.587,0.526s-0.236,0.434-0.284,0.671c-0.048,0.238-0.073,0.454-0.073,0.647
					H325.577z"/>
				<path fill="#FFFFFF" d="M328.723,100.823c0.008,0.242,0.06,0.448,0.156,0.617c0.096,0.169,0.222,0.307,0.378,0.411
					c0.156,0.105,0.332,0.18,0.528,0.224c0.196,0.044,0.395,0.066,0.595,0.066c0.352,0,0.624-0.048,0.816-0.145
					c0.192-0.097,0.332-0.21,0.42-0.339c0.088-0.129,0.138-0.258,0.15-0.387c0.012-0.129,0.018-0.226,0.018-0.291
					c0-0.097-0.01-0.191-0.03-0.284s-0.074-0.182-0.163-0.266c-0.088-0.085-0.218-0.166-0.391-0.242s-0.407-0.151-0.704-0.224
					l-0.649-0.146c-0.256-0.056-0.501-0.121-0.733-0.193c-0.232-0.073-0.437-0.173-0.613-0.303c-0.176-0.129-0.316-0.296-0.42-0.502
					c-0.104-0.206-0.157-0.47-0.157-0.792c0-0.339,0.068-0.623,0.206-0.853c0.137-0.23,0.318-0.412,0.544-0.544
					c0.226-0.133,0.476-0.228,0.75-0.285c0.274-0.056,0.553-0.084,0.835-0.084c0.524,0,0.946,0.064,1.265,0.193
					c0.318,0.129,0.566,0.289,0.744,0.478c0.177,0.189,0.298,0.392,0.363,0.605c0.064,0.214,0.105,0.405,0.121,0.575h-1.017
					c-0.008-0.088-0.03-0.195-0.067-0.32s-0.105-0.246-0.207-0.363c-0.102-0.117-0.245-0.216-0.432-0.296
					c-0.186-0.081-0.433-0.121-0.741-0.121c-0.032,0-0.118,0.004-0.255,0.012c-0.138,0.008-0.281,0.042-0.431,0.103
					c-0.15,0.06-0.286,0.157-0.407,0.29c-0.122,0.133-0.182,0.321-0.182,0.563c0,0.218,0.046,0.391,0.139,0.52
					c0.093,0.129,0.219,0.23,0.376,0.303c0.158,0.072,0.34,0.131,0.546,0.175c0.207,0.044,0.419,0.091,0.638,0.139
					c0.315,0.073,0.607,0.147,0.874,0.224c0.267,0.077,0.5,0.178,0.698,0.303s0.352,0.289,0.461,0.49s0.164,0.459,0.164,0.774
					c0,0.323-0.057,0.595-0.169,0.816c-0.113,0.222-0.254,0.408-0.423,0.557c-0.169,0.149-0.357,0.264-0.563,0.345
					c-0.206,0.081-0.403,0.141-0.593,0.182s-0.355,0.064-0.496,0.073c-0.141,0.008-0.236,0.012-0.284,0.012
					c-0.46,0-0.857-0.055-1.192-0.164c-0.335-0.109-0.615-0.258-0.841-0.448c-0.226-0.189-0.396-0.409-0.508-0.659
					c-0.113-0.25-0.174-0.516-0.182-0.799H328.723z"/>
				<path fill="#FFFFFF" d="M334.845,100.823c0.008,0.242,0.06,0.448,0.156,0.617c0.096,0.169,0.222,0.307,0.378,0.411
					c0.156,0.105,0.332,0.18,0.528,0.224c0.196,0.044,0.395,0.066,0.595,0.066c0.352,0,0.624-0.048,0.816-0.145
					c0.192-0.097,0.332-0.21,0.42-0.339c0.088-0.129,0.138-0.258,0.15-0.387c0.012-0.129,0.018-0.226,0.018-0.291
					c0-0.097-0.01-0.191-0.03-0.284s-0.074-0.182-0.163-0.266c-0.088-0.085-0.218-0.166-0.391-0.242s-0.407-0.151-0.704-0.224
					l-0.649-0.146c-0.256-0.056-0.501-0.121-0.733-0.193c-0.232-0.073-0.437-0.173-0.613-0.303c-0.176-0.129-0.316-0.296-0.42-0.502
					c-0.104-0.206-0.157-0.47-0.157-0.792c0-0.339,0.068-0.623,0.206-0.853c0.137-0.23,0.318-0.412,0.544-0.544
					c0.226-0.133,0.476-0.228,0.75-0.285c0.274-0.056,0.553-0.084,0.835-0.084c0.524,0,0.946,0.064,1.265,0.193
					c0.318,0.129,0.566,0.289,0.744,0.478c0.177,0.189,0.298,0.392,0.363,0.605c0.064,0.214,0.105,0.405,0.121,0.575h-1.017
					c-0.008-0.088-0.03-0.195-0.067-0.32s-0.105-0.246-0.207-0.363c-0.102-0.117-0.245-0.216-0.432-0.296
					c-0.186-0.081-0.433-0.121-0.741-0.121c-0.032,0-0.118,0.004-0.255,0.012c-0.138,0.008-0.281,0.042-0.431,0.103
					c-0.15,0.06-0.286,0.157-0.407,0.29c-0.122,0.133-0.182,0.321-0.182,0.563c0,0.218,0.046,0.391,0.139,0.52
					c0.093,0.129,0.219,0.23,0.376,0.303c0.158,0.072,0.34,0.131,0.546,0.175c0.207,0.044,0.419,0.091,0.638,0.139
					c0.315,0.073,0.607,0.147,0.874,0.224c0.267,0.077,0.5,0.178,0.698,0.303s0.352,0.289,0.461,0.49s0.164,0.459,0.164,0.774
					c0,0.323-0.057,0.595-0.169,0.816c-0.113,0.222-0.254,0.408-0.423,0.557c-0.169,0.149-0.357,0.264-0.563,0.345
					c-0.206,0.081-0.403,0.141-0.593,0.182s-0.355,0.064-0.496,0.073c-0.141,0.008-0.236,0.012-0.284,0.012
					c-0.46,0-0.857-0.055-1.192-0.164c-0.335-0.109-0.615-0.258-0.841-0.448c-0.226-0.189-0.396-0.409-0.508-0.659
					c-0.113-0.25-0.174-0.516-0.182-0.799H334.845z"/>
				<path fill="#FFFFFF" d="M340.133,98.318c0-0.201,0.034-0.423,0.103-0.665c0.068-0.242,0.197-0.466,0.387-0.672
					c0.189-0.206,0.456-0.377,0.798-0.514s0.785-0.206,1.325-0.206c0.25,0,0.518,0.024,0.805,0.072
					c0.286,0.049,0.552,0.146,0.798,0.291c0.246,0.146,0.45,0.353,0.611,0.623c0.162,0.271,0.238,0.631,0.23,1.083l-0.061,2.844
					c0,0.121,0.002,0.228,0.006,0.32c0.004,0.093,0.026,0.169,0.066,0.23s0.105,0.107,0.194,0.139
					c0.088,0.032,0.213,0.044,0.375,0.037v0.75c-0.073,0.016-0.144,0.028-0.212,0.036c-0.068,0.008-0.159,0.012-0.272,0.012
					c-0.146,0-0.281-0.01-0.406-0.03s-0.234-0.061-0.327-0.121s-0.169-0.149-0.23-0.266c-0.06-0.117-0.107-0.276-0.139-0.478
					c-0.105,0.194-0.234,0.359-0.387,0.496c-0.153,0.137-0.323,0.25-0.508,0.339c-0.186,0.089-0.381,0.153-0.587,0.194
					c-0.206,0.04-0.414,0.061-0.623,0.061c-0.646,0-1.168-0.147-1.567-0.442c-0.399-0.294-0.599-0.764-0.599-1.41
					c0-0.266,0.04-0.506,0.121-0.72c0.081-0.214,0.234-0.403,0.459-0.569c0.226-0.165,0.533-0.303,0.92-0.412
					s0.891-0.191,1.512-0.248c0.226-0.016,0.416-0.032,0.569-0.048c0.153-0.016,0.276-0.05,0.369-0.103
					c0.093-0.053,0.159-0.131,0.2-0.236c0.04-0.104,0.061-0.258,0.061-0.459c0-0.073-0.008-0.177-0.024-0.315
					c-0.016-0.137-0.069-0.274-0.157-0.411c-0.089-0.137-0.226-0.256-0.412-0.357c-0.186-0.101-0.448-0.151-0.786-0.151
					c-0.097,0-0.236,0.008-0.417,0.024c-0.182,0.016-0.361,0.066-0.539,0.151c-0.178,0.085-0.331,0.214-0.46,0.387
					c-0.129,0.174-0.189,0.422-0.181,0.744H340.133z M344.126,99.504c-0.081,0.064-0.164,0.111-0.252,0.139
					c-0.088,0.028-0.184,0.05-0.288,0.066c-0.104,0.017-0.222,0.03-0.354,0.042c-0.132,0.012-0.282,0.03-0.45,0.055
					c-0.232,0.04-0.455,0.079-0.667,0.115s-0.398,0.093-0.558,0.169s-0.286,0.188-0.378,0.333c-0.092,0.146-0.138,0.339-0.138,0.581
					c0,0.363,0.11,0.643,0.33,0.841c0.22,0.198,0.502,0.296,0.846,0.296c0.208,0,0.418-0.03,0.63-0.091s0.408-0.169,0.588-0.327
					c0.18-0.157,0.33-0.373,0.45-0.647c0.12-0.274,0.192-0.625,0.216-1.052L344.126,99.504z"/>
				<path fill="#FFFFFF" d="M348.167,103.344c0.048,0.179,0.129,0.326,0.242,0.439s0.244,0.206,0.394,0.275
					c0.149,0.069,0.31,0.116,0.484,0.141c0.173,0.024,0.341,0.036,0.502,0.036c0.419,0,0.742-0.085,0.968-0.255
					c0.226-0.17,0.393-0.365,0.502-0.584s0.173-0.434,0.194-0.644c0.02-0.21,0.03-0.356,0.03-0.438v-0.669
					c-0.146,0.234-0.287,0.43-0.424,0.587s-0.284,0.284-0.441,0.381c-0.157,0.097-0.327,0.167-0.508,0.211s-0.385,0.067-0.611,0.067
					c-0.363,0-0.712-0.065-1.047-0.194c-0.335-0.129-0.629-0.329-0.883-0.599c-0.254-0.27-0.458-0.617-0.611-1.041
					c-0.153-0.423-0.23-0.934-0.23-1.53c0-0.097,0.004-0.244,0.012-0.442c0.008-0.198,0.037-0.417,0.085-0.659
					c0.048-0.242,0.127-0.49,0.236-0.745c0.109-0.254,0.262-0.488,0.46-0.702c0.197-0.213,0.448-0.387,0.75-0.52
					c0.303-0.133,0.676-0.2,1.119-0.2c0.508,0,0.942,0.093,1.301,0.278s0.635,0.456,0.829,0.811h0.036v-0.847h0.992v5.99
					c0,0.395-0.054,0.73-0.163,1.004c-0.109,0.274-0.248,0.504-0.417,0.689s-0.361,0.331-0.575,0.436
					c-0.214,0.105-0.422,0.186-0.624,0.242c-0.202,0.056-0.391,0.091-0.568,0.103c-0.178,0.012-0.315,0.018-0.412,0.018
					c-0.145,0-0.347-0.008-0.605-0.024c-0.258-0.017-0.522-0.075-0.792-0.175c-0.271-0.101-0.521-0.262-0.75-0.483
					c-0.23-0.221-0.394-0.541-0.49-0.959H348.167z M349.74,102.142c0.097,0,0.246-0.026,0.448-0.079
					c0.202-0.052,0.403-0.169,0.605-0.351c0.202-0.181,0.379-0.445,0.532-0.792c0.153-0.347,0.23-0.818,0.23-1.416
					c0-0.774-0.161-1.383-0.484-1.827c-0.323-0.443-0.799-0.666-1.428-0.666c-0.299,0-0.551,0.051-0.756,0.151
					c-0.206,0.101-0.375,0.228-0.508,0.381c-0.133,0.153-0.234,0.327-0.302,0.52c-0.069,0.194-0.121,0.381-0.157,0.562
					c-0.037,0.182-0.057,0.351-0.061,0.508c-0.004,0.157-0.006,0.276-0.006,0.357c0,0.622,0.075,1.109,0.224,1.464
					c0.149,0.355,0.327,0.619,0.532,0.792s0.416,0.282,0.629,0.327C349.451,102.12,349.619,102.142,349.74,102.142z"/>
				<path fill="#FFFFFF" d="M359.735,100.872c-0.041,0.218-0.115,0.446-0.224,0.684c-0.109,0.238-0.266,0.456-0.472,0.654
					c-0.206,0.198-0.47,0.361-0.792,0.49c-0.323,0.129-0.722,0.194-1.198,0.194c-0.508,0-0.938-0.069-1.289-0.206
					c-0.351-0.137-0.641-0.312-0.871-0.526c-0.23-0.213-0.41-0.449-0.539-0.708s-0.224-0.508-0.284-0.75
					c-0.061-0.242-0.097-0.461-0.109-0.659s-0.018-0.345-0.018-0.442c0-0.137,0.008-0.316,0.024-0.539
					c0.016-0.222,0.057-0.456,0.121-0.702s0.161-0.494,0.291-0.744c0.129-0.25,0.304-0.476,0.526-0.678
					c0.222-0.201,0.498-0.365,0.829-0.49s0.734-0.188,1.21-0.188c0.613,0,1.103,0.107,1.47,0.32
					c0.367,0.214,0.649,0.482,0.847,0.805c0.197,0.323,0.331,0.676,0.399,1.059c0.068,0.383,0.11,0.74,0.127,1.071
					c0,0.048,0.002,0.099,0.006,0.151c0.004,0.052,0.006,0.103,0.006,0.151h-4.731c0,0.266,0.037,0.537,0.109,0.811
					c0.073,0.274,0.186,0.522,0.339,0.744c0.153,0.222,0.353,0.405,0.599,0.55c0.246,0.146,0.546,0.218,0.901,0.218
					c0.25,0,0.476-0.034,0.678-0.103c0.201-0.069,0.373-0.162,0.514-0.278c0.141-0.117,0.254-0.252,0.339-0.406
					c0.084-0.153,0.143-0.314,0.175-0.484H359.735z M358.67,99.069c-0.008-0.202-0.036-0.423-0.085-0.666
					c-0.048-0.242-0.135-0.466-0.26-0.671c-0.125-0.206-0.297-0.377-0.515-0.515c-0.218-0.137-0.5-0.206-0.847-0.206
					c-0.387,0-0.706,0.071-0.956,0.212s-0.446,0.316-0.587,0.526s-0.236,0.434-0.284,0.671c-0.048,0.238-0.073,0.454-0.073,0.647
					H358.67z"/>
				<path fill="#FFFFFF" d="M363.292,95.136V94.18h6.643v0.956h-2.747v7.514h-1.138v-7.514H363.292z"/>
				<path fill="#FFFFFF" d="M373.673,97.012c-0.363,0.016-0.684,0.065-0.962,0.146s-0.517,0.206-0.714,0.375
					c-0.198,0.169-0.355,0.387-0.472,0.653c-0.117,0.266-0.188,0.593-0.211,0.98c-0.008,0.113-0.012,0.222-0.012,0.327
					c0,0.105,0,0.214,0,0.327v2.832h-1.065v-6.147h1.065v1.186h0.024c0.073-0.226,0.18-0.425,0.321-0.599
					c0.141-0.173,0.303-0.318,0.484-0.436c0.182-0.117,0.377-0.208,0.587-0.272s0.424-0.101,0.642-0.109l0.314-0.012V97.012z"/>
				<path fill="#FFFFFF" d="M374.073,98.318c0-0.201,0.034-0.423,0.103-0.665c0.068-0.242,0.197-0.466,0.387-0.672
					c0.189-0.206,0.456-0.377,0.798-0.514s0.785-0.206,1.325-0.206c0.25,0,0.518,0.024,0.805,0.072
					c0.286,0.049,0.552,0.146,0.798,0.291c0.246,0.146,0.45,0.353,0.611,0.623c0.162,0.271,0.238,0.631,0.23,1.083l-0.061,2.844
					c0,0.121,0.002,0.228,0.006,0.32c0.004,0.093,0.025,0.169,0.066,0.23s0.105,0.107,0.193,0.139
					c0.089,0.032,0.214,0.044,0.375,0.037v0.75c-0.072,0.016-0.143,0.028-0.211,0.036c-0.068,0.008-0.16,0.012-0.272,0.012
					c-0.146,0-0.28-0.01-0.406-0.03c-0.125-0.02-0.234-0.061-0.327-0.121s-0.169-0.149-0.23-0.266
					c-0.06-0.117-0.107-0.276-0.139-0.478c-0.105,0.194-0.234,0.359-0.387,0.496c-0.153,0.137-0.323,0.25-0.508,0.339
					c-0.186,0.089-0.381,0.153-0.587,0.194c-0.206,0.04-0.414,0.061-0.623,0.061c-0.646,0-1.168-0.147-1.567-0.442
					c-0.399-0.294-0.599-0.764-0.599-1.41c0-0.266,0.04-0.506,0.121-0.72c0.081-0.214,0.234-0.403,0.459-0.569
					c0.226-0.165,0.533-0.303,0.92-0.412s0.891-0.191,1.512-0.248c0.226-0.016,0.416-0.032,0.569-0.048
					c0.153-0.016,0.276-0.05,0.369-0.103c0.093-0.053,0.159-0.131,0.2-0.236c0.04-0.104,0.061-0.258,0.061-0.459
					c0-0.073-0.008-0.177-0.024-0.315c-0.016-0.137-0.069-0.274-0.157-0.411c-0.089-0.137-0.226-0.256-0.412-0.357
					c-0.186-0.101-0.448-0.151-0.786-0.151c-0.097,0-0.236,0.008-0.417,0.024c-0.182,0.016-0.361,0.066-0.539,0.151
					c-0.178,0.085-0.331,0.214-0.46,0.387c-0.129,0.174-0.189,0.422-0.181,0.744H374.073z M378.066,99.504
					c-0.081,0.064-0.164,0.111-0.252,0.139c-0.088,0.028-0.184,0.05-0.288,0.066c-0.104,0.017-0.222,0.03-0.354,0.042
					c-0.132,0.012-0.282,0.03-0.45,0.055c-0.232,0.04-0.455,0.079-0.667,0.115s-0.398,0.093-0.558,0.169s-0.286,0.188-0.378,0.333
					c-0.092,0.146-0.138,0.339-0.138,0.581c0,0.363,0.11,0.643,0.33,0.841c0.22,0.198,0.502,0.296,0.846,0.296
					c0.208,0,0.418-0.03,0.63-0.091s0.408-0.169,0.588-0.327c0.18-0.157,0.33-0.373,0.45-0.647c0.12-0.274,0.192-0.625,0.216-1.052
					L378.066,99.504z"/>
				<path fill="#FFFFFF" d="M382.035,96.503v0.859c0.209-0.307,0.491-0.567,0.847-0.781c0.354-0.213,0.774-0.32,1.259-0.32
					c0.402,0,0.735,0.062,0.998,0.188c0.262,0.125,0.467,0.292,0.617,0.502c0.148,0.21,0.254,0.454,0.314,0.732
					c0.061,0.278,0.09,0.571,0.09,0.877v4.09h-1.064v-3.763c0-0.161-0.006-0.351-0.018-0.569c-0.012-0.218-0.057-0.423-0.133-0.617
					c-0.077-0.194-0.205-0.357-0.382-0.49s-0.432-0.2-0.763-0.2c-0.145,0-0.318,0.024-0.52,0.073
					c-0.202,0.048-0.396,0.151-0.581,0.309s-0.343,0.387-0.472,0.689c-0.129,0.303-0.193,0.708-0.193,1.216v3.352h-1.065v-6.147
					H382.035z"/>
				<path fill="#FFFFFF" d="M388.532,100.823c0.008,0.242,0.06,0.448,0.155,0.617c0.097,0.169,0.223,0.307,0.379,0.411
					c0.156,0.105,0.332,0.18,0.527,0.224c0.197,0.044,0.395,0.066,0.596,0.066c0.352,0,0.623-0.048,0.816-0.145
					c0.191-0.097,0.332-0.21,0.42-0.339s0.138-0.258,0.15-0.387c0.012-0.129,0.018-0.226,0.018-0.291c0-0.097-0.01-0.191-0.03-0.284
					s-0.074-0.182-0.163-0.266c-0.088-0.085-0.218-0.166-0.391-0.242c-0.172-0.077-0.406-0.151-0.703-0.224l-0.649-0.146
					c-0.257-0.056-0.501-0.121-0.733-0.193c-0.232-0.073-0.438-0.173-0.613-0.303c-0.176-0.129-0.316-0.296-0.42-0.502
					c-0.105-0.206-0.157-0.47-0.157-0.792c0-0.339,0.068-0.623,0.206-0.853c0.137-0.23,0.318-0.412,0.545-0.544
					c0.225-0.133,0.475-0.228,0.75-0.285c0.273-0.056,0.553-0.084,0.834-0.084c0.525,0,0.946,0.064,1.266,0.193
					c0.318,0.129,0.566,0.289,0.744,0.478c0.177,0.189,0.298,0.392,0.362,0.605c0.064,0.214,0.104,0.405,0.121,0.575h-1.017
					c-0.008-0.088-0.03-0.195-0.066-0.32c-0.037-0.125-0.105-0.246-0.207-0.363c-0.102-0.117-0.245-0.216-0.432-0.296
					c-0.186-0.081-0.434-0.121-0.741-0.121c-0.032,0-0.118,0.004-0.255,0.012c-0.139,0.008-0.281,0.042-0.432,0.103
					c-0.15,0.06-0.285,0.157-0.407,0.29c-0.122,0.133-0.183,0.321-0.183,0.563c0,0.218,0.047,0.391,0.14,0.52
					c0.093,0.129,0.219,0.23,0.376,0.303c0.158,0.072,0.34,0.131,0.547,0.175c0.206,0.044,0.418,0.091,0.637,0.139
					c0.316,0.073,0.607,0.147,0.874,0.224c0.267,0.077,0.5,0.178,0.698,0.303s0.352,0.289,0.461,0.49s0.164,0.459,0.164,0.774
					c0,0.323-0.057,0.595-0.17,0.816c-0.113,0.222-0.254,0.408-0.423,0.557c-0.169,0.149-0.356,0.264-0.563,0.345
					c-0.205,0.081-0.402,0.141-0.592,0.182s-0.355,0.064-0.496,0.073c-0.142,0.008-0.236,0.012-0.285,0.012
					c-0.459,0-0.857-0.055-1.191-0.164c-0.335-0.109-0.615-0.258-0.841-0.448c-0.226-0.189-0.396-0.409-0.509-0.659
					s-0.174-0.516-0.182-0.799H388.532z"/>
				<path fill="#FFFFFF" d="M396.857,97.254h-1.344v5.396h-1.064v-5.396h-1.138v-0.75h1.138v-0.835c0-0.532,0.133-0.921,0.398-1.167
					c0.267-0.246,0.674-0.369,1.223-0.369c0.113,0,0.25,0.006,0.412,0.018c0.16,0.012,0.285,0.022,0.375,0.03v0.75
					c-0.259-0.016-0.434-0.022-0.527-0.018c-0.092,0.004-0.167,0.006-0.223,0.006c-0.146,0-0.259,0.032-0.34,0.097
					c-0.08,0.065-0.139,0.142-0.176,0.23c-0.035,0.089-0.059,0.182-0.066,0.278s-0.012,0.178-0.012,0.242v0.738h1.344V97.254z"/>
				<path fill="#FFFFFF" d="M397.535,99.577c0-0.412,0.052-0.815,0.156-1.21c0.105-0.396,0.276-0.749,0.515-1.059
					c0.237-0.311,0.55-0.562,0.938-0.756c0.388-0.193,0.859-0.29,1.416-0.29s1.028,0.097,1.415,0.29
					c0.388,0.194,0.7,0.446,0.938,0.756c0.237,0.311,0.409,0.664,0.515,1.059c0.104,0.395,0.156,0.798,0.156,1.21
					c0,0.411-0.053,0.815-0.156,1.21c-0.105,0.395-0.277,0.748-0.515,1.059c-0.238,0.311-0.551,0.562-0.938,0.756
					c-0.387,0.193-0.858,0.291-1.415,0.291s-1.028-0.097-1.416-0.291c-0.388-0.194-0.7-0.446-0.938-0.756
					c-0.238-0.311-0.409-0.664-0.515-1.059C397.587,100.392,397.535,99.988,397.535,99.577z M398.66,99.577
					c0,0.61,0.076,1.088,0.229,1.433s0.335,0.602,0.544,0.771c0.211,0.169,0.42,0.271,0.63,0.307
					c0.21,0.036,0.375,0.054,0.496,0.054s0.286-0.018,0.496-0.054c0.21-0.036,0.419-0.138,0.629-0.307
					c0.21-0.168,0.392-0.425,0.545-0.771s0.229-0.823,0.229-1.433s-0.076-1.088-0.229-1.433s-0.335-0.603-0.545-0.771
					s-0.419-0.271-0.629-0.307s-0.375-0.054-0.496-0.054s-0.286,0.018-0.496,0.054s-0.419,0.139-0.63,0.307
					c-0.209,0.168-0.391,0.426-0.544,0.771S398.66,98.967,398.66,99.577z"/>
				<path fill="#FFFFFF" d="M408.412,97.012c-0.363,0.016-0.684,0.065-0.962,0.146s-0.517,0.206-0.714,0.375
					s-0.355,0.387-0.473,0.653c-0.116,0.266-0.188,0.593-0.211,0.98c-0.008,0.113-0.012,0.222-0.012,0.327c0,0.105,0,0.214,0,0.327
					v2.832h-1.065v-6.147h1.065v1.186h0.023c0.072-0.226,0.18-0.425,0.32-0.599c0.142-0.173,0.303-0.318,0.484-0.436
					c0.182-0.117,0.377-0.208,0.587-0.272s0.424-0.101,0.642-0.109l0.314-0.012V97.012z"/>
				<path fill="#FFFFFF" d="M410.506,96.503v0.835l-0.013,0.073c0.081-0.177,0.189-0.337,0.327-0.478
					c0.137-0.141,0.29-0.262,0.459-0.363c0.17-0.101,0.35-0.178,0.539-0.23s0.381-0.079,0.574-0.079c0.267,0,0.5,0.038,0.702,0.115
					s0.373,0.178,0.515,0.303c0.141,0.125,0.256,0.266,0.344,0.423c0.09,0.157,0.154,0.317,0.194,0.478
					c0.056-0.121,0.142-0.256,0.254-0.405c0.113-0.149,0.255-0.292,0.424-0.43s0.373-0.252,0.61-0.345
					c0.238-0.093,0.519-0.139,0.842-0.139c0.467,0,0.834,0.095,1.101,0.284s0.464,0.414,0.593,0.671
					c0.129,0.258,0.208,0.525,0.236,0.799c0.028,0.274,0.043,0.496,0.043,0.666v3.969h-1.065v-3.896c0-0.162-0.011-0.343-0.03-0.545
					c-0.02-0.201-0.07-0.391-0.151-0.568s-0.2-0.327-0.356-0.448c-0.158-0.121-0.373-0.182-0.648-0.182
					c-0.177,0-0.362,0.028-0.557,0.085c-0.193,0.056-0.368,0.159-0.525,0.309c-0.158,0.149-0.287,0.351-0.387,0.605
					c-0.102,0.254-0.152,0.579-0.152,0.974v3.667h-1.064v-3.884c0-0.226-0.016-0.443-0.049-0.653
					c-0.031-0.209-0.092-0.395-0.182-0.557c-0.088-0.161-0.209-0.292-0.362-0.393c-0.153-0.101-0.351-0.151-0.593-0.151
					c-0.218,0-0.426,0.046-0.623,0.139c-0.198,0.093-0.371,0.224-0.521,0.394c-0.149,0.169-0.267,0.377-0.351,0.623
					c-0.085,0.246-0.127,0.518-0.127,0.816v3.667h-1.065v-6.147H410.506z"/>
				<path fill="#FFFFFF" d="M419.786,98.318c0-0.201,0.034-0.423,0.103-0.665c0.068-0.242,0.197-0.466,0.388-0.672
					c0.189-0.206,0.456-0.377,0.798-0.514c0.344-0.137,0.785-0.206,1.326-0.206c0.249,0,0.518,0.024,0.805,0.072
					c0.285,0.049,0.552,0.146,0.798,0.291c0.246,0.146,0.45,0.353,0.61,0.623c0.162,0.271,0.238,0.631,0.23,1.083l-0.061,2.844
					c0,0.121,0.002,0.228,0.006,0.32c0.004,0.093,0.026,0.169,0.066,0.23c0.041,0.061,0.105,0.107,0.194,0.139
					s0.214,0.044,0.375,0.037v0.75c-0.073,0.016-0.144,0.028-0.212,0.036c-0.068,0.008-0.159,0.012-0.271,0.012
					c-0.146,0-0.281-0.01-0.406-0.03s-0.234-0.061-0.326-0.121c-0.094-0.061-0.17-0.149-0.23-0.266
					c-0.061-0.117-0.107-0.276-0.139-0.478c-0.105,0.194-0.234,0.359-0.387,0.496c-0.154,0.137-0.323,0.25-0.509,0.339
					c-0.186,0.089-0.382,0.153-0.587,0.194c-0.205,0.04-0.414,0.061-0.623,0.061c-0.646,0-1.168-0.147-1.566-0.442
					c-0.4-0.294-0.6-0.764-0.6-1.41c0-0.266,0.04-0.506,0.121-0.72c0.08-0.214,0.234-0.403,0.459-0.569
					c0.227-0.165,0.533-0.303,0.92-0.412c0.388-0.109,0.892-0.191,1.513-0.248c0.226-0.016,0.415-0.032,0.569-0.048
					c0.152-0.016,0.275-0.05,0.369-0.103c0.092-0.053,0.158-0.131,0.199-0.236c0.04-0.104,0.061-0.258,0.061-0.459
					c0-0.073-0.008-0.177-0.024-0.315c-0.017-0.137-0.069-0.274-0.157-0.411c-0.089-0.137-0.227-0.256-0.412-0.357
					c-0.186-0.101-0.447-0.151-0.785-0.151c-0.098,0-0.236,0.008-0.418,0.024s-0.361,0.066-0.539,0.151
					c-0.178,0.085-0.33,0.214-0.459,0.387c-0.129,0.174-0.189,0.422-0.182,0.744H419.786z M423.779,99.504
					c-0.08,0.064-0.164,0.111-0.252,0.139s-0.185,0.05-0.289,0.066c-0.104,0.017-0.222,0.03-0.354,0.042
					c-0.133,0.012-0.282,0.03-0.45,0.055c-0.232,0.04-0.454,0.079-0.667,0.115c-0.211,0.036-0.397,0.093-0.558,0.169
					s-0.286,0.188-0.378,0.333c-0.092,0.146-0.139,0.339-0.139,0.581c0,0.363,0.11,0.643,0.33,0.841
					c0.221,0.198,0.502,0.296,0.847,0.296c0.208,0,0.419-0.03,0.63-0.091c0.213-0.061,0.408-0.169,0.589-0.327
					c0.18-0.157,0.33-0.373,0.45-0.647c0.119-0.274,0.191-0.625,0.216-1.052L423.779,99.504z"/>
				<path fill="#FFFFFF" d="M427.07,96.503v-1.839h1.064v1.839h1.307v0.75h-1.307v3.908c0,0.113,0.002,0.22,0.006,0.321
					c0.004,0.101,0.024,0.191,0.061,0.272c0.037,0.081,0.099,0.144,0.188,0.188c0.089,0.044,0.218,0.067,0.387,0.067
					c0.113,0,0.227-0.01,0.34-0.03c0.112-0.02,0.221-0.046,0.326-0.079v0.75c-0.17,0.073-0.351,0.131-0.545,0.175
					c-0.193,0.044-0.383,0.067-0.568,0.067c-0.314,0-0.559-0.049-0.732-0.146c-0.173-0.097-0.298-0.22-0.375-0.369
					c-0.076-0.149-0.121-0.312-0.133-0.49s-0.018-0.347-0.018-0.508v-4.126h-1.102v-0.75H427.07z"/>
				<path fill="#FFFFFF" d="M430.531,94.18h1.064v1.113h-1.064V94.18z M431.596,96.503v6.147h-1.064v-6.147H431.596z"/>
				<path fill="#FFFFFF" d="M432.963,99.577c0-0.412,0.053-0.815,0.157-1.21c0.104-0.396,0.276-0.749,0.515-1.059
					c0.237-0.311,0.55-0.562,0.938-0.756c0.387-0.193,0.859-0.29,1.416-0.29s1.027,0.097,1.415,0.29
					c0.388,0.194,0.7,0.446,0.938,0.756c0.237,0.311,0.408,0.664,0.514,1.059c0.104,0.395,0.157,0.798,0.157,1.21
					c0,0.411-0.053,0.815-0.157,1.21c-0.105,0.395-0.276,0.748-0.514,1.059c-0.238,0.311-0.551,0.562-0.938,0.756
					c-0.388,0.193-0.858,0.291-1.415,0.291s-1.029-0.097-1.416-0.291c-0.388-0.194-0.7-0.446-0.938-0.756
					c-0.238-0.311-0.41-0.664-0.515-1.059S432.963,99.988,432.963,99.577z M434.088,99.577c0,0.61,0.076,1.088,0.23,1.433
					c0.152,0.345,0.334,0.602,0.544,0.771c0.21,0.169,0.419,0.271,0.63,0.307c0.209,0.036,0.375,0.054,0.496,0.054
					s0.285-0.018,0.496-0.054c0.209-0.036,0.419-0.138,0.629-0.307c0.209-0.168,0.391-0.425,0.545-0.771
					c0.152-0.345,0.229-0.823,0.229-1.433s-0.076-1.088-0.229-1.433c-0.154-0.345-0.336-0.603-0.545-0.771
					c-0.21-0.168-0.42-0.271-0.629-0.307c-0.211-0.036-0.375-0.054-0.496-0.054s-0.287,0.018-0.496,0.054
					c-0.211,0.036-0.42,0.139-0.63,0.307s-0.392,0.426-0.544,0.771C434.164,98.489,434.088,98.967,434.088,99.577z"/>
				<path fill="#FFFFFF" d="M441.469,96.503v0.859c0.209-0.307,0.492-0.567,0.848-0.781c0.354-0.213,0.773-0.32,1.258-0.32
					c0.403,0,0.736,0.062,0.998,0.188s0.468,0.292,0.617,0.502c0.149,0.21,0.254,0.454,0.314,0.732
					c0.061,0.278,0.091,0.571,0.091,0.877v4.09h-1.065v-3.763c0-0.161-0.006-0.351-0.018-0.569
					c-0.012-0.218-0.057-0.423-0.133-0.617c-0.076-0.194-0.204-0.357-0.381-0.49c-0.178-0.133-0.432-0.2-0.763-0.2
					c-0.146,0-0.319,0.024-0.521,0.073s-0.395,0.151-0.58,0.309s-0.344,0.387-0.473,0.689c-0.129,0.303-0.193,0.708-0.193,1.216
					v3.352h-1.064v-6.147H441.469z"/>
			</g>
		</g>
	</g>
	<g>
		<g>
			<g>
				<g>
					<path fill="#585A5E" d="M118.938,144h-0.977l-2.23-5.637V144h-1.307v-8.104h1.571l2.469,6.23l2.442-6.23h1.531V144h-1.32
						v-5.637L118.938,144z"/>
					<path fill="#585A5E" d="M127.769,142.179h1.214c-0.105,0.599-0.372,1.073-0.798,1.425c-0.427,0.353-0.983,0.528-1.67,0.528
						c-0.818,0-1.485-0.281-2-0.845c-0.515-0.562-0.772-1.298-0.772-2.204c0-0.88,0.259-1.612,0.779-2.198
						c0.519-0.585,1.175-0.878,1.967-0.878c0.81,0,1.437,0.263,1.881,0.786s0.667,1.226,0.667,2.105v0.475h-4
						c0.018,0.511,0.161,0.913,0.429,1.208c0.268,0.295,0.618,0.442,1.049,0.442C127.21,143.023,127.628,142.741,127.769,142.179z
						 M126.501,139.116c-0.37,0-0.68,0.112-0.931,0.336c-0.25,0.225-0.416,0.544-0.495,0.957h2.653
						c-0.009-0.378-0.119-0.688-0.33-0.931C127.188,139.237,126.889,139.116,126.501,139.116z"/>
					<path fill="#585A5E" d="M129.841,142.311h1.346c0.15,0.493,0.537,0.739,1.162,0.739c0.308,0,0.552-0.06,0.733-0.179
						c0.18-0.118,0.271-0.292,0.271-0.521c0-0.158-0.053-0.283-0.158-0.376c-0.106-0.092-0.282-0.169-0.528-0.23l-1.214-0.291
						c-0.968-0.229-1.452-0.766-1.452-1.61c0-0.527,0.209-0.966,0.627-1.313c0.417-0.348,0.948-0.521,1.59-0.521
						c0.669,0,1.201,0.152,1.597,0.456s0.647,0.728,0.752,1.273h-1.293c-0.132-0.431-0.488-0.646-1.069-0.646
						c-0.255,0-0.475,0.057-0.66,0.171c-0.185,0.115-0.277,0.282-0.277,0.502c0,0.256,0.202,0.436,0.607,0.541l1.241,0.291
						c1.003,0.237,1.505,0.792,1.505,1.663c0,0.572-0.213,1.027-0.64,1.366s-0.975,0.508-1.644,0.508
						c-0.686,0-1.252-0.162-1.696-0.488C130.195,143.318,129.929,142.874,129.841,142.311z"/>
					<path fill="#585A5E" d="M135.503,142.311h1.346c0.15,0.493,0.537,0.739,1.162,0.739c0.308,0,0.552-0.06,0.733-0.179
						c0.18-0.118,0.271-0.292,0.271-0.521c0-0.158-0.053-0.283-0.158-0.376c-0.106-0.092-0.282-0.169-0.528-0.23l-1.214-0.291
						c-0.968-0.229-1.452-0.766-1.452-1.61c0-0.527,0.209-0.966,0.627-1.313c0.417-0.348,0.948-0.521,1.59-0.521
						c0.669,0,1.201,0.152,1.597,0.456s0.647,0.728,0.752,1.273h-1.293c-0.132-0.431-0.488-0.646-1.069-0.646
						c-0.255,0-0.475,0.057-0.66,0.171c-0.185,0.115-0.277,0.282-0.277,0.502c0,0.256,0.202,0.436,0.607,0.541l1.241,0.291
						c1.003,0.237,1.505,0.792,1.505,1.663c0,0.572-0.213,1.027-0.64,1.366s-0.975,0.508-1.644,0.508
						c-0.686,0-1.252-0.162-1.696-0.488C135.857,143.318,135.591,142.874,135.503,142.311z"/>
					<path fill="#585A5E" d="M146.09,144h-1.254v-0.33c-0.105,0.105-0.297,0.205-0.574,0.297c-0.277,0.093-0.57,0.139-0.877,0.139
						c-0.625,0-1.146-0.174-1.564-0.521s-0.627-0.812-0.627-1.393c0-0.545,0.218-0.996,0.653-1.353s0.979-0.535,1.63-0.535
						c0.255,0,0.515,0.038,0.779,0.112c0.264,0.075,0.458,0.156,0.581,0.244v-0.475c0-0.309-0.097-0.562-0.29-0.76
						c-0.194-0.197-0.471-0.297-0.832-0.297c-0.52,0-0.854,0.212-1.003,0.634h-1.267c0.088-0.51,0.345-0.931,0.772-1.261
						s0.935-0.495,1.525-0.495c0.739,0,1.315,0.191,1.729,0.574s0.621,0.909,0.621,1.578V144z M144.835,142.442v-0.488
						c-0.07-0.176-0.22-0.319-0.449-0.429c-0.229-0.11-0.479-0.165-0.752-0.165c-0.326,0-0.609,0.07-0.851,0.211
						c-0.242,0.141-0.363,0.348-0.363,0.62c0,0.273,0.119,0.482,0.356,0.627c0.238,0.146,0.523,0.218,0.858,0.218
						c0.273,0,0.523-0.055,0.752-0.165C144.616,142.762,144.765,142.618,144.835,142.442z"/>
					<path fill="#585A5E" d="M151.449,143.604v-0.264c-0.141,0.167-0.346,0.311-0.614,0.429c-0.269,0.119-0.561,0.179-0.878,0.179
						c-0.827,0-1.487-0.29-1.98-0.871c-0.493-0.581-0.739-1.28-0.739-2.099s0.246-1.519,0.739-2.1
						c0.493-0.58,1.153-0.871,1.98-0.871c0.317,0,0.609,0.06,0.878,0.179c0.268,0.119,0.473,0.262,0.614,0.429v-0.475h1.32v5.372
						c0,0.95-0.253,1.665-0.759,2.145c-0.506,0.479-1.173,0.72-2,0.72c-0.739,0-1.34-0.183-1.802-0.548s-0.728-0.869-0.799-1.512
						h1.281c0.132,0.651,0.572,0.978,1.32,0.978C150.969,145.294,151.449,144.73,151.449,143.604z M151.449,142.086v-2.218
						c-0.115-0.202-0.286-0.369-0.515-0.501c-0.229-0.133-0.479-0.198-0.752-0.198c-0.493,0-0.882,0.167-1.168,0.501
						c-0.286,0.335-0.429,0.771-0.429,1.308c0,0.536,0.143,0.972,0.429,1.307c0.286,0.334,0.675,0.501,1.168,0.501
						c0.272,0,0.523-0.065,0.752-0.197C151.163,142.456,151.334,142.288,151.449,142.086z"/>
					<path fill="#585A5E" d="M158.022,142.179h1.214c-0.105,0.599-0.372,1.073-0.798,1.425c-0.427,0.353-0.983,0.528-1.67,0.528
						c-0.818,0-1.485-0.281-2-0.845c-0.515-0.562-0.772-1.298-0.772-2.204c0-0.88,0.259-1.612,0.779-2.198
						c0.519-0.585,1.175-0.878,1.967-0.878c0.81,0,1.437,0.263,1.881,0.786s0.667,1.226,0.667,2.105v0.475h-4
						c0.018,0.511,0.161,0.913,0.429,1.208c0.268,0.295,0.618,0.442,1.049,0.442C157.463,143.023,157.881,142.741,158.022,142.179z
						 M156.755,139.116c-0.37,0-0.68,0.112-0.931,0.336c-0.25,0.225-0.416,0.544-0.495,0.957h2.653
						c-0.009-0.378-0.119-0.688-0.33-0.931C157.441,139.237,157.142,139.116,156.755,139.116z"/>
				</g>
			</g>
			<g>
				<g>
					<path fill="#585A5E" d="M116.693,153.135h-1.755v3.022h-1.373v-8.104h3.128c0.854,0,1.529,0.22,2.026,0.66
						c0.497,0.439,0.746,1.068,0.746,1.887c0,0.811-0.249,1.435-0.746,1.875C118.222,152.915,117.547,153.135,116.693,153.135z
						 M118.106,150.6c0-0.413-0.124-0.743-0.37-0.989c-0.247-0.247-0.603-0.37-1.069-0.37h-1.729v2.706h1.729
						c0.458,0,0.812-0.123,1.062-0.369C117.98,151.33,118.106,151.005,118.106,150.6z"/>
					<path fill="#585A5E" d="M123.953,150.271v1.359c-0.185-0.132-0.444-0.198-0.779-0.198c-0.282,0-0.532,0.081-0.752,0.244
						c-0.22,0.163-0.361,0.394-0.423,0.693v3.788h-1.32v-5.86H122v0.606c0.114-0.22,0.291-0.397,0.528-0.534
						c0.237-0.137,0.497-0.205,0.779-0.205C123.614,150.164,123.83,150.199,123.953,150.271z"/>
					<path fill="#585A5E" d="M129.557,151.022c0.515,0.572,0.772,1.307,0.772,2.204s-0.257,1.633-0.772,2.205
						c-0.515,0.571-1.186,0.857-2.013,0.857s-1.498-0.286-2.013-0.857c-0.515-0.572-0.772-1.308-0.772-2.205
						s0.257-1.632,0.772-2.204c0.515-0.572,1.186-0.858,2.013-0.858S129.042,150.45,129.557,151.022z M128.626,154.619
						c0.255-0.356,0.383-0.82,0.383-1.393c0-0.571-0.128-1.036-0.383-1.393c-0.255-0.356-0.616-0.534-1.083-0.534
						s-0.827,0.178-1.083,0.534s-0.383,0.821-0.383,1.393c0,0.572,0.127,1.036,0.383,1.393s0.616,0.535,1.083,0.535
						S128.371,154.976,128.626,154.619z"/>
					<path fill="#585A5E" d="M135.358,156.157v-0.502c-0.141,0.177-0.348,0.326-0.621,0.449s-0.563,0.185-0.871,0.185
						c-0.836,0-1.498-0.292-1.987-0.878c-0.488-0.585-0.732-1.313-0.732-2.185s0.244-1.599,0.732-2.185
						c0.489-0.585,1.151-0.878,1.987-0.878c0.308,0,0.598,0.062,0.871,0.186s0.479,0.272,0.621,0.448v-3.221h1.32v8.58H135.358z
						 M135.358,154.336v-2.218c-0.115-0.229-0.286-0.416-0.515-0.562c-0.229-0.145-0.479-0.218-0.752-0.218
						c-0.502,0-0.898,0.177-1.188,0.528c-0.291,0.353-0.436,0.806-0.436,1.359c0,0.555,0.146,1.008,0.436,1.36
						c0.29,0.352,0.686,0.527,1.188,0.527c0.272,0,0.523-0.072,0.752-0.218C135.072,154.751,135.244,154.564,135.358,154.336z"/>
					<path fill="#585A5E" d="M143.186,150.297v5.86h-1.32v-0.555c-0.396,0.458-0.919,0.687-1.571,0.687s-1.157-0.198-1.518-0.594
						c-0.361-0.396-0.541-0.924-0.541-1.584v-3.814h1.32v3.59c0,0.801,0.365,1.201,1.096,1.201c0.291,0,0.548-0.086,0.772-0.257
						c0.225-0.172,0.372-0.398,0.442-0.681v-3.854H143.186z"/>
					<path fill="#585A5E" d="M145.179,155.438c-0.51-0.567-0.766-1.305-0.766-2.211s0.255-1.644,0.766-2.211
						s1.166-0.852,1.967-0.852c0.687,0,1.245,0.179,1.676,0.535s0.691,0.834,0.779,1.432h-1.32
						c-0.053-0.264-0.178-0.466-0.376-0.606c-0.198-0.141-0.446-0.212-0.746-0.212c-0.431,0-0.777,0.179-1.036,0.535
						c-0.26,0.356-0.39,0.816-0.39,1.379c0,0.563,0.13,1.023,0.39,1.38c0.259,0.356,0.605,0.534,1.036,0.534
						c0.299,0,0.548-0.07,0.746-0.211c0.198-0.141,0.324-0.343,0.376-0.607h1.32c-0.088,0.599-0.348,1.076-0.779,1.433
						s-0.99,0.534-1.676,0.534C146.345,156.289,145.689,156.006,145.179,155.438z"/>
					<path fill="#585A5E" d="M154.392,154.336h1.214c-0.105,0.599-0.372,1.073-0.798,1.425c-0.427,0.353-0.983,0.528-1.67,0.528
						c-0.818,0-1.485-0.281-2-0.845c-0.515-0.562-0.772-1.298-0.772-2.204c0-0.88,0.259-1.612,0.779-2.198
						c0.519-0.585,1.175-0.878,1.967-0.878c0.81,0,1.437,0.263,1.881,0.786s0.667,1.226,0.667,2.105v0.475h-4
						c0.018,0.511,0.161,0.913,0.429,1.208c0.268,0.295,0.618,0.442,1.049,0.442C153.833,155.181,154.251,154.898,154.392,154.336z
						 M153.125,151.273c-0.37,0-0.68,0.112-0.931,0.336c-0.25,0.225-0.416,0.544-0.495,0.957h2.653
						c-0.009-0.378-0.119-0.688-0.33-0.931C153.812,151.395,153.512,151.273,153.125,151.273z"/>
					<path fill="#585A5E" d="M160.147,150.271v1.359c-0.185-0.132-0.444-0.198-0.779-0.198c-0.282,0-0.532,0.081-0.752,0.244
						c-0.22,0.163-0.361,0.394-0.423,0.693v3.788h-1.32v-5.86h1.32v0.606c0.114-0.22,0.291-0.397,0.528-0.534
						c0.237-0.137,0.497-0.205,0.779-0.205C159.808,150.164,160.024,150.199,160.147,150.271z"/>
				</g>
			</g>
			<g id="hVCAm4_26_">
				<g>
					<path fill-rule="evenodd" clip-rule="evenodd" fill="#585A5E" d="M114.161,117.092c0.151-0.213,0.444-0.431,0.436-0.639
						c-0.249-5.545,2.992-7.986,7.875-9.255c1.987-0.516,3.899-1.515,5.688-2.562c4.67-2.735,5.23-4.908,2.691-9.551
						c-2.777-5.078-2.292-10.46-1.207-15.787c0.247-1.214,1.589-2.46,2.744-3.185c3.265-2.043,9.669-1.34,12.621,1.114
						c2.58,2.146,2.085,5.188,2.549,8.024c0.732,4.472-0.407,8.446-2.451,12.293c-1.133,2.133-0.485,3.904,1.199,5.307
						c1.24,1.032,2.629,1.927,4.06,2.672c1.442,0.752,2.973,1.444,4.547,1.814c4.621,1.084,7.543,3.56,7.78,8.584
						c0.029,0.582,0.438,1.146,0.672,1.719c0,0.363,0,0.729,0,1.092c-13.1,12.721-33.544,14.994-49.203,0
						C114.161,118.187,114.161,117.641,114.161,117.092z"/>
				</g>
			</g>
		</g>
		<path fill="none" stroke="#585A5E" stroke-width="1.363" stroke-miterlimit="10" d="M172.438,95.061
			c0,9.077-3.535,17.328-9.304,23.452c-6.238,6.62-15.087,10.755-24.902,10.755c-9.445,0-17.997-3.83-24.187-10.02
			c-6.19-6.189-10.02-14.741-10.02-24.188c0-18.892,15.314-34.206,34.206-34.206C157.125,60.854,172.438,76.169,172.438,95.061z"/>
	</g>
	<g>
		<g>
			<g>
				
					<line fill="none" stroke="#585A5E" stroke-width="1.1" stroke-miterlimit="10" x1="171.77" y1="96.363" x2="286.099" y2="96.363"/>
				<g>
					<polygon fill="#585A5E" points="285.281,99.16 290.125,96.363 285.281,93.565 					"/>
				</g>
			</g>
		</g>
	</g>
	<g>
		<g>
			<g>
				<path fill="#585A5E" d="M192.468,108.554h-1.609v2.771h-1.258v-7.429h2.868c0.782,0,1.401,0.202,1.857,0.605
					c0.456,0.403,0.684,0.98,0.684,1.73c0,0.742-0.228,1.315-0.684,1.718C193.87,108.352,193.25,108.554,192.468,108.554z
					 M193.763,106.23c0-0.379-0.113-0.682-0.339-0.907c-0.226-0.226-0.553-0.339-0.98-0.339h-1.585v2.48h1.585
					c0.419,0,0.744-0.113,0.974-0.339C193.648,106.9,193.763,106.602,193.763,106.23z"/>
				<path fill="#585A5E" d="M199.123,105.928v1.246c-0.169-0.121-0.407-0.182-0.714-0.182c-0.258,0-0.488,0.075-0.69,0.224
					s-0.331,0.361-0.387,0.635v3.473h-1.21v-5.373h1.21v0.557c0.105-0.202,0.267-0.365,0.484-0.49s0.456-0.188,0.714-0.188
					C198.812,105.832,199.01,105.864,199.123,105.928z"/>
				<path fill="#585A5E" d="M204.26,106.618c0.472,0.524,0.708,1.198,0.708,2.021s-0.236,1.496-0.708,2.021
					s-1.087,0.787-1.845,0.787s-1.374-0.262-1.845-0.787c-0.472-0.524-0.708-1.198-0.708-2.021s0.236-1.497,0.708-2.021
					c0.472-0.524,1.087-0.786,1.845-0.786S203.788,106.094,204.26,106.618z M203.407,109.915c0.234-0.327,0.351-0.752,0.351-1.276
					s-0.117-0.95-0.351-1.277s-0.565-0.49-0.992-0.49c-0.428,0-0.758,0.163-0.992,0.49s-0.351,0.752-0.351,1.277
					s0.117,0.95,0.351,1.276s0.564,0.49,0.992,0.49C202.842,110.405,203.173,110.242,203.407,109.915z"/>
				<path fill="#585A5E" d="M209.578,111.325v-0.46c-0.129,0.162-0.319,0.299-0.568,0.412c-0.25,0.113-0.517,0.169-0.799,0.169
					c-0.767,0-1.374-0.268-1.821-0.805c-0.448-0.537-0.672-1.204-0.672-2.002c0-0.799,0.224-1.466,0.672-2.003
					c0.447-0.536,1.054-0.804,1.821-0.804c0.282,0,0.548,0.056,0.799,0.169c0.25,0.113,0.439,0.25,0.568,0.412v-2.953h1.21v7.865
					H209.578z M209.578,109.655v-2.033c-0.105-0.209-0.262-0.381-0.472-0.514c-0.21-0.133-0.44-0.2-0.69-0.2
					c-0.459,0-0.823,0.162-1.089,0.484c-0.266,0.323-0.399,0.738-0.399,1.247c0,0.508,0.133,0.924,0.399,1.246
					c0.266,0.323,0.629,0.484,1.089,0.484c0.25,0,0.48-0.066,0.69-0.2C209.315,110.036,209.473,109.865,209.578,109.655z"/>
				<path fill="#585A5E" d="M216.753,105.952v5.373h-1.21v-0.508c-0.363,0.419-0.843,0.629-1.439,0.629
					c-0.597,0-1.061-0.182-1.392-0.544c-0.331-0.363-0.496-0.847-0.496-1.452v-3.497h1.21v3.292c0,0.734,0.334,1.101,1.004,1.101
					c0.266,0,0.502-0.079,0.708-0.236c0.206-0.158,0.341-0.365,0.405-0.624v-3.533H216.753z"/>
				<path fill="#585A5E" d="M218.58,110.665c-0.468-0.52-0.702-1.196-0.702-2.026c0-0.831,0.234-1.507,0.702-2.027
					c0.468-0.521,1.069-0.78,1.803-0.78c0.629,0,1.141,0.163,1.537,0.49c0.395,0.327,0.633,0.765,0.714,1.313h-1.21
					c-0.048-0.242-0.164-0.428-0.345-0.557c-0.182-0.129-0.41-0.194-0.684-0.194c-0.396,0-0.712,0.164-0.95,0.49
					s-0.357,0.749-0.357,1.265s0.119,0.938,0.357,1.264s0.555,0.49,0.95,0.49c0.274,0,0.502-0.064,0.684-0.194
					c0.181-0.129,0.296-0.314,0.345-0.557h1.21c-0.081,0.549-0.319,0.986-0.714,1.313c-0.396,0.327-0.908,0.49-1.537,0.49
					C219.648,111.446,219.047,111.186,218.58,110.665z"/>
				<path fill="#585A5E" d="M227.025,109.655h1.113c-0.097,0.549-0.341,0.984-0.732,1.307c-0.392,0.323-0.901,0.484-1.531,0.484
					c-0.75,0-1.361-0.258-1.833-0.774c-0.472-0.516-0.708-1.19-0.708-2.021c0-0.806,0.238-1.478,0.714-2.015
					c0.476-0.536,1.077-0.804,1.803-0.804c0.742,0,1.316,0.24,1.724,0.72c0.407,0.48,0.611,1.124,0.611,1.93v0.436h-3.666
					c0.016,0.468,0.147,0.837,0.393,1.107c0.246,0.271,0.567,0.405,0.962,0.405C226.513,110.429,226.896,110.171,227.025,109.655z
					 M225.864,106.848c-0.338,0-0.623,0.103-0.853,0.309c-0.229,0.206-0.381,0.498-0.454,0.877h2.432
					c-0.008-0.347-0.109-0.631-0.303-0.853C226.493,106.958,226.219,106.848,225.864,106.848z"/>
				<path fill="#585A5E" d="M236.185,111.325h-0.896l-2.045-5.167v5.167h-1.198v-7.429h1.44l2.263,5.711l2.238-5.711h1.404v7.429
					h-1.21v-5.167L236.185,111.325z"/>
				<path fill="#585A5E" d="M244.28,109.655h1.113c-0.097,0.549-0.341,0.984-0.732,1.307c-0.392,0.323-0.901,0.484-1.531,0.484
					c-0.75,0-1.361-0.258-1.833-0.774c-0.472-0.516-0.708-1.19-0.708-2.021c0-0.806,0.238-1.478,0.714-2.015
					c0.476-0.536,1.077-0.804,1.803-0.804c0.742,0,1.316,0.24,1.724,0.72c0.407,0.48,0.611,1.124,0.611,1.93v0.436h-3.666
					c0.016,0.468,0.147,0.837,0.393,1.107c0.246,0.271,0.567,0.405,0.962,0.405C243.768,110.429,244.151,110.171,244.28,109.655z
					 M243.118,106.848c-0.338,0-0.623,0.103-0.853,0.309c-0.229,0.206-0.381,0.498-0.454,0.877h2.432
					c-0.008-0.347-0.109-0.631-0.303-0.853C243.748,106.958,243.473,106.848,243.118,106.848z"/>
				<path fill="#585A5E" d="M246.179,109.776h1.234c0.137,0.452,0.492,0.678,1.065,0.678c0.282,0,0.506-0.055,0.671-0.164
					c0.165-0.109,0.248-0.268,0.248-0.478c0-0.145-0.048-0.26-0.145-0.345c-0.097-0.084-0.258-0.155-0.484-0.212l-1.113-0.266
					c-0.887-0.209-1.331-0.702-1.331-1.476c0-0.484,0.191-0.885,0.575-1.204c0.383-0.318,0.869-0.478,1.458-0.478
					c0.613,0,1.101,0.139,1.464,0.417c0.363,0.278,0.593,0.668,0.69,1.168h-1.186c-0.121-0.395-0.448-0.593-0.98-0.593
					c-0.234,0-0.436,0.052-0.605,0.157s-0.254,0.258-0.254,0.459c0,0.234,0.185,0.399,0.556,0.496l1.138,0.267
					c0.919,0.218,1.379,0.726,1.379,1.524c0,0.524-0.196,0.942-0.587,1.252c-0.392,0.311-0.894,0.466-1.506,0.466
					c-0.629,0-1.148-0.149-1.555-0.448S246.26,110.292,246.179,109.776z"/>
				<path fill="#585A5E" d="M251.37,109.776h1.234c0.137,0.452,0.492,0.678,1.065,0.678c0.282,0,0.506-0.055,0.671-0.164
					c0.165-0.109,0.248-0.268,0.248-0.478c0-0.145-0.048-0.26-0.145-0.345c-0.097-0.084-0.258-0.155-0.484-0.212l-1.113-0.266
					c-0.887-0.209-1.331-0.702-1.331-1.476c0-0.484,0.191-0.885,0.575-1.204c0.383-0.318,0.869-0.478,1.458-0.478
					c0.613,0,1.101,0.139,1.464,0.417c0.363,0.278,0.593,0.668,0.69,1.168h-1.186c-0.121-0.395-0.448-0.593-0.98-0.593
					c-0.234,0-0.436,0.052-0.605,0.157s-0.254,0.258-0.254,0.459c0,0.234,0.185,0.399,0.556,0.496l1.138,0.267
					c0.919,0.218,1.379,0.726,1.379,1.524c0,0.524-0.196,0.942-0.587,1.252c-0.392,0.311-0.894,0.466-1.506,0.466
					c-0.629,0-1.148-0.149-1.555-0.448S251.451,110.292,251.37,109.776z"/>
				<path fill="#585A5E" d="M261.074,111.325h-1.149v-0.303c-0.097,0.097-0.272,0.188-0.526,0.272
					c-0.254,0.085-0.522,0.127-0.805,0.127c-0.573,0-1.051-0.159-1.434-0.478c-0.383-0.318-0.575-0.744-0.575-1.276
					c0-0.5,0.2-0.914,0.599-1.24c0.399-0.327,0.897-0.49,1.495-0.49c0.234,0,0.472,0.035,0.714,0.103
					c0.242,0.069,0.419,0.144,0.532,0.224v-0.436c0-0.282-0.089-0.514-0.266-0.696c-0.177-0.181-0.432-0.272-0.762-0.272
					c-0.476,0-0.783,0.193-0.919,0.581h-1.162c0.081-0.468,0.316-0.853,0.708-1.155c0.391-0.303,0.857-0.454,1.397-0.454
					c0.678,0,1.206,0.175,1.585,0.526c0.379,0.351,0.568,0.833,0.568,1.446V111.325z M259.924,109.897v-0.448
					c-0.064-0.161-0.202-0.292-0.411-0.393c-0.21-0.101-0.44-0.151-0.69-0.151c-0.298,0-0.559,0.064-0.78,0.193
					c-0.222,0.129-0.333,0.319-0.333,0.569s0.109,0.442,0.327,0.575c0.218,0.133,0.48,0.2,0.787,0.2c0.25,0,0.48-0.05,0.69-0.151
					C259.723,110.189,259.86,110.059,259.924,109.897z"/>
				<path fill="#585A5E" d="M265.986,110.962v-0.242c-0.129,0.153-0.316,0.284-0.562,0.393s-0.514,0.164-0.805,0.164
					c-0.758,0-1.363-0.266-1.815-0.799c-0.452-0.532-0.678-1.173-0.678-1.924c0-0.75,0.226-1.392,0.678-1.924
					s1.057-0.798,1.815-0.798c0.291,0,0.559,0.054,0.805,0.163s0.434,0.24,0.562,0.393v-0.436h1.21v4.925
					c0,0.871-0.232,1.527-0.696,1.967s-1.075,0.658-1.833,0.658c-0.678,0-1.228-0.166-1.651-0.502
					c-0.424-0.334-0.668-0.797-0.732-1.385h1.174c0.121,0.597,0.524,0.895,1.21,0.895
					C265.547,112.51,265.986,111.994,265.986,110.962z M265.986,109.57v-2.033c-0.105-0.186-0.262-0.339-0.472-0.46
					c-0.21-0.121-0.44-0.182-0.69-0.182c-0.452,0-0.809,0.153-1.071,0.46s-0.393,0.706-0.393,1.198c0,0.492,0.131,0.892,0.393,1.198
					c0.262,0.307,0.619,0.46,1.071,0.46c0.25,0,0.48-0.061,0.69-0.182C265.724,109.909,265.881,109.756,265.986,109.57z"/>
				<path fill="#585A5E" d="M272.012,109.655h1.113c-0.097,0.549-0.341,0.984-0.732,1.307c-0.392,0.323-0.901,0.484-1.531,0.484
					c-0.75,0-1.361-0.258-1.833-0.774c-0.472-0.516-0.708-1.19-0.708-2.021c0-0.806,0.238-1.478,0.714-2.015
					c0.476-0.536,1.077-0.804,1.803-0.804c0.742,0,1.316,0.24,1.724,0.72c0.407,0.48,0.611,1.124,0.611,1.93v0.436h-3.666
					c0.016,0.468,0.147,0.837,0.393,1.107c0.246,0.271,0.567,0.405,0.962,0.405C271.5,110.429,271.883,110.171,272.012,109.655z
					 M270.851,106.848c-0.338,0-0.623,0.103-0.853,0.309c-0.229,0.206-0.381,0.498-0.454,0.877h2.432
					c-0.008-0.347-0.109-0.631-0.303-0.853C271.48,106.958,271.206,106.848,270.851,106.848z"/>
			</g>
		</g>
	</g>
	<g>
		<g>
			<g>
				
					<line fill="none" stroke="#585A5E" stroke-width="1.1" stroke-miterlimit="10" x1="465.357" y1="96.363" x2="579.688" y2="96.363"/>
				<g>
					<polygon fill="#585A5E" points="578.868,99.16 583.713,96.363 578.868,93.565 					"/>
				</g>
			</g>
		</g>
	</g>
	<g>
		<g>
			<g>
				<path fill="#585A5E" d="M477.544,105.008v-1.113h6.195v1.113h-2.468v6.316h-1.259v-6.316H477.544z"/>
				<path fill="#585A5E" d="M487.854,105.928v1.246c-0.17-0.121-0.408-0.182-0.715-0.182c-0.258,0-0.488,0.075-0.689,0.224
					s-0.33,0.361-0.387,0.635v3.473h-1.211v-5.373h1.211v0.557c0.104-0.202,0.266-0.365,0.484-0.49
					c0.217-0.125,0.455-0.188,0.713-0.188C487.543,105.832,487.74,105.864,487.854,105.928z"/>
				<path fill="#585A5E" d="M492.923,111.325h-1.149v-0.303c-0.097,0.097-0.271,0.188-0.526,0.272
					c-0.254,0.085-0.522,0.127-0.805,0.127c-0.573,0-1.051-0.159-1.434-0.478c-0.384-0.318-0.575-0.744-0.575-1.276
					c0-0.5,0.2-0.914,0.6-1.24c0.398-0.327,0.896-0.49,1.494-0.49c0.234,0,0.472,0.035,0.714,0.103
					c0.242,0.069,0.419,0.144,0.532,0.224v-0.436c0-0.282-0.089-0.514-0.266-0.696c-0.178-0.181-0.432-0.272-0.763-0.272
					c-0.476,0-0.782,0.193-0.919,0.581h-1.162c0.08-0.468,0.316-0.853,0.707-1.155c0.392-0.303,0.857-0.454,1.398-0.454
					c0.678,0,1.205,0.175,1.585,0.526c0.379,0.351,0.568,0.833,0.568,1.446V111.325z M491.773,109.897v-0.448
					c-0.064-0.161-0.201-0.292-0.411-0.393c-0.21-0.101-0.44-0.151-0.69-0.151c-0.298,0-0.559,0.064-0.779,0.193
					c-0.223,0.129-0.334,0.319-0.334,0.569s0.109,0.442,0.327,0.575c0.218,0.133,0.479,0.2,0.786,0.2c0.25,0,0.48-0.05,0.69-0.151
					C491.572,110.189,491.709,110.059,491.773,109.897z"/>
				<path fill="#585A5E" d="M494.351,111.325v-5.373h1.21v0.508c0.363-0.419,0.848-0.629,1.452-0.629
					c0.597,0,1.063,0.181,1.397,0.544c0.335,0.363,0.502,0.847,0.502,1.452v3.497h-1.209v-3.291c0-0.347-0.086-0.617-0.255-0.811
					c-0.169-0.193-0.423-0.29-0.763-0.29c-0.266,0-0.504,0.079-0.713,0.236c-0.211,0.157-0.348,0.365-0.412,0.623v3.533H494.351z"/>
				<path fill="#585A5E" d="M499.965,109.776h1.234c0.137,0.452,0.492,0.678,1.064,0.678c0.283,0,0.506-0.055,0.672-0.164
					c0.165-0.109,0.248-0.268,0.248-0.478c0-0.145-0.049-0.26-0.145-0.345c-0.098-0.084-0.259-0.155-0.484-0.212l-1.113-0.266
					c-0.888-0.209-1.331-0.702-1.331-1.476c0-0.484,0.191-0.885,0.575-1.204c0.383-0.318,0.869-0.478,1.457-0.478
					c0.613,0,1.102,0.139,1.465,0.417s0.592,0.668,0.689,1.168h-1.186c-0.121-0.395-0.448-0.593-0.98-0.593
					c-0.234,0-0.436,0.052-0.605,0.157c-0.169,0.105-0.254,0.258-0.254,0.459c0,0.234,0.186,0.399,0.557,0.496l1.138,0.267
					c0.919,0.218,1.38,0.726,1.38,1.524c0,0.524-0.196,0.942-0.588,1.252c-0.391,0.311-0.893,0.466-1.506,0.466
					c-0.629,0-1.148-0.149-1.555-0.448C500.289,110.7,500.045,110.292,499.965,109.776z"/>
				<path fill="#585A5E" d="M508.496,103.484v1.065c-0.17-0.113-0.367-0.169-0.594-0.169c-0.242,0-0.434,0.071-0.574,0.211
					c-0.142,0.142-0.212,0.345-0.212,0.611v0.75h1.173v1.004h-1.173v4.368h-1.187v-4.368h-0.932v-1.004h0.932v-0.835
					c0-0.556,0.166-0.992,0.496-1.307c0.331-0.314,0.755-0.472,1.271-0.472C508.012,103.339,508.277,103.387,508.496,103.484z"/>
				<path fill="#585A5E" d="M513.39,106.618c0.472,0.524,0.708,1.198,0.708,2.021s-0.236,1.496-0.708,2.021
					s-1.087,0.787-1.845,0.787c-0.759,0-1.374-0.262-1.846-0.787c-0.473-0.524-0.708-1.198-0.708-2.021s0.235-1.497,0.708-2.021
					c0.472-0.524,1.087-0.786,1.846-0.786C512.303,105.832,512.918,106.094,513.39,106.618z M512.537,109.915
					c0.233-0.327,0.351-0.752,0.351-1.276s-0.117-0.95-0.351-1.277c-0.234-0.327-0.565-0.49-0.992-0.49
					c-0.428,0-0.759,0.163-0.992,0.49c-0.234,0.327-0.352,0.752-0.352,1.277s0.117,0.95,0.352,1.276
					c0.233,0.327,0.564,0.49,0.992,0.49C511.972,110.405,512.303,110.242,512.537,109.915z"/>
				<path fill="#585A5E" d="M518.224,105.928v1.246c-0.169-0.121-0.407-0.182-0.714-0.182c-0.258,0-0.488,0.075-0.689,0.224
					c-0.202,0.149-0.331,0.361-0.388,0.635v3.473h-1.21v-5.373h1.21v0.557c0.104-0.202,0.267-0.365,0.484-0.49
					s0.456-0.188,0.714-0.188C517.913,105.832,518.111,105.864,518.224,105.928z"/>
				<path fill="#585A5E" d="M523.306,106.545c0.411-0.476,0.943-0.714,1.597-0.714c0.549,0,0.977,0.179,1.283,0.538
					c0.307,0.359,0.459,0.845,0.459,1.458v3.497h-1.209v-3.303c0-0.339-0.075-0.607-0.225-0.805
					c-0.148-0.198-0.369-0.296-0.659-0.296c-0.226,0-0.43,0.068-0.61,0.206c-0.182,0.137-0.297,0.335-0.346,0.593v3.606h-1.21
					v-3.303c0-0.339-0.075-0.607-0.224-0.805c-0.149-0.198-0.369-0.296-0.66-0.296c-0.226,0-0.43,0.068-0.61,0.206
					c-0.182,0.137-0.296,0.335-0.345,0.593v3.606h-1.211v-5.373h1.211v0.448c0.282-0.379,0.729-0.568,1.343-0.568
					c0.298,0,0.573,0.066,0.823,0.199C522.963,106.164,523.16,106.335,523.306,106.545z"/>
				<path fill="#585A5E" d="M534.957,111.325h-0.895l-2.045-5.167v5.167h-1.198v-7.429h1.44l2.262,5.711l2.238-5.711h1.404v7.429
					h-1.21v-5.167L534.957,111.325z"/>
				<path fill="#585A5E" d="M543.053,109.655h1.113c-0.098,0.549-0.342,0.984-0.732,1.307c-0.392,0.323-0.901,0.484-1.531,0.484
					c-0.75,0-1.361-0.258-1.832-0.774c-0.473-0.516-0.709-1.19-0.709-2.021c0-0.806,0.238-1.478,0.715-2.015
					c0.476-0.536,1.076-0.804,1.803-0.804c0.742,0,1.316,0.24,1.725,0.72c0.406,0.48,0.61,1.124,0.61,1.93v0.436h-3.666
					c0.017,0.468,0.147,0.837,0.394,1.107c0.246,0.271,0.566,0.405,0.961,0.405C542.54,110.429,542.924,110.171,543.053,109.655z
					 M541.891,106.848c-0.338,0-0.623,0.103-0.854,0.309c-0.229,0.206-0.381,0.498-0.453,0.877h2.432
					c-0.008-0.347-0.108-0.631-0.303-0.853C542.52,106.958,542.246,106.848,541.891,106.848z"/>
				<path fill="#585A5E" d="M544.951,109.776h1.234c0.138,0.452,0.492,0.678,1.065,0.678c0.282,0,0.506-0.055,0.671-0.164
					c0.166-0.109,0.248-0.268,0.248-0.478c0-0.145-0.048-0.26-0.145-0.345c-0.098-0.084-0.258-0.155-0.484-0.212l-1.113-0.266
					c-0.887-0.209-1.33-0.702-1.33-1.476c0-0.484,0.191-0.885,0.574-1.204c0.383-0.318,0.869-0.478,1.458-0.478
					c0.612,0,1.101,0.139,1.464,0.417s0.593,0.668,0.689,1.168h-1.186c-0.121-0.395-0.447-0.593-0.98-0.593
					c-0.233,0-0.436,0.052-0.604,0.157s-0.254,0.258-0.254,0.459c0,0.234,0.185,0.399,0.556,0.496l1.139,0.267
					c0.919,0.218,1.379,0.726,1.379,1.524c0,0.524-0.195,0.942-0.587,1.252s-0.894,0.466-1.507,0.466
					c-0.629,0-1.147-0.149-1.555-0.448S545.032,110.292,544.951,109.776z"/>
				<path fill="#585A5E" d="M550.143,109.776h1.234c0.137,0.452,0.492,0.678,1.064,0.678c0.283,0,0.506-0.055,0.672-0.164
					c0.165-0.109,0.248-0.268,0.248-0.478c0-0.145-0.049-0.26-0.145-0.345c-0.098-0.084-0.259-0.155-0.484-0.212l-1.113-0.266
					c-0.888-0.209-1.331-0.702-1.331-1.476c0-0.484,0.191-0.885,0.575-1.204c0.383-0.318,0.869-0.478,1.457-0.478
					c0.613,0,1.102,0.139,1.465,0.417s0.592,0.668,0.689,1.168h-1.186c-0.121-0.395-0.448-0.593-0.98-0.593
					c-0.234,0-0.436,0.052-0.605,0.157c-0.169,0.105-0.254,0.258-0.254,0.459c0,0.234,0.186,0.399,0.557,0.496l1.138,0.267
					c0.919,0.218,1.38,0.726,1.38,1.524c0,0.524-0.196,0.942-0.588,1.252c-0.391,0.311-0.893,0.466-1.506,0.466
					c-0.629,0-1.148-0.149-1.555-0.448C550.467,110.7,550.223,110.292,550.143,109.776z"/>
				<path fill="#585A5E" d="M559.847,111.325h-1.149v-0.303c-0.097,0.097-0.271,0.188-0.526,0.272
					c-0.254,0.085-0.522,0.127-0.805,0.127c-0.573,0-1.051-0.159-1.434-0.478c-0.384-0.318-0.575-0.744-0.575-1.276
					c0-0.5,0.2-0.914,0.6-1.24c0.398-0.327,0.896-0.49,1.494-0.49c0.234,0,0.472,0.035,0.714,0.103
					c0.242,0.069,0.419,0.144,0.532,0.224v-0.436c0-0.282-0.089-0.514-0.266-0.696c-0.178-0.181-0.432-0.272-0.763-0.272
					c-0.476,0-0.782,0.193-0.919,0.581h-1.162c0.08-0.468,0.316-0.853,0.707-1.155c0.392-0.303,0.857-0.454,1.398-0.454
					c0.678,0,1.205,0.175,1.585,0.526c0.379,0.351,0.568,0.833,0.568,1.446V111.325z M558.697,109.897v-0.448
					c-0.064-0.161-0.201-0.292-0.411-0.393c-0.21-0.101-0.44-0.151-0.69-0.151c-0.298,0-0.559,0.064-0.779,0.193
					c-0.223,0.129-0.334,0.319-0.334,0.569s0.109,0.442,0.327,0.575c0.218,0.133,0.479,0.2,0.786,0.2c0.25,0,0.48-0.05,0.69-0.151
					C558.496,110.189,558.633,110.059,558.697,109.897z"/>
				<path fill="#585A5E" d="M564.76,110.962v-0.242c-0.129,0.153-0.316,0.284-0.562,0.393s-0.515,0.164-0.805,0.164
					c-0.759,0-1.363-0.266-1.815-0.799c-0.452-0.532-0.678-1.173-0.678-1.924c0-0.75,0.226-1.392,0.678-1.924
					s1.057-0.798,1.815-0.798c0.29,0,0.559,0.054,0.805,0.163s0.434,0.24,0.562,0.393v-0.436h1.209v4.925
					c0,0.871-0.231,1.527-0.695,1.967s-1.074,0.658-1.833,0.658c-0.678,0-1.228-0.166-1.651-0.502
					c-0.424-0.334-0.668-0.797-0.732-1.385h1.174c0.121,0.597,0.524,0.895,1.21,0.895C564.32,112.51,564.76,111.994,564.76,110.962z
					 M564.76,109.57v-2.033c-0.105-0.186-0.263-0.339-0.473-0.46c-0.209-0.121-0.439-0.182-0.689-0.182
					c-0.451,0-0.809,0.153-1.07,0.46c-0.263,0.307-0.394,0.706-0.394,1.198c0,0.492,0.131,0.892,0.394,1.198
					c0.262,0.307,0.619,0.46,1.07,0.46c0.25,0,0.48-0.061,0.689-0.182C564.497,109.909,564.654,109.756,564.76,109.57z"/>
				<path fill="#585A5E" d="M570.785,109.655h1.113c-0.098,0.549-0.342,0.984-0.732,1.307c-0.392,0.323-0.901,0.484-1.531,0.484
					c-0.75,0-1.361-0.258-1.832-0.774c-0.473-0.516-0.709-1.19-0.709-2.021c0-0.806,0.238-1.478,0.715-2.015
					c0.476-0.536,1.076-0.804,1.803-0.804c0.742,0,1.316,0.24,1.725,0.72c0.406,0.48,0.61,1.124,0.61,1.93v0.436h-3.666
					c0.017,0.468,0.147,0.837,0.394,1.107c0.246,0.271,0.566,0.405,0.961,0.405C570.272,110.429,570.656,110.171,570.785,109.655z
					 M569.623,106.848c-0.338,0-0.623,0.103-0.854,0.309c-0.229,0.206-0.381,0.498-0.453,0.877h2.432
					c-0.008-0.347-0.108-0.631-0.303-0.853C570.252,106.958,569.979,106.848,569.623,106.848z"/>
			</g>
		</g>
	</g>
	<g>
		<g>
			<g>
				<g>
					<path fill="#585A5E" d="M598.625,144h-0.978l-2.23-5.637V144h-1.308v-8.104h1.571l2.469,6.23l2.442-6.23h1.531V144h-1.32
						v-5.637L598.625,144z"/>
					<path fill="#585A5E" d="M607.455,142.179h1.215c-0.105,0.599-0.372,1.073-0.799,1.425c-0.428,0.353-0.983,0.528-1.67,0.528
						c-0.818,0-1.484-0.281-2-0.845c-0.515-0.562-0.771-1.298-0.771-2.204c0-0.88,0.259-1.612,0.778-2.198
						c0.519-0.585,1.175-0.878,1.967-0.878c0.81,0,1.437,0.263,1.881,0.786s0.667,1.226,0.667,2.105v0.475h-4
						c0.018,0.511,0.16,0.913,0.43,1.208c0.268,0.295,0.617,0.442,1.049,0.442C606.896,143.023,607.314,142.741,607.455,142.179z
						 M606.188,139.116c-0.369,0-0.68,0.112-0.93,0.336c-0.251,0.225-0.416,0.544-0.496,0.957h2.654
						c-0.01-0.378-0.119-0.688-0.33-0.931C606.875,139.237,606.575,139.116,606.188,139.116z"/>
					<path fill="#585A5E" d="M609.527,142.311h1.346c0.15,0.493,0.537,0.739,1.162,0.739c0.309,0,0.553-0.06,0.732-0.179
						c0.181-0.118,0.271-0.292,0.271-0.521c0-0.158-0.053-0.283-0.158-0.376c-0.106-0.092-0.282-0.169-0.529-0.23l-1.214-0.291
						c-0.968-0.229-1.452-0.766-1.452-1.61c0-0.527,0.209-0.966,0.627-1.313s0.948-0.521,1.591-0.521
						c0.669,0,1.201,0.152,1.597,0.456c0.396,0.304,0.647,0.728,0.753,1.273h-1.294c-0.132-0.431-0.488-0.646-1.068-0.646
						c-0.256,0-0.476,0.057-0.66,0.171c-0.186,0.115-0.277,0.282-0.277,0.502c0,0.256,0.202,0.436,0.607,0.541l1.24,0.291
						c1.004,0.237,1.505,0.792,1.505,1.663c0,0.572-0.214,1.027-0.64,1.366c-0.428,0.339-0.975,0.508-1.645,0.508
						c-0.686,0-1.252-0.162-1.695-0.488C609.881,143.318,609.615,142.874,609.527,142.311z"/>
					<path fill="#585A5E" d="M615.189,142.311h1.347c0.149,0.493,0.537,0.739,1.161,0.739c0.309,0,0.553-0.06,0.733-0.179
						c0.181-0.118,0.271-0.292,0.271-0.521c0-0.158-0.053-0.283-0.158-0.376c-0.105-0.092-0.281-0.169-0.528-0.23l-1.214-0.291
						c-0.969-0.229-1.453-0.766-1.453-1.61c0-0.527,0.209-0.966,0.628-1.313c0.417-0.348,0.948-0.521,1.591-0.521
						c0.668,0,1.201,0.152,1.597,0.456s0.647,0.728,0.753,1.273h-1.294c-0.132-0.431-0.488-0.646-1.069-0.646
						c-0.256,0-0.475,0.057-0.66,0.171c-0.185,0.115-0.277,0.282-0.277,0.502c0,0.256,0.203,0.436,0.607,0.541l1.24,0.291
						c1.004,0.237,1.506,0.792,1.506,1.663c0,0.572-0.214,1.027-0.641,1.366s-0.975,0.508-1.644,0.508
						c-0.687,0-1.252-0.162-1.696-0.488C615.544,143.318,615.277,142.874,615.189,142.311z"/>
					<path fill="#585A5E" d="M625.776,144h-1.255v-0.33c-0.105,0.105-0.297,0.205-0.574,0.297c-0.276,0.093-0.569,0.139-0.877,0.139
						c-0.625,0-1.146-0.174-1.564-0.521s-0.627-0.812-0.627-1.393c0-0.545,0.218-0.996,0.653-1.353s0.979-0.535,1.63-0.535
						c0.256,0,0.516,0.038,0.779,0.112c0.264,0.075,0.457,0.156,0.58,0.244v-0.475c0-0.309-0.096-0.562-0.289-0.76
						c-0.194-0.197-0.472-0.297-0.832-0.297c-0.52,0-0.854,0.212-1.004,0.634h-1.267c0.088-0.51,0.345-0.931,0.772-1.261
						c0.426-0.33,0.935-0.495,1.524-0.495c0.739,0,1.315,0.191,1.729,0.574c0.413,0.383,0.62,0.909,0.62,1.578V144z
						 M624.521,142.442v-0.488c-0.07-0.176-0.219-0.319-0.448-0.429c-0.229-0.11-0.479-0.165-0.753-0.165
						c-0.325,0-0.609,0.07-0.851,0.211c-0.242,0.141-0.363,0.348-0.363,0.62c0,0.273,0.119,0.482,0.356,0.627
						c0.238,0.146,0.523,0.218,0.857,0.218c0.273,0,0.523-0.055,0.753-0.165C624.303,142.762,624.451,142.618,624.521,142.442z"/>
					<path fill="#585A5E" d="M631.135,143.604v-0.264c-0.141,0.167-0.346,0.311-0.613,0.429c-0.269,0.119-0.561,0.179-0.878,0.179
						c-0.827,0-1.487-0.29-1.979-0.871c-0.494-0.581-0.74-1.28-0.74-2.099s0.246-1.519,0.74-2.1c0.492-0.58,1.152-0.871,1.979-0.871
						c0.317,0,0.609,0.06,0.878,0.179c0.268,0.119,0.473,0.262,0.613,0.429v-0.475h1.32v5.372c0,0.95-0.253,1.665-0.759,2.145
						c-0.507,0.479-1.173,0.72-2,0.72c-0.739,0-1.34-0.183-1.802-0.548s-0.729-0.869-0.799-1.512h1.281
						c0.131,0.651,0.571,0.978,1.319,0.978C630.655,145.294,631.135,144.73,631.135,143.604z M631.135,142.086v-2.218
						c-0.114-0.202-0.285-0.369-0.515-0.501c-0.229-0.133-0.479-0.198-0.752-0.198c-0.493,0-0.882,0.167-1.169,0.501
						c-0.285,0.335-0.429,0.771-0.429,1.308c0,0.536,0.144,0.972,0.429,1.307c0.287,0.334,0.676,0.501,1.169,0.501
						c0.272,0,0.523-0.065,0.752-0.197C630.85,142.456,631.021,142.288,631.135,142.086z"/>
					<path fill="#585A5E" d="M637.709,142.179h1.214c-0.105,0.599-0.372,1.073-0.798,1.425c-0.428,0.353-0.984,0.528-1.67,0.528
						c-0.818,0-1.485-0.281-2-0.845c-0.516-0.562-0.772-1.298-0.772-2.204c0-0.88,0.259-1.612,0.778-2.198
						c0.52-0.585,1.176-0.878,1.967-0.878c0.811,0,1.438,0.263,1.881,0.786c0.445,0.523,0.668,1.226,0.668,2.105v0.475h-4
						c0.018,0.511,0.16,0.913,0.429,1.208s0.618,0.442,1.05,0.442C637.15,143.023,637.568,142.741,637.709,142.179z
						 M636.441,139.116c-0.369,0-0.68,0.112-0.931,0.336c-0.251,0.225-0.415,0.544-0.495,0.957h2.653
						c-0.009-0.378-0.118-0.688-0.33-0.931C637.128,139.237,636.828,139.116,636.441,139.116z"/>
				</g>
			</g>
			<g>
				<g>
					<path fill="#585A5E" d="M591.259,155.121c-0.699-0.779-1.05-1.784-1.05-3.017c0-1.231,0.351-2.237,1.05-3.016
						c0.7-0.779,1.577-1.168,2.634-1.168c0.897,0,1.632,0.239,2.204,0.719c0.571,0.479,0.938,1.134,1.096,1.96h-1.347
						c-0.352-0.959-1.003-1.438-1.953-1.438c-0.705,0-1.264,0.275-1.677,0.825s-0.62,1.256-0.62,2.118
						c0,0.863,0.207,1.569,0.62,2.119s0.972,0.825,1.677,0.825c0.95,0,1.602-0.484,1.953-1.452h1.347
						c-0.158,0.836-0.524,1.493-1.096,1.974c-0.572,0.479-1.307,0.719-2.204,0.719C592.836,156.289,591.959,155.899,591.259,155.121
						z"/>
					<path fill="#585A5E" d="M602.836,151.022c0.514,0.572,0.771,1.307,0.771,2.204s-0.258,1.633-0.771,2.205
						c-0.516,0.571-1.187,0.857-2.014,0.857s-1.498-0.286-2.013-0.857c-0.515-0.572-0.772-1.308-0.772-2.205
						s0.258-1.632,0.772-2.204s1.186-0.858,2.013-0.858S602.32,150.45,602.836,151.022z M601.904,154.619
						c0.256-0.356,0.383-0.82,0.383-1.393c0-0.571-0.127-1.036-0.383-1.393c-0.255-0.356-0.615-0.534-1.082-0.534
						s-0.827,0.178-1.082,0.534c-0.256,0.356-0.383,0.821-0.383,1.393c0,0.572,0.127,1.036,0.383,1.393
						c0.255,0.356,0.615,0.535,1.082,0.535S601.649,154.976,601.904,154.619z"/>
					<path fill="#585A5E" d="M604.835,156.157v-5.86h1.319v0.554c0.396-0.457,0.925-0.687,1.584-0.687
						c0.652,0,1.16,0.198,1.525,0.595c0.365,0.396,0.548,0.924,0.548,1.584v3.814h-1.32v-3.591c0-0.378-0.093-0.673-0.276-0.884
						c-0.186-0.211-0.463-0.317-0.832-0.317c-0.291,0-0.551,0.086-0.779,0.258s-0.379,0.398-0.449,0.68v3.854H604.835z"/>
					<path fill="#585A5E" d="M610.959,154.468h1.347c0.149,0.493,0.537,0.739,1.161,0.739c0.309,0,0.553-0.06,0.733-0.179
						c0.181-0.118,0.271-0.292,0.271-0.521c0-0.158-0.053-0.283-0.158-0.376c-0.105-0.092-0.281-0.169-0.528-0.23l-1.214-0.291
						c-0.969-0.229-1.453-0.766-1.453-1.61c0-0.527,0.209-0.966,0.628-1.313c0.417-0.348,0.948-0.521,1.591-0.521
						c0.668,0,1.201,0.152,1.597,0.456s0.647,0.728,0.753,1.273h-1.294c-0.132-0.431-0.488-0.646-1.069-0.646
						c-0.256,0-0.475,0.057-0.66,0.171c-0.185,0.115-0.277,0.282-0.277,0.502c0,0.256,0.203,0.436,0.607,0.541l1.24,0.291
						c1.004,0.237,1.506,0.792,1.506,1.663c0,0.572-0.214,1.027-0.641,1.366s-0.975,0.508-1.644,0.508
						c-0.687,0-1.252-0.162-1.696-0.488C611.313,155.476,611.047,155.031,610.959,154.468z"/>
					<path fill="#585A5E" d="M621.902,150.297v5.86h-1.32v-0.555c-0.396,0.458-0.92,0.687-1.57,0.687
						c-0.652,0-1.158-0.198-1.519-0.594c-0.36-0.396-0.541-0.924-0.541-1.584v-3.814h1.319v3.59c0,0.801,0.365,1.201,1.096,1.201
						c0.291,0,0.549-0.086,0.772-0.257c0.225-0.172,0.372-0.398,0.442-0.681v-3.854H621.902z"/>
					<path fill="#585A5E" d="M627.869,150.943c0.448-0.52,1.029-0.779,1.742-0.779c0.598,0,1.064,0.196,1.398,0.588
						c0.335,0.392,0.502,0.922,0.502,1.591v3.814h-1.32v-3.604c0-0.37-0.081-0.662-0.244-0.878
						c-0.162-0.216-0.402-0.323-0.719-0.323c-0.246,0-0.469,0.075-0.667,0.225s-0.323,0.365-0.376,0.646v3.934h-1.32v-3.604
						c0-0.37-0.081-0.662-0.244-0.878c-0.162-0.216-0.402-0.323-0.719-0.323c-0.247,0-0.469,0.075-0.667,0.225
						s-0.323,0.365-0.376,0.646v3.934h-1.32v-5.86h1.32v0.488c0.308-0.414,0.796-0.621,1.465-0.621c0.326,0,0.625,0.073,0.897,0.218
						C627.494,150.527,627.711,150.715,627.869,150.943z"/>
					<path fill="#585A5E" d="M636.686,154.336h1.215c-0.105,0.599-0.372,1.073-0.799,1.425c-0.428,0.353-0.983,0.528-1.67,0.528
						c-0.818,0-1.484-0.281-2-0.845c-0.515-0.562-0.771-1.298-0.771-2.204c0-0.88,0.259-1.612,0.778-2.198
						c0.519-0.585,1.175-0.878,1.967-0.878c0.81,0,1.437,0.263,1.881,0.786s0.667,1.226,0.667,2.105v0.475h-4
						c0.018,0.511,0.16,0.913,0.43,1.208c0.268,0.295,0.617,0.442,1.049,0.442C636.127,155.181,636.545,154.898,636.686,154.336z
						 M635.418,151.273c-0.369,0-0.68,0.112-0.93,0.336c-0.251,0.225-0.416,0.544-0.496,0.957h2.654
						c-0.01-0.378-0.119-0.688-0.33-0.931C636.105,151.395,635.806,151.273,635.418,151.273z"/>
					<path fill="#585A5E" d="M642.441,150.271v1.359c-0.186-0.132-0.445-0.198-0.779-0.198c-0.281,0-0.532,0.081-0.752,0.244
						c-0.221,0.163-0.361,0.394-0.423,0.693v3.788h-1.319v-5.86h1.319v0.606c0.114-0.22,0.29-0.397,0.528-0.534
						c0.237-0.137,0.497-0.205,0.779-0.205C642.102,150.164,642.318,150.199,642.441,150.271z"/>
				</g>
			</g>
			<g id="hVCAm4_27_">
				<g>
					<path fill-rule="evenodd" clip-rule="evenodd" fill="#585A5E" d="M593.848,117.092c0.151-0.213,0.444-0.431,0.436-0.639
						c-0.249-5.545,2.992-7.986,7.875-9.255c1.987-0.516,3.899-1.515,5.688-2.562c4.67-2.735,5.23-4.908,2.691-9.551
						c-2.777-5.078-2.292-10.46-1.207-15.787c0.247-1.214,1.589-2.46,2.744-3.185c3.265-2.043,9.669-1.34,12.621,1.114
						c2.58,2.146,2.085,5.188,2.549,8.024c0.732,4.472-0.407,8.446-2.451,12.293c-1.133,2.133-0.485,3.904,1.199,5.307
						c1.24,1.032,2.629,1.927,4.06,2.672c1.442,0.752,2.973,1.444,4.547,1.814c4.621,1.084,7.543,3.56,7.78,8.584
						c0.029,0.582,0.438,1.146,0.672,1.719c0,0.363,0,0.729,0,1.092c-13.1,12.721-33.544,14.994-49.203,0
						C593.848,118.187,593.848,117.641,593.848,117.092z"/>
				</g>
			</g>
		</g>
		<path fill="none" stroke="#585A5E" stroke-width="1.363" stroke-miterlimit="10" d="M652.125,95.061
			c0,9.077-3.535,17.328-9.304,23.452c-6.238,6.62-15.087,10.755-24.902,10.755c-9.445,0-17.997-3.83-24.187-10.02
			c-6.19-6.189-10.02-14.741-10.02-24.188c0-18.892,15.314-34.206,34.206-34.206C636.812,60.854,652.125,76.169,652.125,95.061z"/>
	</g>
</g>
<rect x="0.075" y="0.075" fill="none" stroke="#A6A8AB" stroke-width="0.15" stroke-miterlimit="10" width="756.001" height="209.834"/>
</svg>
