<?xml version="1.0" encoding="utf-8"?>
<!-- Generator: Adobe Illustrator 16.0.0, SVG Export Plug-In . SVG Version: 6.00 Build 0)  -->
<!DOCTYPE svg PUBLIC "-//W3C//DTD SVG 1.1//EN" "http://www.w3.org/Graphics/SVG/1.1/DTD/svg11.dtd">
<svg version="1.1" id="Layer_1" xmlns="http://www.w3.org/2000/svg" xmlns:xlink="http://www.w3.org/1999/xlink" x="0px" y="0px"
	 width="756.151px" height="330.443px" viewBox="0 0 756.151 330.443" enable-background="new 0 0 756.151 330.443"
	 xml:space="preserve">
<g>
	
		<rect x="0.075" y="0.075" fill="none" stroke="#A6A8AB" stroke-width="0.15" stroke-miterlimit="10" width="756.001" height="330.292"/>
	<g>
		<g>
			<g>
				<g id="hVCAm4_3_">
					<g>
						<path fill-rule="evenodd" clip-rule="evenodd" fill="#585A5E" d="M127.059,189.63c0.152-0.213,0.444-0.432,0.436-0.639
							c-0.249-5.546,2.993-7.987,7.875-9.255c1.987-0.516,3.899-1.515,5.688-2.562c4.669-2.735,5.229-4.907,2.69-9.55
							c-2.778-5.079-2.292-10.461-1.206-15.788c0.247-1.214,1.588-2.461,2.743-3.186c3.265-2.042,9.669-1.339,12.621,1.115
							c2.58,2.146,2.085,5.188,2.549,8.024c0.731,4.471-0.407,8.445-2.451,12.294c-1.133,2.132-0.485,3.903,1.2,5.307
							c1.239,1.031,2.627,1.926,4.06,2.67c1.441,0.753,2.971,1.446,4.546,1.815c4.621,1.083,7.543,3.559,7.78,8.583
							c0.029,0.582,0.438,1.146,0.672,1.719c0,0.363,0,0.729,0,1.093c-13.1,12.721-33.544,14.994-49.203,0
							C127.059,190.724,127.059,190.178,127.059,189.63z"/>
					</g>
				</g>
			</g>
			<path fill="none" stroke="#585A5E" stroke-width="1.363" stroke-miterlimit="10" d="M185.337,167.598
				c0,9.077-3.536,17.329-9.305,23.452c-6.238,6.621-15.087,10.756-24.902,10.756c-9.445,0-17.997-3.83-24.187-10.02
				c-6.191-6.188-10.02-14.741-10.02-24.188c0-18.891,15.314-34.205,34.206-34.205C170.022,133.393,185.337,148.708,185.337,167.598
				z"/>
		</g>
		<g>
			<g>
				<g>
					<path fill="#585A5E" d="M218.598,155.431h-1.035v3.486h-1.456v-8.596h3.317c0.905,0,1.619,0.222,2.143,0.665
						c0.522,0.443,0.783,1.081,0.783,1.911c0,0.709-0.193,1.272-0.58,1.687c-0.388,0.416-0.927,0.679-1.617,0.791l2.492,3.542
						h-1.652L218.598,155.431z M217.562,151.581v2.632h1.834c0.476,0,0.847-0.119,1.112-0.357c0.267-0.238,0.399-0.558,0.399-0.959
						s-0.133-0.721-0.399-0.959c-0.266-0.238-0.637-0.357-1.112-0.357H217.562z"/>
					<path fill="#585A5E" d="M227.628,156.984h1.288c-0.112,0.635-0.395,1.139-0.847,1.512c-0.453,0.374-1.043,0.56-1.771,0.56
						c-0.868,0-1.575-0.299-2.121-0.896s-0.818-1.377-0.818-2.338c0-0.933,0.274-1.71,0.825-2.331s1.246-0.931,2.087-0.931
						c0.858,0,1.523,0.278,1.994,0.833c0.472,0.555,0.707,1.3,0.707,2.233v0.504h-4.241c0.019,0.542,0.17,0.969,0.455,1.281
						c0.284,0.312,0.655,0.469,1.112,0.469C227.035,157.88,227.479,157.582,227.628,156.984z M226.284,153.736
						c-0.393,0-0.721,0.119-0.987,0.357c-0.266,0.238-0.44,0.577-0.524,1.015h2.813c-0.009-0.401-0.126-0.73-0.35-0.987
						C227.012,153.865,226.694,153.736,226.284,153.736z"/>
					<path fill="#585A5E" d="M234.292,161.296v-2.912c-0.149,0.187-0.369,0.346-0.658,0.476c-0.289,0.131-0.598,0.196-0.924,0.196
						c-0.878,0-1.577-0.315-2.101-0.945c-0.522-0.63-0.783-1.397-0.783-2.303s0.261-1.673,0.783-2.303
						c0.523-0.63,1.223-0.945,2.101-0.945c0.326,0,0.635,0.065,0.924,0.196c0.289,0.131,0.509,0.29,0.658,0.476v-0.532h1.399v8.596
						H234.292z M234.292,156.984v-2.352c-0.121-0.242-0.304-0.441-0.546-0.595c-0.243-0.154-0.509-0.231-0.798-0.231
						c-0.532,0-0.952,0.187-1.261,0.56c-0.308,0.373-0.462,0.854-0.462,1.442s0.154,1.069,0.462,1.442
						c0.309,0.374,0.729,0.56,1.261,0.56c0.289,0,0.555-0.077,0.798-0.231C233.988,157.425,234.171,157.228,234.292,156.984z"/>
					<path fill="#585A5E" d="M242.594,152.701v6.216h-1.4v-0.588c-0.42,0.485-0.975,0.728-1.666,0.728
						c-0.69,0-1.227-0.21-1.609-0.63c-0.383-0.42-0.574-0.98-0.574-1.68v-4.046h1.4v3.808c0,0.85,0.387,1.274,1.162,1.274
						c0.308,0,0.58-0.091,0.818-0.273c0.238-0.182,0.395-0.422,0.469-0.721v-4.088H242.594z"/>
					<path fill="#585A5E" d="M248.166,156.984h1.288c-0.112,0.635-0.395,1.139-0.848,1.512c-0.452,0.374-1.043,0.56-1.771,0.56
						c-0.868,0-1.575-0.299-2.121-0.896s-0.819-1.377-0.819-2.338c0-0.933,0.275-1.71,0.826-2.331s1.246-0.931,2.086-0.931
						c0.858,0,1.523,0.278,1.995,0.833c0.471,0.555,0.707,1.3,0.707,2.233v0.504h-4.242c0.019,0.542,0.17,0.969,0.455,1.281
						c0.284,0.312,0.655,0.469,1.113,0.469C247.573,157.88,248.017,157.582,248.166,156.984z M246.821,153.736
						c-0.392,0-0.721,0.119-0.986,0.357c-0.267,0.238-0.441,0.577-0.525,1.015h2.814c-0.01-0.401-0.126-0.73-0.351-0.987
						C247.55,153.865,247.232,153.736,246.821,153.736z"/>
					<path fill="#585A5E" d="M250.363,157.125h1.428c0.159,0.523,0.569,0.784,1.232,0.784c0.326,0,0.586-0.063,0.777-0.189
						c0.19-0.126,0.287-0.311,0.287-0.553c0-0.168-0.057-0.301-0.168-0.399c-0.112-0.098-0.299-0.18-0.561-0.245l-1.288-0.308
						c-1.026-0.243-1.54-0.812-1.54-1.708c0-0.56,0.222-1.024,0.665-1.393c0.443-0.368,1.006-0.553,1.688-0.553
						c0.709,0,1.273,0.161,1.693,0.483c0.42,0.322,0.687,0.772,0.798,1.351h-1.371c-0.141-0.457-0.519-0.686-1.135-0.686
						c-0.271,0-0.504,0.061-0.699,0.182c-0.196,0.121-0.295,0.299-0.295,0.532c0,0.271,0.215,0.462,0.645,0.574l1.315,0.308
						c1.064,0.252,1.597,0.84,1.597,1.764c0,0.607-0.227,1.09-0.679,1.449c-0.453,0.359-1.034,0.539-1.743,0.539
						c-0.729,0-1.328-0.173-1.8-0.518C250.739,158.193,250.457,157.722,250.363,157.125z"/>
					<path fill="#585A5E" d="M257.125,157.236v-3.374h-0.979v-1.162h0.979v-1.666h1.4v1.666h1.4v1.162h-1.4v3.22
						c0,0.485,0.247,0.728,0.742,0.728c0.298,0,0.564-0.084,0.798-0.252v1.274c-0.252,0.149-0.603,0.224-1.05,0.224
						c-0.579,0-1.039-0.154-1.379-0.462C257.296,158.287,257.125,157.834,257.125,157.236z"/>
				</g>
			</g>
			<g>
				<g>
					<g>
						<path fill="#585A5E" d="M214.537,184.04h-1.036v3.486h-1.456v-8.596h3.318c0.905,0,1.619,0.222,2.142,0.665
							c0.522,0.443,0.784,1.081,0.784,1.911c0,0.709-0.194,1.272-0.581,1.687c-0.388,0.416-0.927,0.679-1.617,0.791l2.492,3.542
							h-1.652L214.537,184.04z M213.501,180.19v2.632h1.834c0.476,0,0.847-0.119,1.113-0.357c0.266-0.238,0.398-0.558,0.398-0.959
							s-0.133-0.721-0.398-0.959c-0.267-0.238-0.638-0.357-1.113-0.357H213.501z"/>
						<path fill="#585A5E" d="M223.567,185.594h1.288c-0.112,0.635-0.395,1.139-0.848,1.512c-0.452,0.374-1.043,0.56-1.771,0.56
							c-0.868,0-1.575-0.299-2.121-0.896s-0.819-1.377-0.819-2.338c0-0.933,0.275-1.71,0.826-2.331s1.246-0.931,2.086-0.931
							c0.858,0,1.523,0.278,1.995,0.833c0.471,0.555,0.707,1.3,0.707,2.233v0.504h-4.242c0.019,0.542,0.17,0.969,0.455,1.281
							c0.284,0.312,0.655,0.469,1.113,0.469C222.975,186.49,223.418,186.191,223.567,185.594z M222.223,182.346
							c-0.392,0-0.721,0.119-0.986,0.357c-0.267,0.238-0.441,0.577-0.525,1.015h2.814c-0.01-0.401-0.126-0.73-0.351-0.987
							C222.951,182.474,222.634,182.346,222.223,182.346z"/>
						<path fill="#585A5E" d="M225.765,185.734h1.428c0.159,0.523,0.569,0.784,1.232,0.784c0.326,0,0.586-0.063,0.777-0.189
							c0.19-0.126,0.287-0.311,0.287-0.553c0-0.168-0.057-0.301-0.168-0.399c-0.112-0.098-0.299-0.18-0.561-0.245l-1.288-0.308
							c-1.026-0.243-1.54-0.812-1.54-1.708c0-0.56,0.222-1.024,0.665-1.393c0.443-0.368,1.006-0.553,1.688-0.553
							c0.709,0,1.273,0.161,1.693,0.483c0.42,0.322,0.687,0.772,0.798,1.351h-1.371c-0.141-0.457-0.519-0.686-1.135-0.686
							c-0.271,0-0.504,0.061-0.699,0.182c-0.196,0.121-0.295,0.299-0.295,0.532c0,0.271,0.215,0.462,0.645,0.574l1.315,0.308
							c1.064,0.252,1.597,0.84,1.597,1.764c0,0.607-0.227,1.09-0.679,1.449c-0.453,0.359-1.034,0.539-1.743,0.539
							c-0.729,0-1.328-0.173-1.8-0.518C226.141,186.803,225.858,186.331,225.765,185.734z"/>
						<path fill="#585A5E" d="M233.604,186.994v2.912h-1.399v-8.596h1.399v0.532c0.149-0.187,0.369-0.345,0.658-0.476
							c0.289-0.13,0.597-0.196,0.924-0.196c0.877,0,1.577,0.315,2.101,0.945c0.522,0.63,0.783,1.398,0.783,2.303
							s-0.261,1.673-0.783,2.303c-0.523,0.63-1.224,0.945-2.101,0.945c-0.327,0-0.635-0.065-0.924-0.196
							C233.974,187.339,233.754,187.181,233.604,186.994z M233.604,183.242v2.352c0.121,0.243,0.304,0.441,0.546,0.595
							c0.243,0.154,0.509,0.231,0.798,0.231c0.532,0,0.952-0.187,1.261-0.56c0.308-0.373,0.462-0.854,0.462-1.442
							s-0.154-1.069-0.462-1.442c-0.309-0.374-0.729-0.56-1.261-0.56c-0.289,0-0.555,0.077-0.798,0.231
							C233.908,182.801,233.726,183,233.604,183.242z"/>
						<path fill="#585A5E" d="M244.027,182.08c0.546,0.606,0.819,1.386,0.819,2.338s-0.273,1.731-0.819,2.338
							c-0.546,0.607-1.258,0.91-2.135,0.91s-1.589-0.303-2.135-0.91c-0.546-0.606-0.819-1.386-0.819-2.338s0.273-1.731,0.819-2.338
							c0.546-0.607,1.258-0.91,2.135-0.91S243.481,181.473,244.027,182.08z M243.041,185.895c0.271-0.378,0.405-0.87,0.405-1.477
							c0-0.606-0.135-1.099-0.405-1.477c-0.271-0.378-0.653-0.567-1.148-0.567s-0.877,0.189-1.147,0.567
							c-0.271,0.378-0.406,0.871-0.406,1.477c0,0.607,0.135,1.099,0.406,1.477c0.271,0.378,0.652,0.567,1.147,0.567
							S242.77,186.273,243.041,185.895z"/>
						<path fill="#585A5E" d="M246.148,187.526v-6.216h1.4v0.588c0.42-0.485,0.979-0.728,1.68-0.728c0.69,0,1.229,0.21,1.617,0.63
							c0.387,0.42,0.581,0.98,0.581,1.68v4.046h-1.4v-3.808c0-0.401-0.098-0.714-0.294-0.938s-0.49-0.336-0.882-0.336
							c-0.308,0-0.583,0.091-0.826,0.273s-0.401,0.422-0.476,0.721v4.088H246.148z"/>
						<path fill="#585A5E" d="M252.645,185.734h1.428c0.158,0.523,0.569,0.784,1.232,0.784c0.326,0,0.585-0.063,0.776-0.189
							c0.191-0.126,0.287-0.311,0.287-0.553c0-0.168-0.056-0.301-0.168-0.399s-0.299-0.18-0.56-0.245l-1.288-0.308
							c-1.027-0.243-1.54-0.812-1.54-1.708c0-0.56,0.222-1.024,0.665-1.393c0.442-0.368,1.005-0.553,1.687-0.553
							c0.709,0,1.274,0.161,1.694,0.483c0.42,0.322,0.686,0.772,0.798,1.351h-1.372c-0.14-0.457-0.518-0.686-1.134-0.686
							c-0.271,0-0.504,0.061-0.7,0.182s-0.294,0.299-0.294,0.532c0,0.271,0.215,0.462,0.644,0.574l1.316,0.308
							c1.064,0.252,1.596,0.84,1.596,1.764c0,0.607-0.227,1.09-0.679,1.449c-0.453,0.359-1.034,0.539-1.743,0.539
							c-0.728,0-1.328-0.173-1.799-0.518C253.02,186.803,252.737,186.331,252.645,185.734z"/>
						<path fill="#585A5E" d="M262.92,185.594h1.288c-0.112,0.635-0.395,1.139-0.847,1.512c-0.453,0.374-1.043,0.56-1.771,0.56
							c-0.868,0-1.575-0.299-2.121-0.896s-0.818-1.377-0.818-2.338c0-0.933,0.274-1.71,0.825-2.331s1.246-0.931,2.087-0.931
							c0.858,0,1.523,0.278,1.994,0.833c0.472,0.555,0.707,1.3,0.707,2.233v0.504h-4.241c0.019,0.542,0.17,0.969,0.455,1.281
							c0.284,0.312,0.655,0.469,1.112,0.469C262.327,186.49,262.771,186.191,262.92,185.594z M261.576,182.346
							c-0.393,0-0.721,0.119-0.987,0.357c-0.266,0.238-0.44,0.577-0.524,1.015h2.813c-0.009-0.401-0.126-0.73-0.35-0.987
							C262.304,182.474,261.986,182.346,261.576,182.346z"/>
					</g>
				</g>
			</g>
			<g>
				<g>
					<g>
						
							<line fill="none" stroke="#585A5E" stroke-width="1.1" stroke-miterlimit="10" x1="185.104" y1="164.134" x2="286.648" y2="164.134"/>
						<g>
							<polygon fill="#585A5E" points="285.83,166.932 290.675,164.134 285.83,161.337 							"/>
						</g>
					</g>
				</g>
				<g>
					<g>
						
							<line fill="none" stroke="#585A5E" stroke-width="1.1" stroke-miterlimit="10" x1="290.675" y1="173.635" x2="189.129" y2="173.635"/>
						<g>
							<polygon fill="#585A5E" points="189.948,170.838 185.104,173.635 189.948,176.433 							"/>
						</g>
					</g>
				</g>
			</g>
			<g>
				<g>
					<rect x="290.675" y="129.044" fill="#DCDCDD" width="123.362" height="72.355"/>
				</g>
				<rect x="290.675" y="129.044" fill="#20B5AE" width="123.362" height="31.946"/>
				<g>
					<g>
						<path fill="#FFFFFF" d="M326.717,142.358c0.657,0,1.187,0.081,1.587,0.243c0.4,0.163,0.712,0.37,0.937,0.622
							c0.225,0.253,0.374,0.529,0.451,0.83c0.076,0.3,0.113,0.584,0.113,0.851c0,0.582-0.152,1.035-0.457,1.359
							s-0.701,0.567-1.188,0.729v0.015c0.191,0.038,0.41,0.107,0.658,0.207s0.481,0.248,0.701,0.443
							c0.219,0.196,0.402,0.448,0.551,0.758c0.146,0.31,0.221,0.694,0.221,1.151c0,0.601-0.117,1.084-0.35,1.451
							c-0.234,0.367-0.535,0.651-0.901,0.851c-0.367,0.2-0.776,0.334-1.229,0.4c-0.453,0.067-0.904,0.1-1.352,0.1h-4.762v-10.01
							H326.717z M324.057,146.305h2.174c0.238,0,0.434-0.036,0.586-0.107c0.152-0.072,0.271-0.16,0.357-0.265
							c0.086-0.104,0.146-0.217,0.179-0.336s0.05-0.227,0.05-0.322c0-0.105-0.017-0.214-0.05-0.329
							c-0.033-0.114-0.098-0.219-0.192-0.314c-0.096-0.095-0.227-0.174-0.394-0.236s-0.38-0.093-0.637-0.093h-2.073V146.305z
							 M324.057,150.423h2.445c0.104,0,0.23-0.017,0.379-0.05c0.147-0.034,0.291-0.091,0.429-0.172s0.255-0.195,0.351-0.343
							c0.096-0.147,0.143-0.336,0.143-0.565c0-0.238-0.043-0.431-0.129-0.579c-0.086-0.147-0.202-0.264-0.35-0.35
							c-0.148-0.086-0.32-0.143-0.516-0.172c-0.195-0.028-0.397-0.042-0.607-0.042h-2.145V150.423z"/>
						<path fill="#FFFFFF" d="M332.035,147.449c0.02-0.419,0.098-0.777,0.236-1.072s0.312-0.539,0.522-0.729
							c0.21-0.19,0.44-0.34,0.693-0.45c0.253-0.109,0.503-0.19,0.751-0.243c0.248-0.052,0.479-0.086,0.693-0.1
							s0.389-0.021,0.521-0.021c0.544,0,1.004,0.048,1.381,0.143c0.376,0.095,0.688,0.219,0.936,0.372
							c0.248,0.153,0.441,0.327,0.58,0.522c0.138,0.196,0.24,0.396,0.307,0.601c0.066,0.205,0.105,0.4,0.115,0.586
							c0.009,0.186,0.014,0.351,0.014,0.493l-0.043,3.318c-0.01,0.4,0.008,0.717,0.051,0.951c0.043,0.234,0.169,0.375,0.379,0.422
							v0.129h-2.289l-0.186-0.715h-0.043c-0.285,0.362-0.65,0.617-1.094,0.765c-0.443,0.147-0.889,0.221-1.337,0.221
							c-0.581,0-1.039-0.081-1.372-0.243c-0.334-0.162-0.587-0.355-0.759-0.58c-0.171-0.224-0.281-0.455-0.329-0.693
							c-0.047-0.238-0.071-0.434-0.071-0.586c0-0.41,0.079-0.75,0.236-1.022c0.157-0.271,0.364-0.491,0.622-0.658
							c0.258-0.167,0.545-0.293,0.865-0.379c0.318-0.086,0.646-0.157,0.979-0.214c0.4-0.057,0.738-0.1,1.015-0.129
							c0.277-0.028,0.504-0.064,0.68-0.107c0.176-0.043,0.305-0.105,0.387-0.186c0.08-0.081,0.125-0.212,0.135-0.394v-0.2
							c-0.01-0.238-0.064-0.421-0.164-0.55s-0.215-0.224-0.344-0.286c-0.128-0.062-0.257-0.098-0.385-0.107
							c-0.129-0.01-0.223-0.015-0.279-0.015c-0.096,0-0.22,0.01-0.372,0.029s-0.3,0.069-0.443,0.15
							c-0.144,0.081-0.265,0.198-0.364,0.351c-0.101,0.152-0.15,0.362-0.15,0.629H332.035z M336.611,148.908
							c-0.159,0.076-0.283,0.131-0.373,0.164c-0.088,0.034-0.176,0.062-0.26,0.086c-0.084,0.024-0.184,0.043-0.295,0.057
							c-0.113,0.015-0.273,0.041-0.479,0.079c-0.113,0.02-0.242,0.045-0.388,0.079c-0.146,0.034-0.282,0.088-0.408,0.165
							c-0.126,0.077-0.234,0.179-0.323,0.308c-0.09,0.129-0.134,0.293-0.134,0.493c0,0.172,0.038,0.312,0.112,0.422
							c0.075,0.11,0.169,0.196,0.281,0.257c0.113,0.062,0.232,0.105,0.359,0.129c0.127,0.024,0.241,0.036,0.345,0.036
							c0.132,0,0.286-0.026,0.464-0.079c0.179-0.052,0.35-0.145,0.514-0.279c0.164-0.133,0.303-0.319,0.416-0.558
							c0.112-0.238,0.168-0.539,0.168-0.901V148.908z"/>
						<path fill="#FFFFFF" d="M342.746,142.358v10.01h-2.174v-10.01H342.746z"/>
						<path fill="#FFFFFF" d="M346.722,142.358v10.01h-2.174v-10.01H346.722z"/>
						<path fill="#FFFFFF" d="M355.859,150.266c-0.143,0.515-0.357,0.927-0.643,1.237c-0.287,0.31-0.606,0.551-0.959,0.722
							c-0.353,0.172-0.72,0.284-1.102,0.336c-0.381,0.052-0.738,0.079-1.072,0.079c-0.162,0-0.369-0.012-0.621-0.036
							c-0.254-0.024-0.525-0.076-0.815-0.157c-0.291-0.081-0.582-0.205-0.872-0.372c-0.291-0.167-0.557-0.396-0.794-0.687
							c-0.239-0.291-0.432-0.653-0.579-1.087c-0.148-0.434-0.222-0.96-0.222-1.58c0-0.629,0.101-1.185,0.3-1.666
							c0.201-0.481,0.481-0.887,0.844-1.215c0.362-0.329,0.794-0.579,1.295-0.751c0.5-0.171,1.045-0.257,1.637-0.257
							s1.092,0.079,1.502,0.236s0.752,0.36,1.029,0.608c0.276,0.248,0.496,0.527,0.658,0.836c0.162,0.31,0.283,0.615,0.364,0.916
							s0.131,0.579,0.149,0.836c0.02,0.257,0.034,0.458,0.043,0.601l0.016,0.4h-5.578c0,0.171,0.027,0.37,0.08,0.593
							c0.053,0.224,0.144,0.434,0.273,0.629c0.131,0.195,0.309,0.36,0.534,0.493c0.226,0.134,0.517,0.2,0.872,0.2
							c0.318,0,0.621-0.071,0.91-0.214c0.288-0.143,0.48-0.376,0.576-0.701H355.859z M353.758,148.05
							c-0.01-0.391-0.07-0.703-0.18-0.937c-0.109-0.233-0.242-0.41-0.4-0.529c-0.156-0.119-0.321-0.198-0.492-0.236
							c-0.172-0.038-0.324-0.057-0.458-0.057c-0.324,0-0.597,0.057-0.815,0.172c-0.219,0.114-0.4,0.257-0.543,0.429
							c-0.143,0.172-0.248,0.363-0.314,0.572c-0.067,0.209-0.105,0.405-0.115,0.586H353.758z"/>
						<path fill="#FFFFFF" d="M362.438,146.305c-0.096-0.01-0.191-0.015-0.286-0.015c-0.096,0-0.19,0-0.286,0
							c-0.314,0-0.607,0.043-0.879,0.128c-0.272,0.086-0.508,0.243-0.709,0.471c-0.199,0.228-0.359,0.544-0.479,0.949
							c-0.119,0.404-0.179,0.925-0.179,1.562v2.967h-2.174v-7.264h2.174v1.201c0.144-0.298,0.31-0.544,0.501-0.736
							c0.189-0.193,0.4-0.342,0.629-0.448s0.465-0.181,0.707-0.224c0.244-0.043,0.484-0.065,0.723-0.065h0.258V146.305z"/>
						<path fill="#FFFFFF" d="M363.51,142.358h2.174v1.702h-2.174V142.358z M365.684,145.104v7.264h-2.174v-7.264H365.684z"/>
						<path fill="#FFFFFF" d="M369.572,145.976c0.296-0.4,0.668-0.691,1.116-0.872s0.915-0.272,1.401-0.272
							c0.248,0,0.512,0.029,0.793,0.086s0.544,0.186,0.787,0.386s0.445,0.498,0.607,0.894s0.243,0.932,0.243,1.609v4.562h-2.173
							v-4.204c0-0.181-0.01-0.379-0.029-0.594c-0.02-0.214-0.069-0.417-0.15-0.607c-0.08-0.191-0.205-0.351-0.371-0.479
							c-0.168-0.129-0.394-0.193-0.68-0.193c-0.362,0-0.641,0.088-0.836,0.265c-0.195,0.177-0.339,0.379-0.43,0.608
							c-0.09,0.229-0.146,0.453-0.164,0.672c-0.02,0.22-0.029,0.367-0.029,0.443v4.09h-2.174v-7.264h2.088V145.976z"/>
						<path fill="#FFFFFF" d="M376.422,147.449c0.02-0.419,0.098-0.777,0.236-1.072s0.312-0.539,0.522-0.729
							c0.21-0.19,0.44-0.34,0.693-0.45c0.253-0.109,0.503-0.19,0.751-0.243c0.248-0.052,0.479-0.086,0.693-0.1
							s0.389-0.021,0.521-0.021c0.544,0,1.004,0.048,1.381,0.143c0.376,0.095,0.688,0.219,0.936,0.372
							c0.248,0.153,0.441,0.327,0.58,0.522c0.138,0.196,0.24,0.396,0.307,0.601c0.066,0.205,0.105,0.4,0.115,0.586
							c0.009,0.186,0.014,0.351,0.014,0.493l-0.043,3.318c-0.01,0.4,0.008,0.717,0.051,0.951c0.043,0.234,0.169,0.375,0.379,0.422
							v0.129h-2.289l-0.186-0.715h-0.043c-0.285,0.362-0.65,0.617-1.094,0.765c-0.443,0.147-0.889,0.221-1.337,0.221
							c-0.581,0-1.039-0.081-1.372-0.243c-0.334-0.162-0.587-0.355-0.759-0.58c-0.171-0.224-0.281-0.455-0.329-0.693
							c-0.047-0.238-0.071-0.434-0.071-0.586c0-0.41,0.079-0.75,0.236-1.022c0.157-0.271,0.364-0.491,0.622-0.658
							c0.258-0.167,0.545-0.293,0.865-0.379c0.318-0.086,0.646-0.157,0.979-0.214c0.4-0.057,0.738-0.1,1.015-0.129
							c0.277-0.028,0.504-0.064,0.68-0.107c0.176-0.043,0.305-0.105,0.387-0.186c0.08-0.081,0.125-0.212,0.135-0.394v-0.2
							c-0.01-0.238-0.064-0.421-0.164-0.55s-0.215-0.224-0.344-0.286c-0.128-0.062-0.257-0.098-0.385-0.107
							c-0.129-0.01-0.223-0.015-0.279-0.015c-0.096,0-0.22,0.01-0.372,0.029s-0.3,0.069-0.443,0.15
							c-0.144,0.081-0.265,0.198-0.364,0.351c-0.101,0.152-0.15,0.362-0.15,0.629H376.422z M380.998,148.908
							c-0.159,0.076-0.283,0.131-0.373,0.164c-0.088,0.034-0.176,0.062-0.26,0.086c-0.084,0.024-0.184,0.043-0.295,0.057
							c-0.113,0.015-0.273,0.041-0.479,0.079c-0.113,0.02-0.242,0.045-0.388,0.079c-0.146,0.034-0.282,0.088-0.408,0.165
							c-0.126,0.077-0.234,0.179-0.323,0.308c-0.09,0.129-0.134,0.293-0.134,0.493c0,0.172,0.038,0.312,0.112,0.422
							c0.075,0.11,0.169,0.196,0.281,0.257c0.113,0.062,0.232,0.105,0.359,0.129c0.127,0.024,0.241,0.036,0.345,0.036
							c0.132,0,0.286-0.026,0.464-0.079c0.179-0.052,0.35-0.145,0.514-0.279c0.164-0.133,0.303-0.319,0.416-0.558
							c0.112-0.238,0.168-0.539,0.168-0.901V148.908z"/>
					</g>
				</g>
				<g>
					<g>
						<path fill="#585A5E" d="M306.33,185.766h-1.3l3.445-9.1h1.3l3.445,9.1h-1.301l-0.861-2.353h-3.867L306.33,185.766z
							 M310.72,182.386l-1.595-4.485l-1.595,4.485H310.72z"/>
						<path fill="#585A5E" d="M318.537,185.766v-0.936h-0.026c-0.164,0.286-0.363,0.509-0.598,0.669
							c-0.233,0.161-0.461,0.28-0.683,0.357c-0.221,0.078-0.42,0.125-0.598,0.143s-0.297,0.026-0.357,0.026
							c-0.485,0-0.873-0.082-1.164-0.247c-0.29-0.165-0.509-0.373-0.656-0.624s-0.242-0.52-0.286-0.806
							c-0.043-0.286-0.064-0.555-0.064-0.806v-4.381h1.144v4.043c0,0.416,0.035,0.754,0.104,1.014
							c0.069,0.26,0.164,0.466,0.286,0.617c0.121,0.152,0.266,0.254,0.435,0.306c0.17,0.052,0.358,0.078,0.566,0.078
							c0.477,0,0.845-0.106,1.104-0.318s0.448-0.457,0.565-0.735c0.117-0.277,0.185-0.55,0.201-0.819
							c0.018-0.269,0.026-0.463,0.026-0.585v-3.601h1.145v6.604H318.537z"/>
						<path fill="#585A5E" d="M327.272,183.413c-0.017,0.2-0.066,0.446-0.149,0.741c-0.082,0.294-0.225,0.581-0.429,0.858
							s-0.489,0.516-0.857,0.715c-0.369,0.199-0.848,0.299-1.437,0.299c-0.113,0-0.27-0.008-0.469-0.026s-0.42-0.061-0.663-0.13
							c-0.242-0.069-0.487-0.18-0.734-0.332c-0.247-0.151-0.47-0.359-0.669-0.624c-0.2-0.264-0.364-0.6-0.494-1.007
							s-0.195-0.906-0.195-1.495c0-0.381,0.043-0.78,0.13-1.196s0.247-0.795,0.481-1.138c0.233-0.342,0.555-0.624,0.962-0.845
							c0.407-0.221,0.932-0.331,1.573-0.331c0.468,0,0.875,0.062,1.222,0.188c0.347,0.125,0.637,0.297,0.871,0.513
							c0.234,0.217,0.418,0.464,0.553,0.741c0.134,0.277,0.219,0.572,0.253,0.884h-1.092c-0.061-0.364-0.169-0.65-0.325-0.858
							s-0.325-0.359-0.507-0.455c-0.182-0.095-0.362-0.154-0.539-0.175c-0.178-0.021-0.314-0.033-0.41-0.033
							c-0.355,0-0.658,0.072-0.91,0.215c-0.251,0.143-0.454,0.336-0.61,0.578c-0.156,0.243-0.269,0.529-0.338,0.858
							c-0.069,0.33-0.104,0.681-0.104,1.053s0.039,0.728,0.117,1.066s0.197,0.637,0.357,0.897c0.16,0.26,0.37,0.466,0.631,0.618
							c0.26,0.152,0.571,0.228,0.936,0.228c0.32,0,0.592-0.061,0.812-0.182c0.221-0.121,0.401-0.271,0.54-0.448
							c0.138-0.178,0.238-0.373,0.299-0.585c0.061-0.212,0.095-0.409,0.104-0.591H327.272z"/>
						<path fill="#585A5E" d="M329.093,179.162v-1.976h1.145v1.976h1.403v0.806h-1.403v4.199c0,0.122,0.002,0.236,0.006,0.345
							c0.005,0.108,0.026,0.206,0.065,0.292s0.105,0.154,0.201,0.201c0.096,0.048,0.234,0.072,0.416,0.072
							c0.121,0,0.243-0.011,0.364-0.033c0.121-0.021,0.238-0.05,0.351-0.084v0.806c-0.182,0.078-0.377,0.141-0.585,0.188
							c-0.208,0.047-0.411,0.071-0.61,0.071c-0.338,0-0.601-0.052-0.787-0.156s-0.32-0.236-0.402-0.396
							c-0.083-0.16-0.131-0.336-0.144-0.526c-0.013-0.191-0.02-0.373-0.02-0.546v-4.433h-1.183v-0.806H329.093z"/>
						<path fill="#585A5E" d="M332.812,176.666h1.144v1.196h-1.144V176.666z M333.955,179.162v6.604h-1.144v-6.604H333.955z"/>
						<path fill="#585A5E" d="M335.424,182.464c0-0.442,0.057-0.875,0.169-1.3c0.112-0.424,0.297-0.804,0.553-1.137
							c0.256-0.334,0.592-0.605,1.008-0.812c0.416-0.208,0.923-0.312,1.521-0.312c0.599,0,1.105,0.104,1.521,0.312
							c0.416,0.208,0.751,0.479,1.007,0.812c0.256,0.333,0.44,0.713,0.553,1.137c0.112,0.425,0.169,0.858,0.169,1.3
							c0,0.442-0.057,0.875-0.169,1.3s-0.297,0.804-0.553,1.138c-0.256,0.333-0.591,0.604-1.007,0.812
							c-0.416,0.208-0.923,0.312-1.521,0.312c-0.598,0-1.104-0.104-1.521-0.312c-0.416-0.208-0.752-0.479-1.008-0.812
							c-0.256-0.334-0.44-0.713-0.553-1.138S335.424,182.906,335.424,182.464z M336.633,182.464c0,0.655,0.082,1.168,0.247,1.54
							c0.165,0.371,0.359,0.647,0.585,0.828s0.45,0.291,0.676,0.33c0.226,0.039,0.403,0.058,0.533,0.058s0.308-0.02,0.533-0.058
							c0.226-0.039,0.45-0.149,0.676-0.33s0.421-0.458,0.585-0.828c0.165-0.371,0.247-0.884,0.247-1.54
							c0-0.656-0.082-1.169-0.247-1.54c-0.164-0.371-0.359-0.647-0.585-0.828s-0.45-0.291-0.676-0.33
							c-0.226-0.039-0.403-0.059-0.533-0.059s-0.308,0.02-0.533,0.059c-0.226,0.039-0.45,0.148-0.676,0.33s-0.42,0.458-0.585,0.828
							C336.715,181.295,336.633,181.809,336.633,182.464z"/>
						<path fill="#585A5E" d="M344.562,179.162v0.923c0.226-0.329,0.528-0.608,0.91-0.838c0.381-0.229,0.832-0.344,1.352-0.344
							c0.434,0,0.791,0.067,1.073,0.201c0.281,0.135,0.502,0.314,0.663,0.54c0.16,0.226,0.272,0.487,0.338,0.787
							c0.064,0.299,0.098,0.613,0.098,0.942v4.394h-1.145v-4.043c0-0.173-0.007-0.377-0.02-0.611
							c-0.013-0.234-0.061-0.455-0.143-0.663c-0.083-0.208-0.22-0.384-0.41-0.526c-0.19-0.143-0.463-0.215-0.818-0.215
							c-0.156,0-0.343,0.026-0.56,0.078c-0.217,0.052-0.425,0.163-0.624,0.332s-0.368,0.416-0.507,0.741
							c-0.139,0.325-0.208,0.761-0.208,1.307v3.601h-1.144v-6.604H344.562z"/>
						<path fill="#585A5E" d="M354.768,182.88c-0.009,0.304,0.043,0.585,0.156,0.845c0.112,0.26,0.281,0.485,0.507,0.676
							c0.226,0.191,0.501,0.34,0.825,0.449c0.325,0.108,0.696,0.163,1.112,0.163c0.407,0,0.751-0.048,1.033-0.143
							c0.281-0.095,0.511-0.221,0.688-0.377c0.178-0.156,0.308-0.336,0.391-0.54c0.082-0.204,0.123-0.414,0.123-0.63
							c0-0.277-0.057-0.509-0.169-0.696c-0.112-0.186-0.256-0.338-0.429-0.455c-0.174-0.117-0.371-0.21-0.592-0.279
							s-0.436-0.125-0.644-0.169c-0.52-0.113-1.016-0.219-1.488-0.318s-0.889-0.241-1.248-0.423
							c-0.359-0.182-0.646-0.427-0.858-0.734c-0.212-0.308-0.318-0.722-0.318-1.241c0-0.425,0.083-0.802,0.247-1.131
							c0.165-0.329,0.398-0.602,0.702-0.819s0.667-0.381,1.092-0.494c0.425-0.112,0.893-0.169,1.404-0.169
							c0.563,0,1.051,0.072,1.463,0.214c0.411,0.143,0.754,0.336,1.026,0.579c0.273,0.243,0.481,0.524,0.624,0.845
							c0.144,0.321,0.228,0.654,0.254,1.001h-1.223c-0.043-0.373-0.153-0.667-0.331-0.884c-0.178-0.216-0.379-0.379-0.604-0.487
							s-0.455-0.175-0.689-0.202c-0.233-0.026-0.42-0.039-0.559-0.039c-0.633,0-1.142,0.137-1.527,0.41s-0.579,0.644-0.579,1.111
							c0,0.278,0.063,0.5,0.189,0.67c0.125,0.169,0.292,0.308,0.5,0.416s0.448,0.193,0.722,0.253
							c0.272,0.061,0.561,0.121,0.864,0.182c0.407,0.078,0.816,0.167,1.229,0.267c0.411,0.1,0.784,0.25,1.118,0.449
							c0.333,0.199,0.604,0.466,0.812,0.799c0.208,0.334,0.312,0.773,0.312,1.319c0,0.451-0.071,0.832-0.214,1.144
							c-0.144,0.312-0.327,0.57-0.553,0.773c-0.226,0.204-0.477,0.362-0.754,0.475c-0.277,0.113-0.549,0.195-0.812,0.247
							c-0.265,0.052-0.512,0.083-0.741,0.091c-0.229,0.009-0.405,0.013-0.526,0.013c-0.32,0-0.691-0.03-1.111-0.091
							c-0.421-0.061-0.821-0.197-1.203-0.41c-0.381-0.212-0.708-0.528-0.981-0.949c-0.272-0.42-0.427-0.99-0.461-1.71H354.768z"/>
						<path fill="#585A5E" d="M368.274,183.855c-0.043,0.234-0.123,0.479-0.24,0.735c-0.117,0.255-0.286,0.49-0.507,0.702
							c-0.222,0.212-0.505,0.388-0.852,0.526c-0.347,0.139-0.776,0.208-1.287,0.208c-0.546,0-1.008-0.074-1.385-0.221
							c-0.377-0.147-0.688-0.336-0.936-0.565s-0.44-0.483-0.579-0.761s-0.24-0.546-0.306-0.806c-0.064-0.26-0.104-0.496-0.116-0.708
							c-0.014-0.212-0.02-0.371-0.02-0.475c0-0.147,0.008-0.34,0.025-0.579s0.061-0.49,0.13-0.754s0.174-0.531,0.312-0.8
							c0.139-0.269,0.327-0.511,0.565-0.728c0.238-0.216,0.535-0.392,0.891-0.526c0.355-0.134,0.788-0.201,1.3-0.201
							c0.658,0,1.186,0.115,1.579,0.344c0.395,0.23,0.698,0.518,0.91,0.865c0.213,0.347,0.355,0.726,0.43,1.137
							c0.073,0.412,0.118,0.795,0.136,1.15c0,0.052,0.002,0.106,0.007,0.163c0.004,0.057,0.007,0.11,0.007,0.163h-5.083
							c0,0.286,0.039,0.577,0.116,0.871c0.078,0.294,0.2,0.561,0.364,0.799c0.165,0.239,0.379,0.436,0.644,0.592
							c0.265,0.156,0.587,0.234,0.969,0.234c0.269,0,0.511-0.037,0.728-0.111c0.217-0.073,0.401-0.173,0.553-0.299
							c0.151-0.125,0.273-0.271,0.364-0.436c0.091-0.165,0.153-0.338,0.188-0.52H368.274z M367.131,181.918
							c-0.009-0.216-0.039-0.455-0.092-0.715c-0.052-0.26-0.145-0.5-0.279-0.722c-0.134-0.221-0.318-0.405-0.552-0.552
							c-0.234-0.147-0.538-0.221-0.91-0.221c-0.416,0-0.759,0.076-1.027,0.228c-0.269,0.152-0.479,0.34-0.631,0.565
							c-0.151,0.226-0.253,0.466-0.305,0.722c-0.053,0.256-0.078,0.487-0.078,0.695H367.131z"/>
						<path fill="#585A5E" d="M373.526,179.708c-0.39,0.018-0.734,0.069-1.033,0.156c-0.299,0.086-0.555,0.221-0.767,0.403
							c-0.213,0.182-0.382,0.416-0.508,0.702c-0.125,0.286-0.201,0.637-0.228,1.053c-0.008,0.122-0.013,0.239-0.013,0.351
							c0,0.113,0,0.23,0,0.351v3.042h-1.144v-6.604h1.144v1.274h0.026c0.078-0.243,0.192-0.457,0.345-0.644
							c0.151-0.186,0.324-0.342,0.52-0.468s0.405-0.223,0.631-0.292c0.225-0.069,0.455-0.108,0.688-0.117l0.338-0.013V179.708z"/>
						<path fill="#585A5E" d="M378.935,179.162h1.222l-2.444,6.604h-1.3l-2.443-6.604h1.222l1.872,5.46L378.935,179.162z"/>
						<path fill="#585A5E" d="M381.04,176.666h1.145v1.196h-1.145V176.666z M382.185,179.162v6.604h-1.145v-6.604H382.185z"/>
						<path fill="#585A5E" d="M389.75,183.413c-0.018,0.2-0.067,0.446-0.149,0.741c-0.083,0.294-0.226,0.581-0.429,0.858
							c-0.204,0.277-0.49,0.516-0.858,0.715s-0.848,0.299-1.437,0.299c-0.112,0-0.269-0.008-0.468-0.026s-0.421-0.061-0.663-0.13
							c-0.243-0.069-0.487-0.18-0.734-0.332c-0.247-0.151-0.471-0.359-0.67-0.624c-0.199-0.264-0.364-0.6-0.494-1.007
							s-0.194-0.906-0.194-1.495c0-0.381,0.043-0.78,0.13-1.196c0.086-0.416,0.247-0.795,0.48-1.138
							c0.234-0.342,0.555-0.624,0.962-0.845c0.407-0.221,0.932-0.331,1.573-0.331c0.468,0,0.875,0.062,1.222,0.188
							c0.347,0.125,0.638,0.297,0.871,0.513c0.234,0.217,0.418,0.464,0.553,0.741s0.219,0.572,0.254,0.884h-1.092
							c-0.062-0.364-0.17-0.65-0.325-0.858c-0.156-0.208-0.325-0.359-0.507-0.455c-0.183-0.095-0.362-0.154-0.54-0.175
							s-0.314-0.033-0.409-0.033c-0.355,0-0.659,0.072-0.91,0.215c-0.252,0.143-0.455,0.336-0.611,0.578
							c-0.155,0.243-0.269,0.529-0.338,0.858c-0.069,0.33-0.104,0.681-0.104,1.053s0.039,0.728,0.116,1.066
							c0.078,0.338,0.197,0.637,0.358,0.897c0.16,0.26,0.37,0.466,0.63,0.618c0.26,0.152,0.572,0.228,0.937,0.228
							c0.32,0,0.591-0.061,0.812-0.182c0.221-0.121,0.4-0.271,0.539-0.448s0.238-0.373,0.299-0.585
							c0.061-0.212,0.096-0.409,0.104-0.591H389.75z"/>
						<path fill="#585A5E" d="M397.004,183.855c-0.043,0.234-0.123,0.479-0.24,0.735c-0.117,0.255-0.286,0.49-0.507,0.702
							c-0.222,0.212-0.505,0.388-0.852,0.526c-0.347,0.139-0.776,0.208-1.287,0.208c-0.546,0-1.008-0.074-1.385-0.221
							c-0.377-0.147-0.688-0.336-0.936-0.565s-0.44-0.483-0.579-0.761s-0.24-0.546-0.306-0.806c-0.064-0.26-0.104-0.496-0.116-0.708
							c-0.014-0.212-0.02-0.371-0.02-0.475c0-0.147,0.008-0.34,0.025-0.579s0.061-0.49,0.13-0.754s0.174-0.531,0.312-0.8
							c0.139-0.269,0.327-0.511,0.565-0.728c0.238-0.216,0.535-0.392,0.891-0.526c0.355-0.134,0.788-0.201,1.3-0.201
							c0.658,0,1.186,0.115,1.579,0.344c0.395,0.23,0.698,0.518,0.91,0.865c0.213,0.347,0.355,0.726,0.43,1.137
							c0.073,0.412,0.118,0.795,0.136,1.15c0,0.052,0.002,0.106,0.007,0.163c0.004,0.057,0.007,0.11,0.007,0.163h-5.083
							c0,0.286,0.039,0.577,0.116,0.871c0.078,0.294,0.2,0.561,0.364,0.799c0.165,0.239,0.379,0.436,0.644,0.592
							c0.265,0.156,0.587,0.234,0.969,0.234c0.269,0,0.511-0.037,0.728-0.111c0.217-0.073,0.401-0.173,0.553-0.299
							c0.151-0.125,0.273-0.271,0.364-0.436c0.091-0.165,0.153-0.338,0.188-0.52H397.004z M395.86,181.918
							c-0.009-0.216-0.039-0.455-0.092-0.715c-0.052-0.26-0.145-0.5-0.279-0.722c-0.134-0.221-0.318-0.405-0.552-0.552
							c-0.234-0.147-0.538-0.221-0.91-0.221c-0.416,0-0.759,0.076-1.027,0.228c-0.269,0.152-0.479,0.34-0.631,0.565
							c-0.151,0.226-0.253,0.466-0.305,0.722c-0.053,0.256-0.078,0.487-0.078,0.695H395.86z"/>
					</g>
				</g>
			</g>
			<g>
				<g>
					<rect x="514.863" y="129.044" fill="#DCDCDD" width="123.363" height="72.355"/>
				</g>
				<rect x="514.863" y="129.044" fill="#20B5AE" width="123.363" height="31.946"/>
				<g>
					<g>
						<path fill="#FFFFFF" d="M550.905,142.358c0.658,0,1.188,0.081,1.588,0.243c0.4,0.163,0.712,0.37,0.937,0.622
							c0.224,0.253,0.374,0.529,0.45,0.83s0.114,0.584,0.114,0.851c0,0.582-0.152,1.035-0.457,1.359
							c-0.306,0.324-0.701,0.567-1.188,0.729v0.015c0.19,0.038,0.41,0.107,0.658,0.207s0.481,0.248,0.7,0.443
							c0.22,0.196,0.403,0.448,0.551,0.758c0.147,0.31,0.222,0.694,0.222,1.151c0,0.601-0.117,1.084-0.351,1.451
							c-0.233,0.367-0.534,0.651-0.9,0.851c-0.367,0.2-0.777,0.334-1.23,0.4c-0.452,0.067-0.903,0.1-1.351,0.1h-4.763v-10.01
							H550.905z M548.246,146.305h2.173c0.238,0,0.434-0.036,0.587-0.107c0.152-0.072,0.271-0.16,0.357-0.265
							c0.086-0.104,0.146-0.217,0.179-0.336s0.05-0.227,0.05-0.322c0-0.105-0.017-0.214-0.05-0.329
							c-0.033-0.114-0.098-0.219-0.193-0.314s-0.227-0.174-0.393-0.236c-0.167-0.062-0.38-0.093-0.637-0.093h-2.073V146.305z
							 M548.246,150.423h2.445c0.104,0,0.23-0.017,0.379-0.05c0.147-0.034,0.29-0.091,0.429-0.172
							c0.138-0.081,0.255-0.195,0.351-0.343c0.095-0.147,0.143-0.336,0.143-0.565c0-0.238-0.043-0.431-0.129-0.579
							c-0.086-0.147-0.202-0.264-0.35-0.35c-0.148-0.086-0.32-0.143-0.516-0.172c-0.195-0.028-0.397-0.042-0.607-0.042h-2.145
							V150.423z"/>
						<path fill="#FFFFFF" d="M556.225,147.449c0.02-0.419,0.098-0.777,0.236-1.072c0.138-0.295,0.312-0.539,0.522-0.729
							c0.209-0.19,0.44-0.34,0.693-0.45c0.252-0.109,0.503-0.19,0.75-0.243c0.248-0.052,0.479-0.086,0.694-0.1
							c0.214-0.014,0.388-0.021,0.521-0.021c0.544,0,1.003,0.048,1.38,0.143s0.688,0.219,0.937,0.372
							c0.248,0.153,0.441,0.327,0.579,0.522c0.139,0.196,0.241,0.396,0.308,0.601c0.066,0.205,0.105,0.4,0.114,0.586
							c0.01,0.186,0.015,0.351,0.015,0.493l-0.043,3.318c-0.01,0.4,0.007,0.717,0.05,0.951c0.043,0.234,0.17,0.375,0.379,0.422
							v0.129h-2.288l-0.186-0.715h-0.043c-0.286,0.362-0.65,0.617-1.094,0.765c-0.443,0.147-0.889,0.221-1.337,0.221
							c-0.582,0-1.039-0.081-1.373-0.243c-0.334-0.162-0.586-0.355-0.758-0.58c-0.172-0.224-0.281-0.455-0.329-0.693
							s-0.071-0.434-0.071-0.586c0-0.41,0.079-0.75,0.236-1.022c0.157-0.271,0.364-0.491,0.622-0.658
							c0.257-0.167,0.545-0.293,0.864-0.379s0.646-0.157,0.98-0.214c0.4-0.057,0.738-0.1,1.015-0.129
							c0.276-0.028,0.503-0.064,0.68-0.107c0.176-0.043,0.305-0.105,0.386-0.186s0.126-0.212,0.136-0.394v-0.2
							c-0.01-0.238-0.064-0.421-0.164-0.55c-0.101-0.129-0.215-0.224-0.344-0.286c-0.128-0.062-0.257-0.098-0.386-0.107
							c-0.129-0.01-0.222-0.015-0.279-0.015c-0.095,0-0.219,0.01-0.371,0.029s-0.301,0.069-0.443,0.15
							c-0.144,0.081-0.265,0.198-0.365,0.351c-0.1,0.152-0.149,0.362-0.149,0.629H556.225z M560.801,148.908
							c-0.159,0.076-0.284,0.131-0.373,0.164c-0.089,0.034-0.176,0.062-0.26,0.086c-0.085,0.024-0.184,0.043-0.296,0.057
							c-0.112,0.015-0.272,0.041-0.479,0.079c-0.112,0.02-0.241,0.045-0.387,0.079c-0.146,0.034-0.282,0.088-0.408,0.165
							c-0.127,0.077-0.234,0.179-0.324,0.308c-0.089,0.129-0.133,0.293-0.133,0.493c0,0.172,0.037,0.312,0.112,0.422
							c0.075,0.11,0.169,0.196,0.281,0.257c0.112,0.062,0.232,0.105,0.358,0.129c0.127,0.024,0.242,0.036,0.346,0.036
							c0.131,0,0.286-0.026,0.464-0.079c0.179-0.052,0.35-0.145,0.514-0.279c0.164-0.133,0.303-0.319,0.415-0.558
							c0.113-0.238,0.169-0.539,0.169-0.901V148.908z"/>
						<path fill="#FFFFFF" d="M566.936,142.358v10.01h-2.174v-10.01H566.936z"/>
						<path fill="#FFFFFF" d="M570.911,142.358v10.01h-2.174v-10.01H570.911z"/>
						<path fill="#FFFFFF" d="M580.049,150.266c-0.143,0.515-0.357,0.927-0.644,1.237c-0.286,0.31-0.605,0.551-0.958,0.722
							c-0.353,0.172-0.72,0.284-1.102,0.336c-0.381,0.052-0.738,0.079-1.072,0.079c-0.162,0-0.369-0.012-0.622-0.036
							s-0.524-0.076-0.814-0.157c-0.291-0.081-0.582-0.205-0.873-0.372c-0.291-0.167-0.556-0.396-0.793-0.687
							c-0.239-0.291-0.432-0.653-0.579-1.087c-0.148-0.434-0.222-0.96-0.222-1.58c0-0.629,0.1-1.185,0.3-1.666
							s0.481-0.887,0.844-1.215c0.362-0.329,0.794-0.579,1.294-0.751c0.501-0.171,1.046-0.257,1.638-0.257
							c0.591,0,1.092,0.079,1.501,0.236c0.41,0.157,0.753,0.36,1.03,0.608c0.276,0.248,0.495,0.527,0.657,0.836
							c0.162,0.31,0.284,0.615,0.365,0.916s0.131,0.579,0.149,0.836c0.02,0.257,0.034,0.458,0.043,0.601l0.015,0.4h-5.577
							c0,0.171,0.026,0.37,0.079,0.593c0.053,0.224,0.145,0.434,0.274,0.629s0.308,0.36,0.534,0.493
							c0.226,0.134,0.517,0.2,0.872,0.2c0.317,0,0.621-0.071,0.909-0.214c0.289-0.143,0.481-0.376,0.577-0.701H580.049z
							 M577.946,148.05c-0.009-0.391-0.069-0.703-0.179-0.937c-0.109-0.233-0.243-0.41-0.4-0.529s-0.321-0.198-0.493-0.236
							c-0.172-0.038-0.324-0.057-0.457-0.057c-0.324,0-0.597,0.057-0.815,0.172c-0.22,0.114-0.4,0.257-0.544,0.429
							c-0.143,0.172-0.247,0.363-0.314,0.572c-0.066,0.209-0.104,0.405-0.114,0.586H577.946z"/>
						<path fill="#FFFFFF" d="M586.626,146.305c-0.095-0.01-0.19-0.015-0.285-0.015c-0.096,0-0.191,0-0.286,0
							c-0.314,0-0.608,0.043-0.88,0.128c-0.271,0.086-0.508,0.243-0.708,0.471c-0.2,0.228-0.359,0.544-0.479,0.949
							c-0.119,0.404-0.179,0.925-0.179,1.562v2.967h-2.174v-7.264h2.174v1.201c0.143-0.298,0.31-0.544,0.5-0.736
							c0.19-0.193,0.4-0.342,0.63-0.448c0.229-0.106,0.464-0.181,0.707-0.224s0.484-0.065,0.723-0.065h0.257V146.305z"/>
						<path fill="#FFFFFF" d="M587.699,142.358h2.174v1.702h-2.174V142.358z M589.873,145.104v7.264h-2.174v-7.264H589.873z"/>
						<path fill="#FFFFFF" d="M593.762,145.976c0.296-0.4,0.668-0.691,1.116-0.872c0.447-0.181,0.915-0.272,1.401-0.272
							c0.247,0,0.512,0.029,0.793,0.086s0.544,0.186,0.787,0.386s0.445,0.498,0.607,0.894s0.243,0.932,0.243,1.609v4.562h-2.174
							v-4.204c0-0.181-0.01-0.379-0.028-0.594c-0.02-0.214-0.069-0.417-0.15-0.607s-0.205-0.351-0.372-0.479
							c-0.167-0.129-0.393-0.193-0.679-0.193c-0.362,0-0.642,0.088-0.837,0.265c-0.195,0.177-0.338,0.379-0.429,0.608
							c-0.091,0.229-0.146,0.453-0.164,0.672c-0.02,0.22-0.029,0.367-0.029,0.443v4.09h-2.174v-7.264h2.088V145.976z"/>
						<path fill="#FFFFFF" d="M600.611,147.449c0.02-0.419,0.098-0.777,0.236-1.072c0.138-0.295,0.312-0.539,0.522-0.729
							c0.209-0.19,0.44-0.34,0.693-0.45c0.252-0.109,0.503-0.19,0.75-0.243c0.248-0.052,0.479-0.086,0.694-0.1
							c0.214-0.014,0.388-0.021,0.521-0.021c0.544,0,1.003,0.048,1.38,0.143s0.688,0.219,0.937,0.372
							c0.248,0.153,0.441,0.327,0.579,0.522c0.139,0.196,0.241,0.396,0.308,0.601c0.066,0.205,0.105,0.4,0.114,0.586
							c0.01,0.186,0.015,0.351,0.015,0.493l-0.043,3.318c-0.01,0.4,0.007,0.717,0.05,0.951c0.043,0.234,0.17,0.375,0.379,0.422
							v0.129h-2.288l-0.186-0.715h-0.043c-0.286,0.362-0.65,0.617-1.094,0.765c-0.443,0.147-0.889,0.221-1.337,0.221
							c-0.582,0-1.039-0.081-1.373-0.243c-0.334-0.162-0.586-0.355-0.758-0.58c-0.172-0.224-0.281-0.455-0.329-0.693
							s-0.071-0.434-0.071-0.586c0-0.41,0.079-0.75,0.236-1.022c0.157-0.271,0.364-0.491,0.622-0.658
							c0.257-0.167,0.545-0.293,0.864-0.379s0.646-0.157,0.98-0.214c0.4-0.057,0.738-0.1,1.015-0.129
							c0.276-0.028,0.503-0.064,0.68-0.107c0.176-0.043,0.305-0.105,0.386-0.186s0.126-0.212,0.136-0.394v-0.2
							c-0.01-0.238-0.064-0.421-0.164-0.55c-0.101-0.129-0.215-0.224-0.344-0.286c-0.128-0.062-0.257-0.098-0.386-0.107
							c-0.129-0.01-0.222-0.015-0.279-0.015c-0.095,0-0.219,0.01-0.371,0.029s-0.301,0.069-0.443,0.15
							c-0.144,0.081-0.265,0.198-0.365,0.351c-0.1,0.152-0.149,0.362-0.149,0.629H600.611z M605.188,148.908
							c-0.159,0.076-0.284,0.131-0.373,0.164c-0.089,0.034-0.176,0.062-0.26,0.086c-0.085,0.024-0.184,0.043-0.296,0.057
							c-0.112,0.015-0.272,0.041-0.479,0.079c-0.112,0.02-0.241,0.045-0.387,0.079c-0.146,0.034-0.282,0.088-0.408,0.165
							c-0.127,0.077-0.234,0.179-0.324,0.308c-0.089,0.129-0.133,0.293-0.133,0.493c0,0.172,0.037,0.312,0.112,0.422
							c0.075,0.11,0.169,0.196,0.281,0.257c0.112,0.062,0.232,0.105,0.358,0.129c0.127,0.024,0.242,0.036,0.346,0.036
							c0.131,0,0.286-0.026,0.464-0.079c0.179-0.052,0.35-0.145,0.514-0.279c0.164-0.133,0.303-0.319,0.415-0.558
							c0.113-0.238,0.169-0.539,0.169-0.901V148.908z"/>
					</g>
				</g>
				<g>
					<g>
						<path fill="#585A5E" d="M527.692,176.666c0.554,0,1.007,0.072,1.358,0.214c0.351,0.143,0.626,0.325,0.825,0.546
							c0.199,0.221,0.338,0.468,0.416,0.741s0.117,0.544,0.117,0.812c0,0.243-0.039,0.475-0.115,0.696
							c-0.077,0.221-0.184,0.418-0.32,0.591s-0.295,0.318-0.475,0.436c-0.179,0.117-0.375,0.193-0.589,0.228v0.039
							c0.188,0.035,0.392,0.095,0.61,0.182c0.219,0.087,0.422,0.217,0.61,0.39s0.347,0.396,0.476,0.669
							c0.128,0.273,0.192,0.613,0.192,1.021c0,0.33-0.048,0.646-0.143,0.949c-0.096,0.303-0.267,0.572-0.514,0.806
							c-0.247,0.234-0.579,0.422-0.995,0.565c-0.415,0.143-0.948,0.214-1.599,0.214h-3.848v-9.1H527.692z M524.923,180.527h2.472
							c0.341,0,0.624-0.039,0.851-0.117s0.41-0.182,0.55-0.312c0.139-0.13,0.239-0.279,0.301-0.449
							c0.061-0.169,0.091-0.349,0.091-0.539c0-0.13-0.02-0.277-0.059-0.442c-0.039-0.165-0.12-0.318-0.242-0.461
							s-0.299-0.264-0.529-0.364c-0.231-0.1-0.538-0.15-0.922-0.15h-2.512V180.527z M524.923,184.739h2.549
							c0.21,0,0.438-0.015,0.687-0.045c0.249-0.03,0.478-0.1,0.687-0.208s0.384-0.269,0.523-0.481
							c0.139-0.212,0.209-0.504,0.209-0.877c0-0.294-0.051-0.542-0.15-0.741c-0.101-0.199-0.242-0.36-0.425-0.481
							c-0.184-0.122-0.403-0.21-0.66-0.267c-0.258-0.056-0.547-0.084-0.87-0.084h-2.549V184.739z"/>
						<path fill="#585A5E" d="M532.463,176.666h1.145v1.196h-1.145V176.666z M533.607,179.162v6.604h-1.145v-6.604H533.607z"/>
						<path fill="#585A5E" d="M541.368,176.666v9.1h-1.066v-0.91h-0.039c-0.052,0.104-0.13,0.226-0.233,0.364
							c-0.104,0.139-0.243,0.267-0.416,0.383c-0.174,0.117-0.386,0.217-0.638,0.299c-0.251,0.082-0.55,0.123-0.896,0.123
							c-0.485,0-0.915-0.086-1.287-0.26c-0.373-0.173-0.685-0.418-0.937-0.734c-0.251-0.316-0.444-0.693-0.578-1.131
							c-0.135-0.438-0.201-0.92-0.201-1.449c0-0.347,0.034-0.726,0.104-1.138c0.069-0.412,0.213-0.797,0.429-1.157
							c0.217-0.36,0.519-0.659,0.904-0.897c0.385-0.238,0.898-0.357,1.54-0.357c0.442,0,0.847,0.074,1.216,0.221
							c0.368,0.147,0.687,0.447,0.955,0.897v-3.354H541.368z M536.285,182.451c0,0.624,0.075,1.12,0.228,1.488
							c0.151,0.369,0.333,0.646,0.546,0.832c0.212,0.187,0.436,0.308,0.669,0.364c0.234,0.056,0.434,0.084,0.599,0.084
							c0.251,0,0.496-0.05,0.734-0.149s0.448-0.26,0.63-0.481c0.183-0.221,0.33-0.509,0.442-0.865s0.169-0.789,0.169-1.3
							c0-0.477-0.054-0.886-0.162-1.229s-0.258-0.624-0.449-0.845c-0.19-0.221-0.409-0.383-0.656-0.487s-0.505-0.156-0.773-0.156
							c-0.277,0-0.535,0.052-0.773,0.156s-0.446,0.266-0.624,0.487s-0.318,0.505-0.423,0.852
							C536.337,181.55,536.285,181.966,536.285,182.451z"/>
						<path fill="#585A5E" d="M549.155,176.666v9.1h-1.066v-0.91h-0.039c-0.052,0.104-0.13,0.226-0.233,0.364
							c-0.104,0.139-0.243,0.267-0.416,0.383c-0.174,0.117-0.386,0.217-0.638,0.299c-0.251,0.082-0.55,0.123-0.896,0.123
							c-0.485,0-0.915-0.086-1.287-0.26c-0.373-0.173-0.685-0.418-0.937-0.734c-0.251-0.316-0.444-0.693-0.578-1.131
							c-0.135-0.438-0.201-0.92-0.201-1.449c0-0.347,0.034-0.726,0.104-1.138c0.069-0.412,0.213-0.797,0.429-1.157
							c0.217-0.36,0.519-0.659,0.904-0.897c0.385-0.238,0.898-0.357,1.54-0.357c0.442,0,0.847,0.074,1.216,0.221
							c0.368,0.147,0.687,0.447,0.955,0.897v-3.354H549.155z M544.072,182.451c0,0.624,0.075,1.12,0.228,1.488
							c0.151,0.369,0.333,0.646,0.546,0.832c0.212,0.187,0.436,0.308,0.669,0.364c0.234,0.056,0.434,0.084,0.599,0.084
							c0.251,0,0.496-0.05,0.734-0.149s0.448-0.26,0.63-0.481c0.183-0.221,0.33-0.509,0.442-0.865s0.169-0.789,0.169-1.3
							c0-0.477-0.054-0.886-0.162-1.229s-0.258-0.624-0.449-0.845c-0.19-0.221-0.409-0.383-0.656-0.487s-0.505-0.156-0.773-0.156
							c-0.277,0-0.535,0.052-0.773,0.156s-0.446,0.266-0.624,0.487s-0.318,0.505-0.423,0.852
							C544.124,181.55,544.072,181.966,544.072,182.451z"/>
						<path fill="#585A5E" d="M556.877,183.855c-0.044,0.234-0.124,0.479-0.241,0.735c-0.116,0.255-0.286,0.49-0.507,0.702
							c-0.221,0.212-0.505,0.388-0.852,0.526c-0.347,0.139-0.775,0.208-1.287,0.208c-0.546,0-1.007-0.074-1.384-0.221
							c-0.377-0.147-0.689-0.336-0.937-0.565s-0.439-0.483-0.578-0.761s-0.24-0.546-0.306-0.806
							c-0.065-0.26-0.104-0.496-0.117-0.708s-0.02-0.371-0.02-0.475c0-0.147,0.009-0.34,0.026-0.579
							c0.017-0.238,0.061-0.49,0.13-0.754s0.173-0.531,0.312-0.8c0.139-0.269,0.327-0.511,0.565-0.728
							c0.238-0.216,0.535-0.392,0.891-0.526c0.355-0.134,0.789-0.201,1.301-0.201c0.658,0,1.185,0.115,1.579,0.344
							c0.395,0.23,0.697,0.518,0.91,0.865c0.212,0.347,0.355,0.726,0.429,1.137s0.119,0.795,0.137,1.15
							c0,0.052,0.002,0.106,0.007,0.163c0.004,0.057,0.006,0.11,0.006,0.163h-5.083c0,0.286,0.039,0.577,0.117,0.871
							s0.199,0.561,0.364,0.799c0.164,0.239,0.379,0.436,0.644,0.592c0.264,0.156,0.587,0.234,0.968,0.234
							c0.269,0,0.512-0.037,0.729-0.111c0.217-0.073,0.4-0.173,0.553-0.299c0.151-0.125,0.272-0.271,0.363-0.436
							c0.092-0.165,0.154-0.338,0.188-0.52H556.877z M555.732,181.918c-0.009-0.216-0.039-0.455-0.091-0.715
							c-0.052-0.26-0.146-0.5-0.279-0.722c-0.135-0.221-0.318-0.405-0.553-0.552s-0.537-0.221-0.91-0.221
							c-0.416,0-0.759,0.076-1.026,0.228c-0.27,0.152-0.479,0.34-0.631,0.565c-0.151,0.226-0.254,0.466-0.306,0.722
							c-0.052,0.256-0.078,0.487-0.078,0.695H555.732z"/>
						<path fill="#585A5E" d="M562.129,179.708c-0.391,0.018-0.734,0.069-1.033,0.156c-0.3,0.086-0.556,0.221-0.768,0.403
							s-0.382,0.416-0.507,0.702c-0.126,0.286-0.201,0.637-0.228,1.053c-0.009,0.122-0.013,0.239-0.013,0.351
							c0,0.113,0,0.23,0,0.351v3.042h-1.145v-6.604h1.145v1.274h0.025c0.078-0.243,0.193-0.457,0.345-0.644
							c0.151-0.186,0.325-0.342,0.521-0.468c0.194-0.125,0.404-0.223,0.63-0.292s0.455-0.108,0.689-0.117l0.338-0.013V179.708z"/>
						<path fill="#585A5E" d="M572.203,185.766h-6.162c0-0.546,0.076-1.018,0.229-1.417c0.152-0.398,0.368-0.754,0.646-1.066
							s0.607-0.598,0.986-0.858c0.379-0.26,0.791-0.529,1.235-0.806c0.191-0.121,0.396-0.251,0.614-0.39
							c0.218-0.138,0.42-0.303,0.607-0.494c0.188-0.191,0.342-0.414,0.464-0.67c0.122-0.255,0.184-0.557,0.184-0.903
							c0-0.572-0.17-1.005-0.509-1.3c-0.34-0.295-0.783-0.442-1.331-0.442c-0.583,0-1.044,0.165-1.383,0.494
							c-0.339,0.33-0.509,0.767-0.509,1.313v0.338h-1.209v-0.273c0-0.208,0.032-0.475,0.098-0.799
							c0.064-0.325,0.206-0.644,0.423-0.956c0.216-0.312,0.53-0.581,0.942-0.806c0.411-0.225,0.964-0.338,1.657-0.338
							c0.468,0,0.888,0.063,1.261,0.188c0.373,0.126,0.691,0.306,0.956,0.54c0.264,0.234,0.468,0.522,0.61,0.865
							c0.144,0.342,0.215,0.73,0.215,1.163c0,0.425-0.052,0.789-0.156,1.092c-0.104,0.303-0.272,0.585-0.507,0.845
							c-0.234,0.26-0.537,0.518-0.91,0.773c-0.373,0.256-0.823,0.553-1.352,0.891c-0.616,0.39-1.066,0.737-1.353,1.04
							c-0.286,0.304-0.473,0.62-0.559,0.949h4.81V185.766z"/>
						<path fill="#585A5E" d="M582.682,183.855c-0.044,0.234-0.124,0.479-0.241,0.735c-0.116,0.255-0.286,0.49-0.507,0.702
							c-0.221,0.212-0.505,0.388-0.852,0.526c-0.347,0.139-0.775,0.208-1.287,0.208c-0.546,0-1.007-0.074-1.384-0.221
							c-0.377-0.147-0.689-0.336-0.937-0.565s-0.439-0.483-0.578-0.761s-0.24-0.546-0.306-0.806
							c-0.065-0.26-0.104-0.496-0.117-0.708s-0.02-0.371-0.02-0.475c0-0.147,0.009-0.34,0.026-0.579
							c0.017-0.238,0.061-0.49,0.13-0.754s0.173-0.531,0.312-0.8c0.139-0.269,0.327-0.511,0.565-0.728
							c0.238-0.216,0.535-0.392,0.891-0.526c0.355-0.134,0.789-0.201,1.301-0.201c0.658,0,1.185,0.115,1.579,0.344
							c0.395,0.23,0.697,0.518,0.91,0.865c0.212,0.347,0.355,0.726,0.429,1.137s0.119,0.795,0.137,1.15
							c0,0.052,0.002,0.106,0.007,0.163c0.004,0.057,0.006,0.11,0.006,0.163h-5.083c0,0.286,0.039,0.577,0.117,0.871
							s0.199,0.561,0.364,0.799c0.164,0.239,0.379,0.436,0.644,0.592c0.264,0.156,0.587,0.234,0.968,0.234
							c0.269,0,0.512-0.037,0.729-0.111c0.217-0.073,0.4-0.173,0.553-0.299c0.151-0.125,0.272-0.271,0.363-0.436
							c0.092-0.165,0.154-0.338,0.188-0.52H582.682z M581.537,181.918c-0.009-0.216-0.039-0.455-0.091-0.715
							c-0.052-0.26-0.146-0.5-0.279-0.722c-0.135-0.221-0.318-0.405-0.553-0.552s-0.537-0.221-0.91-0.221
							c-0.416,0-0.759,0.076-1.026,0.228c-0.27,0.152-0.479,0.34-0.631,0.565c-0.151,0.226-0.254,0.466-0.306,0.722
							c-0.052,0.256-0.078,0.487-0.078,0.695H581.537z"/>
						<path fill="#585A5E" d="M585.385,179.162v0.923c0.226-0.329,0.528-0.608,0.91-0.838c0.381-0.229,0.832-0.344,1.352-0.344
							c0.434,0,0.791,0.067,1.073,0.201c0.281,0.135,0.502,0.314,0.663,0.54c0.16,0.226,0.272,0.487,0.338,0.787
							c0.064,0.299,0.098,0.613,0.098,0.942v4.394h-1.145v-4.043c0-0.173-0.007-0.377-0.02-0.611
							c-0.013-0.234-0.061-0.455-0.143-0.663c-0.083-0.208-0.22-0.384-0.41-0.526c-0.19-0.143-0.463-0.215-0.818-0.215
							c-0.156,0-0.343,0.026-0.56,0.078c-0.217,0.052-0.425,0.163-0.624,0.332s-0.368,0.416-0.507,0.741
							c-0.139,0.325-0.208,0.761-0.208,1.307v3.601h-1.144v-6.604H585.385z"/>
						<path fill="#585A5E" d="M597.604,176.666v9.1h-1.065v-0.91H596.5c-0.053,0.104-0.13,0.226-0.234,0.364
							c-0.104,0.139-0.243,0.267-0.416,0.383c-0.174,0.117-0.386,0.217-0.637,0.299c-0.252,0.082-0.551,0.123-0.897,0.123
							c-0.485,0-0.914-0.086-1.287-0.26c-0.372-0.173-0.685-0.418-0.936-0.734c-0.252-0.316-0.444-0.693-0.578-1.131
							c-0.135-0.438-0.202-0.92-0.202-1.449c0-0.347,0.035-0.726,0.104-1.138c0.069-0.412,0.212-0.797,0.429-1.157
							c0.217-0.36,0.518-0.659,0.903-0.897s0.899-0.357,1.541-0.357c0.441,0,0.847,0.074,1.215,0.221
							c0.368,0.147,0.688,0.447,0.956,0.897v-3.354H597.604z M592.521,182.451c0,0.624,0.076,1.12,0.228,1.488
							c0.151,0.369,0.334,0.646,0.546,0.832c0.213,0.187,0.436,0.308,0.67,0.364c0.233,0.056,0.433,0.084,0.598,0.084
							c0.251,0,0.496-0.05,0.734-0.149s0.449-0.26,0.631-0.481c0.182-0.221,0.329-0.509,0.442-0.865
							c0.112-0.355,0.169-0.789,0.169-1.3c0-0.477-0.055-0.886-0.163-1.229s-0.258-0.624-0.448-0.845s-0.409-0.383-0.656-0.487
							s-0.505-0.156-0.773-0.156c-0.278,0-0.535,0.052-0.773,0.156c-0.239,0.104-0.447,0.266-0.624,0.487
							c-0.178,0.221-0.319,0.505-0.423,0.852C592.573,181.55,592.521,181.966,592.521,182.451z"/>
						<path fill="#585A5E" d="M600.543,179.162v0.91h0.039c0.164-0.251,0.345-0.453,0.539-0.604
							c0.195-0.152,0.391-0.271,0.585-0.357c0.195-0.087,0.384-0.143,0.565-0.169c0.183-0.026,0.347-0.039,0.494-0.039
							c0.407,0,0.791,0.069,1.15,0.208s0.676,0.353,0.949,0.643c0.273,0.291,0.487,0.661,0.644,1.112s0.234,0.983,0.234,1.599
							c0,0.641-0.083,1.187-0.247,1.638c-0.165,0.451-0.386,0.819-0.663,1.105s-0.594,0.494-0.949,0.624s-0.72,0.195-1.092,0.195
							c-0.069,0-0.193-0.008-0.371-0.026s-0.375-0.067-0.591-0.149c-0.217-0.083-0.436-0.204-0.657-0.364
							c-0.221-0.161-0.405-0.384-0.552-0.67v3.354h-1.145v-9.009H600.543z M600.543,182.49c0,0.511,0.064,0.94,0.194,1.287
							c0.131,0.347,0.297,0.628,0.501,0.845c0.203,0.217,0.425,0.371,0.663,0.461c0.238,0.091,0.466,0.137,0.683,0.137
							c0.233,0,0.466-0.045,0.695-0.137c0.229-0.091,0.438-0.242,0.624-0.455c0.187-0.212,0.338-0.494,0.455-0.845
							s0.176-0.791,0.176-1.319c0-0.85-0.174-1.521-0.521-2.015c-0.347-0.494-0.845-0.741-1.495-0.741
							c-0.147,0-0.334,0.028-0.559,0.084c-0.226,0.057-0.442,0.18-0.65,0.371c-0.208,0.191-0.388,0.47-0.539,0.838
							C600.618,181.37,600.543,181.866,600.543,182.49z"/>
						<path fill="#585A5E" d="M606.86,182.464c0-0.442,0.057-0.875,0.169-1.3c0.112-0.424,0.297-0.804,0.553-1.137
							c0.256-0.334,0.592-0.605,1.008-0.812c0.416-0.208,0.923-0.312,1.521-0.312c0.599,0,1.105,0.104,1.521,0.312
							c0.416,0.208,0.751,0.479,1.007,0.812c0.256,0.333,0.44,0.713,0.553,1.137c0.112,0.425,0.169,0.858,0.169,1.3
							c0,0.442-0.057,0.875-0.169,1.3s-0.297,0.804-0.553,1.138c-0.256,0.333-0.591,0.604-1.007,0.812
							c-0.416,0.208-0.923,0.312-1.521,0.312c-0.598,0-1.104-0.104-1.521-0.312c-0.416-0.208-0.752-0.479-1.008-0.812
							c-0.256-0.334-0.44-0.713-0.553-1.138S606.86,182.906,606.86,182.464z M608.069,182.464c0,0.655,0.082,1.168,0.247,1.54
							c0.165,0.371,0.359,0.647,0.585,0.828s0.45,0.291,0.676,0.33c0.226,0.039,0.403,0.058,0.533,0.058s0.308-0.02,0.533-0.058
							c0.226-0.039,0.45-0.149,0.676-0.33s0.421-0.458,0.585-0.828c0.165-0.371,0.247-0.884,0.247-1.54
							c0-0.656-0.082-1.169-0.247-1.54c-0.164-0.371-0.359-0.647-0.585-0.828s-0.45-0.291-0.676-0.33
							c-0.226-0.039-0.403-0.059-0.533-0.059s-0.308,0.02-0.533,0.059c-0.226,0.039-0.45,0.148-0.676,0.33s-0.42,0.458-0.585,0.828
							C608.151,181.295,608.069,181.809,608.069,182.464z"/>
						<path fill="#585A5E" d="M614.83,176.666h1.144v1.196h-1.144V176.666z M615.974,179.162v6.604h-1.144v-6.604H615.974z"/>
						<path fill="#585A5E" d="M618.964,179.162v0.923c0.225-0.329,0.528-0.608,0.91-0.838c0.381-0.229,0.831-0.344,1.352-0.344
							c0.434,0,0.791,0.067,1.072,0.201c0.281,0.135,0.503,0.314,0.663,0.54c0.16,0.226,0.273,0.487,0.338,0.787
							c0.065,0.299,0.098,0.613,0.098,0.942v4.394h-1.144v-4.043c0-0.173-0.007-0.377-0.02-0.611
							c-0.014-0.234-0.062-0.455-0.144-0.663s-0.219-0.384-0.409-0.526c-0.19-0.143-0.464-0.215-0.819-0.215
							c-0.156,0-0.342,0.026-0.559,0.078c-0.217,0.052-0.425,0.163-0.624,0.332s-0.368,0.416-0.507,0.741
							c-0.139,0.325-0.208,0.761-0.208,1.307v3.601h-1.145v-6.604H618.964z"/>
						<path fill="#585A5E" d="M625.685,179.162v-1.976h1.145v1.976h1.403v0.806h-1.403v4.199c0,0.122,0.002,0.236,0.006,0.345
							c0.005,0.108,0.026,0.206,0.065,0.292s0.105,0.154,0.201,0.201c0.096,0.048,0.234,0.072,0.416,0.072
							c0.121,0,0.243-0.011,0.364-0.033c0.121-0.021,0.238-0.05,0.351-0.084v0.806c-0.182,0.078-0.377,0.141-0.585,0.188
							c-0.208,0.047-0.411,0.071-0.61,0.071c-0.338,0-0.601-0.052-0.787-0.156s-0.32-0.236-0.402-0.396
							c-0.083-0.16-0.131-0.336-0.144-0.526c-0.013-0.191-0.02-0.373-0.02-0.546v-4.433h-1.183v-0.806H625.685z"/>
					</g>
				</g>
			</g>
			<g>
				<g>
					<rect x="514.863" y="50.075" fill="#DCDCDD" width="123.363" height="72.355"/>
				</g>
				<rect x="514.863" y="50.075" fill="#20B5AE" width="123.363" height="31.946"/>
				<g>
					<g>
						<path fill="#FFFFFF" d="M550.905,63.39c0.658,0,1.188,0.081,1.588,0.243c0.4,0.163,0.712,0.37,0.937,0.622
							c0.224,0.253,0.374,0.529,0.45,0.83s0.114,0.584,0.114,0.851c0,0.582-0.152,1.035-0.457,1.359
							c-0.306,0.324-0.701,0.567-1.188,0.729v0.015c0.19,0.038,0.41,0.107,0.658,0.207s0.481,0.248,0.7,0.443
							c0.22,0.196,0.403,0.448,0.551,0.758c0.147,0.31,0.222,0.694,0.222,1.151c0,0.601-0.117,1.084-0.351,1.451
							c-0.233,0.367-0.534,0.651-0.9,0.851c-0.367,0.2-0.777,0.334-1.23,0.4c-0.452,0.067-0.903,0.1-1.351,0.1h-4.763V63.39H550.905
							z M548.246,67.336h2.173c0.238,0,0.434-0.036,0.587-0.107c0.152-0.072,0.271-0.16,0.357-0.265
							c0.086-0.104,0.146-0.217,0.179-0.336s0.05-0.227,0.05-0.322c0-0.105-0.017-0.214-0.05-0.329
							c-0.033-0.114-0.098-0.219-0.193-0.314s-0.227-0.174-0.393-0.236c-0.167-0.062-0.38-0.093-0.637-0.093h-2.073V67.336z
							 M548.246,71.455h2.445c0.104,0,0.23-0.017,0.379-0.05c0.147-0.034,0.29-0.091,0.429-0.172
							c0.138-0.081,0.255-0.195,0.351-0.343c0.095-0.147,0.143-0.336,0.143-0.565c0-0.238-0.043-0.431-0.129-0.579
							c-0.086-0.147-0.202-0.264-0.35-0.35c-0.148-0.086-0.32-0.143-0.516-0.172c-0.195-0.028-0.397-0.042-0.607-0.042h-2.145
							V71.455z"/>
						<path fill="#FFFFFF" d="M556.225,68.48c0.02-0.419,0.098-0.777,0.236-1.072c0.138-0.295,0.312-0.539,0.522-0.729
							c0.209-0.19,0.44-0.34,0.693-0.45c0.252-0.109,0.503-0.19,0.75-0.243c0.248-0.052,0.479-0.086,0.694-0.1
							c0.214-0.014,0.388-0.021,0.521-0.021c0.544,0,1.003,0.048,1.38,0.143s0.688,0.219,0.937,0.372
							c0.248,0.153,0.441,0.327,0.579,0.522c0.139,0.196,0.241,0.396,0.308,0.601c0.066,0.205,0.105,0.4,0.114,0.586
							c0.01,0.186,0.015,0.351,0.015,0.493l-0.043,3.318c-0.01,0.4,0.007,0.717,0.05,0.951c0.043,0.234,0.17,0.375,0.379,0.422
							v0.129h-2.288l-0.186-0.715h-0.043c-0.286,0.362-0.65,0.617-1.094,0.765c-0.443,0.147-0.889,0.221-1.337,0.221
							c-0.582,0-1.039-0.081-1.373-0.243c-0.334-0.162-0.586-0.355-0.758-0.58c-0.172-0.224-0.281-0.455-0.329-0.693
							s-0.071-0.434-0.071-0.586c0-0.41,0.079-0.75,0.236-1.022c0.157-0.271,0.364-0.491,0.622-0.658
							c0.257-0.167,0.545-0.293,0.864-0.379s0.646-0.157,0.98-0.214c0.4-0.057,0.738-0.1,1.015-0.129
							c0.276-0.028,0.503-0.064,0.68-0.107c0.176-0.043,0.305-0.105,0.386-0.186s0.126-0.212,0.136-0.394v-0.2
							c-0.01-0.238-0.064-0.421-0.164-0.55c-0.101-0.129-0.215-0.224-0.344-0.286c-0.128-0.062-0.257-0.098-0.386-0.107
							c-0.129-0.01-0.222-0.015-0.279-0.015c-0.095,0-0.219,0.01-0.371,0.029s-0.301,0.069-0.443,0.15
							c-0.144,0.081-0.265,0.198-0.365,0.351c-0.1,0.152-0.149,0.362-0.149,0.629H556.225z M560.801,69.939
							c-0.159,0.076-0.284,0.131-0.373,0.164c-0.089,0.034-0.176,0.062-0.26,0.086c-0.085,0.024-0.184,0.043-0.296,0.057
							c-0.112,0.015-0.272,0.041-0.479,0.079c-0.112,0.02-0.241,0.045-0.387,0.079c-0.146,0.034-0.282,0.088-0.408,0.165
							c-0.127,0.077-0.234,0.179-0.324,0.308c-0.089,0.129-0.133,0.293-0.133,0.493c0,0.172,0.037,0.312,0.112,0.422
							c0.075,0.11,0.169,0.196,0.281,0.257c0.112,0.062,0.232,0.105,0.358,0.129c0.127,0.024,0.242,0.036,0.346,0.036
							c0.131,0,0.286-0.026,0.464-0.079c0.179-0.052,0.35-0.145,0.514-0.279c0.164-0.133,0.303-0.319,0.415-0.558
							c0.113-0.238,0.169-0.539,0.169-0.901V69.939z"/>
						<path fill="#FFFFFF" d="M566.936,63.39v10.01h-2.174V63.39H566.936z"/>
						<path fill="#FFFFFF" d="M570.911,63.39v10.01h-2.174V63.39H570.911z"/>
						<path fill="#FFFFFF" d="M580.049,71.297c-0.143,0.515-0.357,0.927-0.644,1.237c-0.286,0.31-0.605,0.551-0.958,0.722
							c-0.353,0.172-0.72,0.284-1.102,0.336c-0.381,0.052-0.738,0.079-1.072,0.079c-0.162,0-0.369-0.012-0.622-0.036
							s-0.524-0.076-0.814-0.157c-0.291-0.081-0.582-0.205-0.873-0.372c-0.291-0.167-0.556-0.396-0.793-0.687
							c-0.239-0.291-0.432-0.653-0.579-1.087c-0.148-0.434-0.222-0.96-0.222-1.58c0-0.629,0.1-1.185,0.3-1.666
							s0.481-0.887,0.844-1.215c0.362-0.329,0.794-0.579,1.294-0.751c0.501-0.171,1.046-0.257,1.638-0.257
							c0.591,0,1.092,0.079,1.501,0.236c0.41,0.157,0.753,0.36,1.03,0.608c0.276,0.248,0.495,0.527,0.657,0.836
							c0.162,0.31,0.284,0.615,0.365,0.916s0.131,0.579,0.149,0.836c0.02,0.257,0.034,0.458,0.043,0.601l0.015,0.4h-5.577
							c0,0.171,0.026,0.37,0.079,0.593c0.053,0.224,0.145,0.434,0.274,0.629s0.308,0.36,0.534,0.493
							c0.226,0.134,0.517,0.2,0.872,0.2c0.317,0,0.621-0.071,0.909-0.214c0.289-0.143,0.481-0.376,0.577-0.701H580.049z
							 M577.946,69.081c-0.009-0.391-0.069-0.703-0.179-0.937c-0.109-0.233-0.243-0.41-0.4-0.529s-0.321-0.198-0.493-0.236
							c-0.172-0.038-0.324-0.057-0.457-0.057c-0.324,0-0.597,0.057-0.815,0.172c-0.22,0.114-0.4,0.257-0.544,0.429
							c-0.143,0.172-0.247,0.363-0.314,0.572c-0.066,0.209-0.104,0.405-0.114,0.586H577.946z"/>
						<path fill="#FFFFFF" d="M586.626,67.336c-0.095-0.01-0.19-0.015-0.285-0.015c-0.096,0-0.191,0-0.286,0
							c-0.314,0-0.608,0.043-0.88,0.128c-0.271,0.086-0.508,0.243-0.708,0.471c-0.2,0.228-0.359,0.544-0.479,0.949
							c-0.119,0.404-0.179,0.925-0.179,1.562v2.967h-2.174v-7.264h2.174v1.201c0.143-0.298,0.31-0.544,0.5-0.736
							c0.19-0.193,0.4-0.342,0.63-0.448c0.229-0.106,0.464-0.181,0.707-0.224s0.484-0.065,0.723-0.065h0.257V67.336z"/>
						<path fill="#FFFFFF" d="M587.699,63.39h2.174v1.702h-2.174V63.39z M589.873,66.135v7.264h-2.174v-7.264H589.873z"/>
						<path fill="#FFFFFF" d="M593.762,67.007c0.296-0.4,0.668-0.691,1.116-0.872c0.447-0.181,0.915-0.272,1.401-0.272
							c0.247,0,0.512,0.029,0.793,0.086s0.544,0.186,0.787,0.386s0.445,0.498,0.607,0.894s0.243,0.932,0.243,1.609v4.562h-2.174
							v-4.204c0-0.181-0.01-0.379-0.028-0.594c-0.02-0.214-0.069-0.417-0.15-0.607s-0.205-0.351-0.372-0.479
							c-0.167-0.129-0.393-0.193-0.679-0.193c-0.362,0-0.642,0.088-0.837,0.265c-0.195,0.177-0.338,0.379-0.429,0.608
							c-0.091,0.229-0.146,0.453-0.164,0.672c-0.02,0.22-0.029,0.367-0.029,0.443v4.09h-2.174v-7.264h2.088V67.007z"/>
						<path fill="#FFFFFF" d="M600.611,68.48c0.02-0.419,0.098-0.777,0.236-1.072c0.138-0.295,0.312-0.539,0.522-0.729
							c0.209-0.19,0.44-0.34,0.693-0.45c0.252-0.109,0.503-0.19,0.75-0.243c0.248-0.052,0.479-0.086,0.694-0.1
							c0.214-0.014,0.388-0.021,0.521-0.021c0.544,0,1.003,0.048,1.38,0.143s0.688,0.219,0.937,0.372
							c0.248,0.153,0.441,0.327,0.579,0.522c0.139,0.196,0.241,0.396,0.308,0.601c0.066,0.205,0.105,0.4,0.114,0.586
							c0.01,0.186,0.015,0.351,0.015,0.493l-0.043,3.318c-0.01,0.4,0.007,0.717,0.05,0.951c0.043,0.234,0.17,0.375,0.379,0.422
							v0.129h-2.288l-0.186-0.715h-0.043c-0.286,0.362-0.65,0.617-1.094,0.765c-0.443,0.147-0.889,0.221-1.337,0.221
							c-0.582,0-1.039-0.081-1.373-0.243c-0.334-0.162-0.586-0.355-0.758-0.58c-0.172-0.224-0.281-0.455-0.329-0.693
							s-0.071-0.434-0.071-0.586c0-0.41,0.079-0.75,0.236-1.022c0.157-0.271,0.364-0.491,0.622-0.658
							c0.257-0.167,0.545-0.293,0.864-0.379s0.646-0.157,0.98-0.214c0.4-0.057,0.738-0.1,1.015-0.129
							c0.276-0.028,0.503-0.064,0.68-0.107c0.176-0.043,0.305-0.105,0.386-0.186s0.126-0.212,0.136-0.394v-0.2
							c-0.01-0.238-0.064-0.421-0.164-0.55c-0.101-0.129-0.215-0.224-0.344-0.286c-0.128-0.062-0.257-0.098-0.386-0.107
							c-0.129-0.01-0.222-0.015-0.279-0.015c-0.095,0-0.219,0.01-0.371,0.029s-0.301,0.069-0.443,0.15
							c-0.144,0.081-0.265,0.198-0.365,0.351c-0.1,0.152-0.149,0.362-0.149,0.629H600.611z M605.188,69.939
							c-0.159,0.076-0.284,0.131-0.373,0.164c-0.089,0.034-0.176,0.062-0.26,0.086c-0.085,0.024-0.184,0.043-0.296,0.057
							c-0.112,0.015-0.272,0.041-0.479,0.079c-0.112,0.02-0.241,0.045-0.387,0.079c-0.146,0.034-0.282,0.088-0.408,0.165
							c-0.127,0.077-0.234,0.179-0.324,0.308c-0.089,0.129-0.133,0.293-0.133,0.493c0,0.172,0.037,0.312,0.112,0.422
							c0.075,0.11,0.169,0.196,0.281,0.257c0.112,0.062,0.232,0.105,0.358,0.129c0.127,0.024,0.242,0.036,0.346,0.036
							c0.131,0,0.286-0.026,0.464-0.079c0.179-0.052,0.35-0.145,0.514-0.279c0.164-0.133,0.303-0.319,0.415-0.558
							c0.113-0.238,0.169-0.539,0.169-0.901V69.939z"/>
					</g>
				</g>
				<g>
					<g>
						<path fill="#585A5E" d="M527.692,97.697c0.554,0,1.007,0.072,1.358,0.214c0.351,0.143,0.626,0.325,0.825,0.546
							c0.199,0.221,0.338,0.468,0.416,0.741s0.117,0.544,0.117,0.812c0,0.243-0.039,0.475-0.115,0.696
							c-0.077,0.221-0.184,0.418-0.32,0.591s-0.295,0.318-0.475,0.436c-0.179,0.117-0.375,0.193-0.589,0.228V102
							c0.188,0.035,0.392,0.095,0.61,0.182c0.219,0.087,0.422,0.217,0.61,0.39s0.347,0.396,0.476,0.669
							c0.128,0.273,0.192,0.613,0.192,1.021c0,0.33-0.048,0.646-0.143,0.949c-0.096,0.303-0.267,0.572-0.514,0.806
							c-0.247,0.234-0.579,0.422-0.995,0.565c-0.415,0.143-0.948,0.214-1.599,0.214h-3.848v-9.1H527.692z M524.923,101.559h2.472
							c0.341,0,0.624-0.039,0.851-0.117s0.41-0.182,0.55-0.312c0.139-0.13,0.239-0.279,0.301-0.449
							c0.061-0.169,0.091-0.349,0.091-0.539c0-0.13-0.02-0.277-0.059-0.442c-0.039-0.165-0.12-0.318-0.242-0.461
							s-0.299-0.264-0.529-0.364c-0.231-0.1-0.538-0.15-0.922-0.15h-2.512V101.559z M524.923,105.771h2.549
							c0.21,0,0.438-0.015,0.687-0.045c0.249-0.03,0.478-0.1,0.687-0.208s0.384-0.269,0.523-0.481
							c0.139-0.212,0.209-0.504,0.209-0.877c0-0.294-0.051-0.542-0.15-0.741c-0.101-0.199-0.242-0.36-0.425-0.481
							c-0.184-0.122-0.403-0.21-0.66-0.267c-0.258-0.056-0.547-0.084-0.87-0.084h-2.549V105.771z"/>
						<path fill="#585A5E" d="M532.463,97.697h1.145v1.196h-1.145V97.697z M533.607,100.193v6.604h-1.145v-6.604H533.607z"/>
						<path fill="#585A5E" d="M541.368,97.697v9.1h-1.066v-0.91h-0.039c-0.052,0.104-0.13,0.226-0.233,0.364
							c-0.104,0.139-0.243,0.267-0.416,0.383c-0.174,0.117-0.386,0.217-0.638,0.299c-0.251,0.082-0.55,0.123-0.896,0.123
							c-0.485,0-0.915-0.086-1.287-0.26c-0.373-0.173-0.685-0.418-0.937-0.734c-0.251-0.316-0.444-0.693-0.578-1.131
							c-0.135-0.438-0.201-0.92-0.201-1.449c0-0.347,0.034-0.726,0.104-1.138c0.069-0.412,0.213-0.797,0.429-1.157
							c0.217-0.36,0.519-0.659,0.904-0.897c0.385-0.238,0.898-0.357,1.54-0.357c0.442,0,0.847,0.074,1.216,0.221
							c0.368,0.147,0.687,0.447,0.955,0.897v-3.354H541.368z M536.285,103.482c0,0.624,0.075,1.12,0.228,1.488
							c0.151,0.369,0.333,0.646,0.546,0.832c0.212,0.187,0.436,0.308,0.669,0.364c0.234,0.056,0.434,0.084,0.599,0.084
							c0.251,0,0.496-0.05,0.734-0.149s0.448-0.26,0.63-0.481c0.183-0.221,0.33-0.509,0.442-0.865s0.169-0.789,0.169-1.3
							c0-0.477-0.054-0.886-0.162-1.229s-0.258-0.624-0.449-0.845c-0.19-0.221-0.409-0.383-0.656-0.487s-0.505-0.156-0.773-0.156
							c-0.277,0-0.535,0.052-0.773,0.156s-0.446,0.266-0.624,0.487s-0.318,0.505-0.423,0.852
							C536.337,102.581,536.285,102.997,536.285,103.482z"/>
						<path fill="#585A5E" d="M549.155,97.697v9.1h-1.066v-0.91h-0.039c-0.052,0.104-0.13,0.226-0.233,0.364
							c-0.104,0.139-0.243,0.267-0.416,0.383c-0.174,0.117-0.386,0.217-0.638,0.299c-0.251,0.082-0.55,0.123-0.896,0.123
							c-0.485,0-0.915-0.086-1.287-0.26c-0.373-0.173-0.685-0.418-0.937-0.734c-0.251-0.316-0.444-0.693-0.578-1.131
							c-0.135-0.438-0.201-0.92-0.201-1.449c0-0.347,0.034-0.726,0.104-1.138c0.069-0.412,0.213-0.797,0.429-1.157
							c0.217-0.36,0.519-0.659,0.904-0.897c0.385-0.238,0.898-0.357,1.54-0.357c0.442,0,0.847,0.074,1.216,0.221
							c0.368,0.147,0.687,0.447,0.955,0.897v-3.354H549.155z M544.072,103.482c0,0.624,0.075,1.12,0.228,1.488
							c0.151,0.369,0.333,0.646,0.546,0.832c0.212,0.187,0.436,0.308,0.669,0.364c0.234,0.056,0.434,0.084,0.599,0.084
							c0.251,0,0.496-0.05,0.734-0.149s0.448-0.26,0.63-0.481c0.183-0.221,0.33-0.509,0.442-0.865s0.169-0.789,0.169-1.3
							c0-0.477-0.054-0.886-0.162-1.229s-0.258-0.624-0.449-0.845c-0.19-0.221-0.409-0.383-0.656-0.487s-0.505-0.156-0.773-0.156
							c-0.277,0-0.535,0.052-0.773,0.156s-0.446,0.266-0.624,0.487s-0.318,0.505-0.423,0.852
							C544.124,102.581,544.072,102.997,544.072,103.482z"/>
						<path fill="#585A5E" d="M556.877,104.886c-0.044,0.234-0.124,0.479-0.241,0.735c-0.116,0.255-0.286,0.49-0.507,0.702
							c-0.221,0.212-0.505,0.388-0.852,0.526c-0.347,0.139-0.775,0.208-1.287,0.208c-0.546,0-1.007-0.074-1.384-0.221
							c-0.377-0.147-0.689-0.336-0.937-0.565s-0.439-0.483-0.578-0.761s-0.24-0.546-0.306-0.806
							c-0.065-0.26-0.104-0.496-0.117-0.708s-0.02-0.371-0.02-0.475c0-0.147,0.009-0.34,0.026-0.579
							c0.017-0.238,0.061-0.49,0.13-0.754s0.173-0.531,0.312-0.8c0.139-0.269,0.327-0.511,0.565-0.728
							c0.238-0.216,0.535-0.392,0.891-0.526c0.355-0.134,0.789-0.201,1.301-0.201c0.658,0,1.185,0.115,1.579,0.344
							c0.395,0.23,0.697,0.518,0.91,0.865c0.212,0.347,0.355,0.726,0.429,1.137s0.119,0.795,0.137,1.15
							c0,0.052,0.002,0.106,0.007,0.163c0.004,0.057,0.006,0.11,0.006,0.163h-5.083c0,0.286,0.039,0.577,0.117,0.871
							s0.199,0.561,0.364,0.799c0.164,0.239,0.379,0.436,0.644,0.592c0.264,0.156,0.587,0.234,0.968,0.234
							c0.269,0,0.512-0.037,0.729-0.111c0.217-0.073,0.4-0.173,0.553-0.299c0.151-0.125,0.272-0.271,0.363-0.436
							c0.092-0.165,0.154-0.338,0.188-0.52H556.877z M555.732,102.949c-0.009-0.216-0.039-0.455-0.091-0.715
							c-0.052-0.26-0.146-0.5-0.279-0.722c-0.135-0.221-0.318-0.405-0.553-0.552s-0.537-0.221-0.91-0.221
							c-0.416,0-0.759,0.076-1.026,0.228c-0.27,0.152-0.479,0.34-0.631,0.565c-0.151,0.226-0.254,0.466-0.306,0.722
							c-0.052,0.256-0.078,0.487-0.078,0.695H555.732z"/>
						<path fill="#585A5E" d="M562.129,100.739c-0.391,0.018-0.734,0.069-1.033,0.156c-0.3,0.086-0.556,0.221-0.768,0.403
							s-0.382,0.416-0.507,0.702c-0.126,0.286-0.201,0.637-0.228,1.053c-0.009,0.122-0.013,0.239-0.013,0.351
							c0,0.113,0,0.23,0,0.351v3.042h-1.145v-6.604h1.145v1.274h0.025c0.078-0.243,0.193-0.457,0.345-0.644
							c0.151-0.186,0.325-0.342,0.521-0.468c0.194-0.125,0.404-0.223,0.63-0.292s0.455-0.108,0.689-0.117l0.338-0.013V100.739z"/>
						<path fill="#585A5E" d="M567.017,99.322h0.272c0.269,0,0.529-0.039,0.78-0.117c0.251-0.078,0.475-0.187,0.67-0.325
							c0.194-0.139,0.354-0.308,0.48-0.507s0.206-0.425,0.24-0.676h0.858v9.1h-1.222v-6.838h-2.08V99.322z"/>
						<path fill="#585A5E" d="M582.682,104.886c-0.044,0.234-0.124,0.479-0.241,0.735c-0.116,0.255-0.286,0.49-0.507,0.702
							c-0.221,0.212-0.505,0.388-0.852,0.526c-0.347,0.139-0.775,0.208-1.287,0.208c-0.546,0-1.007-0.074-1.384-0.221
							c-0.377-0.147-0.689-0.336-0.937-0.565s-0.439-0.483-0.578-0.761s-0.24-0.546-0.306-0.806
							c-0.065-0.26-0.104-0.496-0.117-0.708s-0.02-0.371-0.02-0.475c0-0.147,0.009-0.34,0.026-0.579
							c0.017-0.238,0.061-0.49,0.13-0.754s0.173-0.531,0.312-0.8c0.139-0.269,0.327-0.511,0.565-0.728
							c0.238-0.216,0.535-0.392,0.891-0.526c0.355-0.134,0.789-0.201,1.301-0.201c0.658,0,1.185,0.115,1.579,0.344
							c0.395,0.23,0.697,0.518,0.91,0.865c0.212,0.347,0.355,0.726,0.429,1.137s0.119,0.795,0.137,1.15
							c0,0.052,0.002,0.106,0.007,0.163c0.004,0.057,0.006,0.11,0.006,0.163h-5.083c0,0.286,0.039,0.577,0.117,0.871
							s0.199,0.561,0.364,0.799c0.164,0.239,0.379,0.436,0.644,0.592c0.264,0.156,0.587,0.234,0.968,0.234
							c0.269,0,0.512-0.037,0.729-0.111c0.217-0.073,0.4-0.173,0.553-0.299c0.151-0.125,0.272-0.271,0.363-0.436
							c0.092-0.165,0.154-0.338,0.188-0.52H582.682z M581.537,102.949c-0.009-0.216-0.039-0.455-0.091-0.715
							c-0.052-0.26-0.146-0.5-0.279-0.722c-0.135-0.221-0.318-0.405-0.553-0.552s-0.537-0.221-0.91-0.221
							c-0.416,0-0.759,0.076-1.026,0.228c-0.27,0.152-0.479,0.34-0.631,0.565c-0.151,0.226-0.254,0.466-0.306,0.722
							c-0.052,0.256-0.078,0.487-0.078,0.695H581.537z"/>
						<path fill="#585A5E" d="M585.385,100.193v0.923c0.226-0.329,0.528-0.608,0.91-0.838c0.381-0.229,0.832-0.344,1.352-0.344
							c0.434,0,0.791,0.067,1.073,0.201c0.281,0.135,0.502,0.314,0.663,0.54c0.16,0.226,0.272,0.487,0.338,0.787
							c0.064,0.299,0.098,0.613,0.098,0.942v4.394h-1.145v-4.043c0-0.173-0.007-0.377-0.02-0.611
							c-0.013-0.234-0.061-0.455-0.143-0.663c-0.083-0.208-0.22-0.384-0.41-0.526c-0.19-0.143-0.463-0.215-0.818-0.215
							c-0.156,0-0.343,0.026-0.56,0.078c-0.217,0.052-0.425,0.163-0.624,0.332s-0.368,0.416-0.507,0.741
							c-0.139,0.325-0.208,0.761-0.208,1.307v3.601h-1.144v-6.604H585.385z"/>
						<path fill="#585A5E" d="M597.604,97.697v9.1h-1.065v-0.91H596.5c-0.053,0.104-0.13,0.226-0.234,0.364
							c-0.104,0.139-0.243,0.267-0.416,0.383c-0.174,0.117-0.386,0.217-0.637,0.299c-0.252,0.082-0.551,0.123-0.897,0.123
							c-0.485,0-0.914-0.086-1.287-0.26c-0.372-0.173-0.685-0.418-0.936-0.734c-0.252-0.316-0.444-0.693-0.578-1.131
							c-0.135-0.438-0.202-0.92-0.202-1.449c0-0.347,0.035-0.726,0.104-1.138c0.069-0.412,0.212-0.797,0.429-1.157
							c0.217-0.36,0.518-0.659,0.903-0.897s0.899-0.357,1.541-0.357c0.441,0,0.847,0.074,1.215,0.221
							c0.368,0.147,0.688,0.447,0.956,0.897v-3.354H597.604z M592.521,103.482c0,0.624,0.076,1.12,0.228,1.488
							c0.151,0.369,0.334,0.646,0.546,0.832c0.213,0.187,0.436,0.308,0.67,0.364c0.233,0.056,0.433,0.084,0.598,0.084
							c0.251,0,0.496-0.05,0.734-0.149s0.449-0.26,0.631-0.481c0.182-0.221,0.329-0.509,0.442-0.865
							c0.112-0.355,0.169-0.789,0.169-1.3c0-0.477-0.055-0.886-0.163-1.229s-0.258-0.624-0.448-0.845s-0.409-0.383-0.656-0.487
							s-0.505-0.156-0.773-0.156c-0.278,0-0.535,0.052-0.773,0.156c-0.239,0.104-0.447,0.266-0.624,0.487
							c-0.178,0.221-0.319,0.505-0.423,0.852C592.573,102.581,592.521,102.997,592.521,103.482z"/>
						<path fill="#585A5E" d="M600.543,100.193v0.91h0.039c0.164-0.251,0.345-0.453,0.539-0.604
							c0.195-0.152,0.391-0.271,0.585-0.357c0.195-0.087,0.384-0.143,0.565-0.169c0.183-0.026,0.347-0.039,0.494-0.039
							c0.407,0,0.791,0.069,1.15,0.208s0.676,0.353,0.949,0.643c0.273,0.291,0.487,0.661,0.644,1.112s0.234,0.983,0.234,1.599
							c0,0.641-0.083,1.187-0.247,1.638c-0.165,0.451-0.386,0.819-0.663,1.105s-0.594,0.494-0.949,0.624s-0.72,0.195-1.092,0.195
							c-0.069,0-0.193-0.008-0.371-0.026s-0.375-0.067-0.591-0.149c-0.217-0.083-0.436-0.204-0.657-0.364
							c-0.221-0.161-0.405-0.384-0.552-0.67v3.354h-1.145v-9.009H600.543z M600.543,103.521c0,0.511,0.064,0.94,0.194,1.287
							c0.131,0.347,0.297,0.628,0.501,0.845c0.203,0.217,0.425,0.371,0.663,0.461c0.238,0.091,0.466,0.137,0.683,0.137
							c0.233,0,0.466-0.045,0.695-0.137c0.229-0.091,0.438-0.242,0.624-0.455c0.187-0.212,0.338-0.494,0.455-0.845
							s0.176-0.791,0.176-1.319c0-0.85-0.174-1.521-0.521-2.015c-0.347-0.494-0.845-0.741-1.495-0.741
							c-0.147,0-0.334,0.028-0.559,0.084c-0.226,0.057-0.442,0.18-0.65,0.371c-0.208,0.191-0.388,0.47-0.539,0.838
							C600.618,102.401,600.543,102.897,600.543,103.521z"/>
						<path fill="#585A5E" d="M606.86,103.496c0-0.442,0.057-0.875,0.169-1.3c0.112-0.424,0.297-0.804,0.553-1.137
							c0.256-0.334,0.592-0.605,1.008-0.812c0.416-0.208,0.923-0.312,1.521-0.312c0.599,0,1.105,0.104,1.521,0.312
							c0.416,0.208,0.751,0.479,1.007,0.812c0.256,0.333,0.44,0.713,0.553,1.137c0.112,0.425,0.169,0.858,0.169,1.3
							c0,0.442-0.057,0.875-0.169,1.3s-0.297,0.804-0.553,1.138c-0.256,0.333-0.591,0.604-1.007,0.812
							c-0.416,0.208-0.923,0.312-1.521,0.312c-0.598,0-1.104-0.104-1.521-0.312c-0.416-0.208-0.752-0.479-1.008-0.812
							c-0.256-0.334-0.44-0.713-0.553-1.138S606.86,103.938,606.86,103.496z M608.069,103.496c0,0.655,0.082,1.168,0.247,1.54
							c0.165,0.371,0.359,0.647,0.585,0.828s0.45,0.291,0.676,0.33c0.226,0.039,0.403,0.058,0.533,0.058s0.308-0.02,0.533-0.058
							c0.226-0.039,0.45-0.149,0.676-0.33s0.421-0.458,0.585-0.828c0.165-0.371,0.247-0.884,0.247-1.54
							c0-0.656-0.082-1.169-0.247-1.54c-0.164-0.371-0.359-0.647-0.585-0.828s-0.45-0.291-0.676-0.33
							c-0.226-0.039-0.403-0.059-0.533-0.059s-0.308,0.02-0.533,0.059c-0.226,0.039-0.45,0.148-0.676,0.33s-0.42,0.458-0.585,0.828
							C608.151,102.327,608.069,102.84,608.069,103.496z"/>
						<path fill="#585A5E" d="M614.83,97.697h1.144v1.196h-1.144V97.697z M615.974,100.193v6.604h-1.144v-6.604H615.974z"/>
						<path fill="#585A5E" d="M618.964,100.193v0.923c0.225-0.329,0.528-0.608,0.91-0.838c0.381-0.229,0.831-0.344,1.352-0.344
							c0.434,0,0.791,0.067,1.072,0.201c0.281,0.135,0.503,0.314,0.663,0.54c0.16,0.226,0.273,0.487,0.338,0.787
							c0.065,0.299,0.098,0.613,0.098,0.942v4.394h-1.144v-4.043c0-0.173-0.007-0.377-0.02-0.611
							c-0.014-0.234-0.062-0.455-0.144-0.663s-0.219-0.384-0.409-0.526c-0.19-0.143-0.464-0.215-0.819-0.215
							c-0.156,0-0.342,0.026-0.559,0.078c-0.217,0.052-0.425,0.163-0.624,0.332s-0.368,0.416-0.507,0.741
							c-0.139,0.325-0.208,0.761-0.208,1.307v3.601h-1.145v-6.604H618.964z"/>
						<path fill="#585A5E" d="M625.685,100.193v-1.976h1.145v1.976h1.403V101h-1.403v4.199c0,0.122,0.002,0.236,0.006,0.345
							c0.005,0.108,0.026,0.206,0.065,0.292s0.105,0.154,0.201,0.201c0.096,0.048,0.234,0.072,0.416,0.072
							c0.121,0,0.243-0.011,0.364-0.033c0.121-0.021,0.238-0.05,0.351-0.084v0.806c-0.182,0.078-0.377,0.141-0.585,0.188
							c-0.208,0.047-0.411,0.071-0.61,0.071c-0.338,0-0.601-0.052-0.787-0.156s-0.32-0.236-0.402-0.396
							c-0.083-0.16-0.131-0.336-0.144-0.526c-0.013-0.191-0.02-0.373-0.02-0.546V101h-1.183v-0.806H625.685z"/>
					</g>
				</g>
			</g>
			<g>
				<g>
					<rect x="514.863" y="208.013" fill="#DCDCDD" width="123.363" height="72.354"/>
				</g>
				<rect x="514.863" y="208.013" fill="#20B5AE" width="123.363" height="31.946"/>
				<g>
					<g>
						<path fill="#FFFFFF" d="M550.905,221.328c0.658,0,1.188,0.081,1.588,0.243c0.4,0.163,0.712,0.37,0.937,0.622
							c0.224,0.253,0.374,0.529,0.45,0.83s0.114,0.584,0.114,0.851c0,0.582-0.152,1.035-0.457,1.359
							c-0.306,0.324-0.701,0.567-1.188,0.729v0.015c0.19,0.038,0.41,0.107,0.658,0.207s0.481,0.248,0.7,0.443
							c0.22,0.196,0.403,0.448,0.551,0.758c0.147,0.31,0.222,0.694,0.222,1.151c0,0.601-0.117,1.084-0.351,1.451
							c-0.233,0.367-0.534,0.651-0.9,0.851c-0.367,0.2-0.777,0.334-1.23,0.4c-0.452,0.067-0.903,0.1-1.351,0.1h-4.763v-10.01
							H550.905z M548.246,225.274h2.173c0.238,0,0.434-0.036,0.587-0.107c0.152-0.072,0.271-0.16,0.357-0.265
							c0.086-0.104,0.146-0.217,0.179-0.336s0.05-0.227,0.05-0.322c0-0.105-0.017-0.214-0.05-0.329
							c-0.033-0.114-0.098-0.219-0.193-0.314s-0.227-0.174-0.393-0.236c-0.167-0.062-0.38-0.093-0.637-0.093h-2.073V225.274z
							 M548.246,229.393h2.445c0.104,0,0.23-0.017,0.379-0.05c0.147-0.034,0.29-0.091,0.429-0.172
							c0.138-0.081,0.255-0.195,0.351-0.343c0.095-0.147,0.143-0.336,0.143-0.565c0-0.238-0.043-0.431-0.129-0.579
							c-0.086-0.147-0.202-0.264-0.35-0.35c-0.148-0.086-0.32-0.143-0.516-0.172c-0.195-0.028-0.397-0.042-0.607-0.042h-2.145
							V229.393z"/>
						<path fill="#FFFFFF" d="M556.225,226.418c0.02-0.419,0.098-0.777,0.236-1.072c0.138-0.295,0.312-0.539,0.522-0.729
							c0.209-0.19,0.44-0.34,0.693-0.45c0.252-0.109,0.503-0.19,0.75-0.243c0.248-0.052,0.479-0.086,0.694-0.1
							c0.214-0.014,0.388-0.021,0.521-0.021c0.544,0,1.003,0.048,1.38,0.143s0.688,0.219,0.937,0.372
							c0.248,0.153,0.441,0.327,0.579,0.522c0.139,0.196,0.241,0.396,0.308,0.601c0.066,0.205,0.105,0.4,0.114,0.586
							c0.01,0.186,0.015,0.351,0.015,0.493l-0.043,3.318c-0.01,0.4,0.007,0.717,0.05,0.951c0.043,0.234,0.17,0.375,0.379,0.422
							v0.129h-2.288l-0.186-0.715h-0.043c-0.286,0.362-0.65,0.617-1.094,0.765c-0.443,0.147-0.889,0.221-1.337,0.221
							c-0.582,0-1.039-0.081-1.373-0.243c-0.334-0.162-0.586-0.355-0.758-0.58c-0.172-0.224-0.281-0.455-0.329-0.693
							s-0.071-0.434-0.071-0.586c0-0.41,0.079-0.75,0.236-1.022c0.157-0.271,0.364-0.491,0.622-0.658
							c0.257-0.167,0.545-0.293,0.864-0.379s0.646-0.157,0.98-0.214c0.4-0.057,0.738-0.1,1.015-0.129
							c0.276-0.028,0.503-0.064,0.68-0.107c0.176-0.043,0.305-0.105,0.386-0.186s0.126-0.212,0.136-0.394v-0.2
							c-0.01-0.238-0.064-0.421-0.164-0.55c-0.101-0.129-0.215-0.224-0.344-0.286c-0.128-0.062-0.257-0.098-0.386-0.107
							c-0.129-0.01-0.222-0.015-0.279-0.015c-0.095,0-0.219,0.01-0.371,0.029s-0.301,0.069-0.443,0.15
							c-0.144,0.081-0.265,0.198-0.365,0.351c-0.1,0.152-0.149,0.362-0.149,0.629H556.225z M560.801,227.877
							c-0.159,0.076-0.284,0.131-0.373,0.164c-0.089,0.034-0.176,0.062-0.26,0.086c-0.085,0.024-0.184,0.043-0.296,0.057
							c-0.112,0.015-0.272,0.041-0.479,0.079c-0.112,0.02-0.241,0.045-0.387,0.079c-0.146,0.034-0.282,0.088-0.408,0.165
							c-0.127,0.077-0.234,0.179-0.324,0.308c-0.089,0.129-0.133,0.293-0.133,0.493c0,0.172,0.037,0.312,0.112,0.422
							c0.075,0.11,0.169,0.196,0.281,0.257c0.112,0.062,0.232,0.105,0.358,0.129c0.127,0.024,0.242,0.036,0.346,0.036
							c0.131,0,0.286-0.026,0.464-0.079c0.179-0.052,0.35-0.145,0.514-0.279c0.164-0.133,0.303-0.319,0.415-0.558
							c0.113-0.238,0.169-0.539,0.169-0.901V227.877z"/>
						<path fill="#FFFFFF" d="M566.936,221.328v10.01h-2.174v-10.01H566.936z"/>
						<path fill="#FFFFFF" d="M570.911,221.328v10.01h-2.174v-10.01H570.911z"/>
						<path fill="#FFFFFF" d="M580.049,229.235c-0.143,0.515-0.357,0.927-0.644,1.237c-0.286,0.31-0.605,0.551-0.958,0.722
							c-0.353,0.172-0.72,0.284-1.102,0.336c-0.381,0.052-0.738,0.079-1.072,0.079c-0.162,0-0.369-0.012-0.622-0.036
							s-0.524-0.076-0.814-0.157c-0.291-0.081-0.582-0.205-0.873-0.372c-0.291-0.167-0.556-0.396-0.793-0.687
							c-0.239-0.291-0.432-0.653-0.579-1.087c-0.148-0.434-0.222-0.96-0.222-1.58c0-0.629,0.1-1.185,0.3-1.666
							s0.481-0.887,0.844-1.215c0.362-0.329,0.794-0.579,1.294-0.751c0.501-0.171,1.046-0.257,1.638-0.257
							c0.591,0,1.092,0.079,1.501,0.236c0.41,0.157,0.753,0.36,1.03,0.608c0.276,0.248,0.495,0.527,0.657,0.836
							c0.162,0.31,0.284,0.615,0.365,0.916s0.131,0.579,0.149,0.836c0.02,0.257,0.034,0.458,0.043,0.601l0.015,0.4h-5.577
							c0,0.171,0.026,0.37,0.079,0.593c0.053,0.224,0.145,0.434,0.274,0.629s0.308,0.36,0.534,0.493
							c0.226,0.134,0.517,0.2,0.872,0.2c0.317,0,0.621-0.071,0.909-0.214c0.289-0.143,0.481-0.376,0.577-0.701H580.049z
							 M577.946,227.019c-0.009-0.391-0.069-0.703-0.179-0.937c-0.109-0.233-0.243-0.41-0.4-0.529s-0.321-0.198-0.493-0.236
							c-0.172-0.038-0.324-0.057-0.457-0.057c-0.324,0-0.597,0.057-0.815,0.172c-0.22,0.114-0.4,0.257-0.544,0.429
							c-0.143,0.172-0.247,0.363-0.314,0.572c-0.066,0.209-0.104,0.405-0.114,0.586H577.946z"/>
						<path fill="#FFFFFF" d="M586.626,225.274c-0.095-0.01-0.19-0.015-0.285-0.015c-0.096,0-0.191,0-0.286,0
							c-0.314,0-0.608,0.043-0.88,0.128c-0.271,0.086-0.508,0.243-0.708,0.471c-0.2,0.228-0.359,0.544-0.479,0.949
							c-0.119,0.404-0.179,0.925-0.179,1.562v2.967h-2.174v-7.264h2.174v1.201c0.143-0.298,0.31-0.544,0.5-0.736
							c0.19-0.193,0.4-0.342,0.63-0.448c0.229-0.106,0.464-0.181,0.707-0.224s0.484-0.065,0.723-0.065h0.257V225.274z"/>
						<path fill="#FFFFFF" d="M587.699,221.328h2.174v1.702h-2.174V221.328z M589.873,224.073v7.264h-2.174v-7.264H589.873z"/>
						<path fill="#FFFFFF" d="M593.762,224.945c0.296-0.4,0.668-0.691,1.116-0.872c0.447-0.181,0.915-0.272,1.401-0.272
							c0.247,0,0.512,0.029,0.793,0.086s0.544,0.186,0.787,0.386s0.445,0.498,0.607,0.894s0.243,0.932,0.243,1.609v4.562h-2.174
							v-4.204c0-0.181-0.01-0.379-0.028-0.594c-0.02-0.214-0.069-0.417-0.15-0.607s-0.205-0.351-0.372-0.479
							c-0.167-0.129-0.393-0.193-0.679-0.193c-0.362,0-0.642,0.088-0.837,0.265c-0.195,0.177-0.338,0.379-0.429,0.608
							c-0.091,0.229-0.146,0.453-0.164,0.672c-0.02,0.22-0.029,0.367-0.029,0.443v4.09h-2.174v-7.264h2.088V224.945z"/>
						<path fill="#FFFFFF" d="M600.611,226.418c0.02-0.419,0.098-0.777,0.236-1.072c0.138-0.295,0.312-0.539,0.522-0.729
							c0.209-0.19,0.44-0.34,0.693-0.45c0.252-0.109,0.503-0.19,0.75-0.243c0.248-0.052,0.479-0.086,0.694-0.1
							c0.214-0.014,0.388-0.021,0.521-0.021c0.544,0,1.003,0.048,1.38,0.143s0.688,0.219,0.937,0.372
							c0.248,0.153,0.441,0.327,0.579,0.522c0.139,0.196,0.241,0.396,0.308,0.601c0.066,0.205,0.105,0.4,0.114,0.586
							c0.01,0.186,0.015,0.351,0.015,0.493l-0.043,3.318c-0.01,0.4,0.007,0.717,0.05,0.951c0.043,0.234,0.17,0.375,0.379,0.422
							v0.129h-2.288l-0.186-0.715h-0.043c-0.286,0.362-0.65,0.617-1.094,0.765c-0.443,0.147-0.889,0.221-1.337,0.221
							c-0.582,0-1.039-0.081-1.373-0.243c-0.334-0.162-0.586-0.355-0.758-0.58c-0.172-0.224-0.281-0.455-0.329-0.693
							s-0.071-0.434-0.071-0.586c0-0.41,0.079-0.75,0.236-1.022c0.157-0.271,0.364-0.491,0.622-0.658
							c0.257-0.167,0.545-0.293,0.864-0.379s0.646-0.157,0.98-0.214c0.4-0.057,0.738-0.1,1.015-0.129
							c0.276-0.028,0.503-0.064,0.68-0.107c0.176-0.043,0.305-0.105,0.386-0.186s0.126-0.212,0.136-0.394v-0.2
							c-0.01-0.238-0.064-0.421-0.164-0.55c-0.101-0.129-0.215-0.224-0.344-0.286c-0.128-0.062-0.257-0.098-0.386-0.107
							c-0.129-0.01-0.222-0.015-0.279-0.015c-0.095,0-0.219,0.01-0.371,0.029s-0.301,0.069-0.443,0.15
							c-0.144,0.081-0.265,0.198-0.365,0.351c-0.1,0.152-0.149,0.362-0.149,0.629H600.611z M605.188,227.877
							c-0.159,0.076-0.284,0.131-0.373,0.164c-0.089,0.034-0.176,0.062-0.26,0.086c-0.085,0.024-0.184,0.043-0.296,0.057
							c-0.112,0.015-0.272,0.041-0.479,0.079c-0.112,0.02-0.241,0.045-0.387,0.079c-0.146,0.034-0.282,0.088-0.408,0.165
							c-0.127,0.077-0.234,0.179-0.324,0.308c-0.089,0.129-0.133,0.293-0.133,0.493c0,0.172,0.037,0.312,0.112,0.422
							c0.075,0.11,0.169,0.196,0.281,0.257c0.112,0.062,0.232,0.105,0.358,0.129c0.127,0.024,0.242,0.036,0.346,0.036
							c0.131,0,0.286-0.026,0.464-0.079c0.179-0.052,0.35-0.145,0.514-0.279c0.164-0.133,0.303-0.319,0.415-0.558
							c0.113-0.238,0.169-0.539,0.169-0.901V227.877z"/>
					</g>
				</g>
				<g>
					<g>
						<path fill="#585A5E" d="M527.692,255.635c0.554,0,1.007,0.072,1.358,0.214c0.351,0.143,0.626,0.325,0.825,0.546
							c0.199,0.221,0.338,0.468,0.416,0.741s0.117,0.544,0.117,0.812c0,0.243-0.039,0.475-0.115,0.696
							c-0.077,0.221-0.184,0.418-0.32,0.591s-0.295,0.318-0.475,0.436c-0.179,0.117-0.375,0.193-0.589,0.228v0.039
							c0.188,0.035,0.392,0.095,0.61,0.182c0.219,0.087,0.422,0.217,0.61,0.39s0.347,0.396,0.476,0.669
							c0.128,0.273,0.192,0.613,0.192,1.021c0,0.33-0.048,0.646-0.143,0.949c-0.096,0.303-0.267,0.572-0.514,0.806
							c-0.247,0.234-0.579,0.422-0.995,0.565c-0.415,0.143-0.948,0.214-1.599,0.214h-3.848v-9.1H527.692z M524.923,259.497h2.472
							c0.341,0,0.624-0.039,0.851-0.117s0.41-0.182,0.55-0.312c0.139-0.13,0.239-0.279,0.301-0.449
							c0.061-0.169,0.091-0.349,0.091-0.539c0-0.13-0.02-0.277-0.059-0.442c-0.039-0.165-0.12-0.318-0.242-0.461
							s-0.299-0.264-0.529-0.364c-0.231-0.1-0.538-0.15-0.922-0.15h-2.512V259.497z M524.923,263.708h2.549
							c0.21,0,0.438-0.015,0.687-0.045c0.249-0.03,0.478-0.1,0.687-0.208s0.384-0.269,0.523-0.481
							c0.139-0.212,0.209-0.504,0.209-0.877c0-0.294-0.051-0.542-0.15-0.741c-0.101-0.199-0.242-0.36-0.425-0.481
							c-0.184-0.122-0.403-0.21-0.66-0.267c-0.258-0.056-0.547-0.084-0.87-0.084h-2.549V263.708z"/>
						<path fill="#585A5E" d="M532.463,255.635h1.145v1.196h-1.145V255.635z M533.607,258.131v6.604h-1.145v-6.604H533.607z"/>
						<path fill="#585A5E" d="M541.368,255.635v9.1h-1.066v-0.91h-0.039c-0.052,0.104-0.13,0.226-0.233,0.364
							c-0.104,0.139-0.243,0.267-0.416,0.383c-0.174,0.117-0.386,0.217-0.638,0.299c-0.251,0.082-0.55,0.123-0.896,0.123
							c-0.485,0-0.915-0.086-1.287-0.26c-0.373-0.173-0.685-0.418-0.937-0.734c-0.251-0.316-0.444-0.693-0.578-1.131
							c-0.135-0.438-0.201-0.92-0.201-1.449c0-0.347,0.034-0.726,0.104-1.138c0.069-0.412,0.213-0.797,0.429-1.157
							c0.217-0.36,0.519-0.659,0.904-0.897c0.385-0.238,0.898-0.357,1.54-0.357c0.442,0,0.847,0.074,1.216,0.221
							c0.368,0.147,0.687,0.447,0.955,0.897v-3.354H541.368z M536.285,261.42c0,0.624,0.075,1.12,0.228,1.488
							c0.151,0.369,0.333,0.646,0.546,0.832c0.212,0.187,0.436,0.308,0.669,0.364c0.234,0.056,0.434,0.084,0.599,0.084
							c0.251,0,0.496-0.05,0.734-0.149s0.448-0.26,0.63-0.481c0.183-0.221,0.33-0.509,0.442-0.865s0.169-0.789,0.169-1.3
							c0-0.477-0.054-0.886-0.162-1.229s-0.258-0.624-0.449-0.845c-0.19-0.221-0.409-0.383-0.656-0.487s-0.505-0.156-0.773-0.156
							c-0.277,0-0.535,0.052-0.773,0.156s-0.446,0.266-0.624,0.487s-0.318,0.505-0.423,0.852
							C536.337,260.519,536.285,260.935,536.285,261.42z"/>
						<path fill="#585A5E" d="M549.155,255.635v9.1h-1.066v-0.91h-0.039c-0.052,0.104-0.13,0.226-0.233,0.364
							c-0.104,0.139-0.243,0.267-0.416,0.383c-0.174,0.117-0.386,0.217-0.638,0.299c-0.251,0.082-0.55,0.123-0.896,0.123
							c-0.485,0-0.915-0.086-1.287-0.26c-0.373-0.173-0.685-0.418-0.937-0.734c-0.251-0.316-0.444-0.693-0.578-1.131
							c-0.135-0.438-0.201-0.92-0.201-1.449c0-0.347,0.034-0.726,0.104-1.138c0.069-0.412,0.213-0.797,0.429-1.157
							c0.217-0.36,0.519-0.659,0.904-0.897c0.385-0.238,0.898-0.357,1.54-0.357c0.442,0,0.847,0.074,1.216,0.221
							c0.368,0.147,0.687,0.447,0.955,0.897v-3.354H549.155z M544.072,261.42c0,0.624,0.075,1.12,0.228,1.488
							c0.151,0.369,0.333,0.646,0.546,0.832c0.212,0.187,0.436,0.308,0.669,0.364c0.234,0.056,0.434,0.084,0.599,0.084
							c0.251,0,0.496-0.05,0.734-0.149s0.448-0.26,0.63-0.481c0.183-0.221,0.33-0.509,0.442-0.865s0.169-0.789,0.169-1.3
							c0-0.477-0.054-0.886-0.162-1.229s-0.258-0.624-0.449-0.845c-0.19-0.221-0.409-0.383-0.656-0.487s-0.505-0.156-0.773-0.156
							c-0.277,0-0.535,0.052-0.773,0.156s-0.446,0.266-0.624,0.487s-0.318,0.505-0.423,0.852
							C544.124,260.519,544.072,260.935,544.072,261.42z"/>
						<path fill="#585A5E" d="M556.877,262.824c-0.044,0.234-0.124,0.479-0.241,0.735c-0.116,0.255-0.286,0.49-0.507,0.702
							c-0.221,0.212-0.505,0.388-0.852,0.526c-0.347,0.139-0.775,0.208-1.287,0.208c-0.546,0-1.007-0.074-1.384-0.221
							c-0.377-0.147-0.689-0.336-0.937-0.565s-0.439-0.483-0.578-0.761s-0.24-0.546-0.306-0.806
							c-0.065-0.26-0.104-0.496-0.117-0.708s-0.02-0.371-0.02-0.475c0-0.147,0.009-0.34,0.026-0.579
							c0.017-0.238,0.061-0.49,0.13-0.754s0.173-0.531,0.312-0.8c0.139-0.269,0.327-0.511,0.565-0.728
							c0.238-0.216,0.535-0.392,0.891-0.526c0.355-0.134,0.789-0.201,1.301-0.201c0.658,0,1.185,0.115,1.579,0.344
							c0.395,0.23,0.697,0.518,0.91,0.865c0.212,0.347,0.355,0.726,0.429,1.137s0.119,0.795,0.137,1.15
							c0,0.052,0.002,0.106,0.007,0.163c0.004,0.057,0.006,0.11,0.006,0.163h-5.083c0,0.286,0.039,0.577,0.117,0.871
							s0.199,0.561,0.364,0.799c0.164,0.239,0.379,0.436,0.644,0.592c0.264,0.156,0.587,0.234,0.968,0.234
							c0.269,0,0.512-0.037,0.729-0.111c0.217-0.073,0.4-0.173,0.553-0.299c0.151-0.125,0.272-0.271,0.363-0.436
							c0.092-0.165,0.154-0.338,0.188-0.52H556.877z M555.732,260.887c-0.009-0.216-0.039-0.455-0.091-0.715
							c-0.052-0.26-0.146-0.5-0.279-0.722c-0.135-0.221-0.318-0.405-0.553-0.552s-0.537-0.221-0.91-0.221
							c-0.416,0-0.759,0.076-1.026,0.228c-0.27,0.152-0.479,0.34-0.631,0.565c-0.151,0.226-0.254,0.466-0.306,0.722
							c-0.052,0.256-0.078,0.487-0.078,0.695H555.732z"/>
						<path fill="#585A5E" d="M562.129,258.677c-0.391,0.018-0.734,0.069-1.033,0.156c-0.3,0.086-0.556,0.221-0.768,0.403
							s-0.382,0.416-0.507,0.702c-0.126,0.286-0.201,0.637-0.228,1.053c-0.009,0.122-0.013,0.239-0.013,0.351
							c0,0.113,0,0.23,0,0.351v3.042h-1.145v-6.604h1.145v1.274h0.025c0.078-0.243,0.193-0.457,0.345-0.644
							c0.151-0.186,0.325-0.342,0.521-0.468c0.194-0.125,0.404-0.223,0.63-0.292s0.455-0.108,0.689-0.117l0.338-0.013V258.677z"/>
						<path fill="#585A5E" d="M566.99,261.966c0.009,0.052,0.016,0.102,0.02,0.149c0.005,0.048,0.011,0.098,0.02,0.149
							c0.018,0.104,0.051,0.256,0.099,0.455c0.048,0.2,0.14,0.396,0.274,0.592c0.136,0.195,0.325,0.364,0.569,0.507
							s0.567,0.214,0.969,0.214c0.471,0,0.846-0.073,1.125-0.221c0.278-0.147,0.488-0.323,0.628-0.527
							c0.14-0.203,0.229-0.414,0.269-0.63c0.039-0.216,0.059-0.398,0.059-0.546c0-0.502-0.149-0.901-0.448-1.196
							c-0.3-0.295-0.704-0.442-1.216-0.442h-0.936v-0.988h0.361c0.095,0,0.252-0.009,0.472-0.026
							c0.22-0.018,0.442-0.076,0.666-0.176c0.225-0.1,0.42-0.255,0.589-0.468c0.168-0.212,0.252-0.514,0.252-0.904
							c0-0.182-0.026-0.366-0.078-0.552c-0.051-0.187-0.144-0.355-0.277-0.507c-0.133-0.152-0.316-0.275-0.549-0.371
							c-0.231-0.095-0.524-0.143-0.877-0.143c-0.104,0-0.254,0.013-0.451,0.039c-0.198,0.026-0.395,0.106-0.588,0.24
							c-0.193,0.135-0.361,0.34-0.503,0.618c-0.143,0.277-0.213,0.667-0.213,1.17h-1.145c0-0.13,0.007-0.297,0.02-0.5
							c0.014-0.204,0.053-0.418,0.117-0.644c0.065-0.225,0.16-0.45,0.286-0.676s0.297-0.429,0.514-0.611
							c0.217-0.182,0.487-0.329,0.812-0.442c0.325-0.112,0.722-0.169,1.189-0.169c0.633,0,1.14,0.098,1.521,0.292
							c0.382,0.195,0.672,0.425,0.871,0.689c0.199,0.265,0.332,0.538,0.396,0.819c0.065,0.282,0.098,0.513,0.098,0.695
							c0,0.503-0.139,0.934-0.416,1.293c-0.277,0.36-0.637,0.6-1.079,0.722v0.026c0.234,0.035,0.455,0.108,0.663,0.221
							c0.208,0.113,0.395,0.267,0.56,0.462c0.164,0.195,0.294,0.427,0.39,0.695c0.095,0.269,0.143,0.577,0.143,0.923
							c0,0.442-0.078,0.839-0.233,1.189c-0.156,0.351-0.375,0.646-0.657,0.884c-0.281,0.238-0.612,0.42-0.994,0.546
							s-0.797,0.188-1.248,0.188c-0.667,0-1.204-0.102-1.612-0.306c-0.407-0.203-0.726-0.457-0.955-0.76s-0.388-0.632-0.475-0.988
							s-0.135-0.685-0.143-0.988H566.99z"/>
						<path fill="#585A5E" d="M582.682,262.824c-0.044,0.234-0.124,0.479-0.241,0.735c-0.116,0.255-0.286,0.49-0.507,0.702
							c-0.221,0.212-0.505,0.388-0.852,0.526c-0.347,0.139-0.775,0.208-1.287,0.208c-0.546,0-1.007-0.074-1.384-0.221
							c-0.377-0.147-0.689-0.336-0.937-0.565s-0.439-0.483-0.578-0.761s-0.24-0.546-0.306-0.806
							c-0.065-0.26-0.104-0.496-0.117-0.708s-0.02-0.371-0.02-0.475c0-0.147,0.009-0.34,0.026-0.579
							c0.017-0.238,0.061-0.49,0.13-0.754s0.173-0.531,0.312-0.8c0.139-0.269,0.327-0.511,0.565-0.728
							c0.238-0.216,0.535-0.392,0.891-0.526c0.355-0.134,0.789-0.201,1.301-0.201c0.658,0,1.185,0.115,1.579,0.344
							c0.395,0.23,0.697,0.518,0.91,0.865c0.212,0.347,0.355,0.726,0.429,1.137s0.119,0.795,0.137,1.15
							c0,0.052,0.002,0.106,0.007,0.163c0.004,0.057,0.006,0.11,0.006,0.163h-5.083c0,0.286,0.039,0.577,0.117,0.871
							s0.199,0.561,0.364,0.799c0.164,0.239,0.379,0.436,0.644,0.592c0.264,0.156,0.587,0.234,0.968,0.234
							c0.269,0,0.512-0.037,0.729-0.111c0.217-0.073,0.4-0.173,0.553-0.299c0.151-0.125,0.272-0.271,0.363-0.436
							c0.092-0.165,0.154-0.338,0.188-0.52H582.682z M581.537,260.887c-0.009-0.216-0.039-0.455-0.091-0.715
							c-0.052-0.26-0.146-0.5-0.279-0.722c-0.135-0.221-0.318-0.405-0.553-0.552s-0.537-0.221-0.91-0.221
							c-0.416,0-0.759,0.076-1.026,0.228c-0.27,0.152-0.479,0.34-0.631,0.565c-0.151,0.226-0.254,0.466-0.306,0.722
							c-0.052,0.256-0.078,0.487-0.078,0.695H581.537z"/>
						<path fill="#585A5E" d="M585.385,258.131v0.923c0.226-0.329,0.528-0.608,0.91-0.838c0.381-0.229,0.832-0.344,1.352-0.344
							c0.434,0,0.791,0.067,1.073,0.201c0.281,0.135,0.502,0.314,0.663,0.54c0.16,0.226,0.272,0.487,0.338,0.787
							c0.064,0.299,0.098,0.613,0.098,0.942v4.394h-1.145v-4.043c0-0.173-0.007-0.377-0.02-0.611
							c-0.013-0.234-0.061-0.455-0.143-0.663c-0.083-0.208-0.22-0.384-0.41-0.526c-0.19-0.143-0.463-0.215-0.818-0.215
							c-0.156,0-0.343,0.026-0.56,0.078c-0.217,0.052-0.425,0.163-0.624,0.332s-0.368,0.416-0.507,0.741
							c-0.139,0.325-0.208,0.761-0.208,1.307v3.601h-1.144v-6.604H585.385z"/>
						<path fill="#585A5E" d="M597.604,255.635v9.1h-1.065v-0.91H596.5c-0.053,0.104-0.13,0.226-0.234,0.364
							c-0.104,0.139-0.243,0.267-0.416,0.383c-0.174,0.117-0.386,0.217-0.637,0.299c-0.252,0.082-0.551,0.123-0.897,0.123
							c-0.485,0-0.914-0.086-1.287-0.26c-0.372-0.173-0.685-0.418-0.936-0.734c-0.252-0.316-0.444-0.693-0.578-1.131
							c-0.135-0.438-0.202-0.92-0.202-1.449c0-0.347,0.035-0.726,0.104-1.138c0.069-0.412,0.212-0.797,0.429-1.157
							c0.217-0.36,0.518-0.659,0.903-0.897s0.899-0.357,1.541-0.357c0.441,0,0.847,0.074,1.215,0.221
							c0.368,0.147,0.688,0.447,0.956,0.897v-3.354H597.604z M592.521,261.42c0,0.624,0.076,1.12,0.228,1.488
							c0.151,0.369,0.334,0.646,0.546,0.832c0.213,0.187,0.436,0.308,0.67,0.364c0.233,0.056,0.433,0.084,0.598,0.084
							c0.251,0,0.496-0.05,0.734-0.149s0.449-0.26,0.631-0.481c0.182-0.221,0.329-0.509,0.442-0.865
							c0.112-0.355,0.169-0.789,0.169-1.3c0-0.477-0.055-0.886-0.163-1.229s-0.258-0.624-0.448-0.845s-0.409-0.383-0.656-0.487
							s-0.505-0.156-0.773-0.156c-0.278,0-0.535,0.052-0.773,0.156c-0.239,0.104-0.447,0.266-0.624,0.487
							c-0.178,0.221-0.319,0.505-0.423,0.852C592.573,260.519,592.521,260.935,592.521,261.42z"/>
						<path fill="#585A5E" d="M600.543,258.131v0.91h0.039c0.164-0.251,0.345-0.453,0.539-0.604
							c0.195-0.152,0.391-0.271,0.585-0.357c0.195-0.087,0.384-0.143,0.565-0.169c0.183-0.026,0.347-0.039,0.494-0.039
							c0.407,0,0.791,0.069,1.15,0.208s0.676,0.353,0.949,0.643c0.273,0.291,0.487,0.661,0.644,1.112s0.234,0.983,0.234,1.599
							c0,0.641-0.083,1.187-0.247,1.638c-0.165,0.451-0.386,0.819-0.663,1.105s-0.594,0.494-0.949,0.624s-0.72,0.195-1.092,0.195
							c-0.069,0-0.193-0.008-0.371-0.026s-0.375-0.067-0.591-0.149c-0.217-0.083-0.436-0.204-0.657-0.364
							c-0.221-0.161-0.405-0.384-0.552-0.67v3.354h-1.145v-9.008H600.543z M600.543,261.459c0,0.511,0.064,0.94,0.194,1.287
							c0.131,0.347,0.297,0.628,0.501,0.845c0.203,0.217,0.425,0.371,0.663,0.461c0.238,0.091,0.466,0.137,0.683,0.137
							c0.233,0,0.466-0.045,0.695-0.137c0.229-0.091,0.438-0.242,0.624-0.455c0.187-0.212,0.338-0.494,0.455-0.845
							s0.176-0.791,0.176-1.319c0-0.85-0.174-1.521-0.521-2.015c-0.347-0.494-0.845-0.741-1.495-0.741
							c-0.147,0-0.334,0.028-0.559,0.084c-0.226,0.057-0.442,0.18-0.65,0.371c-0.208,0.191-0.388,0.47-0.539,0.838
							C600.618,260.339,600.543,260.835,600.543,261.459z"/>
						<path fill="#585A5E" d="M606.86,261.434c0-0.442,0.057-0.875,0.169-1.3c0.112-0.424,0.297-0.804,0.553-1.137
							c0.256-0.334,0.592-0.605,1.008-0.812c0.416-0.208,0.923-0.312,1.521-0.312c0.599,0,1.105,0.104,1.521,0.312
							c0.416,0.208,0.751,0.479,1.007,0.812c0.256,0.333,0.44,0.713,0.553,1.137c0.112,0.425,0.169,0.858,0.169,1.3
							c0,0.442-0.057,0.875-0.169,1.3s-0.297,0.804-0.553,1.138c-0.256,0.333-0.591,0.604-1.007,0.812
							c-0.416,0.208-0.923,0.312-1.521,0.312c-0.598,0-1.104-0.104-1.521-0.312c-0.416-0.208-0.752-0.479-1.008-0.812
							c-0.256-0.334-0.44-0.713-0.553-1.138S606.86,261.875,606.86,261.434z M608.069,261.434c0,0.655,0.082,1.168,0.247,1.54
							c0.165,0.371,0.359,0.647,0.585,0.828s0.45,0.291,0.676,0.33c0.226,0.039,0.403,0.058,0.533,0.058s0.308-0.02,0.533-0.058
							c0.226-0.039,0.45-0.149,0.676-0.33s0.421-0.458,0.585-0.828c0.165-0.371,0.247-0.884,0.247-1.54
							c0-0.656-0.082-1.169-0.247-1.54c-0.164-0.371-0.359-0.647-0.585-0.828s-0.45-0.291-0.676-0.33
							c-0.226-0.039-0.403-0.059-0.533-0.059s-0.308,0.02-0.533,0.059c-0.226,0.039-0.45,0.148-0.676,0.33s-0.42,0.458-0.585,0.828
							C608.151,260.265,608.069,260.778,608.069,261.434z"/>
						<path fill="#585A5E" d="M614.83,255.635h1.144v1.196h-1.144V255.635z M615.974,258.131v6.604h-1.144v-6.604H615.974z"/>
						<path fill="#585A5E" d="M618.964,258.131v0.923c0.225-0.329,0.528-0.608,0.91-0.838c0.381-0.229,0.831-0.344,1.352-0.344
							c0.434,0,0.791,0.067,1.072,0.201c0.281,0.135,0.503,0.314,0.663,0.54c0.16,0.226,0.273,0.487,0.338,0.787
							c0.065,0.299,0.098,0.613,0.098,0.942v4.394h-1.144v-4.043c0-0.173-0.007-0.377-0.02-0.611
							c-0.014-0.234-0.062-0.455-0.144-0.663s-0.219-0.384-0.409-0.526c-0.19-0.143-0.464-0.215-0.819-0.215
							c-0.156,0-0.342,0.026-0.559,0.078c-0.217,0.052-0.425,0.163-0.624,0.332s-0.368,0.416-0.507,0.741
							c-0.139,0.325-0.208,0.761-0.208,1.307v3.601h-1.145v-6.604H618.964z"/>
						<path fill="#585A5E" d="M625.685,258.131v-1.976h1.145v1.976h1.403v0.806h-1.403v4.199c0,0.122,0.002,0.236,0.006,0.345
							c0.005,0.108,0.026,0.206,0.065,0.292s0.105,0.154,0.201,0.201c0.096,0.048,0.234,0.072,0.416,0.072
							c0.121,0,0.243-0.011,0.364-0.033c0.121-0.021,0.238-0.05,0.351-0.084v0.806c-0.182,0.078-0.377,0.141-0.585,0.188
							c-0.208,0.047-0.411,0.071-0.61,0.071c-0.338,0-0.601-0.052-0.787-0.156s-0.32-0.236-0.402-0.396
							c-0.083-0.16-0.131-0.336-0.144-0.526c-0.013-0.191-0.02-0.373-0.02-0.546v-4.433h-1.183v-0.806H625.685z"/>
					</g>
				</g>
			</g>
			<g>
				<g>
					<g>
						<g>
							
								<line fill="none" stroke="#585A5E" stroke-width="1.1" stroke-miterlimit="10" x1="414.861" y1="164.907" x2="510.127" y2="164.907"/>
							<g>
								<polygon fill="#585A5E" points="509.309,167.704 514.153,164.907 509.309,162.109 								"/>
							</g>
						</g>
					</g>
					<g>
						<g>
							
								<line fill="none" stroke="#585A5E" stroke-width="1.1" stroke-miterlimit="10" x1="514.153" y1="174.407" x2="418.887" y2="174.407"/>
							<g>
								<polygon fill="#585A5E" points="419.706,171.609 414.861,174.407 419.706,177.204 								"/>
							</g>
						</g>
					</g>
				</g>
				<g>
					<g>
						<g>
							
								<line fill="none" stroke="#585A5E" stroke-width="1.1" stroke-miterlimit="10" x1="512.477" y1="226.772" x2="417.689" y2="182.792"/>
							<g>
								<polygon fill="#585A5E" points="419.608,180.599 414.037,181.097 417.254,185.674 								"/>
							</g>
						</g>
					</g>
					<g>
						<g>
							
								<line fill="none" stroke="#585A5E" stroke-width="1.1" stroke-miterlimit="10" x1="415.755" y1="192.571" x2="510.004" y2="237.075"/>
							<g>
								<polygon fill="#585A5E" points="508.069,239.254 513.645,238.793 510.458,234.196 								"/>
							</g>
						</g>
					</g>
				</g>
				<g>
					<g>
						<g>
							
								<line fill="none" stroke="#585A5E" stroke-width="1.1" stroke-miterlimit="10" x1="415.205" y1="146.481" x2="509.992" y2="102.501"/>
							<g>
								<polygon fill="#585A5E" points="510.428,105.383 513.645,100.807 508.072,100.309 								"/>
							</g>
						</g>
					</g>
					<g>
						<g>
							
								<line fill="none" stroke="#585A5E" stroke-width="1.1" stroke-miterlimit="10" x1="511.927" y1="112.28" x2="417.678" y2="156.784"/>
							<g>
								<polygon fill="#585A5E" points="417.224,153.905 414.037,158.503 419.612,158.964 								"/>
							</g>
						</g>
					</g>
				</g>
			</g>
		</g>
	</g>
</g>
</svg>
