<?xml version="1.0" encoding="utf-8"?>
<!-- Generator: Adobe Illustrator 16.0.0, SVG Export Plug-In . SVG Version: 6.00 Build 0)  -->
<!DOCTYPE svg PUBLIC "-//W3C//DTD SVG 1.1//EN" "http://www.w3.org/Graphics/SVG/1.1/DTD/svg11.dtd">
<svg version="1.1" xmlns="http://www.w3.org/2000/svg" xmlns:xlink="http://www.w3.org/1999/xlink" x="0px" y="0px"
	 width="756.151px" height="222.654px" viewBox="0 0 756.151 222.654" enable-background="new 0 0 756.151 222.654"
	 xml:space="preserve">
<g id="scatter-gather-messaging" display="none">
	<g display="inline">
		
			<rect x="0.075" y="-44.03" fill="none" stroke="#A6A8AB" stroke-width="0.15" stroke-miterlimit="10" width="756.001" height="330.292"/>
		<g>
			<g>
				<g>
					<g id="hVCAm4_3_">
						<g>
							<path fill-rule="evenodd" clip-rule="evenodd" fill="#585A5E" d="M127.059,145.525c0.152-0.213,0.444-0.432,0.436-0.639
								c-0.249-5.546,2.993-7.987,7.875-9.255c1.987-0.516,3.899-1.515,5.688-2.562c4.669-2.735,5.229-4.907,2.69-9.55
								c-2.778-5.079-2.292-10.461-1.206-15.788c0.247-1.214,1.588-2.461,2.743-3.186c3.265-2.042,9.669-1.339,12.621,1.115
								c2.58,2.146,2.085,5.188,2.549,8.024c0.731,4.471-0.407,8.445-2.451,12.294c-1.133,2.132-0.485,3.903,1.2,5.307
								c1.239,1.031,2.627,1.926,4.06,2.67c1.441,0.753,2.971,1.446,4.546,1.815c4.621,1.083,7.543,3.559,7.78,8.583
								c0.029,0.582,0.438,1.146,0.672,1.719c0,0.363,0,0.729,0,1.093c-13.1,12.721-33.544,14.994-49.203,0
								C127.059,146.619,127.059,146.073,127.059,145.525z"/>
						</g>
					</g>
				</g>
				<path fill="none" stroke="#585A5E" stroke-width="1.363" stroke-miterlimit="10" d="M185.337,123.493
					c0,9.077-3.536,17.329-9.305,23.452c-6.238,6.621-15.087,10.756-24.902,10.756c-9.445,0-17.997-3.83-24.187-10.02
					c-6.191-6.188-10.02-14.741-10.02-24.188c0-18.891,15.314-34.205,34.206-34.205C170.022,89.288,185.337,104.602,185.337,123.493
					z"/>
			</g>
			<g>
				<g>
					<text transform="matrix(1 0 0 1 215.1543 114.811)" fill="#585A5E" font-family="'Calibre-Medium'" font-size="14">Request</text>
				</g>
				<g>
					<g>
						<text transform="matrix(1 0 0 1 211.0933 143.4204)" fill="#585A5E" font-family="'Calibre-Medium'" font-size="14">Response</text>
					</g>
				</g>
				<g>
					<g>
						<g>
							
								<line fill="none" stroke="#585A5E" stroke-width="1.1" stroke-miterlimit="10" x1="185.104" y1="120.029" x2="286.649" y2="120.029"/>
							<g>
								<polygon fill="#585A5E" points="285.831,122.826 290.675,120.029 285.831,117.231 								"/>
							</g>
						</g>
					</g>
					<g>
						<g>
							
								<line fill="none" stroke="#585A5E" stroke-width="1.1" stroke-miterlimit="10" x1="290.675" y1="129.53" x2="189.129" y2="129.53"/>
							<g>
								<polygon fill="#585A5E" points="189.948,126.732 185.104,129.53 189.948,132.327 								"/>
							</g>
						</g>
					</g>
				</g>
				<g>
					<g>
						<rect x="290.675" y="84.938" fill="#DCDCDD" width="123.362" height="72.355"/>
					</g>
					<rect x="290.675" y="84.938" fill="#20B5AE" width="123.362" height="31.946"/>
					<g>
						<text transform="matrix(1 0 0 1 320.6245 108.2627)" fill="#FFFFFF" font-family="'Pragmatica-Bold'" font-size="14.3">Ballerina</text>
					</g>
					<g>
						<text transform="matrix(1 0 0 1 305.2446 141.6606)" fill="#585A5E" font-family="'Pragmatica'" font-size="13">Auction Service</text>
					</g>
				</g>
				<g>
					<g>
						<rect x="514.863" y="84.938" fill="#DCDCDD" width="123.363" height="72.355"/>
					</g>
					<rect x="514.863" y="84.938" fill="#20B5AE" width="123.363" height="31.946"/>
					<g>
						<text transform="matrix(1 0 0 1 544.8135 108.2627)" fill="#FFFFFF" font-family="'Pragmatica-Bold'" font-size="14.3">Ballerina</text>
					</g>
					<g>
						<text transform="matrix(1 0 0 1 522.5957 141.6606)" fill="#585A5E" font-family="'Pragmatica'" font-size="13">Bidder 2 endpoint</text>
					</g>
				</g>
				<g>
					<g>
						<rect x="514.863" y="5.97" fill="#DCDCDD" width="123.363" height="72.355"/>
					</g>
					<rect x="514.863" y="5.97" fill="#20B5AE" width="123.363" height="31.946"/>
					<g>
						<text transform="matrix(1 0 0 1 544.8135 29.2939)" fill="#FFFFFF" font-family="'Pragmatica-Bold'" font-size="14.3">Ballerina</text>
					</g>
					<g>
						<text transform="matrix(1 0 0 1 522.5957 62.6919)" fill="#585A5E" font-family="'Pragmatica'" font-size="13">Bidder 1 endpoint</text>
					</g>
				</g>
				<g>
					<g>
						<rect x="514.863" y="163.908" fill="#DCDCDD" width="123.363" height="72.354"/>
					</g>
					<rect x="514.863" y="163.908" fill="#20B5AE" width="123.363" height="31.946"/>
					<g>
						<text transform="matrix(1 0 0 1 544.8135 187.2319)" fill="#FFFFFF" font-family="'Pragmatica-Bold'" font-size="14.3">Ballerina</text>
					</g>
					<g>
						<text transform="matrix(1 0 0 1 522.5957 220.6294)" fill="#585A5E" font-family="'Pragmatica'" font-size="13">Bidder 3 endpoint</text>
					</g>
				</g>
				<g>
					<g>
						<g>
							<g>
								
									<line fill="none" stroke="#585A5E" stroke-width="1.1" stroke-miterlimit="10" x1="414.861" y1="120.801" x2="510.127" y2="120.801"/>
								<g>
									<polygon fill="#585A5E" points="509.309,123.599 514.153,120.801 509.309,118.004 									"/>
								</g>
							</g>
						</g>
						<g>
							<g>
								
									<line fill="none" stroke="#585A5E" stroke-width="1.1" stroke-miterlimit="10" x1="514.153" y1="130.301" x2="418.887" y2="130.301"/>
								<g>
									<polygon fill="#585A5E" points="419.706,127.504 414.861,130.301 419.706,133.099 									"/>
								</g>
							</g>
						</g>
					</g>
					<g>
						<g>
							<g>
								
									<line fill="none" stroke="#585A5E" stroke-width="1.1" stroke-miterlimit="10" x1="512.477" y1="182.667" x2="417.689" y2="138.686"/>
								<g>
									<polygon fill="#585A5E" points="419.608,136.493 414.037,136.992 417.254,141.568 									"/>
								</g>
							</g>
						</g>
						<g>
							<g>
								
									<line fill="none" stroke="#585A5E" stroke-width="1.1" stroke-miterlimit="10" x1="415.755" y1="148.465" x2="510.004" y2="192.969"/>
								<g>
									<polygon fill="#585A5E" points="508.069,195.149 513.645,194.688 510.458,190.09 									"/>
								</g>
							</g>
						</g>
					</g>
					<g>
						<g>
							<g>
								
									<line fill="none" stroke="#585A5E" stroke-width="1.1" stroke-miterlimit="10" x1="415.205" y1="102.375" x2="509.992" y2="58.396"/>
								<g>
									<polygon fill="#585A5E" points="510.428,61.278 513.645,56.702 508.072,56.203 									"/>
								</g>
							</g>
						</g>
						<g>
							<g>
								
									<line fill="none" stroke="#585A5E" stroke-width="1.1" stroke-miterlimit="10" x1="511.927" y1="68.174" x2="417.678" y2="112.679"/>
								<g>
									<polygon fill="#585A5E" points="417.224,109.8 414.037,114.398 419.612,114.859 									"/>
								</g>
							</g>
						</g>
					</g>
				</g>
			</g>
		</g>
	</g>
</g>
<g id="content-based-routing" display="none">
	
		<rect x="0.075" y="-44.03" display="inline" fill="none" stroke="#A6A8AB" stroke-width="0.15" stroke-miterlimit="10" width="756.001" height="330.292"/>
	<g display="inline">
		<g>
			<g>
				<g id="hVCAm4_1_">
					<g>
						<path fill-rule="evenodd" clip-rule="evenodd" fill="#585A5E" d="M88.531,125.208c0.152-0.213,0.444-0.432,0.436-0.639
							c-0.249-5.546,2.993-7.987,7.875-9.255c1.987-0.516,3.899-1.515,5.688-2.562c4.669-2.735,5.229-4.907,2.69-9.55
							c-2.778-5.079-2.292-10.461-1.206-15.788c0.247-1.214,1.588-2.461,2.743-3.186c3.265-2.042,9.669-1.339,12.621,1.115
							c2.58,2.146,2.085,5.188,2.549,8.024c0.731,4.471-0.407,8.445-2.451,12.294c-1.133,2.132-0.485,3.903,1.2,5.307
							c1.239,1.031,2.627,1.926,4.06,2.67c1.441,0.753,2.971,1.446,4.546,1.815c4.621,1.083,7.543,3.559,7.78,8.583
							c0.029,0.582,0.438,1.146,0.672,1.719c0,0.363,0,0.729,0,1.093c-13.1,12.721-33.544,14.994-49.203,0
							C88.531,126.301,88.531,125.755,88.531,125.208z"/>
					</g>
				</g>
			</g>
			<path fill="none" stroke="#585A5E" stroke-width="1.363" stroke-miterlimit="10" d="M146.809,103.175
				c0,9.077-3.536,17.329-9.305,23.452c-6.238,6.621-15.087,10.756-24.902,10.756c-9.445,0-17.997-3.83-24.187-10.02
				c-6.191-6.188-10.02-14.741-10.02-24.188c0-18.891,15.314-34.205,34.206-34.205C131.495,68.97,146.809,84.285,146.809,103.175z"
				/>
		</g>
		<g>
			<g>
				<text transform="matrix(1 0 0 1 166.6128 94.4937)" fill="#585A5E" font-family="'Calibre-Medium'" font-size="14">Request</text>
			</g>
			<g>
				<g>
					<text transform="matrix(1 0 0 1 173.7441 123.103)" fill="#585A5E" font-family="'Calibre-Medium'" font-size="14">Reply</text>
				</g>
			</g>
			<g>
				<text transform="matrix(1 0 0 1 374.5991 94.4937)" fill="#585A5E" font-family="'Calibre-Medium'" font-size="14">Request</text>
			</g>
			<g>
				<g>
					<text transform="matrix(1 0 0 1 381.7305 123.103)" fill="#585A5E" font-family="'Calibre-Medium'" font-size="14">Reply</text>
				</g>
			</g>
			<g>
				<g>
					<g>
						
							<line fill="none" stroke="#585A5E" stroke-width="1.1" stroke-miterlimit="10" x1="146.576" y1="99.711" x2="228.094" y2="99.711"/>
						<g>
							<polygon fill="#585A5E" points="227.275,102.509 232.12,99.711 227.275,96.914 							"/>
						</g>
					</g>
				</g>
				<g>
					<g>
						
							<line fill="none" stroke="#585A5E" stroke-width="1.1" stroke-miterlimit="10" x1="232.12" y1="109.212" x2="150.602" y2="109.212"/>
						<g>
							<polygon fill="#585A5E" points="151.42,106.415 146.576,109.212 151.42,112.01 							"/>
						</g>
					</g>
				</g>
			</g>
			<g>
				<g>
					<rect x="232.12" y="5.97" fill="#DCDCDD" width="123.362" height="200.42"/>
				</g>
				<g>
					<text transform="matrix(1 0 0 1 266.4541 78.5928)"><tspan x="0" y="0" fill="#585A5E" font-family="'Pragmatica'" font-size="12">Company</tspan><tspan x="-7.398" y="16.6" fill="#585A5E" font-family="'Pragmatica'" font-size="12">Recruitment</tspan><tspan x="5.88" y="33.2" fill="#585A5E" font-family="'Pragmatica'" font-size="12">Agency</tspan><tspan x="5.88" y="49.8" fill="#585A5E" font-family="'Pragmatica'" font-size="12">Service</tspan></text>
				</g>
				<g>
					<text transform="matrix(1 0 0 1 208.7754 220.2144)"><tspan x="0" y="0" fill="#585A5E" font-family="'Pragmatica'" font-size="9.5833">Company Recruitment Agency Service</tspan><tspan x="17.854" y="12.264" fill="#585A5E" font-family="'Pragmatica'" font-size="9.5833">acts as a content based router</tspan></text>
				</g>
			</g>
			<g>
				<g>
					<rect x="434.576" y="84.938" fill="#DCDCDD" width="197.172" height="42.483"/>
				</g>
				<g>
					<text transform="matrix(1 0 0 1 457.0781 111.7881)" fill="#585A5E" font-family="'Pragmatica'" font-size="12">Smart Automobile Endpoint</text>
				</g>
			</g>
			<g>
				<g>
					<rect x="434.576" y="5.97" fill="#DCDCDD" width="197.172" height="42.483"/>
				</g>
				<g>
					<text transform="matrix(1 0 0 1 466.3535 32.8193)" fill="#585A5E" font-family="'Pragmatica'" font-size="12">ABC Company Endpoint</text>
				</g>
			</g>
			<g>
				<g>
					<rect x="434.576" y="163.908" fill="#DCDCDD" width="197.172" height="42.482"/>
				</g>
				<g>
					<text transform="matrix(1 0 0 1 442.9961 190.7573)" fill="#585A5E" font-family="'Pragmatica'" font-size="12">John and Brothers(pvt) Endpoint</text>
				</g>
			</g>
			<g>
				<g>
					<g>
						<g>
							
								<line fill="none" stroke="#585A5E" stroke-width="1.1" stroke-miterlimit="10" x1="356.306" y1="100.484" x2="430.551" y2="100.484"/>
							<g>
								<polygon fill="#585A5E" points="429.731,103.281 434.576,100.484 429.731,97.687 								"/>
							</g>
						</g>
					</g>
					<g>
						<g>
							
								<line fill="none" stroke="#585A5E" stroke-width="1.1" stroke-miterlimit="10" x1="434.576" y1="109.984" x2="360.332" y2="109.984"/>
							<g>
								<polygon fill="#585A5E" points="361.15,107.187 356.306,109.984 361.15,112.781 								"/>
							</g>
						</g>
					</g>
				</g>
			</g>
		</g>
	</g>
</g>
<g id="message-filtering">
	
		<rect x="0.075" y="0.075" fill="none" stroke="#A6A8AB" stroke-width="0.15" stroke-miterlimit="10" width="756.001" height="222.503"/>
	<g>
		<g>
			<g>
				<g id="hVCAm4_22_">
					<g>
						<path fill-rule="evenodd" clip-rule="evenodd" fill="#585A5E" d="M132.01,129.767c0.152-0.213,0.444-0.432,0.436-0.639
							c-0.249-5.546,2.993-7.987,7.875-9.255c1.987-0.516,3.899-1.515,5.688-2.562c4.669-2.735,5.229-4.907,2.69-9.55
							c-2.778-5.079-2.292-10.461-1.206-15.788c0.247-1.214,1.588-2.461,2.743-3.186c3.265-2.042,9.669-1.339,12.621,1.115
							c2.58,2.146,2.085,5.188,2.549,8.024c0.731,4.471-0.407,8.445-2.451,12.294c-1.133,2.132-0.485,3.903,1.2,5.307
							c1.239,1.031,2.627,1.926,4.06,2.67c1.441,0.753,2.971,1.446,4.546,1.815c4.621,1.083,7.543,3.559,7.78,8.583
							c0.029,0.582,0.438,1.146,0.672,1.719c0,0.363,0,0.729,0,1.093c-13.1,12.721-33.544,14.994-49.203,0
							C132.01,130.86,132.01,130.314,132.01,129.767z"/>
					</g>
				</g>
			</g>
			<path fill="none" stroke="#585A5E" stroke-width="1.363" stroke-miterlimit="10" d="M190.288,107.734
				c0,9.077-3.536,17.329-9.305,23.452c-6.238,6.621-15.087,10.756-24.902,10.756c-9.445,0-17.997-3.83-24.187-10.02
				c-6.191-6.188-10.02-14.741-10.02-24.188c0-18.891,15.314-34.205,34.206-34.205C174.974,73.529,190.288,88.844,190.288,107.734z"
				/>
		</g>
		<g>
			<g>
				<path fill="#585A5E" d="M213.534,95.567h-1.036v3.486h-1.456v-8.596h3.318c0.905,0,1.619,0.222,2.142,0.665
					c0.522,0.443,0.784,1.081,0.784,1.911c0,0.709-0.194,1.272-0.581,1.687c-0.388,0.416-0.927,0.679-1.617,0.791l2.492,3.542
					h-1.652L213.534,95.567z M212.498,91.717v2.632h1.834c0.476,0,0.847-0.119,1.113-0.357s0.399-0.558,0.399-0.959
					s-0.133-0.721-0.399-0.959s-0.637-0.357-1.113-0.357H212.498z"/>
				<path fill="#585A5E" d="M222.564,97.121h1.288c-0.112,0.635-0.395,1.139-0.847,1.512c-0.453,0.374-1.043,0.56-1.771,0.56
					c-0.868,0-1.575-0.299-2.121-0.896s-0.819-1.377-0.819-2.338c0-0.933,0.275-1.71,0.826-2.331s1.246-0.931,2.086-0.931
					c0.858,0,1.523,0.278,1.995,0.833s0.707,1.3,0.707,2.233v0.504h-4.242c0.019,0.542,0.17,0.969,0.455,1.281
					c0.284,0.312,0.655,0.469,1.113,0.469C221.971,98.017,222.415,97.718,222.564,97.121z M221.22,93.873
					c-0.392,0-0.721,0.119-0.987,0.357c-0.266,0.238-0.441,0.577-0.525,1.015h2.814c-0.009-0.401-0.126-0.73-0.35-0.987
					S221.63,93.873,221.22,93.873z"/>
				<path fill="#585A5E" d="M229.228,101.433v-2.912c-0.149,0.187-0.369,0.346-0.658,0.476c-0.29,0.131-0.598,0.196-0.924,0.196
					c-0.877,0-1.577-0.315-2.1-0.945c-0.522-0.63-0.784-1.397-0.784-2.303s0.261-1.673,0.784-2.303
					c0.523-0.63,1.223-0.945,2.1-0.945c0.327,0,0.635,0.065,0.924,0.196c0.289,0.131,0.508,0.29,0.658,0.476v-0.532h1.4v8.596
					H229.228z M229.228,97.121v-2.352c-0.121-0.242-0.303-0.441-0.546-0.595c-0.243-0.154-0.509-0.231-0.798-0.231
					c-0.532,0-0.952,0.187-1.26,0.56c-0.308,0.373-0.462,0.854-0.462,1.442s0.154,1.069,0.462,1.442
					c0.308,0.374,0.728,0.56,1.26,0.56c0.289,0,0.555-0.077,0.798-0.231C228.924,97.562,229.106,97.364,229.228,97.121z"/>
				<path fill="#585A5E" d="M237.53,92.837v6.216h-1.4v-0.588c-0.42,0.485-0.975,0.728-1.666,0.728c-0.69,0-1.227-0.21-1.61-0.63
					c-0.383-0.42-0.574-0.98-0.574-1.68v-4.046h1.4v3.808c0,0.85,0.387,1.274,1.162,1.274c0.308,0,0.581-0.091,0.819-0.273
					c0.238-0.182,0.394-0.422,0.469-0.721v-4.088H237.53z"/>
				<path fill="#585A5E" d="M243.102,97.121h1.288c-0.112,0.635-0.395,1.139-0.847,1.512c-0.453,0.374-1.043,0.56-1.771,0.56
					c-0.868,0-1.575-0.299-2.121-0.896s-0.819-1.377-0.819-2.338c0-0.933,0.275-1.71,0.826-2.331s1.246-0.931,2.086-0.931
					c0.858,0,1.523,0.278,1.995,0.833s0.707,1.3,0.707,2.233v0.504h-4.242c0.019,0.542,0.17,0.969,0.455,1.281
					c0.284,0.312,0.655,0.469,1.113,0.469C242.509,98.017,242.952,97.718,243.102,97.121z M241.757,93.873
					c-0.392,0-0.721,0.119-0.987,0.357c-0.266,0.238-0.441,0.577-0.525,1.015h2.814c-0.009-0.401-0.126-0.73-0.35-0.987
					S242.168,93.873,241.757,93.873z"/>
				<path fill="#585A5E" d="M245.299,97.261h1.428c0.159,0.523,0.569,0.784,1.232,0.784c0.326,0,0.585-0.063,0.777-0.189
					c0.191-0.126,0.287-0.311,0.287-0.553c0-0.168-0.056-0.301-0.168-0.399c-0.112-0.098-0.299-0.18-0.56-0.245l-1.288-0.308
					c-1.027-0.243-1.54-0.812-1.54-1.708c0-0.56,0.222-1.024,0.665-1.393c0.443-0.368,1.005-0.553,1.687-0.553
					c0.709,0,1.274,0.161,1.694,0.483c0.42,0.322,0.686,0.772,0.798,1.351h-1.372c-0.14-0.457-0.518-0.686-1.134-0.686
					c-0.271,0-0.504,0.061-0.7,0.182c-0.196,0.121-0.294,0.299-0.294,0.532c0,0.271,0.215,0.462,0.644,0.574l1.316,0.308
					c1.064,0.252,1.596,0.84,1.596,1.764c0,0.607-0.227,1.09-0.679,1.449c-0.453,0.359-1.034,0.539-1.743,0.539
					c-0.728,0-1.328-0.173-1.799-0.518S245.393,97.858,245.299,97.261z"/>
				<path fill="#585A5E" d="M252.061,97.373v-3.374h-0.98v-1.162h0.98v-1.666h1.4v1.666h1.4v1.162h-1.4v3.22
					c0,0.485,0.248,0.728,0.742,0.728c0.298,0,0.564-0.084,0.798-0.252v1.274c-0.252,0.149-0.602,0.224-1.05,0.224
					c-0.579,0-1.039-0.154-1.379-0.462C252.231,98.423,252.061,97.97,252.061,97.373z"/>
			</g>
		</g>
		<g>
			<g>
				<g>
					<path fill="#585A5E" d="M220.665,124.176h-1.036v3.486h-1.456v-8.596h3.318c0.905,0,1.619,0.222,2.142,0.665
						c0.522,0.443,0.784,1.081,0.784,1.911c0,0.709-0.194,1.272-0.581,1.687c-0.388,0.416-0.927,0.679-1.617,0.791l2.492,3.542
						h-1.652L220.665,124.176z M219.629,120.326v2.632h1.834c0.476,0,0.847-0.119,1.113-0.357s0.399-0.558,0.399-0.959
						s-0.133-0.721-0.399-0.959s-0.637-0.357-1.113-0.357H219.629z"/>
					<path fill="#585A5E" d="M229.695,125.73h1.288c-0.112,0.635-0.395,1.139-0.847,1.512c-0.453,0.374-1.043,0.56-1.771,0.56
						c-0.868,0-1.575-0.299-2.121-0.896s-0.819-1.377-0.819-2.338c0-0.933,0.275-1.71,0.826-2.331s1.246-0.931,2.086-0.931
						c0.858,0,1.523,0.278,1.995,0.833s0.707,1.3,0.707,2.233v0.504h-4.242c0.019,0.542,0.17,0.969,0.455,1.281
						c0.284,0.312,0.655,0.469,1.113,0.469C229.103,126.626,229.546,126.328,229.695,125.73z M228.351,122.482
						c-0.392,0-0.721,0.119-0.987,0.357c-0.266,0.238-0.441,0.577-0.525,1.015h2.814c-0.009-0.401-0.126-0.73-0.35-0.987
						S228.762,122.482,228.351,122.482z"/>
					<path fill="#585A5E" d="M233.727,127.13v2.912h-1.4v-8.596h1.4v0.532c0.149-0.187,0.369-0.345,0.658-0.476
						c0.29-0.13,0.597-0.196,0.924-0.196c0.877,0,1.577,0.315,2.1,0.945c0.522,0.63,0.784,1.398,0.784,2.303
						s-0.261,1.673-0.784,2.303c-0.523,0.63-1.223,0.945-2.1,0.945c-0.327,0-0.635-0.065-0.924-0.196
						C234.096,127.476,233.876,127.317,233.727,127.13z M233.727,123.378v2.352c0.121,0.243,0.303,0.441,0.546,0.595
						c0.243,0.154,0.509,0.231,0.798,0.231c0.532,0,0.952-0.187,1.26-0.56c0.308-0.373,0.462-0.854,0.462-1.442
						s-0.154-1.069-0.462-1.442c-0.308-0.374-0.728-0.56-1.26-0.56c-0.289,0-0.555,0.077-0.798,0.231
						C234.03,122.937,233.848,123.136,233.727,123.378z"/>
					<path fill="#585A5E" d="M240.895,118.562v9.1h-1.4v-9.1H240.895z"/>
					<path fill="#585A5E" d="M244.899,130.042h-1.358l0.882-2.212l-2.408-6.384h1.498l1.624,4.578l1.596-4.578h1.442
						L244.899,130.042z"/>
				</g>
			</g>
		</g>
		<g>
			<g>
				<path fill="#585A5E" d="M460.545,95.567h-1.035v3.486h-1.457v-8.596h3.318c0.905,0,1.619,0.222,2.143,0.665
					c0.521,0.443,0.783,1.081,0.783,1.911c0,0.709-0.193,1.272-0.58,1.687c-0.389,0.416-0.928,0.679-1.617,0.791l2.492,3.542h-1.652
					L460.545,95.567z M459.51,91.717v2.632h1.834c0.475,0,0.846-0.119,1.112-0.357s0.399-0.558,0.399-0.959
					s-0.133-0.721-0.399-0.959s-0.638-0.357-1.112-0.357H459.51z"/>
				<path fill="#585A5E" d="M469.575,97.121h1.288c-0.112,0.635-0.395,1.139-0.848,1.512c-0.452,0.374-1.043,0.56-1.771,0.56
					c-0.868,0-1.575-0.299-2.121-0.896s-0.819-1.377-0.819-2.338c0-0.933,0.275-1.71,0.826-2.331s1.246-0.931,2.086-0.931
					c0.859,0,1.523,0.278,1.995,0.833s0.707,1.3,0.707,2.233v0.504h-4.241c0.018,0.542,0.17,0.969,0.455,1.281
					c0.283,0.312,0.654,0.469,1.112,0.469C468.982,98.017,469.426,97.718,469.575,97.121z M468.23,93.873
					c-0.392,0-0.721,0.119-0.986,0.357c-0.266,0.238-0.441,0.577-0.525,1.015h2.814c-0.01-0.401-0.126-0.73-0.35-0.987
					C468.959,94.001,468.642,93.873,468.23,93.873z"/>
				<path fill="#585A5E" d="M476.238,101.433v-2.912c-0.148,0.187-0.368,0.346-0.657,0.476c-0.29,0.131-0.598,0.196-0.925,0.196
					c-0.877,0-1.576-0.315-2.1-0.945c-0.522-0.63-0.783-1.397-0.783-2.303s0.261-1.673,0.783-2.303
					c0.523-0.63,1.223-0.945,2.1-0.945c0.327,0,0.635,0.065,0.925,0.196c0.289,0.131,0.509,0.29,0.657,0.476v-0.532h1.4v8.596
					H476.238z M476.238,97.121v-2.352c-0.121-0.242-0.303-0.441-0.545-0.595c-0.243-0.154-0.51-0.231-0.799-0.231
					c-0.531,0-0.951,0.187-1.26,0.56c-0.309,0.373-0.462,0.854-0.462,1.442s0.153,1.069,0.462,1.442
					c0.309,0.374,0.729,0.56,1.26,0.56c0.289,0,0.556-0.077,0.799-0.231C475.936,97.562,476.117,97.364,476.238,97.121z"/>
				<path fill="#585A5E" d="M484.541,92.837v6.216h-1.4v-0.588c-0.42,0.485-0.975,0.728-1.666,0.728c-0.69,0-1.227-0.21-1.609-0.63
					c-0.383-0.42-0.574-0.98-0.574-1.68v-4.046h1.4v3.808c0,0.85,0.387,1.274,1.162,1.274c0.307,0,0.58-0.091,0.818-0.273
					c0.238-0.182,0.395-0.422,0.469-0.721v-4.088H484.541z"/>
				<path fill="#585A5E" d="M490.113,97.121h1.287c-0.111,0.635-0.395,1.139-0.847,1.512c-0.452,0.374-1.043,0.56-1.771,0.56
					c-0.869,0-1.576-0.299-2.121-0.896c-0.547-0.597-0.819-1.377-0.819-2.338c0-0.933,0.274-1.71,0.825-2.331
					s1.246-0.931,2.087-0.931c0.858,0,1.523,0.278,1.995,0.833c0.471,0.555,0.707,1.3,0.707,2.233v0.504h-4.242
					c0.019,0.542,0.17,0.969,0.455,1.281c0.284,0.312,0.655,0.469,1.113,0.469C489.52,98.017,489.963,97.718,490.113,97.121z
					 M488.769,93.873c-0.392,0-0.721,0.119-0.987,0.357c-0.266,0.238-0.44,0.577-0.524,1.015h2.813
					c-0.009-0.401-0.125-0.73-0.35-0.987S489.18,93.873,488.769,93.873z"/>
				<path fill="#585A5E" d="M492.311,97.261h1.428c0.158,0.523,0.569,0.784,1.232,0.784c0.326,0,0.586-0.063,0.777-0.189
					c0.19-0.126,0.287-0.311,0.287-0.553c0-0.168-0.057-0.301-0.168-0.399c-0.113-0.098-0.299-0.18-0.561-0.245l-1.288-0.308
					c-1.026-0.243-1.54-0.812-1.54-1.708c0-0.56,0.222-1.024,0.665-1.393c0.442-0.368,1.005-0.553,1.687-0.553
					c0.709,0,1.274,0.161,1.694,0.483c0.42,0.322,0.687,0.772,0.798,1.351h-1.371c-0.141-0.457-0.519-0.686-1.135-0.686
					c-0.271,0-0.504,0.061-0.699,0.182c-0.197,0.121-0.295,0.299-0.295,0.532c0,0.271,0.215,0.462,0.645,0.574l1.315,0.308
					c1.064,0.252,1.597,0.84,1.597,1.764c0,0.607-0.227,1.09-0.68,1.449s-1.033,0.539-1.742,0.539c-0.729,0-1.328-0.173-1.8-0.518
					S492.404,97.858,492.311,97.261z"/>
				<path fill="#585A5E" d="M499.072,97.373v-3.374h-0.98v-1.162h0.98v-1.666h1.4v1.666h1.4v1.162h-1.4v3.22
					c0,0.485,0.247,0.728,0.742,0.728c0.298,0,0.564-0.084,0.797-0.252v1.274c-0.252,0.149-0.602,0.224-1.049,0.224
					c-0.58,0-1.039-0.154-1.379-0.462C499.242,98.423,499.072,97.97,499.072,97.373z"/>
			</g>
		</g>
		<g>
			<g>
				<g>
					<path fill="#585A5E" d="M467.676,124.176h-1.035v3.486h-1.456v-8.596h3.317c0.906,0,1.619,0.222,2.143,0.665
						c0.522,0.443,0.783,1.081,0.783,1.911c0,0.709-0.193,1.272-0.58,1.687c-0.388,0.416-0.927,0.679-1.617,0.791l2.492,3.542
						h-1.652L467.676,124.176z M466.641,120.326v2.632h1.834c0.476,0,0.847-0.119,1.113-0.357c0.266-0.238,0.398-0.558,0.398-0.959
						s-0.133-0.721-0.398-0.959c-0.267-0.238-0.638-0.357-1.113-0.357H466.641z"/>
					<path fill="#585A5E" d="M476.707,125.73h1.287c-0.111,0.635-0.395,1.139-0.847,1.512c-0.452,0.374-1.043,0.56-1.771,0.56
						c-0.869,0-1.576-0.299-2.121-0.896c-0.547-0.597-0.819-1.377-0.819-2.338c0-0.933,0.274-1.71,0.825-2.331
						s1.246-0.931,2.087-0.931c0.858,0,1.523,0.278,1.995,0.833c0.471,0.555,0.707,1.3,0.707,2.233v0.504h-4.242
						c0.019,0.542,0.17,0.969,0.455,1.281c0.284,0.312,0.655,0.469,1.113,0.469C476.113,126.626,476.557,126.328,476.707,125.73z
						 M475.362,122.482c-0.392,0-0.721,0.119-0.987,0.357c-0.266,0.238-0.44,0.577-0.524,1.015h2.813
						c-0.009-0.401-0.125-0.73-0.35-0.987S475.773,122.482,475.362,122.482z"/>
					<path fill="#585A5E" d="M480.738,127.13v2.912h-1.4v-8.596h1.4v0.532c0.148-0.187,0.369-0.345,0.658-0.476
						c0.289-0.13,0.597-0.196,0.924-0.196c0.877,0,1.577,0.315,2.1,0.945c0.523,0.63,0.784,1.398,0.784,2.303
						s-0.261,1.673-0.784,2.303c-0.522,0.63-1.223,0.945-2.1,0.945c-0.327,0-0.635-0.065-0.924-0.196
						C481.107,127.476,480.887,127.317,480.738,127.13z M480.738,123.378v2.352c0.121,0.243,0.303,0.441,0.546,0.595
						c0.243,0.154,0.509,0.231,0.798,0.231c0.532,0,0.952-0.187,1.26-0.56c0.309-0.373,0.463-0.854,0.463-1.442
						s-0.154-1.069-0.463-1.442c-0.308-0.374-0.728-0.56-1.26-0.56c-0.289,0-0.555,0.077-0.798,0.231
						C481.041,122.937,480.859,123.136,480.738,123.378z"/>
					<path fill="#585A5E" d="M487.906,118.562v9.1h-1.4v-9.1H487.906z"/>
					<path fill="#585A5E" d="M491.91,130.042h-1.358l0.882-2.212l-2.408-6.384h1.498l1.625,4.578l1.596-4.578h1.441L491.91,130.042z
						"/>
				</g>
			</g>
		</g>
		<g>
			<g>
				<g>
					
						<line fill="none" stroke="#585A5E" stroke-width="1.1" stroke-miterlimit="10" x1="190.055" y1="104.271" x2="271.573" y2="104.271"/>
					<g>
						<polygon fill="#585A5E" points="270.754,107.068 275.599,104.271 270.754,101.473 						"/>
					</g>
				</g>
			</g>
			<g>
				<g>
					
						<line fill="none" stroke="#585A5E" stroke-width="1.1" stroke-miterlimit="10" x1="275.599" y1="113.771" x2="194.081" y2="113.771"/>
					<g>
						<polygon fill="#585A5E" points="194.899,110.974 190.055,113.771 194.899,116.569 						"/>
					</g>
				</g>
			</g>
		</g>
		<g>
			<g>
				<rect x="274.687" y="50.075" fill="#DCDCDD" width="164.012" height="121.328"/>
			</g>
			<g>
				<g>
					<path fill="#585A5E" d="M289.642,154.901v0.67h0.029c0.122-0.186,0.254-0.334,0.398-0.445c0.144-0.111,0.288-0.199,0.431-0.264
						s0.283-0.105,0.417-0.125s0.255-0.027,0.364-0.027c0.3,0,0.583,0.051,0.848,0.152c0.265,0.102,0.498,0.26,0.699,0.475
						s0.359,0.486,0.475,0.818c0.115,0.334,0.172,0.727,0.172,1.18c0,0.473-0.061,0.875-0.182,1.207
						c-0.121,0.332-0.284,0.604-0.489,0.814s-0.438,0.365-0.699,0.461c-0.262,0.096-0.531,0.143-0.805,0.143
						c-0.051,0-0.142-0.006-0.273-0.018c-0.131-0.014-0.277-0.051-0.436-0.111c-0.16-0.061-0.321-0.15-0.484-0.268
						c-0.163-0.119-0.298-0.283-0.407-0.494v2.473h-0.843v-6.641H289.642z M289.642,157.354c0,0.377,0.048,0.693,0.144,0.949
						c0.096,0.254,0.219,0.463,0.369,0.621c0.15,0.16,0.312,0.273,0.488,0.342c0.176,0.066,0.344,0.1,0.503,0.1
						c0.172,0,0.343-0.033,0.513-0.1c0.169-0.068,0.322-0.18,0.46-0.336c0.137-0.156,0.249-0.365,0.335-0.623
						s0.129-0.582,0.129-0.973c0-0.627-0.128-1.121-0.383-1.486c-0.256-0.363-0.623-0.545-1.102-0.545
						c-0.109,0-0.246,0.02-0.412,0.062c-0.167,0.041-0.326,0.133-0.479,0.271c-0.153,0.141-0.286,0.348-0.397,0.619
						S289.642,156.893,289.642,157.354z"/>
					<path fill="#585A5E" d="M294.415,156.338c0-0.16,0.027-0.336,0.082-0.527s0.157-0.369,0.307-0.533
						c0.15-0.162,0.361-0.297,0.633-0.406c0.271-0.109,0.621-0.162,1.049-0.162c0.198,0,0.41,0.018,0.637,0.057
						c0.227,0.039,0.438,0.115,0.632,0.23s0.356,0.279,0.484,0.492c0.128,0.215,0.188,0.5,0.182,0.859l-0.048,2.252
						c0,0.096,0.001,0.18,0.005,0.254c0.003,0.072,0.021,0.133,0.053,0.182c0.032,0.047,0.083,0.084,0.153,0.109
						s0.169,0.035,0.297,0.029v0.594c-0.057,0.014-0.113,0.023-0.167,0.029s-0.126,0.01-0.216,0.01
						c-0.115,0-0.222-0.008-0.321-0.023c-0.099-0.018-0.186-0.049-0.259-0.096c-0.074-0.049-0.134-0.119-0.182-0.211
						c-0.048-0.094-0.085-0.219-0.11-0.379c-0.083,0.152-0.185,0.283-0.307,0.393c-0.121,0.109-0.255,0.197-0.402,0.268
						s-0.302,0.121-0.465,0.154c-0.163,0.031-0.328,0.047-0.494,0.047c-0.511,0-0.925-0.115-1.241-0.35
						c-0.316-0.232-0.475-0.605-0.475-1.115c0-0.211,0.032-0.402,0.096-0.57c0.064-0.17,0.186-0.32,0.364-0.451
						s0.422-0.24,0.729-0.326s0.706-0.15,1.198-0.195c0.179-0.014,0.329-0.025,0.451-0.039c0.121-0.012,0.219-0.039,0.292-0.082
						c0.074-0.041,0.126-0.104,0.158-0.186c0.032-0.084,0.048-0.205,0.048-0.365c0-0.057-0.006-0.141-0.019-0.248
						c-0.013-0.109-0.054-0.219-0.125-0.326c-0.07-0.109-0.179-0.203-0.326-0.283c-0.147-0.08-0.355-0.119-0.623-0.119
						c-0.077,0-0.187,0.006-0.331,0.02c-0.144,0.012-0.286,0.053-0.427,0.119s-0.262,0.17-0.364,0.307
						c-0.102,0.137-0.15,0.334-0.144,0.59H294.415z M297.577,157.278c-0.063,0.051-0.13,0.088-0.2,0.109s-0.146,0.039-0.228,0.053
						c-0.083,0.014-0.176,0.023-0.281,0.033s-0.223,0.023-0.356,0.043c-0.184,0.033-0.36,0.062-0.528,0.092
						s-0.315,0.072-0.442,0.133c-0.127,0.062-0.227,0.15-0.3,0.264c-0.073,0.115-0.109,0.27-0.109,0.461
						c0,0.287,0.087,0.51,0.262,0.666s0.398,0.234,0.67,0.234c0.165,0,0.331-0.023,0.499-0.072c0.168-0.047,0.323-0.133,0.466-0.258
						s0.262-0.295,0.356-0.514c0.095-0.217,0.152-0.494,0.171-0.832L297.577,157.278z"/>
					<path fill="#585A5E" d="M300.375,158.321c0.006,0.191,0.047,0.355,0.124,0.49c0.076,0.133,0.176,0.242,0.299,0.324
						c0.124,0.084,0.263,0.143,0.418,0.178s0.312,0.053,0.471,0.053c0.279,0,0.495-0.037,0.646-0.115
						c0.152-0.076,0.263-0.166,0.333-0.268s0.109-0.205,0.119-0.307c0.009-0.102,0.014-0.18,0.014-0.23
						c0-0.076-0.008-0.152-0.024-0.225c-0.016-0.074-0.059-0.145-0.128-0.211s-0.173-0.131-0.31-0.191s-0.322-0.121-0.557-0.178
						l-0.514-0.115c-0.203-0.045-0.397-0.096-0.581-0.152c-0.184-0.059-0.346-0.139-0.485-0.24c-0.14-0.102-0.251-0.234-0.333-0.398
						c-0.083-0.162-0.124-0.371-0.124-0.627c0-0.268,0.054-0.494,0.163-0.676c0.108-0.182,0.252-0.326,0.431-0.432
						s0.377-0.18,0.594-0.225s0.438-0.066,0.661-0.066c0.416,0,0.749,0.051,1.001,0.152s0.449,0.229,0.589,0.379
						s0.236,0.311,0.288,0.479c0.051,0.17,0.083,0.322,0.096,0.455h-0.805c-0.006-0.07-0.024-0.154-0.053-0.254
						c-0.029-0.098-0.083-0.195-0.164-0.287s-0.194-0.17-0.342-0.234c-0.147-0.064-0.343-0.096-0.587-0.096
						c-0.026,0-0.093,0.002-0.202,0.01c-0.109,0.006-0.223,0.033-0.342,0.08c-0.119,0.049-0.226,0.125-0.323,0.23
						c-0.096,0.105-0.144,0.254-0.144,0.445c0,0.174,0.037,0.311,0.11,0.412c0.074,0.104,0.173,0.182,0.298,0.24
						c0.125,0.057,0.269,0.104,0.433,0.139s0.332,0.072,0.505,0.111c0.25,0.057,0.48,0.115,0.692,0.176s0.396,0.141,0.553,0.24
						c0.157,0.1,0.278,0.229,0.365,0.389c0.086,0.158,0.129,0.363,0.129,0.613c0,0.256-0.044,0.471-0.134,0.646
						c-0.09,0.176-0.201,0.322-0.335,0.441c-0.134,0.117-0.283,0.209-0.446,0.271c-0.163,0.064-0.319,0.113-0.47,0.145
						c-0.15,0.031-0.281,0.051-0.393,0.057c-0.112,0.008-0.187,0.01-0.225,0.01c-0.364,0-0.679-0.043-0.944-0.129
						s-0.487-0.205-0.666-0.354c-0.179-0.15-0.313-0.324-0.402-0.523c-0.089-0.197-0.138-0.408-0.144-0.633H300.375z"/>
					<path fill="#585A5E" d="M305.225,158.321c0.006,0.191,0.047,0.355,0.124,0.49c0.076,0.133,0.176,0.242,0.299,0.324
						c0.124,0.084,0.263,0.143,0.418,0.178s0.312,0.053,0.471,0.053c0.279,0,0.495-0.037,0.646-0.115
						c0.152-0.076,0.263-0.166,0.333-0.268s0.109-0.205,0.119-0.307c0.009-0.102,0.014-0.18,0.014-0.23
						c0-0.076-0.008-0.152-0.024-0.225c-0.016-0.074-0.059-0.145-0.128-0.211s-0.173-0.131-0.31-0.191s-0.322-0.121-0.557-0.178
						l-0.514-0.115c-0.203-0.045-0.397-0.096-0.581-0.152c-0.184-0.059-0.346-0.139-0.485-0.24c-0.14-0.102-0.251-0.234-0.333-0.398
						c-0.083-0.162-0.124-0.371-0.124-0.627c0-0.268,0.054-0.494,0.163-0.676c0.108-0.182,0.252-0.326,0.431-0.432
						s0.377-0.18,0.594-0.225s0.438-0.066,0.661-0.066c0.416,0,0.749,0.051,1.001,0.152s0.449,0.229,0.589,0.379
						s0.236,0.311,0.288,0.479c0.051,0.17,0.083,0.322,0.096,0.455h-0.805c-0.006-0.07-0.024-0.154-0.053-0.254
						c-0.029-0.098-0.083-0.195-0.164-0.287s-0.194-0.17-0.342-0.234c-0.147-0.064-0.343-0.096-0.587-0.096
						c-0.026,0-0.093,0.002-0.202,0.01c-0.109,0.006-0.223,0.033-0.342,0.08c-0.119,0.049-0.226,0.125-0.323,0.23
						c-0.096,0.105-0.144,0.254-0.144,0.445c0,0.174,0.037,0.311,0.11,0.412c0.074,0.104,0.173,0.182,0.298,0.24
						c0.125,0.057,0.269,0.104,0.433,0.139s0.332,0.072,0.505,0.111c0.25,0.057,0.48,0.115,0.692,0.176s0.396,0.141,0.553,0.24
						c0.157,0.1,0.278,0.229,0.365,0.389c0.086,0.158,0.129,0.363,0.129,0.613c0,0.256-0.044,0.471-0.134,0.646
						c-0.09,0.176-0.201,0.322-0.335,0.441c-0.134,0.117-0.283,0.209-0.446,0.271c-0.163,0.064-0.319,0.113-0.47,0.145
						c-0.15,0.031-0.281,0.051-0.393,0.057c-0.112,0.008-0.187,0.01-0.225,0.01c-0.364,0-0.679-0.043-0.944-0.129
						s-0.487-0.205-0.666-0.354c-0.179-0.15-0.313-0.324-0.402-0.523c-0.089-0.197-0.138-0.408-0.144-0.633H305.225z"/>
					<path fill="#585A5E" d="M313.888,158.36c-0.032,0.172-0.091,0.354-0.177,0.541c-0.086,0.189-0.211,0.361-0.374,0.518
						c-0.163,0.156-0.373,0.287-0.628,0.389s-0.572,0.152-0.949,0.152c-0.402,0-0.743-0.053-1.021-0.162s-0.508-0.248-0.69-0.416
						c-0.182-0.17-0.325-0.357-0.427-0.562c-0.102-0.203-0.177-0.402-0.225-0.594s-0.077-0.365-0.086-0.521
						c-0.009-0.156-0.014-0.273-0.014-0.35c0-0.109,0.006-0.252,0.019-0.428c0.013-0.174,0.045-0.359,0.096-0.555
						c0.051-0.195,0.128-0.391,0.23-0.59c0.103-0.197,0.241-0.377,0.417-0.537c0.176-0.158,0.395-0.289,0.657-0.387
						c0.262-0.1,0.581-0.148,0.958-0.148c0.486,0,0.874,0.084,1.165,0.254c0.291,0.168,0.514,0.381,0.671,0.637
						c0.156,0.256,0.262,0.535,0.316,0.838c0.054,0.305,0.087,0.586,0.101,0.848c0,0.039,0.001,0.08,0.004,0.121
						c0.003,0.041,0.005,0.08,0.005,0.119h-3.747c0,0.211,0.029,0.426,0.086,0.643s0.147,0.414,0.268,0.59
						c0.122,0.176,0.28,0.32,0.475,0.436s0.433,0.172,0.714,0.172c0.198,0,0.377-0.027,0.537-0.082
						c0.16-0.053,0.295-0.127,0.407-0.219c0.112-0.094,0.201-0.201,0.269-0.322c0.067-0.121,0.113-0.248,0.139-0.383H313.888z
						 M313.044,156.932c-0.006-0.16-0.029-0.336-0.067-0.527c-0.039-0.191-0.107-0.369-0.206-0.531
						c-0.099-0.164-0.235-0.299-0.408-0.408c-0.172-0.107-0.396-0.162-0.67-0.162c-0.307,0-0.56,0.055-0.757,0.168
						c-0.198,0.111-0.353,0.25-0.465,0.416s-0.187,0.344-0.225,0.531c-0.039,0.189-0.058,0.359-0.058,0.514H313.044z"/>
					<path fill="#585A5E" d="M319.398,153.061v6.707h-0.786v-0.67h-0.029c-0.039,0.076-0.096,0.166-0.172,0.268
						c-0.077,0.104-0.179,0.197-0.307,0.283c-0.128,0.086-0.285,0.16-0.47,0.221c-0.186,0.061-0.406,0.09-0.661,0.09
						c-0.358,0-0.674-0.062-0.949-0.191c-0.275-0.127-0.505-0.309-0.69-0.541c-0.186-0.232-0.328-0.512-0.427-0.834
						s-0.148-0.678-0.148-1.068c0-0.256,0.025-0.535,0.077-0.838c0.051-0.305,0.156-0.588,0.316-0.854
						c0.16-0.266,0.381-0.486,0.666-0.662c0.284-0.174,0.663-0.262,1.135-0.262c0.326,0,0.625,0.053,0.896,0.162
						c0.271,0.109,0.506,0.328,0.704,0.662v-2.473H319.398z M315.651,157.325c0,0.461,0.056,0.826,0.168,1.098
						c0.111,0.271,0.246,0.477,0.402,0.613c0.156,0.137,0.321,0.227,0.494,0.268c0.172,0.043,0.319,0.062,0.441,0.062
						c0.185,0,0.365-0.037,0.541-0.109c0.176-0.074,0.331-0.191,0.465-0.355c0.134-0.162,0.243-0.375,0.326-0.637
						c0.083-0.262,0.125-0.582,0.125-0.959c0-0.352-0.04-0.652-0.12-0.904c-0.08-0.254-0.19-0.461-0.331-0.623
						c-0.141-0.164-0.302-0.283-0.484-0.359c-0.182-0.078-0.372-0.115-0.57-0.115c-0.204,0-0.395,0.037-0.57,0.115
						c-0.176,0.076-0.329,0.195-0.46,0.359c-0.131,0.162-0.235,0.371-0.312,0.627S315.651,156.967,315.651,157.325z"/>
					<path fill="#585A5E" d="M320.088,161.043h4.763v0.498h-4.763V161.043z"/>
					<path fill="#585A5E" d="M326.04,158.321c0.006,0.191,0.047,0.355,0.124,0.49c0.076,0.133,0.176,0.242,0.299,0.324
						c0.124,0.084,0.263,0.143,0.418,0.178s0.312,0.053,0.471,0.053c0.279,0,0.495-0.037,0.646-0.115
						c0.152-0.076,0.263-0.166,0.333-0.268s0.109-0.205,0.119-0.307c0.009-0.102,0.014-0.18,0.014-0.23
						c0-0.076-0.008-0.152-0.024-0.225c-0.016-0.074-0.059-0.145-0.128-0.211s-0.173-0.131-0.31-0.191s-0.322-0.121-0.557-0.178
						l-0.514-0.115c-0.203-0.045-0.397-0.096-0.581-0.152c-0.184-0.059-0.346-0.139-0.485-0.24c-0.14-0.102-0.251-0.234-0.333-0.398
						c-0.083-0.162-0.124-0.371-0.124-0.627c0-0.268,0.054-0.494,0.163-0.676c0.108-0.182,0.252-0.326,0.431-0.432
						s0.377-0.18,0.594-0.225s0.438-0.066,0.661-0.066c0.416,0,0.749,0.051,1.001,0.152s0.449,0.229,0.589,0.379
						s0.236,0.311,0.288,0.479c0.051,0.17,0.083,0.322,0.096,0.455h-0.805c-0.006-0.07-0.024-0.154-0.053-0.254
						c-0.029-0.098-0.083-0.195-0.164-0.287s-0.194-0.17-0.342-0.234c-0.147-0.064-0.343-0.096-0.587-0.096
						c-0.026,0-0.093,0.002-0.202,0.01c-0.109,0.006-0.223,0.033-0.342,0.08c-0.119,0.049-0.226,0.125-0.323,0.23
						c-0.096,0.105-0.144,0.254-0.144,0.445c0,0.174,0.037,0.311,0.11,0.412c0.074,0.104,0.173,0.182,0.298,0.24
						c0.125,0.057,0.269,0.104,0.433,0.139s0.332,0.072,0.505,0.111c0.25,0.057,0.48,0.115,0.692,0.176s0.396,0.141,0.553,0.24
						c0.157,0.1,0.278,0.229,0.365,0.389c0.086,0.158,0.129,0.363,0.129,0.613c0,0.256-0.044,0.471-0.134,0.646
						c-0.09,0.176-0.201,0.322-0.335,0.441c-0.134,0.117-0.283,0.209-0.446,0.271c-0.163,0.064-0.319,0.113-0.47,0.145
						c-0.15,0.031-0.281,0.051-0.393,0.057c-0.112,0.008-0.187,0.01-0.225,0.01c-0.364,0-0.679-0.043-0.944-0.129
						s-0.487-0.205-0.666-0.354c-0.179-0.15-0.313-0.324-0.402-0.523c-0.089-0.197-0.138-0.408-0.144-0.633H326.04z"/>
					<path fill="#585A5E" d="M330.697,154.901v-1.457h0.843v1.457h1.035v0.594h-1.035v3.096c0,0.09,0.001,0.174,0.005,0.254
						s0.019,0.15,0.048,0.215s0.078,0.113,0.148,0.148s0.173,0.053,0.307,0.053c0.089,0,0.179-0.008,0.268-0.023
						s0.176-0.037,0.259-0.062v0.594c-0.134,0.059-0.278,0.104-0.431,0.139s-0.304,0.053-0.451,0.053
						c-0.249,0-0.442-0.037-0.58-0.113c-0.138-0.078-0.236-0.176-0.297-0.293c-0.061-0.119-0.096-0.248-0.105-0.389
						c-0.01-0.141-0.015-0.273-0.015-0.402v-3.268h-0.872v-0.594H330.697z"/>
					<path fill="#585A5E" d="M336.725,159.768v-0.689h-0.019c-0.122,0.211-0.269,0.375-0.441,0.494
						c-0.173,0.117-0.34,0.205-0.503,0.264c-0.163,0.057-0.31,0.092-0.441,0.105c-0.131,0.012-0.219,0.018-0.263,0.018
						c-0.358,0-0.644-0.061-0.858-0.182s-0.375-0.273-0.484-0.459c-0.109-0.186-0.179-0.385-0.211-0.596
						c-0.032-0.211-0.048-0.408-0.048-0.594v-3.229h0.843v2.98c0,0.307,0.025,0.555,0.077,0.746s0.122,0.344,0.211,0.455
						c0.089,0.113,0.196,0.188,0.321,0.227c0.125,0.037,0.263,0.057,0.417,0.057c0.352,0,0.623-0.078,0.815-0.234
						c0.191-0.156,0.331-0.338,0.417-0.541c0.086-0.205,0.136-0.406,0.149-0.604c0.013-0.199,0.019-0.342,0.019-0.432v-2.654h0.843
						v4.867H336.725z"/>
					<path fill="#585A5E" d="M343.308,153.061v6.707h-0.786v-0.67h-0.029c-0.039,0.076-0.096,0.166-0.172,0.268
						c-0.077,0.104-0.179,0.197-0.307,0.283c-0.128,0.086-0.285,0.16-0.47,0.221c-0.186,0.061-0.406,0.09-0.661,0.09
						c-0.358,0-0.674-0.062-0.949-0.191c-0.275-0.127-0.505-0.309-0.69-0.541c-0.186-0.232-0.328-0.512-0.427-0.834
						s-0.148-0.678-0.148-1.068c0-0.256,0.025-0.535,0.077-0.838c0.051-0.305,0.156-0.588,0.316-0.854
						c0.16-0.266,0.381-0.486,0.666-0.662c0.284-0.174,0.663-0.262,1.135-0.262c0.326,0,0.625,0.053,0.896,0.162
						c0.271,0.109,0.506,0.328,0.704,0.662v-2.473H343.308z M339.561,157.325c0,0.461,0.056,0.826,0.168,1.098
						c0.111,0.271,0.246,0.477,0.402,0.613c0.156,0.137,0.321,0.227,0.494,0.268c0.172,0.043,0.319,0.062,0.441,0.062
						c0.185,0,0.365-0.037,0.541-0.109c0.176-0.074,0.331-0.191,0.465-0.355c0.134-0.162,0.243-0.375,0.326-0.637
						c0.083-0.262,0.125-0.582,0.125-0.959c0-0.352-0.04-0.652-0.12-0.904c-0.08-0.254-0.19-0.461-0.331-0.623
						c-0.141-0.164-0.302-0.283-0.484-0.359c-0.182-0.078-0.372-0.115-0.57-0.115c-0.204,0-0.395,0.037-0.57,0.115
						c-0.176,0.076-0.329,0.195-0.46,0.359c-0.131,0.162-0.235,0.371-0.312,0.627S339.561,156.967,339.561,157.325z"/>
					<path fill="#585A5E" d="M349,158.36c-0.032,0.172-0.091,0.354-0.177,0.541c-0.086,0.189-0.211,0.361-0.374,0.518
						c-0.163,0.156-0.373,0.287-0.628,0.389s-0.572,0.152-0.949,0.152c-0.402,0-0.743-0.053-1.021-0.162s-0.508-0.248-0.69-0.416
						c-0.182-0.17-0.325-0.357-0.427-0.562c-0.102-0.203-0.177-0.402-0.225-0.594s-0.077-0.365-0.086-0.521
						c-0.009-0.156-0.014-0.273-0.014-0.35c0-0.109,0.006-0.252,0.019-0.428c0.013-0.174,0.045-0.359,0.096-0.555
						c0.051-0.195,0.128-0.391,0.23-0.59c0.103-0.197,0.241-0.377,0.417-0.537c0.176-0.158,0.395-0.289,0.657-0.387
						c0.262-0.1,0.581-0.148,0.958-0.148c0.486,0,0.874,0.084,1.165,0.254c0.291,0.168,0.514,0.381,0.671,0.637
						c0.156,0.256,0.262,0.535,0.316,0.838c0.054,0.305,0.087,0.586,0.101,0.848c0,0.039,0.001,0.08,0.004,0.121
						c0.003,0.041,0.005,0.08,0.005,0.119h-3.747c0,0.211,0.029,0.426,0.086,0.643s0.147,0.414,0.268,0.59
						c0.122,0.176,0.28,0.32,0.475,0.436s0.433,0.172,0.714,0.172c0.198,0,0.377-0.027,0.537-0.082
						c0.16-0.053,0.295-0.127,0.407-0.219c0.112-0.094,0.201-0.201,0.269-0.322c0.067-0.121,0.113-0.248,0.139-0.383H349z
						 M348.157,156.932c-0.006-0.16-0.029-0.336-0.067-0.527c-0.039-0.191-0.107-0.369-0.206-0.531
						c-0.099-0.164-0.235-0.299-0.408-0.408c-0.172-0.107-0.396-0.162-0.67-0.162c-0.307,0-0.56,0.055-0.757,0.168
						c-0.198,0.111-0.353,0.25-0.465,0.416s-0.187,0.344-0.225,0.531c-0.039,0.189-0.058,0.359-0.058,0.514H348.157z"/>
					<path fill="#585A5E" d="M350.994,154.901v0.68c0.166-0.242,0.39-0.449,0.671-0.617c0.281-0.17,0.613-0.254,0.997-0.254
						c0.319,0,0.583,0.049,0.791,0.148c0.208,0.098,0.371,0.23,0.489,0.396s0.202,0.359,0.25,0.58s0.072,0.453,0.072,0.695v3.238
						h-0.843v-2.98c0-0.127-0.005-0.277-0.015-0.449c-0.009-0.174-0.044-0.336-0.105-0.49c-0.061-0.152-0.161-0.281-0.302-0.387
						s-0.342-0.158-0.604-0.158c-0.115,0-0.252,0.02-0.412,0.057c-0.16,0.039-0.313,0.121-0.46,0.244
						c-0.147,0.125-0.272,0.307-0.374,0.547s-0.153,0.561-0.153,0.963v2.654h-0.843v-4.867H350.994z"/>
					<path fill="#585A5E" d="M355.948,154.901v-1.457h0.843v1.457h1.035v0.594h-1.035v3.096c0,0.09,0.001,0.174,0.005,0.254
						s0.019,0.15,0.048,0.215s0.078,0.113,0.148,0.148s0.173,0.053,0.307,0.053c0.089,0,0.179-0.008,0.268-0.023
						s0.176-0.037,0.259-0.062v0.594c-0.134,0.059-0.278,0.104-0.431,0.139s-0.304,0.053-0.451,0.053
						c-0.249,0-0.442-0.037-0.58-0.113c-0.138-0.078-0.236-0.176-0.297-0.293c-0.061-0.119-0.096-0.248-0.105-0.389
						c-0.01-0.141-0.015-0.273-0.015-0.402v-3.268h-0.872v-0.594H355.948z"/>
					<path fill="#585A5E" d="M358.019,161.043h4.763v0.498h-4.763V161.043z"/>
					<path fill="#585A5E" d="M365.714,155.495h-1.064v4.273h-0.843v-4.273h-0.901v-0.594h0.901v-0.662
						c0-0.422,0.105-0.73,0.316-0.924c0.211-0.195,0.533-0.293,0.968-0.293c0.089,0,0.198,0.004,0.326,0.014
						s0.227,0.018,0.297,0.025v0.594c-0.205-0.014-0.344-0.018-0.417-0.016c-0.074,0.004-0.133,0.006-0.177,0.006
						c-0.115,0-0.205,0.025-0.269,0.076s-0.11,0.111-0.139,0.182s-0.046,0.145-0.053,0.221s-0.01,0.141-0.01,0.191v0.586h1.064
						V155.495z"/>
					<path fill="#585A5E" d="M366.509,153.061h0.843v0.881h-0.843V153.061z M367.352,154.901v4.867h-0.843v-4.867H367.352z"/>
					<path fill="#585A5E" d="M369.556,153.061v6.707h-0.843v-6.707H369.556z"/>
					<path fill="#585A5E" d="M371.243,154.901v-1.457h0.843v1.457h1.035v0.594h-1.035v3.096c0,0.09,0.001,0.174,0.005,0.254
						s0.019,0.15,0.048,0.215s0.078,0.113,0.148,0.148s0.173,0.053,0.307,0.053c0.089,0,0.179-0.008,0.268-0.023
						s0.176-0.037,0.259-0.062v0.594c-0.134,0.059-0.278,0.104-0.431,0.139s-0.304,0.053-0.451,0.053
						c-0.249,0-0.442-0.037-0.58-0.113c-0.138-0.078-0.236-0.176-0.297-0.293c-0.061-0.119-0.096-0.248-0.105-0.389
						c-0.01-0.141-0.015-0.273-0.015-0.402v-3.268h-0.872v-0.594H371.243z"/>
					<path fill="#585A5E" d="M378.315,158.36c-0.032,0.172-0.091,0.354-0.177,0.541c-0.086,0.189-0.211,0.361-0.374,0.518
						c-0.163,0.156-0.373,0.287-0.628,0.389s-0.572,0.152-0.949,0.152c-0.402,0-0.743-0.053-1.021-0.162s-0.508-0.248-0.69-0.416
						c-0.182-0.17-0.325-0.357-0.427-0.562c-0.102-0.203-0.177-0.402-0.225-0.594s-0.077-0.365-0.086-0.521
						c-0.009-0.156-0.014-0.273-0.014-0.35c0-0.109,0.006-0.252,0.019-0.428c0.013-0.174,0.045-0.359,0.096-0.555
						c0.051-0.195,0.128-0.391,0.23-0.59c0.103-0.197,0.241-0.377,0.417-0.537c0.176-0.158,0.395-0.289,0.657-0.387
						c0.262-0.1,0.581-0.148,0.958-0.148c0.486,0,0.874,0.084,1.165,0.254c0.291,0.168,0.514,0.381,0.671,0.637
						c0.156,0.256,0.262,0.535,0.316,0.838c0.054,0.305,0.087,0.586,0.101,0.848c0,0.039,0.001,0.08,0.004,0.121
						c0.003,0.041,0.005,0.08,0.005,0.119h-3.747c0,0.211,0.029,0.426,0.086,0.643s0.147,0.414,0.268,0.59
						c0.122,0.176,0.28,0.32,0.475,0.436s0.433,0.172,0.714,0.172c0.198,0,0.377-0.027,0.537-0.082
						c0.16-0.053,0.295-0.127,0.407-0.219c0.112-0.094,0.201-0.201,0.269-0.322c0.067-0.121,0.113-0.248,0.139-0.383H378.315z
						 M377.472,156.932c-0.006-0.16-0.029-0.336-0.067-0.527c-0.039-0.191-0.107-0.369-0.206-0.531
						c-0.099-0.164-0.235-0.299-0.408-0.408c-0.172-0.107-0.396-0.162-0.67-0.162c-0.307,0-0.56,0.055-0.757,0.168
						c-0.198,0.111-0.353,0.25-0.465,0.416s-0.187,0.344-0.225,0.531c-0.039,0.189-0.058,0.359-0.058,0.514H377.472z"/>
					<path fill="#585A5E" d="M382.188,155.303c-0.288,0.012-0.542,0.051-0.762,0.115c-0.221,0.062-0.41,0.162-0.566,0.297
						c-0.156,0.133-0.281,0.307-0.373,0.518c-0.093,0.211-0.148,0.469-0.168,0.775c-0.006,0.09-0.01,0.176-0.01,0.26
						c0,0.082,0,0.168,0,0.258v2.242h-0.844v-4.867h0.844v0.939h0.02c0.057-0.18,0.143-0.338,0.254-0.475
						c0.111-0.139,0.239-0.254,0.383-0.346c0.145-0.092,0.299-0.164,0.465-0.215c0.166-0.053,0.336-0.08,0.508-0.088l0.25-0.008
						V155.303z"/>
					<path fill="#585A5E" d="M382.312,161.043h4.763v0.498h-4.763V161.043z"/>
					<path fill="#585A5E" d="M388.263,158.321c0.006,0.191,0.047,0.355,0.123,0.49c0.076,0.133,0.176,0.242,0.3,0.324
						c0.124,0.084,0.263,0.143,0.418,0.178s0.312,0.053,0.472,0.053c0.278,0,0.494-0.037,0.646-0.115
						c0.151-0.076,0.263-0.166,0.332-0.268c0.07-0.102,0.109-0.205,0.119-0.307s0.015-0.18,0.015-0.23
						c0-0.076-0.009-0.152-0.024-0.225c-0.016-0.074-0.059-0.145-0.128-0.211c-0.07-0.066-0.174-0.131-0.31-0.191
						c-0.137-0.061-0.322-0.121-0.558-0.178l-0.515-0.115c-0.203-0.045-0.396-0.096-0.58-0.152c-0.185-0.059-0.347-0.139-0.486-0.24
						s-0.251-0.234-0.333-0.398c-0.083-0.162-0.124-0.371-0.124-0.627c0-0.268,0.055-0.494,0.163-0.676s0.252-0.326,0.432-0.432
						c0.179-0.105,0.377-0.18,0.594-0.225s0.438-0.066,0.661-0.066c0.415,0,0.749,0.051,1.002,0.152
						c0.252,0.102,0.448,0.229,0.589,0.379s0.236,0.311,0.288,0.479c0.051,0.17,0.082,0.322,0.096,0.455h-0.806
						c-0.006-0.07-0.023-0.154-0.053-0.254c-0.029-0.098-0.083-0.195-0.164-0.287c-0.08-0.092-0.193-0.17-0.341-0.234
						c-0.148-0.064-0.344-0.096-0.588-0.096c-0.025,0-0.093,0.002-0.202,0.01c-0.108,0.006-0.223,0.033-0.342,0.08
						c-0.118,0.049-0.226,0.125-0.322,0.23c-0.096,0.105-0.145,0.254-0.145,0.445c0,0.174,0.037,0.311,0.111,0.412
						c0.073,0.104,0.173,0.182,0.298,0.24c0.125,0.057,0.269,0.104,0.433,0.139c0.163,0.035,0.331,0.072,0.505,0.111
						c0.249,0.057,0.48,0.115,0.691,0.176c0.212,0.061,0.396,0.141,0.553,0.24s0.279,0.229,0.365,0.389
						c0.087,0.158,0.13,0.363,0.13,0.613c0,0.256-0.045,0.471-0.134,0.646c-0.09,0.176-0.201,0.322-0.336,0.441
						c-0.134,0.117-0.282,0.209-0.445,0.271c-0.163,0.064-0.319,0.113-0.47,0.145s-0.281,0.051-0.393,0.057
						c-0.112,0.008-0.187,0.01-0.226,0.01c-0.364,0-0.679-0.043-0.943-0.129c-0.266-0.086-0.487-0.205-0.666-0.354
						c-0.18-0.15-0.313-0.324-0.403-0.523c-0.089-0.197-0.137-0.408-0.144-0.633H388.263z"/>
					<path fill="#585A5E" d="M396.927,158.36c-0.032,0.172-0.092,0.354-0.178,0.541c-0.086,0.189-0.211,0.361-0.374,0.518
						s-0.372,0.287-0.627,0.389c-0.256,0.102-0.572,0.152-0.949,0.152c-0.402,0-0.743-0.053-1.021-0.162
						c-0.278-0.109-0.508-0.248-0.69-0.416c-0.182-0.17-0.324-0.357-0.426-0.562c-0.103-0.203-0.178-0.402-0.226-0.594
						s-0.076-0.365-0.086-0.521s-0.015-0.273-0.015-0.35c0-0.109,0.006-0.252,0.02-0.428c0.013-0.174,0.044-0.359,0.096-0.555
						c0.051-0.195,0.128-0.391,0.229-0.59c0.103-0.197,0.241-0.377,0.417-0.537c0.176-0.158,0.395-0.289,0.656-0.387
						c0.263-0.1,0.582-0.148,0.959-0.148c0.485,0,0.873,0.084,1.164,0.254c0.291,0.168,0.515,0.381,0.671,0.637
						s0.262,0.535,0.316,0.838c0.054,0.305,0.088,0.586,0.101,0.848c0,0.039,0.001,0.08,0.005,0.121
						c0.003,0.041,0.005,0.08,0.005,0.119h-3.747c0,0.211,0.028,0.426,0.086,0.643s0.146,0.414,0.269,0.59
						c0.121,0.176,0.279,0.32,0.474,0.436c0.195,0.115,0.434,0.172,0.715,0.172c0.197,0,0.376-0.027,0.536-0.082
						c0.16-0.053,0.296-0.127,0.407-0.219c0.112-0.094,0.201-0.201,0.269-0.322s0.113-0.248,0.139-0.383H396.927z M396.083,156.932
						c-0.007-0.16-0.028-0.336-0.067-0.527c-0.038-0.191-0.106-0.369-0.206-0.531c-0.099-0.164-0.234-0.299-0.407-0.408
						c-0.172-0.107-0.396-0.162-0.671-0.162c-0.307,0-0.559,0.055-0.757,0.168c-0.198,0.111-0.354,0.25-0.465,0.416
						s-0.187,0.344-0.226,0.531c-0.038,0.189-0.057,0.359-0.057,0.514H396.083z"/>
					<path fill="#585A5E" d="M400.798,155.303c-0.288,0.012-0.542,0.051-0.763,0.115c-0.22,0.062-0.408,0.162-0.565,0.297
						c-0.156,0.133-0.281,0.307-0.373,0.518c-0.093,0.211-0.148,0.469-0.168,0.775c-0.007,0.09-0.01,0.176-0.01,0.26
						c0,0.082,0,0.168,0,0.258v2.242h-0.843v-4.867h0.843v0.939h0.02c0.058-0.18,0.142-0.338,0.254-0.475
						c0.111-0.139,0.239-0.254,0.383-0.346c0.145-0.092,0.299-0.164,0.465-0.215c0.166-0.053,0.336-0.08,0.508-0.088l0.25-0.008
						V155.303z"/>
					<path fill="#585A5E" d="M404.783,154.901h0.901l-1.802,4.867h-0.958l-1.802-4.867h0.9l1.38,4.023L404.783,154.901z"/>
					<path fill="#585A5E" d="M406.336,153.061h0.843v0.881h-0.843V153.061z M407.179,154.901v4.867h-0.843v-4.867H407.179z"/>
					<path fill="#585A5E" d="M412.757,158.034c-0.013,0.146-0.049,0.33-0.109,0.547c-0.062,0.217-0.167,0.428-0.316,0.633
						c-0.15,0.203-0.361,0.379-0.633,0.527c-0.271,0.146-0.625,0.219-1.059,0.219c-0.083,0-0.198-0.006-0.346-0.018
						c-0.146-0.014-0.31-0.045-0.488-0.096c-0.179-0.053-0.359-0.133-0.542-0.246c-0.182-0.111-0.347-0.264-0.493-0.459
						s-0.269-0.443-0.364-0.742c-0.096-0.301-0.144-0.668-0.144-1.104c0-0.281,0.032-0.574,0.096-0.881s0.183-0.586,0.354-0.838
						c0.173-0.254,0.409-0.461,0.709-0.623c0.301-0.164,0.688-0.244,1.16-0.244c0.345,0,0.645,0.045,0.9,0.139
						c0.256,0.092,0.47,0.219,0.643,0.379c0.172,0.158,0.308,0.342,0.407,0.545c0.099,0.205,0.161,0.422,0.187,0.652h-0.805
						c-0.045-0.27-0.125-0.48-0.239-0.633c-0.115-0.154-0.24-0.266-0.374-0.336c-0.135-0.07-0.267-0.113-0.397-0.129
						c-0.132-0.016-0.232-0.023-0.303-0.023c-0.262,0-0.485,0.053-0.671,0.158c-0.185,0.105-0.335,0.248-0.45,0.426
						c-0.115,0.18-0.198,0.391-0.249,0.633s-0.076,0.502-0.076,0.775c0,0.275,0.028,0.537,0.086,0.787
						c0.058,0.248,0.146,0.469,0.264,0.66s0.272,0.344,0.465,0.455c0.191,0.113,0.422,0.168,0.689,0.168
						c0.236,0,0.437-0.045,0.6-0.135c0.162-0.088,0.295-0.199,0.397-0.33c0.102-0.131,0.176-0.273,0.221-0.432
						c0.044-0.156,0.069-0.301,0.076-0.436H412.757z"/>
					<path fill="#585A5E" d="M418.104,158.36c-0.032,0.172-0.092,0.354-0.178,0.541c-0.086,0.189-0.211,0.361-0.374,0.518
						s-0.372,0.287-0.627,0.389c-0.256,0.102-0.572,0.152-0.949,0.152c-0.402,0-0.743-0.053-1.021-0.162
						c-0.278-0.109-0.508-0.248-0.69-0.416c-0.182-0.17-0.324-0.357-0.426-0.562c-0.103-0.203-0.178-0.402-0.226-0.594
						s-0.076-0.365-0.086-0.521s-0.015-0.273-0.015-0.35c0-0.109,0.006-0.252,0.02-0.428c0.013-0.174,0.044-0.359,0.096-0.555
						c0.051-0.195,0.128-0.391,0.229-0.59c0.103-0.197,0.241-0.377,0.417-0.537c0.176-0.158,0.395-0.289,0.656-0.387
						c0.263-0.1,0.582-0.148,0.959-0.148c0.485,0,0.873,0.084,1.164,0.254c0.291,0.168,0.515,0.381,0.671,0.637
						s0.262,0.535,0.316,0.838c0.054,0.305,0.088,0.586,0.101,0.848c0,0.039,0.001,0.08,0.005,0.121
						c0.003,0.041,0.005,0.08,0.005,0.119h-3.747c0,0.211,0.028,0.426,0.086,0.643s0.146,0.414,0.269,0.59
						c0.121,0.176,0.279,0.32,0.474,0.436c0.195,0.115,0.434,0.172,0.715,0.172c0.197,0,0.376-0.027,0.536-0.082
						c0.16-0.053,0.296-0.127,0.407-0.219c0.112-0.094,0.201-0.201,0.269-0.322s0.113-0.248,0.139-0.383H418.104z M417.261,156.932
						c-0.007-0.16-0.028-0.336-0.067-0.527c-0.038-0.191-0.106-0.369-0.206-0.531c-0.099-0.164-0.234-0.299-0.407-0.408
						c-0.172-0.107-0.396-0.162-0.671-0.162c-0.307,0-0.559,0.055-0.757,0.168c-0.198,0.111-0.354,0.25-0.465,0.416
						s-0.187,0.344-0.226,0.531c-0.038,0.189-0.057,0.359-0.057,0.514H417.261z"/>
				</g>
			</g>
		</g>
		<g>
			<g>
				<rect x="517.399" y="50.075" fill="#DCDCDD" width="116.877" height="121.328"/>
			</g>
			<g>
				<g>
					<path fill="#585A5E" d="M554.842,84.927c-0.008,0.28,0.041,0.54,0.145,0.78c0.104,0.24,0.26,0.448,0.468,0.624
						c0.208,0.176,0.462,0.314,0.763,0.414c0.299,0.1,0.642,0.15,1.025,0.15c0.376,0,0.693-0.044,0.954-0.132
						c0.26-0.088,0.472-0.204,0.636-0.348c0.164-0.144,0.284-0.31,0.36-0.498c0.075-0.188,0.114-0.382,0.114-0.582
						c0-0.256-0.053-0.47-0.156-0.642s-0.236-0.312-0.396-0.42s-0.342-0.194-0.545-0.258c-0.205-0.064-0.402-0.116-0.595-0.156
						c-0.479-0.104-0.938-0.202-1.374-0.294s-0.82-0.222-1.152-0.39s-0.596-0.394-0.791-0.678c-0.197-0.284-0.295-0.666-0.295-1.146
						c0-0.392,0.076-0.74,0.229-1.044c0.152-0.304,0.367-0.556,0.648-0.756c0.279-0.2,0.615-0.352,1.008-0.456
						c0.392-0.104,0.823-0.156,1.295-0.156c0.521,0,0.971,0.066,1.351,0.198c0.38,0.132,0.696,0.31,0.948,0.534
						s0.443,0.484,0.576,0.78c0.132,0.296,0.209,0.604,0.234,0.924h-1.129c-0.04-0.344-0.143-0.616-0.306-0.816
						c-0.164-0.2-0.351-0.35-0.558-0.45c-0.209-0.1-0.42-0.162-0.637-0.186c-0.216-0.024-0.388-0.036-0.516-0.036
						c-0.584,0-1.055,0.126-1.41,0.378s-0.534,0.594-0.534,1.026c0,0.256,0.058,0.462,0.175,0.618
						c0.115,0.156,0.27,0.284,0.461,0.384c0.192,0.1,0.414,0.178,0.666,0.234s0.518,0.112,0.799,0.168
						c0.375,0.072,0.754,0.154,1.134,0.246s0.724,0.23,1.032,0.414c0.308,0.184,0.558,0.43,0.75,0.738
						c0.191,0.308,0.287,0.714,0.287,1.218c0,0.416-0.065,0.768-0.197,1.056c-0.133,0.288-0.303,0.526-0.51,0.714
						c-0.209,0.188-0.44,0.334-0.696,0.438c-0.257,0.104-0.507,0.18-0.75,0.228c-0.244,0.048-0.472,0.076-0.685,0.084
						c-0.212,0.008-0.373,0.012-0.486,0.012c-0.295,0-0.637-0.028-1.025-0.084c-0.389-0.056-0.758-0.182-1.109-0.378
						c-0.353-0.196-0.654-0.488-0.906-0.876s-0.395-0.914-0.426-1.578H554.842z"/>
					<path fill="#585A5E" d="M562.295,81.495v-1.824h1.056v1.824h1.296v0.744h-1.296v3.876c0,0.112,0.001,0.218,0.006,0.318
						c0.004,0.1,0.024,0.19,0.06,0.27c0.036,0.08,0.098,0.142,0.187,0.186c0.088,0.044,0.216,0.066,0.384,0.066
						c0.111,0,0.225-0.01,0.336-0.03s0.221-0.046,0.324-0.078v0.744c-0.168,0.072-0.348,0.13-0.54,0.174s-0.38,0.066-0.563,0.066
						c-0.312,0-0.555-0.048-0.727-0.144c-0.172-0.096-0.296-0.218-0.372-0.366s-0.12-0.31-0.132-0.486s-0.018-0.344-0.018-0.504
						v-4.092h-1.093v-0.744H562.295z"/>
					<path fill="#585A5E" d="M569.842,87.591v-0.864h-0.023c-0.152,0.264-0.336,0.47-0.553,0.618
						c-0.215,0.148-0.426,0.258-0.629,0.33c-0.205,0.072-0.389,0.116-0.553,0.132s-0.273,0.024-0.33,0.024
						c-0.447,0-0.806-0.076-1.074-0.228c-0.268-0.152-0.47-0.344-0.605-0.576c-0.137-0.232-0.225-0.48-0.264-0.744
						c-0.041-0.264-0.061-0.512-0.061-0.744v-4.044h1.057v3.732c0,0.384,0.031,0.696,0.096,0.936c0.064,0.24,0.152,0.43,0.264,0.57
						c0.112,0.14,0.246,0.234,0.402,0.282c0.156,0.048,0.33,0.072,0.521,0.072c0.44,0,0.78-0.098,1.021-0.294
						c0.239-0.196,0.414-0.422,0.522-0.678c0.107-0.256,0.17-0.508,0.186-0.756s0.023-0.428,0.023-0.54v-3.324h1.057v6.096H569.842z
						"/>
					<path fill="#585A5E" d="M578.086,79.191v8.4h-0.984v-0.84h-0.035c-0.049,0.096-0.12,0.208-0.217,0.336
						c-0.096,0.128-0.224,0.246-0.383,0.354c-0.16,0.108-0.356,0.2-0.588,0.276c-0.232,0.076-0.509,0.114-0.828,0.114
						c-0.449,0-0.845-0.08-1.188-0.24c-0.345-0.16-0.632-0.386-0.864-0.678c-0.232-0.292-0.41-0.64-0.533-1.044
						c-0.125-0.404-0.187-0.85-0.187-1.338c0-0.32,0.032-0.67,0.096-1.05s0.196-0.736,0.396-1.068
						c0.201-0.332,0.479-0.607,0.834-0.828c0.356-0.22,0.83-0.33,1.423-0.33c0.407,0,0.782,0.068,1.122,0.204
						c0.34,0.136,0.634,0.412,0.882,0.828v-3.096H578.086z M573.395,84.531c0,0.576,0.07,1.034,0.209,1.374
						c0.141,0.34,0.309,0.596,0.505,0.768s0.401,0.284,0.618,0.336c0.216,0.052,0.399,0.078,0.552,0.078
						c0.231,0,0.458-0.046,0.678-0.138c0.22-0.092,0.414-0.24,0.582-0.444s0.304-0.47,0.408-0.798s0.155-0.728,0.155-1.2
						c0-0.44-0.049-0.818-0.149-1.134c-0.101-0.316-0.238-0.576-0.414-0.78s-0.378-0.354-0.606-0.45
						c-0.228-0.096-0.465-0.144-0.713-0.144c-0.257,0-0.494,0.048-0.715,0.144c-0.22,0.096-0.412,0.246-0.576,0.45
						s-0.293,0.466-0.39,0.786C573.442,83.699,573.395,84.083,573.395,84.531z"/>
					<path fill="#585A5E" d="M585.215,85.827c-0.041,0.216-0.115,0.442-0.223,0.678s-0.264,0.452-0.468,0.648
						c-0.204,0.196-0.466,0.358-0.786,0.486s-0.717,0.192-1.188,0.192c-0.504,0-0.931-0.068-1.279-0.204
						c-0.348-0.136-0.635-0.31-0.863-0.522s-0.406-0.446-0.534-0.702c-0.128-0.256-0.222-0.504-0.282-0.744
						c-0.06-0.24-0.096-0.458-0.107-0.654c-0.012-0.196-0.018-0.342-0.018-0.438c0-0.136,0.008-0.314,0.023-0.534
						c0.016-0.22,0.056-0.452,0.12-0.696c0.063-0.244,0.159-0.49,0.288-0.738c0.127-0.248,0.302-0.472,0.521-0.672
						c0.221-0.2,0.494-0.362,0.822-0.486s0.729-0.186,1.2-0.186c0.608,0,1.094,0.106,1.458,0.318
						c0.363,0.212,0.644,0.478,0.84,0.798c0.195,0.32,0.328,0.67,0.396,1.05c0.067,0.38,0.109,0.734,0.125,1.062
						c0,0.048,0.002,0.098,0.006,0.15c0.004,0.052,0.007,0.102,0.007,0.15h-4.692c0,0.264,0.036,0.532,0.108,0.804
						c0.071,0.272,0.184,0.518,0.336,0.738c0.151,0.22,0.35,0.402,0.594,0.546c0.244,0.144,0.542,0.216,0.894,0.216
						c0.248,0,0.473-0.034,0.672-0.102c0.201-0.068,0.371-0.16,0.511-0.276c0.14-0.116,0.252-0.25,0.336-0.402
						c0.084-0.152,0.142-0.312,0.174-0.48H585.215z M584.158,84.039c-0.008-0.2-0.036-0.42-0.084-0.66
						c-0.048-0.24-0.135-0.462-0.258-0.666c-0.125-0.204-0.295-0.374-0.51-0.51c-0.217-0.136-0.496-0.204-0.84-0.204
						c-0.385,0-0.701,0.07-0.949,0.21s-0.441,0.314-0.582,0.522c-0.14,0.208-0.233,0.43-0.281,0.666
						c-0.049,0.236-0.072,0.45-0.072,0.642H584.158z"/>
					<path fill="#585A5E" d="M587.71,81.495v0.852c0.208-0.304,0.487-0.562,0.84-0.774s0.769-0.318,1.248-0.318
						c0.399,0,0.729,0.062,0.99,0.186c0.26,0.124,0.464,0.29,0.612,0.498c0.147,0.208,0.252,0.45,0.312,0.726
						c0.06,0.276,0.091,0.566,0.091,0.87v4.056h-1.057v-3.732c0-0.16-0.006-0.348-0.018-0.564c-0.013-0.216-0.057-0.42-0.133-0.612
						c-0.076-0.192-0.201-0.354-0.377-0.486c-0.177-0.132-0.429-0.198-0.757-0.198c-0.144,0-0.315,0.024-0.517,0.072
						c-0.199,0.048-0.391,0.15-0.575,0.306c-0.185,0.156-0.341,0.384-0.468,0.684c-0.129,0.3-0.192,0.702-0.192,1.206v3.324h-1.056
						v-6.096H587.71z"/>
					<path fill="#585A5E" d="M593.914,81.495v-1.824h1.057v1.824h1.295v0.744h-1.295v3.876c0,0.112,0.001,0.218,0.006,0.318
						c0.004,0.1,0.023,0.19,0.06,0.27c0.036,0.08,0.098,0.142,0.187,0.186c0.088,0.044,0.215,0.066,0.383,0.066
						c0.112,0,0.225-0.01,0.336-0.03c0.112-0.02,0.221-0.046,0.324-0.078v0.744c-0.168,0.072-0.348,0.13-0.539,0.174
						c-0.192,0.044-0.381,0.066-0.564,0.066c-0.312,0-0.555-0.048-0.727-0.144c-0.172-0.096-0.295-0.218-0.371-0.366
						s-0.121-0.31-0.133-0.486s-0.018-0.344-0.018-0.504v-4.092h-1.092v-0.744H593.914z"/>
					<path fill="#585A5E" d="M551.32,99.895c0-0.2,0.033-0.42,0.102-0.66c0.068-0.24,0.196-0.462,0.385-0.666
						c0.188-0.204,0.451-0.374,0.791-0.51c0.34-0.136,0.778-0.204,1.314-0.204c0.248,0,0.514,0.024,0.798,0.072
						c0.284,0.048,0.548,0.144,0.792,0.288s0.446,0.35,0.606,0.618c0.159,0.268,0.235,0.626,0.228,1.074l-0.06,2.82
						c0,0.12,0.001,0.226,0.006,0.318c0.004,0.092,0.026,0.168,0.065,0.228c0.041,0.06,0.104,0.106,0.192,0.138
						c0.088,0.032,0.212,0.044,0.372,0.036v0.744c-0.072,0.016-0.143,0.028-0.21,0.036c-0.067,0.008-0.158,0.012-0.271,0.012
						c-0.144,0-0.277-0.01-0.401-0.03s-0.232-0.06-0.324-0.12s-0.168-0.148-0.228-0.264c-0.061-0.116-0.106-0.274-0.139-0.474
						c-0.104,0.192-0.232,0.356-0.384,0.492c-0.151,0.136-0.319,0.248-0.504,0.336c-0.185,0.088-0.378,0.152-0.582,0.192
						c-0.204,0.04-0.41,0.06-0.618,0.06c-0.641,0-1.158-0.146-1.554-0.438c-0.396-0.292-0.595-0.758-0.595-1.398
						c0-0.264,0.041-0.502,0.121-0.714s0.231-0.4,0.455-0.564c0.225-0.164,0.528-0.3,0.912-0.408c0.385-0.108,0.885-0.19,1.5-0.246
						c0.225-0.016,0.412-0.032,0.564-0.048c0.152-0.016,0.273-0.05,0.365-0.102c0.093-0.052,0.158-0.13,0.199-0.234
						c0.039-0.104,0.06-0.256,0.06-0.456c0-0.072-0.009-0.176-0.024-0.312c-0.016-0.136-0.068-0.271-0.156-0.408
						s-0.224-0.254-0.407-0.354c-0.185-0.1-0.444-0.15-0.78-0.15c-0.096,0-0.234,0.008-0.414,0.024s-0.357,0.066-0.533,0.15
						c-0.177,0.084-0.328,0.212-0.457,0.384c-0.128,0.172-0.188,0.418-0.18,0.738H551.32z M555.28,101.071
						c-0.079,0.064-0.163,0.11-0.25,0.138s-0.183,0.05-0.286,0.066s-0.221,0.03-0.352,0.042s-0.279,0.03-0.445,0.054
						c-0.23,0.04-0.451,0.078-0.662,0.114c-0.21,0.036-0.395,0.092-0.553,0.168c-0.159,0.076-0.284,0.186-0.375,0.33
						c-0.092,0.144-0.137,0.336-0.137,0.576c0,0.36,0.108,0.638,0.326,0.834c0.219,0.196,0.499,0.294,0.84,0.294
						c0.207,0,0.415-0.03,0.625-0.09c0.211-0.06,0.405-0.168,0.584-0.324c0.178-0.156,0.327-0.37,0.446-0.642s0.19-0.62,0.214-1.044
						L555.28,101.071z"/>
					<path fill="#585A5E" d="M561.568,98.599c-0.36,0.016-0.678,0.064-0.955,0.144c-0.275,0.08-0.512,0.204-0.707,0.372
						c-0.196,0.168-0.353,0.384-0.469,0.648c-0.115,0.264-0.186,0.588-0.209,0.972c-0.009,0.112-0.013,0.22-0.013,0.324
						s0,0.212,0,0.324v2.808h-1.056v-6.096h1.056v1.176h0.024c0.072-0.224,0.178-0.422,0.318-0.594
						c0.139-0.172,0.299-0.316,0.479-0.432c0.18-0.116,0.374-0.206,0.582-0.27s0.42-0.1,0.636-0.108l0.312-0.012V98.599z"/>
					<path fill="#585A5E" d="M567.532,102.427c-0.04,0.216-0.114,0.442-0.222,0.678c-0.108,0.236-0.265,0.452-0.469,0.648
						c-0.203,0.196-0.466,0.358-0.785,0.486c-0.32,0.128-0.717,0.192-1.188,0.192c-0.504,0-0.931-0.068-1.278-0.204
						c-0.348-0.136-0.636-0.31-0.863-0.522c-0.229-0.212-0.406-0.446-0.535-0.702c-0.127-0.256-0.221-0.504-0.281-0.744
						c-0.061-0.24-0.096-0.458-0.107-0.654c-0.013-0.196-0.019-0.342-0.019-0.438c0-0.136,0.008-0.314,0.024-0.534
						c0.016-0.22,0.055-0.452,0.119-0.696s0.16-0.49,0.289-0.738c0.127-0.248,0.301-0.472,0.521-0.672
						c0.22-0.2,0.494-0.362,0.822-0.486s0.728-0.186,1.199-0.186c0.608,0,1.094,0.106,1.459,0.318
						c0.363,0.212,0.643,0.478,0.84,0.798c0.195,0.32,0.328,0.67,0.396,1.05s0.11,0.734,0.126,1.062c0,0.048,0.002,0.098,0.006,0.15
						c0.004,0.052,0.006,0.102,0.006,0.15H562.9c0,0.264,0.035,0.532,0.107,0.804s0.184,0.518,0.336,0.738
						c0.152,0.22,0.35,0.402,0.594,0.546c0.244,0.144,0.543,0.216,0.895,0.216c0.248,0,0.473-0.034,0.672-0.102
						c0.2-0.068,0.37-0.16,0.51-0.276c0.141-0.116,0.252-0.25,0.336-0.402c0.084-0.152,0.143-0.312,0.174-0.48H567.532z
						 M566.477,100.639c-0.009-0.2-0.037-0.42-0.084-0.66c-0.049-0.24-0.135-0.462-0.258-0.666c-0.125-0.204-0.295-0.374-0.511-0.51
						c-0.216-0.136-0.496-0.204-0.84-0.204c-0.384,0-0.7,0.07-0.948,0.21s-0.441,0.314-0.582,0.522s-0.234,0.43-0.281,0.666
						c-0.049,0.236-0.072,0.45-0.072,0.642H566.477z"/>
					<path fill="#585A5E" d="M574.252,102.019c-0.016,0.184-0.062,0.412-0.139,0.684s-0.207,0.536-0.396,0.792
						c-0.188,0.256-0.452,0.476-0.792,0.66c-0.34,0.184-0.781,0.276-1.326,0.276c-0.104,0-0.248-0.008-0.432-0.024
						s-0.389-0.056-0.611-0.12c-0.225-0.064-0.451-0.166-0.679-0.306s-0.435-0.332-0.618-0.576c-0.184-0.244-0.336-0.554-0.456-0.93
						s-0.18-0.836-0.18-1.38c0-0.352,0.04-0.72,0.12-1.104c0.08-0.384,0.228-0.734,0.443-1.05c0.217-0.316,0.512-0.576,0.889-0.78
						c0.375-0.204,0.859-0.306,1.451-0.306c0.433,0,0.809,0.058,1.129,0.174c0.319,0.116,0.588,0.274,0.804,0.474
						c0.216,0.2,0.386,0.428,0.51,0.684s0.202,0.528,0.234,0.816h-1.009c-0.056-0.336-0.155-0.6-0.299-0.792
						c-0.145-0.192-0.301-0.332-0.469-0.42s-0.334-0.142-0.498-0.162s-0.29-0.03-0.378-0.03c-0.328,0-0.608,0.066-0.84,0.198
						s-0.42,0.31-0.563,0.534c-0.145,0.224-0.248,0.488-0.312,0.792s-0.096,0.628-0.096,0.972c0,0.344,0.035,0.672,0.107,0.984
						s0.182,0.588,0.33,0.828c0.148,0.24,0.342,0.43,0.582,0.57s0.528,0.21,0.864,0.21c0.296,0,0.546-0.056,0.75-0.168
						c0.204-0.112,0.37-0.25,0.498-0.414s0.22-0.344,0.276-0.54c0.055-0.196,0.088-0.378,0.096-0.546H574.252z"/>
					<path fill="#585A5E" d="M575.199,101.143c0-0.408,0.053-0.808,0.156-1.2c0.104-0.392,0.273-0.742,0.51-1.05
						s0.547-0.558,0.93-0.75c0.385-0.192,0.853-0.288,1.404-0.288c0.553,0,1.021,0.096,1.404,0.288
						c0.385,0.192,0.693,0.442,0.93,0.75s0.406,0.658,0.51,1.05c0.104,0.392,0.156,0.792,0.156,1.2c0,0.408-0.052,0.808-0.156,1.2
						c-0.104,0.392-0.273,0.742-0.51,1.05s-0.545,0.558-0.93,0.75c-0.384,0.192-0.852,0.288-1.404,0.288
						c-0.552,0-1.02-0.096-1.404-0.288c-0.383-0.192-0.693-0.442-0.93-0.75s-0.406-0.658-0.51-1.05
						C575.252,101.951,575.199,101.551,575.199,101.143z M576.315,101.143c0,0.605,0.076,1.079,0.228,1.421
						c0.152,0.343,0.332,0.597,0.541,0.765c0.207,0.167,0.416,0.269,0.623,0.305c0.209,0.036,0.373,0.054,0.492,0.054
						c0.121,0,0.284-0.018,0.492-0.054s0.416-0.137,0.624-0.305s0.388-0.422,0.54-0.765c0.152-0.342,0.229-0.816,0.229-1.421
						s-0.076-1.079-0.229-1.421s-0.332-0.597-0.54-0.765c-0.208-0.167-0.416-0.269-0.624-0.304
						c-0.208-0.036-0.371-0.054-0.492-0.054c-0.119,0-0.283,0.018-0.492,0.054c-0.207,0.036-0.416,0.137-0.623,0.304
						c-0.209,0.167-0.389,0.422-0.541,0.765C576.392,100.064,576.315,100.538,576.315,101.143z"/>
					<path fill="#585A5E" d="M585.988,98.599c-0.36,0.016-0.678,0.064-0.955,0.144c-0.275,0.08-0.512,0.204-0.707,0.372
						c-0.196,0.168-0.353,0.384-0.469,0.648c-0.115,0.264-0.186,0.588-0.209,0.972c-0.009,0.112-0.013,0.22-0.013,0.324
						s0,0.212,0,0.324v2.808h-1.056v-6.096h1.056v1.176h0.024c0.072-0.224,0.178-0.422,0.318-0.594
						c0.139-0.172,0.299-0.316,0.479-0.432c0.18-0.116,0.374-0.206,0.582-0.27s0.42-0.1,0.636-0.108l0.312-0.012V98.599z"/>
					<path fill="#585A5E" d="M592.084,95.791v8.4H591.1v-0.84h-0.035c-0.049,0.096-0.121,0.208-0.217,0.336
						s-0.225,0.246-0.384,0.354c-0.16,0.108-0.356,0.2-0.588,0.276c-0.232,0.076-0.509,0.114-0.828,0.114
						c-0.448,0-0.845-0.08-1.188-0.24s-0.632-0.386-0.863-0.678c-0.232-0.292-0.41-0.64-0.534-1.044
						c-0.124-0.404-0.187-0.85-0.187-1.338c0-0.32,0.032-0.67,0.096-1.05c0.064-0.38,0.197-0.736,0.396-1.068
						c0.2-0.332,0.479-0.607,0.834-0.828s0.83-0.33,1.422-0.33c0.408,0,0.782,0.068,1.123,0.204c0.34,0.136,0.633,0.412,0.881,0.828
						v-3.096H592.084z M587.392,101.131c0,0.576,0.07,1.034,0.21,1.374c0.141,0.34,0.309,0.596,0.504,0.768
						c0.196,0.172,0.402,0.284,0.618,0.336c0.216,0.052,0.399,0.078,0.552,0.078c0.232,0,0.458-0.046,0.678-0.138
						c0.221-0.092,0.414-0.24,0.582-0.444s0.305-0.47,0.408-0.798c0.104-0.328,0.156-0.728,0.156-1.2c0-0.44-0.05-0.818-0.15-1.134
						c-0.1-0.316-0.238-0.576-0.414-0.78s-0.377-0.354-0.605-0.45c-0.229-0.096-0.466-0.144-0.714-0.144
						c-0.257,0-0.494,0.048-0.714,0.144c-0.221,0.096-0.412,0.246-0.576,0.45s-0.294,0.466-0.391,0.786
						C587.439,100.299,587.392,100.683,587.392,101.131z"/>
					<path fill="#585A5E" d="M594.436,102.379c0.008,0.24,0.06,0.444,0.154,0.612c0.096,0.168,0.221,0.304,0.375,0.408
						c0.155,0.104,0.33,0.178,0.524,0.222s0.392,0.066,0.589,0.066c0.35,0,0.619-0.048,0.811-0.144
						c0.19-0.096,0.329-0.208,0.416-0.336c0.088-0.128,0.137-0.256,0.149-0.384c0.012-0.128,0.018-0.224,0.018-0.288
						c0-0.096-0.01-0.19-0.03-0.282c-0.02-0.092-0.073-0.18-0.16-0.264c-0.088-0.084-0.217-0.164-0.388-0.24
						s-0.403-0.15-0.698-0.222l-0.644-0.144c-0.255-0.056-0.497-0.12-0.728-0.192s-0.434-0.172-0.607-0.3
						c-0.176-0.128-0.314-0.294-0.418-0.498c-0.104-0.204-0.155-0.466-0.155-0.786c0-0.336,0.067-0.618,0.204-0.846
						s0.316-0.408,0.54-0.54c0.224-0.132,0.472-0.226,0.744-0.282s0.548-0.084,0.828-0.084c0.52,0,0.938,0.064,1.254,0.192
						c0.315,0.128,0.562,0.286,0.737,0.474s0.297,0.388,0.36,0.6s0.104,0.402,0.12,0.57h-1.008c-0.008-0.088-0.03-0.194-0.066-0.318
						s-0.104-0.244-0.205-0.36c-0.101-0.116-0.242-0.214-0.428-0.294c-0.186-0.08-0.43-0.12-0.735-0.12
						c-0.032,0-0.116,0.004-0.253,0.012c-0.137,0.008-0.279,0.042-0.428,0.102s-0.283,0.156-0.404,0.288
						c-0.12,0.132-0.181,0.318-0.181,0.558c0,0.216,0.046,0.388,0.139,0.516c0.093,0.128,0.217,0.228,0.373,0.3
						c0.156,0.072,0.337,0.13,0.542,0.174s0.415,0.09,0.632,0.138c0.313,0.072,0.602,0.146,0.866,0.222
						c0.266,0.076,0.496,0.176,0.692,0.3s0.349,0.286,0.458,0.486c0.107,0.2,0.162,0.456,0.162,0.768c0,0.32-0.057,0.59-0.168,0.81
						c-0.112,0.22-0.252,0.404-0.42,0.552c-0.168,0.148-0.354,0.262-0.559,0.342c-0.203,0.08-0.4,0.14-0.588,0.18
						s-0.352,0.064-0.492,0.072c-0.14,0.008-0.233,0.012-0.281,0.012c-0.457,0-0.851-0.054-1.182-0.162
						c-0.332-0.108-0.611-0.256-0.834-0.444c-0.225-0.188-0.393-0.406-0.505-0.654s-0.172-0.512-0.18-0.792H594.436z"/>
				</g>
			</g>
		</g>
		<g>
			<g>
				<path fill="#585A5E" d="M545.799,116.252v0.84h0.036c0.151-0.232,0.318-0.418,0.498-0.558c0.181-0.14,0.36-0.25,0.54-0.33
					c0.18-0.08,0.354-0.132,0.521-0.156c0.168-0.024,0.32-0.036,0.457-0.036c0.375,0,0.729,0.064,1.062,0.192
					s0.624,0.326,0.876,0.594s0.45,0.61,0.594,1.026c0.145,0.416,0.217,0.908,0.217,1.476c0,0.592-0.076,1.096-0.229,1.512
					c-0.152,0.416-0.355,0.756-0.611,1.02c-0.257,0.264-0.549,0.456-0.877,0.576s-0.664,0.18-1.008,0.18
					c-0.064,0-0.178-0.008-0.342-0.024s-0.346-0.062-0.546-0.138c-0.2-0.076-0.402-0.188-0.606-0.336
					c-0.203-0.148-0.373-0.354-0.51-0.618v3.096h-1.057v-8.316H545.799z M545.799,119.325c0,0.472,0.061,0.868,0.18,1.188
					c0.121,0.32,0.274,0.58,0.463,0.78c0.188,0.2,0.392,0.342,0.611,0.426c0.221,0.084,0.43,0.126,0.631,0.126
					c0.216,0,0.43-0.042,0.642-0.126s0.403-0.224,0.576-0.42c0.172-0.196,0.312-0.456,0.42-0.78c0.108-0.324,0.162-0.73,0.162-1.218
					c0-0.784-0.16-1.404-0.48-1.86c-0.319-0.456-0.78-0.684-1.38-0.684c-0.137,0-0.309,0.026-0.516,0.078
					c-0.209,0.052-0.408,0.167-0.6,0.342c-0.193,0.176-0.359,0.434-0.498,0.774C545.869,118.291,545.799,118.749,545.799,119.325z"
					/>
				<path fill="#585A5E" d="M557.379,120.584c-0.041,0.216-0.114,0.442-0.223,0.678c-0.107,0.236-0.264,0.452-0.467,0.648
					c-0.205,0.196-0.467,0.358-0.787,0.486s-0.716,0.192-1.188,0.192c-0.504,0-0.93-0.068-1.278-0.204
					c-0.348-0.136-0.636-0.31-0.864-0.522c-0.228-0.212-0.406-0.446-0.533-0.702c-0.129-0.256-0.223-0.504-0.282-0.744
					c-0.06-0.24-0.097-0.458-0.108-0.654c-0.012-0.196-0.018-0.342-0.018-0.438c0-0.136,0.008-0.314,0.023-0.534
					c0.017-0.22,0.057-0.452,0.121-0.696c0.063-0.244,0.159-0.49,0.287-0.738c0.128-0.248,0.303-0.472,0.522-0.672
					c0.22-0.2,0.493-0.362,0.821-0.486s0.729-0.186,1.201-0.186c0.607,0,1.094,0.106,1.457,0.318
					c0.364,0.212,0.645,0.478,0.84,0.798c0.196,0.32,0.328,0.67,0.396,1.05s0.109,0.734,0.126,1.062c0,0.048,0.002,0.098,0.006,0.15
					c0.004,0.052,0.007,0.102,0.007,0.15h-4.693c0,0.264,0.037,0.532,0.109,0.804c0.071,0.272,0.184,0.518,0.336,0.738
					c0.151,0.22,0.35,0.402,0.594,0.546c0.244,0.144,0.541,0.216,0.894,0.216c0.248,0,0.472-0.034,0.672-0.102
					s0.37-0.16,0.511-0.276c0.139-0.116,0.252-0.25,0.336-0.402c0.084-0.152,0.142-0.312,0.174-0.48H557.379z M556.322,118.797
					c-0.008-0.2-0.035-0.42-0.084-0.66c-0.047-0.24-0.134-0.462-0.258-0.666s-0.294-0.374-0.51-0.51
					c-0.216-0.136-0.496-0.204-0.84-0.204c-0.385,0-0.7,0.07-0.948,0.21s-0.442,0.314-0.582,0.522s-0.233,0.43-0.282,0.666
					c-0.048,0.236-0.072,0.45-0.072,0.642H556.322z"/>
				<path fill="#585A5E" d="M562.227,116.757c-0.359,0.016-0.678,0.064-0.953,0.144c-0.276,0.08-0.512,0.204-0.709,0.372
					c-0.195,0.168-0.352,0.384-0.467,0.648c-0.117,0.264-0.187,0.588-0.211,0.972c-0.008,0.112-0.012,0.22-0.012,0.324
					s0,0.212,0,0.324v2.808h-1.057v-6.096h1.057v1.176h0.023c0.072-0.224,0.179-0.422,0.318-0.594
					c0.141-0.172,0.301-0.316,0.48-0.432c0.18-0.116,0.373-0.206,0.582-0.27c0.207-0.064,0.42-0.1,0.636-0.108l0.312-0.012V116.757z
					"/>
				<path fill="#585A5E" d="M563.57,120.537c0.009,0.24,0.061,0.444,0.155,0.612s0.22,0.304,0.375,0.408s0.329,0.178,0.524,0.222
					c0.193,0.044,0.391,0.066,0.589,0.066c0.349,0,0.619-0.048,0.81-0.144c0.191-0.096,0.33-0.208,0.417-0.336
					s0.137-0.256,0.149-0.384c0.012-0.128,0.018-0.224,0.018-0.288c0-0.096-0.01-0.19-0.03-0.282
					c-0.021-0.092-0.073-0.18-0.161-0.264s-0.217-0.164-0.387-0.24c-0.172-0.076-0.404-0.15-0.698-0.222l-0.644-0.144
					c-0.255-0.056-0.498-0.12-0.729-0.192s-0.433-0.172-0.607-0.3c-0.176-0.128-0.314-0.294-0.418-0.498
					c-0.104-0.204-0.154-0.466-0.154-0.786c0-0.336,0.067-0.618,0.203-0.846c0.137-0.228,0.316-0.408,0.541-0.54
					c0.224-0.132,0.472-0.226,0.744-0.282c0.271-0.056,0.547-0.084,0.828-0.084c0.52,0,0.938,0.064,1.254,0.192
					c0.315,0.128,0.562,0.286,0.737,0.474s0.296,0.388,0.36,0.6c0.063,0.212,0.104,0.402,0.119,0.57h-1.008
					c-0.008-0.088-0.029-0.194-0.066-0.318c-0.035-0.124-0.104-0.244-0.205-0.36c-0.1-0.116-0.242-0.214-0.428-0.294
					c-0.185-0.08-0.43-0.12-0.734-0.12c-0.033,0-0.117,0.004-0.254,0.012c-0.137,0.008-0.279,0.042-0.428,0.102
					s-0.283,0.156-0.404,0.288c-0.119,0.132-0.18,0.318-0.18,0.558c0,0.216,0.046,0.388,0.139,0.516
					c0.092,0.128,0.217,0.228,0.373,0.3c0.156,0.072,0.336,0.13,0.541,0.174s0.416,0.09,0.633,0.138
					c0.312,0.072,0.602,0.146,0.865,0.222c0.266,0.076,0.496,0.176,0.693,0.3c0.196,0.124,0.349,0.286,0.457,0.486
					c0.108,0.2,0.162,0.456,0.162,0.768c0,0.32-0.056,0.59-0.168,0.81c-0.111,0.22-0.252,0.404-0.42,0.552
					c-0.168,0.148-0.354,0.262-0.558,0.342c-0.204,0.08-0.4,0.14-0.589,0.18c-0.188,0.04-0.352,0.064-0.491,0.072
					c-0.14,0.008-0.233,0.012-0.282,0.012c-0.456,0-0.85-0.054-1.182-0.162s-0.61-0.256-0.834-0.444
					c-0.225-0.188-0.393-0.406-0.504-0.654c-0.112-0.248-0.172-0.512-0.18-0.792H563.57z"/>
				<path fill="#585A5E" d="M568.994,113.949h1.057v1.104h-1.057V113.949z M570.051,116.252v6.096h-1.057v-6.096H570.051z"/>
				<path fill="#585A5E" d="M572.379,120.537c0.008,0.24,0.059,0.444,0.154,0.612s0.221,0.304,0.375,0.408s0.33,0.178,0.523,0.222
					c0.195,0.044,0.392,0.066,0.59,0.066c0.35,0,0.619-0.048,0.811-0.144c0.189-0.096,0.328-0.208,0.416-0.336
					s0.137-0.256,0.148-0.384c0.012-0.128,0.018-0.224,0.018-0.288c0-0.096-0.01-0.19-0.029-0.282
					c-0.02-0.092-0.074-0.18-0.161-0.264s-0.216-0.164-0.388-0.24c-0.171-0.076-0.403-0.15-0.697-0.222l-0.645-0.144
					c-0.254-0.056-0.496-0.12-0.727-0.192s-0.434-0.172-0.608-0.3s-0.313-0.294-0.417-0.498c-0.104-0.204-0.156-0.466-0.156-0.786
					c0-0.336,0.068-0.618,0.205-0.846c0.136-0.228,0.315-0.408,0.539-0.54c0.225-0.132,0.473-0.226,0.744-0.282
					c0.272-0.056,0.549-0.084,0.828-0.084c0.52,0,0.938,0.064,1.254,0.192s0.562,0.286,0.738,0.474s0.296,0.388,0.359,0.6
					c0.064,0.212,0.104,0.402,0.121,0.57h-1.008c-0.009-0.088-0.031-0.194-0.066-0.318c-0.037-0.124-0.105-0.244-0.205-0.36
					c-0.102-0.116-0.243-0.214-0.428-0.294c-0.186-0.08-0.431-0.12-0.736-0.12c-0.031,0-0.116,0.004-0.252,0.012
					c-0.137,0.008-0.279,0.042-0.428,0.102c-0.149,0.06-0.284,0.156-0.404,0.288c-0.121,0.132-0.182,0.318-0.182,0.558
					c0,0.216,0.047,0.388,0.139,0.516c0.093,0.128,0.217,0.228,0.373,0.3c0.156,0.072,0.338,0.13,0.542,0.174
					c0.205,0.044,0.415,0.09,0.632,0.138c0.313,0.072,0.602,0.146,0.867,0.222c0.265,0.076,0.495,0.176,0.691,0.3
					c0.197,0.124,0.35,0.286,0.458,0.486c0.108,0.2,0.163,0.456,0.163,0.768c0,0.32-0.057,0.59-0.168,0.81
					c-0.113,0.22-0.252,0.404-0.421,0.552c-0.168,0.148-0.354,0.262-0.558,0.342c-0.204,0.08-0.4,0.14-0.588,0.18
					c-0.188,0.04-0.353,0.064-0.492,0.072c-0.141,0.008-0.234,0.012-0.282,0.012c-0.456,0-0.851-0.054-1.182-0.162
					c-0.332-0.108-0.61-0.256-0.834-0.444c-0.224-0.188-0.392-0.406-0.505-0.654c-0.111-0.248-0.172-0.512-0.18-0.792H572.379z"/>
				<path fill="#585A5E" d="M578.211,116.252v-1.824h1.057v1.824h1.295v0.744h-1.295v3.876c0,0.112,0.001,0.218,0.006,0.318
					c0.004,0.1,0.023,0.19,0.06,0.27c0.036,0.08,0.098,0.142,0.187,0.186c0.088,0.044,0.215,0.066,0.383,0.066
					c0.112,0,0.225-0.01,0.336-0.03c0.112-0.02,0.221-0.046,0.324-0.078v0.744c-0.168,0.072-0.348,0.13-0.539,0.174
					c-0.192,0.044-0.381,0.066-0.564,0.066c-0.312,0-0.555-0.048-0.727-0.144c-0.172-0.096-0.295-0.218-0.371-0.366
					s-0.121-0.31-0.133-0.486s-0.018-0.344-0.018-0.504v-4.092h-1.092v-0.744H578.211z"/>
				<path fill="#585A5E" d="M581.463,118.053c0-0.2,0.033-0.42,0.102-0.66c0.068-0.24,0.196-0.462,0.385-0.666
					c0.188-0.204,0.451-0.374,0.791-0.51c0.34-0.136,0.778-0.204,1.314-0.204c0.248,0,0.514,0.024,0.798,0.072
					c0.284,0.048,0.548,0.144,0.792,0.288s0.446,0.35,0.606,0.618c0.159,0.268,0.235,0.626,0.228,1.074l-0.06,2.82
					c0,0.12,0.001,0.226,0.006,0.318c0.004,0.092,0.026,0.168,0.065,0.228c0.041,0.06,0.104,0.106,0.192,0.138
					c0.088,0.032,0.212,0.044,0.372,0.036v0.744c-0.072,0.016-0.143,0.028-0.21,0.036c-0.067,0.008-0.158,0.012-0.271,0.012
					c-0.144,0-0.277-0.01-0.401-0.03s-0.232-0.06-0.324-0.12s-0.168-0.148-0.228-0.264c-0.061-0.116-0.106-0.274-0.139-0.474
					c-0.104,0.192-0.232,0.356-0.384,0.492c-0.151,0.136-0.319,0.248-0.504,0.336c-0.185,0.088-0.378,0.152-0.582,0.192
					c-0.204,0.04-0.41,0.06-0.618,0.06c-0.641,0-1.158-0.146-1.554-0.438c-0.396-0.292-0.595-0.758-0.595-1.398
					c0-0.264,0.041-0.502,0.121-0.714s0.231-0.4,0.455-0.564c0.225-0.164,0.528-0.3,0.912-0.408c0.385-0.108,0.885-0.19,1.5-0.246
					c0.225-0.016,0.412-0.032,0.564-0.048c0.152-0.016,0.273-0.05,0.365-0.102c0.093-0.052,0.158-0.13,0.199-0.234
					c0.039-0.104,0.06-0.256,0.06-0.456c0-0.072-0.009-0.176-0.024-0.312c-0.016-0.136-0.068-0.271-0.156-0.408
					s-0.224-0.254-0.407-0.354c-0.185-0.1-0.444-0.15-0.78-0.15c-0.096,0-0.234,0.008-0.414,0.024s-0.357,0.066-0.533,0.15
					c-0.177,0.084-0.328,0.212-0.457,0.384c-0.128,0.172-0.188,0.418-0.18,0.738H581.463z M585.423,119.229
					c-0.079,0.064-0.163,0.11-0.25,0.138s-0.183,0.05-0.286,0.066s-0.221,0.03-0.352,0.042s-0.279,0.03-0.445,0.054
					c-0.23,0.04-0.451,0.078-0.662,0.114c-0.21,0.036-0.395,0.092-0.553,0.168c-0.159,0.076-0.284,0.186-0.375,0.33
					c-0.092,0.144-0.137,0.336-0.137,0.576c0,0.36,0.108,0.638,0.326,0.834c0.219,0.196,0.499,0.294,0.84,0.294
					c0.207,0,0.415-0.03,0.625-0.09c0.211-0.06,0.405-0.168,0.584-0.324c0.178-0.156,0.327-0.37,0.446-0.642s0.19-0.62,0.214-1.044
					L585.423,119.229z"/>
				<path fill="#585A5E" d="M589.358,116.252v0.852c0.208-0.304,0.487-0.562,0.84-0.774s0.769-0.318,1.248-0.318
					c0.399,0,0.729,0.062,0.99,0.186c0.26,0.124,0.464,0.29,0.612,0.498c0.147,0.208,0.252,0.45,0.312,0.726
					c0.06,0.276,0.091,0.566,0.091,0.87v4.056h-1.057v-3.732c0-0.16-0.006-0.348-0.018-0.564c-0.013-0.216-0.057-0.42-0.133-0.612
					c-0.076-0.192-0.201-0.354-0.377-0.486c-0.177-0.132-0.429-0.198-0.757-0.198c-0.144,0-0.315,0.024-0.517,0.072
					c-0.199,0.048-0.391,0.15-0.575,0.306c-0.185,0.156-0.341,0.384-0.468,0.684c-0.129,0.3-0.192,0.702-0.192,1.206v3.324h-1.056
					v-6.096H589.358z"/>
				<path fill="#585A5E" d="M600.459,120.177c-0.017,0.184-0.062,0.412-0.139,0.684s-0.208,0.536-0.396,0.792
					c-0.188,0.256-0.451,0.476-0.791,0.66c-0.34,0.184-0.782,0.276-1.326,0.276c-0.104,0-0.248-0.008-0.432-0.024
					c-0.185-0.016-0.389-0.056-0.612-0.12c-0.224-0.064-0.45-0.166-0.679-0.306c-0.228-0.14-0.434-0.332-0.617-0.576
					c-0.185-0.244-0.336-0.554-0.457-0.93c-0.119-0.376-0.18-0.836-0.18-1.38c0-0.352,0.041-0.72,0.121-1.104
					c0.079-0.384,0.227-0.734,0.443-1.05c0.216-0.316,0.512-0.576,0.888-0.78c0.376-0.204,0.86-0.306,1.452-0.306
					c0.432,0,0.809,0.058,1.128,0.174c0.319,0.116,0.589,0.274,0.804,0.474c0.217,0.2,0.387,0.428,0.51,0.684
					c0.125,0.256,0.203,0.528,0.234,0.816h-1.008c-0.057-0.336-0.156-0.6-0.3-0.792s-0.3-0.332-0.468-0.42s-0.334-0.142-0.498-0.162
					s-0.291-0.03-0.379-0.03c-0.328,0-0.607,0.066-0.84,0.198c-0.231,0.132-0.42,0.31-0.563,0.534s-0.248,0.488-0.312,0.792
					c-0.064,0.304-0.097,0.628-0.097,0.972c0,0.344,0.036,0.672,0.108,0.984s0.182,0.588,0.33,0.828
					c0.147,0.24,0.342,0.43,0.582,0.57s0.527,0.21,0.863,0.21c0.297,0,0.547-0.056,0.75-0.168c0.205-0.112,0.37-0.25,0.498-0.414
					c0.129-0.164,0.221-0.344,0.276-0.54c0.056-0.196,0.088-0.378,0.097-0.546H600.459z"/>
				<path fill="#585A5E" d="M607.154,120.584c-0.041,0.216-0.114,0.442-0.223,0.678c-0.107,0.236-0.264,0.452-0.467,0.648
					c-0.205,0.196-0.467,0.358-0.787,0.486s-0.716,0.192-1.188,0.192c-0.504,0-0.93-0.068-1.278-0.204
					c-0.348-0.136-0.636-0.31-0.864-0.522c-0.228-0.212-0.406-0.446-0.533-0.702c-0.129-0.256-0.223-0.504-0.282-0.744
					c-0.06-0.24-0.097-0.458-0.108-0.654c-0.012-0.196-0.018-0.342-0.018-0.438c0-0.136,0.008-0.314,0.023-0.534
					c0.017-0.22,0.057-0.452,0.121-0.696c0.063-0.244,0.159-0.49,0.287-0.738c0.128-0.248,0.303-0.472,0.522-0.672
					c0.22-0.2,0.493-0.362,0.821-0.486s0.729-0.186,1.201-0.186c0.607,0,1.094,0.106,1.457,0.318
					c0.364,0.212,0.645,0.478,0.84,0.798c0.196,0.32,0.328,0.67,0.396,1.05s0.109,0.734,0.126,1.062c0,0.048,0.002,0.098,0.006,0.15
					c0.004,0.052,0.007,0.102,0.007,0.15h-4.693c0,0.264,0.037,0.532,0.109,0.804c0.071,0.272,0.184,0.518,0.336,0.738
					c0.151,0.22,0.35,0.402,0.594,0.546c0.244,0.144,0.541,0.216,0.894,0.216c0.248,0,0.472-0.034,0.672-0.102
					s0.37-0.16,0.511-0.276c0.139-0.116,0.252-0.25,0.336-0.402c0.084-0.152,0.142-0.312,0.174-0.48H607.154z M606.098,118.797
					c-0.008-0.2-0.035-0.42-0.084-0.66c-0.047-0.24-0.134-0.462-0.258-0.666s-0.294-0.374-0.51-0.51
					c-0.216-0.136-0.496-0.204-0.84-0.204c-0.385,0-0.7,0.07-0.948,0.21s-0.442,0.314-0.582,0.522s-0.233,0.43-0.282,0.666
					c-0.048,0.236-0.072,0.45-0.072,0.642H606.098z"/>
				<path fill="#585A5E" d="M557.613,137.137c0.008,0.24,0.059,0.444,0.154,0.612s0.221,0.304,0.375,0.408s0.33,0.178,0.523,0.222
					c0.195,0.044,0.392,0.066,0.59,0.066c0.35,0,0.619-0.048,0.811-0.144c0.189-0.096,0.328-0.208,0.416-0.336
					s0.137-0.256,0.148-0.384c0.012-0.128,0.018-0.224,0.018-0.288c0-0.096-0.01-0.19-0.029-0.282
					c-0.02-0.092-0.074-0.18-0.161-0.264s-0.216-0.164-0.388-0.24c-0.171-0.076-0.403-0.15-0.697-0.222l-0.645-0.144
					c-0.254-0.056-0.496-0.12-0.727-0.192s-0.434-0.172-0.608-0.3s-0.313-0.294-0.417-0.498c-0.104-0.204-0.156-0.466-0.156-0.786
					c0-0.336,0.068-0.618,0.205-0.846c0.136-0.228,0.315-0.408,0.539-0.54c0.225-0.132,0.473-0.226,0.744-0.282
					c0.272-0.056,0.549-0.084,0.828-0.084c0.52,0,0.938,0.064,1.254,0.192s0.562,0.286,0.738,0.474s0.296,0.388,0.359,0.6
					c0.064,0.212,0.104,0.402,0.121,0.57h-1.008c-0.009-0.088-0.031-0.194-0.066-0.318c-0.037-0.124-0.105-0.244-0.205-0.36
					c-0.102-0.116-0.243-0.214-0.428-0.294c-0.186-0.08-0.431-0.12-0.736-0.12c-0.031,0-0.116,0.004-0.252,0.012
					c-0.137,0.008-0.279,0.042-0.428,0.102c-0.149,0.06-0.284,0.156-0.404,0.288c-0.121,0.132-0.182,0.318-0.182,0.558
					c0,0.216,0.047,0.388,0.139,0.516c0.093,0.128,0.217,0.228,0.373,0.3c0.156,0.072,0.338,0.13,0.542,0.174
					c0.205,0.044,0.415,0.09,0.632,0.138c0.313,0.072,0.602,0.146,0.867,0.222c0.265,0.076,0.495,0.176,0.691,0.3
					c0.197,0.124,0.35,0.286,0.458,0.486c0.108,0.2,0.163,0.456,0.163,0.768c0,0.32-0.057,0.59-0.168,0.81
					c-0.113,0.22-0.252,0.404-0.421,0.552c-0.168,0.148-0.354,0.262-0.558,0.342c-0.204,0.08-0.4,0.14-0.588,0.18
					c-0.188,0.04-0.353,0.064-0.492,0.072c-0.141,0.008-0.234,0.012-0.282,0.012c-0.456,0-0.851-0.054-1.182-0.162
					c-0.332-0.108-0.61-0.256-0.834-0.444c-0.224-0.188-0.392-0.406-0.505-0.654c-0.111-0.248-0.172-0.512-0.18-0.792H557.613z"/>
				<path fill="#585A5E" d="M568.461,137.185c-0.041,0.216-0.114,0.442-0.223,0.678c-0.107,0.236-0.264,0.452-0.467,0.648
					c-0.205,0.196-0.467,0.358-0.787,0.486s-0.716,0.192-1.188,0.192c-0.504,0-0.93-0.068-1.278-0.204
					c-0.348-0.136-0.636-0.31-0.864-0.522c-0.228-0.212-0.406-0.446-0.533-0.702c-0.129-0.256-0.223-0.504-0.282-0.744
					c-0.06-0.24-0.097-0.458-0.108-0.654c-0.012-0.196-0.018-0.342-0.018-0.438c0-0.136,0.008-0.314,0.023-0.534
					c0.017-0.22,0.057-0.452,0.121-0.696c0.063-0.244,0.159-0.49,0.287-0.738c0.128-0.248,0.303-0.472,0.522-0.672
					c0.22-0.2,0.493-0.362,0.821-0.486s0.729-0.186,1.201-0.186c0.607,0,1.094,0.106,1.457,0.318
					c0.364,0.212,0.645,0.478,0.84,0.798c0.196,0.32,0.328,0.67,0.396,1.05s0.109,0.734,0.126,1.062c0,0.048,0.002,0.098,0.006,0.15
					c0.004,0.052,0.007,0.102,0.007,0.15h-4.693c0,0.264,0.037,0.532,0.109,0.804c0.071,0.272,0.184,0.518,0.336,0.738
					c0.151,0.22,0.35,0.402,0.594,0.546c0.244,0.144,0.541,0.216,0.894,0.216c0.248,0,0.472-0.034,0.672-0.102
					s0.37-0.16,0.511-0.276c0.139-0.116,0.252-0.25,0.336-0.402c0.084-0.152,0.142-0.312,0.174-0.48H568.461z M567.404,135.397
					c-0.008-0.2-0.035-0.42-0.084-0.66c-0.047-0.24-0.134-0.462-0.258-0.666s-0.294-0.374-0.51-0.51
					c-0.216-0.136-0.496-0.204-0.84-0.204c-0.385,0-0.7,0.07-0.948,0.21s-0.442,0.314-0.582,0.522s-0.233,0.43-0.282,0.666
					c-0.048,0.236-0.072,0.45-0.072,0.642H567.404z"/>
				<path fill="#585A5E" d="M573.309,133.357c-0.359,0.016-0.678,0.064-0.954,0.144c-0.276,0.08-0.512,0.204-0.708,0.372
					c-0.195,0.168-0.352,0.384-0.468,0.648c-0.116,0.264-0.187,0.588-0.21,0.972c-0.008,0.112-0.012,0.22-0.012,0.324
					s0,0.212,0,0.324v2.808H569.9v-6.096h1.057v1.176h0.023c0.072-0.224,0.178-0.422,0.318-0.594c0.14-0.172,0.3-0.316,0.48-0.432
					c0.18-0.116,0.373-0.206,0.582-0.27c0.207-0.064,0.42-0.1,0.635-0.108l0.312-0.012V133.357z"/>
				<path fill="#585A5E" d="M578.301,132.853h1.128l-2.256,6.096h-1.2l-2.256-6.096h1.128l1.728,5.04L578.301,132.853z"/>
				<path fill="#585A5E" d="M580.244,130.549h1.057v1.104h-1.057V130.549z M581.301,132.853v6.096h-1.057v-6.096H581.301z"/>
				<path fill="#585A5E" d="M588.285,136.777c-0.017,0.184-0.062,0.412-0.139,0.684s-0.208,0.536-0.396,0.792
					c-0.188,0.256-0.451,0.476-0.791,0.66c-0.34,0.184-0.782,0.276-1.326,0.276c-0.104,0-0.248-0.008-0.432-0.024
					c-0.185-0.016-0.389-0.056-0.612-0.12c-0.224-0.064-0.45-0.166-0.679-0.306c-0.228-0.14-0.434-0.332-0.617-0.576
					c-0.185-0.244-0.336-0.554-0.457-0.93c-0.119-0.376-0.18-0.836-0.18-1.38c0-0.352,0.041-0.72,0.121-1.104
					c0.079-0.384,0.227-0.734,0.443-1.05c0.216-0.316,0.512-0.576,0.888-0.78c0.376-0.204,0.86-0.306,1.452-0.306
					c0.432,0,0.809,0.058,1.128,0.174c0.319,0.116,0.589,0.274,0.804,0.474c0.217,0.2,0.387,0.428,0.51,0.684
					c0.125,0.256,0.203,0.528,0.234,0.816h-1.008c-0.057-0.336-0.156-0.6-0.3-0.792s-0.3-0.332-0.468-0.42s-0.334-0.142-0.498-0.162
					s-0.291-0.03-0.379-0.03c-0.328,0-0.607,0.066-0.84,0.198c-0.231,0.132-0.42,0.31-0.563,0.534s-0.248,0.488-0.312,0.792
					c-0.064,0.304-0.097,0.628-0.097,0.972c0,0.344,0.036,0.672,0.108,0.984s0.182,0.588,0.33,0.828
					c0.147,0.24,0.342,0.43,0.582,0.57s0.527,0.21,0.863,0.21c0.297,0,0.547-0.056,0.75-0.168c0.205-0.112,0.37-0.25,0.498-0.414
					c0.129-0.164,0.221-0.344,0.276-0.54c0.056-0.196,0.088-0.378,0.097-0.546H588.285z"/>
				<path fill="#585A5E" d="M594.98,137.185c-0.041,0.216-0.114,0.442-0.223,0.678c-0.107,0.236-0.264,0.452-0.467,0.648
					c-0.205,0.196-0.467,0.358-0.787,0.486s-0.716,0.192-1.188,0.192c-0.504,0-0.93-0.068-1.278-0.204
					c-0.348-0.136-0.636-0.31-0.864-0.522c-0.228-0.212-0.406-0.446-0.533-0.702c-0.129-0.256-0.223-0.504-0.282-0.744
					c-0.06-0.24-0.097-0.458-0.108-0.654c-0.012-0.196-0.018-0.342-0.018-0.438c0-0.136,0.008-0.314,0.023-0.534
					c0.017-0.22,0.057-0.452,0.121-0.696c0.063-0.244,0.159-0.49,0.287-0.738c0.128-0.248,0.303-0.472,0.522-0.672
					c0.22-0.2,0.493-0.362,0.821-0.486s0.729-0.186,1.201-0.186c0.607,0,1.094,0.106,1.457,0.318
					c0.364,0.212,0.645,0.478,0.84,0.798c0.196,0.32,0.328,0.67,0.396,1.05s0.109,0.734,0.126,1.062c0,0.048,0.002,0.098,0.006,0.15
					c0.004,0.052,0.007,0.102,0.007,0.15h-4.693c0,0.264,0.037,0.532,0.109,0.804c0.071,0.272,0.184,0.518,0.336,0.738
					c0.151,0.22,0.35,0.402,0.594,0.546c0.244,0.144,0.541,0.216,0.894,0.216c0.248,0,0.472-0.034,0.672-0.102
					s0.37-0.16,0.511-0.276c0.139-0.116,0.252-0.25,0.336-0.402c0.084-0.152,0.142-0.312,0.174-0.48H594.98z M593.924,135.397
					c-0.008-0.2-0.035-0.42-0.084-0.66c-0.047-0.24-0.134-0.462-0.258-0.666s-0.294-0.374-0.51-0.51
					c-0.216-0.136-0.496-0.204-0.84-0.204c-0.385,0-0.7,0.07-0.948,0.21s-0.442,0.314-0.582,0.522s-0.233,0.43-0.282,0.666
					c-0.048,0.236-0.072,0.45-0.072,0.642H593.924z"/>
			</g>
		</g>
		<g>
			<g>
				<g>
					<g>
						
							<line fill="none" stroke="#585A5E" stroke-width="1.1" stroke-miterlimit="10" x1="438.81" y1="105.043" x2="513.053" y2="105.043"/>
						<g>
							<polygon fill="#585A5E" points="512.234,107.84 517.079,105.043 512.234,102.246 							"/>
						</g>
					</g>
				</g>
				<g>
					<g>
						
							<line fill="none" stroke="#585A5E" stroke-width="1.1" stroke-miterlimit="10" x1="517.079" y1="114.543" x2="442.836" y2="114.543"/>
						<g>
							<polygon fill="#585A5E" points="443.654,111.746 438.81,114.543 443.654,117.34 							"/>
						</g>
					</g>
				</g>
			</g>
		</g>
		<path fill-rule="evenodd" clip-rule="evenodd" fill="#585A5E" d="M356.858,80.857c7.663-0.002,15.328-0.007,22.989,0.004
			c0.914,0.002,1.852-0.028,2.734,0.16c2.68,0.569,3.553,3.037,1.695,5.058c-2.365,2.573-4.9,4.989-7.371,7.465
			c-3.41,3.42-6.922,6.747-10.185,10.302c-0.954,1.04-1.68,2.712-1.706,4.11c-0.157,8.327-0.074,16.658-0.086,24.987
			c-0.002,0.913,0.041,1.862-0.181,2.731c-0.688,2.696-3.078,3.512-5.093,1.623c-3.4-3.187-6.735-6.456-9.906-9.868
			c-0.796-0.857-1.179-2.383-1.21-3.616c-0.13-5.245,0.062-10.499-0.138-15.739c-0.054-1.399-0.746-3.082-1.713-4.089
			c-5.475-5.707-11.124-11.247-16.713-16.845c-1.196-1.199-2.418-2.388-1.581-4.333c0.825-1.917,2.544-1.939,4.224-1.943
			C340.699,80.848,348.778,80.859,356.858,80.857z"/>
	</g>
</g>
<g id="pass-through-messaging" display="none">
	
		<rect x="0.075" y="22.209" display="inline" fill="none" stroke="#A6A8AB" stroke-width="0.15" stroke-miterlimit="10" width="756.001" height="192.502"/>
	<g display="inline">
		<g>
			<g>
				<g>
					<g id="hVCAm4_23_">
						<g>
							<path fill-rule="evenodd" clip-rule="evenodd" fill="#585A5E" d="M132.062,129.767c0.152-0.213,0.444-0.432,0.436-0.639
								c-0.249-5.546,2.993-7.987,7.875-9.255c1.987-0.516,3.899-1.515,5.688-2.562c4.669-2.735,5.229-4.907,2.69-9.55
								c-2.778-5.079-2.292-10.461-1.206-15.788c0.247-1.214,1.588-2.461,2.743-3.186c3.265-2.042,9.669-1.339,12.621,1.115
								c2.58,2.146,2.085,5.188,2.549,8.024c0.731,4.471-0.407,8.445-2.451,12.294c-1.133,2.132-0.485,3.903,1.2,5.307
								c1.239,1.031,2.627,1.926,4.06,2.67c1.441,0.753,2.971,1.446,4.546,1.815c4.621,1.083,7.543,3.559,7.78,8.583
								c0.029,0.582,0.438,1.146,0.672,1.719c0,0.363,0,0.729,0,1.093c-13.1,12.721-33.544,14.994-49.203,0
								C132.062,130.86,132.062,130.314,132.062,129.767z"/>
						</g>
					</g>
				</g>
				<path fill="none" stroke="#585A5E" stroke-width="1.363" stroke-miterlimit="10" d="M190.34,107.734
					c0,9.077-3.536,17.329-9.305,23.452c-6.238,6.621-15.087,10.756-24.902,10.756c-9.445,0-17.997-3.83-24.187-10.02
					c-6.191-6.188-10.02-14.741-10.02-24.188c0-18.891,15.314-34.205,34.206-34.205C175.026,73.529,190.34,88.844,190.34,107.734z"
					/>
			</g>
			<g>
				<text transform="matrix(1 0 0 1 198.6982 99.0527)" fill="#585A5E" font-family="'Calibre-Medium'" font-size="14">Request</text>
			</g>
			<g>
				<g>
					<g>
						
							<line fill="none" stroke="#585A5E" stroke-width="1.1" stroke-miterlimit="10" x1="190.107" y1="104.271" x2="250.604" y2="104.271"/>
						<g>
							<polygon fill="#585A5E" points="249.786,107.068 254.63,104.271 249.786,101.473 							"/>
						</g>
					</g>
				</g>
			</g>
			<g>
				<g>
					<rect x="253.718" y="83.898" fill="#DCDCDD" width="84.395" height="40.568"/>
				</g>
				<g>
					<text transform="matrix(1 0 0 1 270.8701 108.6401)" fill="#585A5E" font-family="'Pragmatica'" font-size="12">Service 1</text>
				</g>
			</g>
			<g>
				<g>
					<g>
						
							<line fill="none" stroke="#585A5E" stroke-width="1.1" stroke-miterlimit="10" x1="339.059" y1="104.271" x2="399.557" y2="104.271"/>
						<g>
							<polygon fill="#585A5E" points="398.737,107.068 403.582,104.271 398.737,101.473 							"/>
						</g>
					</g>
				</g>
			</g>
			<g>
				<g>
					<rect x="402.67" y="83.898" fill="#DCDCDD" width="84.395" height="40.568"/>
				</g>
				<g>
					<text transform="matrix(1 0 0 1 420.1025 100.6338)" fill="#585A5E" font-family="'Pragmatica'" font-size="12">message</text>
				</g>
				<g>
					<text transform="matrix(1 0 0 1 417.3418 113.4341)" fill="#585A5E" font-family="'Pragmatica'" font-size="12">processor</text>
				</g>
				<g>
					<text transform="matrix(1 0 0 1 375.4473 164.7114)" fill="#585A5E" font-family="'Pragmatica'" font-size="11">pass-through message flow</text>
				</g>
			</g>
			<g>
				<g>
					<g>
						
							<line fill="none" stroke="#585A5E" stroke-width="1.1" stroke-miterlimit="10" x1="486.224" y1="104.271" x2="546.721" y2="104.271"/>
						<g>
							<polygon fill="#585A5E" points="545.902,107.068 550.747,104.271 545.902,101.473 							"/>
						</g>
					</g>
				</g>
			</g>
			<g>
				<g>
					<rect x="549.835" y="83.898" fill="#DCDCDD" width="84.395" height="40.568"/>
				</g>
				<g>
					<text transform="matrix(1 0 0 1 566.9844 108.6401)" fill="#585A5E" font-family="'Pragmatica'" font-size="12">Service 2</text>
				</g>
			</g>
		</g>
		<polyline fill="none" stroke="#585A5E" stroke-miterlimit="10" stroke-dasharray="2" points="592.328,123.68 592.328,150.569 
			298.275,150.569 298.275,123.68 		"/>
	</g>
</g>
</svg>
