<?xml version="1.0" encoding="utf-8"?>
<!-- Generator: Adobe Illustrator 16.0.0, SVG Export Plug-In . SVG Version: 6.00 Build 0)  -->
<!DOCTYPE svg PUBLIC "-//W3C//DTD SVG 1.1//EN" "http://www.w3.org/Graphics/SVG/1.1/DTD/svg11.dtd">
<svg version="1.1" id="Layer_1" xmlns="http://www.w3.org/2000/svg" xmlns:xlink="http://www.w3.org/1999/xlink" x="0px" y="0px"
	 width="756.151px" height="192.653px" viewBox="0 0 756.151 192.653" enable-background="new 0 0 756.151 192.653"
	 xml:space="preserve">
<g>
	
		<rect x="0.075" y="0.075" fill="none" stroke="#A6A8AB" stroke-width="0.15" stroke-miterlimit="10" width="756.001" height="192.502"/>
	<g>
		<g>
			<g>
				<g>
					<g id="hVCAm4_23_">
						<g>
							<path fill-rule="evenodd" clip-rule="evenodd" fill="#585A5E" d="M132.062,107.633c0.152-0.213,0.444-0.432,0.436-0.639
								c-0.249-5.546,2.993-7.987,7.875-9.255c1.987-0.516,3.899-1.515,5.688-2.562c4.669-2.735,5.229-4.907,2.69-9.55
								c-2.778-5.079-2.292-10.461-1.206-15.788c0.247-1.214,1.588-2.461,2.743-3.186c3.265-2.042,9.669-1.339,12.621,1.115
								c2.58,2.146,2.085,5.188,2.549,8.024c0.731,4.471-0.407,8.445-2.451,12.294c-1.133,2.132-0.485,3.903,1.2,5.307
								c1.239,1.031,2.627,1.926,4.06,2.67c1.441,0.753,2.971,1.446,4.546,1.815c4.621,1.083,7.543,3.559,7.78,8.583
								c0.029,0.582,0.438,1.146,0.672,1.719c0,0.363,0,0.729,0,1.093c-13.1,12.721-33.544,14.994-49.203,0
								C132.062,108.727,132.062,108.181,132.062,107.633z"/>
						</g>
					</g>
				</g>
				<path fill="none" stroke="#585A5E" stroke-width="1.363" stroke-miterlimit="10" d="M190.34,85.601
					c0,9.077-3.536,17.329-9.305,23.452c-6.238,6.621-15.087,10.756-24.902,10.756c-9.445,0-17.997-3.83-24.187-10.02
					c-6.191-6.188-10.02-14.741-10.02-24.188c0-18.891,15.314-34.205,34.206-34.205C175.026,51.396,190.34,66.71,190.34,85.601z"/>
			</g>
			<g>
				<g>
					<path fill="#585A5E" d="M202.142,73.433h-1.035v3.486h-1.456v-8.596h3.317c0.905,0,1.619,0.222,2.143,0.665
						c0.522,0.443,0.783,1.081,0.783,1.911c0,0.709-0.193,1.272-0.58,1.687c-0.388,0.416-0.927,0.679-1.617,0.791l2.492,3.542
						h-1.652L202.142,73.433z M201.106,69.583v2.632h1.834c0.476,0,0.847-0.119,1.112-0.357c0.267-0.238,0.399-0.558,0.399-0.959
						s-0.133-0.721-0.399-0.959c-0.266-0.238-0.637-0.357-1.112-0.357H201.106z"/>
					<path fill="#585A5E" d="M211.172,74.987h1.288c-0.112,0.635-0.395,1.139-0.847,1.512c-0.453,0.374-1.043,0.56-1.771,0.56
						c-0.868,0-1.575-0.299-2.121-0.896s-0.818-1.377-0.818-2.338c0-0.933,0.274-1.71,0.825-2.331s1.246-0.931,2.087-0.931
						c0.858,0,1.523,0.278,1.994,0.833c0.472,0.555,0.707,1.3,0.707,2.233v0.504h-4.241c0.019,0.542,0.17,0.969,0.455,1.281
						c0.284,0.312,0.655,0.469,1.112,0.469C210.579,75.883,211.022,75.584,211.172,74.987z M209.828,71.739
						c-0.393,0-0.721,0.119-0.987,0.357c-0.266,0.238-0.44,0.577-0.524,1.015h2.813c-0.009-0.401-0.126-0.73-0.35-0.987
						C210.556,71.867,210.238,71.739,209.828,71.739z"/>
					<path fill="#585A5E" d="M217.836,79.299v-2.912c-0.149,0.187-0.369,0.346-0.658,0.476c-0.289,0.131-0.598,0.196-0.924,0.196
						c-0.878,0-1.577-0.315-2.101-0.945c-0.522-0.63-0.783-1.397-0.783-2.303s0.261-1.673,0.783-2.303
						c0.523-0.63,1.223-0.945,2.101-0.945c0.326,0,0.635,0.065,0.924,0.196c0.289,0.131,0.509,0.29,0.658,0.476v-0.532h1.399v8.596
						H217.836z M217.836,74.987v-2.352c-0.121-0.242-0.304-0.441-0.546-0.595c-0.243-0.154-0.509-0.231-0.798-0.231
						c-0.532,0-0.952,0.187-1.261,0.56c-0.308,0.373-0.462,0.854-0.462,1.442s0.154,1.069,0.462,1.442
						c0.309,0.374,0.729,0.56,1.261,0.56c0.289,0,0.555-0.077,0.798-0.231C217.532,75.428,217.715,75.23,217.836,74.987z"/>
					<path fill="#585A5E" d="M226.138,70.703v6.216h-1.4v-0.588c-0.42,0.485-0.975,0.728-1.666,0.728c-0.69,0-1.227-0.21-1.609-0.63
						c-0.383-0.42-0.574-0.98-0.574-1.68v-4.046h1.4v3.808c0,0.85,0.387,1.274,1.162,1.274c0.308,0,0.58-0.091,0.818-0.273
						c0.238-0.182,0.395-0.422,0.469-0.721v-4.088H226.138z"/>
					<path fill="#585A5E" d="M231.71,74.987h1.288c-0.112,0.635-0.395,1.139-0.848,1.512c-0.452,0.374-1.043,0.56-1.771,0.56
						c-0.868,0-1.575-0.299-2.121-0.896s-0.819-1.377-0.819-2.338c0-0.933,0.275-1.71,0.826-2.331s1.246-0.931,2.086-0.931
						c0.858,0,1.523,0.278,1.995,0.833c0.471,0.555,0.707,1.3,0.707,2.233v0.504h-4.242c0.019,0.542,0.17,0.969,0.455,1.281
						c0.284,0.312,0.655,0.469,1.113,0.469C231.117,75.883,231.561,75.584,231.71,74.987z M230.365,71.739
						c-0.392,0-0.721,0.119-0.986,0.357c-0.267,0.238-0.441,0.577-0.525,1.015h2.814c-0.01-0.401-0.126-0.73-0.351-0.987
						C231.094,71.867,230.776,71.739,230.365,71.739z"/>
					<path fill="#585A5E" d="M233.907,75.127h1.428c0.159,0.523,0.569,0.784,1.232,0.784c0.326,0,0.586-0.063,0.777-0.189
						c0.19-0.126,0.287-0.311,0.287-0.553c0-0.168-0.057-0.301-0.168-0.399c-0.112-0.098-0.299-0.18-0.561-0.245l-1.288-0.308
						c-1.026-0.243-1.54-0.812-1.54-1.708c0-0.56,0.222-1.024,0.665-1.393c0.443-0.368,1.006-0.553,1.688-0.553
						c0.709,0,1.273,0.161,1.693,0.483c0.42,0.322,0.687,0.772,0.798,1.351h-1.371c-0.141-0.457-0.519-0.686-1.135-0.686
						c-0.271,0-0.504,0.061-0.699,0.182c-0.196,0.121-0.295,0.299-0.295,0.532c0,0.271,0.215,0.462,0.645,0.574l1.315,0.308
						c1.064,0.252,1.597,0.84,1.597,1.764c0,0.607-0.227,1.09-0.679,1.449c-0.453,0.359-1.034,0.539-1.743,0.539
						c-0.729,0-1.328-0.173-1.8-0.518C234.283,76.196,234.001,75.724,233.907,75.127z"/>
					<path fill="#585A5E" d="M240.669,75.239v-3.374h-0.979v-1.162h0.979v-1.666h1.4v1.666h1.4v1.162h-1.4v3.22
						c0,0.485,0.247,0.728,0.742,0.728c0.298,0,0.564-0.084,0.798-0.252v1.274c-0.252,0.149-0.603,0.224-1.05,0.224
						c-0.579,0-1.039-0.154-1.379-0.462C240.84,76.289,240.669,75.836,240.669,75.239z"/>
				</g>
			</g>
			<g>
				<g>
					<g>
						
							<line fill="none" stroke="#585A5E" stroke-width="1.1" stroke-miterlimit="10" x1="190.107" y1="82.137" x2="250.604" y2="82.137"/>
						<g>
							<polygon fill="#585A5E" points="249.786,84.934 254.631,82.137 249.786,79.339 							"/>
						</g>
					</g>
				</g>
			</g>
			<g>
				<g>
					<rect x="253.719" y="61.765" fill="#DCDCDD" width="84.395" height="40.568"/>
				</g>
				<g>
					<g>
						<path fill="#585A5E" d="M272.388,83.842c-0.008,0.28,0.04,0.54,0.145,0.78c0.104,0.24,0.26,0.448,0.468,0.624
							s0.462,0.313,0.762,0.414c0.3,0.1,0.643,0.149,1.026,0.149c0.376,0,0.693-0.044,0.954-0.132
							c0.26-0.088,0.472-0.204,0.636-0.348c0.164-0.145,0.284-0.311,0.36-0.498c0.075-0.188,0.113-0.382,0.113-0.582
							c0-0.256-0.052-0.47-0.155-0.643c-0.104-0.172-0.236-0.312-0.396-0.42c-0.16-0.107-0.342-0.193-0.546-0.258
							c-0.204-0.063-0.402-0.115-0.594-0.156c-0.48-0.104-0.938-0.201-1.374-0.294c-0.437-0.092-0.82-0.222-1.152-0.39
							s-0.596-0.394-0.792-0.678s-0.294-0.666-0.294-1.146c0-0.392,0.076-0.739,0.229-1.044c0.151-0.304,0.367-0.556,0.647-0.756
							s0.616-0.352,1.008-0.456c0.393-0.104,0.824-0.156,1.296-0.156c0.521,0,0.971,0.066,1.351,0.198s0.696,0.311,0.948,0.534
							s0.443,0.484,0.575,0.78c0.133,0.296,0.21,0.604,0.234,0.924h-1.128c-0.04-0.344-0.143-0.616-0.306-0.816
							c-0.164-0.199-0.351-0.35-0.559-0.45c-0.208-0.1-0.42-0.161-0.636-0.186s-0.388-0.036-0.516-0.036
							c-0.585,0-1.055,0.126-1.41,0.378c-0.356,0.252-0.534,0.594-0.534,1.026c0,0.256,0.058,0.462,0.174,0.618
							c0.116,0.155,0.271,0.284,0.462,0.384c0.192,0.1,0.414,0.178,0.666,0.233c0.252,0.057,0.518,0.112,0.798,0.168
							c0.376,0.072,0.754,0.154,1.135,0.246c0.38,0.093,0.724,0.23,1.031,0.414c0.309,0.185,0.559,0.431,0.75,0.738
							c0.192,0.309,0.288,0.714,0.288,1.218c0,0.416-0.065,0.769-0.198,1.057c-0.132,0.288-0.302,0.525-0.51,0.714
							c-0.208,0.188-0.439,0.334-0.695,0.438c-0.257,0.104-0.507,0.181-0.75,0.229c-0.244,0.048-0.473,0.076-0.685,0.084
							s-0.374,0.012-0.486,0.012c-0.296,0-0.638-0.028-1.025-0.084c-0.389-0.056-0.758-0.182-1.11-0.378
							c-0.352-0.196-0.654-0.488-0.906-0.876s-0.394-0.914-0.426-1.578H272.388z"/>
						<path fill="#585A5E" d="M284.856,84.743c-0.041,0.216-0.114,0.441-0.223,0.678c-0.107,0.236-0.264,0.452-0.468,0.647
							c-0.204,0.196-0.466,0.358-0.786,0.486s-0.716,0.192-1.188,0.192c-0.504,0-0.931-0.068-1.278-0.204s-0.636-0.311-0.864-0.522
							c-0.228-0.212-0.406-0.445-0.534-0.702c-0.128-0.256-0.222-0.504-0.281-0.743c-0.061-0.24-0.097-0.458-0.108-0.654
							s-0.018-0.342-0.018-0.438c0-0.136,0.008-0.313,0.023-0.533c0.017-0.221,0.056-0.452,0.12-0.696s0.16-0.49,0.288-0.738
							s0.302-0.472,0.522-0.672c0.22-0.2,0.493-0.361,0.821-0.486c0.328-0.124,0.729-0.186,1.2-0.186
							c0.608,0,1.094,0.106,1.458,0.318s0.644,0.478,0.84,0.798c0.196,0.319,0.328,0.67,0.396,1.05
							c0.067,0.38,0.109,0.734,0.126,1.062c0,0.049,0.002,0.099,0.006,0.15s0.006,0.102,0.006,0.15h-4.692
							c0,0.264,0.036,0.532,0.108,0.804s0.184,0.518,0.336,0.738c0.152,0.22,0.35,0.401,0.594,0.546
							c0.244,0.144,0.542,0.216,0.895,0.216c0.248,0,0.472-0.034,0.672-0.103c0.2-0.067,0.37-0.159,0.51-0.275
							s0.252-0.25,0.336-0.402c0.084-0.151,0.143-0.312,0.174-0.479H284.856z M283.8,82.955c-0.008-0.2-0.036-0.42-0.084-0.66
							s-0.134-0.462-0.258-0.666s-0.294-0.374-0.51-0.51c-0.216-0.137-0.496-0.204-0.84-0.204c-0.385,0-0.7,0.07-0.948,0.21
							s-0.442,0.313-0.582,0.521c-0.141,0.208-0.234,0.431-0.282,0.666c-0.048,0.236-0.072,0.45-0.072,0.643H283.8z"/>
						<path fill="#585A5E" d="M289.704,80.915c-0.36,0.016-0.678,0.063-0.954,0.144s-0.512,0.204-0.708,0.372
							s-0.353,0.384-0.468,0.648c-0.116,0.264-0.187,0.588-0.21,0.972c-0.009,0.112-0.013,0.22-0.013,0.324c0,0.104,0,0.212,0,0.324
							v2.808h-1.056v-6.096h1.056v1.176h0.024c0.072-0.224,0.178-0.422,0.318-0.594c0.14-0.172,0.3-0.316,0.479-0.433
							c0.18-0.115,0.374-0.206,0.582-0.27c0.208-0.064,0.42-0.101,0.636-0.108l0.312-0.012V80.915z"/>
						<path fill="#585A5E" d="M294.695,80.411h1.128l-2.256,6.096h-1.2l-2.256-6.096h1.128l1.729,5.04L294.695,80.411z"/>
						<path fill="#585A5E" d="M296.64,78.106h1.056v1.104h-1.056V78.106z M297.695,80.411v6.096h-1.056v-6.096H297.695z"/>
						<path fill="#585A5E" d="M304.68,84.334c-0.017,0.184-0.062,0.412-0.139,0.684c-0.076,0.272-0.208,0.536-0.396,0.792
							c-0.188,0.257-0.452,0.477-0.792,0.66s-0.782,0.276-1.326,0.276c-0.104,0-0.248-0.008-0.432-0.024
							c-0.185-0.016-0.389-0.056-0.612-0.12c-0.224-0.063-0.45-0.166-0.678-0.306c-0.229-0.14-0.435-0.332-0.618-0.576
							c-0.185-0.244-0.336-0.554-0.456-0.93s-0.18-0.836-0.18-1.38c0-0.353,0.04-0.721,0.12-1.104
							c0.079-0.384,0.228-0.733,0.443-1.05s0.512-0.576,0.888-0.78s0.86-0.306,1.452-0.306c0.433,0,0.809,0.058,1.128,0.174
							c0.32,0.116,0.589,0.274,0.805,0.474c0.216,0.2,0.386,0.429,0.51,0.685s0.202,0.528,0.234,0.815h-1.009
							c-0.056-0.336-0.155-0.6-0.3-0.792c-0.144-0.191-0.3-0.331-0.468-0.42c-0.168-0.088-0.334-0.142-0.498-0.161
							c-0.164-0.021-0.29-0.03-0.378-0.03c-0.328,0-0.608,0.065-0.84,0.198c-0.232,0.132-0.42,0.31-0.564,0.533
							c-0.144,0.225-0.248,0.488-0.312,0.792c-0.064,0.305-0.097,0.629-0.097,0.973s0.036,0.672,0.108,0.983
							c0.072,0.312,0.182,0.588,0.33,0.828c0.147,0.24,0.342,0.431,0.582,0.57s0.528,0.21,0.864,0.21
							c0.296,0,0.546-0.056,0.75-0.168s0.369-0.25,0.498-0.414c0.128-0.164,0.22-0.344,0.275-0.54s0.088-0.378,0.097-0.546H304.68z"
							/>
						<path fill="#585A5E" d="M311.375,84.743c-0.04,0.216-0.114,0.441-0.222,0.678c-0.108,0.236-0.265,0.452-0.468,0.647
							c-0.204,0.196-0.467,0.358-0.786,0.486c-0.32,0.128-0.717,0.192-1.188,0.192c-0.504,0-0.93-0.068-1.278-0.204
							c-0.348-0.136-0.636-0.311-0.863-0.522c-0.229-0.212-0.406-0.445-0.534-0.702c-0.128-0.256-0.222-0.504-0.282-0.743
							c-0.06-0.24-0.096-0.458-0.107-0.654c-0.013-0.196-0.019-0.342-0.019-0.438c0-0.136,0.008-0.313,0.024-0.533
							c0.016-0.221,0.056-0.452,0.12-0.696c0.063-0.244,0.159-0.49,0.288-0.738c0.127-0.248,0.302-0.472,0.521-0.672
							s0.494-0.361,0.822-0.486c0.328-0.124,0.728-0.186,1.2-0.186c0.607,0,1.094,0.106,1.458,0.318
							c0.363,0.212,0.644,0.478,0.84,0.798c0.195,0.319,0.328,0.67,0.396,1.05c0.068,0.38,0.11,0.734,0.126,1.062
							c0,0.049,0.002,0.099,0.006,0.15s0.007,0.102,0.007,0.15h-4.692c0,0.264,0.036,0.532,0.108,0.804
							c0.071,0.271,0.184,0.518,0.336,0.738c0.151,0.22,0.35,0.401,0.594,0.546c0.244,0.144,0.542,0.216,0.894,0.216
							c0.248,0,0.473-0.034,0.672-0.103c0.2-0.067,0.37-0.159,0.511-0.275c0.14-0.116,0.252-0.25,0.336-0.402
							c0.084-0.151,0.142-0.312,0.174-0.479H311.375z M310.319,82.955c-0.009-0.2-0.036-0.42-0.084-0.66s-0.135-0.462-0.258-0.666
							c-0.125-0.204-0.295-0.374-0.511-0.51c-0.216-0.137-0.496-0.204-0.84-0.204c-0.384,0-0.7,0.07-0.948,0.21
							s-0.441,0.313-0.582,0.521c-0.14,0.208-0.233,0.431-0.281,0.666c-0.049,0.236-0.072,0.45-0.072,0.643H310.319z"/>
						<path fill="#585A5E" d="M316.307,79.606h0.252c0.248,0,0.488-0.035,0.721-0.107c0.231-0.072,0.438-0.172,0.617-0.3
							c0.181-0.128,0.328-0.284,0.444-0.469c0.116-0.184,0.19-0.392,0.222-0.624h0.792v8.4h-1.128v-6.312h-1.92V79.606z"/>
					</g>
				</g>
			</g>
			<g>
				<g>
					<g>
						
							<line fill="none" stroke="#585A5E" stroke-width="1.1" stroke-miterlimit="10" x1="339.059" y1="82.137" x2="399.557" y2="82.137"/>
						<g>
							<polygon fill="#585A5E" points="398.737,84.934 403.582,82.137 398.737,79.339 							"/>
						</g>
					</g>
				</g>
			</g>
			<g>
				<g>
					<rect x="402.67" y="61.765" fill="#DCDCDD" width="84.395" height="40.568"/>
				</g>
				<g>
					<g>
						<path fill="#585A5E" d="M422.022,72.404v0.828l-0.012,0.071c0.079-0.176,0.188-0.334,0.323-0.474
							c0.137-0.14,0.288-0.26,0.456-0.36c0.168-0.1,0.347-0.176,0.534-0.228s0.378-0.078,0.57-0.078
							c0.264,0,0.496,0.038,0.695,0.114c0.2,0.076,0.37,0.176,0.511,0.3c0.14,0.124,0.254,0.264,0.342,0.42s0.151,0.314,0.192,0.474
							c0.056-0.12,0.14-0.254,0.252-0.401c0.111-0.148,0.252-0.29,0.42-0.427c0.168-0.136,0.369-0.249,0.605-0.342
							c0.236-0.092,0.514-0.138,0.834-0.138c0.464,0,0.828,0.094,1.092,0.282c0.265,0.188,0.46,0.41,0.589,0.666
							c0.127,0.256,0.205,0.52,0.233,0.792c0.028,0.271,0.042,0.492,0.042,0.66V78.5h-1.056v-3.864c0-0.16-0.011-0.34-0.03-0.54
							c-0.02-0.199-0.07-0.388-0.15-0.563c-0.079-0.176-0.197-0.324-0.354-0.444s-0.37-0.18-0.642-0.18
							c-0.177,0-0.36,0.028-0.553,0.084c-0.191,0.056-0.365,0.158-0.521,0.306c-0.156,0.148-0.284,0.349-0.384,0.601
							c-0.101,0.252-0.15,0.573-0.15,0.966V78.5h-1.056v-3.852c0-0.225-0.017-0.44-0.049-0.648c-0.031-0.208-0.092-0.392-0.18-0.552
							s-0.208-0.29-0.359-0.391c-0.152-0.1-0.349-0.149-0.589-0.149c-0.216,0-0.422,0.046-0.617,0.138
							c-0.196,0.092-0.368,0.222-0.517,0.39c-0.147,0.168-0.264,0.375-0.348,0.618c-0.084,0.244-0.126,0.515-0.126,0.811V78.5
							h-1.057v-6.096H422.022z"/>
						<path fill="#585A5E" d="M436.83,76.736c-0.04,0.216-0.114,0.441-0.222,0.678c-0.108,0.236-0.265,0.452-0.468,0.647
							c-0.204,0.196-0.467,0.358-0.786,0.486c-0.32,0.128-0.717,0.192-1.188,0.192c-0.504,0-0.93-0.068-1.278-0.204
							c-0.348-0.136-0.636-0.311-0.863-0.522c-0.229-0.212-0.406-0.445-0.534-0.702c-0.128-0.256-0.222-0.504-0.282-0.743
							c-0.06-0.24-0.096-0.458-0.107-0.654c-0.013-0.196-0.019-0.342-0.019-0.438c0-0.136,0.008-0.313,0.024-0.533
							c0.016-0.221,0.056-0.452,0.12-0.696c0.063-0.244,0.159-0.49,0.288-0.738c0.127-0.248,0.302-0.472,0.521-0.672
							s0.494-0.361,0.822-0.486c0.328-0.124,0.728-0.186,1.2-0.186c0.607,0,1.094,0.106,1.458,0.318
							c0.363,0.212,0.644,0.478,0.84,0.798c0.195,0.319,0.328,0.67,0.396,1.05c0.068,0.38,0.11,0.734,0.126,1.062
							c0,0.049,0.002,0.099,0.006,0.15s0.007,0.102,0.007,0.15h-4.692c0,0.264,0.036,0.532,0.108,0.804
							c0.071,0.271,0.184,0.518,0.336,0.738c0.151,0.22,0.35,0.401,0.594,0.546c0.244,0.144,0.542,0.216,0.894,0.216
							c0.248,0,0.473-0.034,0.672-0.103c0.2-0.067,0.37-0.159,0.511-0.275c0.14-0.116,0.252-0.25,0.336-0.402
							c0.084-0.151,0.142-0.312,0.174-0.479H436.83z M435.774,74.948c-0.009-0.2-0.036-0.42-0.084-0.66s-0.135-0.462-0.258-0.666
							c-0.125-0.204-0.295-0.374-0.511-0.51c-0.216-0.137-0.496-0.204-0.84-0.204c-0.384,0-0.7,0.07-0.948,0.21
							s-0.441,0.313-0.582,0.521c-0.14,0.208-0.233,0.431-0.281,0.666c-0.049,0.236-0.072,0.45-0.072,0.643H435.774z"/>
						<path fill="#585A5E" d="M438.894,76.688c0.009,0.239,0.06,0.443,0.155,0.611c0.095,0.168,0.22,0.305,0.375,0.408
							c0.154,0.104,0.329,0.178,0.523,0.222s0.392,0.066,0.59,0.066c0.349,0,0.619-0.048,0.81-0.145
							c0.19-0.096,0.329-0.207,0.417-0.336c0.087-0.128,0.137-0.256,0.148-0.384s0.018-0.224,0.018-0.288
							c0-0.096-0.01-0.189-0.029-0.282c-0.021-0.092-0.074-0.18-0.161-0.264c-0.088-0.084-0.217-0.164-0.388-0.24
							c-0.171-0.075-0.403-0.149-0.697-0.222l-0.645-0.144c-0.254-0.057-0.497-0.12-0.728-0.192s-0.433-0.172-0.607-0.3
							c-0.176-0.128-0.314-0.294-0.418-0.498s-0.155-0.466-0.155-0.786c0-0.336,0.068-0.618,0.204-0.846
							c0.137-0.229,0.316-0.408,0.54-0.54c0.225-0.132,0.473-0.227,0.744-0.282c0.272-0.056,0.548-0.084,0.828-0.084
							c0.52,0,0.938,0.064,1.254,0.192s0.562,0.286,0.738,0.474s0.296,0.388,0.359,0.6c0.064,0.212,0.104,0.402,0.12,0.57h-1.008
							c-0.008-0.088-0.03-0.194-0.066-0.318s-0.104-0.243-0.205-0.359s-0.242-0.214-0.428-0.294c-0.185-0.08-0.43-0.12-0.735-0.12
							c-0.032,0-0.116,0.004-0.253,0.012s-0.279,0.042-0.428,0.103c-0.148,0.06-0.283,0.155-0.404,0.287
							c-0.12,0.133-0.181,0.318-0.181,0.559c0,0.216,0.047,0.388,0.139,0.516c0.093,0.128,0.217,0.229,0.373,0.3
							c0.156,0.072,0.337,0.131,0.542,0.175s0.415,0.09,0.632,0.138c0.313,0.072,0.602,0.146,0.866,0.222
							c0.266,0.076,0.496,0.177,0.692,0.3c0.197,0.125,0.35,0.286,0.458,0.486s0.162,0.456,0.162,0.769
							c0,0.319-0.056,0.59-0.168,0.81s-0.252,0.404-0.42,0.552c-0.168,0.148-0.354,0.263-0.558,0.342
							c-0.204,0.08-0.4,0.141-0.589,0.181c-0.188,0.04-0.352,0.063-0.491,0.071c-0.141,0.009-0.234,0.013-0.282,0.013
							c-0.456,0-0.851-0.055-1.182-0.162c-0.332-0.108-0.61-0.256-0.834-0.444c-0.225-0.188-0.393-0.405-0.505-0.653
							c-0.111-0.248-0.172-0.513-0.18-0.792H438.894z"/>
						<path fill="#585A5E" d="M444.966,76.688c0.009,0.239,0.06,0.443,0.155,0.611c0.095,0.168,0.22,0.305,0.375,0.408
							c0.154,0.104,0.329,0.178,0.523,0.222s0.392,0.066,0.59,0.066c0.349,0,0.619-0.048,0.81-0.145
							c0.19-0.096,0.329-0.207,0.417-0.336c0.087-0.128,0.137-0.256,0.148-0.384s0.018-0.224,0.018-0.288
							c0-0.096-0.01-0.189-0.029-0.282c-0.021-0.092-0.074-0.18-0.161-0.264c-0.088-0.084-0.217-0.164-0.388-0.24
							c-0.171-0.075-0.403-0.149-0.697-0.222l-0.645-0.144c-0.254-0.057-0.497-0.12-0.728-0.192s-0.433-0.172-0.607-0.3
							c-0.176-0.128-0.314-0.294-0.418-0.498s-0.155-0.466-0.155-0.786c0-0.336,0.068-0.618,0.204-0.846
							c0.137-0.229,0.316-0.408,0.54-0.54c0.225-0.132,0.473-0.227,0.744-0.282c0.272-0.056,0.548-0.084,0.828-0.084
							c0.52,0,0.938,0.064,1.254,0.192s0.562,0.286,0.738,0.474s0.296,0.388,0.359,0.6c0.064,0.212,0.104,0.402,0.12,0.57h-1.008
							c-0.008-0.088-0.03-0.194-0.066-0.318s-0.104-0.243-0.205-0.359s-0.242-0.214-0.428-0.294c-0.185-0.08-0.43-0.12-0.735-0.12
							c-0.032,0-0.116,0.004-0.253,0.012s-0.279,0.042-0.428,0.103c-0.148,0.06-0.283,0.155-0.404,0.287
							c-0.12,0.133-0.181,0.318-0.181,0.559c0,0.216,0.047,0.388,0.139,0.516c0.093,0.128,0.217,0.229,0.373,0.3
							c0.156,0.072,0.337,0.131,0.542,0.175s0.415,0.09,0.632,0.138c0.313,0.072,0.602,0.146,0.866,0.222
							c0.266,0.076,0.496,0.177,0.692,0.3c0.197,0.125,0.35,0.286,0.458,0.486s0.162,0.456,0.162,0.769
							c0,0.319-0.056,0.59-0.168,0.81s-0.252,0.404-0.42,0.552c-0.168,0.148-0.354,0.263-0.558,0.342
							c-0.204,0.08-0.4,0.141-0.589,0.181c-0.188,0.04-0.352,0.063-0.491,0.071c-0.141,0.009-0.234,0.013-0.282,0.013
							c-0.456,0-0.851-0.055-1.182-0.162c-0.332-0.108-0.61-0.256-0.834-0.444c-0.225-0.188-0.393-0.405-0.505-0.653
							c-0.111-0.248-0.172-0.513-0.18-0.792H444.966z"/>
						<path fill="#585A5E" d="M450.21,74.204c0-0.2,0.034-0.42,0.103-0.66c0.067-0.24,0.195-0.462,0.384-0.666
							c0.188-0.204,0.451-0.374,0.792-0.51c0.34-0.136,0.777-0.204,1.313-0.204c0.248,0,0.515,0.024,0.798,0.072
							c0.284,0.048,0.548,0.144,0.792,0.288c0.244,0.144,0.446,0.35,0.606,0.617c0.16,0.269,0.236,0.626,0.228,1.074l-0.06,2.82
							c0,0.12,0.002,0.226,0.006,0.317c0.004,0.093,0.026,0.169,0.066,0.229s0.104,0.106,0.191,0.138
							c0.088,0.032,0.212,0.044,0.372,0.036V78.5c-0.071,0.016-0.142,0.028-0.21,0.036c-0.067,0.008-0.158,0.012-0.27,0.012
							c-0.145,0-0.278-0.01-0.402-0.03c-0.124-0.02-0.232-0.06-0.324-0.119c-0.092-0.061-0.168-0.148-0.228-0.265
							c-0.061-0.115-0.106-0.273-0.138-0.474c-0.104,0.191-0.232,0.355-0.385,0.492c-0.151,0.136-0.319,0.248-0.504,0.336
							c-0.184,0.088-0.378,0.151-0.582,0.191s-0.41,0.061-0.618,0.061c-0.64,0-1.157-0.146-1.554-0.438
							c-0.396-0.292-0.594-0.758-0.594-1.397c0-0.265,0.04-0.502,0.12-0.714s0.231-0.4,0.456-0.564
							c0.224-0.164,0.527-0.3,0.912-0.408c0.384-0.107,0.884-0.189,1.5-0.246c0.224-0.016,0.411-0.031,0.563-0.048
							c0.152-0.016,0.274-0.05,0.366-0.102s0.158-0.13,0.198-0.234c0.04-0.104,0.06-0.256,0.06-0.456
							c0-0.072-0.008-0.176-0.023-0.312c-0.017-0.137-0.068-0.272-0.156-0.408s-0.225-0.254-0.408-0.354
							c-0.185-0.1-0.444-0.149-0.78-0.149c-0.096,0-0.233,0.008-0.414,0.023c-0.18,0.017-0.357,0.066-0.533,0.15
							c-0.177,0.084-0.328,0.212-0.456,0.384c-0.129,0.172-0.188,0.418-0.181,0.738H450.21z M454.17,75.38
							c-0.079,0.064-0.163,0.11-0.25,0.138c-0.087,0.028-0.183,0.051-0.286,0.066c-0.103,0.017-0.22,0.03-0.351,0.042
							s-0.28,0.03-0.446,0.054c-0.23,0.04-0.451,0.078-0.661,0.114c-0.211,0.036-0.396,0.092-0.554,0.168
							c-0.159,0.076-0.284,0.187-0.375,0.33c-0.092,0.144-0.137,0.336-0.137,0.576c0,0.359,0.108,0.638,0.327,0.834
							c0.218,0.196,0.498,0.294,0.84,0.294c0.206,0,0.414-0.03,0.625-0.09c0.21-0.061,0.404-0.168,0.583-0.324
							s0.327-0.37,0.446-0.642c0.119-0.272,0.19-0.62,0.215-1.044L454.17,75.38z"/>
						<path fill="#585A5E" d="M458.178,79.188c0.048,0.177,0.128,0.322,0.24,0.436c0.111,0.113,0.241,0.204,0.39,0.272
							s0.308,0.115,0.48,0.14c0.172,0.023,0.338,0.036,0.498,0.036c0.416,0,0.735-0.085,0.96-0.253
							c0.224-0.169,0.39-0.362,0.498-0.579c0.107-0.218,0.172-0.431,0.191-0.639c0.021-0.209,0.03-0.354,0.03-0.435v-0.663
							c-0.144,0.232-0.284,0.426-0.42,0.582c-0.137,0.156-0.282,0.282-0.438,0.378c-0.155,0.096-0.323,0.166-0.504,0.21
							c-0.18,0.044-0.382,0.066-0.605,0.066c-0.36,0-0.706-0.064-1.038-0.192s-0.624-0.326-0.876-0.594s-0.454-0.612-0.606-1.032
							c-0.151-0.42-0.228-0.926-0.228-1.518c0-0.097,0.004-0.242,0.012-0.438c0.008-0.195,0.036-0.414,0.084-0.654
							c0.048-0.239,0.126-0.485,0.234-0.737c0.107-0.252,0.26-0.484,0.456-0.696c0.195-0.212,0.443-0.384,0.744-0.516
							c0.3-0.132,0.67-0.198,1.109-0.198c0.504,0,0.934,0.092,1.29,0.276c0.356,0.184,0.63,0.451,0.822,0.804h0.036v-0.84h0.983
							v5.939c0,0.393-0.054,0.725-0.162,0.996c-0.107,0.272-0.245,0.5-0.414,0.685c-0.168,0.184-0.357,0.327-0.569,0.432
							c-0.212,0.104-0.418,0.184-0.618,0.24c-0.2,0.056-0.388,0.09-0.564,0.102c-0.176,0.012-0.312,0.019-0.407,0.019
							c-0.145,0-0.345-0.009-0.601-0.024s-0.518-0.073-0.786-0.174c-0.268-0.1-0.516-0.259-0.743-0.479
							c-0.229-0.22-0.391-0.536-0.486-0.951H458.178z M459.737,77.996c0.097,0,0.244-0.026,0.444-0.078s0.4-0.168,0.601-0.348
							c0.199-0.181,0.376-0.442,0.527-0.786c0.152-0.344,0.229-0.812,0.229-1.404c0-0.768-0.16-1.372-0.48-1.812
							c-0.32-0.44-0.792-0.66-1.416-0.66c-0.296,0-0.546,0.05-0.75,0.149c-0.204,0.101-0.372,0.227-0.504,0.378
							c-0.132,0.152-0.232,0.324-0.3,0.517c-0.068,0.191-0.12,0.378-0.156,0.558c-0.036,0.181-0.056,0.349-0.06,0.504
							c-0.005,0.156-0.006,0.274-0.006,0.354c0,0.616,0.073,1.1,0.222,1.452c0.147,0.352,0.324,0.613,0.528,0.786
							c0.203,0.172,0.411,0.279,0.624,0.323C459.452,77.974,459.618,77.996,459.737,77.996z"/>
						<path fill="#585A5E" d="M469.65,76.736c-0.041,0.216-0.114,0.441-0.223,0.678c-0.107,0.236-0.264,0.452-0.468,0.647
							c-0.204,0.196-0.466,0.358-0.786,0.486s-0.716,0.192-1.188,0.192c-0.504,0-0.931-0.068-1.278-0.204s-0.636-0.311-0.864-0.522
							c-0.228-0.212-0.406-0.445-0.534-0.702c-0.128-0.256-0.222-0.504-0.281-0.743c-0.061-0.24-0.097-0.458-0.108-0.654
							s-0.018-0.342-0.018-0.438c0-0.136,0.008-0.313,0.023-0.533c0.017-0.221,0.056-0.452,0.12-0.696s0.16-0.49,0.288-0.738
							s0.302-0.472,0.522-0.672c0.22-0.2,0.493-0.361,0.821-0.486c0.328-0.124,0.729-0.186,1.2-0.186
							c0.608,0,1.094,0.106,1.458,0.318s0.644,0.478,0.84,0.798c0.196,0.319,0.328,0.67,0.396,1.05
							c0.067,0.38,0.109,0.734,0.126,1.062c0,0.049,0.002,0.099,0.006,0.15s0.006,0.102,0.006,0.15h-4.692
							c0,0.264,0.036,0.532,0.108,0.804s0.184,0.518,0.336,0.738c0.152,0.22,0.35,0.401,0.594,0.546
							c0.244,0.144,0.542,0.216,0.895,0.216c0.248,0,0.472-0.034,0.672-0.103c0.2-0.067,0.37-0.159,0.51-0.275
							s0.252-0.25,0.336-0.402c0.084-0.151,0.143-0.312,0.174-0.479H469.65z M468.594,74.948c-0.008-0.2-0.036-0.42-0.084-0.66
							s-0.134-0.462-0.258-0.666s-0.294-0.374-0.51-0.51c-0.216-0.137-0.496-0.204-0.84-0.204c-0.385,0-0.7,0.07-0.948,0.21
							s-0.442,0.313-0.582,0.521c-0.141,0.208-0.234,0.431-0.282,0.666c-0.048,0.236-0.072,0.45-0.072,0.643H468.594z"/>
					</g>
				</g>
				<g>
					<g>
						<path fill="#585A5E" d="M419.34,85.205v0.84h0.036c0.151-0.232,0.318-0.418,0.498-0.559c0.18-0.14,0.36-0.249,0.54-0.329
							s0.354-0.133,0.521-0.156c0.168-0.024,0.32-0.036,0.456-0.036c0.376,0,0.73,0.064,1.062,0.192s0.624,0.325,0.876,0.594
							c0.252,0.268,0.45,0.61,0.594,1.025c0.145,0.416,0.216,0.908,0.216,1.477c0,0.592-0.076,1.096-0.228,1.512
							c-0.152,0.416-0.356,0.756-0.612,1.021c-0.256,0.264-0.548,0.456-0.876,0.575c-0.328,0.12-0.664,0.181-1.008,0.181
							c-0.064,0-0.178-0.008-0.342-0.024c-0.164-0.016-0.347-0.062-0.546-0.138c-0.2-0.076-0.402-0.188-0.606-0.336
							c-0.204-0.148-0.374-0.354-0.51-0.618v3.096h-1.057v-8.315H419.34z M419.34,88.276c0,0.473,0.061,0.868,0.18,1.188
							c0.12,0.32,0.274,0.58,0.463,0.78c0.188,0.2,0.392,0.342,0.611,0.426s0.43,0.126,0.63,0.126c0.217,0,0.431-0.042,0.643-0.126
							s0.403-0.224,0.576-0.42c0.172-0.196,0.312-0.456,0.42-0.78c0.107-0.324,0.162-0.729,0.162-1.218
							c0-0.784-0.16-1.404-0.48-1.86s-0.78-0.684-1.38-0.684c-0.137,0-0.309,0.025-0.517,0.078c-0.208,0.052-0.407,0.166-0.6,0.342
							s-0.358,0.434-0.498,0.773C419.41,87.243,419.34,87.701,419.34,88.276z"/>
						<path fill="#585A5E" d="M428.928,85.708c-0.359,0.016-0.678,0.063-0.954,0.144c-0.275,0.08-0.512,0.204-0.708,0.372
							c-0.195,0.168-0.352,0.384-0.468,0.648c-0.116,0.264-0.186,0.588-0.21,0.972c-0.008,0.112-0.012,0.22-0.012,0.324
							c0,0.104,0,0.212,0,0.324V91.3h-1.057v-6.096h1.057v1.176h0.023c0.072-0.224,0.179-0.422,0.318-0.594s0.3-0.316,0.48-0.433
							c0.18-0.115,0.373-0.206,0.582-0.27c0.207-0.064,0.42-0.101,0.636-0.108l0.312-0.012V85.708z"/>
						<path fill="#585A5E" d="M429.3,88.252c0-0.408,0.052-0.808,0.156-1.2c0.104-0.392,0.273-0.742,0.51-1.05
							s0.546-0.559,0.93-0.75c0.385-0.192,0.853-0.288,1.404-0.288s1.021,0.096,1.404,0.288c0.384,0.191,0.693,0.442,0.93,0.75
							s0.406,0.658,0.51,1.05c0.104,0.393,0.156,0.792,0.156,1.2s-0.052,0.808-0.156,1.2c-0.104,0.392-0.273,0.742-0.51,1.05
							s-0.546,0.558-0.93,0.75c-0.384,0.191-0.853,0.288-1.404,0.288s-1.02-0.097-1.404-0.288c-0.384-0.192-0.693-0.442-0.93-0.75
							s-0.406-0.658-0.51-1.05C429.352,89.06,429.3,88.661,429.3,88.252z M430.416,88.252c0,0.605,0.076,1.079,0.228,1.421
							c0.152,0.343,0.332,0.598,0.54,0.765s0.416,0.269,0.624,0.305s0.372,0.054,0.492,0.054s0.284-0.018,0.492-0.054
							s0.416-0.138,0.624-0.305s0.388-0.422,0.54-0.765c0.151-0.342,0.228-0.815,0.228-1.421s-0.076-1.079-0.228-1.422
							c-0.152-0.342-0.332-0.597-0.54-0.764c-0.208-0.168-0.416-0.269-0.624-0.305s-0.372-0.054-0.492-0.054
							s-0.284,0.018-0.492,0.054s-0.416,0.137-0.624,0.305c-0.208,0.167-0.388,0.422-0.54,0.764
							C430.492,87.173,430.416,87.647,430.416,88.252z"/>
						<path fill="#585A5E" d="M441.96,89.128c-0.017,0.184-0.062,0.412-0.139,0.684c-0.076,0.272-0.208,0.536-0.396,0.792
							c-0.188,0.257-0.452,0.477-0.792,0.66s-0.782,0.276-1.326,0.276c-0.104,0-0.248-0.008-0.432-0.024
							c-0.185-0.016-0.389-0.056-0.612-0.12c-0.224-0.063-0.45-0.166-0.678-0.306c-0.229-0.14-0.435-0.332-0.618-0.576
							c-0.185-0.244-0.336-0.554-0.456-0.93s-0.18-0.836-0.18-1.38c0-0.353,0.04-0.721,0.12-1.104
							c0.079-0.384,0.228-0.733,0.443-1.05s0.512-0.576,0.888-0.78s0.86-0.306,1.452-0.306c0.433,0,0.809,0.058,1.128,0.174
							c0.32,0.116,0.589,0.274,0.805,0.474c0.216,0.2,0.386,0.429,0.51,0.685s0.202,0.528,0.234,0.815h-1.009
							c-0.056-0.336-0.155-0.6-0.3-0.792c-0.144-0.191-0.3-0.331-0.468-0.42c-0.168-0.088-0.334-0.142-0.498-0.161
							c-0.164-0.021-0.29-0.03-0.378-0.03c-0.328,0-0.608,0.065-0.84,0.198c-0.232,0.132-0.42,0.31-0.564,0.533
							c-0.144,0.225-0.248,0.488-0.312,0.792c-0.064,0.305-0.097,0.629-0.097,0.973s0.036,0.672,0.108,0.983
							c0.072,0.312,0.182,0.588,0.33,0.828c0.147,0.24,0.342,0.431,0.582,0.57s0.528,0.21,0.864,0.21
							c0.296,0,0.546-0.056,0.75-0.168s0.369-0.25,0.498-0.414c0.128-0.164,0.22-0.344,0.275-0.54s0.088-0.378,0.097-0.546H441.96z"
							/>
						<path fill="#585A5E" d="M448.655,89.537c-0.04,0.216-0.114,0.441-0.222,0.678c-0.108,0.236-0.265,0.452-0.468,0.647
							c-0.204,0.196-0.467,0.358-0.786,0.486c-0.32,0.128-0.717,0.192-1.188,0.192c-0.504,0-0.93-0.068-1.278-0.204
							c-0.348-0.136-0.636-0.311-0.863-0.522c-0.229-0.212-0.406-0.445-0.534-0.702c-0.128-0.256-0.222-0.504-0.282-0.743
							c-0.06-0.24-0.096-0.458-0.107-0.654c-0.013-0.196-0.019-0.342-0.019-0.438c0-0.136,0.008-0.313,0.024-0.533
							c0.016-0.221,0.056-0.452,0.12-0.696c0.063-0.244,0.159-0.49,0.288-0.738c0.127-0.248,0.302-0.472,0.521-0.672
							s0.494-0.361,0.822-0.486c0.328-0.124,0.728-0.186,1.2-0.186c0.607,0,1.094,0.106,1.458,0.318
							c0.363,0.212,0.644,0.478,0.84,0.798c0.195,0.319,0.328,0.67,0.396,1.05c0.068,0.38,0.11,0.734,0.126,1.062
							c0,0.049,0.002,0.099,0.006,0.15s0.007,0.102,0.007,0.15h-4.692c0,0.264,0.036,0.532,0.108,0.804
							c0.071,0.271,0.184,0.518,0.336,0.738c0.151,0.22,0.35,0.401,0.594,0.546c0.244,0.144,0.542,0.216,0.894,0.216
							c0.248,0,0.473-0.034,0.672-0.103c0.2-0.067,0.37-0.159,0.511-0.275c0.14-0.116,0.252-0.25,0.336-0.402
							c0.084-0.151,0.142-0.312,0.174-0.479H448.655z M447.6,87.749c-0.009-0.2-0.036-0.42-0.084-0.66s-0.135-0.462-0.258-0.666
							c-0.125-0.204-0.295-0.374-0.511-0.51c-0.216-0.137-0.496-0.204-0.84-0.204c-0.384,0-0.7,0.07-0.948,0.21
							s-0.441,0.313-0.582,0.521c-0.14,0.208-0.233,0.431-0.281,0.666c-0.049,0.236-0.072,0.45-0.072,0.643H447.6z"/>
						<path fill="#585A5E" d="M450.719,89.489c0.009,0.239,0.06,0.443,0.155,0.611c0.095,0.168,0.22,0.305,0.375,0.408
							c0.154,0.104,0.329,0.178,0.523,0.222s0.392,0.066,0.59,0.066c0.349,0,0.619-0.048,0.81-0.145
							c0.19-0.096,0.329-0.207,0.417-0.336c0.087-0.128,0.137-0.256,0.148-0.384s0.018-0.224,0.018-0.288
							c0-0.096-0.01-0.189-0.029-0.282c-0.021-0.092-0.074-0.18-0.161-0.264c-0.088-0.084-0.217-0.164-0.388-0.24
							c-0.171-0.075-0.403-0.149-0.697-0.222l-0.645-0.144c-0.254-0.057-0.497-0.12-0.728-0.192s-0.433-0.172-0.607-0.3
							c-0.176-0.128-0.314-0.294-0.418-0.498s-0.155-0.466-0.155-0.786c0-0.336,0.068-0.618,0.204-0.846
							c0.137-0.229,0.316-0.408,0.54-0.54c0.225-0.132,0.473-0.227,0.744-0.282c0.272-0.056,0.548-0.084,0.828-0.084
							c0.52,0,0.938,0.064,1.254,0.192s0.562,0.286,0.738,0.474s0.296,0.388,0.359,0.6c0.064,0.212,0.104,0.402,0.12,0.57h-1.008
							c-0.008-0.088-0.03-0.194-0.066-0.318s-0.104-0.243-0.205-0.359s-0.242-0.214-0.428-0.294c-0.185-0.08-0.43-0.12-0.735-0.12
							c-0.032,0-0.116,0.004-0.253,0.012s-0.279,0.042-0.428,0.103c-0.148,0.06-0.283,0.155-0.404,0.287
							c-0.12,0.133-0.181,0.318-0.181,0.559c0,0.216,0.047,0.388,0.139,0.516c0.093,0.128,0.217,0.229,0.373,0.3
							c0.156,0.072,0.337,0.131,0.542,0.175s0.415,0.09,0.632,0.138c0.313,0.072,0.602,0.146,0.866,0.222
							c0.266,0.076,0.496,0.177,0.692,0.3c0.197,0.125,0.35,0.286,0.458,0.486s0.162,0.456,0.162,0.769
							c0,0.319-0.056,0.59-0.168,0.81s-0.252,0.404-0.42,0.552c-0.168,0.148-0.354,0.263-0.558,0.342
							c-0.204,0.08-0.4,0.141-0.589,0.181c-0.188,0.04-0.352,0.063-0.491,0.071c-0.141,0.009-0.234,0.013-0.282,0.013
							c-0.456,0-0.851-0.055-1.182-0.162c-0.332-0.108-0.61-0.256-0.834-0.444c-0.225-0.188-0.393-0.405-0.505-0.653
							c-0.111-0.248-0.172-0.513-0.18-0.792H450.719z"/>
						<path fill="#585A5E" d="M456.791,89.489c0.009,0.239,0.06,0.443,0.155,0.611c0.095,0.168,0.22,0.305,0.375,0.408
							c0.154,0.104,0.329,0.178,0.523,0.222s0.392,0.066,0.59,0.066c0.349,0,0.619-0.048,0.81-0.145
							c0.19-0.096,0.329-0.207,0.417-0.336c0.087-0.128,0.137-0.256,0.148-0.384s0.018-0.224,0.018-0.288
							c0-0.096-0.01-0.189-0.029-0.282c-0.021-0.092-0.074-0.18-0.161-0.264c-0.088-0.084-0.217-0.164-0.388-0.24
							c-0.171-0.075-0.403-0.149-0.697-0.222l-0.645-0.144c-0.254-0.057-0.497-0.12-0.728-0.192s-0.433-0.172-0.607-0.3
							c-0.176-0.128-0.314-0.294-0.418-0.498s-0.155-0.466-0.155-0.786c0-0.336,0.068-0.618,0.204-0.846
							c0.137-0.229,0.316-0.408,0.54-0.54c0.225-0.132,0.473-0.227,0.744-0.282c0.272-0.056,0.548-0.084,0.828-0.084
							c0.52,0,0.938,0.064,1.254,0.192s0.562,0.286,0.738,0.474s0.296,0.388,0.359,0.6c0.064,0.212,0.104,0.402,0.12,0.57h-1.008
							c-0.008-0.088-0.03-0.194-0.066-0.318s-0.104-0.243-0.205-0.359s-0.242-0.214-0.428-0.294c-0.185-0.08-0.43-0.12-0.735-0.12
							c-0.032,0-0.116,0.004-0.253,0.012s-0.279,0.042-0.428,0.103c-0.148,0.06-0.283,0.155-0.404,0.287
							c-0.12,0.133-0.181,0.318-0.181,0.559c0,0.216,0.047,0.388,0.139,0.516c0.093,0.128,0.217,0.229,0.373,0.3
							c0.156,0.072,0.337,0.131,0.542,0.175s0.415,0.09,0.632,0.138c0.313,0.072,0.602,0.146,0.866,0.222
							c0.266,0.076,0.496,0.177,0.692,0.3c0.197,0.125,0.35,0.286,0.458,0.486s0.162,0.456,0.162,0.769
							c0,0.319-0.056,0.59-0.168,0.81s-0.252,0.404-0.42,0.552c-0.168,0.148-0.354,0.263-0.558,0.342
							c-0.204,0.08-0.4,0.141-0.589,0.181c-0.188,0.04-0.352,0.063-0.491,0.071c-0.141,0.009-0.234,0.013-0.282,0.013
							c-0.456,0-0.851-0.055-1.182-0.162c-0.332-0.108-0.61-0.256-0.834-0.444c-0.225-0.188-0.393-0.405-0.505-0.653
							c-0.111-0.248-0.172-0.513-0.18-0.792H456.791z"/>
						<path fill="#585A5E" d="M461.892,88.252c0-0.408,0.052-0.808,0.155-1.2c0.104-0.392,0.274-0.742,0.511-1.05
							c0.235-0.308,0.546-0.559,0.93-0.75c0.384-0.192,0.852-0.288,1.404-0.288c0.552,0,1.02,0.096,1.403,0.288
							c0.385,0.191,0.694,0.442,0.931,0.75c0.235,0.308,0.405,0.658,0.51,1.05c0.104,0.393,0.156,0.792,0.156,1.2
							s-0.053,0.808-0.156,1.2c-0.104,0.392-0.274,0.742-0.51,1.05c-0.236,0.308-0.546,0.558-0.931,0.75
							c-0.384,0.191-0.852,0.288-1.403,0.288c-0.553,0-1.021-0.097-1.404-0.288c-0.384-0.192-0.694-0.442-0.93-0.75
							c-0.236-0.308-0.406-0.658-0.511-1.05C461.943,89.06,461.892,88.661,461.892,88.252z M463.007,88.252
							c0,0.605,0.076,1.079,0.229,1.421c0.151,0.343,0.332,0.598,0.54,0.765s0.416,0.269,0.624,0.305s0.372,0.054,0.492,0.054
							s0.283-0.018,0.491-0.054s0.416-0.138,0.624-0.305s0.389-0.422,0.54-0.765c0.152-0.342,0.229-0.815,0.229-1.421
							s-0.076-1.079-0.229-1.422c-0.151-0.342-0.332-0.597-0.54-0.764c-0.208-0.168-0.416-0.269-0.624-0.305
							s-0.371-0.054-0.491-0.054s-0.284,0.018-0.492,0.054s-0.416,0.137-0.624,0.305c-0.208,0.167-0.389,0.422-0.54,0.764
							C463.083,87.173,463.007,87.647,463.007,88.252z"/>
						<path fill="#585A5E" d="M472.68,85.708c-0.36,0.016-0.678,0.063-0.954,0.144s-0.512,0.204-0.708,0.372
							s-0.353,0.384-0.468,0.648c-0.116,0.264-0.187,0.588-0.21,0.972c-0.009,0.112-0.013,0.22-0.013,0.324c0,0.104,0,0.212,0,0.324
							V91.3h-1.056v-6.096h1.056v1.176h0.024c0.072-0.224,0.178-0.422,0.318-0.594c0.14-0.172,0.3-0.316,0.479-0.433
							c0.18-0.115,0.374-0.206,0.582-0.27c0.208-0.064,0.42-0.101,0.636-0.108l0.312-0.012V85.708z"/>
					</g>
				</g>
				<g>
					<g>
						<path fill="#585A5E" d="M377.278,136.989v0.77h0.033c0.139-0.212,0.291-0.383,0.456-0.511c0.165-0.129,0.33-0.229,0.495-0.303
							s0.324-0.121,0.479-0.144c0.154-0.021,0.293-0.032,0.418-0.032c0.345,0,0.669,0.059,0.974,0.176
							c0.304,0.117,0.572,0.299,0.803,0.544c0.231,0.246,0.413,0.56,0.545,0.94c0.132,0.382,0.198,0.833,0.198,1.354
							c0,0.543-0.07,1.005-0.21,1.386c-0.139,0.382-0.326,0.693-0.561,0.936c-0.234,0.241-0.502,0.418-0.803,0.527
							c-0.301,0.11-0.609,0.165-0.924,0.165c-0.06,0-0.164-0.007-0.313-0.021c-0.15-0.015-0.317-0.058-0.501-0.127
							s-0.368-0.172-0.556-0.308c-0.187-0.136-0.343-0.324-0.468-0.566v2.838h-0.968v-7.623H377.278z M377.278,139.805
							c0,0.434,0.055,0.796,0.165,1.09c0.11,0.293,0.251,0.531,0.424,0.715c0.172,0.184,0.358,0.313,0.561,0.391
							c0.201,0.076,0.395,0.115,0.577,0.115c0.198,0,0.395-0.039,0.589-0.115c0.194-0.077,0.37-0.206,0.528-0.386
							c0.157-0.18,0.286-0.418,0.385-0.715s0.148-0.669,0.148-1.116c0-0.719-0.146-1.287-0.44-1.705
							c-0.293-0.418-0.715-0.627-1.265-0.627c-0.125,0-0.282,0.023-0.473,0.071c-0.191,0.048-0.374,0.152-0.551,0.313
							c-0.176,0.161-0.328,0.398-0.456,0.71S377.278,139.277,377.278,139.805z"/>
						<path fill="#585A5E" d="M382.756,138.639c0-0.183,0.031-0.385,0.094-0.604s0.18-0.424,0.352-0.61
							c0.173-0.188,0.415-0.343,0.727-0.468s0.713-0.187,1.204-0.187c0.228,0,0.472,0.021,0.731,0.065
							c0.261,0.044,0.503,0.132,0.727,0.265c0.224,0.132,0.408,0.32,0.556,0.566c0.146,0.245,0.216,0.573,0.209,0.984l-0.056,2.585
							c0,0.109,0.002,0.207,0.006,0.291c0.004,0.085,0.023,0.154,0.061,0.209c0.036,0.056,0.095,0.098,0.176,0.127
							s0.194,0.04,0.341,0.033v0.682c-0.065,0.015-0.13,0.025-0.192,0.033c-0.062,0.007-0.145,0.011-0.247,0.011
							c-0.132,0-0.255-0.009-0.369-0.027c-0.113-0.019-0.212-0.055-0.297-0.11c-0.084-0.055-0.153-0.136-0.209-0.242
							c-0.055-0.105-0.097-0.251-0.126-0.434c-0.096,0.176-0.213,0.326-0.353,0.45c-0.139,0.125-0.293,0.228-0.462,0.309
							c-0.169,0.08-0.347,0.139-0.533,0.176c-0.188,0.036-0.376,0.055-0.566,0.055c-0.587,0-1.062-0.134-1.425-0.401
							s-0.544-0.694-0.544-1.281c0-0.242,0.036-0.46,0.109-0.654s0.213-0.367,0.418-0.518s0.484-0.274,0.836-0.374
							c0.353-0.099,0.811-0.174,1.375-0.226c0.205-0.015,0.378-0.029,0.518-0.044c0.139-0.015,0.251-0.045,0.335-0.093
							s0.145-0.119,0.182-0.215s0.055-0.234,0.055-0.418c0-0.066-0.007-0.161-0.021-0.286s-0.062-0.249-0.144-0.374
							c-0.08-0.125-0.205-0.232-0.374-0.324c-0.168-0.092-0.406-0.138-0.715-0.138c-0.088,0-0.214,0.008-0.379,0.022
							s-0.328,0.06-0.49,0.137c-0.161,0.077-0.301,0.194-0.418,0.353c-0.117,0.157-0.172,0.383-0.165,0.676H382.756z
							 M386.386,139.717c-0.072,0.06-0.148,0.102-0.229,0.127s-0.168,0.046-0.263,0.061c-0.094,0.015-0.201,0.027-0.321,0.038
							c-0.12,0.012-0.257,0.027-0.409,0.05c-0.211,0.037-0.413,0.071-0.606,0.104c-0.192,0.033-0.361,0.084-0.507,0.154
							c-0.146,0.069-0.261,0.17-0.344,0.302c-0.084,0.133-0.126,0.309-0.126,0.528c0,0.33,0.101,0.585,0.3,0.765
							c0.2,0.18,0.457,0.27,0.77,0.27c0.189,0,0.381-0.027,0.573-0.083c0.193-0.055,0.371-0.153,0.535-0.297
							c0.163-0.143,0.3-0.339,0.409-0.588c0.108-0.25,0.175-0.568,0.196-0.957L386.386,139.717z"/>
						<path fill="#585A5E" d="M389.598,140.916c0.008,0.22,0.055,0.407,0.143,0.562c0.087,0.153,0.201,0.278,0.344,0.374
							c0.142,0.095,0.302,0.163,0.479,0.203c0.179,0.04,0.358,0.061,0.541,0.061c0.319,0,0.567-0.044,0.742-0.132
							s0.302-0.19,0.382-0.309c0.08-0.117,0.125-0.234,0.137-0.352c0.011-0.117,0.016-0.205,0.016-0.264
							c0-0.089-0.009-0.175-0.027-0.259c-0.018-0.084-0.067-0.165-0.147-0.242s-0.198-0.15-0.355-0.22
							c-0.156-0.07-0.369-0.138-0.639-0.204l-0.591-0.132c-0.233-0.051-0.455-0.109-0.667-0.176
							c-0.211-0.066-0.397-0.157-0.558-0.275c-0.16-0.117-0.287-0.27-0.382-0.456c-0.096-0.188-0.143-0.427-0.143-0.721
							c0-0.308,0.062-0.566,0.188-0.775c0.124-0.209,0.289-0.374,0.494-0.495c0.206-0.121,0.433-0.207,0.683-0.259
							c0.249-0.051,0.502-0.076,0.759-0.076c0.477,0,0.859,0.059,1.149,0.176s0.516,0.262,0.677,0.435
							c0.161,0.172,0.271,0.355,0.33,0.55s0.095,0.368,0.109,0.522h-0.924c-0.007-0.081-0.027-0.178-0.061-0.291
							c-0.033-0.114-0.096-0.224-0.188-0.33c-0.093-0.106-0.224-0.196-0.393-0.27c-0.17-0.073-0.395-0.11-0.674-0.11
							c-0.029,0-0.107,0.004-0.232,0.011c-0.125,0.008-0.256,0.039-0.392,0.094c-0.137,0.055-0.26,0.143-0.371,0.264
							c-0.11,0.121-0.165,0.292-0.165,0.512c0,0.198,0.042,0.355,0.127,0.473c0.084,0.118,0.198,0.209,0.342,0.275
							s0.309,0.119,0.496,0.159c0.188,0.041,0.381,0.083,0.58,0.127c0.286,0.065,0.552,0.134,0.794,0.203
							c0.243,0.07,0.454,0.162,0.635,0.275c0.18,0.113,0.32,0.262,0.419,0.445c0.1,0.184,0.149,0.418,0.149,0.704
							c0,0.293-0.052,0.541-0.154,0.742c-0.103,0.202-0.23,0.371-0.385,0.506c-0.154,0.136-0.324,0.24-0.512,0.313
							c-0.187,0.073-0.366,0.129-0.539,0.165c-0.172,0.037-0.322,0.059-0.451,0.066c-0.128,0.007-0.214,0.011-0.258,0.011
							c-0.418,0-0.779-0.049-1.084-0.148c-0.305-0.099-0.56-0.234-0.765-0.407c-0.205-0.172-0.359-0.372-0.462-0.599
							c-0.103-0.228-0.157-0.47-0.165-0.727H389.598z"/>
						<path fill="#585A5E" d="M395.164,140.916c0.007,0.22,0.055,0.407,0.142,0.562c0.088,0.153,0.202,0.278,0.344,0.374
							c0.143,0.095,0.302,0.163,0.48,0.203c0.178,0.04,0.358,0.061,0.54,0.061c0.32,0,0.567-0.044,0.742-0.132
							s0.302-0.19,0.382-0.309c0.08-0.117,0.126-0.234,0.137-0.352s0.017-0.205,0.017-0.264c0-0.089-0.01-0.175-0.027-0.259
							c-0.019-0.084-0.067-0.165-0.147-0.242s-0.199-0.15-0.355-0.22c-0.157-0.07-0.37-0.138-0.64-0.204l-0.59-0.132
							c-0.233-0.051-0.456-0.109-0.667-0.176c-0.212-0.066-0.397-0.157-0.558-0.275c-0.16-0.117-0.288-0.27-0.383-0.456
							c-0.095-0.188-0.142-0.427-0.142-0.721c0-0.308,0.062-0.566,0.187-0.775s0.29-0.374,0.495-0.495s0.433-0.207,0.682-0.259
							c0.249-0.051,0.503-0.076,0.76-0.076c0.477,0,0.859,0.059,1.149,0.176c0.289,0.117,0.515,0.262,0.676,0.435
							c0.161,0.172,0.271,0.355,0.33,0.55s0.096,0.368,0.11,0.522h-0.924c-0.008-0.081-0.028-0.178-0.062-0.291
							c-0.033-0.114-0.096-0.224-0.188-0.33s-0.223-0.196-0.393-0.27c-0.169-0.073-0.394-0.11-0.674-0.11
							c-0.029,0-0.106,0.004-0.231,0.011c-0.126,0.008-0.257,0.039-0.393,0.094s-0.26,0.143-0.37,0.264s-0.166,0.292-0.166,0.512
							c0,0.198,0.043,0.355,0.127,0.473c0.085,0.118,0.199,0.209,0.342,0.275c0.144,0.066,0.31,0.119,0.497,0.159
							c0.188,0.041,0.381,0.083,0.579,0.127c0.287,0.065,0.552,0.134,0.795,0.203c0.242,0.07,0.454,0.162,0.634,0.275
							c0.181,0.113,0.32,0.262,0.42,0.445c0.099,0.184,0.148,0.418,0.148,0.704c0,0.293-0.051,0.541-0.153,0.742
							c-0.104,0.202-0.231,0.371-0.386,0.506c-0.153,0.136-0.324,0.24-0.511,0.313c-0.188,0.073-0.367,0.129-0.539,0.165
							c-0.173,0.037-0.323,0.059-0.451,0.066c-0.129,0.007-0.215,0.011-0.259,0.011c-0.418,0-0.779-0.049-1.083-0.148
							c-0.305-0.099-0.56-0.234-0.765-0.407c-0.206-0.172-0.359-0.372-0.462-0.599c-0.104-0.228-0.158-0.47-0.165-0.727H395.164z"/>
						<path fill="#585A5E" d="M400.235,139.167h2.903v0.936h-2.903V139.167z"/>
						<path fill="#585A5E" d="M405.152,136.989v-1.672h0.968v1.672h1.188v0.682h-1.188v3.554c0,0.103,0.002,0.199,0.006,0.291
							c0.003,0.092,0.021,0.174,0.055,0.247c0.033,0.074,0.09,0.131,0.17,0.171c0.081,0.04,0.198,0.061,0.353,0.061
							c0.103,0,0.205-0.009,0.308-0.027s0.202-0.042,0.297-0.071v0.682c-0.153,0.066-0.318,0.119-0.494,0.159
							c-0.177,0.041-0.349,0.061-0.518,0.061c-0.286,0-0.508-0.044-0.665-0.132c-0.158-0.088-0.271-0.199-0.341-0.335
							c-0.07-0.136-0.11-0.284-0.121-0.446c-0.012-0.161-0.017-0.314-0.017-0.462v-3.751h-1.001v-0.682H405.152z"/>
						<path fill="#585A5E" d="M409.287,134.877v2.894c0.257-0.353,0.541-0.607,0.853-0.765c0.312-0.158,0.666-0.236,1.062-0.236
							c0.309,0,0.568,0.04,0.781,0.121c0.213,0.08,0.387,0.187,0.522,0.318s0.238,0.277,0.309,0.435
							c0.069,0.158,0.121,0.313,0.153,0.468c0.033,0.154,0.052,0.299,0.056,0.435c0.003,0.136,0.005,0.24,0.005,0.313v3.718h-0.968
							v-3.421c0-0.161-0.004-0.341-0.011-0.539c-0.008-0.198-0.048-0.383-0.121-0.556c-0.073-0.172-0.189-0.317-0.347-0.435
							c-0.158-0.117-0.387-0.176-0.688-0.176c-0.132,0-0.29,0.022-0.473,0.066c-0.184,0.044-0.359,0.137-0.528,0.28
							c-0.169,0.143-0.312,0.352-0.429,0.627c-0.117,0.274-0.177,0.644-0.177,1.105v3.047h-0.968v-7.7H409.287z"/>
						<path fill="#585A5E" d="M417.735,137.451c-0.33,0.015-0.621,0.059-0.874,0.132s-0.47,0.188-0.649,0.341
							c-0.18,0.154-0.322,0.353-0.429,0.595c-0.106,0.241-0.171,0.539-0.192,0.891c-0.008,0.103-0.012,0.202-0.012,0.297
							c0,0.096,0,0.194,0,0.297v2.574h-0.968v-5.588h0.968v1.078h0.022c0.066-0.205,0.163-0.387,0.292-0.545
							c0.128-0.157,0.274-0.289,0.439-0.396s0.343-0.189,0.533-0.248c0.191-0.059,0.386-0.092,0.583-0.099l0.286-0.011V137.451z"/>
						<path fill="#585A5E" d="M418.077,139.783c0-0.374,0.047-0.74,0.143-1.1s0.251-0.681,0.468-0.963
							c0.216-0.282,0.5-0.512,0.853-0.688c0.352-0.176,0.78-0.264,1.287-0.264c0.506,0,0.935,0.088,1.286,0.264
							c0.353,0.176,0.637,0.405,0.853,0.688c0.217,0.282,0.372,0.604,0.468,0.963s0.144,0.726,0.144,1.1s-0.048,0.741-0.144,1.1
							c-0.096,0.359-0.251,0.681-0.468,0.963c-0.216,0.282-0.5,0.512-0.853,0.688c-0.352,0.176-0.78,0.264-1.286,0.264
							c-0.507,0-0.936-0.088-1.287-0.264c-0.353-0.176-0.637-0.405-0.853-0.688c-0.217-0.282-0.372-0.604-0.468-0.963
							C418.124,140.524,418.077,140.157,418.077,139.783z M419.1,139.783c0,0.555,0.069,0.989,0.209,1.303s0.305,0.548,0.495,0.701
							s0.381,0.246,0.572,0.279c0.19,0.032,0.341,0.049,0.451,0.049c0.109,0,0.26-0.017,0.45-0.049
							c0.191-0.033,0.382-0.126,0.572-0.279s0.355-0.388,0.495-0.701s0.209-0.748,0.209-1.303s-0.069-0.989-0.209-1.303
							c-0.14-0.314-0.305-0.548-0.495-0.701s-0.381-0.246-0.572-0.279c-0.19-0.032-0.341-0.049-0.45-0.049
							c-0.11,0-0.261,0.017-0.451,0.049c-0.191,0.033-0.382,0.126-0.572,0.279s-0.355,0.387-0.495,0.701
							C419.169,138.794,419.1,139.229,419.1,139.783z"/>
						<path fill="#585A5E" d="M428.593,142.577v-0.792h-0.022c-0.139,0.242-0.308,0.431-0.506,0.566s-0.391,0.236-0.577,0.303
							c-0.188,0.065-0.356,0.106-0.506,0.121c-0.15,0.015-0.252,0.021-0.303,0.021c-0.411,0-0.739-0.069-0.984-0.209
							c-0.246-0.139-0.432-0.315-0.556-0.527c-0.125-0.213-0.205-0.44-0.242-0.683s-0.055-0.469-0.055-0.682v-3.707h0.968v3.421
							c0,0.352,0.029,0.638,0.088,0.858c0.059,0.22,0.14,0.394,0.242,0.522c0.103,0.128,0.226,0.214,0.368,0.258
							c0.144,0.044,0.303,0.066,0.479,0.066c0.403,0,0.715-0.09,0.936-0.27c0.22-0.18,0.379-0.387,0.479-0.621
							c0.099-0.235,0.155-0.466,0.17-0.693s0.022-0.393,0.022-0.495v-3.047h0.968v5.588H428.593z"/>
						<path fill="#585A5E" d="M432.179,143.208c0.044,0.163,0.117,0.296,0.22,0.399s0.222,0.187,0.357,0.25
							c0.136,0.062,0.282,0.105,0.44,0.128c0.157,0.021,0.31,0.033,0.456,0.033c0.382,0,0.675-0.078,0.881-0.232
							c0.205-0.155,0.357-0.332,0.456-0.53c0.099-0.199,0.157-0.395,0.176-0.586s0.027-0.324,0.027-0.397v-0.608
							c-0.132,0.213-0.26,0.391-0.385,0.533c-0.125,0.144-0.259,0.259-0.401,0.347s-0.297,0.152-0.462,0.192
							c-0.165,0.041-0.351,0.061-0.556,0.061c-0.33,0-0.647-0.059-0.951-0.176c-0.305-0.117-0.572-0.299-0.803-0.545
							c-0.231-0.245-0.417-0.561-0.556-0.945c-0.14-0.385-0.209-0.849-0.209-1.392c0-0.088,0.003-0.222,0.011-0.401
							c0.007-0.18,0.033-0.38,0.077-0.6s0.115-0.445,0.214-0.677c0.1-0.23,0.238-0.443,0.418-0.638s0.407-0.353,0.683-0.474
							c0.274-0.12,0.614-0.181,1.018-0.181c0.462,0,0.855,0.084,1.183,0.253c0.326,0.169,0.577,0.414,0.753,0.736h0.033v-0.77h0.902
							v5.445c0,0.358-0.05,0.663-0.148,0.912c-0.1,0.25-0.226,0.459-0.38,0.628c-0.154,0.168-0.328,0.3-0.522,0.396
							s-0.384,0.169-0.566,0.22c-0.184,0.052-0.355,0.083-0.518,0.094c-0.161,0.011-0.285,0.017-0.374,0.017
							c-0.132,0-0.315-0.008-0.55-0.021c-0.234-0.016-0.475-0.068-0.721-0.159c-0.245-0.092-0.473-0.238-0.682-0.439
							s-0.357-0.492-0.445-0.872H432.179z M433.608,142.115c0.089,0,0.224-0.023,0.407-0.071s0.367-0.154,0.55-0.319
							c0.184-0.165,0.345-0.405,0.484-0.721s0.209-0.744,0.209-1.287c0-0.704-0.146-1.257-0.44-1.661
							c-0.293-0.402-0.726-0.604-1.298-0.604c-0.271,0-0.5,0.046-0.688,0.138c-0.187,0.092-0.341,0.207-0.462,0.347
							c-0.121,0.139-0.213,0.297-0.274,0.473c-0.062,0.176-0.11,0.347-0.144,0.512s-0.051,0.318-0.055,0.462
							c-0.004,0.143-0.006,0.251-0.006,0.324c0,0.564,0.068,1.009,0.204,1.331c0.135,0.323,0.297,0.562,0.483,0.721
							c0.188,0.157,0.378,0.257,0.572,0.297S433.499,142.115,433.608,142.115z"/>
						<path fill="#585A5E" d="M438.712,134.877v2.894c0.257-0.353,0.541-0.607,0.853-0.765c0.312-0.158,0.666-0.236,1.062-0.236
							c0.309,0,0.568,0.04,0.781,0.121c0.213,0.08,0.387,0.187,0.522,0.318s0.238,0.277,0.309,0.435
							c0.069,0.158,0.121,0.313,0.153,0.468c0.033,0.154,0.052,0.299,0.056,0.435c0.003,0.136,0.005,0.24,0.005,0.313v3.718h-0.968
							v-3.421c0-0.161-0.004-0.341-0.011-0.539c-0.008-0.198-0.048-0.383-0.121-0.556c-0.073-0.172-0.189-0.317-0.347-0.435
							c-0.158-0.117-0.387-0.176-0.688-0.176c-0.132,0-0.29,0.022-0.473,0.066c-0.184,0.044-0.359,0.137-0.528,0.28
							c-0.169,0.143-0.312,0.352-0.429,0.627c-0.117,0.274-0.177,0.644-0.177,1.105v3.047h-0.968v-7.7H438.712z"/>
						<path fill="#585A5E" d="M447.567,136.989v0.759l-0.011,0.066c0.073-0.161,0.172-0.307,0.297-0.435
							c0.124-0.129,0.264-0.238,0.418-0.33s0.317-0.161,0.489-0.209s0.347-0.071,0.522-0.071c0.242,0,0.455,0.034,0.638,0.104
							c0.184,0.069,0.34,0.161,0.468,0.274c0.129,0.114,0.233,0.242,0.313,0.385c0.081,0.144,0.14,0.288,0.176,0.435
							c0.052-0.109,0.129-0.232,0.231-0.368s0.231-0.266,0.385-0.391c0.154-0.124,0.339-0.229,0.556-0.313
							c0.216-0.084,0.471-0.126,0.765-0.126c0.425,0,0.759,0.086,1.001,0.258c0.242,0.173,0.422,0.376,0.539,0.61
							c0.117,0.235,0.188,0.478,0.215,0.727c0.025,0.249,0.038,0.451,0.038,0.604v3.608h-0.968v-3.542
							c0-0.146-0.01-0.312-0.027-0.495c-0.019-0.184-0.064-0.355-0.138-0.517s-0.182-0.297-0.325-0.407
							c-0.143-0.11-0.339-0.165-0.588-0.165c-0.161,0-0.33,0.025-0.506,0.077c-0.177,0.051-0.336,0.145-0.479,0.28
							c-0.144,0.136-0.261,0.319-0.353,0.55c-0.092,0.231-0.138,0.526-0.138,0.886v3.333h-0.968v-3.531
							c0-0.205-0.015-0.403-0.044-0.594s-0.084-0.359-0.165-0.506c-0.08-0.146-0.19-0.266-0.33-0.357
							c-0.139-0.092-0.318-0.138-0.539-0.138c-0.197,0-0.387,0.042-0.566,0.127c-0.18,0.084-0.337,0.203-0.473,0.357
							c-0.136,0.153-0.242,0.343-0.319,0.566s-0.115,0.471-0.115,0.742v3.333H446.6v-5.588H447.567z"/>
						<path fill="#585A5E" d="M461.142,140.96c-0.037,0.198-0.104,0.405-0.204,0.622c-0.099,0.216-0.242,0.414-0.429,0.594
							c-0.188,0.18-0.428,0.328-0.721,0.445s-0.656,0.176-1.089,0.176c-0.462,0-0.853-0.062-1.172-0.187
							c-0.318-0.125-0.583-0.284-0.792-0.479s-0.372-0.409-0.489-0.644s-0.203-0.462-0.259-0.683
							c-0.055-0.22-0.088-0.419-0.099-0.599s-0.017-0.313-0.017-0.402c0-0.124,0.007-0.287,0.022-0.489
							c0.015-0.201,0.051-0.414,0.109-0.638s0.146-0.449,0.265-0.677c0.117-0.227,0.276-0.433,0.479-0.616
							c0.201-0.183,0.452-0.331,0.753-0.445c0.301-0.113,0.667-0.17,1.101-0.17c0.557,0,1.002,0.097,1.336,0.291
							s0.591,0.438,0.771,0.731c0.18,0.294,0.3,0.614,0.362,0.963s0.101,0.673,0.116,0.974c0,0.044,0.001,0.09,0.005,0.137
							c0.004,0.048,0.006,0.094,0.006,0.138h-4.301c0,0.242,0.032,0.488,0.099,0.737s0.169,0.475,0.308,0.677
							c0.14,0.201,0.321,0.368,0.545,0.5s0.497,0.198,0.819,0.198c0.228,0,0.433-0.031,0.616-0.094s0.339-0.146,0.468-0.253
							c0.128-0.106,0.23-0.229,0.308-0.368c0.077-0.14,0.13-0.286,0.159-0.44H461.142z M460.173,139.321
							c-0.007-0.184-0.032-0.385-0.077-0.605c-0.044-0.22-0.122-0.423-0.236-0.61c-0.113-0.187-0.27-0.343-0.467-0.468
							c-0.198-0.124-0.455-0.187-0.771-0.187c-0.352,0-0.642,0.064-0.869,0.192c-0.228,0.129-0.405,0.288-0.533,0.479
							c-0.129,0.19-0.215,0.395-0.259,0.61c-0.044,0.217-0.065,0.413-0.065,0.589H460.173z"/>
						<path fill="#585A5E" d="M463.033,140.916c0.007,0.22,0.055,0.407,0.142,0.562c0.088,0.153,0.202,0.278,0.344,0.374
							c0.143,0.095,0.302,0.163,0.48,0.203c0.178,0.04,0.358,0.061,0.54,0.061c0.32,0,0.567-0.044,0.742-0.132
							s0.302-0.19,0.382-0.309c0.08-0.117,0.126-0.234,0.137-0.352s0.017-0.205,0.017-0.264c0-0.089-0.01-0.175-0.027-0.259
							c-0.019-0.084-0.067-0.165-0.147-0.242s-0.199-0.15-0.355-0.22c-0.157-0.07-0.37-0.138-0.64-0.204l-0.59-0.132
							c-0.233-0.051-0.456-0.109-0.667-0.176c-0.212-0.066-0.397-0.157-0.558-0.275c-0.16-0.117-0.288-0.27-0.383-0.456
							c-0.095-0.188-0.142-0.427-0.142-0.721c0-0.308,0.062-0.566,0.187-0.775s0.29-0.374,0.495-0.495s0.433-0.207,0.682-0.259
							c0.249-0.051,0.503-0.076,0.76-0.076c0.477,0,0.859,0.059,1.149,0.176c0.289,0.117,0.515,0.262,0.676,0.435
							c0.161,0.172,0.271,0.355,0.33,0.55s0.096,0.368,0.11,0.522h-0.924c-0.008-0.081-0.028-0.178-0.062-0.291
							c-0.033-0.114-0.096-0.224-0.188-0.33s-0.223-0.196-0.393-0.27c-0.169-0.073-0.394-0.11-0.674-0.11
							c-0.029,0-0.106,0.004-0.231,0.011c-0.126,0.008-0.257,0.039-0.393,0.094s-0.26,0.143-0.37,0.264s-0.166,0.292-0.166,0.512
							c0,0.198,0.043,0.355,0.127,0.473c0.085,0.118,0.199,0.209,0.342,0.275c0.144,0.066,0.31,0.119,0.497,0.159
							c0.188,0.041,0.381,0.083,0.579,0.127c0.287,0.065,0.552,0.134,0.795,0.203c0.242,0.07,0.454,0.162,0.634,0.275
							c0.181,0.113,0.32,0.262,0.42,0.445c0.099,0.184,0.148,0.418,0.148,0.704c0,0.293-0.051,0.541-0.153,0.742
							c-0.104,0.202-0.231,0.371-0.386,0.506c-0.153,0.136-0.324,0.24-0.511,0.313c-0.188,0.073-0.367,0.129-0.539,0.165
							c-0.173,0.037-0.323,0.059-0.451,0.066c-0.129,0.007-0.215,0.011-0.259,0.011c-0.418,0-0.779-0.049-1.083-0.148
							c-0.305-0.099-0.56-0.234-0.765-0.407c-0.206-0.172-0.359-0.372-0.462-0.599c-0.104-0.228-0.158-0.47-0.165-0.727H463.033z"/>
						<path fill="#585A5E" d="M468.599,140.916c0.008,0.22,0.055,0.407,0.143,0.562c0.087,0.153,0.201,0.278,0.344,0.374
							c0.142,0.095,0.302,0.163,0.479,0.203c0.179,0.04,0.358,0.061,0.541,0.061c0.319,0,0.567-0.044,0.742-0.132
							s0.302-0.19,0.382-0.309c0.08-0.117,0.125-0.234,0.137-0.352c0.011-0.117,0.016-0.205,0.016-0.264
							c0-0.089-0.009-0.175-0.027-0.259c-0.018-0.084-0.067-0.165-0.147-0.242s-0.198-0.15-0.355-0.22
							c-0.156-0.07-0.369-0.138-0.639-0.204l-0.591-0.132c-0.233-0.051-0.455-0.109-0.667-0.176
							c-0.211-0.066-0.397-0.157-0.558-0.275c-0.16-0.117-0.287-0.27-0.382-0.456c-0.096-0.188-0.143-0.427-0.143-0.721
							c0-0.308,0.062-0.566,0.188-0.775c0.124-0.209,0.289-0.374,0.494-0.495c0.206-0.121,0.433-0.207,0.683-0.259
							c0.249-0.051,0.502-0.076,0.759-0.076c0.477,0,0.859,0.059,1.149,0.176s0.516,0.262,0.677,0.435
							c0.161,0.172,0.271,0.355,0.33,0.55s0.095,0.368,0.109,0.522h-0.924c-0.007-0.081-0.027-0.178-0.061-0.291
							c-0.033-0.114-0.096-0.224-0.188-0.33c-0.093-0.106-0.224-0.196-0.393-0.27c-0.17-0.073-0.395-0.11-0.674-0.11
							c-0.029,0-0.107,0.004-0.232,0.011c-0.125,0.008-0.256,0.039-0.392,0.094c-0.137,0.055-0.26,0.143-0.371,0.264
							c-0.11,0.121-0.165,0.292-0.165,0.512c0,0.198,0.042,0.355,0.127,0.473c0.084,0.118,0.198,0.209,0.342,0.275
							s0.309,0.119,0.496,0.159c0.188,0.041,0.381,0.083,0.58,0.127c0.286,0.065,0.552,0.134,0.794,0.203
							c0.243,0.07,0.454,0.162,0.635,0.275c0.18,0.113,0.32,0.262,0.419,0.445c0.1,0.184,0.149,0.418,0.149,0.704
							c0,0.293-0.052,0.541-0.154,0.742c-0.103,0.202-0.23,0.371-0.385,0.506c-0.154,0.136-0.324,0.24-0.512,0.313
							c-0.187,0.073-0.366,0.129-0.539,0.165c-0.172,0.037-0.322,0.059-0.451,0.066c-0.128,0.007-0.214,0.011-0.258,0.011
							c-0.418,0-0.779-0.049-1.084-0.148c-0.305-0.099-0.56-0.234-0.765-0.407c-0.205-0.172-0.359-0.372-0.462-0.599
							c-0.103-0.228-0.157-0.47-0.165-0.727H468.599z"/>
						<path fill="#585A5E" d="M473.406,138.639c0-0.183,0.031-0.385,0.094-0.604s0.18-0.424,0.352-0.61
							c0.172-0.188,0.414-0.343,0.727-0.468c0.311-0.125,0.713-0.187,1.205-0.187c0.227,0,0.471,0.021,0.73,0.065
							s0.502,0.132,0.727,0.265c0.223,0.132,0.408,0.32,0.555,0.566c0.146,0.245,0.217,0.573,0.209,0.984l-0.055,2.585
							c0,0.109,0.002,0.207,0.006,0.291c0.004,0.085,0.023,0.154,0.061,0.209c0.037,0.056,0.096,0.098,0.176,0.127
							s0.193,0.04,0.342,0.033v0.682c-0.066,0.015-0.131,0.025-0.193,0.033c-0.062,0.007-0.145,0.011-0.248,0.011
							c-0.131,0-0.254-0.009-0.367-0.027c-0.115-0.019-0.213-0.055-0.297-0.11c-0.086-0.055-0.154-0.136-0.211-0.242
							c-0.055-0.105-0.096-0.251-0.125-0.434c-0.096,0.176-0.213,0.326-0.352,0.45c-0.141,0.125-0.295,0.228-0.463,0.309
							c-0.168,0.08-0.346,0.139-0.533,0.176c-0.188,0.036-0.377,0.055-0.566,0.055c-0.588,0-1.062-0.134-1.425-0.401
							c-0.363-0.268-0.544-0.694-0.544-1.281c0-0.242,0.036-0.46,0.109-0.654s0.213-0.367,0.418-0.518s0.484-0.274,0.836-0.374
							c0.352-0.099,0.811-0.174,1.375-0.226c0.205-0.015,0.377-0.029,0.518-0.044c0.139-0.015,0.25-0.045,0.334-0.093
							c0.086-0.048,0.146-0.119,0.182-0.215c0.037-0.096,0.057-0.234,0.057-0.418c0-0.066-0.008-0.161-0.023-0.286
							c-0.014-0.125-0.062-0.249-0.143-0.374s-0.205-0.232-0.373-0.324c-0.17-0.092-0.408-0.138-0.715-0.138
							c-0.09,0-0.215,0.008-0.381,0.022c-0.164,0.015-0.328,0.06-0.488,0.137c-0.162,0.077-0.301,0.194-0.418,0.353
							c-0.119,0.157-0.174,0.383-0.166,0.676H473.406z M477.037,139.717c-0.074,0.06-0.15,0.102-0.23,0.127
							s-0.168,0.046-0.262,0.061s-0.201,0.027-0.322,0.038c-0.119,0.012-0.256,0.027-0.408,0.05
							c-0.211,0.037-0.414,0.071-0.605,0.104c-0.193,0.033-0.363,0.084-0.508,0.154c-0.146,0.069-0.26,0.17-0.344,0.302
							c-0.084,0.133-0.127,0.309-0.127,0.528c0,0.33,0.102,0.585,0.301,0.765s0.457,0.27,0.77,0.27c0.189,0,0.381-0.027,0.572-0.083
							c0.193-0.055,0.371-0.153,0.535-0.297c0.164-0.143,0.301-0.339,0.41-0.588c0.109-0.25,0.174-0.568,0.195-0.957
							L477.037,139.717z"/>
						<path fill="#585A5E" d="M480.71,143.208c0.044,0.163,0.117,0.296,0.22,0.399s0.222,0.187,0.357,0.25
							c0.136,0.062,0.282,0.105,0.44,0.128c0.157,0.021,0.31,0.033,0.456,0.033c0.382,0,0.675-0.078,0.88-0.232
							c0.205-0.155,0.357-0.332,0.457-0.53c0.099-0.199,0.157-0.395,0.176-0.586s0.027-0.324,0.027-0.397v-0.608
							c-0.132,0.213-0.26,0.391-0.385,0.533c-0.125,0.144-0.259,0.259-0.401,0.347c-0.144,0.088-0.297,0.152-0.462,0.192
							c-0.165,0.041-0.351,0.061-0.556,0.061c-0.33,0-0.647-0.059-0.951-0.176c-0.305-0.117-0.572-0.299-0.804-0.545
							c-0.23-0.245-0.416-0.561-0.556-0.945c-0.139-0.385-0.209-0.849-0.209-1.392c0-0.088,0.004-0.222,0.012-0.401
							c0.007-0.18,0.032-0.38,0.077-0.6c0.044-0.22,0.115-0.445,0.214-0.677c0.1-0.23,0.238-0.443,0.418-0.638
							s0.407-0.353,0.683-0.474c0.274-0.12,0.613-0.181,1.017-0.181c0.463,0,0.856,0.084,1.183,0.253s0.578,0.414,0.754,0.736h0.033
							v-0.77h0.901v5.445c0,0.358-0.049,0.663-0.148,0.912c-0.099,0.25-0.226,0.459-0.379,0.628c-0.154,0.168-0.328,0.3-0.522,0.396
							s-0.384,0.169-0.566,0.22c-0.184,0.052-0.356,0.083-0.518,0.094s-0.286,0.017-0.374,0.017c-0.132,0-0.315-0.008-0.55-0.021
							c-0.234-0.016-0.475-0.068-0.721-0.159c-0.245-0.092-0.473-0.238-0.682-0.439s-0.357-0.492-0.445-0.872H480.71z
							 M482.14,142.115c0.088,0,0.224-0.023,0.407-0.071s0.366-0.154,0.55-0.319s0.345-0.405,0.484-0.721
							c0.139-0.315,0.209-0.744,0.209-1.287c0-0.704-0.147-1.257-0.44-1.661c-0.293-0.402-0.726-0.604-1.298-0.604
							c-0.271,0-0.5,0.046-0.688,0.138c-0.187,0.092-0.341,0.207-0.462,0.347c-0.121,0.139-0.213,0.297-0.275,0.473
							s-0.109,0.347-0.143,0.512s-0.052,0.318-0.055,0.462c-0.004,0.143-0.006,0.251-0.006,0.324c0,0.564,0.067,1.009,0.203,1.331
							c0.136,0.323,0.297,0.562,0.484,0.721c0.187,0.157,0.378,0.257,0.572,0.297S482.03,142.115,482.14,142.115z"/>
						<path fill="#585A5E" d="M491.227,140.96c-0.037,0.198-0.104,0.405-0.204,0.622c-0.099,0.216-0.241,0.414-0.429,0.594
							c-0.187,0.18-0.427,0.328-0.721,0.445c-0.293,0.117-0.656,0.176-1.089,0.176c-0.462,0-0.853-0.062-1.171-0.187
							c-0.319-0.125-0.583-0.284-0.792-0.479s-0.373-0.409-0.49-0.644s-0.203-0.462-0.258-0.683c-0.056-0.22-0.088-0.419-0.1-0.599
							c-0.011-0.18-0.017-0.313-0.017-0.402c0-0.124,0.008-0.287,0.022-0.489c0.015-0.201,0.051-0.414,0.11-0.638
							c0.059-0.224,0.146-0.449,0.264-0.677c0.117-0.227,0.276-0.433,0.479-0.616c0.201-0.183,0.452-0.331,0.753-0.445
							c0.301-0.113,0.668-0.17,1.101-0.17c0.557,0,1.003,0.097,1.336,0.291c0.334,0.194,0.591,0.438,0.771,0.731
							c0.18,0.294,0.301,0.614,0.363,0.963c0.062,0.349,0.101,0.673,0.115,0.974c0,0.044,0.002,0.09,0.005,0.137
							c0.004,0.048,0.006,0.094,0.006,0.138h-4.301c0,0.242,0.033,0.488,0.099,0.737c0.066,0.249,0.169,0.475,0.309,0.677
							c0.139,0.201,0.32,0.368,0.544,0.5s0.497,0.198,0.819,0.198c0.228,0,0.433-0.031,0.616-0.094s0.339-0.146,0.468-0.253
							c0.128-0.106,0.23-0.229,0.308-0.368c0.077-0.14,0.131-0.286,0.16-0.44H491.227z M490.259,139.321
							c-0.008-0.184-0.033-0.385-0.077-0.605c-0.044-0.22-0.123-0.423-0.236-0.61c-0.114-0.187-0.27-0.343-0.468-0.468
							c-0.198-0.124-0.455-0.187-0.771-0.187c-0.352,0-0.642,0.064-0.869,0.192c-0.227,0.129-0.405,0.288-0.533,0.479
							s-0.214,0.395-0.259,0.61c-0.044,0.217-0.065,0.413-0.065,0.589H490.259z"/>
						<path fill="#585A5E" d="M497.683,137.671h-1.222v4.906h-0.968v-4.906h-1.034v-0.682h1.034v-0.759
							c0-0.484,0.121-0.838,0.363-1.062s0.612-0.336,1.111-0.336c0.103,0,0.227,0.006,0.374,0.017
							c0.146,0.011,0.26,0.021,0.341,0.027v0.683c-0.235-0.015-0.395-0.021-0.479-0.017c-0.085,0.004-0.152,0.005-0.204,0.005
							c-0.132,0-0.234,0.029-0.308,0.088c-0.073,0.06-0.127,0.129-0.159,0.209c-0.033,0.081-0.054,0.165-0.061,0.254
							c-0.008,0.088-0.012,0.161-0.012,0.22v0.671h1.222V137.671z"/>
						<path fill="#585A5E" d="M499.586,134.877v7.7h-0.968v-7.7H499.586z"/>
						<path fill="#585A5E" d="M500.851,139.783c0-0.374,0.048-0.74,0.144-1.1c0.095-0.359,0.251-0.681,0.468-0.963
							c0.216-0.282,0.5-0.512,0.852-0.688c0.353-0.176,0.781-0.264,1.287-0.264s0.936,0.088,1.287,0.264
							c0.353,0.176,0.637,0.405,0.853,0.688c0.217,0.282,0.372,0.604,0.468,0.963c0.095,0.359,0.143,0.726,0.143,1.1
							s-0.048,0.741-0.143,1.1c-0.096,0.359-0.251,0.681-0.468,0.963c-0.216,0.282-0.5,0.512-0.853,0.688
							c-0.352,0.176-0.781,0.264-1.287,0.264s-0.935-0.088-1.287-0.264c-0.352-0.176-0.636-0.405-0.852-0.688
							c-0.217-0.282-0.373-0.604-0.468-0.963C500.898,140.524,500.851,140.157,500.851,139.783z M501.874,139.783
							c0,0.555,0.069,0.989,0.209,1.303c0.139,0.313,0.304,0.548,0.495,0.701c0.19,0.153,0.381,0.246,0.572,0.279
							c0.19,0.032,0.341,0.049,0.45,0.049c0.11,0,0.261-0.017,0.451-0.049c0.19-0.033,0.382-0.126,0.572-0.279
							s0.355-0.388,0.495-0.701c0.139-0.313,0.209-0.748,0.209-1.303s-0.07-0.989-0.209-1.303c-0.14-0.314-0.305-0.548-0.495-0.701
							s-0.382-0.246-0.572-0.279c-0.19-0.032-0.341-0.049-0.451-0.049c-0.109,0-0.26,0.017-0.45,0.049
							c-0.191,0.033-0.382,0.126-0.572,0.279c-0.191,0.153-0.356,0.387-0.495,0.701
							C501.943,138.794,501.874,139.229,501.874,139.783z"/>
						<path fill="#585A5E" d="M509.617,142.577h-1.034l-1.804-5.588h1.022l1.343,4.477l1.166-4.477h0.968l1.166,4.477l1.342-4.477
							h1.023l-1.805,5.588h-1.033l-1.178-4.477L509.617,142.577z"/>
					</g>
				</g>
			</g>
			<g>
				<g>
					<g>
						
							<line fill="none" stroke="#585A5E" stroke-width="1.1" stroke-miterlimit="10" x1="486.224" y1="82.137" x2="546.721" y2="82.137"/>
						<g>
							<polygon fill="#585A5E" points="545.902,84.934 550.747,82.137 545.902,79.339 							"/>
						</g>
					</g>
				</g>
			</g>
			<g>
				<g>
					<rect x="549.835" y="61.765" fill="#DCDCDD" width="84.395" height="40.568"/>
				</g>
				<g>
					<g>
						<path fill="#585A5E" d="M568.503,83.842c-0.008,0.28,0.04,0.54,0.144,0.78c0.104,0.24,0.26,0.448,0.468,0.624
							s0.463,0.313,0.763,0.414c0.3,0.1,0.642,0.149,1.025,0.149c0.376,0,0.694-0.044,0.954-0.132s0.473-0.204,0.637-0.348
							c0.163-0.145,0.283-0.311,0.359-0.498c0.076-0.188,0.114-0.382,0.114-0.582c0-0.256-0.052-0.47-0.156-0.643
							c-0.104-0.172-0.236-0.312-0.396-0.42c-0.16-0.107-0.343-0.193-0.546-0.258c-0.204-0.063-0.402-0.115-0.595-0.156
							c-0.479-0.104-0.938-0.201-1.374-0.294c-0.436-0.092-0.819-0.222-1.151-0.39s-0.597-0.394-0.792-0.678
							c-0.196-0.284-0.294-0.666-0.294-1.146c0-0.392,0.075-0.739,0.228-1.044c0.152-0.304,0.368-0.556,0.648-0.756
							c0.279-0.2,0.615-0.352,1.008-0.456c0.392-0.104,0.823-0.156,1.296-0.156c0.52,0,0.97,0.066,1.35,0.198
							s0.696,0.311,0.948,0.534s0.444,0.484,0.576,0.78s0.21,0.604,0.234,0.924h-1.129c-0.04-0.344-0.142-0.616-0.306-0.816
							c-0.164-0.199-0.35-0.35-0.558-0.45c-0.208-0.1-0.42-0.161-0.637-0.186c-0.216-0.024-0.388-0.036-0.516-0.036
							c-0.584,0-1.054,0.126-1.41,0.378c-0.355,0.252-0.534,0.594-0.534,1.026c0,0.256,0.059,0.462,0.175,0.618
							c0.115,0.155,0.27,0.284,0.462,0.384c0.191,0.1,0.414,0.178,0.666,0.233c0.252,0.057,0.518,0.112,0.798,0.168
							c0.376,0.072,0.754,0.154,1.134,0.246c0.38,0.093,0.724,0.23,1.032,0.414c0.308,0.185,0.558,0.431,0.75,0.738
							c0.191,0.309,0.288,0.714,0.288,1.218c0,0.416-0.066,0.769-0.198,1.057s-0.302,0.525-0.51,0.714
							c-0.208,0.188-0.44,0.334-0.696,0.438c-0.256,0.104-0.506,0.181-0.75,0.229s-0.472,0.076-0.684,0.084
							c-0.213,0.008-0.374,0.012-0.486,0.012c-0.296,0-0.638-0.028-1.026-0.084c-0.388-0.056-0.758-0.182-1.109-0.378
							c-0.353-0.196-0.654-0.488-0.906-0.876s-0.395-0.914-0.426-1.578H568.503z"/>
						<path fill="#585A5E" d="M580.971,84.743c-0.04,0.216-0.114,0.441-0.222,0.678c-0.108,0.236-0.265,0.452-0.468,0.647
							c-0.204,0.196-0.467,0.358-0.786,0.486c-0.32,0.128-0.717,0.192-1.188,0.192c-0.504,0-0.93-0.068-1.278-0.204
							c-0.348-0.136-0.636-0.311-0.863-0.522c-0.229-0.212-0.406-0.445-0.534-0.702c-0.128-0.256-0.222-0.504-0.282-0.743
							c-0.06-0.24-0.096-0.458-0.107-0.654c-0.013-0.196-0.019-0.342-0.019-0.438c0-0.136,0.008-0.313,0.024-0.533
							c0.016-0.221,0.056-0.452,0.12-0.696c0.063-0.244,0.159-0.49,0.288-0.738c0.127-0.248,0.302-0.472,0.521-0.672
							s0.494-0.361,0.822-0.486c0.328-0.124,0.728-0.186,1.2-0.186c0.607,0,1.094,0.106,1.458,0.318
							c0.363,0.212,0.644,0.478,0.84,0.798c0.195,0.319,0.328,0.67,0.396,1.05c0.068,0.38,0.11,0.734,0.126,1.062
							c0,0.049,0.002,0.099,0.006,0.15s0.007,0.102,0.007,0.15h-4.692c0,0.264,0.036,0.532,0.108,0.804
							c0.071,0.271,0.184,0.518,0.336,0.738c0.151,0.22,0.35,0.401,0.594,0.546c0.244,0.144,0.542,0.216,0.894,0.216
							c0.248,0,0.473-0.034,0.672-0.103c0.2-0.067,0.37-0.159,0.511-0.275c0.14-0.116,0.252-0.25,0.336-0.402
							c0.084-0.151,0.142-0.312,0.174-0.479H580.971z M579.915,82.955c-0.009-0.2-0.036-0.42-0.084-0.66s-0.135-0.462-0.258-0.666
							c-0.125-0.204-0.295-0.374-0.511-0.51c-0.216-0.137-0.496-0.204-0.84-0.204c-0.384,0-0.7,0.07-0.948,0.21
							s-0.441,0.313-0.582,0.521c-0.14,0.208-0.233,0.431-0.281,0.666c-0.049,0.236-0.072,0.45-0.072,0.643H579.915z"/>
						<path fill="#585A5E" d="M585.818,80.915c-0.359,0.016-0.678,0.063-0.954,0.144c-0.275,0.08-0.512,0.204-0.708,0.372
							c-0.195,0.168-0.352,0.384-0.468,0.648c-0.116,0.264-0.186,0.588-0.21,0.972c-0.008,0.112-0.012,0.22-0.012,0.324
							c0,0.104,0,0.212,0,0.324v2.808h-1.057v-6.096h1.057v1.176h0.023c0.072-0.224,0.179-0.422,0.318-0.594s0.3-0.316,0.48-0.433
							c0.18-0.115,0.373-0.206,0.582-0.27c0.207-0.064,0.42-0.101,0.636-0.108l0.312-0.012V80.915z"/>
						<path fill="#585A5E" d="M590.811,80.411h1.128l-2.256,6.096h-1.2l-2.256-6.096h1.128l1.728,5.04L590.811,80.411z"/>
						<path fill="#585A5E" d="M592.754,78.106h1.057v1.104h-1.057V78.106z M593.811,80.411v6.096h-1.057v-6.096H593.811z"/>
						<path fill="#585A5E" d="M600.794,84.334c-0.016,0.184-0.062,0.412-0.138,0.684c-0.076,0.272-0.208,0.536-0.396,0.792
							c-0.188,0.257-0.452,0.477-0.792,0.66s-0.781,0.276-1.325,0.276c-0.104,0-0.248-0.008-0.433-0.024
							c-0.184-0.016-0.388-0.056-0.611-0.12c-0.225-0.063-0.45-0.166-0.679-0.306c-0.228-0.14-0.434-0.332-0.618-0.576
							c-0.184-0.244-0.336-0.554-0.456-0.93c-0.119-0.376-0.18-0.836-0.18-1.38c0-0.353,0.04-0.721,0.12-1.104
							s0.228-0.733,0.444-1.05c0.216-0.316,0.512-0.576,0.888-0.78s0.859-0.306,1.452-0.306c0.432,0,0.808,0.058,1.128,0.174
							c0.319,0.116,0.588,0.274,0.804,0.474c0.216,0.2,0.386,0.429,0.51,0.685s0.202,0.528,0.234,0.815h-1.008
							c-0.057-0.336-0.156-0.6-0.3-0.792c-0.145-0.191-0.301-0.331-0.469-0.42c-0.168-0.088-0.334-0.142-0.498-0.161
							c-0.164-0.021-0.29-0.03-0.378-0.03c-0.328,0-0.607,0.065-0.84,0.198c-0.231,0.132-0.42,0.31-0.563,0.533
							c-0.145,0.225-0.248,0.488-0.312,0.792c-0.063,0.305-0.096,0.629-0.096,0.973s0.036,0.672,0.108,0.983
							c0.071,0.312,0.182,0.588,0.329,0.828c0.148,0.24,0.343,0.431,0.582,0.57c0.24,0.14,0.528,0.21,0.864,0.21
							c0.296,0,0.546-0.056,0.75-0.168s0.37-0.25,0.498-0.414s0.22-0.344,0.276-0.54c0.056-0.196,0.088-0.378,0.096-0.546H600.794z"
							/>
						<path fill="#585A5E" d="M607.49,84.743c-0.041,0.216-0.114,0.441-0.223,0.678c-0.107,0.236-0.264,0.452-0.468,0.647
							c-0.204,0.196-0.466,0.358-0.786,0.486s-0.716,0.192-1.188,0.192c-0.504,0-0.931-0.068-1.278-0.204s-0.636-0.311-0.864-0.522
							c-0.228-0.212-0.406-0.445-0.534-0.702c-0.128-0.256-0.222-0.504-0.281-0.743c-0.061-0.24-0.097-0.458-0.108-0.654
							s-0.018-0.342-0.018-0.438c0-0.136,0.008-0.313,0.023-0.533c0.017-0.221,0.056-0.452,0.12-0.696s0.16-0.49,0.288-0.738
							s0.302-0.472,0.522-0.672c0.22-0.2,0.493-0.361,0.821-0.486c0.328-0.124,0.729-0.186,1.2-0.186
							c0.608,0,1.094,0.106,1.458,0.318s0.644,0.478,0.84,0.798c0.196,0.319,0.328,0.67,0.396,1.05
							c0.067,0.38,0.109,0.734,0.126,1.062c0,0.049,0.002,0.099,0.006,0.15s0.006,0.102,0.006,0.15h-4.692
							c0,0.264,0.036,0.532,0.108,0.804s0.184,0.518,0.336,0.738c0.152,0.22,0.35,0.401,0.594,0.546
							c0.244,0.144,0.542,0.216,0.895,0.216c0.248,0,0.472-0.034,0.672-0.103c0.2-0.067,0.37-0.159,0.51-0.275
							s0.252-0.25,0.336-0.402c0.084-0.151,0.143-0.312,0.174-0.479H607.49z M606.434,82.955c-0.008-0.2-0.036-0.42-0.084-0.66
							s-0.134-0.462-0.258-0.666s-0.294-0.374-0.51-0.51c-0.216-0.137-0.496-0.204-0.84-0.204c-0.385,0-0.7,0.07-0.948,0.21
							s-0.442,0.313-0.582,0.521c-0.141,0.208-0.234,0.431-0.282,0.666c-0.048,0.236-0.072,0.45-0.072,0.643H606.434z"/>
						<path fill="#585A5E" d="M617.21,86.506h-5.688c0-0.504,0.07-0.939,0.211-1.308s0.34-0.696,0.598-0.984
							c0.257-0.288,0.561-0.552,0.91-0.792c0.351-0.24,0.73-0.488,1.141-0.744c0.177-0.111,0.365-0.231,0.566-0.36
							c0.201-0.127,0.389-0.279,0.562-0.455c0.173-0.177,0.315-0.383,0.428-0.618c0.112-0.236,0.169-0.515,0.169-0.834
							c0-0.528-0.156-0.929-0.47-1.2c-0.312-0.272-0.723-0.408-1.229-0.408c-0.537,0-0.963,0.152-1.276,0.456
							c-0.312,0.304-0.47,0.708-0.47,1.212v0.312h-1.115v-0.252c0-0.192,0.029-0.438,0.09-0.738c0.06-0.3,0.189-0.594,0.39-0.882
							s0.49-0.536,0.87-0.744s0.89-0.312,1.53-0.312c0.432,0,0.819,0.059,1.164,0.175c0.344,0.115,0.638,0.281,0.882,0.497
							c0.244,0.217,0.432,0.482,0.563,0.799c0.133,0.315,0.198,0.674,0.198,1.073c0,0.393-0.048,0.729-0.144,1.009
							c-0.097,0.279-0.252,0.54-0.469,0.779c-0.216,0.24-0.496,0.479-0.84,0.714c-0.344,0.236-0.76,0.511-1.248,0.822
							c-0.567,0.36-0.983,0.681-1.248,0.96c-0.264,0.28-0.436,0.572-0.516,0.876h4.44V86.506z"/>
					</g>
				</g>
			</g>
		</g>
		<polyline fill="none" stroke="#585A5E" stroke-miterlimit="10" stroke-dasharray="2" points="592.328,101.546 592.328,128.435 
			298.275,128.435 298.275,101.546 		"/>
	</g>
</g>
</svg>
