<svg xmlns="http://www.w3.org/2000/svg" viewBox="0 0 764 448"><path fill="none" stroke="#333" d="M78.4 223.5v82.9"/><g transform="translate(435 725.5)" fill="#FFF" stroke="#4D4D4D"><circle stroke-miterlimit="10" cx="-356.6" cy="-419.1" r="5"/><circle stroke-width=".7" cx="-356.6" cy="-419.1" r="4.7"/></g><path fill="none" stroke="#333" d="M230 223.5v82.9"/><g transform="translate(680 725.5)" fill="#FFF" stroke="#4D4D4D"><circle stroke-miterlimit="10" cx="-450" cy="-419.1" r="5"/><circle stroke-width=".7" cx="-450" cy="-419.1" r="4.7"/></g><path fill="none" stroke="#333" d="M381.6 223.5v82.9"/><g transform="translate(933 725.5)" fill="#FFF" stroke="#4D4D4D"><circle stroke-miterlimit="10" cx="-551.4" cy="-419.1" r="5"/><circle stroke-width=".7" cx="-551.4" cy="-419.1" r="4.7"/></g><path fill="none" stroke="#333" d="M533.2 223.5v82.9"/><g transform="translate(1204 725.5)" fill="#FFF" stroke="#4D4D4D"><circle stroke-miterlimit="10" cx="-670.8" cy="-419.1" r="5"/><circle stroke-width=".7" cx="-670.8" cy="-419.1" r="4.7"/></g><path fill="none" stroke="#333" d="M684.7 223.5v82.9"/><g transform="translate(1475 725.5)" fill="#FFF" stroke="#4D4D4D"><circle stroke-miterlimit="10" cx="-790.3" cy="-419.1" r="5"/><circle stroke-width=".7" cx="-790.3" cy="-419.1" r="4.7"/></g><path fill="#FF7300" stroke="#FF7300" d="M9.2 10.3H754V234H9.2z"/><g fill="#FFF"><path d="M293.4 42.6V28.4h4.9c1.6 0 2.8.3 3.6 1s1.3 1.6 1.3 2.9c0 .6-.2 1.2-.5 1.7s-.9 1-1.6 1.2a3.1 3.1 0 0 1 2.4 3.3c0 1.3-.4 2.3-1.2 3s-2.1 1.1-3.7 1.1h-5.2zm2.5-8.2h2.4c.7 0 1.3-.2 1.8-.5s.6-.9.6-1.5c0-.7-.2-1.2-.6-1.5s-1-.5-1.8-.5h-2.4v4zm0 1.8v4.5h2.7c.8 0 1.4-.2 1.8-.6s.7-1 .7-1.6c0-1.5-.8-2.3-2.3-2.3h-3zM312.5 42.6l-.3-1c-.7.8-1.7 1.2-2.8 1.2-1 0-1.9-.3-2.6-.9s-1-1.3-1-2.2c0-1.2.5-2 1.3-2.6s2-1 3.6-1h1.4v-.6c0-.6-.1-1-.4-1.3s-.8-.5-1.4-.5c-.6 0-1 .1-1.3.4s-.6.6-.6 1h-2.3c0-.6.2-1.1.5-1.6s1-1 1.6-1.2 1.4-.4 2.2-.4c1.3 0 2.2.3 3 1s1 1.4 1.1 2.5v4.8c0 1 .1 1.7.4 2.3v.1h-2.4zm-2.6-1.7c.4 0 .9 0 1.3-.3s.7-.6 1-1v-2h-1.3c-1 0-1.6.2-2 .5s-.7.8-.7 1.3.2.8.5 1.1.7.4 1.2.4zM320 42.6h-2.5v-15h2.4v15zM325.4 42.6h-2.3v-15h2.3v15zM333 42.8c-1.4 0-2.7-.4-3.6-1.4s-1.4-2.2-1.4-3.8v-.3c0-1 .2-2 .6-2.8s1-1.5 1.7-2 1.6-.6 2.5-.6c1.4 0 2.5.4 3.3 1.3s1.2 2.3 1.2 4v.9h-6.9c0 .9.4 1.6.9 2s1.1.8 1.9.8c1 0 2-.4 2.7-1.3l1.2 1.2c-.4.7-1 1.2-1.7 1.5s-1.5.5-2.3.5zm-.2-9c-.7 0-1.2.2-1.6.7s-.7 1-.8 1.9h4.6v-.2c0-.8-.3-1.4-.7-1.8s-.9-.6-1.5-.6zM345 34.2h-.9c-1 0-1.8.4-2.2 1.2v7.2h-2.4V32.1h2.3v1.1c.6-.9 1.4-1.3 2.4-1.3l.9.1v2.2zM347 29.3c0-.3 0-.6.3-.9s.6-.3 1-.3.8 0 1 .3.4.6.4 1c0 .3-.2.6-.4.8s-.6.4-1 .4-.7-.1-1-.4-.3-.5-.3-.9zm2.5 13.3h-2.4V32.1h2.4v10.5zM354.7 32v1.3c.8-1 1.9-1.4 3.1-1.4 2.2 0 3.3 1.2 3.4 3.8v7h-2.4v-7c0-.6-.1-1-.4-1.4s-.8-.5-1.4-.5c-1 0-1.7.4-2.2 1.3v7.5h-2.4V32.1h2.3zM370.3 42.6l-.3-1c-.7.8-1.6 1.2-2.7 1.2-1 0-2-.3-2.6-.9s-1-1.3-1-2.2c0-1.2.4-2 1.2-2.6s2-1 3.6-1h1.5v-.6c0-.6-.2-1-.5-1.3s-.8-.5-1.4-.5c-.5 0-1 .1-1.3.4s-.5.6-.5 1h-2.4c0-.6.2-1.1.6-1.6s.9-1 1.5-1.2 1.4-.4 2.2-.4c1.3 0 2.3.3 3 1s1.1 1.4 1.1 2.5v4.8c0 1 .2 1.7.4 2.3v.1h-2.4zm-2.6-1.7c.5 0 1 0 1.3-.3s.8-.6 1-1v-2h-1.3c-.9 0-1.6.2-2 .5s-.7.8-.7 1.3.2.8.5 1.1.7.4 1.2.4zM383.4 42.6H381V28.4h2.4v14.2zM388.9 32v1.3c.8-1 1.8-1.4 3.1-1.4 2.2 0 3.3 1.2 3.4 3.8v7H393v-7c0-.6-.2-1-.5-1.4s-.7-.5-1.4-.5c-1 0-1.6.4-2.1 1.3v7.5h-2.4V32.1h2.3zM401.1 29.5v2.6h2v1.7h-2v6c0 .3.1.6.3.8s.4.3.8.3l.9-.1v1.8c-.6.2-1 .2-1.6.2-1.8 0-2.7-1-2.7-3v-6H397v-1.7h1.8v-2.6h2.3zM409.9 42.8c-1.5 0-2.7-.4-3.7-1.4s-1.4-2.2-1.4-3.8v-.3c0-1 .2-2 .6-2.8s1-1.5 1.7-2 1.6-.6 2.5-.6c1.4 0 2.6.4 3.3 1.3s1.2 2.3 1.2 4v.9h-6.9c0 .9.4 1.6.9 2s1.1.8 2 .8c1 0 1.9-.4 2.6-1.3l1.3 1.2c-.5.7-1 1.2-1.7 1.5s-1.5.5-2.4.5zm-.3-9c-.7 0-1.2.2-1.6.7s-.6 1-.8 1.9h4.6v-.2c0-.8-.3-1.4-.7-1.8s-.8-.6-1.5-.6zM416 37.3c0-1.7.3-3 1.1-4s1.8-1.4 3-1.4c1.3 0 2.2.4 3 1.2v-1h2.2v10.2c0 1.4-.5 2.5-1.3 3.3s-2 1.2-3.5 1.2c-.8 0-1.6-.2-2.3-.5s-1.3-.7-1.7-1.3l1.1-1.4c.8.9 1.7 1.3 2.7 1.3.8 0 1.4-.2 1.9-.6s.7-1 .7-1.9v-.7c-.7.7-1.6 1.1-2.8 1.1-1.2 0-2.2-.5-3-1.4S416 39 416 37.3zm2.3.2c0 1 .2 1.9.7 2.5s1 .9 1.8.9c1 0 1.6-.4 2-1.2V35a2.2 2.2 0 0 0-2-1.2c-.8 0-1.4.3-1.8 1s-.7 1.5-.7 2.7zM433.6 34.2h-1c-1 0-1.8.4-2.1 1.2v7.2H428V32.1h2.3v1.1c.6-.9 1.4-1.3 2.4-1.3l.8.1v2.2zM441.5 42.6l-.2-1c-.8.8-1.7 1.2-2.8 1.2-1 0-2-.3-2.6-.9s-1-1.3-1-2.2c0-1.2.4-2 1.3-2.6s2-1 3.5-1h1.5v-.6c0-.6-.2-1-.5-1.3s-.7-.5-1.4-.5c-.5 0-1 .1-1.3.4s-.5.6-.5 1H435c0-.6.2-1.1.6-1.6s.9-1 1.6-1.2 1.4-.4 2.2-.4c1.2 0 2.2.3 3 1s1 1.4 1 2.5v4.8c0 1 .2 1.7.5 2.3v.1h-2.5zM439 41c.5 0 1 0 1.4-.3s.7-.6.9-1v-2h-1.3c-.9 0-1.5.2-2 .5s-.6.8-.6 1.3.1.8.4 1.1.7.4 1.2.4zM449.4 29.5v2.6h1.9v1.7h-1.9v6c0 .3.1.6.3.8s.4.3.8.3l.8-.1v1.8c-.5.2-1 .2-1.5.2-1.8 0-2.7-1-2.7-3v-6h-1.8v-1.7h1.8v-2.6h2.3zM452.8 37.3c0-1 .2-2 .6-2.8s1-1.5 1.7-2 1.6-.6 2.6-.6c1.4 0 2.6.4 3.4 1.3s1.4 2.2 1.5 3.7v.6c0 1-.2 2-.6 2.8s-1 1.4-1.7 1.9-1.6.6-2.6.6c-1.5 0-2.7-.5-3.6-1.5s-1.3-2.3-1.3-4zm2.3.2c0 1 .3 1.9.7 2.5s1 1 1.9 1 1.4-.4 1.9-1 .6-1.5.6-2.7c0-1.1-.2-2-.7-2.6s-1-1-1.8-1-1.4.4-1.9 1-.7 1.5-.7 2.8zM470.5 34.2h-1c-1 0-1.8.4-2.1 1.2v7.2H465V32.1h2.3v1.1c.6-.9 1.4-1.3 2.4-1.3l.8.1v2.2z"/></g><g fill="#FFF"><path d="M25.7 63.9H291v154.9H25.7z"/><path d="M26 64.2h264.6v154.2H26z"/></g><g fill="#1A1A1A"><path d="M105.8 134.8v-11.4h3.7c1.2 0 2.2.3 2.8.8.6.5 1 1.3 1 2.3 0 .5-.2 1-.5 1.4a3 3 0 0 1-1.3 1c.6.1 1.1.4 1.5 1 .3.4.5 1 .5 1.6a3 3 0 0 1-1 2.4c-.6.6-1.6 1-2.8 1h-4zm1.5-6.5h2.2c.7 0 1.2-.2 1.6-.5.4-.3.6-.8.6-1.3 0-.7-.2-1.1-.5-1.4-.4-.3-1-.4-1.7-.4h-2.2v3.6zm0 1.2v4h2.5c.7 0 1.2-.1 1.6-.5.4-.3.6-.8.6-1.5 0-1.3-.7-2-2.2-2h-2.5zM121 134.8a3 3 0 0 1-.2-.9c-.6.7-1.4 1-2.4 1a3 3 0 0 1-2-.6c-.5-.5-.8-1.1-.8-1.8 0-1 .3-1.6 1-2 .7-.6 1.6-.8 2.8-.8h1.4v-.7c0-.5-.1-.9-.4-1.2-.3-.3-.8-.4-1.4-.4-.5 0-1 .1-1.3.4-.3.2-.5.5-.5.9h-1.4c0-.4.1-.8.4-1.2a3 3 0 0 1 1.2-1c.5-.2 1.1-.3 1.7-.3 1 0 1.8.2 2.3.7.6.5.8 1.2.9 2v4c0 .7 0 1.3.3 1.8v.1H121zm-2.3-1c.4 0 .8-.2 1.2-.4s.7-.6 1-1v-1.7h-1.2c-1.8 0-2.7.5-2.7 1.6 0 .4.2.8.5 1 .3.3.7.4 1.2.4zM126.4 134.8H125v-12h1.4v12zM130.6 134.8h-1.4v-12h1.4v12zM136.8 135c-1.2 0-2.1-.4-2.8-1.2-.7-.7-1.1-1.7-1.1-3v-.2c0-.9.2-1.6.5-2.3.3-.7.7-1.2 1.3-1.5.6-.4 1.2-.6 1.9-.6 1 0 2 .4 2.6 1 .6.8.9 1.8.9 3.2v.6h-5.8c0 .8.3 1.5.8 2 .4.5 1 .8 1.7.8.6 0 1-.1 1.3-.3l1-.8.9.6c-.8 1.1-1.8 1.7-3.2 1.7zm-.2-7.6a2 2 0 0 0-1.5.6 3 3 0 0 0-.7 1.8h4.2v-.1c0-.7-.2-1.3-.6-1.7-.3-.4-.8-.6-1.4-.6zM146.1 127.7l-.7-.1c-1 0-1.6.4-1.9 1.2v6h-1.4v-8.4h1.4v1c.5-.8 1.1-1.2 2-1.2l.6.1v1.4zM147.8 124.1c0-.2 0-.4.2-.6l.7-.2c.3 0 .4 0 .6.2l.2.6c0 .2 0 .4-.2.6-.2.2-.4.2-.6.2l-.7-.2a.8.8 0 0 1-.2-.6zm1.6 10.7h-1.5v-8.4h1.5v8.4zM153.4 126.4v1a3 3 0 0 1 2.5-1.2c1.8 0 2.7 1 2.7 3v5.6h-1.4v-5.6c0-.6-.1-1-.4-1.3-.3-.3-.7-.5-1.3-.5a2 2 0 0 0-1.2.4c-.4.3-.7.6-.9 1v6H152v-8.4h1.4zM166.4 134.8a3 3 0 0 1-.2-.9c-.7.7-1.5 1-2.4 1a3 3 0 0 1-2.1-.6c-.5-.5-.8-1.1-.8-1.8 0-1 .3-1.6 1-2 .7-.6 1.6-.8 2.8-.8h1.4v-.7c0-.5-.1-.9-.4-1.2-.3-.3-.8-.4-1.4-.4-.5 0-.9.1-1.2.4-.4.2-.6.5-.6.9h-1.4c0-.4.1-.8.4-1.2a3 3 0 0 1 1.2-1c.6-.2 1.1-.3 1.7-.3 1 0 1.8.2 2.3.7.6.5.9 1.2.9 2v4c0 .7 0 1.3.3 1.8v.1h-1.5zm-2.4-1c.4 0 .8-.2 1.3-.4s.7-.6.8-1v-1.7H165c-1.8 0-2.7.5-2.7 1.6 0 .4.2.8.5 1 .3.3.7.4 1.2.4zM183 131.2a4.2 4.2 0 0 1-1.3 2.8c-.7.6-1.7 1-3 1a4 4 0 0 1-3.2-1.5c-.8-1-1.2-2.2-1.2-3.8v-1.1c0-1 .2-2 .6-2.8a4.2 4.2 0 0 1 4-2.5c1.2 0 2.1.3 2.9 1 .7.7 1.1 1.6 1.2 2.8h-1.5c-.1-1-.4-1.6-.8-2-.4-.4-1-.6-1.8-.6-1 0-1.7.4-2.3 1-.5.8-.8 1.8-.8 3.1v1.1a5 5 0 0 0 .8 3c.5.7 1.2 1 2.1 1 .9 0 1.5-.1 2-.5.4-.4.7-1 .8-2h1.5zM184.8 130.5c0-.8.2-1.6.5-2.2a3.6 3.6 0 0 1 3.3-2.1c1.2 0 2.1.4 2.8 1.2s1 1.9 1 3.2a5 5 0 0 1-.4 2.3 3.6 3.6 0 0 1-3.4 2c-1.1 0-2-.3-2.7-1.1s-1.1-1.9-1.1-3.2zm1.5.2c0 1 .2 1.7.6 2.2.4.6 1 .9 1.8.9a2 2 0 0 0 1.7-.9 4 4 0 0 0 .6-2.4c0-1-.2-1.7-.6-2.2-.5-.6-1-1-1.8-1a2 2 0 0 0-1.7 1 4 4 0 0 0-.6 2.4zM198.7 127.7l-.7-.1c-1 0-1.6.4-2 1.2v6h-1.4v-8.4h1.4v1c.5-.8 1.2-1.2 2-1.2l.7.1v1.4zM203.7 135c-1.1 0-2-.4-2.8-1.2-.7-.7-1-1.7-1-3v-.2c0-.9.1-1.6.4-2.3.3-.7.8-1.2 1.4-1.5.5-.4 1.2-.6 1.8-.6 1.1 0 2 .4 2.6 1 .6.8 1 1.8 1 3.2v.6h-5.8c0 .8.3 1.5.7 2 .5.5 1 .8 1.8.8.5 0 1-.1 1.3-.3l1-.8.8.6c-.7 1.1-1.8 1.7-3.2 1.7zm-.2-7.6a2 2 0 0 0-1.4.6 3 3 0 0 0-.8 1.8h4.3v-.1c0-.7-.3-1.3-.6-1.7-.4-.4-.9-.6-1.5-.6z"/><g><path d="M51.4 153.7c0-1 .2-2 .4-3s.7-1.8 1.3-2.6 1-1.3 1.7-1.6l.2.8c-.6.5-1.2 1.3-1.6 2.3s-.7 2.3-.7 3.6v.5c0 1.8.3 3.3 1 4.6.3.8.8 1.4 1.3 1.8l-.2.8c-.6-.3-1.2-.9-1.8-1.7a9.5 9.5 0 0 1-1.6-5.5zM62.2 147.8l3.2 8 3.3-8h1.7v10H69v-8.2l-3.2 8.1h-1l-3.2-8v8.1h-1.2v-10h1.7zM72.8 148.3c0-.2 0-.3.2-.5s.3-.2.5-.2l.6.2.2.5c0 .2 0 .4-.2.6s-.3.2-.6.2-.4-.1-.5-.2l-.2-.6zm1.3 9.4H73v-7.4H74v7.4zM79.4 156.8c.5 0 .9-.1 1.2-.4s.5-.6.6-1h1.2c0 .4-.2.8-.5 1.2s-.6.7-1 .9-1 .3-1.5.3c-1 0-1.8-.3-2.4-1s-.9-1.6-.9-2.7v-.2c0-.8.2-1.4.4-2s.7-1 1.2-1.3 1-.4 1.7-.4c.8 0 1.5.2 2 .7s1 1.2 1 2h-1.2c0-.5-.3-1-.6-1.2s-.7-.5-1.2-.5c-.6 0-1.1.2-1.5.7s-.5 1.1-.5 2v.3c0 .8.2 1.5.5 2s.9.6 1.5.6zM87.6 151.4H87c-.8 0-1.4.4-1.7 1v5.3h-1.2v-7.4h1.2v.9c.4-.7 1-1 1.8-1h.5v1.2zM88.6 154c0-.8.1-1.4.4-2s.7-1 1.2-1.4 1.1-.4 1.8-.4c1 0 1.8.3 2.4 1s1 1.6 1 2.8c0 .8-.2 1.5-.5 2s-.6 1-1.2 1.4-1 .4-1.7.4c-1 0-1.8-.3-2.5-1s-.9-1.6-.9-2.8zm1.3 0c0 1 .2 1.6.5 2s1 .8 1.6.8c.6 0 1.1-.2 1.5-.7s.6-1.3.6-2.2c0-.8-.2-1.4-.6-2s-.9-.7-1.5-.7c-.7 0-1.2.3-1.6.8s-.5 1.2-.5 2zM101.5 155.7c0-.3-.1-.6-.4-.7l-1.3-.5-1.5-.5c-.3-.2-.7-.4-.9-.7s-.2-.6-.2-1c0-.6.2-1 .7-1.5s1.2-.6 2-.6 1.5.2 2 .6.8 1 .8 1.7h-1.3c0-.4-.1-.7-.4-1s-.7-.3-1.1-.3c-.5 0-.8.1-1 .3s-.5.5-.5.8c0 .3.1.5.4.7l1.3.4 1.5.5.9.7c.2.2.3.7.3 1 0 .7-.3 1.2-.8 1.6s-1.2.6-2 .6c-.7 0-1.2 0-1.6-.3s-.9-.5-1.1-.8-.4-.8-.4-1.3h1.3c0 .5.2.8.5 1s.7.4 1.2.4.9 0 1.2-.3.4-.4.4-.8zM107.8 157.8c-1 0-1.8-.3-2.5-1s-1-1.5-1-2.6v-.2c0-.8.2-1.4.5-2s.7-1 1.2-1.3 1-.5 1.6-.5c1 0 1.7.3 2.3 1s.8 1.5.8 2.6v.6h-5c0 .7.2 1.3.6 1.7s1 .7 1.5.7.9 0 1.2-.3l.8-.7.8.6c-.7 1-1.6 1.4-2.8 1.4zm-.2-6.6c-.5 0-1 .2-1.3.6s-.5.9-.6 1.5h3.7c0-.7-.2-1.2-.5-1.6s-.8-.5-1.3-.5zM116 151.4h-.6c-.9 0-1.4.4-1.7 1v5.3h-1.3v-7.4h1.2v.9c.5-.7 1-1 1.8-1h.6v1.2zM120 156l1.8-5.7h1.3l-2.6 7.4h-1l-2.7-7.4h1.3l1.9 5.7zM124.6 148.3c0-.2 0-.3.2-.5s.3-.2.6-.2.4 0 .5.2l.2.5c0 .2 0 .4-.2.6s-.3.2-.5.2l-.6-.2a.8.8 0 0 1-.2-.6zm1.4 9.4h-1.3v-7.4h1.3v7.4zM131.2 156.8c.5 0 .9-.1 1.2-.4s.6-.6.6-1h1.2c0 .4-.2.8-.5 1.2s-.6.7-1 .9-1 .3-1.5.3c-1 0-1.8-.3-2.4-1s-.8-1.6-.8-2.7v-.2c0-.8 0-1.4.3-2a3 3 0 0 1 3-1.7c.8 0 1.5.2 2 .7s.8 1.2.9 2H133c0-.5-.2-1-.6-1.2s-.7-.5-1.2-.5c-.6 0-1.1.2-1.5.7s-.5 1.1-.5 2v.3c0 .8.2 1.5.5 2s.9.6 1.5.6zM139 157.8c-1 0-1.9-.3-2.5-1s-1-1.5-1-2.6v-.2c0-.8.2-1.4.5-2s.7-1 1.2-1.3 1-.5 1.6-.5c1 0 1.7.3 2.2 1s.8 1.5.8 2.6v.6h-5c0 .7.3 1.3.7 1.7s.9.7 1.5.7c.5 0 .9 0 1.2-.3l.8-.7.7.6c-.6 1-1.5 1.4-2.7 1.4zm-.2-6.6c-.5 0-1 .2-1.3.6s-.5.9-.6 1.5h3.7c0-.7-.2-1.2-.5-1.6s-.8-.5-1.3-.5zM147.9 155.7c0-.3-.1-.6-.4-.7l-1.3-.5-1.6-.5c-.4-.2-.6-.4-.8-.7s-.3-.6-.3-1c0-.6.3-1 .8-1.5s1.2-.6 2-.6 1.5.2 2 .6.8 1 .8 1.7h-1.3c0-.4-.1-.7-.4-1s-.7-.3-1.1-.3c-.5 0-.9.1-1.1.3s-.4.5-.4.8c0 .3.1.5.4.7l1.3.4c.7.1 1.1.3 1.5.5l.9.7c.2.2.3.7.3 1 0 .7-.3 1.2-.8 1.6s-1.2.6-2 .6c-.7 0-1.2 0-1.7-.3s-.8-.5-1-.8-.4-.8-.4-1.3h1.2c0 .5.2.8.6 1s.7.4 1.2.4.9 0 1.2-.3.4-.4.4-.8zM151 159.7l-.7-.5c.5-.6.7-1.2.7-1.8v-1.2h1.2v1c0 .5 0 1-.3 1.4s-.5.8-.9 1zM158 157.7v-10h2.9c.8 0 1.6.2 2.3.6s1.1 1 1.5 1.7.6 1.5.6 2.4v.6c0 1-.2 1.8-.6 2.5s-.9 1.2-1.5 1.6-1.5.6-2.4.6h-2.7zm1.4-8.9v7.8h1.3a3 3 0 0 0 2.4-1c.6-.5.9-1.4.9-2.6v-.6a4 4 0 0 0-.8-2.6c-.6-.6-1.3-1-2.3-1h-1.5zM171.9 157.7l-.2-.8c-.6.6-1.3 1-2.1 1-.7 0-1.3-.3-1.8-.7s-.7-1-.7-1.5c0-.8.3-1.4.9-1.8s1.4-.7 2.5-.7h1.2v-.6c0-.4-.1-.8-.4-1a2 2 0 0 0-2.3 0c-.3.2-.5.4-.5.8h-1.2c0-.4 0-.8.3-1.1s.7-.6 1.1-.8 1-.3 1.5-.3c.8 0 1.5.2 2 .6s.7 1 .8 1.8v3.4c0 .7 0 1.2.2 1.6v.1H172zm-2.1-1c.4 0 .8 0 1.1-.3s.6-.4.8-.8v-1.5h-1c-1.6 0-2.3.5-2.3 1.4 0 .4.1.7.4 1s.6.2 1 .2zM177 148.5v1.8h1.3v1H177v4.6c0 .3 0 .5.2.6.1.2.3.3.6.3l.6-.1v1l-1 .1c-.5 0-1-.1-1.2-.5s-.4-.8-.4-1.4v-4.6h-1.4v-1h1.4v-1.8h1.2zM184.6 157.7l-.1-.8c-.6.6-1.3 1-2.1 1s-1.4-.3-1.8-.7-.7-1-.7-1.5c0-.8.2-1.4.8-1.8s1.4-.7 2.5-.7h1.2v-.6c0-.4-.1-.8-.4-1a2 2 0 0 0-2.3 0c-.3.2-.4.4-.4.8H180c0-.4.1-.8.4-1.1s.6-.6 1-.8 1-.3 1.5-.3c.9 0 1.6.2 2 .6s.8 1 .8 1.8v3.4c0 .7 0 1.2.3 1.6v.1h-1.4zm-2-1c.3 0 .7 0 1-.3s.7-.4.8-.8v-1.5h-1c-1.5 0-2.3.5-2.3 1.4 0 .4.2.7.4 1s.6.2 1 .2zM193.3 157.7H192v-10h1.3v10zM197 150.3v1c.6-.8 1.3-1.1 2.2-1.1 1.6 0 2.4.9 2.4 2.6v5h-1.3v-5c0-.5 0-1-.3-1.2a1.9 1.9 0 0 0-2.2 0c-.3.2-.6.5-.7.8v5.3h-1.3v-7.4h1.2zM205.5 148.5v1.8h1.4v1h-1.4v4.6c0 .3 0 .5.2.6.1.2.3.3.6.3l.6-.1v1l-1 .1c-.5 0-1-.1-1.2-.5s-.4-.8-.4-1.4v-4.6h-1.4v-1h1.4v-1.8h1.2zM211.7 157.8c-1 0-1.8-.3-2.4-1s-1-1.5-1-2.6v-.2c0-.8.2-1.4.5-2s.6-1 1.1-1.3 1-.5 1.7-.5c1 0 1.7.3 2.2 1s.8 1.5.8 2.6v.6h-5c0 .7.2 1.3.6 1.7s1 .7 1.6.7c.4 0 .8 0 1.1-.3l.8-.7.8.6c-.6 1-1.5 1.4-2.8 1.4zm-.1-6.6c-.5 0-1 .2-1.3.6s-.6.9-.7 1.5h3.7c0-.7-.2-1.2-.5-1.6s-.7-.5-1.2-.5zM216 154c0-1.2.3-2.1.8-2.8s1.3-1 2.2-1c.9 0 1.6.3 2 1l.1-.9h1.2v7.2c0 1-.3 1.7-.9 2.3s-1.3.8-2.2.8c-.6 0-1.1 0-1.6-.3s-1-.6-1.2-1l.7-.7c.5.7 1.2 1 2 1 .6 0 1-.2 1.4-.5s.5-.9.5-1.5v-.6c-.5.6-1.2.8-2 .8-1 0-1.6-.3-2.1-1s-.9-1.6-.9-2.9zm1.3 0c0 1 .2 1.6.5 2s.9.8 1.5.8c.8 0 1.4-.4 1.7-1.1v-3.4c-.4-.7-1-1-1.7-1-.6 0-1.1.2-1.5.7s-.5 1.2-.5 2zM228 151.4h-.6c-.8 0-1.4.4-1.7 1v5.3h-1.2v-7.4h1.2v.9c.5-.7 1-1 1.8-1h.6v1.2zM233.8 157.7l-.2-.8c-.6.6-1.3 1-2 1-.8 0-1.4-.3-1.9-.7s-.7-1-.7-1.5c0-.8.3-1.4.9-1.8s1.4-.7 2.5-.7h1.2v-.6c0-.4-.1-.8-.4-1a2 2 0 0 0-2.3 0c-.3.2-.5.4-.5.8h-1.2c0-.4.1-.8.4-1.1s.6-.6 1-.8 1-.3 1.5-.3c.9 0 1.5.2 2 .6s.7 1 .8 1.8v3.4c0 .7 0 1.2.2 1.6v.1h-1.3zm-2.1-1c.4 0 .8 0 1.1-.3s.6-.4.8-.8v-1.5h-1c-1.5 0-2.3.5-2.3 1.4 0 .4.1.7.4 1s.6.2 1 .2zM238.8 148.5v1.8h1.4v1h-1.4v4.6l.2.6c.1.2.4.3.7.3l.6-.1v1l-1 .1c-.6 0-1-.1-1.3-.5s-.4-.8-.4-1.4v-4.6h-1.4v-1h1.4v-1.8h1.2zM242 148.3c0-.2 0-.3.2-.5s.3-.2.5-.2l.6.2.2.5c0 .2 0 .4-.2.6s-.3.2-.6.2-.4-.1-.5-.2l-.2-.6zm1.4 9.4H242v-7.4h1.3v7.4zM245.3 154c0-.8.2-1.4.4-2s.7-1 1.2-1.4 1.1-.4 1.8-.4c1 0 1.8.3 2.4 1s1 1.6 1 2.8c0 .8-.2 1.5-.5 2s-.6 1-1.1 1.4-1.1.4-1.8.4c-1 0-1.8-.3-2.4-1s-1-1.6-1-2.8zm1.3 0c0 1 .2 1.6.6 2s.9.8 1.5.8 1.1-.2 1.5-.7.6-1.3.6-2.2c0-.8-.2-1.4-.6-2s-.9-.7-1.5-.7-1.2.3-1.5.8-.6 1.2-.6 2zM255.1 150.3v1c.6-.8 1.4-1.1 2.3-1.1 1.5 0 2.3.9 2.3 2.6v5h-1.2v-5c0-.5-.2-1-.4-1.2s-.6-.4-1.1-.4c-.4 0-.8.2-1 .4l-.8.8v5.3h-1.3v-7.4h1.2zM264.8 153.7c0 1 0 2-.4 3s-.6 1.7-1.2 2.5-1.1 1.4-1.7 1.7l-.3-.8c.7-.5 1.3-1.3 1.7-2.5s.7-2.3.7-3.7v-.2c0-1-.1-1.9-.3-2.7s-.5-1.6-.9-2.2-.7-1.2-1.2-1.5l.3-.8c.6.3 1.2.9 1.7 1.6s1 1.7 1.2 2.6.4 2 .4 3z"/></g></g><g fill="#FFF"><path d="M299.7 63.9h219.5V111H299.7z"/><path d="M300.1 64.2h218.8v46.5H300.1z"/></g><g fill="#1A1A1A"><path d="M355.6 88c-1.2-.3-2.2-.8-2.8-1.3s-.8-1.2-.8-2c0-1 .3-1.6 1-2.2a4.7 4.7 0 0 1 4.9-.4c.6.2 1.1.7 1.4 1.2s.5 1.1.5 1.7h-1.5c0-.7-.2-1.2-.6-1.6s-1-.6-1.9-.6c-.7 0-1.3.2-1.7.5s-.6.8-.6 1.4c0 .4.2.8.6 1.1.4.4 1 .7 2 1 1 .2 1.7.5 2.2.8.5.3 1 .7 1.2 1.1.2.4.4 1 .4 1.5 0 1-.4 1.7-1.1 2.2s-1.7.9-2.9.9c-.8 0-1.5-.2-2.2-.5-.7-.3-1.2-.7-1.6-1.2a3 3 0 0 1-.5-1.8h1.5c0 .7.3 1.3.8 1.7s1.2.5 2 .5a3 3 0 0 0 1.8-.4c.4-.4.7-.8.7-1.4 0-.5-.2-1-.6-1.2s-1.1-.7-2.2-1zM363.8 82.6v2h1.6v1.2h-1.6V91l.2.8c.2.2.4.2.8.2h.7V93l-1.2.2c-.6 0-1-.2-1.4-.6s-.5-1-.5-1.7v-5.2h-1.5v-1.1h1.5v-2h1.4zM372.6 93.1a3 3 0 0 1-.2-.9c-.6.7-1.4 1-2.4 1a3 3 0 0 1-2-.6c-.6-.5-.8-1.1-.8-1.8 0-1 .3-1.6 1-2 .7-.6 1.6-.8 2.8-.8h1.4v-.7c0-.5-.1-.9-.4-1.2-.3-.3-.8-.4-1.4-.4-.5 0-1 .1-1.3.4-.3.2-.5.5-.5 1h-1.4c0-.5.1-1 .4-1.3a3 3 0 0 1 1.2-1c.5-.2 1.1-.3 1.7-.3 1 0 1.8.3 2.3.7.6.5.8 1.2.9 2v4c0 .7 0 1.3.3 1.8v.1h-1.6zm-2.4-1a2.7 2.7 0 0 0 2.2-1.3V89h-1.1c-1.8 0-2.7.5-2.7 1.6 0 .4.2.8.5 1 .3.3.7.4 1.1.4zM377.8 84.7v1a3 3 0 0 1 2.6-1.2c1.8 0 2.7 1 2.7 3v5.6h-1.4v-5.6c0-.6-.2-1-.5-1.3-.2-.3-.7-.5-1.2-.5a2 2 0 0 0-1.3.4l-.8 1v6h-1.5v-8.4h1.4zM385.2 88.8a5 5 0 0 1 1-3.1 3 3 0 0 1 2.4-1.2c1 0 1.8.3 2.3 1v-4.4h1.5v12H391v-.9a3 3 0 0 1-2.4 1c-1 0-1.8-.3-2.4-1.1a5 5 0 0 1-1-3.2zm1.5.2c0 1 .2 1.7.6 2.2.4.6 1 .8 1.6.8 1 0 1.6-.4 2-1.2V87a2.1 2.1 0 0 0-2-1.2 2 2 0 0 0-1.6.9c-.4.5-.6 1.3-.6 2.4zM400.2 93.1a3 3 0 0 1-.2-.9c-.7.7-1.5 1-2.5 1a3 3 0 0 1-2-.6c-.5-.5-.8-1.1-.8-1.8 0-1 .3-1.6 1-2 .7-.6 1.6-.8 2.8-.8h1.4v-.7c0-.5-.1-.9-.4-1.2-.3-.3-.8-.4-1.4-.4-.5 0-1 .1-1.3.4-.3.2-.5.5-.5 1H395c0-.5.1-1 .4-1.3a3 3 0 0 1 1.2-1c.6-.2 1.1-.3 1.7-.3 1 0 1.8.3 2.3.7.6.5.9 1.2.9 2v4c0 .7 0 1.3.3 1.8v.1h-1.5zm-2.4-1c.4 0 .8-.2 1.2-.4s.7-.6 1-1V89h-1.2c-1.8 0-2.7.5-2.7 1.6 0 .4.2.8.5 1 .3.3.7.4 1.2.4zM408 86h-.7c-1 0-1.6.3-1.9 1.1v6H404v-8.4h1.4v1c.5-.8 1.1-1.2 2-1.2l.6.1V86zM409.2 88.8a5 5 0 0 1 1-3.1 3 3 0 0 1 2.3-1.2c1 0 1.8.3 2.4 1v-4.4h1.4v12H415v-.9a3 3 0 0 1-2.5 1c-1 0-1.8-.3-2.4-1.1a5 5 0 0 1-.9-3.2zm1.4.2c0 1 .2 1.7.6 2.2.4.6 1 .8 1.7.8.9 0 1.6-.4 2-1.2V87a2.1 2.1 0 0 0-2-1.2 2 2 0 0 0-1.7.9c-.4.5-.6 1.3-.6 2.4zM424.7 93.1h-1.4v-12h1.4v12zM427.4 82.4c0-.2 0-.4.2-.6l.6-.2c.2 0 .5 0 .7.2l.2.6c0 .2 0 .5-.2.6-.2.2-.4.2-.7.2s-.5 0-.6-.2a.8.8 0 0 1-.2-.6zm1.5 10.7h-1.4v-8.4h1.4V93zM438.7 89a5 5 0 0 1-.9 3.1c-.6.8-1.3 1.2-2.3 1.2A3 3 0 0 1 433 92l-.1 1h-1.3v-12h1.4v4.5a3 3 0 0 1 2.4-1c1 0 1.9.3 2.5 1 .5.9.8 2 .8 3.3zm-1.4-.2a4 4 0 0 0-.6-2.3c-.4-.5-1-.8-1.6-.8-1 0-1.7.5-2 1.4v3.6c.4 1 1 1.3 2 1.3.7 0 1.2-.2 1.6-.8.4-.5.6-1.3.6-2.4zM445 86h-.8c-.9 0-1.5.3-1.9 1.1v6H441v-8.4h1.4v1c.5-.8 1.1-1.2 2-1.2l.7.1V86zM451.5 93.1a3 3 0 0 1-.2-.9c-.7.7-1.5 1-2.4 1a3 3 0 0 1-2-.6c-.6-.5-.8-1.1-.8-1.8 0-1 .3-1.6 1-2 .6-.6 1.6-.8 2.8-.8h1.4v-.7c0-.5-.2-.9-.5-1.2-.3-.3-.7-.4-1.3-.4-.5 0-1 .1-1.3.4-.3.2-.5.5-.5 1h-1.5c0-.5.2-1 .5-1.3a3 3 0 0 1 1.2-1c.5-.2 1-.3 1.7-.3 1 0 1.7.3 2.3.7.5.5.8 1.2.8 2v4c0 .7.1 1.3.3 1.8v.1h-1.5zm-2.4-1c.5 0 .9-.2 1.3-.4s.7-.6.9-1V89h-1.1c-1.8 0-2.7.5-2.7 1.6 0 .4.1.8.5 1 .3.3.6.4 1.1.4zM459.4 86h-.7c-1 0-1.6.3-2 1.1v6h-1.4v-8.4h1.4v1c.5-.8 1.2-1.2 2-1.2l.7.1V86zM464 91l2-6.3h1.5l-3.4 9.7c-.5 1.4-1.4 2.1-2.5 2.1h-.8v-1.3h.3a2 2 0 0 0 1.2-.2c.3-.2.5-.6.7-1.1l.3-.9-3-8.3h1.6l2 6.3z"/></g><g fill="#FFF"><path d="M299.8 117.7h219.5v47.1H299.8z"/><path d="M300 118.1H519v46.5H300z"/></g><g fill="#1A1A1A"><path d="M327.6 147H326v-11.4h1.5V147zM331.8 138.5v1.1a3 3 0 0 1 2.6-1.2c1.8 0 2.7 1 2.7 3v5.6h-1.5v-5.6c0-.6-.1-1-.4-1.4-.3-.2-.7-.4-1.3-.4a2 2 0 0 0-1.2.4c-.4.2-.6.6-.8 1v6h-1.5v-8.5h1.4zM341.5 136.5v2h1.6v1.2h-1.6v5.2l.2.8.8.2h.7v1c-.4.2-.8.2-1.2.2-.6 0-1-.2-1.4-.5s-.5-1-.5-1.7v-5.2h-1.5v-1.2h1.5v-2h1.4zM348.6 147.1c-1.1 0-2-.3-2.8-1-.7-.8-1-1.8-1-3.1v-.3c0-.8.1-1.6.4-2.2.4-.7.8-1.2 1.4-1.6.6-.3 1.2-.5 1.9-.5 1 0 1.9.3 2.5 1 .6.8 1 1.8 1 3.2v.6h-5.8c0 .8.3 1.5.7 2 .5.5 1 .8 1.8.8.5 0 1-.1 1.3-.3l1-.9.8.7c-.7 1.1-1.8 1.6-3.2 1.6zm-.1-7.5a2 2 0 0 0-1.5.6 3 3 0 0 0-.8 1.8h4.3v-.1c0-.8-.3-1.3-.6-1.7-.4-.4-.8-.6-1.4-.6zM353.6 142.7a5 5 0 0 1 .9-3.2 3 3 0 0 1 2.4-1.1c1 0 1.8.3 2.4 1l.1-.9h1.3v8.3c0 1-.3 2-1 2.6-.6.6-1.5 1-2.6 1-.6 0-1.2-.2-1.8-.5a3 3 0 0 1-1.3-1l.8-1c.6.9 1.3 1.2 2.2 1.2.7 0 1.3-.2 1.7-.6.4-.4.6-1 .6-1.6v-.8a3 3 0 0 1-2.4 1c-1 0-1.8-.4-2.4-1.2-.6-.7-1-1.8-1-3.2zm1.4.2c0 1 .2 1.7.6 2.2.4.5 1 .8 1.7.8.9 0 1.5-.4 2-1.2v-3.9a2.1 2.1 0 0 0-2-1.2 2 2 0 0 0-1.7.8c-.4.6-.6 1.4-.6 2.5zM367.3 139.8h-.7c-1 0-1.6.4-2 1.2v6h-1.4v-8.5h1.4v1c.5-.7 1.2-1.1 2-1.1h.7v1.4zM373.9 147a3 3 0 0 1-.2-.9c-.7.7-1.5 1-2.5 1a3 3 0 0 1-2-.7c-.5-.4-.8-1-.8-1.8s.3-1.5 1-2 1.6-.7 2.8-.7h1.4v-.7c0-.5-.1-1-.4-1.2-.3-.3-.8-.5-1.4-.5-.5 0-1 .2-1.3.4-.3.3-.5.6-.5 1h-1.4c0-.4.1-.8.4-1.2a3 3 0 0 1 1.2-1c.5-.2 1.1-.3 1.7-.3 1 0 1.8.2 2.3.7.6.5.9 1.2.9 2v4c0 .7 0 1.3.3 1.8h-1.5zm-2.4-1.1c.4 0 .8-.1 1.2-.4s.7-.5 1-.9V143h-1.2c-1.8 0-2.7.5-2.7 1.5 0 .5.2.9.5 1.1.3.3.7.4 1.2.4zM379.6 136.5v2h1.6v1.2h-1.6v5.2c0 .3 0 .6.2.8l.8.2h.6v1c-.3.2-.7.2-1 .2-.7 0-1.2-.2-1.5-.5s-.5-1-.5-1.7v-5.2h-1.6v-1.2h1.6v-2h1.4zM383.2 136.3c0-.2 0-.4.2-.6.2-.2.4-.2.7-.2s.5 0 .6.2c.2.2.2.4.2.6l-.2.6-.6.2c-.3 0-.5 0-.7-.2a.8.8 0 0 1-.2-.6zm1.6 10.7h-1.5v-8.5h1.5v8.5zM387 142.7c0-.8.2-1.6.5-2.2a3.6 3.6 0 0 1 3.4-2.1c1.1 0 2 .4 2.8 1.2s1 1.8 1 3.2a5 5 0 0 1-.5 2.3 3.6 3.6 0 0 1-3.3 2c-1.2 0-2.1-.4-2.8-1.1s-1-1.9-1-3.2v-.1zm1.5.2c0 .9.2 1.6.6 2.2.5.6 1 .9 1.8.9a2 2 0 0 0 1.7-.9 4 4 0 0 0 .7-2.4c0-1-.2-1.7-.7-2.3-.4-.5-1-.8-1.7-.8a2 2 0 0 0-1.8.8 4 4 0 0 0-.6 2.5zM398.2 138.5v1.1a3 3 0 0 1 2.6-1.2c1.8 0 2.7 1 2.7 3v5.6h-1.4v-5.6c0-.6-.2-1-.5-1.4-.2-.2-.7-.4-1.2-.4a2 2 0 0 0-1.3.4c-.3.2-.6.6-.8 1v6h-1.4v-8.5h1.3zM418.9 143.4a4.2 4.2 0 0 1-1.4 2.8c-.7.6-1.7 1-3 1a4 4 0 0 1-3.2-1.5c-.8-1-1.2-2.3-1.2-3.9v-1c0-1.1.2-2 .6-2.9a4.2 4.2 0 0 1 4-2.4c1.2 0 2.2.3 2.9 1 .7.6 1.2 1.6 1.3 2.8h-1.5c-.2-1-.4-1.6-.9-2-.4-.4-1-.6-1.8-.6-1 0-1.7.3-2.3 1-.5.8-.8 1.8-.8 3v1.2a5 5 0 0 0 .8 3c.5.7 1.2 1 2.2 1 .8 0 1.4-.2 1.9-.5.4-.4.7-1 .9-2h1.5zM420.6 142.7c0-.8.2-1.6.5-2.2a3.6 3.6 0 0 1 3.4-2.1c1.1 0 2 .4 2.8 1.2s1 1.8 1 3.2a5 5 0 0 1-.4 2.3 3.6 3.6 0 0 1-3.4 2c-1.2 0-2-.4-2.8-1.1s-1-1.9-1-3.2v-.1zm1.5.2c0 .9.2 1.6.6 2.2.5.6 1 .9 1.8.9a2 2 0 0 0 1.7-.9 4 4 0 0 0 .7-2.4c0-1-.2-1.7-.7-2.3-.4-.5-1-.8-1.7-.8a2 2 0 0 0-1.8.8 4 4 0 0 0-.6 2.5zM431.8 138.5v1.1a3 3 0 0 1 2.6-1.2c1.8 0 2.7 1 2.7 3v5.6h-1.4v-5.6c0-.6-.2-1-.5-1.4-.2-.2-.6-.4-1.2-.4a2 2 0 0 0-1.3.4c-.3.2-.6.6-.8 1v6h-1.4v-8.5h1.3zM441 138.5v1.1a3 3 0 0 1 2.6-1.2c1.7 0 2.6 1 2.7 3v5.6h-1.5v-5.6c0-.6-.1-1-.4-1.4-.3-.2-.7-.4-1.3-.4a2 2 0 0 0-1.2.4c-.4.2-.6.6-.8 1v6h-1.5v-8.5h1.4zM452.3 147.1c-1.2 0-2.1-.3-2.8-1-.7-.8-1.1-1.8-1.1-3.1v-.3c0-.8.2-1.6.5-2.2a3.4 3.4 0 0 1 3.2-2.1c1 0 2 .3 2.5 1 .7.8 1 1.8 1 3.2v.6h-5.8c0 .8.3 1.5.8 2 .4.5 1 .8 1.7.8.6 0 1-.1 1.3-.3l1-.9.9.7c-.8 1.1-1.8 1.6-3.2 1.6zm-.2-7.5a2 2 0 0 0-1.5.6 3 3 0 0 0-.7 1.8h4.2v-.1c0-.8-.2-1.3-.6-1.7-.3-.4-.8-.6-1.4-.6zM461 146c.5 0 1-.2 1.3-.5.4-.3.6-.7.6-1.2h1.4c0 .5-.2 1-.5 1.4-.3.4-.7.8-1.2 1-.5.3-1 .4-1.7.4-1.1 0-2-.3-2.7-1.1-.7-.8-1-1.8-1-3.2v-.2c0-.8.1-1.6.4-2.2a3.4 3.4 0 0 1 3.3-2c1 0 1.8.3 2.4.8a3 3 0 0 1 1 2.2H463c0-.5-.2-1-.6-1.3a2 2 0 0 0-1.4-.5 2 2 0 0 0-1.7.8c-.4.5-.6 1.3-.6 2.3v.2c0 1 .2 1.8.6 2.3.4.5 1 .8 1.7.8zM468.2 136.5v2h1.6v1.2h-1.6v5.2c0 .3 0 .6.2.8l.7.2h.7v1c-.4.2-.7.2-1 .2-.7 0-1.2-.2-1.5-.5s-.5-1-.5-1.7v-5.2h-1.6v-1.2h1.6v-2h1.4zM471.3 142.7c0-.8.1-1.6.4-2.2a3.6 3.6 0 0 1 3.4-2.1c1.1 0 2 .4 2.8 1.2s1 1.8 1 3.2a5 5 0 0 1-.4 2.3 3.6 3.6 0 0 1-3.4 2c-1.1 0-2-.4-2.8-1.1s-1-1.9-1-3.2v-.1zm1.4.2c0 .9.2 1.6.7 2.2.4.6 1 .9 1.7.9a2 2 0 0 0 1.8-.9 4 4 0 0 0 .6-2.4c0-1-.2-1.7-.7-2.3-.4-.5-1-.8-1.7-.8a2 2 0 0 0-1.7.8 4 4 0 0 0-.7 2.5zM485.2 139.8h-.7c-1 0-1.6.4-2 1.2v6h-1.4v-8.5h1.4v1c.5-.7 1.2-1.1 2-1.1h.7v1.4zM491.7 144.7a1 1 0 0 0-.4-.9c-.3-.2-.8-.4-1.5-.5s-1.3-.4-1.8-.6-.7-.5-1-.8l-.2-1c0-.7.3-1.3.8-1.8.6-.5 1.4-.7 2.3-.7 1 0 1.7.2 2.3.7.6.5 1 1.1 1 2h-1.5c0-.5-.2-.8-.5-1.1-.4-.3-.8-.4-1.3-.4a2 2 0 0 0-1.2.3 1 1 0 0 0-.5 1c0 .3.1.5.4.7l1.5.5 1.8.6 1 .8c.2.3.3.7.3 1.1 0 .8-.3 1.4-1 1.9-.5.4-1.3.6-2.3.6-.6 0-1.2 0-1.8-.3s-.9-.6-1.2-1-.4-1-.4-1.4h1.4c0 .5.2.9.6 1.1.4.3.8.5 1.4.5.6 0 1-.1 1.3-.4.4-.2.5-.5.5-.9z"/></g><g fill="#FFF"><path d="M299.8 171.6h219.5v47.1H299.8z"/><path d="M300 172H519v46.5H300z"/></g><g fill="#1A1A1A"><path d="M333.8 198.9v-11.4h3.7c1.3 0 2.2.2 2.8.8.6.5 1 1.2 1 2.2 0 .5-.2 1-.5 1.4a3 3 0 0 1-1.2 1c.6.1 1 .5 1.4 1 .4.4.5 1 .5 1.7a3 3 0 0 1-1 2.4c-.6.6-1.5.9-2.8.9h-3.9zm1.5-6.6h2.3c.6 0 1.1-.1 1.5-.5.4-.3.6-.7.6-1.3 0-.6-.2-1-.5-1.4-.4-.2-1-.4-1.7-.4h-2.2v3.6zm0 1.2v4.1h2.5c.7 0 1.2-.1 1.6-.5.4-.4.6-.9.6-1.5 0-1.4-.7-2-2.2-2h-2.5zM349 198.9a3 3 0 0 1-.1-1c-.7.8-1.5 1.1-2.4 1.1a3 3 0 0 1-2-.7c-.6-.5-.9-1-.9-1.8 0-.9.3-1.5 1-2s1.6-.8 2.8-.8h1.4v-.6c0-.5-.1-1-.4-1.2-.3-.3-.8-.5-1.3-.5-.6 0-1 .1-1.3.4-.4.3-.6.6-.6 1h-1.4c0-.5.1-.9.4-1.3a3 3 0 0 1 1.3-1l1.6-.2c1 0 1.8.2 2.3.7.6.5.9 1.1.9 2v3.9c0 .8 0 1.4.3 1.8v.2H349zm-2.3-1.1c.4 0 .9-.2 1.3-.4s.7-.5.8-1v-1.6h-1c-1.9 0-2.7.5-2.7 1.5 0 .5.1.8.4 1 .3.3.7.5 1.2.5zM354.4 198.9H353v-12h1.4v12zM358.7 198.9h-1.5v-12h1.5v12zM364.8 199c-1.2 0-2-.4-2.8-1.1-.7-.8-1-1.8-1-3v-.3c0-.8 0-1.6.4-2.2.3-.7.8-1.2 1.3-1.6.6-.4 1.2-.6 2-.6 1 0 1.9.4 2.5 1.1.6.8.9 1.8.9 3.1v.6h-5.7c0 .9.2 1.6.7 2 .5.6 1 .8 1.8.8.5 0 1 0 1.3-.3l.9-.8.9.7c-.7 1-1.8 1.6-3.2 1.6zm-.2-7.6a2 2 0 0 0-1.5.7 3 3 0 0 0-.7 1.8h4.2v-.1c0-.8-.2-1.4-.6-1.8-.3-.4-.8-.6-1.4-.6zM374.2 191.7h-.7c-1 0-1.6.4-2 1.2v6h-1.4v-8.5h1.4v1c.5-.8 1.2-1.1 2-1.1h.7v1.4zM375.8 188.2c0-.3 0-.5.2-.6.2-.2.4-.3.7-.3s.5.1.6.3c.2.1.2.3.2.6s0 .4-.2.6l-.6.2c-.3 0-.5 0-.7-.2a.8.8 0 0 1-.2-.6zm1.6 10.7h-1.5v-8.5h1.5v8.5zM381.4 190.4v1a3 3 0 0 1 2.6-1.1c1.7 0 2.7 1 2.7 3v5.6h-1.5v-5.6c0-.6-.1-1-.4-1.4-.3-.3-.7-.4-1.3-.4a2 2 0 0 0-1.2.4c-.4.2-.6.5-.8 1v6H380v-8.5h1.4zM394.4 198.9a3 3 0 0 1-.2-1c-.7.8-1.5 1.1-2.4 1.1a3 3 0 0 1-2-.7c-.6-.5-.9-1-.9-1.8 0-.9.4-1.5 1-2 .7-.5 1.6-.8 2.9-.8h1.4v-.6c0-.5-.2-1-.5-1.2-.3-.3-.7-.5-1.3-.5-.5 0-1 .1-1.3.4-.4.3-.6.6-.6 1h-1.4c0-.5.1-.9.4-1.3a3 3 0 0 1 1.3-1l1.7-.2c1 0 1.7.2 2.2.7.6.5.9 1.1.9 2v3.9c0 .8.1 1.4.3 1.8v.2h-1.5zm-2.4-1.1c.4 0 .9-.2 1.3-.4s.7-.5.9-1v-1.6H393c-1.7 0-2.6.5-2.6 1.5 0 .5.1.8.4 1 .3.3.7.5 1.2.5zM411 195.3a4.2 4.2 0 0 1-1.3 2.7c-.7.7-1.7 1-3 1a4 4 0 0 1-3.2-1.4c-.8-1-1.2-2.3-1.2-3.9v-1c0-1.1.2-2 .6-2.9a4.2 4.2 0 0 1 4-2.5c1.2 0 2.2.4 2.9 1 .7.7 1.1 1.6 1.3 2.8h-1.5c-.2-.9-.5-1.5-.9-2-.4-.3-1-.5-1.8-.5-1 0-1.7.3-2.3 1-.5.7-.8 1.7-.8 3v1.1a5 5 0 0 0 .8 3c.5.7 1.2 1 2.1 1 .9 0 1.5-.1 2-.5.4-.4.7-1 .9-2h1.5zM412.8 194.6c0-.9.2-1.6.5-2.3a3.6 3.6 0 0 1 3.4-2c1.1 0 2 .3 2.7 1.1s1.1 1.9 1.1 3.2v.1a5 5 0 0 1-.5 2.2 3.6 3.6 0 0 1-3.3 2.1c-1.2 0-2.1-.4-2.8-1.2s-1-1.8-1-3.1v-.1zm1.5.1c0 1 .2 1.7.6 2.3.5.6 1 .8 1.8.8a2 2 0 0 0 1.7-.8 4 4 0 0 0 .7-2.4c0-1-.3-1.7-.7-2.3-.4-.6-1-.9-1.7-.9a2 2 0 0 0-1.8.9 4 4 0 0 0-.6 2.4zM424 190.4v1a3 3 0 0 1 2.6-1.1c1.8 0 2.7 1 2.7 3v5.6h-1.4v-5.6c0-.6-.2-1-.5-1.4-.2-.3-.7-.4-1.2-.4a2 2 0 0 0-1.3.4c-.3.2-.6.5-.8 1v6h-1.5v-8.5h1.4zM433.2 190.4v1a3 3 0 0 1 2.5-1.1c1.8 0 2.7 1 2.7 3v5.6H437v-5.6c0-.6-.1-1-.4-1.4-.3-.3-.7-.4-1.3-.4a2 2 0 0 0-1.2.4c-.4.2-.7.5-.9 1v6h-1.4v-8.5h1.4zM444.5 199c-1.2 0-2.1-.4-2.8-1.1-.8-.8-1.1-1.8-1.1-3v-.3c0-.8.1-1.6.5-2.2a3.4 3.4 0 0 1 3.2-2.1c1 0 2 .3 2.5 1 .6.8 1 1.8 1 3.1v.6H442c0 .9.3 1.6.8 2 .4.6 1 .8 1.7.8.5 0 1 0 1.3-.3l1-.8.8.7c-.7 1-1.7 1.6-3.1 1.6zm-.2-7.6a2 2 0 0 0-1.5.7 3 3 0 0 0-.7 1.8h4.2v-.1c0-.8-.2-1.4-.6-1.8-.3-.4-.8-.6-1.4-.6zM453.1 197.8c.5 0 1-.1 1.4-.4.4-.3.6-.7.6-1.2h1.4c0 .5-.2 1-.5 1.4-.3.4-.7.8-1.2 1-.6.3-1.1.4-1.7.4-1.1 0-2-.4-2.7-1.1-.7-.8-1-1.9-1-3.2v-.2c0-.9.1-1.6.4-2.2a3.4 3.4 0 0 1 3.3-2c1 0 1.8.2 2.4.8a3 3 0 0 1 1 2.2H455c0-.5-.2-1-.6-1.3a2 2 0 0 0-1.4-.6 2 2 0 0 0-1.7.8c-.4.6-.6 1.3-.6 2.3v.3c0 1 .2 1.7.6 2.2.4.6 1 .8 1.7.8zM460.4 188.4v2h1.6v1.1h-1.6v5.3c0 .3 0 .6.2.7.1.2.4.3.7.3l.7-.1v1.2l-1 .1c-.7 0-1.2-.2-1.6-.6s-.4-1-.4-1.6v-5.3h-1.6v-1h1.6v-2.1h1.4zM463.4 194.6c0-.9.2-1.6.5-2.3a3.6 3.6 0 0 1 3.4-2c1.1 0 2 .3 2.8 1.1s1 1.9 1 3.2v.1a5 5 0 0 1-.4 2.2 3.6 3.6 0 0 1-3.4 2.1c-1.2 0-2-.4-2.8-1.2s-1-1.8-1-3.1v-.1zm1.5.1c0 1 .2 1.7.6 2.3.5.6 1 .8 1.8.8a2 2 0 0 0 1.7-.8 4 4 0 0 0 .7-2.4c0-1-.2-1.7-.7-2.3-.4-.6-1-.9-1.7-.9a2 2 0 0 0-1.7.9 4 4 0 0 0-.7 2.4zM477.4 191.7h-.8c-.9 0-1.5.4-1.9 1.2v6h-1.4v-8.5h1.4v1c.5-.8 1.1-1.1 2-1.1h.7v1.4zM484 196.6a1 1 0 0 0-.5-.9l-1.6-.6c-.7-.1-1.3-.3-1.7-.5s-.7-.5-1-.8c-.2-.3-.3-.7-.3-1 0-.8.3-1.4 1-1.8.5-.5 1.3-.7 2.2-.7 1 0 1.7.2 2.3.7.6.5.9 1.1.9 1.9h-1.5c0-.4-.1-.7-.5-1-.3-.3-.7-.5-1.2-.5a2 2 0 0 0-1.3.4 1 1 0 0 0-.4.9c0 .3.1.6.4.8l1.5.5c.7.1 1.3.3 1.8.6.4.2.7.4 1 .8.2.3.3.7.3 1.1 0 .8-.3 1.4-1 1.8-.5.5-1.3.7-2.3.7-.7 0-1.3-.1-1.8-.3a3 3 0 0 1-1.2-1c-.3-.5-.4-1-.4-1.4h1.4c0 .4.2.8.6 1.1.3.3.8.4 1.4.4.6 0 1 0 1.3-.3.4-.2.5-.5.5-.9z"/></g><g fill="#FFF"><path d="M528 117.7h211.4v47.1H528z"/><path d="M528.3 118.1h210.8v46.5H528.3z"/></g><g fill="#1A1A1A"><path d="M604 136.8h-3.6V147H599v-10.2h-3.6v-1.2h8.8v1.2zM608.6 147.1c-1.2 0-2.1-.3-2.8-1-.7-.8-1.1-1.8-1.1-3.1v-.3c0-.8.2-1.6.5-2.2.3-.7.8-1.2 1.3-1.6.6-.3 1.2-.5 1.9-.5 1.1 0 2 .3 2.6 1 .6.8.9 1.8.9 3.2v.6H606c0 .8.3 1.5.8 2 .4.5 1 .8 1.8.8.5 0 .9-.1 1.3-.3l.9-.9.9.7c-.7 1.1-1.8 1.6-3.2 1.6zm-.2-7.5a2 2 0 0 0-1.5.6 3 3 0 0 0-.7 1.8h4.2v-.1c0-.8-.2-1.3-.6-1.7-.3-.4-.8-.6-1.4-.6zM615.2 138.5v1c.7-.8 1.5-1.1 2.6-1.1 1.2 0 2 .4 2.4 1.3a3.2 3.2 0 0 1 2.7-1.3c1.8 0 2.8 1 2.8 3v5.6h-1.4v-5.6c0-.6-.2-1-.4-1.3-.3-.3-.8-.5-1.4-.5-.6 0-1 .2-1.4.5s-.5.7-.6 1.3v5.6h-1.4v-5.6c0-1.2-.6-1.8-1.9-1.8-.9 0-1.5.4-1.9 1.2v6.2h-1.4v-8.5h1.3zM635.4 142.9a5 5 0 0 1-1 3c-.5.9-1.3 1.2-2.3 1.2-1 0-1.9-.3-2.4-1v4.1h-1.5v-11.7h1.3l.1 1a3 3 0 0 1 2.5-1.1c1 0 1.8.4 2.4 1.1s.8 1.9.8 3.2v.2zm-1.5-.2c0-1-.2-1.7-.6-2.3a2 2 0 0 0-1.7-.8c-.9 0-1.5.4-2 1.2v4c.5.8 1.1 1.2 2 1.2a2 2 0 0 0 1.7-.9 4 4 0 0 0 .6-2.4zM639 147h-1.4v-12h1.5v12zM647 147a3 3 0 0 1-.3-.9c-.6.7-1.4 1-2.4 1a3 3 0 0 1-2-.7c-.6-.4-.8-1-.8-1.8s.3-1.5 1-2c.6-.5 1.6-.7 2.8-.7h1.4v-.7c0-.5-.2-1-.5-1.2-.3-.3-.7-.5-1.3-.5-.5 0-1 .2-1.3.4-.3.3-.5.6-.5 1h-1.5c0-.4.2-.8.5-1.2a3 3 0 0 1 1.2-1c.5-.2 1-.3 1.7-.3 1 0 1.7.2 2.3.7.5.5.8 1.2.8 2v4c0 .7.1 1.3.3 1.8H647zm-2.5-1.1c.5 0 1-.1 1.3-.4s.7-.5.9-.9V143h-1.1c-1.8 0-2.7.5-2.7 1.5 0 .5.2.9.5 1.1.3.3.7.4 1.1.4zM652.7 136.5v2h1.6v1.2h-1.6v5.2c0 .3 0 .6.2.8l.7.2h.7v1c-.4.2-.7.2-1.1.2-.6 0-1.1-.2-1.5-.5s-.5-1-.5-1.7v-5.2h-1.5v-1.2h1.5v-2h1.5zM659.8 147.1c-1.2 0-2-.3-2.8-1-.7-.8-1-1.8-1-3.1v-.3c0-.8 0-1.6.4-2.2.3-.7.8-1.2 1.3-1.6.6-.3 1.2-.5 2-.5 1 0 1.9.3 2.5 1 .6.8.9 1.8.9 3.2v.6h-5.7c0 .8.2 1.5.7 2 .5.5 1 .8 1.8.8.5 0 1-.1 1.3-.3l.9-.9.9.7c-.7 1.1-1.8 1.6-3.2 1.6zm-.2-7.5a2 2 0 0 0-1.5.6 3 3 0 0 0-.7 1.8h4.2v-.1c0-.8-.2-1.3-.6-1.7-.3-.4-.8-.6-1.4-.6zM670 144.7a1 1 0 0 0-.4-.9c-.3-.2-.9-.4-1.6-.5s-1.3-.4-1.7-.6-.8-.5-1-.8c-.2-.3-.3-.6-.3-1 0-.7.3-1.3.9-1.8.6-.5 1.3-.7 2.2-.7 1 0 1.8.2 2.4.7.6.5.9 1.1.9 2h-1.5c0-.5-.2-.8-.5-1.1-.3-.3-.8-.4-1.3-.4a2 2 0 0 0-1.2.3 1 1 0 0 0-.4 1c0 .3.1.5.4.7.2.2.7.3 1.5.5l1.7.6c.5.2.8.5 1 .8.2.3.3.7.3 1.1 0 .8-.3 1.4-.9 1.9-.6.4-1.4.6-2.3.6-.7 0-1.3 0-1.8-.3s-1-.6-1.2-1-.5-1-.5-1.4h1.5c0 .5.2.9.6 1.1.3.3.8.5 1.4.5.5 0 1-.1 1.3-.4.3-.2.5-.5.5-.9z"/></g><g fill="#FFF"><path d="M528 171.6h211.4v47.1H528z"/><path d="M528.4 172h210.8v46.5H528.4z"/></g><g fill="#1A1A1A"><path d="M615.5 188.7h-3.7V199h-1.5v-10.2h-3.6v-1.2h8.8v1.2zM616.1 194.6c0-.9.2-1.6.5-2.3a3.6 3.6 0 0 1 3.3-2c1.2 0 2.1.3 2.8 1.1s1.1 1.9 1.1 3.2v.1a5 5 0 0 1-.5 2.2 3.6 3.6 0 0 1-3.3 2.1c-1.2 0-2.1-.4-2.8-1.2s-1.1-1.8-1.1-3.1v-.1zm1.5.1c0 1 .2 1.7.6 2.3.4.6 1 .8 1.8.8a2 2 0 0 0 1.7-.8 4 4 0 0 0 .7-2.4c0-1-.3-1.7-.7-2.3-.4-.6-1-.9-1.8-.9a2 2 0 0 0-1.7.9 4 4 0 0 0-.6 2.4zM625.5 194.6c0-.9.2-1.6.5-2.3a3.6 3.6 0 0 1 3.4-2c1.1 0 2 .3 2.8 1.1s1 1.9 1 3.2v.1a5 5 0 0 1-.4 2.2 3.6 3.6 0 0 1-3.4 2.1c-1.1 0-2-.4-2.8-1.2s-1-1.8-1-3.1v-.1zm1.5.1c0 1 .2 1.7.7 2.3.4.6 1 .8 1.7.8a2 2 0 0 0 1.8-.8 4 4 0 0 0 .6-2.4c0-1-.2-1.7-.7-2.3-.4-.6-1-.9-1.7-.9a2 2 0 0 0-1.7.9 4 4 0 0 0-.7 2.4zM637 198.9h-1.5v-12h1.4v12zM639.6 188.2c0-.3 0-.5.2-.6.1-.2.4-.3.6-.3l.7.3.2.6c0 .3 0 .4-.2.6s-.4.2-.7.2-.5 0-.6-.2l-.2-.6zm1.6 10.7h-1.5v-8.5h1.5v8.5zM645.1 190.4l.1 1a3 3 0 0 1 2.5-1.1c1.8 0 2.7 1 2.7 3v5.6H649v-5.6c0-.6-.2-1-.4-1.4-.3-.3-.7-.4-1.3-.4-.5 0-.9.1-1.2.4s-.7.5-.9 1v6h-1.4v-8.5h1.4zM652.6 194.6a5 5 0 0 1 .9-3.2 3 3 0 0 1 2.4-1.2c1 0 1.9.4 2.4 1.1l.1-.9h1.3v8.3c0 1-.3 2-1 2.5-.6.7-1.5 1-2.6 1-.6 0-1.2-.1-1.7-.4a3 3 0 0 1-1.4-1l.8-1c.6.8 1.3 1.2 2.2 1.2.7 0 1.3-.2 1.7-.6.4-.4.6-1 .6-1.7v-.7a3 3 0 0 1-2.4 1c-1 0-1.8-.4-2.4-1.2s-1-1.9-1-3.2zm1.4.1c0 1 .2 1.7.6 2.3.4.5 1 .8 1.7.8.9 0 1.5-.4 2-1.3v-3.8a2.1 2.1 0 0 0-2-1.2c-.7 0-1.3.3-1.7.8s-.6 1.4-.6 2.4z"/></g><g fill="#FFF"><path d="M528 63.9h211.4V111H528z"/><path d="M528.4 64.2h210.8v46.5H528.4z"/></g><g fill="#1A1A1A"><path d="M607.3 90.1h-4.8l-1 3h-1.6l4.4-11.4h1.3l4.3 11.4h-1.5l-1.1-3zM603 89h3.9l-2-5.3-2 5.3zM613 84.7v1a3 3 0 0 1 2.5-1.2c1.8 0 2.7 1 2.7 3v5.6h-1.4v-5.6c0-.6-.2-1-.5-1.3-.2-.3-.7-.5-1.2-.5s-1 .2-1.3.4-.6.6-.8 1v6h-1.4v-8.4h1.3zM626 93.1a3 3 0 0 1-.3-.9c-.7.7-1.5 1-2.4 1a3 3 0 0 1-2-.6c-.6-.5-.8-1.1-.8-1.8 0-1 .3-1.6 1-2 .6-.6 1.6-.8 2.8-.8h1.4v-.7c0-.5-.2-.9-.5-1.2-.3-.3-.7-.4-1.3-.4-.5 0-1 .1-1.3.4-.3.2-.5.5-.5 1h-1.5c0-.5.2-1 .5-1.3a3 3 0 0 1 1.2-1c.5-.2 1-.3 1.7-.3 1 0 1.7.3 2.3.7.5.5.8 1.2.8 2v4c0 .7.1 1.3.3 1.8v.1H626zm-2.5-1c.5 0 .9-.2 1.3-.4s.7-.6.9-1V89h-1.1c-1.8 0-2.7.5-2.7 1.6 0 .4.2.8.5 1 .3.3.6.4 1.1.4zM631.3 93.1h-1.5v-12h1.5v12zM636.7 91l2-6.3h1.5l-3.4 9.7c-.5 1.4-1.4 2.1-2.5 2.1h-.8v-1.3h.4a2 2 0 0 0 1.1-.2c.3-.2.5-.6.7-1.1l.3-.9-3-8.3h1.6l2 6.3zM643.8 82.6v2h1.6v1.2h-1.6V91c0 .4 0 .6.2.8.1.2.4.2.7.2h.7V93l-1.1.2c-.7 0-1.1-.2-1.5-.6s-.5-1-.5-1.7v-5.2h-1.5v-1.1h1.5v-2h1.5zM647.4 82.4c0-.2 0-.4.2-.6l.6-.2c.3 0 .5 0 .7.2l.2.6c0 .2 0 .5-.2.6l-.7.2c-.3 0-.5 0-.6-.2l-.2-.6zm1.5 10.7h-1.4v-8.4h1.4V93zM655 92c.5 0 1 0 1.3-.4s.6-.7.6-1.1h1.4c0 .4-.2.9-.5 1.3s-.7.8-1.2 1-1 .5-1.6.5c-1.2 0-2.1-.4-2.8-1.2-.7-.7-1-1.8-1-3.1v-.3c0-.8.1-1.5.4-2.2s.8-1.1 1.3-1.5c.6-.3 1.3-.5 2-.5 1 0 1.8.3 2.4.9a3 3 0 0 1 1 2.2H657c0-.6-.2-1-.6-1.4s-.8-.5-1.4-.5a2 2 0 0 0-1.7.8c-.4.5-.6 1.3-.6 2.3v.3c0 1 .2 1.7.6 2.2.4.5 1 .8 1.8.8zM665.2 90.9a1 1 0 0 0-.5-1l-1.5-.5c-.7-.2-1.3-.3-1.7-.6s-.8-.4-1-.7a2.2 2.2 0 0 1 .6-2.8c.6-.6 1.3-.8 2.2-.8 1 0 1.8.3 2.4.8.6.4.8 1 .8 1.8h-1.4c0-.3-.2-.7-.5-1-.3-.3-.8-.4-1.3-.4a2 2 0 0 0-1.2.3 1 1 0 0 0-.5 1c0 .3.2.6.5.7.2.2.7.4 1.5.5l1.7.6c.5.2.8.5 1 .8.2.3.3.7.3 1.2 0 .7-.3 1.3-.9 1.8-.6.4-1.4.7-2.3.7a3.6 3.6 0 0 1-3-1.4c-.3-.4-.5-.9-.5-1.4h1.5c0 .5.2.9.5 1.2.4.3.9.4 1.5.4.5 0 1-.1 1.3-.3.3-.3.5-.6.5-1z"/></g><g fill="#1A1A1A"><path d="M33 409.9v4.4h-1.4V403h4.2c1.2 0 2.2.4 2.9 1 .7.6 1 1.5 1 2.5 0 1.1-.3 2-1 2.6-.7.6-1.7.9-3 .9h-2.6zm0-1.3h2.8c.8 0 1.4-.1 1.8-.5.4-.4.6-1 .6-1.7 0-.6-.2-1.2-.6-1.6-.4-.4-1-.6-1.8-.6h-2.7v4.4zM45.8 407.2h-.7c-1 0-1.6.3-1.9 1.1v6h-1.4V406h1.4v1c.5-.8 1.1-1.2 2-1.2l.6.1v1.4zM47 410c0-.8.1-1.6.4-2.2a3.6 3.6 0 0 1 3.4-2c1.1 0 2 .3 2.8 1.1s1 1.9 1 3.2a5 5 0 0 1-.4 2.3 3.6 3.6 0 0 1-3.4 2c-1.2 0-2-.3-2.8-1.1s-1-1.9-1-3.2zm1.4.2c0 1 .2 1.7.7 2.2.4.6 1 .9 1.7.9a2 2 0 0 0 1.7-.9 4 4 0 0 0 .7-2.4c0-1-.2-1.7-.7-2.2-.4-.6-1-.9-1.7-.9s-1.3.3-1.7.9-.7 1.3-.7 2.4zM64 410.2a5 5 0 0 1-1 3.1c-.6.8-1.4 1.2-2.4 1.2s-1.8-.3-2.4-1v4h-1.4V406H58v1a3 3 0 0 1 2.5-1.2c1 0 1.8.4 2.4 1.2.6.7 1 1.8 1 3.2zm-1.5-.2c0-1-.2-1.7-.6-2.2s-1-.9-1.7-.9c-.9 0-1.5.4-2 1.2v4c.5.8 1.1 1.2 2 1.2a2 2 0 0 0 1.7-.8 4 4 0 0 0 .6-2.5zM70.2 407.2h-.8c-.9 0-1.5.3-1.9 1.1v6h-1.4V406h1.4v1c.5-.8 1.1-1.2 2-1.2l.7.1v1.4zM71.8 403.6c0-.2 0-.4.2-.6l.7-.2c.3 0 .5 0 .6.2.2.2.2.4.2.6l-.2.6c-.1.2-.4.2-.6.2l-.7-.2a.8.8 0 0 1-.2-.6zm1.6 10.7h-1.5V406h1.5v8.4zM79.5 414.5c-1.1 0-2-.4-2.8-1.2s-1-1.7-1-3v-.2c0-.9.1-1.6.4-2.3s.8-1.2 1.4-1.5c.5-.4 1.2-.6 1.8-.6 1.1 0 2 .4 2.6 1.1s1 1.8 1 3.1v.6H77c0 .8.2 1.5.7 2 .5.5 1 .8 1.8.8.5 0 1-.1 1.3-.3l1-.8.8.6c-.7 1.1-1.8 1.7-3.2 1.7zm-.2-7.6a2 2 0 0 0-1.4.6 3 3 0 0 0-.8 1.8h4.3c0-.8-.3-1.4-.6-1.8-.4-.4-.9-.6-1.5-.6zM86.8 403.8v2h1.5v1.2h-1.5v5.2c0 .4 0 .6.2.8.1.2.4.3.7.3l.7-.1v1.1l-1.1.2c-.7 0-1.2-.2-1.5-.6s-.5-1-.5-1.7V407h-1.5v-1.1h1.5v-2h1.5zM95.6 414.3a3 3 0 0 1-.2-.9c-.7.7-1.5 1-2.4 1a3 3 0 0 1-2-.6c-.6-.5-.9-1.1-.9-1.8 0-.9.3-1.6 1-2 .7-.6 1.6-.8 2.8-.8h1.4v-.7c0-.5-.1-.9-.4-1.2-.3-.3-.8-.4-1.3-.4-.6 0-1 .1-1.3.4-.4.2-.6.5-.6 1h-1.4c0-.5.1-1 .4-1.3a3 3 0 0 1 1.2-1c.6-.2 1.1-.3 1.7-.3 1 0 1.8.3 2.3.7.6.5.9 1.2.9 2v4c0 .7 0 1.3.3 1.8v.1h-1.5zm-2.4-1c.4 0 .9-.2 1.3-.4s.7-.6.8-1v-1.7h-1c-1.9 0-2.7.5-2.7 1.6 0 .4.1.8.4 1 .3.3.7.4 1.2.4zM103.5 407.2h-.8c-.9 0-1.5.3-1.9 1.1v6h-1.4V406h1.4v1c.5-.8 1.1-1.2 2-1.2l.7.1v1.4zM108 412.2l2-6.3h1.5l-3.4 9.7c-.5 1.4-1.3 2.1-2.5 2.1h-.8v-1.3h.4c.5 0 .9 0 1.1-.2s.5-.6.7-1.1l.3-.9-3-8.3h1.6l2.1 6.3zM117.1 411.3c0-.6.2-1 .5-1.5s.9-1 1.7-1.6l-1-1.5c-.2-.3-.3-.8-.3-1.1 0-1 .3-1.6.8-2 .5-.6 1.2-.8 2-.8.9 0 1.5.2 2 .7.5.4.8 1 .8 1.7 0 .5-.1.9-.4 1.3-.2.4-.6.8-1.2 1.2l-.8.6 2.5 3c.4-.6.6-1.4.6-2.2h1.3c0 1.3-.4 2.4-1 3.3l1.6 2h-1.7l-.8-1a4 4 0 0 1-1.3.8c-.5.2-1 .3-1.6.3-1.1 0-2-.3-2.7-.9s-1-1.4-1-2.3zm3.7 2a3 3 0 0 0 2.1-.9l-2.8-3.3-.2.2c-.9.6-1.3 1.3-1.3 2 0 .6.2 1 .6 1.4s.9.6 1.6.6zm-1.3-7.8c0 .5.3 1.1 1 1.9l.8-.7c.4-.2.6-.5.8-.7l.2-.8c0-.4-.2-.6-.4-.9-.3-.2-.6-.3-1-.3s-.8.1-1 .4-.4.7-.4 1.1z"/><g><path d="M21 433.6h5.4v1.2h-6.9v-11.3H21v10.1zM31.7 435c-1.1 0-2-.4-2.8-1.1s-1-1.8-1-3v-.3c0-.9.1-1.6.4-2.3s.8-1.2 1.4-1.5c.6-.4 1.2-.6 1.8-.6 1.1 0 2 .4 2.6 1.1s1 1.8 1 3.1v.6h-5.8c0 .8.3 1.5.7 2 .5.5 1 .8 1.8.8.5 0 1-.1 1.3-.3l1-.8.8.7c-.7 1-1.8 1.6-3.2 1.6zm-.2-7.6a2 2 0 0 0-1.4.6 3 3 0 0 0-.8 1.8h4.3c0-.8-.3-1.4-.6-1.8-.4-.4-.8-.6-1.5-.6zM36.7 430.5c0-1.3.3-2.3.9-3.1s1.4-1.2 2.4-1.2 1.8.4 2.4 1.1v-1h1.4v8.3c0 1.1-.3 2-1 2.6s-1.5 1-2.6 1c-.6 0-1.2-.2-1.8-.4a3 3 0 0 1-1.3-1.1l.8-.9c.6.8 1.3 1.2 2.2 1.2.7 0 1.3-.2 1.7-.6.4-.4.6-1 .6-1.7v-.7a3 3 0 0 1-2.4 1c-1 0-1.8-.4-2.4-1.2-.6-.8-1-1.9-1-3.3zm1.4.2c0 1 .2 1.7.6 2.2s1 .9 1.7.9c.9 0 1.5-.5 2-1.3v-3.8a2.1 2.1 0 0 0-2-1.3 2 2 0 0 0-1.7.9c-.4.5-.6 1.3-.6 2.4zM51.5 434.8a3 3 0 0 1-.2-.9c-.6.7-1.4 1-2.4 1a3 3 0 0 1-2-.6c-.6-.5-.8-1-.8-1.8 0-.9.3-1.6 1-2 .6-.6 1.6-.8 2.8-.8h1.4v-.7c0-.5-.1-.9-.4-1.2-.4-.3-.8-.4-1.4-.4-.5 0-1 .1-1.3.4-.3.2-.5.5-.5 1h-1.5c0-.5.2-1 .5-1.3a3 3 0 0 1 1.2-1c.5-.2 1-.3 1.7-.3 1 0 1.7.3 2.3.7.5.5.8 1.2.8 2v4c0 .7.1 1.3.3 1.8v.1h-1.5zm-2.4-1a2.7 2.7 0 0 0 2.2-1.3v-1.8h-1.1c-1.8 0-2.7.5-2.7 1.6 0 .4.2.8.5 1 .3.3.7.4 1.1.4zM58.7 433.8c.5 0 1-.2 1.4-.5.4-.3.6-.7.6-1.1h1.4c0 .4-.2 1-.5 1.3-.3.5-.7.8-1.2 1-.6.4-1.1.5-1.7.5-1.1 0-2-.4-2.7-1.2s-1-1.8-1-3.1v-.3c0-.8.1-1.5.4-2.2a3.4 3.4 0 0 1 3.3-2c1 0 1.8.3 2.4.9a3 3 0 0 1 1 2.2h-1.4a2 2 0 0 0-2-1.9 2 2 0 0 0-1.7.8c-.4.5-.6 1.3-.6 2.3v.3c0 1 .2 1.7.6 2.2.4.5 1 .8 1.7.8zM66.8 432.7l2-6.3h1.5L67 436c-.5 1.4-1.3 2.1-2.5 2.1h-.8v-1.3h.4c.5 0 .9 0 1.1-.2s.5-.6.7-1.1l.3-.9-3-8.3h1.6l2.1 6.3zM79.8 429.8c-1.3-.4-2.2-.9-2.8-1.4s-1-1.2-1-2c0-.9.5-1.6 1.2-2.2.7-.6 1.6-.9 2.8-.9.7 0 1.4.1 2 .4.7.4 1.1.8 1.5 1.3s.5 1.1.5 1.7h-1.5c0-.6-.3-1.2-.7-1.6s-1-.6-1.8-.6-1.4.2-1.8.5-.6.8-.6 1.4c0 .4.2.8.6 1.1.4.4 1 .7 2 1 1 .2 1.7.5 2.2.8.6.3 1 .7 1.2 1.1s.4 1 .4 1.5c0 1-.4 1.7-1 2.3s-1.8.8-3 .8c-.7 0-1.5-.2-2.1-.5-.7-.3-1.2-.7-1.6-1.2s-.6-1.1-.6-1.8h1.5c0 .7.3 1.3.8 1.7s1.2.6 2 .6 1.4-.2 1.9-.5.6-.8.6-1.3-.2-1-.6-1.3-1-.6-2.1-1zM88.8 432.7l2-6.3h1.5l-3.4 9.7c-.5 1.4-1.4 2.1-2.5 2.1h-.8v-1.3h.4c.5 0 .8 0 1.1-.2s.5-.6.7-1.1l.3-.9-3-8.3h1.6l2 6.3zM98.8 432.6a1 1 0 0 0-.4-1l-1.6-.5c-.7-.1-1.3-.3-1.7-.5s-.7-.5-1-.8a2.2 2.2 0 0 1 .6-2.8c.6-.5 1.4-.8 2.3-.8 1 0 1.7.3 2.3.8.6.5.9 1 .9 1.9h-1.5c0-.4-.1-.8-.5-1s-.7-.5-1.2-.5c-.6 0-1 .1-1.3.4s-.4.5-.4.8c0 .4.1.7.4.8.3.2.8.4 1.5.5l1.8.6 1 .8c.2.3.3.7.3 1.2 0 .7-.3 1.3-1 1.8-.5.5-1.3.7-2.3.7-.7 0-1.3-.1-1.8-.4a3 3 0 0 1-1.2-1c-.3-.4-.4-.9-.4-1.4H95c0 .5.2.9.6 1.2.3.3.8.4 1.4.4.6 0 1-.1 1.3-.3.4-.2.5-.5.5-1zM104.4 424.3v2h1.6v1.2h-1.6v5.2l.2.8c.2.2.4.3.8.3l.7-.1v1.1l-1.2.2c-.6 0-1-.2-1.4-.6s-.5-1-.5-1.7v-5.2h-1.5v-1.1h1.5v-2h1.4zM111.5 435c-1.1 0-2-.4-2.8-1.1s-1-1.8-1-3v-.3c0-.9.1-1.6.4-2.3s.8-1.2 1.4-1.5c.6-.4 1.2-.6 1.8-.6 1.1 0 2 .4 2.6 1.1s1 1.8 1 3.1v.6H109c0 .8.3 1.5.7 2 .5.5 1 .8 1.8.8.5 0 1-.1 1.3-.3l1-.8.8.7c-.7 1-1.8 1.6-3.2 1.6zm-.2-7.6a2 2 0 0 0-1.4.6 3 3 0 0 0-.8 1.8h4.3c0-.8-.3-1.4-.6-1.8-.4-.4-.8-.6-1.5-.6zM118.2 426.4v1c.6-.8 1.5-1.2 2.5-1.2 1.2 0 2 .5 2.4 1.4a3.2 3.2 0 0 1 2.7-1.4c1.9 0 2.8 1 2.9 3v5.6h-1.5v-5.6c0-.6-.1-1-.4-1.3-.3-.3-.7-.5-1.4-.5a2 2 0 0 0-1.3.5 2 2 0 0 0-.6 1.3v5.6H122v-5.5c0-1.2-.6-1.9-1.8-1.9-1 0-1.6.4-2 1.3v6.1h-1.4v-8.4h1.4zM136 432.6a1 1 0 0 0-.4-1l-1.5-.5c-.7-.1-1.3-.3-1.7-.5s-.8-.5-1-.8a2.2 2.2 0 0 1 .6-2.8c.6-.5 1.3-.8 2.2-.8 1 0 1.8.3 2.4.8.6.5.9 1 .9 1.9H136c0-.4-.2-.8-.5-1s-.8-.5-1.3-.5-1 .1-1.2.4-.5.5-.5.8c0 .4.2.7.5.8.2.2.7.4 1.5.5l1.7.6c.5.2.8.5 1 .8.2.3.3.7.3 1.2 0 .7-.3 1.3-.9 1.8-.6.5-1.4.7-2.3.7-.7 0-1.3-.1-1.8-.4a3 3 0 0 1-1.2-1c-.3-.4-.5-.9-.5-1.4h1.5c0 .5.2.9.5 1.2.4.3.9.4 1.5.4.5 0 1-.1 1.3-.3.3-.2.5-.5.5-1z"/></g></g><g fill="#666"><path d="M95.9 359.3v-25.7c0-1-.9-1.8-1.9-1.8H73.8a.8.8 0 0 0 0 1.7H94l.2.1v25.7l-.2.1H62.8l-.1-.1v-25.7l.1-.1H66a.8.8 0 0 0 0-1.7h-3.2c-1 0-1.8.8-1.8 1.8v25.7c0 1 .8 1.8 1.8 1.8H94c1 0 1.9-.8 1.9-1.8z"/><path d="M69.7 333.5h.5a.8.8 0 0 0 0-1.7h-.5a.8.8 0 0 0 0 1.7z"/><path d="M107 375.7c-.5 0-1 .3-1 .8v7.4H50.9v-11h56.1a.8.8 0 0 0 0-1.8H84.5l-.4-2.4h13c2.3 0 4.2-1.9 4.2-4.2v-33.4c0-2.4-2-4.2-4.2-4.2H59.8a4.2 4.2 0 0 0-4.2 4.2v33.4c0 2.3 1.9 4.2 4.2 4.2h13l-.4 2.4H49.9c-.5 0-.8.4-.8.9v12.7c0 .5.3.9.8.9h57c.5 0 .9-.4.9-.9v-8.2c0-.5-.4-.8-.9-.8zm-49.8-11.2v-33.4c0-1.4 1.2-2.6 2.6-2.6H97c1.4 0 2.5 1.2 2.5 2.6v33.4c0 1.4-1.1 2.5-2.5 2.5H59.8a2.5 2.5 0 0 1-2.6-2.5zm17.3 4.2h7.9l.4 2.4H74l.4-2.4z"/><path d="M55.6 375.7c-.5 0-.8.3-.8.8v3.7c0 .5.3.8.8.8h3.7c.5 0 .9-.3.9-.8v-3.7c0-.5-.4-.8-.9-.8h-3.7zm2.9 3.7h-2v-2h2v2zM101.2 375.7h-36a.8.8 0 0 0 0 1.6h36a.8.8 0 0 0 0-1.6zM65.3 379.4a.8.8 0 0 0 0 1.6H68a.8.8 0 0 0 0-1.6h-2.7zM74 379.4a.8.8 0 0 0 0 1.6h6.2a.8.8 0 0 0 0-1.6H74zM86.3 379.4a.8.8 0 0 0 0 1.6h6.1a.8.8 0 0 0 0-1.6h-6.1zM101.2 379.4h-2.7a.8.8 0 0 0 0 1.6h2.7a.8.8 0 0 0 0-1.6z"/></g><g fill="#1A1A1A"><path d="M214.1 414.3V403h3.2c1 0 1.9.3 2.7.7.7.4 1.3 1 1.7 1.9s.6 1.7.6 2.7v.8c0 1-.2 2-.6 2.8s-1 1.4-1.8 1.9c-.7.4-1.6.6-2.6.6H214zm1.5-10.1v8.9h1.6c1.1 0 2-.4 2.7-1 .6-.8 1-1.8 1-3.2v-.6c0-1.3-.3-2.3-1-3-.6-.8-1.4-1.1-2.5-1.1h-1.8zM230 414.3a3 3 0 0 1-.3-.9c-.7.7-1.5 1-2.4 1a3 3 0 0 1-2-.6c-.6-.5-.8-1.1-.8-1.8 0-.9.3-1.6 1-2 .6-.6 1.6-.8 2.8-.8h1.4v-.7c0-.5-.2-.9-.5-1.2-.3-.3-.7-.4-1.3-.4-.5 0-1 .1-1.3.4-.3.2-.5.5-.5 1h-1.5c0-.5.2-1 .5-1.3a3 3 0 0 1 1.2-1c.5-.2 1-.3 1.7-.3 1 0 1.7.3 2.3.7.5.5.8 1.2.8 2v4c0 .7.1 1.3.3 1.8v.1H230zm-2.5-1c.5 0 .9-.2 1.3-.4s.7-.6.9-1v-1.7h-1.1c-1.8 0-2.7.5-2.7 1.6 0 .4.2.8.5 1 .3.3.6.4 1.1.4zM235.7 403.8v2h1.6v1.2h-1.6v5.2c0 .4 0 .6.2.8.1.2.4.3.7.3l.7-.1v1.1l-1.1.2c-.7 0-1.1-.2-1.5-.6s-.5-1-.5-1.7V407h-1.5v-1.1h1.5v-2h1.5zM244.5 414.3a3 3 0 0 1-.2-.9c-.7.7-1.5 1-2.4 1a3 3 0 0 1-2-.6c-.6-.5-.9-1.1-.9-1.8 0-.9.4-1.6 1-2 .7-.6 1.6-.8 2.9-.8h1.4v-.7c0-.5-.2-.9-.5-1.2-.3-.3-.7-.4-1.3-.4-.5 0-1 .1-1.3.4-.4.2-.5.5-.5 1h-1.5c0-.5.1-1 .4-1.3a3 3 0 0 1 1.3-1c.5-.2 1-.3 1.7-.3 1 0 1.7.3 2.2.7.6.5.9 1.2 1 2v4c0 .7 0 1.3.2 1.8v.1h-1.5zm-2.4-1c.4 0 .9-.2 1.3-.4s.7-.6.9-1v-1.7H243c-1.7 0-2.6.5-2.6 1.6 0 .4.1.8.4 1 .3.3.7.4 1.2.4z"/></g><path fill="#666" d="M254 337.8c-1-4.1-9.4-8.2-24-8.2s-23 4-24 8.2l-.2.5v35.8l.1.4c1.2 4.8 11.4 8.3 24.1 8.3 12.7 0 22.9-3.5 24-8.2l.2-.5v-35.8c0-.2 0-.3-.2-.5zm-1.8 24.7a2.4 2.4 0 0 1-.3.6 3.1 3.1 0 0 1-.4.6 5.3 5.3 0 0 1-1.1 1l-.3.2-.7.5-.2.1a16.4 16.4 0 0 1-2.2 1c-2.7 1-5.5 1.8-8.3 2.2l-2 .2h-.3l-1.8.2h-.9l-1.4.1a75 75 0 0 1-4.7 0h-2.2a54 54 0 0 1-1.8-.3h-.3l-2-.2c-2.9-.4-5.6-1.1-8.3-2.1a20.1 20.1 0 0 1-2.2-1.1l-.2-.1-.7-.5-.3-.1a7.3 7.3 0 0 1-1.3-1.3 3.9 3.9 0 0 1-.4-.7v-.3l-.1-.5v-.3V354l.7.6c3.7 2.8 11 4.9 21.5 4.9s17.8-2.1 21.4-4.9l.8-.6v8.4zm0-20V350.9a2.4 2.4 0 0 1-.3.6 3.1 3.1 0 0 1-.4.6 5.3 5.3 0 0 1-1.1 1l-.3.2-.7.5-.2.1a16.4 16.4 0 0 1-2.2 1c-2.7 1-5.5 1.8-8.3 2.2l-2 .2h-.3l-1.8.2h-.9l-1.4.1a75 75 0 0 1-4.7 0h-1.3l-.9-.1a54 54 0 0 1-1.8-.2h-.3l-2-.2c-2.9-.4-5.6-1.1-8.3-2.1a20.1 20.1 0 0 1-2.2-1.1l-.2-.1-.7-.5-.3-.1a7.3 7.3 0 0 1-1.3-1.3 3.9 3.9 0 0 1-.4-.7v-.3l-.2-.5v-.3-7.6c.2 0 .3.2.4.3l.2.2 1 .6.2.2a16.7 16.7 0 0 0 2.4 1.2h.2c.4.3.9.5 1.4.6l.4.2 1.3.4.4.1 1.8.4.2.1 1.7.3.6.1 1.7.3h.4l2.3.3h.6l1.8.1h.7a75.9 75.9 0 0 0 5.2 0h.7l1.8-.1h.6l2.2-.3h.5l1.7-.3h.6l1.7-.4h.2l1.8-.5.4-.1 1.3-.4.4-.2 1.4-.5.2-.1a20 20 0 0 0 2.4-1.2l.2-.2 1-.6.2-.2.3-.3zm-22.2-11c13.1 0 22.2 3.9 22.2 7.3s-9 7.3-22.2 7.3-22.2-3.9-22.2-7.3 9-7.3 22.2-7.3zm22.2 42.3v.1c-.5 3.4-9.6 7-22.2 7s-21.7-3.6-22.2-7v-8.2l.7.6c3.7 2.8 11 4.9 21.5 4.9s17.8-2.1 21.4-4.9l.8-.6v8.1z"/><g fill="#1A1A1A"><path d="M344.4 409c0 1.1-.2 2-.6 3s-.9 1.4-1.5 1.8-1.5.7-2.5.7c-.9 0-1.6-.2-2.3-.7-.7-.4-1.3-1-1.7-1.9s-.5-1.7-.5-2.8v-.8c0-1.1.1-2 .5-3 .4-.8 1-1.4 1.6-1.8s1.5-.7 2.4-.7c1 0 1.7.2 2.4.6s1.3 1.1 1.6 2 .6 1.8.6 2.9v.7zm-1.5-.7c0-1.4-.3-2.4-.8-3.1-.5-.8-1.3-1.1-2.3-1.1-1 0-1.7.3-2.2 1a5 5 0 0 0-.8 3v.9c0 1.3.2 2.3.8 3 .5.8 1.3 1.2 2.2 1.2 1 0 1.8-.4 2.3-1s.8-1.8.8-3v-1zM348.1 405.9v1a3 3 0 0 1 2.6-1.2c1.8 0 2.7 1 2.7 3v5.6H352v-5.6c0-.6-.2-1-.5-1.3s-.7-.5-1.2-.5a2 2 0 0 0-1.3.4l-.8 1v6h-1.4V406h1.3zM359 410h-4V409h4v1.2zM362.4 409.9v4.4h-1.5V403h4.2c1.2 0 2.2.4 2.9 1 .7.6 1 1.5 1 2.5 0 1.1-.3 2-1 2.6-.7.6-1.7.9-3 .9h-2.6zm0-1.3h2.7c.8 0 1.4-.1 1.8-.5.4-.4.6-1 .6-1.7 0-.6-.2-1.2-.6-1.6-.4-.4-1-.6-1.8-.6h-2.7v4.4zM375.1 407.2h-.7c-1 0-1.6.3-2 1.1v6H371V406h1.5v1c.4-.8 1.1-1.2 2-1.2l.6.1v1.4zM380.1 414.5c-1.1 0-2-.4-2.8-1.2s-1-1.7-1-3v-.2c0-.9.1-1.6.4-2.3s.8-1.2 1.4-1.5c.6-.4 1.2-.6 1.9-.6 1 0 2 .4 2.5 1.1s1 1.8 1 3.1v.6h-5.8c0 .8.3 1.5.7 2 .5.5 1.1.8 1.8.8.5 0 1-.1 1.3-.3l1-.8.8.6c-.7 1.1-1.7 1.7-3.2 1.7zm-.1-7.6a2 2 0 0 0-1.5.6 3 3 0 0 0-.7 1.8h4.2c0-.8-.2-1.4-.6-1.8-.4-.4-.8-.6-1.4-.6zM386.8 405.9v.9c.6-.7 1.5-1 2.5-1 1.2 0 2 .4 2.4 1.3a3.2 3.2 0 0 1 2.7-1.4c1.9 0 2.8 1 2.9 3v5.6h-1.5v-5.6c0-.6-.1-1-.4-1.3-.3-.3-.7-.5-1.4-.5a2 2 0 0 0-1.3.5 2 2 0 0 0-.6 1.3v5.6h-1.5v-5.5c0-1.2-.6-1.9-1.8-1.9-1 0-1.6.4-2 1.2v6.2h-1.4V406h1.4zM399.8 403.6c0-.2 0-.4.2-.6l.6-.2c.3 0 .5 0 .7.2l.2.6c0 .2 0 .5-.2.6-.2.2-.4.2-.7.2s-.5 0-.6-.2a.8.8 0 0 1-.2-.6zm1.5 10.7H400V406h1.4v8.4zM408.9 412a1 1 0 0 0-.4-.8l-1.6-.6c-.7-.1-1.3-.3-1.7-.6s-.8-.4-1-.7a2.2 2.2 0 0 1 .6-2.8c.6-.6 1.3-.8 2.2-.8 1 0 1.8.3 2.4.8.6.4.9 1 .9 1.9h-1.5c0-.4-.2-.8-.5-1s-.8-.5-1.3-.5-.9.1-1.2.3-.4.6-.4 1c0 .3.1.6.4.7.2.2.7.4 1.5.5l1.7.6c.5.2.8.5 1 .8.2.3.3.7.3 1.2 0 .7-.3 1.3-.9 1.8-.6.4-1.4.7-2.3.7-.7 0-1.3-.1-1.8-.4a3 3 0 0 1-1.2-1c-.3-.4-.5-.9-.5-1.4h1.5c0 .5.2.9.6 1.2.3.3.8.4 1.4.4.5 0 1-.1 1.3-.3.3-.3.5-.6.5-1zM416 414.5c-1 0-2-.4-2.7-1.2s-1.1-1.7-1.1-3v-.2c0-.9.1-1.6.5-2.3s.7-1.2 1.3-1.5c.6-.4 1.2-.6 1.9-.6 1 0 2 .4 2.5 1.1s1 1.8 1 3.1v.6h-5.8c0 .8.3 1.5.8 2 .4.5 1 .8 1.7.8.5 0 1-.1 1.3-.3l1-.8.8.6c-.7 1.1-1.7 1.7-3.1 1.7zm-.1-7.6a2 2 0 0 0-1.5.6 3 3 0 0 0-.7 1.8h4.2c0-.8-.2-1.4-.6-1.8-.3-.4-.8-.6-1.4-.6zM426.3 412a1 1 0 0 0-.5-.8l-1.5-.6c-.7-.1-1.3-.3-1.8-.6s-.7-.4-1-.7l-.2-1.1c0-.7.3-1.3.9-1.8s1.3-.7 2.2-.7c1 0 1.7.3 2.3.8.6.4 1 1 1 1.9h-1.5c0-.4-.2-.8-.5-1s-.8-.5-1.3-.5-1 .1-1.2.3-.5.6-.5 1c0 .3.2.6.4.7.3.2.8.4 1.5.5l1.8.6c.4.2.8.5 1 .8.2.3.3.7.3 1.2 0 .7-.3 1.3-.9 1.8-.6.4-1.4.7-2.3.7-.7 0-1.3-.1-1.8-.4a3 3 0 0 1-1.3-1c-.3-.4-.4-.9-.4-1.4h1.4c0 .5.3.9.6 1.2.4.3.9.4 1.5.4.5 0 1-.1 1.3-.3.3-.3.5-.6.5-1z"/><g><path d="M302.2 431.9h-4.8l-1 3h-1.6l4.3-11.4h1.3l4.4 11.3h-1.6l-1-3zm-4.3-1.3h3.8l-2-5.3-1.8 5.3zM313.6 430.7a5 5 0 0 1-1 3.1c-.5.8-1.3 1.2-2.3 1.2-1 0-1.9-.3-2.4-1v4h-1.5v-11.6h1.3l.1 1a3 3 0 0 1 2.5-1.2c1 0 1.8.4 2.4 1.2.6.7.9 1.8.9 3.2v.1zm-1.5-.2c0-1-.2-1.7-.6-2.2s-1-.9-1.7-.9c-.8 0-1.5.4-2 1.2v4c.5.8 1.2 1.2 2 1.2a2 2 0 0 0 1.7-.8 4 4 0 0 0 .6-2.5zM322.9 430.7a5 5 0 0 1-1 3.1c-.5.8-1.3 1.2-2.3 1.2-1 0-1.9-.3-2.4-1v4h-1.5v-11.6h1.3l.1 1a3 3 0 0 1 2.5-1.2c1 0 1.8.4 2.4 1.2.6.7.8 1.8.8 3.2v.1zm-1.5-.2c0-1-.2-1.7-.6-2.2s-1-.9-1.7-.9c-.9 0-1.5.4-2 1.2v4c.5.8 1.1 1.2 2 1.2a2 2 0 0 0 1.7-.8 4 4 0 0 0 .6-2.5zM326.6 434.8H325v-12h1.5v12zM329.2 424.1c0-.2 0-.4.2-.6l.7-.2c.3 0 .5 0 .6.2.2.2.2.4.2.6l-.2.6c-.1.2-.3.3-.6.3s-.5-.1-.7-.3a.8.8 0 0 1-.2-.6zm1.6 10.7h-1.5v-8.4h1.5v8.4zM336.8 433.8c.5 0 1-.2 1.4-.5.3-.3.6-.7.6-1.1h1.4c0 .4-.2 1-.5 1.3-.3.5-.8.8-1.3 1-.5.4-1 .5-1.6.5-1.1 0-2-.4-2.7-1.2s-1-1.8-1-3.1v-.3c0-.8 0-1.5.4-2.2a3.4 3.4 0 0 1 3.3-2c1 0 1.7.3 2.4.9a3 3 0 0 1 1 2.2h-1.4c0-.6-.3-1-.6-1.4a2 2 0 0 0-1.4-.5 2 2 0 0 0-1.7.8c-.4.5-.6 1.3-.6 2.3v.3c0 1 .2 1.7.6 2.2.4.5 1 .8 1.7.8zM347.3 434.8a3 3 0 0 1-.2-.9c-.7.7-1.5 1-2.4 1a3 3 0 0 1-2-.6c-.6-.5-.8-1-.8-1.8 0-.9.3-1.6 1-2 .6-.6 1.6-.8 2.8-.8h1.4v-.7c0-.5-.2-.9-.5-1.2-.3-.3-.7-.4-1.3-.4-.5 0-1 .1-1.3.4-.3.2-.5.5-.5 1H342c0-.5.2-1 .5-1.3a3 3 0 0 1 1.2-1c.5-.2 1-.3 1.7-.3 1 0 1.7.3 2.3.7.5.5.8 1.2.8 2v4c0 .7.1 1.3.3 1.8v.1h-1.5zm-2.4-1a2.7 2.7 0 0 0 2.2-1.3v-1.8H346c-1.8 0-2.7.5-2.7 1.6 0 .4.2.8.5 1 .3.3.7.4 1.1.4zM353 424.3v2h1.7v1.2H353v5.2c0 .4 0 .6.2.8.1.2.4.3.7.3l.7-.1v1.1l-1.1.2c-.6 0-1.1-.2-1.5-.6s-.5-1-.5-1.7v-5.2h-1.5v-1.1h1.5v-2h1.5zM356.7 424.1c0-.2 0-.4.2-.6l.6-.2c.2 0 .5 0 .7.2l.2.6c0 .2 0 .5-.2.6-.2.2-.4.3-.7.3s-.5-.1-.6-.3a.8.8 0 0 1-.2-.6zm1.5 10.7h-1.4v-8.4h1.4v8.4zM360.5 430.5c0-.8.2-1.5.5-2.2a3.6 3.6 0 0 1 3.3-2c1.2 0 2.1.3 2.8 1.1s1 1.9 1 3.2v.1a5 5 0 0 1-.4 2.2 3.6 3.6 0 0 1-3.4 2c-1.1 0-2-.3-2.7-1.1s-1.1-1.9-1.1-3.2zm1.4.2c0 1 .3 1.7.7 2.3.4.5 1 .8 1.7.8a2 2 0 0 0 1.8-.9 4 4 0 0 0 .6-2.4c0-.9-.2-1.7-.6-2.2-.5-.6-1-.9-1.8-.9-.7 0-1.3.3-1.7.9s-.7 1.3-.7 2.4zM371.7 426.4v1a3 3 0 0 1 2.6-1.2c1.8 0 2.7 1 2.7 3v5.6h-1.5v-5.6c0-.6-.1-1-.4-1.3s-.7-.5-1.3-.5a2 2 0 0 0-1.2.4c-.4.3-.6.6-.8 1v6h-1.5v-8.4h1.4zM384.4 432.6a1 1 0 0 0-.4-1l-1.6-.5c-.7-.1-1.3-.3-1.7-.5s-.8-.5-1-.8a2.2 2.2 0 0 1 .6-2.8c.6-.5 1.3-.8 2.2-.8 1 0 1.8.3 2.4.8.6.5.9 1 .9 1.9h-1.5c0-.4-.2-.8-.5-1s-.8-.5-1.3-.5-.9.1-1.2.4-.4.5-.4.8c0 .4 0 .7.4.8.2.2.7.4 1.5.5l1.7.6c.5.2.8.5 1 .8.2.3.3.7.3 1.2 0 .7-.3 1.3-.9 1.8-.6.5-1.4.7-2.3.7-.7 0-1.3-.1-1.8-.4a3 3 0 0 1-1.2-1c-.3-.4-.5-.9-.5-1.4h1.5c0 .5.2.9.5 1.2.4.3.9.4 1.5.4.5 0 1-.1 1.3-.3.3-.2.5-.5.5-1zM392 431.8c0-.6.2-1 .5-1.5s.9-1 1.7-1.6l-1-1.5-.3-1.1c0-.9.3-1.6.8-2 .5-.6 1.2-.8 2-.8.9 0 1.5.2 2 .7.5.4.8 1 .8 1.7 0 .5-.1.9-.4 1.3-.2.4-.6.8-1.2 1.2l-.8.6 2.5 3c.4-.6.6-1.4.6-2.2h1.3c0 1.3-.4 2.4-1 3.3l1.6 2h-1.7l-.8-1a4 4 0 0 1-1.3.8c-.5.2-1 .3-1.6.3-1.1 0-2-.3-2.7-.9s-1-1.4-1-2.3zm3.7 2a3 3 0 0 0 2.1-.9l-2.8-3.3-.2.2c-.9.6-1.3 1.3-1.3 2 0 .6.2 1 .6 1.5s.9.5 1.6.5zm-1.3-7.8c0 .5.3 1.1 1 1.9l.8-.7c.4-.2.6-.4.8-.7l.2-.8c0-.3-.2-.6-.4-.9-.3-.2-.6-.3-1-.3s-.8.1-1 .4-.4.7-.4 1.1zM410.4 429.8c-1.2-.4-2.2-.9-2.8-1.4s-.8-1.2-.8-2c0-.9.3-1.6 1-2.2.7-.6 1.7-.9 2.8-.9.8 0 1.5.1 2.1.4.6.4 1.1.8 1.4 1.3s.5 1.1.5 1.7h-1.5c0-.6-.2-1.2-.6-1.6s-1-.6-1.9-.6c-.7 0-1.3.2-1.7.5s-.6.8-.6 1.4c0 .4.2.8.6 1.1.4.4 1 .7 2 1 1 .2 1.7.5 2.2.8.5.3 1 .7 1.2 1.1s.4 1 .4 1.5c0 1-.4 1.7-1.1 2.3s-1.7.8-2.9.8c-.8 0-1.5-.2-2.2-.5-.7-.3-1.2-.7-1.5-1.2s-.6-1.1-.6-1.8h1.5c0 .7.3 1.3.8 1.7s1.2.6 2 .6 1.4-.2 1.8-.5.7-.8.7-1.3-.2-1-.6-1.3-1.1-.6-2.2-1zM420.2 435c-1.2 0-2-.4-2.8-1.1s-1-1.8-1-3v-.3c0-.9 0-1.6.4-2.3s.8-1.2 1.3-1.5c.6-.4 1.2-.6 2-.6 1 0 1.9.4 2.5 1.1s.9 1.8.9 3.1v.6h-5.7c0 .8.2 1.5.7 2 .5.5 1 .8 1.8.8.5 0 1-.1 1.3-.3l.9-.8.9.7c-.7 1-1.8 1.6-3.2 1.6zm-.2-7.6a2 2 0 0 0-1.5.6 3 3 0 0 0-.7 1.8h4.2c0-.8-.2-1.4-.6-1.8-.3-.4-.8-.6-1.4-.6zM429.6 427.7h-.7c-1 0-1.6.3-2 1.1v6h-1.4v-8.4h1.4v1c.5-.8 1.2-1.2 2-1.2l.7.1v1.4zM434.1 432.9l2.1-6.5h1.5l-3 8.4h-1.1l-3-8.4h1.4l2.1 6.5zM439.4 424.1l.2-.6.7-.2c.3 0 .5 0 .6.2.2.2.2.4.2.6l-.2.6c-.1.2-.3.3-.6.3s-.5-.1-.7-.3a.8.8 0 0 1-.2-.6zm1.6 10.7h-1.5v-8.4h1.5v8.4zM447 433.8c.5 0 1-.2 1.4-.5.4-.3.6-.7.6-1.1h1.4c0 .4-.2 1-.5 1.3-.3.5-.7.8-1.3 1-.5.4-1 .5-1.6.5-1.1 0-2-.4-2.7-1.2s-1-1.8-1-3.1v-.3c0-.8.1-1.5.4-2.2a3.4 3.4 0 0 1 3.3-2c1 0 1.7.3 2.4.9a3 3 0 0 1 1 2.2H449a2 2 0 0 0-2-1.9 2 2 0 0 0-1.7.8c-.4.5-.6 1.3-.6 2.3v.3c0 1 .2 1.7.6 2.2.4.5 1 .8 1.7.8zM455.8 435c-1.1 0-2-.4-2.8-1.1s-1-1.8-1-3v-.3c0-.9.1-1.6.4-2.3s.8-1.2 1.4-1.5c.6-.4 1.2-.6 1.8-.6 1.1 0 2 .4 2.6 1.1s1 1.8 1 3.1v.6h-5.8c0 .8.3 1.5.7 2 .5.5 1 .8 1.8.8.5 0 1-.1 1.3-.3l1-.8.8.7c-.7 1-1.8 1.6-3.2 1.6zm-.2-7.6a2 2 0 0 0-1.4.6 3 3 0 0 0-.8 1.8h4.3c0-.8-.3-1.4-.6-1.8-.4-.4-.8-.6-1.5-.6zM466 432.6a1 1 0 0 0-.4-1l-1.5-.5c-.8-.1-1.4-.3-1.8-.5s-.7-.5-1-.8l-.2-1.1c0-.7.2-1.3.8-1.8s1.4-.7 2.3-.7c1 0 1.7.3 2.3.8.6.5 1 1 1 1.9H466c0-.4-.2-.8-.5-1s-.8-.5-1.3-.5-1 .1-1.3.4-.4.5-.4.8c0 .4.1.7.4.8.3.2.8.4 1.5.5l1.8.6 1 .8c.2.3.3.7.3 1.2 0 .7-.3 1.3-1 1.8-.5.5-1.3.7-2.3.7-.6 0-1.2-.1-1.8-.4a3 3 0 0 1-1.2-1c-.3-.4-.4-.9-.4-1.4h1.4c0 .5.2.9.6 1.2.4.3.8.4 1.4.4.6 0 1-.1 1.3-.3.4-.2.5-.5.5-1z"/></g></g><g fill="#666"><path d="M363.5 371.5c-.8 0-1.6.2-2.2.5a25.8 25.8 0 0 1 25.4-41 1 1 0 0 0 .4-2.2 28 28 0 0 0-27.5 44.7 4.6 4.6 0 1 0 3.9-2zm1.7 6.3a2.4 2.4 0 1 1-3.4-3.4 2.4 2.4 0 0 1 3.4 3.4zM403.5 338.9a4.6 4.6 0 1 0-1.6 1.5 25.8 25.8 0 0 1-25.4 41 1 1 0 0 0-.4 2.2 28 28 0 0 0 33.4-27.4 28 28 0 0 0-6-17.3zm-5.5-.9a2.4 2.4 0 1 1 3.4-3.4 2.4 2.4 0 0 1-3.4 3.4z"/><path d="M377 375c0 .6.6 1 1.2 1h6.8c.6 0 1-.4 1-1v-2.1c1.5-.4 2.9-1 4.2-1.7l1.5 1.5a1 1 0 0 0 1.5 0l4.8-4.9a1 1 0 0 0 0-1.5l-1.5-1.5a17 17 0 0 0 1.7-4h2.2c.6 0 1-.6 1-1.2v-6.8c0-.6-.4-1.1-1-1.1h-2.2a17 17 0 0 0-1.7-4.1l1.5-1.5a1 1 0 0 0 0-1.5l-4.8-4.8a1 1 0 0 0-1.5 0l-1.5 1.4a17 17 0 0 0-4.1-1.7v-2c0-.7-.5-1.2-1.1-1.2h-6.8a1 1 0 0 0-1.1 1.1v2.1a17 17 0 0 0-4.1 1.7l-1.5-1.5a1 1 0 0 0-1.5 0l-4.9 4.9a1 1 0 0 0 0 1.5l1.5 1.5c-.7 1.3-1.3 2.7-1.7 4.1h-2.1a1 1 0 0 0-1 1v7c0 .5.4 1 1 1h2.1c.4 1.4 1 2.8 1.7 4.1l-1.5 1.5a1 1 0 0 0 0 1.5l4.8 4.9c.2.2.5.3.8.3.3 0 .6-.1.8-.3l1.5-1.5c1.3.7 2.6 1.3 4 1.7v2zm-3.6-6.1a1 1 0 0 0-1.4.1l-1.3 1.3-3.3-3.2 1.4-1.4c.3-.3.4-.9.1-1.3a15 15 0 0 1-2-5 1 1 0 0 0-1.1-.9h-2V354h2c.5 0 1-.4 1-.9a15 15 0 0 1 2.1-5c.3-.4.2-1-.1-1.3l-1.4-1.4 3.3-3.2 1.3 1.3c.4.3 1 .4 1.4.1a15 15 0 0 1 5-2c.5-.2.9-.6.9-1.1v-1.9h4.6v1.9c0 .5.4 1 .9 1 1.7.4 3.4 1.1 5 2.1.4.3 1 .2 1.3-.1l1.3-1.3 3.3 3.2-1.3 1.4a1 1 0 0 0-.1 1.3 15 15 0 0 1 2 5c.1.5.6.9 1 .9h2v4.6h-2a1 1 0 0 0-1 .9 15 15 0 0 1-2 5 1 1 0 0 0 .1 1.3l1.3 1.4-3.3 3.2-1.3-1.3a1 1 0 0 0-1.4-.1 15 15 0 0 1-5 2 1 1 0 0 0-.8 1.1v1.9h-4.6V372c0-.5-.4-1-1-1-1.7-.4-3.4-1.1-4.9-2.1z"/><path d="M390.6 356.2a9 9 0 1 0-18 0 9 9 0 0 0 18 0zm-15.9 0a6.8 6.8 0 1 1 13.7 0 6.8 6.8 0 0 1-13.7 0zM391.6 332.4a1 1 0 1 0 0-2.2 1 1 0 0 0 0 2.2zM371.6 380a1 1 0 1 0 0 2.2 1 1 0 0 0 0-2.2z"/></g><g><g fill="#1A1A1A"><path d="M498 409.3h-4.8v5h-1.5V403h7v1.3h-5.5v3.9h4.7v1.2zM500.6 403.6c0-.2 0-.4.2-.6s.4-.2.7-.2.5 0 .6.2l.2.6c0 .2 0 .5-.2.6l-.6.2c-.3 0-.5 0-.7-.2s-.2-.3-.2-.6zm1.6 10.7h-1.5V406h1.5v8.4zM506.4 414.3h-1.5v-12h1.5v12zM512.5 414.5c-1.1 0-2-.4-2.8-1.2s-1-1.7-1-3v-.2c0-.9.1-1.6.4-2.3s.8-1.2 1.4-1.5c.5-.4 1.2-.6 1.8-.6 1.1 0 2 .4 2.6 1.1s1 1.8 1 3.1v.6H510c0 .8.3 1.5.7 2 .5.5 1 .8 1.8.8.5 0 1-.1 1.3-.3l1-.8.8.6c-.7 1.1-1.8 1.7-3.2 1.7zm-.2-7.6a2 2 0 0 0-1.4.6 3 3 0 0 0-.8 1.8h4.3c0-.8-.3-1.4-.6-1.8-.4-.4-.9-.6-1.5-.6zM525.7 409.3c-1.3-.4-2.3-.9-2.8-1.4s-1-1.2-1-2c0-.9.4-1.6 1.2-2.2s1.6-1 2.8-1c.7 0 1.4.2 2 .5s1.1.8 1.5 1.3.5 1.1.5 1.7h-1.5c0-.7-.3-1.2-.7-1.6s-1-.6-1.8-.6-1.4.2-1.8.5-.6.8-.6 1.4c0 .4.2.8.6 1.1.4.4 1 .7 2 1 1 .2 1.7.5 2.2.8s1 .7 1.2 1.1.4 1 .4 1.5c0 1-.4 1.7-1 2.2s-1.8.9-3 .9c-.7 0-1.5-.2-2.2-.5s-1.2-.7-1.5-1.2-.6-1.1-.6-1.8h1.5c0 .7.3 1.3.8 1.7s1.2.6 2 .6 1.4-.2 1.9-.5.6-.8.6-1.4-.2-1-.6-1.2-1.1-.7-2.1-1zM534.7 412.2l2-6.3h1.5l-3.4 9.7c-.5 1.4-1.4 2.1-2.5 2.1h-.8v-1.3h.4c.5 0 .8 0 1.1-.2s.5-.6.7-1.1l.3-.9-3-8.3h1.6l2 6.3zM544.7 412a1 1 0 0 0-.4-.8l-1.6-.6c-.7-.1-1.3-.3-1.7-.6s-.7-.4-1-.7a2.2 2.2 0 0 1 .6-2.8c.6-.6 1.3-.8 2.3-.8 1 0 1.7.3 2.3.8.6.4.9 1 .9 1.9h-1.5c0-.4-.1-.8-.5-1s-.7-.5-1.2-.5c-.6 0-1 .1-1.3.3s-.4.6-.4 1c0 .3.1.6.4.7.3.2.8.4 1.5.5l1.7.6c.5.2.8.5 1 .8.3.3.4.7.4 1.2 0 .7-.3 1.3-1 1.8-.5.4-1.3.7-2.3.7-.7 0-1.3-.1-1.8-.4a3 3 0 0 1-1.2-1c-.3-.4-.5-.9-.5-1.4h1.5c0 .5.2.9.6 1.2.3.3.8.4 1.4.4.6 0 1-.1 1.3-.3.4-.3.5-.6.5-1zM550.3 403.8v2h1.6v1.2h-1.6v5.2l.2.8c.2.2.4.3.8.3l.6-.1v1.1l-1 .2c-.7 0-1.2-.2-1.5-.6s-.5-1-.5-1.7V407h-1.6v-1.1h1.6v-2h1.4zM557.4 414.5c-1.1 0-2-.4-2.8-1.2s-1-1.7-1-3v-.2c0-.9.1-1.6.4-2.3s.8-1.2 1.4-1.5c.5-.4 1.2-.6 1.8-.6 1.1 0 2 .4 2.6 1.1s1 1.8 1 3.1v.6H555c0 .8.3 1.5.7 2 .5.5 1 .8 1.8.8.5 0 1-.1 1.3-.3l1-.8.8.6c-.7 1.1-1.8 1.7-3.2 1.7zm-.2-7.6a2 2 0 0 0-1.4.6 3 3 0 0 0-.8 1.8h4.3c0-.8-.3-1.4-.6-1.8-.4-.4-.9-.6-1.5-.6zM564 405.9l.1.9c.6-.7 1.5-1 2.5-1 1.2 0 2 .4 2.4 1.3a3.2 3.2 0 0 1 2.7-1.4c1.9 0 2.8 1 2.9 3v5.6H573v-5.6c0-.6-.1-1-.4-1.3s-.7-.5-1.4-.5c-.5 0-1 .2-1.3.5s-.6.8-.6 1.3v5.6h-1.5v-5.5c0-1.2-.6-1.9-1.8-1.9-1 0-1.6.4-2 1.2v6.2h-1.4V406h1.4z"/></g></g><g fill="#666"><path d="M556.1 328.7H525a2.8 2.8 0 0 0-2.8 2.7v2.8h-11.9a2.8 2.8 0 0 0-2.7 2.7V381c0 1.5 1.2 2.8 2.7 2.8h31.2c1.5 0 2.8-1.3 2.8-2.8v-2.8h12c1.4 0 2.7-1.2 2.7-2.7v-44c0-1.6-1.3-2.8-2.8-2.8zm-6.4 1.8h1.8v2.5-.2a1 1 0 0 0-1.7 0l-.1.2v-2.5zm-7.4 50.5c0 .5-.4 1-.9 1h-31.2a1 1 0 0 1-1-1v-44c0-.6.5-1 1-1h23v6.4a1 1 0 0 0 1.7.4l1-2 1 2a1 1 0 0 0 1.8-.4V336h2.7c.5 0 1 .4 1 1v8.2a1 1 0 0 0-1 1v2.2l-.8.4-1.6-1.7a1 1 0 0 0-1.3 0l-2.6 2.6a1 1 0 0 0 0 1.3l1.6 1.7-.3.8H534a1 1 0 0 0-1 .9v3.6c0 .6.5 1 1 1h2.3l.3.8-1.6 1.6a1 1 0 0 0 0 1.3l2.6 2.6c.3.4 1 .4 1.3 0l1.6-1.6c.3 0 .5.2.8.3v2.3c0 .5.4 1 1 1V381zm-7.3-45h1.8v2.5-.1a1 1 0 0 0-1.7 0l-.1.1V336zm10.8 14c.6.1 1.1.4 1.6.7.4.2.9.1 1.1-.2l1.5-1.4 1.3 1.3-1.5 1.4a1 1 0 0 0 0 1.2l.6 1.6c.1.4.5.7.9.7h2v1.8h-2a1 1 0 0 0-1 .7c0 .6-.3 1.2-.6 1.7-.2.3-.1.8.1 1l1.5 1.6-1.3 1.3-1.4-1.5a1 1 0 0 0-1.2-.2c-.5.3-1 .6-1.6.7a1 1 0 0 0-.7 1v2h-1.8v-2a1 1 0 0 0-.7-1c-.6-.1-1.2-.4-1.7-.7a1 1 0 0 0-1.1.2l-1.5 1.5-1.3-1.3 1.5-1.5c.3-.3.4-.8.1-1.1-.3-.5-.5-1.1-.6-1.7a1 1 0 0 0-1-.7h-2v-1.8h2c.5 0 .8-.3 1-.7.1-.6.3-1.1.6-1.7a1 1 0 0 0-.1-1l-1.5-1.5 1.3-1.3 1.5 1.4c.3.3.8.4 1.1.2.5-.3 1-.6 1.7-.7.4-.1.7-.5.7-.9v-2h1.8v2c0 .4.3.8.7.9zm11.2 25.5c0 .5-.4 1-.9 1h-12v-9.3h2c.4 0 .8-.4.8-.9V364l.8-.3 1.7 1.6c.3.3.9.3 1.3 0l2.6-2.6c.3-.4.3-1 0-1.3l-1.7-1.6.4-.8h2.3c.5 0 .9-.4.9-1v-3.6c0-.5-.4-1-1-1H552l-.4-.7 1.7-1.7c.3-.3.3-1 0-1.3l-2.6-2.6a1 1 0 0 0-1.3 0l-1.7 1.7-.8-.4v-2.3c0-.5-.4-1-.9-1h-1.8V337c0-1.5-1.3-2.7-2.8-2.7H524v-2.8c0-.5.4-.9.9-.9h23v6.4a1 1 0 0 0 1.7.4l1-2 1 2a1 1 0 0 0 1.8-.4v-6.4h2.7c.5 0 1 .4 1 1v44z"/><path d="M513 348.9h7.3v1.8H513v-1.8zM522.1 348.9h3.7v1.8h-3.7v-1.8zM527.6 348.9h5.6v1.8h-5.6v-1.8zM513 352.5h5.5v1.9H513v-1.9zM520.3 352.5h1.8v1.9h-1.8v-1.9zM524 352.5h7.3v1.9H524v-1.9zM513 356.2h7.3v1.8H513v-1.8zM522.1 356.2h5.5v1.8h-5.5v-1.8zM529.5 356.2h1.8v1.8h-1.8v-1.8zM513 359.9h20.2v1.8H513V360zM513 363.6h5.5v1.8H513v-1.8zM520.3 363.6h9.2v1.8h-9.2v-1.8zM531.3 363.6h1.9v1.8h-1.9v-1.8zM513 367.2h1.8v1.9H513v-1.9zM516.6 367.2h5.5v1.9h-5.5v-1.9zM524 367.2h9.2v1.9H524v-1.9zM513 339.7h1.8v1.8H513v-1.8zM516.6 339.7h8.3v1.8h-8.3v-1.8zM513 343.4h11.9v1.8h-12v-1.8zM539.6 356.2a4.6 4.6 0 1 0 4.6-4.6c-2.6 0-4.6 2-4.6 4.6zm7.3 0a2.8 2.8 0 1 1-2.7-2.7c1.5 0 2.7 1.2 2.7 2.7z"/></g><g><g fill="#1A1A1A"><path d="M636 410.7c-.2 1.2-.6 2.1-1.3 2.8s-1.8 1-3 1c-1.4 0-2.4-.5-3.3-1.5s-1.2-2.2-1.2-3.8V408c0-1 .2-2 .6-2.8s1-1.4 1.6-1.9 1.5-.6 2.4-.6c1.2 0 2.2.3 3 1s1 1.6 1.2 2.8h-1.5c-.2-1-.4-1.6-.9-2s-1-.6-1.8-.6c-1 0-1.7.4-2.2 1s-.9 1.8-.9 3.1v1.1c0 1.2.3 2.2.8 3s1.2 1 2.2 1c.8 0 1.4-.1 1.9-.5s.7-1 .9-2h1.5zM639.7 414.3h-1.4v-12h1.4v12zM642 410c0-.8.1-1.6.4-2.2s.8-1.2 1.4-1.5 1.2-.6 2-.6c1.1 0 2 .4 2.8 1.2s1 1.9 1 3.2c0 1-.1 1.7-.4 2.3s-.8 1.2-1.4 1.5-1.2.6-2 .6c-1.2 0-2-.4-2.8-1.2s-1-1.9-1-3.2zm1.4.2c0 1 .2 1.7.7 2.2s1 .9 1.7.9 1.3-.3 1.7-.9.7-1.3.7-2.4c0-1-.2-1.7-.7-2.2s-1-.9-1.7-.9-1.3.3-1.7.9-.7 1.3-.7 2.4zM657 413.5c-.6.6-1.4 1-2.5 1-.9 0-1.6-.3-2-.8s-.8-1.3-.8-2.3v-5.5h1.5v5.4c0 1.3.5 2 1.5 2 1.2 0 1.9-.5 2.3-1.3V406h1.4v8.4H657v-.8zM660.6 410c0-1.3.3-2.3.9-3.1s1.4-1.2 2.4-1.2 1.8.3 2.4 1v-4.4h1.4v12h-1.3l-.1-.9a3 3 0 0 1-2.4 1c-1 0-1.8-.3-2.4-1.1s-1-1.9-1-3.2zm1.4.2c0 1 .2 1.7.6 2.2s1 .9 1.6.9c1 0 1.6-.5 2-1.3v-3.9a2.1 2.1 0 0 0-2-1.2c-.6 0-1.2.3-1.6.9s-.6 1.3-.6 2.4zM678.1 409.3c-1.3-.4-2.2-.9-2.8-1.4s-.9-1.2-.9-2c0-.9.4-1.6 1.1-2.2s1.6-1 2.8-1c.8 0 1.5.2 2 .5s1.2.8 1.5 1.3.5 1.1.5 1.7h-1.5c0-.7-.2-1.2-.7-1.6s-1-.6-1.8-.6c-.7 0-1.3.2-1.7.5s-.7.8-.7 1.4c0 .4.2.8.6 1.1.4.4 1.1.7 2 1 1 .2 1.7.5 2.3.8s.9.7 1.1 1.1.4 1 .4 1.5c0 1-.3 1.7-1 2.2s-1.7.9-3 .9c-.7 0-1.4-.2-2.1-.5s-1.2-.7-1.6-1.2-.5-1.1-.5-1.8h1.5c0 .7.2 1.3.7 1.7s1.2.6 2 .6c.9 0 1.5-.2 1.9-.5s.6-.8.6-1.4-.2-1-.6-1.2-1-.7-2-1zM687.9 414.5c-1.2 0-2.1-.4-2.8-1.2s-1.1-1.7-1.1-3v-.2c0-.9.1-1.6.5-2.3s.7-1.2 1.3-1.5 1.2-.6 1.9-.6c1 0 2 .4 2.5 1.1s1 1.8 1 3.1v.6h-5.8c0 .8.3 1.5.8 2s1 .8 1.7.8c.5 0 1-.1 1.3-.3l1-.8.8.6c-.7 1.1-1.7 1.7-3.1 1.7zm-.2-7.6c-.6 0-1 .2-1.5.6s-.6 1-.7 1.8h4.2c0-.8-.2-1.4-.6-1.8s-.8-.6-1.4-.6zM697.2 407.2h-.7c-1 0-1.6.3-2 1.1v6h-1.4V406h1.5v1c.4-.8 1.1-1.2 2-1.2l.6.1v1.4zM701.8 412.4l2.1-6.5h1.5l-3 8.4h-1.2l-3-8.4h1.5l2.1 6.5zM707.1 403.6c0-.2 0-.4.2-.6s.4-.2.7-.2.4 0 .6.2.2.4.2.6l-.2.6-.6.2c-.2 0-.5 0-.7-.2s-.2-.3-.2-.6zm1.6 10.7h-1.5V406h1.5v8.4zM714.7 413.3a2 2 0 0 0 2-1.6h1.3c0 .4-.1.9-.5 1.3s-.7.8-1.2 1-1 .5-1.6.5c-1.2 0-2-.4-2.8-1.2s-1-1.8-1-3.1v-.3c0-.8.2-1.5.5-2.2s.7-1.1 1.3-1.5 1.2-.5 2-.5c1 0 1.7.3 2.3.9s1 1.3 1 2.2h-1.3c0-.6-.3-1-.6-1.4s-.9-.5-1.4-.5c-.8 0-1.3.3-1.7.8s-.6 1.3-.6 2.3v.3c0 1 .2 1.7.6 2.2s1 .8 1.7.8zM723.5 414.5c-1.1 0-2-.4-2.8-1.2s-1-1.7-1-3v-.2c0-.9 0-1.6.4-2.3s.8-1.2 1.3-1.5 1.2-.6 2-.6c1 0 1.9.4 2.5 1.1s.9 1.8.9 3.1v.6H721c0 .8.2 1.5.7 2s1 .8 1.8.8c.5 0 1-.1 1.3-.3l.9-.8.9.6c-.7 1.1-1.8 1.7-3.2 1.7zm-.2-7.6c-.6 0-1 .2-1.5.6s-.6 1-.7 1.8h4.2c0-.8-.2-1.4-.5-1.8s-.9-.6-1.5-.6zM733.7 412c0-.3-.1-.6-.4-.8s-.8-.4-1.6-.6l-1.7-.6c-.4-.3-.8-.4-1-.7s-.3-.7-.3-1.1c0-.7.3-1.3.9-1.8s1.3-.7 2.2-.7c1 0 1.8.3 2.4.8s.9 1 .9 1.9h-1.5c0-.4-.1-.8-.5-1s-.7-.5-1.3-.5c-.5 0-.9.1-1.2.3s-.4.6-.4 1c0 .3.1.6.4.7l1.5.5c.7.1 1.3.4 1.7.6s.8.5 1 .8.4.7.4 1.2c0 .7-.3 1.3-1 1.8s-1.3.7-2.3.7a3.6 3.6 0 0 1-3-1.4c-.3-.4-.5-.9-.5-1.4h1.5c0 .5.2.9.6 1.2s.8.4 1.4.4c.5 0 1-.1 1.3-.3s.5-.6.5-1zM737.6 415.3h-1.2l4.8-12.4h1.2l-4.8 12.4z"/><g><path d="M653 431.2l.2 1.5.3-1.3 2.3-8h1.2l2.2 8 .3 1.4.3-1.6 1.8-7.7h1.5l-2.8 11.3h-1.4l-2.3-8.3-.2-.8-.2.8-2.4 8.3h-1.4l-2.7-11.3h1.5l1.8 7.7zM668 435c-1 0-2-.4-2.7-1.1s-1-1.8-1-3v-.3c0-.9 0-1.6.4-2.3s.8-1.2 1.3-1.5 1.2-.6 1.9-.6c1.1 0 2 .4 2.6 1.1s.9 1.8.9 3.1v.6h-5.7c0 .8.2 1.5.7 2s1 .8 1.8.8c.5 0 .9-.1 1.3-.3s.6-.5.9-.8l.9.7c-.7 1-1.8 1.6-3.2 1.6zm-.1-7.6c-.6 0-1 .2-1.5.6s-.6 1-.7 1.8h4.2c0-.8-.2-1.4-.6-1.8s-.8-.6-1.4-.6zM680.5 430.7c0 1.3-.3 2.3-.9 3.1s-1.4 1.2-2.4 1.2a3 3 0 0 1-2.4-1.1l-.1 1h-1.3v-12h1.4v4.4c.6-.7 1.4-1 2.4-1s1.9.3 2.4 1 1 2 1 3.3zm-1.4-.2c0-1-.2-1.7-.6-2.2s-1-.9-1.6-.9c-1 0-1.7.5-2 1.4v3.6c.4 1 1 1.4 2 1.4.7 0 1.2-.3 1.6-.8s.6-1.4.6-2.5zM693.5 431.9h-4.8l-1 3H686l4.3-11.4h1.3l4.4 11.3h-1.6l-1-3zm-4.4-1.3h4l-2-5.3-2 5.3zM699.4 430.4v4.4H698v-11.3h4.2c1.3 0 2.2.3 3 1s1 1.4 1 2.4c0 1.1-.3 2-1 2.6s-1.7.9-3 .9h-2.7zm0-1.3h2.7c.8 0 1.4-.1 1.9-.5s.6-1 .6-1.7c0-.6-.2-1.2-.6-1.6s-1-.6-1.8-.6h-2.8v4.4zM710 434.8h-1.5v-11.3h1.5v11.3zM717.7 432.6c0-.4-.1-.7-.4-1s-.8-.3-1.6-.5l-1.7-.5c-.4-.2-.8-.5-1-.8s-.3-.7-.3-1.1c0-.7.3-1.3 1-1.8s1.2-.7 2.2-.7c1 0 1.7.3 2.3.8s.9 1 .9 1.9h-1.5c0-.4-.1-.8-.5-1s-.7-.5-1.2-.5c-.6 0-1 .1-1.3.4s-.4.5-.4.8c0 .4.1.7.4.8l1.5.5c.7.1 1.3.4 1.7.6s.8.5 1 .8.4.7.4 1.2c0 .7-.3 1.3-1 1.8s-1.3.7-2.3.7a3.6 3.6 0 0 1-3-1.4c-.3-.4-.5-.9-.5-1.4h1.5c0 .5.2.9.6 1.2s.8.4 1.4.4c.5 0 1-.1 1.3-.3s.5-.5.5-1z"/></g></g></g><g><path fill="#666" d="M669.5 381h2.3v2.2h-2.3zM674.2 381h2.3v2.2h-2.3zM669.5 366.8h2.3v2.3h-2.3zM674.2 366.8h2.3v2.3h-2.3z"/><path fill="#666" d="M704.7 338.6l-2 .1a20 20 0 0 0-39 4.7l-1.2-.1a13 13 0 0 0-.2 25.8h2.5v3.5c0 .7.5 1.2 1.2 1.2h2.3v2.4H666c-.7 0-1.2.5-1.2 1.1v9.4c0 .7.5 1.2 1.2 1.2h37.6c.6 0 1.1-.5 1.1-1.2v-9.4c0-.6-.5-1.1-1.1-1.1h-2.4v-2.4h2.4c.6 0 1.1-.5 1.1-1.1V369a15.3 15.3 0 0 0 0-30.5zm-2.3 40v7h-35.2v-7h35.2zm-31.7-2.4v-2.4h28.2v2.4h-28.2zm31.7-4.7h-35.2v-7h35.2v7zm5-5l-2.7.3v-3.5c0-.7-.5-1.2-1.1-1.2h-11.8v-10.6h10.8a3.5 3.5 0 1 0 0-2.3h-12c-.6 0-1.1.5-1.1 1.1v11.8h-5.9v-22.3h5a3.5 3.5 0 1 0 0-2.4h-6.2c-.6 0-1.1.6-1.1 1.2v23.5h-6v-8.2c0-.7-.4-1.2-1-1.2H668a3.5 3.5 0 1 0 0 2.3h5v7H666c-.6 0-1.2.6-1.2 1.3v3.5h-2.3a10.6 10.6 0 0 1 0-21.2l2.1.3c.4 0 .7 0 1-.3.3-.2.4-.6.4-1v-.1a17.6 17.6 0 0 1 34.7-4.2c.2.7.8 1 1.4 1a13 13 0 0 1 5.3 25.2zm-2.7-16.2a1.2 1.2 0 1 1 1.2 1.2c-.6 0-1.2-.5-1.2-1.2zm-14-11.7a1.2 1.2 0 1 1 1.1 1.2c-.6 0-1.1-.6-1.1-1.2zM666 353.9a1.2 1.2 0 1 1-2.4 0 1.2 1.2 0 0 1 2.4 0z"/></g></svg>