<svg xmlns="http://www.w3.org/2000/svg" xmlns:xlink="http://www.w3.org/1999/xlink" viewBox="0 0 854 330"><g fill="#FFF" stroke="#4D4D4D" stroke-width=".5"><path stroke-miterlimit="10" d="M227.6 7.1h180V325h-180z"/><path d="M227.9 7.4h179.4v317.3H227.9z"/></g><g fill="#4D4D4D"><path d="M227.6 7.1h179.7v49H227.6z"/><path d="M227.9 7.4H407v48.4H227.9z"/></g><g fill="#FFF"><path d="M281.7 36.9V24h3.6c1.1 0 2 .2 3 .7s1.5 1.2 2 2.1.6 2 .6 3.1v.9c0 1.2-.2 2.2-.7 3.1s-1.1 1.6-2 2.1-1.8.8-3 .8h-3.5zm1.7-11.5v10h1.7c1.3 0 2.4-.3 3-1.1s1.2-2 1.2-3.5v-.7a5 5 0 0 0-1-3.4 3.6 3.6 0 0 0-3-1.3h-2zM297.5 37c-1.3 0-2.3-.4-3.1-1.2s-1.2-2-1.2-3.4V32c0-1 .2-1.8.5-2.6s.9-1.3 1.5-1.7 1.4-.6 2.1-.6c1.3 0 2.2.4 3 1.2s1 2 1 3.5v.7h-6.5c0 1 .3 1.7.8 2.2s1.2 1 2 1c.6 0 1-.2 1.5-.4s.7-.6 1-1l1 .8a4 4 0 0 1-3.6 1.8zm-.2-8.5c-.6 0-1.2.3-1.6.7s-.7 1.2-.8 2h4.7c0-1-.3-1.5-.7-2s-.9-.7-1.6-.7zM306.5 34.7l2.4-7.3h1.6l-3.4 9.5H306l-3.5-9.5h1.7l2.4 7.3zM316.3 37c-1.3 0-2.4-.4-3.2-1.2s-1.2-2-1.2-3.4V32c0-1 .2-1.8.6-2.6s.8-1.3 1.5-1.7 1.3-.6 2-.6c1.3 0 2.3.4 3 1.2s1 2 1 3.5v.7h-6.5c0 1 .3 1.7.9 2.2s1.2 1 2 1a3.2 3.2 0 0 0 2.5-1.3l1 .7a4 4 0 0 1-3.6 1.8zm-.2-8.5c-.7 0-1.2.3-1.7.7s-.7 1.2-.8 2h4.8c0-1-.3-1.5-.7-2s-1-.7-1.6-.7zM324 36.9h-1.6V23.4h1.6v13.5zM326.5 32c0-1 .2-1.7.6-2.5a4 4 0 0 1 3.7-2.3c1.3 0 2.4.4 3.2 1.3s1.2 2.1 1.2 3.6v.1c0 1-.2 1.8-.5 2.5s-1 1.3-1.6 1.7-1.4.6-2.2.6c-1.3 0-2.4-.4-3.2-1.3s-1.2-2-1.2-3.6zm1.7.2c0 1 .2 2 .7 2.6s1.1 1 2 1c.8 0 1.4-.4 2-1s.7-1.6.7-2.8c0-1-.3-1.9-.8-2.5s-1.1-1-2-1c-.8 0-1.4.3-1.9 1s-.7 1.5-.7 2.7zM345.6 32.2c0 1.5-.3 2.6-1 3.5S343.1 37 342 37c-1.1 0-2-.3-2.7-1v4.5h-1.6V27.4h1.5v1c.7-.8 1.6-1.2 2.8-1.2 1.2 0 2 .4 2.7 1.3s1 2 1 3.6v.1zM344 32c0-1-.2-1.9-.7-2.5s-1-1-1.9-1c-1 0-1.7.5-2.2 1.4v4.5c.5.9 1.2 1.3 2.2 1.3.8 0 1.4-.3 1.9-1s.7-1.5.7-2.7z"/></g><g fill="#4B4A4A"><path d="M250.6 136.5c0 1.2-.5 2-1.2 2.7-.8.6-1.7 1-3 1-.8 0-1.5-.3-2.2-.7-.6-.4-1.1-1-1.5-1.7s-.5-1.6-.5-2.6v-1c0-1 .1-1.8.5-2.6s.9-1.4 1.5-1.8c.7-.4 1.5-.6 2.3-.6 1.2 0 2.2.3 2.9 1a4 4 0 0 1 1.2 2.7h-1.8c0-.8-.3-1.4-.7-1.7-.3-.3-.9-.5-1.6-.5-.8 0-1.4.3-1.8.9-.4.6-.7 1.4-.7 2.6v.9c0 1.2.2 2 .6 2.6.5.6 1 1 1.9 1 .7 0 1.2-.2 1.6-.5s.6-1 .7-1.7h1.8zM252 136c0-.8.2-1.5.6-2.1a3.4 3.4 0 0 1 3.2-2c1 0 1.9.4 2.6 1a4 4 0 0 1 1 2.8v.4c0 .8 0 1.5-.4 2.1-.3.6-.7 1.1-1.3 1.4s-1.2.5-2 .5c-1 0-2-.3-2.6-1-.7-.8-1-1.8-1-3v-.1zm1.9.1c0 .8.1 1.5.5 2 .3.4.8.6 1.4.6s1-.2 1.4-.7c.3-.4.5-1.1.5-2 0-.8-.2-1.5-.5-2-.4-.4-.8-.6-1.4-.6-.6 0-1 .2-1.4.6-.4.5-.5 1.2-.5 2.1zM263 132v1c.6-.7 1.3-1 2.3-1 1.6 0 2.5.9 2.5 2.8v5.2H266v-5.1c0-.5 0-1-.3-1.2-.2-.2-.6-.3-1-.3-.8 0-1.3.3-1.7 1v5.6h-1.8v-8h1.7zM271.6 132v1c.6-.7 1.4-1 2.3-1 1.7 0 2.5.9 2.5 2.8v5.2h-1.7v-5.1c0-.5-.2-1-.4-1.2-.2-.2-.5-.3-1-.3-.8 0-1.3.3-1.6 1v5.6h-1.8v-8h1.7zM282 140.1c-1 0-2-.3-2.7-1-.7-.7-1-1.7-1-2.9v-.2c0-.8.1-1.5.4-2.1.3-.6.7-1.1 1.3-1.5s1.2-.5 1.8-.5c1.1 0 2 .4 2.5 1 .6.7 1 1.7 1 3v.7H280c0 .7.3 1.2.7 1.6s.9.5 1.4.5c.9 0 1.5-.3 2-1l1 1c-.3.4-.7.8-1.3 1a4 4 0 0 1-1.8.4zm-.2-6.7c-.5 0-.9.1-1.2.5-.3.3-.4.8-.5 1.4h3.4v-.1c0-.6-.2-1-.5-1.4-.3-.3-.7-.4-1.2-.4zM290.2 138.7c.4 0 .8-.1 1-.4s.5-.5.5-1h1.7c0 .6-.2 1-.5 1.5s-.6.7-1.1 1-1 .3-1.6.3c-1.1 0-2-.3-2.7-1s-1-1.7-1-3v-.2c0-1.2.4-2.2 1-2.9.7-.7 1.6-1 2.7-1 1 0 1.7.2 2.3.8a3 3 0 0 1 1 2.1h-1.8c0-.4-.1-.8-.4-1.1-.3-.3-.7-.4-1.1-.4-.6 0-1 .2-1.4.6-.3.4-.5 1-.5 1.9v.3c0 .8.2 1.5.5 1.9.3.4.8.6 1.4.6zM297.3 130.1v2h1.4v1.3h-1.4v4.4c0 .3 0 .5.2.7l.6.2.6-.1v1.4l-1.1.1c-1.4 0-2.1-.7-2.1-2.2v-4.5h-1.3V132h1.3v-2h1.8zM299.8 136c0-.8.1-1.5.4-2.1a3.4 3.4 0 0 1 3.3-2c1 0 1.9.4 2.6 1a4 4 0 0 1 1 2.8v.4c0 .8-.1 1.5-.4 2.1-.3.6-.7 1.1-1.3 1.4s-1.2.5-2 .5c-1 0-2-.3-2.6-1-.7-.8-1-1.8-1-3v-.1zm1.8.1c0 .8.1 1.5.5 2 .3.4.8.6 1.4.6s1-.2 1.4-.7c.3-.4.5-1.1.5-2 0-.8-.2-1.5-.5-2-.4-.4-.8-.6-1.4-.6-.6 0-1 .2-1.4.6-.4.5-.5 1.2-.5 2.1zM313.1 133.7h-.7c-.8 0-1.4.3-1.7.9v5.4H309v-8h1.7v1c.4-.7 1-1 1.8-1h.6v1.7zM319 137.8c0-.3-.2-.5-.4-.7s-.7-.3-1.3-.4l-1.5-.5c-1-.4-1.4-1-1.4-1.9 0-.7.3-1.2.9-1.7s1.3-.7 2.2-.7c1 0 1.7.3 2.3.7.6.5.9 1.1.9 1.9h-1.8c0-.4-.1-.7-.4-.9-.3-.2-.6-.3-1-.3s-.7 0-1 .2c-.2.2-.3.5-.3.8 0 .2 0 .4.3.6l1.4.5c.7.1 1.2.3 1.6.5l1 .8.2 1a2 2 0 0 1-.9 1.8c-.6.4-1.3.6-2.3.6-.6 0-1.2 0-1.7-.3s-1-.6-1.2-1-.4-.8-.4-1.3h1.7c0 .4.2.7.5 1 .3.2.7.3 1.1.3.5 0 .9 0 1.1-.3.3-.1.4-.4.4-.7z"/></g><g fill="#4B4A4A"><path d="M244.5 207.4h-1.9v-10.7h1.9v10.7zM248.5 199.5v.9c.7-.7 1.4-1 2.4-1 1.6 0 2.5.9 2.5 2.8v5.2h-1.8v-5.1c0-.5 0-1-.3-1.2-.2-.2-.6-.3-1-.3-.8 0-1.3.3-1.7 1v5.6h-1.8v-8h1.7zM257.7 197.5v2h1.4v1.3h-1.4v4.4l.2.7c.1.1.3.2.7.2l.6-.1v1.4l-1.2.1c-1.4 0-2-.7-2-2.2v-4.5h-1.3v-1.3h1.3v-2h1.7zM264.3 207.5c-1.1 0-2-.3-2.8-1-.7-.7-1-1.7-1-2.9v-.2c0-.8.1-1.5.4-2.1.4-.6.8-1.1 1.3-1.5s1.2-.5 1.9-.5c1 0 1.9.4 2.5 1 .6.7.9 1.7.9 3v.7h-5.2c0 .6.3 1.2.6 1.5s1 .6 1.5.6c.8 0 1.5-.3 2-1l1 1c-.4.4-.8.8-1.3 1a4 4 0 0 1-1.8.4zm-.2-6.8c-.5 0-1 .2-1.2.6-.3.3-.5.8-.6 1.4h3.4v-.1c0-.6-.2-1-.5-1.4-.2-.3-.6-.5-1.1-.5zM268.8 203.4c0-1.3.3-2.2.9-3 .6-.7 1.3-1 2.3-1 1 0 1.6.2 2.1.9l.1-.8h1.6v7.6c0 1-.3 2-1 2.5s-1.5 1-2.6 1c-.5 0-1.1-.2-1.7-.5a3 3 0 0 1-1.2-.9l.8-1c.6.6 1.2.9 2 .9.6 0 1-.2 1.4-.5.4-.3.5-.8.5-1.4v-.5c-.5.6-1.2.8-2 .8-1 0-1.7-.3-2.3-1-.6-.8-.9-1.8-.9-3.1zm1.8.1c0 .8.2 1.4.5 1.9s.8.7 1.3.7c.8 0 1.3-.3 1.6-1v-3.4c-.3-.6-.8-1-1.5-1-.6 0-1 .3-1.4.8-.3.4-.5 1.1-.5 2zM282.1 201h-.7c-.8 0-1.4.3-1.7 1v5.4H278v-8h1.7v1c.5-.7 1.1-1 1.9-1h.6v1.7zM288 207.4l-.2-.8c-.5.6-1.2 1-2 1s-1.5-.3-2-.7-.7-1-.7-1.7c0-.9.3-1.5.9-2 .6-.4 1.5-.7 2.7-.7h1v-.5c0-.4 0-.7-.3-1-.2-.2-.6-.3-1-.3s-.8 0-1 .3-.4.4-.4.7h-1.8c0-.4.2-.8.5-1.2.2-.3.6-.6 1.1-.9.5-.2 1-.3 1.7-.3 1 0 1.7.2 2.2.7.6.5.8 1.1.9 2v3.6c0 .7 0 1.2.3 1.7H288zm-2-1.3c.4 0 .8 0 1-.2l.8-.7v-1.5h-1c-.6 0-1.1 0-1.5.3s-.5.6-.5 1c0 .3.1.6.4.8.2.2.5.3.9.3zM294 197.5v2h1.3v1.3H294v4.4l.2.7.7.2.6-.1v1.4l-1.2.1c-1.3 0-2-.7-2-2.2v-4.5h-1.3v-1.3h1.3v-2h1.7zM297 197.4c0-.3 0-.5.3-.7.1-.2.4-.2.7-.2s.6 0 .8.2.2.4.2.7c0 .3 0 .5-.2.7s-.5.2-.8.2-.6 0-.7-.2a1 1 0 0 1-.3-.7zm1.9 10h-1.8v-8h1.8v8zM300.8 203.4c0-.8.2-1.5.5-2.1a3.4 3.4 0 0 1 3.2-2c1 0 2 .4 2.6 1a4 4 0 0 1 1 2.8v.4c0 .8 0 1.5-.4 2.1-.3.6-.7 1-1.3 1.4s-1.2.5-2 .5c-1 0-2-.3-2.6-1-.7-.8-1-1.8-1-3v-.1zm1.8.1c0 .8.1 1.5.5 2 .3.4.8.6 1.4.6s1-.2 1.4-.7c.3-.5.5-1.1.5-2 0-.8-.2-1.5-.5-2-.4-.4-.8-.7-1.4-.7-.6 0-1 .3-1.4.7-.3.5-.5 1.2-.5 2.1zM311.6 199.5v.9c.7-.7 1.4-1 2.4-1 1.6 0 2.5.9 2.5 2.8v5.2h-1.8v-5.1c0-.5 0-1-.3-1.2-.2-.2-.6-.3-1-.3-.8 0-1.3.3-1.7 1v5.6H310v-8h1.7zM330 198.2h-3.2v9.2h-1.9v-9.2h-3.3v-1.5h8.5v1.5zM334.5 207.5c-1.2 0-2-.3-2.8-1-.7-.7-1-1.7-1-2.9v-.2c0-.8.1-1.5.4-2.1.3-.6.8-1.1 1.3-1.5s1.2-.5 1.9-.5c1 0 1.9.4 2.5 1 .5.7.8 1.7.8 3v.7h-5.1c0 .6.2 1.2.6 1.5s.9.6 1.5.6c.8 0 1.4-.3 2-1l1 1c-.4.4-.8.8-1.4 1a4 4 0 0 1-1.7.4zm-.3-6.8c-.4 0-.8.2-1.1.6-.3.3-.5.8-.6 1.4h3.4v-.1c0-.6-.2-1-.5-1.4-.3-.3-.7-.5-1.2-.5zM341 199.5v.8c.6-.7 1.4-1 2.3-1 1 0 1.8.4 2.2 1.2.6-.8 1.4-1.2 2.4-1.2s1.6.3 2 .7.6 1.2.6 2.2v5.2h-1.7v-5.2c0-.5-.1-.8-.4-1s-.6-.4-1-.4c-.5 0-.8 0-1 .3-.3.2-.5.5-.6.9v5.4H344v-5.2c0-1-.5-1.4-1.4-1.4-.7 0-1.2.3-1.5.9v5.7h-1.8v-8h1.7zM359.6 203.5c0 1.2-.3 2.2-.8 3s-1.3 1-2.3 1c-.8 0-1.5-.2-2-.8v3.7h-1.8v-11h1.6v.9c.6-.7 1.3-1 2.2-1 1 0 1.7.4 2.3 1.1.5.7.8 1.7.8 3v.1zm-1.8-.1c0-.8-.1-1.5-.4-2-.4-.4-.8-.6-1.4-.6-.7 0-1.2.3-1.6.9v3.5c.4.6.9 1 1.6 1 .6 0 1-.3 1.4-.8.3-.4.4-1.1.4-2zM363.3 207.4h-1.8V196h1.8v11.3zM370.3 207.4l-.2-.8c-.6.6-1.3 1-2.1 1s-1.5-.3-2-.7-.7-1-.7-1.7c0-.9.3-1.5 1-2 .6-.4 1.5-.7 2.6-.7h1.1v-.5c0-.4-.1-.7-.3-1-.3-.2-.6-.3-1-.3-.5 0-.8 0-1 .3s-.5.4-.5.7h-1.7c0-.4.1-.8.4-1.2l1.2-.9c.5-.2 1-.3 1.6-.3 1 0 1.7.2 2.2.7.6.5.9 1.1.9 2v3.6c0 .7 0 1.2.3 1.7h-1.8zm-2-1.3c.4 0 .7 0 1-.2l.7-.7v-1.5h-1c-.6 0-1.1 0-1.4.3s-.5.6-.5 1c0 .3 0 .6.3.8.2.2.5.3 1 .3zM376.2 197.5v2h1.4v1.3h-1.4v4.4c0 .3 0 .5.2.7l.6.2.6-.1v1.4l-1.1.1c-1.4 0-2-.7-2-2.2v-4.5H373v-1.3h1.3v-2h1.8zM382.7 207.5c-1 0-2-.3-2.7-1-.7-.7-1-1.7-1-2.9v-.2c0-.8 0-1.5.4-2.1.3-.6.7-1.1 1.3-1.5s1.2-.5 1.8-.5c1.1 0 2 .4 2.5 1 .6.7 1 1.7 1 3v.7h-5.3c0 .6.3 1.2.7 1.5s.9.6 1.4.6c.9 0 1.5-.3 2-1l1 1a4 4 0 0 1-3 1.5zm-.2-6.8c-.5 0-.9.2-1.2.6-.3.3-.5.8-.5 1.4h3.4v-.1c0-.6-.2-1-.5-1.4-.3-.3-.7-.5-1.2-.5zM392 205.2c0-.3 0-.5-.4-.7l-1.3-.4c-.7-.1-1-.3-1.5-.5-.9-.4-1.3-1-1.3-1.9 0-.7.3-1.2.9-1.7s1.3-.7 2.2-.7c.9 0 1.7.3 2.3.7.5.5.8 1.1.8 1.8H392c0-.3 0-.6-.3-.8-.3-.2-.6-.3-1-.3s-.8 0-1 .2c-.2.2-.4.4-.4.7 0 .3.1.5.4.7l1.4.4 1.6.6c.4.2.7.5.9.8.2.3.3.6.3 1a2 2 0 0 1-.9 1.8c-.6.4-1.4.6-2.3.6-.7 0-1.3 0-1.8-.3s-.9-.6-1.1-1-.5-.8-.5-1.3h1.8c0 .4.1.7.4 1 .3.2.7.3 1.2.3s.8 0 1-.3c.3-.1.4-.4.4-.7z"/></g><g fill="#6E6E6E"><path d="M243.6 78h-1.1v-8.5h1.1V78zM246.5 71.7v.7c.5-.6 1.1-.9 2-.9.8 0 1.4.4 1.7 1a2.4 2.4 0 0 1 2-1c1.5 0 2.2.8 2.2 2.3V78h-1.1v-4.2c0-.4-.1-.8-.3-1s-.6-.3-1-.3c-.5 0-.8 0-1 .3s-.5.6-.5 1V78h-1.1v-4.2c0-.9-.5-1.3-1.4-1.3-.7 0-1.2.3-1.4.9V78h-1.1v-6.3h1zM261.4 74.9c0 1-.2 1.7-.7 2.3s-1 1-1.8 1c-.7 0-1.4-.3-1.8-.8v3h-1v-8.7h1v.7c.4-.6 1-.9 1.8-.9s1.4.3 1.8.9.7 1.4.7 2.4v.1zm-1.1-.1c0-.7-.2-1.3-.5-1.7s-.7-.6-1.2-.6c-.7 0-1.2.3-1.5.8v3c.3.6.8 1 1.5 1 .5 0 1-.3 1.2-.7s.5-1 .5-1.8zM264 78h-1.2v-9h1.1v9zM268.3 78.1c-.9 0-1.6-.3-2.1-.8s-.8-1.3-.8-2.3v-.2c0-.6.1-1.2.4-1.7s.5-.9 1-1.1.9-.5 1.4-.5c.8 0 1.4.3 1.9.9s.7 1.3.7 2.3v.4h-4.3c0 .7.2 1.2.5 1.6s.8.5 1.4.5c.3 0 .7 0 1-.2l.6-.6.7.5c-.5.8-1.3 1.2-2.4 1.2zm-.1-5.7c-.5 0-.8.2-1.1.5s-.5.8-.6 1.4h3.2v-.1c0-.6-.2-1-.5-1.3s-.6-.5-1-.5zM273 71.7v.7c.5-.6 1.2-.9 2-.9s1.4.4 1.8 1a2.4 2.4 0 0 1 2-1c1.4 0 2 .8 2.1 2.3V78h-1v-4.2c0-.4-.2-.8-.4-1s-.5-.3-1-.3c-.4 0-.8 0-1 .3s-.5.6-.5 1V78h-1v-4.2c0-.9-.5-1.3-1.4-1.3-.8 0-1.2.3-1.5.9V78h-1v-6.3h1zM285.2 78.1c-.9 0-1.6-.3-2.1-.8s-.8-1.3-.8-2.3v-.2c0-.6 0-1.2.3-1.7s.6-.9 1-1.1 1-.5 1.4-.5c.9 0 1.5.3 2 .9s.6 1.3.6 2.3v.4h-4.3c0 .7.2 1.2.6 1.6s.8.5 1.3.5c.4 0 .7 0 1-.2l.7-.6.7.5c-.6.8-1.4 1.2-2.4 1.2zm-.2-5.7c-.4 0-.8.2-1 .5s-.5.8-.6 1.4h3.2v-.1c0-.6-.2-1-.5-1.3s-.6-.5-1-.5zM290 71.7v.8c.4-.7 1-1 1.9-1 1.3 0 2 .8 2 2.3V78h-1.1v-4.2c0-.5-.1-.8-.3-1s-.5-.3-1-.3c-.3 0-.6 0-.9.2s-.5.5-.6.8V78h-1.1v-6.3h1zM297 70.1v1.6h1.2v.8H297v4l.1.5.6.2h.5v.8l-.8.1c-.5 0-.9-.1-1.1-.4s-.4-.7-.4-1.3v-3.9h-1.1v-.8h1.1V70h1zM306.3 78l-.1-.7c-.5.6-1.1.8-1.8.8s-1.2-.2-1.6-.5-.6-.8-.6-1.4c0-.6.3-1.1.8-1.5s1.2-.5 2.1-.5h1v-.5c0-.4 0-.7-.3-1s-.5-.3-1-.3c-.4 0-.7.1-1 .3s-.4.4-.4.7h-1c0-.3 0-.6.3-.9l1-.7a3 3 0 0 1 1.2-.3c.7 0 1.3.2 1.7.6s.6.9.6 1.5v3c0 .5.1 1 .3 1.3v.1h-1.2zm-1.8-.8c.4 0 .7-.1 1-.3l.7-.7V75h-.9c-1.3 0-2 .4-2 1.2 0 .3.1.6.4.8s.5.3.8.3zM310.4 70.1v1.6h1.2v.8h-1.2v4c0 .2 0 .4.2.5l.5.2h.5v.8l-.8.1c-.5 0-.9-.1-1.1-.4s-.4-.7-.4-1.3v-3.9h-1.1v-.8h1.1V70h1.1zM312.5 74.8c0-.6 0-1.2.3-1.7s.6-.9 1-1.2 1-.4 1.5-.4c.9 0 1.6.3 2.1 1s.8 1.3.8 2.3v.1c0 .6 0 1.2-.3 1.7s-.6.8-1 1.1-1 .4-1.6.4c-.8 0-1.5-.3-2-.9s-.8-1.4-.8-2.4zm1 .1c0 .7.2 1.3.5 1.7s.8.6 1.3.6c.6 0 1-.2 1.4-.6s.4-1 .4-1.8c0-.7-.1-1.3-.5-1.7s-.7-.7-1.3-.7c-.5 0-1 .2-1.3.7s-.5 1-.5 1.8zM320.6 71.7v.7c.5-.6 1.1-.9 2-.9.8 0 1.4.4 1.7 1a2.4 2.4 0 0 1 2-1c1.4 0 2.1.8 2.2 2.3V78h-1.1v-4.2c0-.4-.1-.8-.3-1s-.6-.3-1-.3c-.5 0-.8 0-1 .3s-.5.6-.5 1V78h-1.1v-4.2c0-.9-.5-1.3-1.4-1.3-.7 0-1.2.3-1.4.9V78h-1.1v-6.3h1zM330.1 70c0-.2 0-.3.2-.5s.2-.1.4-.1l.5.1.2.5c0 .2 0 .3-.2.4l-.5.2c-.3 0-.3 0-.4-.2l-.2-.4zm1.2 8h-1.1v-6.3h1V78zM335.6 77.2c.3 0 .7 0 1-.3s.4-.5.5-.9h1c0 .4-.2.7-.4 1s-.5.6-1 .8-.7.3-1.1.3c-1 0-1.6-.3-2.1-.8s-.8-1.4-.8-2.4v-.2c0-.6.1-1.2.4-1.6s.5-.9 1-1.2.9-.4 1.5-.4c.7 0 1.3.3 1.7.7s.7 1 .8 1.6h-1c0-.4-.2-.7-.5-1s-.6-.4-1-.4c-.6 0-1 .2-1.3.6s-.5 1-.5 1.7v.3c0 .7.2 1.2.5 1.6s.7.6 1.3.6zM346.2 78l-.2-.7c-.5.6-1 .8-1.8.8-.6 0-1.1-.2-1.5-.5s-.6-.8-.6-1.4c0-.6.2-1.1.7-1.5s1.2-.5 2.2-.5h1v-.5c0-.4-.1-.7-.3-1s-.6-.3-1-.3-.7.1-1 .3-.4.4-.4.7h-1c0-.3 0-.6.2-.9s.6-.5 1-.7.8-.3 1.2-.3c.8 0 1.3.2 1.7.6s.7.9.7 1.5v3c0 .5 0 1 .2 1.3v.1h-1.1zm-1.8-.8l1-.3c.3-.2.5-.4.6-.7V75h-.8c-1.4 0-2 .4-2 1.2 0 .3 0 .6.3.8s.5.3.9.3zM349.8 71.7v.8c.5-.7 1.2-1 2-1 1.3 0 2 .8 2 2.3V78h-1.1v-4.2c0-.5-.1-.8-.3-1s-.5-.3-1-.3c-.3 0-.6 0-.9.2s-.5.5-.6.8V78h-1.1v-6.3h1zM355.1 74.8c0-1 .3-1.8.7-2.4s1.1-.9 1.9-.9c.7 0 1.3.3 1.7.8V69h1.1v9h-1v-.7c-.5.6-1 .8-1.9.8-.7 0-1.3-.3-1.8-.9s-.7-1.4-.7-2.3v-.1zm1.1.1c0 .7.2 1.3.5 1.7s.7.6 1.2.6c.7 0 1.2-.3 1.5-1v-2.8c-.3-.6-.8-1-1.5-1-.5 0-1 .3-1.2.7s-.5 1-.5 1.8zM243.6 96h-1.1v-8.5h1.1V96zM246.5 89.7v.8c.5-.7 1.2-1 2-1 1.3 0 2 .8 2 2.3V96h-1.1v-4.2c0-.5-.1-.8-.3-1s-.5-.3-1-.3c-.3 0-.6 0-.9.2s-.5.5-.6.8V96h-1.1v-6.3h1zM253.6 88.1v1.6h1.2v.8h-1.2v4c0 .2 0 .4.2.5l.5.2h.5v.8l-.8.1c-.5 0-.9-.1-1.1-.4s-.4-.7-.4-1.3v-3.9h-1.1v-.8h1.1V88h1.1zM258.7 96.1c-.9 0-1.6-.3-2.1-.8s-.8-1.3-.8-2.3v-.2c0-.6 0-1.2.3-1.7s.6-.9 1-1.1 1-.5 1.4-.5c.9 0 1.5.3 2 .9s.6 1.3.6 2.3v.4H257c0 .7.2 1.2.5 1.6s.8.5 1.3.5c.4 0 .7 0 1-.2l.7-.6.7.5c-.6.8-1.4 1.2-2.4 1.2zm-.2-5.7c-.4 0-.8.2-1 .5s-.5.8-.6 1.4h3.2v-.1c0-.6-.2-1-.5-1.3s-.6-.5-1-.5zM262.1 92.8c0-1 .3-1.8.7-2.4s1-.9 1.8-.9 1.4.3 1.9.9v-.7h1v6.1c0 .9-.2 1.5-.7 2s-1.2.7-2 .7c-.4 0-.9-.1-1.3-.3s-.8-.5-1-.8l.5-.7c.5.6 1 1 1.7 1 .6 0 1-.2 1.3-.5s.4-.7.4-1.3v-.5c-.4.5-1 .7-1.8.7-.7 0-1.3-.3-1.8-.9s-.7-1.4-.7-2.4zm1.1.1c0 .7.2 1.3.5 1.7s.7.6 1.2.6c.7 0 1.2-.3 1.5-1v-2.8c-.3-.6-.8-1-1.5-1-.5 0-1 .3-1.2.7s-.5 1-.5 1.8zM272.2 90.6h-.5c-.7 0-1.2.3-1.5.9V96h-1v-6.3h1v.7c.4-.6.9-.9 1.5-.9l.5.1v1zM276.9 96l-.2-.7c-.5.6-1 .8-1.8.8-.6 0-1.1-.2-1.5-.5s-.6-.8-.6-1.4c0-.6.2-1.1.7-1.5s1.2-.5 2.1-.5h1.1v-.5c0-.4-.1-.7-.3-1s-.6-.3-1-.3-.7.1-1 .3-.4.4-.4.7h-1c0-.3 0-.6.2-.9s.6-.5 1-.7.8-.3 1.2-.3c.8 0 1.3.2 1.7.6s.7.9.7 1.5v3c0 .5 0 1 .2 1.3v.1H277zm-1.8-.8l1-.3c.3-.2.5-.4.6-.7V93h-.8c-1.4 0-2 .4-2 1.2 0 .3 0 .6.3.8s.5.3.9.3zM281 88.1v1.6h1.1v.8H281v4l.1.5.6.2h.5v.8l-.9.1c-.4 0-.8-.1-1-.4s-.4-.7-.4-1.3v-3.9h-1.2v-.8h1.2V88h1zM283.4 88c0-.2 0-.3.2-.5s.2-.1.5-.1.3 0 .4.1l.2.5c0 .2 0 .3-.2.4l-.4.2c-.2 0-.4 0-.5-.2l-.2-.4zm1.2 8h-1.1v-6.3h1V96zM286 92.8c0-.6.2-1.2.4-1.7s.6-.9 1-1.2 1-.4 1.5-.4c.9 0 1.6.3 2.1 1s.8 1.3.8 2.3v.1c0 .6-.1 1.2-.3 1.7s-.6.8-1 1.1-1 .4-1.6.4c-.8 0-1.5-.3-2-.9s-.9-1.4-.9-2.4zm1.1.1c0 .7.2 1.3.5 1.7s.8.6 1.3.6c.6 0 1-.2 1.3-.6s.5-1 .5-1.8c0-.7-.1-1.3-.5-1.7s-.7-.7-1.3-.7c-.5 0-1 .2-1.3.7s-.5 1-.5 1.8zM294.2 89.7v.8c.5-.7 1.1-1 2-1 1.3 0 2 .8 2 2.3V96H297v-4.2c0-.5-.1-.8-.3-1s-.6-.3-1-.3-.7 0-1 .2-.4.5-.6.8V96h-1v-6.3h1zM303.8 89.7v.7c.5-.6 1.1-.9 1.9-.9.9 0 1.5.4 1.8 1a2.4 2.4 0 0 1 2-1c1.4 0 2.1.8 2.1 2.3V96h-1v-4.2c0-.4-.2-.8-.4-1s-.5-.3-1-.3c-.4 0-.7 0-1 .3s-.4.6-.5 1V96h-1v-4.2c0-.9-.5-1.3-1.4-1.3-.7 0-1.2.3-1.5.9V96h-1v-6.3h1zM313.3 88l.1-.5c.1-.2.3-.1.5-.1l.5.1.2.5c0 .2 0 .3-.2.4l-.5.2c-.2 0-.4 0-.5-.2l-.1-.4zm1.2 8h-1.1v-6.3h1V96zM318.7 95.2c.4 0 .8 0 1-.3s.5-.5.5-.9h1c0 .4-.1.7-.3 1s-.6.6-1 .8-.7.3-1.2.3c-.8 0-1.5-.3-2-.8s-.8-1.4-.8-2.4v-.2c0-.6.1-1.2.3-1.6s.6-.9 1-1.2 1-.4 1.5-.4c.7 0 1.3.3 1.8.7s.7 1 .7 1.6h-1c0-.4-.2-.7-.4-1s-.7-.4-1-.4c-.6 0-1 .2-1.4.6s-.4 1-.4 1.7v.3c0 .7.1 1.2.4 1.6s.8.6 1.3.6zM325.5 90.6h-.5c-.7 0-1.2.3-1.4.9V96h-1.1v-6.3h1v.7c.4-.6.9-.9 1.6-.9l.4.1v1zM326.1 92.8c0-.6.1-1.2.4-1.7s.6-.9 1-1.2 1-.4 1.5-.4c.9 0 1.6.3 2 1s.9 1.3.9 2.3v.1c0 .6-.1 1.2-.4 1.7s-.5.8-1 1.1-1 .4-1.5.4c-.8 0-1.5-.3-2-.9s-.9-1.4-.9-2.4zm1.1.1c0 .7.2 1.3.5 1.7s.8.6 1.3.6c.6 0 1-.2 1.3-.6s.5-1 .5-1.8c0-.7-.2-1.3-.5-1.7s-.8-.7-1.3-.7-1 .2-1.3.7-.5 1-.5 1.8zM340 94.3c0-.3-.2-.5-.4-.7s-.6-.3-1.2-.4l-1.3-.4-.7-.6c-.2-.2-.2-.5-.2-.8 0-.5.2-1 .6-1.3s1-.6 1.7-.6 1.3.2 1.8.6.6.8.6 1.4h-1c0-.3-.2-.5-.4-.7s-.6-.4-1-.4-.7.1-.9.3-.3.4-.3.7c0 .2 0 .4.3.6l1.1.3 1.3.5c.3.2.6.3.8.6s.2.5.2.8c0 .6-.2 1-.7 1.4s-1 .5-1.7.5c-.6 0-1 0-1.4-.3s-.7-.4-1-.7-.2-.7-.2-1h1c0 .3.2.6.5.8s.6.3 1 .3c.5 0 .8 0 1-.2s.4-.4.4-.7zM345 96.1c-.8 0-1.5-.3-2-.8S342 94 342 93v-.2c0-.6.2-1.2.4-1.7s.6-.9 1-1.1.9-.5 1.4-.5c.8 0 1.5.3 2 .9s.6 1.3.6 2.3v.4h-4.3c0 .7.2 1.2.6 1.6s.8.5 1.3.5c.4 0 .7 0 1-.2l.7-.6.6.5c-.5.8-1.3 1.2-2.4 1.2zm0-5.7c-.5 0-.9.2-1.2.5s-.5.8-.5 1.4h3.1v-.1c0-.6-.1-1-.4-1.3s-.6-.5-1-.5zM351.8 90.6h-.5c-.7 0-1.2.3-1.4.9V96h-1.1v-6.3h1v.7c.4-.6.9-.9 1.6-.9l.4.1v1zM355 94.5l1.6-4.8h1.1l-2.3 6.3h-.8l-2.3-6.3h1.1l1.6 4.8zM358.8 88l.1-.5c.1-.2.3-.1.5-.1l.5.1.1.5-.1.4-.5.2c-.2 0-.4 0-.5-.2l-.1-.4zm1.1 8h-1v-6.3h1V96zM364.2 95.2c.4 0 .7 0 1-.3s.5-.5.5-.9h1c0 .4-.1.7-.4 1s-.5.6-.9.8-.8.3-1.2.3c-.9 0-1.5-.3-2-.8s-.8-1.4-.8-2.4v-.2c0-.6 0-1.2.3-1.6s.6-.9 1-1.2 1-.4 1.5-.4c.7 0 1.3.3 1.8.7s.7 1 .7 1.6h-1c0-.4-.2-.7-.5-1s-.6-.4-1-.4c-.6 0-1 .2-1.3.6s-.4 1-.4 1.7v.3c0 .7.1 1.2.4 1.6s.7.6 1.3.6zM370.6 96.1c-.9 0-1.6-.3-2.1-.8s-.8-1.3-.8-2.3v-.2c0-.6 0-1.2.3-1.7s.6-.9 1-1.1 1-.5 1.4-.5c.9 0 1.5.3 2 .9s.6 1.3.6 2.3v.4h-4.3c0 .7.2 1.2.6 1.6s.8.5 1.3.5c.4 0 .7 0 1-.2l.7-.6.7.5c-.6.8-1.4 1.2-2.4 1.2zm-.2-5.7c-.4 0-.8.2-1 .5s-.5.8-.6 1.4h3.2v-.1c0-.6-.2-1-.5-1.3s-.6-.5-1-.5zM378 94.3c0-.3-.1-.5-.3-.7s-.6-.3-1.2-.4l-1.3-.4-.7-.6-.2-.8c0-.5.2-1 .6-1.3s1-.6 1.7-.6 1.3.2 1.7.6.7.8.7 1.4h-1c0-.3-.2-.5-.5-.7s-.5-.4-.9-.4-.7.1-1 .3-.3.4-.3.7l.3.6c.2.2.6.2 1.2.3l1.3.5c.3.2.6.3.7.6l.3.8c0 .6-.3 1-.7 1.4s-1 .5-1.8.5c-.5 0-1 0-1.3-.3s-.7-.4-1-.7-.3-.7-.3-1h1.1c0 .3.2.6.5.8s.6.3 1 .3.8 0 1-.2.4-.4.4-.7z"/></g><g fill="#6E6E6E"><path d="M242.4 159.5V151h2.8c1 0 1.6.2 2 .5s.8 1 .8 1.7c0 .4-.1.8-.4 1.1s-.5.5-.9.7c.5.1.8.4 1.1.7s.4.8.4 1.3c0 .8-.2 1.4-.7 1.8s-1.2.7-2.1.7h-3zm1.1-4.9h1.7c.5 0 1-.1 1.2-.4.3-.2.5-.5.5-1 0-.4-.2-.8-.5-1-.2-.2-.6-.3-1.2-.3h-1.7v2.7zm0 1v3h1.9c.5 0 1-.2 1.2-.4s.5-.7.5-1.1c0-1-.6-1.6-1.7-1.6h-1.9zM253.6 159.5l-.1-.7c-.5.6-1.1.8-1.8.8s-1.2-.2-1.6-.5-.6-.8-.6-1.4c0-.6.3-1.1.8-1.5s1.2-.5 2.1-.5h1v-.5c0-.4 0-.7-.3-1s-.5-.3-1-.3c-.4 0-.7.1-1 .3s-.4.4-.4.7h-1c0-.3 0-.6.3-.9l1-.7a3 3 0 0 1 1.2-.3c.7 0 1.3.2 1.7.6s.6.9.6 1.5v3c0 .5.1 1 .3 1.3v.1h-1.2zm-1.8-.8c.4 0 .7-.1 1-.3l.7-.7v-1.3h-.9c-1.3 0-2 .4-2 1.2 0 .3.1.6.4.8s.5.3.8.3zM257.4 159.5h-1v-9h1v9zM260.3 159.5h-1v-9h1v9zM264.7 159.6c-.9 0-1.6-.3-2.1-.8s-.8-1.3-.8-2.3v-.2c0-.6.1-1.2.3-1.7s.6-.9 1-1.1 1-.5 1.5-.5c.8 0 1.4.3 1.9.9s.7 1.3.7 2.3v.4h-4.3c0 .7.2 1.2.5 1.6s.8.5 1.4.5c.3 0 .7 0 1-.2l.6-.6.7.5c-.5.8-1.3 1.2-2.4 1.2zm-.1-5.7c-.5 0-.8.2-1.1.5s-.5.8-.6 1.4h3.2v-.1c0-.6-.2-1-.5-1.3s-.6-.5-1-.5zM271.5 154.1h-.5c-.8 0-1.2.3-1.5.9v4.5h-1v-6.3h1v.7c.3-.6.9-.9 1.5-.9l.5.1v1zM272.5 151.5l.1-.5c.1-.2.3-.1.5-.1l.5.1.2.5c0 .2 0 .3-.2.4l-.5.2c-.2 0-.3 0-.5-.2s-.1-.2-.1-.4zm1.2 8h-1.1v-6.3h1v6.3zM276.4 153.2v.8c.5-.7 1.2-1 2-1 1.3 0 2 .8 2 2.3v4.2h-1.1v-4.2c0-.5-.1-.8-.3-1s-.5-.3-1-.3c-.3 0-.6 0-.9.2s-.5.5-.6.8v4.5h-1.1v-6.3h1zM286 159.5c-.1-.1-.2-.3-.2-.7-.5.6-1.1.8-1.8.8s-1.2-.2-1.6-.5-.6-.8-.6-1.4c0-.6.3-1.1.8-1.5s1.2-.5 2.1-.5h1v-.5c0-.4 0-.7-.3-1s-.5-.3-1-.3c-.4 0-.7.1-1 .3s-.3.4-.3.7H282c0-.3 0-.6.3-.9l1-.7a3 3 0 0 1 1.2-.3c.7 0 1.3.2 1.7.6s.6.9.6 1.5v3c0 .5.1 1 .3 1.3v.1h-1.2zm-1.9-.8c.4 0 .7-.1 1-.3l.7-.7v-1.3h-.9c-1.3 0-2 .4-2 1.2 0 .3.1.6.4.8s.5.3.8.3zM298 156.8c-.1.9-.5 1.6-1 2s-1.3.8-2.3.8c-1 0-1.8-.3-2.4-1s-1-1.8-1-3v-.8c0-.8.2-1.5.5-2s.7-1.1 1.2-1.5 1.1-.4 1.8-.4c1 0 1.7.2 2.2.7s.9 1.2 1 2.1h-1.2c0-.7-.3-1.2-.6-1.5s-.8-.4-1.4-.4a2 2 0 0 0-1.7.8c-.4.5-.6 1.3-.6 2.2v.9c0 .9.2 1.6.6 2.2.4.5 1 .8 1.6.8.6 0 1.1-.1 1.5-.4s.5-.8.6-1.5h1.2zM299 156.3c0-.7.2-1.2.4-1.7s.6-.9 1-1.2 1-.4 1.5-.4c.9 0 1.6.3 2.1 1s.8 1.3.8 2.3v.1c0 .6-.1 1.2-.3 1.7s-.6.8-1 1.1-1 .4-1.6.4c-.8 0-1.5-.3-2-.9s-.9-1.4-.9-2.4zm1.1.1c0 .7.2 1.3.5 1.7s.8.6 1.3.6c.6 0 1-.2 1.3-.6s.5-1 .5-1.8c0-.7-.1-1.3-.5-1.7s-.7-.7-1.3-.7c-.5 0-1 .2-1.3.7s-.5 1-.5 1.8zM307.2 153.2v.8c.5-.7 1.1-1 2-1 1.3 0 2 .8 2 2.3v4.2H310v-4.2c0-.5-.1-.8-.3-1s-.6-.3-1-.3-.7 0-1 .2-.4.5-.6.8v4.5h-1v-6.3h1zM313.8 153.2v.8c.5-.7 1.2-1 2-1 1.3 0 2 .8 2 2.3v4.2h-1.1v-4.2c0-.5-.1-.8-.3-1s-.5-.3-1-.3c-.3 0-.6 0-1 .2s-.4.5-.5.8v4.5h-1.1v-6.3h1zM322 159.6c-.8 0-1.5-.3-2-.8s-.9-1.3-.9-2.3v-.2c0-.6.2-1.2.4-1.7s.6-.9 1-1.1.9-.5 1.4-.5c.8 0 1.5.3 2 .9s.6 1.3.6 2.3v.4h-4.3c0 .7.2 1.2.6 1.6s.8.5 1.3.5c.4 0 .7 0 1-.2l.7-.6.6.5c-.5.8-1.3 1.2-2.4 1.2zm-.1-5.7c-.4 0-.8.2-1.1.5s-.5.8-.5 1.4h3.1v-.1c0-.6-.2-1-.4-1.3s-.6-.5-1.1-.5zM328.3 158.7c.4 0 .7 0 1-.3s.5-.5.5-.9h1c0 .4-.1.7-.3 1s-.6.6-1 .8-.8.3-1.2.3c-.9 0-1.5-.3-2-.8s-.8-1.4-.8-2.4v-.2c0-.6.1-1.2.3-1.6s.6-.9 1-1.2 1-.4 1.5-.4c.7 0 1.3.3 1.8.7s.7 1 .7 1.6h-1c0-.4-.2-.7-.5-1s-.6-.4-1-.4c-.5 0-1 .2-1.3.6s-.4 1-.4 1.7v.3c0 .7.1 1.2.4 1.6s.8.6 1.3.6zM333.5 151.6v1.6h1.2v.8h-1.2v4c0 .2 0 .4.2.5l.5.2h.5v.8l-.8.1c-.5 0-.9-.1-1.1-.4s-.4-.7-.4-1.3V154h-1.1v-.8h1.1v-1.6h1.1zM335.6 156.3c0-.7 0-1.2.3-1.7s.6-.9 1-1.2 1-.4 1.5-.4c.9 0 1.6.3 2.1 1s.8 1.3.8 2.3v.1c0 .6 0 1.2-.3 1.7s-.6.8-1 1.1-1 .4-1.5.4c-1 0-1.6-.3-2.1-.9s-.8-1.4-.8-2.4zm1 .1c0 .7.2 1.3.5 1.7s.8.6 1.4.6c.5 0 1-.2 1.3-.6s.4-1 .4-1.8c0-.7-.1-1.3-.4-1.7s-.8-.7-1.4-.7c-.5 0-1 .2-1.3.7s-.4 1-.4 1.8zM345.8 154.1h-.6c-.7 0-1.2.3-1.4.9v4.5h-1.1v-6.3h1v.7c.4-.6 1-.9 1.6-.9l.5.1v1zM350.4 157.8c0-.3 0-.5-.3-.7l-1.1-.4c-.5 0-1-.2-1.3-.4l-.8-.6c-.2-.2-.2-.5-.2-.8 0-.5.2-1 .7-1.3s1-.6 1.7-.6 1.3.2 1.7.6.7.8.7 1.4h-1.1c0-.3-.1-.5-.4-.7s-.6-.4-1-.4c-.3 0-.7.1-.9.3s-.3.4-.3.7l.3.6c.2.2.6.2 1.1.3l1.3.5c.3.2.6.3.8.6s.2.5.2.8c0 .6-.2 1-.7 1.4s-1 .5-1.7.5c-.5 0-1 0-1.4-.3s-.7-.4-.9-.7-.3-.7-.3-1h1c0 .3.2.6.5.8s.6.3 1 .3c.5 0 .8 0 1-.2s.4-.4.4-.7zM359.8 159.5l-.1-.7c-.5.6-1.1.8-1.8.8s-1.2-.2-1.6-.5-.6-.8-.6-1.4c0-.6.3-1.1.8-1.5s1.2-.5 2.1-.5h1v-.5c0-.4 0-.7-.3-1s-.5-.3-1-.3c-.4 0-.7.1-1 .3s-.4.4-.4.7h-1c0-.3 0-.6.3-.9l1-.7a3 3 0 0 1 1.2-.3c.7 0 1.3.2 1.7.6s.6.9.6 1.5v3c0 .5.1 1 .3 1.3v.1h-1.2zm-1.8-.8c.4 0 .7-.1 1-.3l.7-.7v-1.3h-.9c-1.3 0-2 .4-2 1.2 0 .3.1.6.4.8s.5.3.8.3zM363.5 153.2v.8c.5-.7 1.1-1 1.9-1 1.3 0 2 .8 2 2.3v4.2h-1v-4.2c0-.5-.2-.8-.4-1s-.5-.3-1-.3c-.3 0-.6 0-.9.2s-.4.5-.6.8v4.5h-1v-6.3h1zM368.8 156.3c0-1 .2-1.8.7-2.4s1-.9 1.8-.9c.7 0 1.3.3 1.8.8v-3.3h1v9h-1v-.7c-.4.6-1 .8-1.8.8-.7 0-1.3-.3-1.8-.9s-.7-1.4-.7-2.3v-.1zm1 .1c0 .7.2 1.3.5 1.7s.7.6 1.3.6c.6 0 1.1-.3 1.5-1V155c-.4-.6-.9-1-1.5-1s-1 .3-1.3.7-.4 1-.4 1.8zM243.6 177.5h-1.1V169h1.1v8.5zM246.5 171.2v.8c.5-.7 1.2-1 2-1 1.3 0 2 .8 2 2.3v4.2h-1.1v-4.2c0-.5-.1-.8-.3-1s-.5-.3-1-.3c-.3 0-.6 0-.9.2s-.5.5-.6.8v4.5h-1.1v-6.3h1zM253.6 169.6v1.6h1.2v.8h-1.2v4c0 .2 0 .4.2.5l.5.2h.5v.8l-.8.1c-.5 0-.9-.1-1.1-.4s-.4-.7-.4-1.3V172h-1.1v-.8h1.1v-1.6h1.1zM258.7 177.6c-.9 0-1.6-.3-2.1-.8s-.8-1.3-.8-2.3v-.2c0-.6 0-1.2.3-1.7s.6-.9 1-1.1 1-.5 1.4-.5c.9 0 1.5.3 2 .9s.6 1.3.6 2.3v.4H257c0 .7.2 1.2.5 1.6s.8.5 1.3.5c.4 0 .7 0 1-.2l.7-.6.7.5c-.6.8-1.4 1.2-2.4 1.2zm-.2-5.7c-.4 0-.8.2-1 .5s-.5.8-.6 1.4h3.2v-.1c0-.6-.2-1-.5-1.3s-.6-.5-1-.5zM262.1 174.3c0-1 .3-1.8.7-2.4s1-.9 1.8-.9 1.4.3 1.9.9v-.7h1v6.1c0 .9-.2 1.5-.7 2s-1.2.7-2 .7c-.4 0-.9-.1-1.3-.3s-.8-.5-1-.8l.5-.7c.5.6 1 1 1.7 1 .6 0 1-.2 1.3-.5s.4-.7.4-1.3v-.5c-.4.5-1 .7-1.8.7-.7 0-1.3-.3-1.8-.9s-.7-1.4-.7-2.4zm1.1.1c0 .7.2 1.3.5 1.7s.7.6 1.2.6c.7 0 1.2-.3 1.5-1V173c-.3-.6-.8-1-1.5-1-.5 0-1 .3-1.2.7s-.5 1-.5 1.8zM272.2 172.1h-.5c-.7 0-1.2.3-1.5.9v4.5h-1v-6.3h1v.7c.4-.6.9-.9 1.5-.9l.5.1v1zM276.9 177.5l-.2-.7c-.5.6-1 .8-1.8.8-.6 0-1.1-.2-1.5-.5s-.6-.8-.6-1.4c0-.6.2-1.1.7-1.5s1.2-.5 2.1-.5h1.1v-.5c0-.4-.1-.7-.3-1s-.6-.3-1-.3-.7.1-1 .3-.4.4-.4.7h-1c0-.3 0-.6.2-.9s.6-.5 1-.7.8-.3 1.2-.3c.8 0 1.3.2 1.7.6s.7.9.7 1.5v3c0 .5 0 1 .2 1.3v.1H277zm-1.8-.8l1-.3c.3-.2.5-.4.6-.7v-1.3h-.8c-1.4 0-2 .4-2 1.2 0 .3 0 .6.3.8s.5.3.9.3zM281 169.6v1.6h1.1v.8H281v4l.1.5.6.2h.5v.8l-.9.1c-.4 0-.8-.1-1-.4s-.4-.7-.4-1.3V172h-1.2v-.8h1.2v-1.6h1zM283.4 169.5c0-.2 0-.3.2-.5s.2-.1.5-.1.3 0 .4.1l.2.5c0 .2 0 .3-.2.4l-.4.2c-.2 0-.4 0-.5-.2l-.2-.4zm1.2 8h-1.1v-6.3h1v6.3zM286 174.3c0-.7.2-1.2.4-1.7s.6-.9 1-1.2 1-.4 1.5-.4c.9 0 1.6.3 2.1 1s.8 1.3.8 2.3v.1c0 .6-.1 1.2-.3 1.7s-.6.8-1 1.1-1 .4-1.6.4c-.8 0-1.5-.3-2-.9s-.9-1.4-.9-2.4zm1.1.1c0 .7.2 1.3.5 1.7s.8.6 1.3.6c.6 0 1-.2 1.3-.6s.5-1 .5-1.8c0-.7-.1-1.3-.5-1.7s-.7-.7-1.3-.7c-.5 0-1 .2-1.3.7s-.5 1-.5 1.8zM294.2 171.2v.8c.5-.7 1.1-1 2-1 1.3 0 2 .8 2 2.3v4.2H297v-4.2c0-.5-.1-.8-.3-1s-.6-.3-1-.3-.7 0-1 .2-.4.5-.6.8v4.5h-1v-6.3h1zM309.2 174.8c-.1.9-.4 1.6-1 2s-1.3.8-2.2.8c-1 0-1.8-.3-2.5-1s-.9-1.8-.9-3v-.8c0-.8.2-1.5.5-2s.6-1.1 1.2-1.5 1-.4 1.8-.4c.9 0 1.6.2 2.1.7s1 1.2 1 2.1h-1.1c-.1-.7-.3-1.2-.7-1.5s-.7-.4-1.3-.4a2 2 0 0 0-1.7.8c-.4.5-.6 1.3-.6 2.2v.9c0 .9.2 1.6.5 2.2.4.5 1 .8 1.7.8.6 0 1-.1 1.4-.4s.6-.8.7-1.5h1.1zM310.3 174.3c0-.7.1-1.2.3-1.7s.6-.9 1-1.2 1-.4 1.6-.4c.8 0 1.5.3 2 1s.9 1.3.9 2.3v.1c0 .6-.2 1.2-.4 1.7s-.6.8-1 1.1-1 .4-1.5.4c-.9 0-1.6-.3-2.1-.9s-.8-1.4-.8-2.4zm1 .1c0 .7.2 1.3.6 1.7s.7.6 1.3.6c.5 0 1-.2 1.3-.6s.5-1 .5-1.8c0-.7-.2-1.3-.5-1.7s-.8-.7-1.3-.7c-.6 0-1 .2-1.3.7s-.5 1-.5 1.8zM318.4 171.2v.8c.6-.7 1.2-1 2-1 1.3 0 2 .8 2 2.3v4.2h-1v-4.2c0-.5-.2-.8-.4-1s-.5-.3-1-.3c-.3 0-.6 0-.9.2s-.5.5-.6.8v4.5h-1v-6.3h1zM325 171.2v.8c.6-.7 1.2-1 2-1 1.3 0 2 .8 2 2.3v4.2h-1v-4.2c0-.5-.2-.8-.4-1s-.5-.3-1-.3c-.3 0-.6 0-.9.2s-.4.5-.6.8v4.5h-1v-6.3h1zM333.3 177.6c-.9 0-1.6-.3-2.1-.8s-.8-1.3-.8-2.3v-.2c0-.6.1-1.2.3-1.7s.6-.9 1-1.1 1-.5 1.4-.5c.9 0 1.5.3 2 .9s.7 1.3.7 2.3v.4h-4.3c0 .7.2 1.2.5 1.6s.8.5 1.3.5c.4 0 .7 0 1-.2l.7-.6.7.5c-.6.8-1.4 1.2-2.4 1.2zm-.2-5.7c-.4 0-.8.2-1 .5s-.5.8-.6 1.4h3.2v-.1c0-.6-.2-1-.5-1.3s-.6-.5-1-.5zM339.6 176.7c.3 0 .7 0 1-.3s.4-.5.4-.9h1c0 .4 0 .7-.3 1s-.5.6-1 .8-.7.3-1.1.3c-1 0-1.6-.3-2.1-.8s-.8-1.4-.8-2.4v-.2c0-.6.1-1.2.4-1.6s.5-.9 1-1.2.9-.4 1.4-.4c.8 0 1.3.3 1.8.7s.7 1 .8 1.6h-1c0-.4-.2-.7-.5-1s-.6-.4-1-.4c-.6 0-1 .2-1.3.6s-.5 1-.5 1.7v.3c0 .7.2 1.2.5 1.6s.7.6 1.3.6zM344.8 169.6v1.6h1.1v.8h-1.1v4l.1.5.6.2h.5v.8l-.9.1c-.4 0-.8-.1-1-.4s-.4-.7-.4-1.3V172h-1.2v-.8h1.2v-1.6h1zM346.8 174.3c0-.7.1-1.2.4-1.7s.6-.9 1-1.2 1-.4 1.5-.4c.8 0 1.5.3 2 1s.9 1.3.9 2.3v.1c0 .6-.1 1.2-.4 1.7s-.5.8-1 1.1-1 .4-1.5.4c-.9 0-1.6-.3-2-.9s-.9-1.4-.9-2.4zm1.1.1c0 .7.2 1.3.5 1.7s.7.6 1.3.6c.5 0 1-.2 1.3-.6s.5-1 .5-1.8c0-.7-.2-1.3-.5-1.7s-.8-.7-1.3-.7c-.6 0-1 .2-1.3.7s-.5 1-.5 1.8zM357 172.1h-.5c-.7 0-1.2.3-1.5.9v4.5h-1v-6.3h1v.7c.4-.6.9-.9 1.5-.9l.5.1v1zM361.7 175.8c0-.3-.1-.5-.3-.7s-.6-.3-1.2-.4l-1.3-.4-.7-.6-.2-.8c0-.5.2-1 .6-1.3s1-.6 1.7-.6 1.3.2 1.7.6.7.8.7 1.4h-1c0-.3-.2-.5-.5-.7s-.5-.4-.9-.4-.7.1-1 .3-.3.4-.3.7l.3.6c.2.2.6.2 1.2.3l1.3.5c.3.2.6.3.7.6l.3.8c0 .6-.3 1-.7 1.4s-1 .5-1.8.5c-.5 0-1 0-1.3-.3s-.7-.4-1-.7-.3-.7-.3-1h1.1c0 .3.2.6.5.8s.6.3 1 .3.8 0 1-.2.4-.4.4-.7z"/></g><g fill="#6E6E6E"><path d="M249 224.2c0 .8-.2 1.5-.5 2s-.6 1.2-1 1.5l1.5 1.2-.8.7-1.8-1.4a3.7 3.7 0 0 1-2.7-.4c-.5-.4-1-.8-1.2-1.4s-.4-1.4-.4-2.2v-.6c0-.8.1-1.5.4-2.2s.7-1 1.2-1.4 1.1-.5 1.8-.5 1.3.2 1.8.5 1 .8 1.2 1.4.4 1.4.4 2.2v.6zm-1.2-.6c0-1-.2-1.8-.6-2.3s-1-.8-1.7-.8-1.3.2-1.7.8-.6 1.3-.6 2.2v.7c0 1 .2 1.7.6 2.3s1 .8 1.7.8 1.3-.2 1.7-.8.6-1.3.6-2.3v-.6zM254.4 227.5c-.4.5-1 .8-1.9.8-.6 0-1.1-.2-1.5-.6s-.5-1-.5-1.8v-4h1v4c0 1 .4 1.4 1.2 1.4.9 0 1.4-.3 1.7-.9v-4.6h1v6.4h-1v-.7zM257.1 220.1c0-.1 0-.3.2-.4l.4-.2c.3 0 .4 0 .5.2l.2.4c0 .1 0 .4-.2.5l-.4.1-.5-.1a.6.6 0 0 1-.2-.5zm1.2 8h-1.1v-6.3h1v6.4zM262.6 227.4c.3 0 .7-.1 1-.4s.4-.5.5-.8h1c0 .3-.2.7-.4 1s-.5.6-1 .8-.7.3-1.1.3c-.9 0-1.6-.3-2.1-.9s-.8-1.4-.8-2.4v-.1c0-.7.1-1.2.4-1.7s.5-.8 1-1.1.9-.4 1.5-.4c.7 0 1.3.2 1.7.6s.7 1 .8 1.7h-1c0-.4-.2-.8-.5-1s-.6-.4-1-.4c-.6 0-1 .2-1.3.6s-.5 1-.5 1.7v.2c0 .7.2 1.3.5 1.7s.7.6 1.3.6zM268 225.2l-.6.7v2.3h-1.1v-9h1v5.4l.7-.7 2-2h1.3l-2.5 2.6 2.7 3.7h-1.2l-2.2-3zM279 226.5c0-.3 0-.6-.3-.7l-1.1-.4-1.3-.5-.8-.5c-.2-.2-.2-.5-.2-.8 0-.6.2-1 .7-1.4s1-.5 1.6-.5c.8 0 1.4.2 1.8.6s.7.8.7 1.4H279c0-.3-.1-.6-.4-.8s-.6-.3-1-.3c-.3 0-.7 0-.9.2s-.3.4-.3.7c0 .3 0 .5.3.6l1.1.4c.5 0 1 .3 1.3.4s.6.4.8.6.2.6.2.9c0 .6-.2 1-.7 1.4s-1 .5-1.7.5c-.5 0-1-.1-1.4-.3s-.7-.4-.9-.8-.3-.6-.3-1h1c0 .4.2.7.5.9s.6.3 1 .3c.5 0 .8-.1 1-.3s.4-.4.4-.6zM283 220.3v1.5h1.2v.8H283v4c0 .2 0 .4.2.6s.3.1.5.1h.5v.9h-.8c-.5 0-.9 0-1.1-.4s-.4-.7-.4-1.2v-4h-1.1v-.8h1.1v-1.5h1.1zM289.4 228.2l-.2-.7c-.5.5-1 .8-1.8.8-.6 0-1.1-.2-1.5-.6s-.6-.8-.6-1.3c0-.7.2-1.2.7-1.5s1.2-.6 2.1-.6h1.1v-.5c0-.4-.1-.7-.3-.9s-.6-.3-1-.3-.7 0-1 .3-.4.4-.4.7h-1c0-.3 0-.7.2-1s.6-.5 1-.6l1.2-.3c.8 0 1.3.2 1.7.5s.7 1 .7 1.6v2.9c0 .6 0 1 .2 1.4h-1.1zm-1.8-.9c.3 0 .6 0 1-.2s.5-.4.6-.7V225h-.8c-1.4 0-2 .4-2 1.1 0 .4 0 .6.3.8s.5.3.9.3zM295 222.8h-.5c-.7 0-1.2.2-1.4.9v4.5H292v-6.4h1v.7c.4-.5 1-.8 1.6-.8h.5v1zM297.8 220.3v1.5h1.2v.8h-1.2v4c0 .2 0 .4.2.6s.3.1.5.1h.5v.9h-.8c-.5 0-.9 0-1.1-.4s-.4-.7-.4-1.2v-4h-1.1v-.8h1.1v-1.5h1.1zM304.7 220.3v1.5h1.2v.8h-1.2v4c0 .2 0 .4.2.6s.2.1.5.1h.5v.9h-.8c-.5 0-.9 0-1.1-.4s-.4-.7-.4-1.2v-4h-1.1v-.8h1.1v-1.5h1.1zM309.8 228.3c-.9 0-1.6-.3-2.1-.9s-.8-1.3-.8-2.2v-.2c0-.7 0-1.2.3-1.7s.6-1 1-1.2 1-.4 1.4-.4c.9 0 1.5.3 2 .8s.7 1.3.7 2.3v.5H308c0 .6.2 1.1.5 1.5s.8.6 1.3.6c.4 0 .7-.1 1-.3l.7-.6.7.5c-.6.9-1.4 1.3-2.4 1.3zm-.2-5.7c-.4 0-.8.1-1 .5s-.5.7-.6 1.3h3.2c0-.6-.2-1-.5-1.4s-.6-.4-1-.4zM314.5 221.8v.7c.5-.5 1.1-.8 2-.8.8 0 1.4.3 1.7 1a2.4 2.4 0 0 1 2-1c1.5 0 2.2.7 2.2 2.2v4.3h-1V224c0-.5-.2-.8-.4-1s-.6-.4-1-.4c-.5 0-.8.1-1 .4s-.5.5-.5 1v4.2h-1.1V224c0-1-.5-1.4-1.4-1.4-.7 0-1.2.3-1.4 1v4.6h-1.1v-6.4h1zM329.4 225c0 1-.2 1.8-.7 2.4s-1 .9-1.8.9c-.7 0-1.3-.3-1.8-.8v3h-1v-8.7h1v.7c.4-.5 1-.8 1.8-.8s1.4.3 1.8.9.7 1.3.7 2.4zm-1.1 0c0-.8-.2-1.3-.5-1.8s-.7-.6-1.2-.6c-.7 0-1.2.3-1.5.9v3c.3.6.8.9 1.5.9.5 0 1-.2 1.2-.6s.5-1 .5-1.9zM332 228.2h-1.1v-9h1v9zM337.6 228.2l-.2-.7c-.5.5-1 .8-1.8.8-.6 0-1.1-.2-1.5-.6s-.6-.8-.6-1.3c0-.7.2-1.2.7-1.5s1.2-.6 2.2-.6h1v-.5c0-.4-.1-.7-.3-.9s-.6-.3-1-.3-.7 0-1 .3-.4.4-.4.7h-1c0-.3 0-.7.3-1l.9-.6 1.2-.3c.8 0 1.3.2 1.8.5s.6 1 .6 1.6v2.9c0 .6 0 1 .2 1.4h-1.1zm-1.8-.9c.3 0 .6 0 1-.2s.5-.4.6-.7V225h-.8c-1.4 0-2 .4-2 1.1 0 .4 0 .6.3.8s.5.3.9.3zM341.7 220.3v1.5h1.2v.8h-1.2v4l.1.6c.1.2.3.1.6.1h.5v.9h-.9c-.4 0-.8 0-1-.4s-.4-.7-.4-1.2v-4h-1.2v-.8h1.2v-1.5h1zM346.7 228.3c-.8 0-1.5-.3-2-.9s-.9-1.3-.9-2.2v-.2c0-.7.2-1.2.4-1.7s.6-1 1-1.2 1-.4 1.4-.4c.8 0 1.5.3 2 .8s.6 1.3.6 2.3v.5H345c0 .6.2 1.1.6 1.5s.8.6 1.3.6c.4 0 .7-.1 1-.3l.7-.6.6.5c-.5.9-1.3 1.3-2.4 1.3zm0-5.7c-.5 0-.9.1-1.2.5s-.5.7-.5 1.3h3.1c0-.6-.1-1-.4-1.4s-.6-.4-1-.4zM354.2 226.5c0-.3-.1-.6-.4-.7l-1.1-.4-1.3-.5c-.3-.2-.6-.3-.7-.5l-.3-.8c0-.6.2-1 .7-1.4s1-.5 1.7-.5 1.3.2 1.7.6.7.8.7 1.4H354c0-.3-.1-.6-.4-.8s-.5-.3-1-.3c-.3 0-.6 0-.9.2s-.3.4-.3.7c0 .3.1.5.3.6l1.1.4c.5 0 1 .3 1.4.4s.5.4.7.6.3.6.3.9c0 .6-.3 1-.7 1.4s-1 .5-1.8.5c-.5 0-1-.1-1.3-.3s-.7-.4-1-.8-.3-.6-.3-1h1c.1.4.3.7.5.9s.7.3 1.1.3c.4 0 .7-.1 1-.3s.4-.4.4-.6zM361.1 220.3v1.5h1.2v.8H361v4c0 .2 0 .4.2.6s.2.1.5.1h.5v.9h-.8c-.5 0-.9 0-1.1-.4s-.4-.7-.4-1.2v-4H359v-.8h1.1v-1.5h1.1zM363.1 225c0-.7.2-1.3.4-1.8s.6-.8 1-1.1 1-.4 1.5-.4c.9 0 1.6.3 2.1.9s.8 1.4.8 2.4c0 .7-.1 1.2-.3 1.7s-.6.9-1 1.2-1 .4-1.6.4c-.8 0-1.5-.3-2-1s-.9-1.3-.9-2.3zm1.1 0c0 .8.2 1.3.5 1.7s.8.7 1.3.7c.6 0 1-.2 1.3-.7s.5-1 .5-1.8c0-.7-.1-1.2-.5-1.7s-.7-.6-1.3-.6c-.5 0-1 .2-1.3.6s-.5 1-.5 1.9zM243.4 239.8v7c0 1.3-.6 2-1.7 2a2 2 0 0 1-.7-.2v-.9h.5l.6-.1.2-.7v-7h1zm-1.2-1.7l.1-.4.5-.2c.2 0 .4 0 .5.2l.1.4-.1.5-.5.1-.5-.1a.6.6 0 0 1-.1-.5zM249 245.5c-.4.5-1 .8-1.8.8-.7 0-1.2-.2-1.6-.6s-.5-1-.5-1.8v-4h1v4c0 1 .5 1.4 1.2 1.4.9 0 1.4-.3 1.7-.9v-4.6h1v6.4h-1v-.7zM252.7 239.8v.7c.5-.5 1.2-.8 2-.8s1.4.3 1.8 1a2.4 2.4 0 0 1 2-1c1.4 0 2 .7 2.1 2.2v4.3h-1V242c0-.5-.2-.8-.4-1s-.5-.4-1-.4c-.4 0-.8.1-1 .4s-.5.5-.5 1v4.2h-1V242c0-1-.5-1.4-1.4-1.4-.8 0-1.2.3-1.5 1v4.6h-1v-6.4h1zM267.6 243c0 1-.2 1.8-.7 2.4s-1 .9-1.8.9c-.7 0-1.3-.3-1.8-.8v3h-1v-8.7h1v.7c.4-.5 1-.8 1.8-.8s1.4.3 1.8.9.7 1.3.7 2.4zm-1 0c0-.8-.2-1.3-.5-1.8s-.8-.6-1.3-.6c-.7 0-1.1.3-1.5.9v3c.3.6.8.9 1.5.9.5 0 1-.2 1.2-.6s.5-1 .5-1.9zM275.6 244.5c0-.3 0-.6-.3-.7l-1.2-.4c-.6-.1-1-.3-1.3-.5l-.7-.5c-.2-.2-.2-.5-.2-.8 0-.6.2-1 .7-1.4s1-.5 1.6-.5c.8 0 1.3.2 1.8.6s.7.8.7 1.4h-1.1c0-.3-.2-.6-.4-.8s-.6-.3-1-.3-.7 0-.9.2-.3.4-.3.7c0 .3 0 .5.3.6l1.1.4c.5 0 1 .3 1.3.4s.6.4.8.6.2.6.2.9c0 .6-.2 1-.7 1.4s-1 .5-1.7.5c-.5 0-1-.1-1.4-.3s-.7-.4-.9-.8-.3-.6-.3-1h1c0 .4.2.7.5.9s.6.3 1 .3c.5 0 .8-.1 1-.3s.4-.4.4-.6zM279.6 238.3v1.5h1.2v.8h-1.2v4c0 .2 0 .4.2.6s.2.1.5.1h.5v.9h-.8c-.5 0-.9 0-1.1-.4s-.4-.7-.4-1.2v-4h-1.1v-.8h1.1v-1.5h1.1zM286 246.2l-.2-.7c-.5.5-1 .8-1.8.8-.6 0-1.1-.2-1.5-.6s-.6-.8-.6-1.3c0-.7.2-1.2.7-1.5s1.2-.6 2.1-.6h1v-.5c0-.4 0-.7-.2-.9s-.6-.3-1-.3-.8 0-1 .3-.4.4-.4.7H282c0-.3.1-.7.3-1s.6-.5 1-.6l1.2-.3c.7 0 1.3.2 1.7.5s.7 1 .7 1.6v2.9c0 .6 0 1 .2 1.4H286zm-1.8-.9c.3 0 .6 0 1-.2s.5-.4.6-.7V243h-.9c-1.3 0-2 .4-2 1.1 0 .4.2.6.4.8s.5.3.9.3zM291.6 240.8h-.5c-.7 0-1.2.2-1.4.9v4.5h-1.1v-6.4h1v.7c.4-.5 1-.8 1.6-.8h.4v1zM294.4 238.3v1.5h1.2v.8h-1.2v4c0 .2 0 .4.2.6s.2.1.5.1h.5v.9h-.8c-.5 0-.9 0-1.1-.4s-.4-.7-.4-1.2v-4h-1.1v-.8h1.1v-1.5h1.1zM301.9 244.6l1.5-4.8h1.1l-2.5 7.3c-.4 1-1 1.6-1.9 1.6H299.5v-1h.3c.4 0 .6 0 .8-.2l.6-.8.2-.6-2.3-6.3h1.2l1.6 4.8zM305.1 243c0-.7.1-1.3.4-1.8s.6-.8 1-1.1 1-.4 1.5-.4c.9 0 1.6.3 2 .9s.9 1.4.9 2.4c0 .7-.1 1.2-.4 1.7s-.5.9-1 1.2-1 .4-1.5.4c-.8 0-1.5-.3-2-1s-.9-1.3-.9-2.3zm1.1 0c0 .8.2 1.3.5 1.7s.8.7 1.3.7c.6 0 1-.2 1.3-.7s.5-1 .5-1.8c0-.7-.2-1.2-.5-1.7s-.8-.6-1.3-.6-1 .2-1.3.6-.5 1-.5 1.9zM316.2 245.5c-.5.5-1 .8-1.9.8-.7 0-1.2-.2-1.5-.6s-.6-1-.6-1.8v-4h1.1v4c0 1 .4 1.4 1.2 1.4.8 0 1.4-.3 1.6-.9v-4.6h1.1v6.4h-1v-.7zM322 240.8h-.6c-.7 0-1.2.2-1.4.9v4.5h-1.1v-6.4h1v.7c.4-.5.9-.8 1.6-.8h.4v1zM326 238.1v-.4l.5-.2c.2 0 .4 0 .5.2l.2.4c0 .1 0 .4-.2.5l-.5.1-.4-.1a.6.6 0 0 1-.2-.5zm1 8h-1v-6.3h1v6.4zM329.8 239.8v.8c.6-.6 1.2-.9 2-.9 1.3 0 2 .8 2 2.3v4.2h-1V242c0-.5-.2-.8-.4-1s-.5-.4-1-.4l-.9.3c-.3.2-.5.4-.6.7v4.6h-1v-6.4h1zM336.9 238.3v1.5h1.2v.8h-1.2v4c0 .2 0 .4.2.6s.2.1.5.1h.5v.9h-.8c-.5 0-.9 0-1.1-.4s-.4-.7-.4-1.2v-4h-1.1v-.8h1.1v-1.5h1.1zM342 246.3c-.9 0-1.6-.3-2.1-.9s-.8-1.3-.8-2.2v-.2c0-.7.1-1.2.3-1.7s.6-1 1-1.2 1-.4 1.4-.4c.9 0 1.5.3 2 .8s.7 1.3.7 2.3v.5h-4.3c0 .6.2 1.1.5 1.5s.8.6 1.3.6c.4 0 .7-.1 1-.3l.7-.6.7.5c-.6.9-1.4 1.3-2.4 1.3zm-.1-5.7c-.5 0-.9.1-1.2.5s-.4.7-.5 1.3h3.2c0-.6-.2-1-.5-1.4s-.6-.4-1-.4zM345.5 243c0-1 .2-1.8.6-2.4s1.1-.9 1.9-.9c.7 0 1.3.3 1.8.8v-.7h1v6.2c0 .8-.2 1.5-.7 2s-1.2.6-2 .6c-.4 0-.9 0-1.3-.2s-.8-.5-1-.8l.5-.7c.5.6 1 .9 1.7.9.6 0 1-.2 1.3-.5s.4-.7.4-1.2v-.6c-.4.5-1 .8-1.8.8-.7 0-1.3-.3-1.8-1s-.6-1.3-.6-2.4zm1 0c0 .8.2 1.3.5 1.7s.7.6 1.2.6c.7 0 1.2-.3 1.5-.9v-2.9c-.3-.6-.8-.9-1.5-.9-.5 0-1 .2-1.2.6s-.5 1-.5 1.9zM355.5 240.8h-.5c-.7 0-1.2.2-1.5.9v4.5h-1v-6.4h1v.7c.4-.5.9-.8 1.5-.8h.5v1zM360.2 246.2l-.2-.7c-.5.5-1 .8-1.8.8-.6 0-1.1-.2-1.5-.6s-.6-.8-.6-1.3c0-.7.2-1.2.7-1.5s1.2-.6 2.2-.6h1v-.5c0-.4-.1-.7-.3-.9s-.6-.3-1-.3-.7 0-1 .3-.4.4-.4.7h-1c0-.3 0-.7.3-1l.9-.6 1.2-.3c.8 0 1.3.2 1.8.5s.6 1 .6 1.6v2.9c0 .6 0 1 .2 1.4h-1.1zm-1.8-.9c.3 0 .6 0 1-.2s.5-.4.6-.7V243h-.8c-1.4 0-2 .4-2 1.1 0 .4 0 .6.3.8s.5.3.9.3zM364.3 238.3v1.5h1.2v.8h-1.2v4l.1.6c.1.2.3.1.6.1h.5v.9h-.9c-.4 0-.8 0-1-.4s-.4-.7-.4-1.2v-4H362v-.8h1.2v-1.5h1zM366.7 238.1c0-.1 0-.3.2-.4l.5-.2c.2 0 .3 0 .4.2l.2.4c0 .1 0 .4-.2.5l-.4.1-.5-.1a.6.6 0 0 1-.2-.5zm1.2 8h-1v-6.3h1v6.4zM369.3 243c0-.7.2-1.3.4-1.8s.6-.8 1-1.1 1-.4 1.5-.4c.9 0 1.6.3 2.1.9s.8 1.4.8 2.4c0 .7-.1 1.2-.3 1.7s-.6.9-1 1.2-1 .4-1.6.4c-.8 0-1.5-.3-2-1s-.9-1.3-.9-2.3zm1.1 0c0 .8.2 1.3.5 1.7s.8.7 1.3.7c.6 0 1-.2 1.3-.7s.5-1 .5-1.8c0-.7-.1-1.2-.5-1.7s-.7-.6-1.3-.6c-.5 0-1 .2-1.3.6s-.5 1-.5 1.9zM377.5 239.8v.8c.5-.6 1.2-.9 2-.9 1.3 0 2 .8 2 2.3v4.2h-1.1V242c0-.5-.1-.8-.3-1s-.6-.4-1-.4c-.3 0-.7.1-1 .3s-.4.4-.5.7v4.6h-1.1v-6.4h1z"/></g><g fill="#FFF" stroke="#4D4D4D" stroke-width=".5"><path stroke-miterlimit="10" d="M7 7.1h180V325H7z"/><path d="M7.3 7.4h179.4v317.3H7.3z"/></g><g fill="#4D4D4D"><path d="M7 7.1h179.7v49H7z"/><path d="M7.3 7.4h179.1v48.4H7.3z"/></g><g fill="#FFF"><path d="M74.2 31.2c-1.5-.5-2.5-1-3.2-1.6s-1-1.3-1-2.2c0-1 .4-1.9 1.2-2.5s1.9-1 3.2-1c.9 0 1.6.2 2.3.5s1.2.8 1.6 1.4.6 1.3.6 2h-1.7c0-.8-.2-1.4-.7-1.9s-1.2-.6-2.1-.6a3 3 0 0 0-2 .5c-.4.4-.7.9-.7 1.5s.3 1 .7 1.4 1.2.7 2.3 1 1.9.6 2.5 1 1 .7 1.3 1.2.4 1 .4 1.7c0 1-.4 1.9-1.2 2.5s-1.9 1-3.2 1c-1 0-1.7-.2-2.5-.6s-1.3-.8-1.8-1.4-.6-1.2-.6-2h1.7c0 .8.3 1.4.9 1.9s1.3.7 2.3.7c.9 0 1.5-.2 2-.6s.7-.8.7-1.5-.2-1-.6-1.4-1.3-.7-2.4-1zM85.1 37c-1.3 0-2.3-.4-3.1-1.2s-1.2-2-1.2-3.4V32c0-1 .2-1.8.5-2.6s.9-1.3 1.5-1.7 1.4-.6 2.1-.6c1.3 0 2.2.4 3 1.2s1 2 1 3.5v.7h-6.5c0 1 .3 1.7.8 2.2s1.2 1 2 1c.6 0 1-.2 1.5-.4s.7-.6 1-1l1 .8a4 4 0 0 1-3.6 1.8zm-.2-8.5c-.6 0-1.2.3-1.6.7s-.7 1.2-.8 2h4.7c0-1-.3-1.5-.6-2s-1-.7-1.7-.7zM93.3 25v2.4H95v1.2h-1.8v6c0 .3 0 .6.2.8.2.2.5.3.8.3l.8-.1v1.3L94 37c-.8 0-1.3-.2-1.7-.6s-.5-1-.5-1.9v-5.9h-1.8v-1.2h1.8V25h1.6zM103.2 36c-.6.7-1.6 1-2.8 1-1 0-1.8-.3-2.3-.8s-.8-1.5-.8-2.7v-6.1h1.6v6.1c0 1.4.6 2.2 1.8 2.2 1.2 0 2-.5 2.5-1.4v-7h1.6V37h-1.6v-1zM115.6 32.2c0 1.5-.3 2.6-1 3.5S113.1 37 112 37c-1.2 0-2.1-.3-2.8-1v4.5h-1.6V27.4h1.5v1c.7-.8 1.7-1.2 2.8-1.2 1.2 0 2 .4 2.7 1.3s1 2 1 3.6v.1zM114 32c0-1-.2-1.9-.7-2.5s-1-1-1.9-1c-1 0-1.7.5-2.2 1.4v4.5c.5.9 1.3 1.3 2.3 1.3.7 0 1.4-.3 1.8-1s.7-1.5.7-2.7z"/></g><path fill="#FFF" stroke="#4D4D4D" stroke-width=".5" stroke-miterlimit="10" d="M667.8 6.8h180v317.9h-180z"/><g fill="#4D4D4D"><path d="M667.8 7.1h180v49h-180z"/><path d="M668.1 7.4h179.4v48.4H668.1z"/></g><g fill="#FFF"><path d="M730.9 30.9c0 1.2-.2 2.3-.7 3.3s-1 1.6-1.8 2.1-1.6.7-2.7.7c-1 0-1.9-.2-2.6-.7s-1.4-1.2-1.9-2.1c-.4-1-.6-2-.6-3.2v-1c0-1.2.2-2.2.6-3.2s1-1.7 1.8-2.2c.8-.5 1.7-.7 2.7-.7 1 0 2 .2 2.7.7.8.5 1.4 1.2 1.8 2.2s.7 2 .7 3.3v.8zm-1.7-.8c0-1.6-.3-2.7-1-3.5s-1.4-1.3-2.5-1.3c-1 0-1.9.4-2.5 1.3s-1 1.9-1 3.3v1c0 1.4.4 2.6 1 3.4s1.5 1.3 2.5 1.3c1.1 0 2-.4 2.6-1.2s.9-2 .9-3.4v-1zM741.6 32.2c0 1.5-.4 2.6-1 3.5S739 37 737.9 37c-1.2 0-2.2-.4-2.8-1.2l-.1 1h-1.5V23.5h1.6v5c.7-.8 1.6-1.2 2.7-1.2s2.1.4 2.8 1.3c.6.9 1 2 1 3.6v.1zm-1.7-.2c0-1-.2-2-.6-2.5s-1-1-1.9-1c-1 0-1.8.6-2.3 1.6v4c.5 1 1.3 1.6 2.4 1.6.7 0 1.3-.3 1.8-1s.6-1.5.6-2.7zM749.5 34.3c0-.4-.2-.7-.5-1l-1.7-.6-2-.6c-.5-.3-.8-.6-1-1-.3-.3-.4-.7-.4-1.1 0-.8.3-1.5 1-2 .6-.6 1.5-.8 2.5-.8s2 .3 2.6.8 1 1.3 1 2.1h-1.6c0-.4-.2-.8-.6-1.1-.3-.3-.8-.5-1.4-.5-.6 0-1 .1-1.4.4s-.5.6-.5 1 .2.7.5.9l1.7.6 2 .6c.5.2.8.6 1 1 .3.3.4.7.4 1.2 0 .9-.3 1.6-1 2s-1.6.8-2.6.8c-.8 0-1.5-.1-2-.4s-1.1-.6-1.4-1c-.4-.6-.5-1.1-.5-1.7h1.6c0 .6.2 1 .6 1.3s1 .5 1.7.5c.6 0 1-.1 1.4-.4s.6-.5.6-1zM757.6 37c-1.3 0-2.4-.4-3.2-1.2s-1.2-2-1.2-3.4V32c0-1 .2-1.8.5-2.6.4-.7.9-1.3 1.5-1.7s1.4-.6 2.1-.6c1.3 0 2.2.4 3 1.2s1 2 1 3.5v.7h-6.5c0 1 .3 1.7.8 2.2.6.6 1.2 1 2 1a3.2 3.2 0 0 0 2.5-1.3l1 .7a4 4 0 0 1-3.5 1.8zm-.3-8.5c-.6 0-1.2.3-1.6.7s-.7 1.2-.8 2h4.7c0-1-.2-1.5-.6-2s-1-.7-1.7-.7zM768.1 28.8h-.8c-1 0-1.8.4-2.2 1.3V37h-1.6v-9.5h1.6v1c.5-.8 1.3-1.2 2.3-1.2l.7.1v1.5zM773.2 34.7l2.4-7.3h1.7l-3.4 9.5h-1.3l-3.4-9.5h1.6l2.4 7.3zM783 37c-1.3 0-2.3-.4-3.1-1.2s-1.2-2-1.2-3.4V32c0-1 .1-1.8.5-2.6.4-.7.9-1.3 1.5-1.7s1.4-.6 2.1-.6c1.3 0 2.2.4 2.9 1.2s1 2 1 3.5v.7h-6.4c0 1 .3 1.7.8 2.2.5.6 1.2 1 2 1 .6 0 1-.2 1.5-.4s.7-.6 1-1l1 .8A4 4 0 0 1 783 37zm-.2-8.5c-.6 0-1.2.3-1.6.7s-.8 1.2-.9 2h4.8c0-1-.3-1.5-.7-2s-.9-.7-1.6-.7z"/></g><g fill="#4B4A4A"><path d="M739 140h-3.3v9.2h-1.8v-9.1h-3.3v-1.5h8.4v1.5zM744.2 143l-.7-.1c-.8 0-1.4.3-1.7.9v5.4h-1.7v-7.9h1.7v.9c.4-.7 1-1 1.8-1h.6v1.7zM750.2 149.2l-.3-.7c-.5.6-1.2.9-2 .9s-1.5-.3-2-.7c-.5-.5-.7-1-.7-1.7 0-.8.3-1.5 1-2 .5-.4 1.4-.6 2.6-.6h1v-.5c0-.5 0-.8-.3-1-.2-.3-.5-.4-1-.4-.4 0-.7.1-1 .3a1 1 0 0 0-.4.8h-1.8c0-.5.2-.9.5-1.2.3-.4.6-.7 1.1-1 .5-.1 1-.3 1.7-.3 1 0 1.7.3 2.2.7.6.5.9 1.2.9 2v3.6c0 .7 0 1.3.3 1.7v.1h-1.8zm-2-1.3c.4 0 .7 0 1-.2l.7-.7v-1.5h-1c-.6 0-1.1.1-1.5.3-.3.3-.5.6-.5 1s.2.6.4.8c.2.2.5.3.9.3zM757 148c.5 0 .9-.2 1.2-.4s.4-.6.5-1h1.6c0 .5-.1 1-.4 1.4s-.7.7-1.2 1-1 .4-1.6.4c-1 0-2-.4-2.6-1.1s-1-1.7-1-3v-.2c0-1.2.3-2.1 1-2.9.6-.7 1.5-1 2.6-1 1 0 1.7.2 2.3.8a3 3 0 0 1 1 2.1h-1.7c0-.4-.2-.8-.5-1-.3-.4-.7-.5-1.1-.5-.6 0-1 .2-1.3.6-.4.4-.5 1-.5 1.9v.3c0 .8.1 1.5.4 2 .4.3.8.5 1.4.5zM762 139.2c0-.2 0-.5.3-.6.1-.2.4-.3.7-.3s.6 0 .7.3l.3.6c0 .3 0 .5-.3.7s-.4.3-.7.3-.6-.1-.7-.3a1 1 0 0 1-.3-.7zm1.9 10H762v-7.9h1.8v8zM767.8 141.3v1c.6-.8 1.4-1.2 2.3-1.2 1.7 0 2.5 1 2.5 2.9v5.2H771v-5.1c0-.5-.1-.9-.4-1.1-.2-.3-.5-.4-1-.4-.7 0-1.3.3-1.6 1v5.6H766v-7.9h1.7zM774.4 145.2c0-1.2.3-2.2 1-3 .5-.7 1.3-1 2.2-1 1 0 1.6.3 2.2.9v-.8h1.6v7.7c0 1-.3 1.8-1 2.4-.6.6-1.5 1-2.6 1-.5 0-1.1-.2-1.7-.4a3 3 0 0 1-1.2-1l.8-1c.6.6 1.2 1 2 1 .6 0 1.1-.2 1.4-.5.4-.4.6-.8.6-1.5v-.5c-.6.6-1.2.9-2.1.9-1 0-1.7-.4-2.3-1.1-.6-.8-.9-1.8-.9-3.1zm1.8.2c0 .8.2 1.4.5 1.8.3.5.8.7 1.4.7.7 0 1.2-.3 1.6-.9v-3.5c-.4-.6-1-.9-1.6-.9-.6 0-1 .2-1.4.7-.3.5-.5 1.1-.5 2z"/><g><path d="M730.9 178.8h4.8v1.5H729v-10.7h1.9v9.2zM737 176.3c0-.8.1-1.5.4-2.1.3-.6.7-1.1 1.3-1.5s1.2-.5 2-.5c1 0 1.9.4 2.5 1a4 4 0 0 1 1.1 2.8v.4c0 .8-.1 1.5-.4 2.1-.3.6-.8 1.1-1.3 1.5-.6.3-1.2.5-2 .5-1 0-2-.4-2.6-1.2-.7-.7-1-1.7-1-3zm1.7.1c0 .8.2 1.5.5 2 .4.4.8.6 1.4.6.6 0 1.1-.2 1.4-.7.4-.4.5-1.1.5-2 0-.8-.1-1.5-.5-2-.3-.4-.8-.6-1.4-.6-.6 0-1 .2-1.4.7-.3.4-.5 1.1-.5 2zM745.8 176.3c0-1.2.3-2.2.9-3 .6-.7 1.3-1 2.3-1 .9 0 1.6.3 2.1.9v-.8h1.7v7.7c0 1-.3 1.8-1 2.4-.6.6-1.5 1-2.6 1-.6 0-1.1-.2-1.7-.4a3 3 0 0 1-1.3-1l.9-1c.5.6 1.2 1 2 1 .6 0 1-.2 1.4-.6.3-.3.5-.7.5-1.4v-.5c-.5.6-1.2.9-2 .9-1 0-1.7-.4-2.3-1.1-.6-.8-.9-1.8-.9-3.1zm1.8.1c0 .8.1 1.5.5 2 .3.4.7.6 1.3.6.7 0 1.3-.3 1.6-1v-3.4c-.3-.6-.8-.9-1.6-.9-.6 0-1 .2-1.3.7-.4.5-.5 1.1-.5 2zM754.6 176.3c0-1.2.3-2.2.9-3 .6-.7 1.3-1 2.3-1 .9 0 1.6.3 2.1.9l.1-.8h1.6v7.7c0 1-.3 1.8-1 2.4-.6.6-1.5 1-2.6 1-.6 0-1.1-.2-1.7-.4a3 3 0 0 1-1.3-1l.9-1c.5.6 1.2 1 2 1 .6 0 1-.2 1.4-.6.3-.3.5-.7.5-1.4v-.5c-.5.6-1.2.9-2 .9-1 0-1.7-.4-2.3-1.1-.6-.8-.9-1.8-.9-3.1zm1.8.1c0 .8.1 1.5.5 2 .3.4.7.6 1.3.6.7 0 1.3-.3 1.6-1v-3.4c-.3-.6-.8-.9-1.6-.9-.5 0-1 .2-1.3.7-.4.5-.5 1.1-.5 2zM763.7 170.3c0-.2.1-.5.3-.6.2-.2.4-.3.7-.3s.6 0 .8.3l.2.6c0 .3 0 .5-.2.7s-.4.3-.8.3-.5-.1-.7-.3a1 1 0 0 1-.3-.7zm2 10h-1.9v-8h1.8v8zM769.5 172.4v1c.6-.8 1.4-1.2 2.4-1.2 1.6 0 2.5 1 2.5 2.9v5.2h-1.8v-5.1c0-.5-.1-.9-.3-1.1-.2-.3-.6-.4-1-.4-.8 0-1.3.3-1.7 1v5.6h-1.8v-8h1.7zM776.2 176.3c0-1.2.3-2.2.9-3 .5-.7 1.3-1 2.3-1 .9 0 1.6.3 2 .9l.2-.8h1.6v7.7c0 1-.3 1.8-1 2.4-.6.6-1.5 1-2.6 1-.6 0-1.2-.2-1.7-.4a3 3 0 0 1-1.3-1l.9-1c.5.6 1.2 1 2 1 .6 0 1-.2 1.4-.6.3-.3.5-.7.5-1.4v-.5c-.5.6-1.2.9-2 .9-1 0-1.7-.4-2.3-1.1-.6-.8-1-1.8-1-3.1zm1.8.1c0 .8.1 1.5.4 2 .4.4.8.6 1.4.6.7 0 1.2-.3 1.6-1v-3.4c-.3-.6-.9-.9-1.6-.9-.6 0-1 .2-1.4.7-.3.5-.4 1.1-.4 2z"/></g></g><path fill="none" stroke="#FF7300" d="M241.4 264.9h152.2"/><path fill="#FFF" stroke="#4D4D4D" stroke-width=".5" stroke-miterlimit="10" d="M628 324.7H448.6V7.4H628v317.3z"/><g fill="#4D4D4D"><path d="M448.3 7.1H628v49H448.3z"/><path d="M448.6 7.4h179.1v48.4H448.6z"/></g><g fill="#FFF"><path d="M507.4 36.9V24h3.6c1.1 0 2 .2 3 .7s1.5 1.2 2 2.1c.4 1 .6 2 .6 3.1v.9c0 1.2-.2 2.2-.7 3.1a5 5 0 0 1-2 2.1c-.8.5-1.8.8-3 .8h-3.5zm1.7-11.5v10h1.7c1.3 0 2.4-.3 3-1.1s1.2-2 1.2-3.5v-.7c0-1.5-.4-2.6-1-3.4a3.6 3.6 0 0 0-3-1.3h-2zM523.2 37c-1.3 0-2.3-.4-3.1-1.2s-1.2-2-1.2-3.4V32c0-1 .2-1.8.5-2.6.4-.7.9-1.3 1.5-1.7s1.4-.6 2.1-.6c1.3 0 2.2.4 3 1.2s1 2 1 3.5v.7h-6.5c0 1 .3 1.7.8 2.2.6.6 1.2 1 2 1 .6 0 1-.2 1.5-.4s.7-.6 1-1l1 .8a4 4 0 0 1-3.6 1.8zm-.2-8.5c-.6 0-1.2.3-1.6.7s-.7 1.2-.8 2h4.7c0-1-.2-1.5-.6-2s-1-.7-1.7-.7zM537.2 32.2c0 1.5-.3 2.6-1 3.5s-1.5 1.3-2.7 1.3c-1.1 0-2-.3-2.7-1v4.5h-1.6V27.4h1.5v1c.7-.8 1.6-1.2 2.8-1.2 1.2 0 2 .4 2.7 1.3s1 2 1 3.6v.1zm-1.6-.2c0-1-.2-1.9-.7-2.5s-1-1-1.9-1c-1 0-1.7.5-2.2 1.4v4.5c.5.9 1.2 1.3 2.2 1.3.8 0 1.4-.3 1.9-1s.7-1.5.7-2.7zM541.4 36.9h-1.6V23.4h1.6v13.5zM544 32c0-1 .1-1.7.5-2.5a4 4 0 0 1 3.8-2.3 4 4 0 0 1 3.1 1.3c.8 1 1.2 2.1 1.2 3.6v.1c0 1-.2 1.8-.5 2.5a4 4 0 0 1-3.8 2.3 4 4 0 0 1-3.2-1.3c-.8-.9-1.2-2-1.2-3.6zm1.6.2c0 1 .2 2 .7 2.6s1.2 1 2 1 1.5-.4 2-1 .7-1.6.7-2.8c0-1-.3-1.9-.8-2.5s-1.1-1-2-1c-.7 0-1.4.3-1.9 1s-.7 1.5-.7 2.7zM558 34.5l2.2-7.1h1.7l-3.8 11c-.6 1.5-1.5 2.3-2.8 2.3h-.3l-.6-.1v-1.4h.4c.6 0 1 0 1.3-.3.3-.2.6-.6.8-1.2l.3-1-3.4-9.3h1.8l2.4 7z"/></g><path fill="none" stroke="#FF7300" d="M462.1 264.9h152.2"/><g fill="#4B4A4A"><path d="M465.4 135.4l-1.3 1.3v3.3h-1.8v-10.7h1.8v5l1-1.2 3.2-3.8h2.2l-4 4.8 4.3 5.9h-2.2l-3.2-4.6zM476.5 139.2c-.5.6-1.3 1-2.2 1-.9 0-1.5-.3-2-.8-.4-.5-.6-1.2-.6-2.2v-5.1h1.7v5c0 1 .5 1.6 1.3 1.6.9 0 1.4-.3 1.7-1v-5.6h1.8v7.9h-1.7v-.8zM487.3 136.1c0 1.2-.3 2.2-.8 3-.6.7-1.3 1-2.3 1-1 0-1.6-.3-2.2-1v.9h-1.7v-11.3h1.8v4.1c.5-.6 1.2-.9 2-.9 1 0 1.8.4 2.4 1.1.5.7.8 1.7.8 3v.1zm-1.8-.1c0-.9-.1-1.5-.4-2-.3-.4-.8-.6-1.4-.6-.7 0-1.3.3-1.6 1v3.3c.3.7.9 1 1.7 1 .5 0 1-.2 1.2-.6s.5-1 .5-2v-.1zM492.6 140.1c-1.2 0-2-.3-2.8-1-.7-.7-1-1.7-1-2.9v-.2c0-.8.1-1.5.4-2.1.3-.6.8-1.1 1.3-1.5.6-.3 1.2-.5 1.9-.5 1 0 1.9.4 2.5 1 .6.7.9 1.7.9 3v.7h-5.2c0 .7.2 1.2.6 1.6.4.3.9.5 1.5.5.8 0 1.5-.3 2-1l1 1c-.4.4-.8.8-1.3 1a4 4 0 0 1-1.8.4zm-.2-6.7c-.5 0-1 .1-1.2.5-.3.3-.5.8-.6 1.4h3.4v-.1c0-.6-.2-1-.5-1.4-.3-.3-.6-.4-1.1-.4zM501.6 133.7h-.7c-.9 0-1.4.3-1.7.9v5.4h-1.8v-8h1.7v1c.5-.7 1.1-1 1.9-1h.6v1.7zM504.7 132v1c.6-.7 1.4-1 2.3-1 1.7 0 2.5.9 2.5 2.8v5.2h-1.7v-5.1c0-.5-.1-1-.4-1.2-.2-.2-.5-.3-1-.3-.7 0-1.3.3-1.6 1v5.6H503v-8h1.7zM515.1 140.1c-1 0-2-.3-2.7-1-.7-.7-1-1.7-1-2.9v-.2c0-.8.1-1.5.4-2.1a3.4 3.4 0 0 1 3.1-2c1.1 0 2 .4 2.5 1 .6.7 1 1.7 1 3v.7H513c0 .7.3 1.2.7 1.6.4.3.9.5 1.4.5.9 0 1.5-.3 2-1l1 1c-.3.4-.7.8-1.3 1a4 4 0 0 1-1.8.4zm-.2-6.7c-.5 0-.9.1-1.2.5-.3.3-.4.8-.5 1.4h3.4v-.1c0-.6-.2-1-.5-1.4-.3-.3-.7-.4-1.2-.4zM522.2 130.1v2h1.4v1.3h-1.4v4.4c0 .3 0 .5.2.7.1.1.3.2.7.2l.6-.1v1.4l-1.2.1c-1.4 0-2-.7-2-2.2v-4.5H519V132h1.3v-2h1.8zM528.8 140.1c-1.2 0-2-.3-2.8-1-.7-.7-1-1.7-1-2.9v-.2c0-.8.1-1.5.4-2.1.3-.6.8-1.1 1.3-1.5.6-.3 1.2-.5 1.9-.5 1 0 1.9.4 2.5 1 .6.7.9 1.7.9 3v.7h-5.2c0 .7.2 1.2.6 1.6.4.3.9.5 1.5.5.8 0 1.5-.3 2-1l1 1c-.4.4-.8.8-1.3 1a4 4 0 0 1-1.8.4zm-.2-6.7c-.5 0-1 .1-1.2.5-.3.3-.5.8-.6 1.4h3.4v-.1c0-.6-.2-1-.5-1.4-.3-.3-.6-.4-1.1-.4zM538 137.8c0-.3 0-.5-.3-.7l-1.3-.4-1.5-.5c-1-.4-1.4-1-1.4-1.9 0-.7.3-1.2.9-1.7.6-.4 1.3-.7 2.2-.7 1 0 1.7.3 2.3.7.6.5.9 1.1.9 1.9H538c0-.4-.1-.7-.4-.9-.2-.2-.6-.3-1-.3s-.7 0-1 .2c-.2.2-.3.5-.3.8 0 .2 0 .4.3.6l1.4.5c.7.1 1.3.3 1.7.5.4.2.6.5.8.8.2.3.3.6.3 1a2 2 0 0 1-.9 1.8c-.5.4-1.3.6-2.3.6-.6 0-1.2 0-1.7-.3s-1-.6-1.2-1c-.3-.4-.4-.8-.4-1.3h1.7c0 .4.2.7.5 1 .3.2.7.3 1.1.3.5 0 .9 0 1.1-.3.3-.1.4-.4.4-.7zM542.2 141h-1.4l4.2-11.7h1.4l-4.2 11.6zM548 140v-10.7h3.2c1 0 1.8.2 2.5.7.8.4 1.3 1 1.7 1.8s.6 1.6.6 2.6v.5c0 1-.2 2-.6 2.7-.4.8-1 1.4-1.7 1.8-.7.4-1.6.6-2.5.6H548zm2-9.2v7.7h1.1c1 0 1.8-.3 2.3-.9a4 4 0 0 0 .8-2.6v-.6a4 4 0 0 0-.8-2.7c-.5-.6-1.2-.9-2.2-.9H550zM557.7 136c0-.8.1-1.5.4-2.1.3-.7.8-1.1 1.3-1.5s1.2-.5 2-.5c1 0 1.9.4 2.6 1a4 4 0 0 1 1 2.8v.4c0 .8-.1 1.5-.4 2.1-.3.6-.7 1.1-1.3 1.4-.6.4-1.2.5-2 .5-1 0-2-.3-2.6-1-.7-.8-1-1.8-1-3v-.1zm1.8.1c0 .8.1 1.5.5 2 .3.4.8.6 1.4.6.6 0 1-.2 1.4-.7.3-.4.5-1.1.5-2 0-.8-.2-1.5-.5-2-.4-.4-.9-.6-1.4-.6-.6 0-1 .2-1.4.6-.4.5-.5 1.2-.5 2.1zM570.1 138.7c.4 0 .8-.1 1.1-.4s.5-.5.5-1h1.7c0 .6-.2 1-.5 1.5s-.7.7-1.2 1-1 .3-1.6.3c-1 0-2-.3-2.6-1s-1-1.7-1-3v-.2c0-1.2.3-2.2 1-2.9.6-.7 1.5-1 2.6-1 1 0 1.7.2 2.3.8a3 3 0 0 1 1 2.1h-1.7c0-.4-.2-.8-.5-1.1-.3-.3-.6-.4-1-.4-.7 0-1.1.2-1.4.6-.3.4-.5 1-.5 1.9v.3c0 .8.2 1.5.5 1.9.3.4.7.6 1.3.6zM577.6 136.6l-.8.8v2.6H575v-11.3h1.8v6.5l.5-.7 2.2-2.4h2.2l-3 3.3 3.3 4.6h-2l-2.4-3.4zM586.5 140.1c-1.2 0-2-.3-2.8-1-.7-.7-1-1.7-1-2.9v-.2c0-.8.1-1.5.4-2.1.3-.6.8-1.1 1.3-1.5.6-.3 1.2-.5 1.9-.5 1 0 1.9.4 2.5 1 .6.7.9 1.7.9 3v.7h-5.2c0 .7.2 1.2.6 1.6.4.3.9.5 1.5.5.8 0 1.5-.3 2-1l1 1c-.4.4-.8.8-1.3 1a4 4 0 0 1-1.8.4zm-.2-6.7c-.5 0-1 .1-1.2.5-.3.3-.5.8-.6 1.4h3.4v-.1c0-.6-.2-1-.5-1.4-.3-.3-.6-.4-1.1-.4zM595.5 133.7h-.7c-.9 0-1.4.3-1.7.9v5.4h-1.8v-8h1.7v1c.5-.7 1.1-1 1.9-1h.6v1.7z"/></g><g fill="#4B4A4A"><path d="M466.7 196.7h1.8v7.5c0 1-.3 1.8-1 2.4-.6.6-1.4 1-2.5 1-1 0-2-.3-2.6-.9s-.9-1.3-.9-2.3h1.9c0 .5.1 1 .4 1.2.3.3.7.5 1.2.5s1-.2 1.2-.5c.3-.4.5-.8.5-1.4v-7.5zM475.5 207.4l-.2-.8c-.6.6-1.3 1-2.1 1s-1.4-.3-2-.7-.7-1-.7-1.7c0-.9.3-1.5 1-2 .6-.4 1.5-.7 2.6-.7h1.1v-.5c0-.4-.1-.7-.3-1-.3-.2-.6-.3-1-.3-.5 0-.8 0-1 .3s-.5.4-.5.7h-1.7c0-.4.1-.8.4-1.2l1.2-.9c.5-.2 1-.3 1.6-.3 1 0 1.7.2 2.2.7.6.5.9 1.1.9 2v3.6c0 .7.1 1.2.3 1.7h-1.8zm-2-1.3c.4 0 .7 0 1-.2.3-.2.6-.4.7-.7v-1.5h-1c-.6 0-1.1 0-1.4.3s-.5.6-.5 1c0 .3 0 .6.3.8.2.2.5.3 1 .3zM481.8 205.1l1.7-5.6h1.9l-2.8 7.9h-1.5l-2.8-8h1.8l1.7 5.7zM491.4 207.4l-.2-.8c-.6.6-1.3 1-2 1-.9 0-1.5-.3-2-.7-.5-.5-.8-1-.8-1.7 0-.9.3-1.5 1-2 .6-.4 1.5-.7 2.6-.7h1.1v-.5c0-.4 0-.7-.3-1-.2-.2-.6-.3-1-.3-.5 0-.8 0-1 .3a1 1 0 0 0-.4.7h-1.8c0-.4.1-.8.4-1.2l1.2-.9c.5-.2 1-.3 1.6-.3 1 0 1.7.2 2.3.7.5.5.8 1.1.8 2v3.6c0 .7.1 1.2.3 1.7h-1.8zm-2-1.3c.4 0 .7 0 1-.2.3-.2.6-.4.7-.7v-1.5h-1c-.6 0-1 0-1.4.3-.3.2-.5.6-.5 1 0 .3.1.6.3.8.3.2.6.3 1 .3zM502.6 203.6h-3.9V202h3.9v1.5zM506.2 199.5v8.6c0 .8-.2 1.4-.6 1.8-.4.5-1 .7-1.8.7l-1-.1V209h.7c.6 0 .9-.3 1-1v-8.6h1.7zm-2-2c0-.4.1-.6.3-.8.2-.2.4-.2.8-.2s.5 0 .7.2.3.4.3.7c0 .3-.1.5-.3.7s-.4.2-.7.2-.6 0-.8-.2a1 1 0 0 1-.2-.7zM513.1 207.4l-.2-.8c-.5.6-1.2 1-2 1-.9 0-1.5-.3-2-.7-.5-.5-.8-1-.8-1.7 0-.9.4-1.5 1-2 .6-.4 1.5-.7 2.7-.7h1v-.5c0-.4 0-.7-.3-1-.2-.2-.6-.3-1-.3s-.8 0-1 .3a1 1 0 0 0-.4.7h-1.8c0-.4.1-.8.4-1.2l1.2-.9c.5-.2 1-.3 1.7-.3.9 0 1.6.2 2.2.7.5.5.8 1.1.8 2v3.6c0 .7.1 1.2.3 1.7h-1.8zm-2-1.3c.4 0 .8 0 1-.2.4-.2.6-.4.8-.7v-1.5h-1c-.7 0-1.2 0-1.5.3-.3.2-.5.6-.5 1 0 .3.1.6.4.8.2.2.5.3.9.3zM521 201h-.8c-.8 0-1.3.3-1.6 1v5.4h-1.8v-8h1.7v1c.5-.7 1-1 1.8-1h.7v1.7z"/></g><path fill="#E6522C" d="M757.8 279.5a14.6 14.6 0 1 0 0 29.2 14.6 14.6 0 0 0 0-29.2z"/><path fill="#FFF" d="M757.8 306.9c-2.3 0-4.2-1.6-4.2-3.5h8.3c0 2-1.8 3.5-4.1 3.5zM764.6 302.3H751v-2.5h13.7v2.5zM764.6 298.5h-13.7l-.1-.1a10 10 0 0 1-2-3.6 63.8 63.8 0 0 1 4.4 1c-.9-1-1.4-2.4-1.4-3.7 0-3 2.2-5.5 1.4-7.6.8.1 1.7 1.7 1.7 4.2a9 9 0 0 0 1.2-4.6c0-1.3.9-2.9 1.8-3-.8 1.4.2 2.5 1 5.3.4 1 .4 2.8.6 3.9.1-2.3.5-5.7 2-6.9-.7 1.5 0 3.3.6 4.2a8 8 0 0 1 1.3 4.5c0 1.4-.5 2.7-1.4 3.7l1.7-.4 3.1-.6s-.5 2-2.2 3.7z"/><path fill="#DB380E" d="M590 282.8c-1.7 1.1-3.6 2.5-4.6 4.7-1.8 3.8 3.6 8 3.8 8.1a.3.3 0 0 0 .4-.3s-1.9-3.8-1.8-6.5c0-.9 1.3-2 2.7-3 1.3-1.1 2.7-2.3 3.5-3.6 1.9-3-.2-6-.2-6a.3.3 0 0 0-.5.2c.2 1.4 0 2.8-.7 4-.5.8-1.5 1.5-2.7 2.4z"/><path fill="#DB380E" d="M597 284a.3.3 0 0 0-.3-.4c-.3 0-7 2.6-7 5.7 0 1.5.6 3 1.6 4.1.3.3.5.5.6.9.2.6-.3 1.9-.5 2.3a.3.3 0 0 0 .4.4c.1-.1 2.8-2 2.3-4.3-.1-.7-.5-1.4-1-2-.5-.9-1-1.5-.3-2.7.7-1.3 4.1-3.9 4.2-4z"/><path fill="#73A1FB" d="M579.7 297c-.1.4 0 .8.1 1 .7 1 3.3 1.6 7.2 1.6h1.7c6.2-.2 8.5-2.2 8.6-2.3a.3.3 0 0 0-.2-.5 43 43 0 0 1-14.4.4c.2-.3 1.5-.8 3-1a.3.3 0 0 0 0-.6c-1 0-5.6 0-6 1.5zM600.6 295c-.9.1-1.8.3-2.6.7a.3.3 0 0 0 .2.6s2.7 0 3 1.6c.2 1.3-2.6 3.5-3.7 4.2a.3.3 0 0 0 .2.6c.3 0 6.4-1.4 5.7-5-.4-2.2-1.7-2.6-2.8-2.6zM596.4 301.7l-.1-.3-1.5-1s-.1-.1-.2 0a28.8 28.8 0 0 1-6.6.7c-2.3 0-3.7-.2-4-.4v-.1l.4-.3a.3.3 0 0 0-.1-.6c-1.5.4-2.2.9-2.2 1.5.1 1.1 2.7 1.7 4.8 1.8h1a42 42 0 0 0 8.5-1.3zM585.4 304a.3.3 0 0 0-.2-.5c-.2 0-2 .1-2 1.2 0 .3 0 .6.2.9.7.7 2.3 1.2 5.2 1.3a17 17 0 0 0 7-1.1.3.3 0 0 0 .1-.5L594 304h-.2l-3 .5h-1.3c-1.3 0-2.7 0-4-.4v-.1z"/><path fill="#73A1FB" d="M587.9 310.4c8.2 0 12.6-1.5 13.5-2.4l.3-.9c0-.3-.3-.6-.6-.8h-.3c-.1.2-.1.3 0 .4l-.1.4a46.8 46.8 0 0 1-21.3.5c.2-.3 1.5-.7 3-1a.3.3 0 0 0-.2-.5h-.3c-2.3.1-5 .4-5.1 1.6 0 .4 0 .7.3 1 .6.7 2.4 1.7 10.8 1.7z"/><path fill="#73A1FB" d="M603 308.2h-.3c0 .1-1.3 1.4-5 2.2a195.8 195.8 0 0 1-15.5.3.3.3 0 0 0 0 .5 44 44 0 0 0 16.3.3c4.4-.7 4.7-2.9 4.7-3 0-.1 0-.2-.2-.3z"/><path fill="#394D54" d="M542 289h4.4v4.5h2.3a9.7 9.7 0 0 0 4.6-1.2c-.6-.9-1-1.9-1-3-.2-1.3 0-3.1 1-4.2l.5-.5.6.4a7 7 0 0 1 2.7 4.5c1.7-.5 3.7-.4 5.2.5l.6.3-.3.7c-1.3 2.4-3.9 3.2-6.5 3-3.8 9.6-12.2 14.2-22.4 14.2-5.2 0-10-2-12.8-6.6l-.4-1c-1-2-1.2-4.2-1-6.5v-.6h3.8v-4.6h4.5v-4.4h8.9V280h5.3v9"/><path fill="#20C2EF" d="M537.4 280.8h3.9v3.8h-3.9v-3.8z"/><path stroke="#394D54" stroke-width=".4" d="M537.9 302.3v-3.2m.6 3.2v-3.2m.5 3.2v-3.2m.6 3.2v-3.2m.6 3.2v-3.2m.6 3.2v-3.2"/><path fill="#00ACD3" d="M524 293.5h4v-3.8h-4v3.8z"/><path stroke="#394D54" stroke-width=".4" d="M524.5 290v3.2m.6-3.2v3.2m.6-3.2v3.2m.6-3.2v3.2m.6-3.2v3.2m.5-3.2v3.2"/><path fill="#00ACD3" d="M528.5 285.2h3.9v3.9h-3.9v-3.9z"/><path fill="#20C2EF" d="M528.5 289.7h3.9v3.8h-3.9v-3.8z"/><path stroke="#394D54" stroke-width=".4" d="M529 288.7v-3.2m.6 3.2v-3.2m.5 3.2v-3.2m.6 3.2v-3.2m.6 3.2v-3.2m.6 3.2v-3.2"/><path fill="#00ACD3" d="M533 293.5h3.8v-3.8H533v3.8z"/><path fill="#20C2EF" d="M533 289h3.8v-3.8H533v3.9z"/><path stroke="#394D54" stroke-width=".4" d="M533.4 290v3.2m.6-3.2v3.2m.6-3.2v3.2m.6-3.2v3.2m.6-3.2v3.2m.5-3.2v3.2"/><path fill="#00ACD3" d="M537.4 285.2h3.9v3.9h-3.9v-3.9z"/><path fill="#20C2EF" d="M537.4 289.7h3.9v3.8h-3.9v-3.8z"/><path stroke="#394D54" stroke-width=".4" d="M537.9 288.7v-3.2m.6 3.2v-3.2m.5 3.2v-3.2m.6 3.2v-3.2m.6 3.2v-3.2m.6 3.2v-3.2"/><path fill="#00ACD3" d="M541.9 293.5h3.8v-3.8H542v3.8z"/><path stroke="#394D54" stroke-width=".4" d="M542.3 290v3.2m.6-3.2v3.2m.6-3.2v3.2m.6-3.2v3.2m.6-3.2v3.2m.5-3.2v3.2"/><defs><path id="a" d="M528.1 280.4v9h-4.3v4.4h-3.6v.4a12 12 0 0 0 1.2 6.6l.3.6.7 1 .5.7a14 14 0 0 0 10.8 4.3c9.9 0 18.2-4.3 22-14.1 2.6.2 5-.4 6.2-2.7-1.8-1-4.1-.7-5.5 0l3.6-10.2-14 9h-4.5v-9h-13.4z"/></defs><clipPath id="b"><use xlink:href="#a" overflow="visible"/></clipPath><path clip-path="url(#b)" fill="#17B5EB" d="M556.4 290.6c.3-2.3-1.4-4.1-2.5-5-1.2 1.4-1.4 5.2.5 6.8-1 1-3.4 1.8-5.7 1.8h-28.8c-.2 2.4 0 14.2 0 14.2h42.2l-.2-17.8c-1.8-1-4.1-.7-5.5 0"/><defs><path id="c" d="M528.1 280.4v9h-4.3v4.4h-3.6v.4a12 12 0 0 0 1.2 6.6l.3.6.7 1 .5.7a14 14 0 0 0 10.8 4.3c9.9 0 18.2-4.3 22-14.1 2.6.2 5-.4 6.2-2.7-1.8-1-4.1-.7-5.5 0l3.6-10.2-14 9h-4.5v-9h-13.4z"/></defs><clipPath id="d"><use xlink:href="#c" overflow="visible"/></clipPath><path clip-path="url(#d)" fill-opacity=".2" d="M520 297.3v11.1H562v-11"/><defs><path id="e" d="M528.1 280.4v9h-4.3v4.4h-3.6v.4a12 12 0 0 0 1.2 6.6l.3.6.7 1 .5.7a14 14 0 0 0 10.8 4.3c9.9 0 18.2-4.3 22-14.1 2.6.2 5-.4 6.2-2.7-1.8-1-4.1-.7-5.5 0l3.6-10.2-14 9h-4.5v-9h-13.4z"/></defs><clipPath id="f"><use xlink:href="#e" overflow="visible"/></clipPath><path clip-path="url(#f)" fill="#D4EDF1" d="M535 307.4c-2.7-1.2-4.1-3-5-4.8l-8 .4 4.2 5.4 8.8-1"/><g><defs><path id="g" d="M528.1 280.4v9h-4.3v4.4h-3.6v.4a12 12 0 0 0 1.2 6.6l.3.6.7 1 .5.7a14 14 0 0 0 10.8 4.3c9.9 0 18.2-4.3 22-14.1 2.6.2 5-.4 6.2-2.7-1.8-1-4.1-.7-5.5 0l3.6-10.2-14 9h-4.5v-9h-13.4z"/></defs><clipPath id="h"><use xlink:href="#g" overflow="visible"/></clipPath><path clip-path="url(#h)" fill-opacity=".1" d="M556.6 290.5c-4 5.2-9.9 9.8-16.1 12.2-5.6 2.1-10.5 2.2-13.8.4l-1-.6c-2.5-1.7-4-4.6-3.8-8.3h-2v14.2h42.2v-18.7h-4.8l-.7.8z"/></g><path fill="none" stroke="#394D54" stroke-width=".9" stroke-linecap="round" d="M522.2 302.8c2.7.1 5.7.2 8.3-.6"/><path fill="#D4EDF1" d="M533.2 300.8a1 1 0 1 1-2.1 0 1 1 0 0 1 2 0z"/><path fill="#394D54" d="M532.4 300.1l-.2.3a.3.3 0 0 0 .6.1v.3a.8.8 0 1 1-.4-.7zM519.6 297.6h34.8l.3-.6s-2.3-.6-2.8-1c-1.3 1.9-9 1.2-9.6-.3-1.7 2-6.8 2-8.5 0-.5 1.5-8.3 2.2-9.6.3-.7.7-2.8 1.2-4.8 1"/><g><path fill="none" stroke="#999" stroke-width="12" stroke-miterlimit="10" d="M185.9 190.4h19.9"/><path fill="#999" d="M203.8 175.8V205l14.6-14.6z"/></g><g><g fill="#4B4A4A"><path d="M24.8 174.4h-1.9v-10.6h1.9v10.6zM28.8 166.5l.1 1c.6-.8 1.4-1.2 2.3-1.2 1.7 0 2.5 1 2.5 2.9v5.2H32v-5.1c0-.5 0-.9-.3-1.1-.2-.3-.6-.4-1-.4-.8 0-1.3.3-1.7 1v5.6h-1.7v-8h1.6zM40.3 172.3c0-.4-.2-.6-.4-.8s-.7-.3-1.3-.4l-1.5-.5c-1-.4-1.4-1-1.4-1.8 0-.7.3-1.3.9-1.8s1.3-.7 2.2-.7c1 0 1.7.3 2.3.8.6.4.9 1 .9 1.8h-1.8c0-.4-.1-.6-.4-.9-.2-.2-.6-.3-1-.3s-.7 0-1 .3c-.2.1-.3.4-.3.7 0 .3 0 .5.3.6l1.4.5c.7.1 1.3.3 1.7.5.4.2.6.5.8.8.2.3.3.6.3 1a2 2 0 0 1-.9 1.8c-.5.4-1.3.7-2.3.7-.6 0-1.2-.1-1.7-.4s-1-.5-1.2-1-.4-.8-.4-1.3h1.7c0 .4.2.8.5 1 .3.2.7.3 1.1.3.5 0 .9 0 1.1-.2.3-.2.4-.4.4-.7zM46.1 164.6v1.9h1.4v1.3h-1.4v4.4c0 .3 0 .6.2.7l.6.2h.7v1.3l-1.2.2c-1.4 0-2-.8-2-2.3v-4.5H43v-1.3h1.3v-2h1.8zM53.9 174.4l-.2-.7c-.6.6-1.3.9-2 .9-.9 0-1.5-.3-2-.7s-.8-1-.8-1.7c0-.8.3-1.5 1-2 .6-.4 1.5-.6 2.6-.6h1.1v-.5c0-.5 0-.8-.3-1-.2-.3-.6-.4-1-.4-.5 0-.8.1-1 .3s-.4.5-.4.8H49c0-.5.1-.9.4-1.2.3-.4.7-.7 1.2-1 .5-.1 1-.3 1.7-.3.9 0 1.6.3 2.2.7.5.5.8 1.2.8 2v3.6c0 .7.1 1.3.3 1.7v.1H54zm-2-1.3c.4 0 .7 0 1-.2l.7-.7v-1.5h-1c-.6 0-1 .1-1.4.3s-.5.6-.5 1 .1.6.3.8c.3.2.6.3 1 .3zM59.5 174.4h-1.8v-11.2h1.8v11.2zM63.6 174.4h-1.8v-11.2h1.8v11.2zM69.3 174.6c-1 0-2-.4-2.7-1.1-.7-.7-1-1.7-1-2.8v-.3c0-.7 0-1.5.4-2 .3-.7.7-1.2 1.3-1.5s1.2-.6 1.8-.6c1.1 0 2 .4 2.5 1 .6.8 1 1.7 1 3v.7h-5.3c0 .7.3 1.2.7 1.6s.9.5 1.4.5c.9 0 1.5-.3 2-1l1 1a4 4 0 0 1-3 1.5zm-.2-6.8c-.5 0-.9.1-1.2.5-.3.3-.5.8-.5 1.4h3.4v-.1c0-.6-.2-1-.5-1.4-.3-.3-.7-.4-1.2-.4zM78.3 168.1h-.7c-.8 0-1.3.3-1.6.9v5.4h-1.8v-8h1.7v1c.5-.7 1-1 1.8-1h.6v1.7z"/></g><g fill="#6E6E6E"><path d="M22.7 196v-8.5h2.4a3.6 3.6 0 0 1 3.3 1.9c.3.6.5 1.3.5 2v.6a4 4 0 0 1-1.8 3.5c-.6.3-1.2.5-2 .5h-2.4zm1.2-7.6v6.7H25c1 0 1.6-.3 2-.8.6-.6.8-1.3.8-2.3v-.5c0-1-.2-1.7-.7-2.3-.4-.5-1-.8-2-.8H24zM30.2 192.8c0-.6 0-1.2.3-1.7s.6-.9 1-1.1 1-.4 1.5-.4c.9 0 1.6.3 2.1.9s.8 1.3.8 2.3v.1c0 .6 0 1.2-.3 1.7s-.6.8-1 1.1-1 .4-1.6.4c-.8 0-1.5-.3-2-.9s-.8-1.4-.8-2.3v-.1zm1 .1c0 .7.2 1.3.5 1.7s.8.6 1.3.6c.6 0 1-.2 1.4-.6s.4-1 .4-1.8c0-.7-.1-1.3-.5-1.7s-.7-.7-1.3-.7c-.5 0-1 .3-1.3.7s-.5 1-.5 1.8zM42.9 194.5l1.2-4.8h1.1l-1.8 6.3h-1l-1.5-4.8-1.5 4.8h-.8l-1.9-6.3h1l1.3 4.7 1.5-4.7h.9l1.5 4.8zM47.3 189.7v.8c.5-.6 1.2-1 2-1 1.3 0 2 .8 2 2.3v4.2h-1.1v-4.2c0-.4-.1-.8-.3-1s-.5-.3-1-.3c-.3 0-.6 0-.9.3l-.6.7v4.5h-1.1v-6.3h1zM54.1 196h-1v-9h1v9zM55.5 192.8c0-.6.2-1.2.4-1.7s.6-.9 1-1.1 1-.4 1.5-.4c.9 0 1.6.3 2.1.9s.8 1.3.8 2.3v.1c0 .6-.1 1.2-.3 1.7s-.6.8-1 1.1-1 .4-1.6.4c-.8 0-1.5-.3-2-.9s-.9-1.4-.9-2.3v-.1zm1.1.1c0 .7.2 1.3.5 1.7s.8.6 1.3.6c.6 0 1-.2 1.3-.6s.5-1 .5-1.8c0-.7-.1-1.3-.5-1.7s-.7-.7-1.3-.7c-.5 0-1 .3-1.3.7s-.5 1-.5 1.8zM66.6 196l-.2-.7c-.5.6-1 .8-1.8.8-.6 0-1.1-.1-1.5-.5s-.6-.8-.6-1.3c0-.7.2-1.2.7-1.6s1.3-.5 2.2-.5h1v-.5c0-.4 0-.7-.3-1s-.6-.3-1-.3-.7.1-1 .3-.4.5-.4.7h-1c0-.3 0-.6.3-.9l.9-.7c.4-.2.8-.2 1.2-.2.8 0 1.3.1 1.8.5s.6.9.6 1.5v3c0 .5 0 1 .2 1.3v.1h-1.1zm-1.8-.8c.3 0 .7-.1 1-.3l.6-.7V193h-.8c-1.4 0-2 .4-2 1.2 0 .3 0 .6.3.8s.5.3.9.3zM69 192.8c0-1 .2-1.8.6-2.4s1.1-.8 1.8-.8c.8 0 1.4.2 1.8.7V187h1v9h-.9v-.7c-.5.6-1 .8-1.9.8-.7 0-1.3-.3-1.8-.9s-.7-1.4-.7-2.3v-.1zm1 .1c0 .7.2 1.3.5 1.7s.7.6 1.2.6c.7 0 1.2-.3 1.5-1v-2.8c-.3-.6-.8-1-1.5-1-.5 0-1 .3-1.2.7s-.5 1-.5 1.8zM80.3 196h-1.1v-8.5h1.1v8.5zM83.2 189.7v.8c.6-.6 1.2-1 2-1 1.3 0 2 .8 2 2.3v4.2h-1v-4.2c-.1-.4-.2-.8-.4-1s-.5-.3-1-.3c-.3 0-.6 0-.9.3l-.6.7v4.5h-1v-6.3h1zM92.5 194.3c0-.3 0-.5-.3-.7l-1.2-.4c-.6 0-1-.2-1.3-.4l-.7-.6c-.2-.2-.2-.5-.2-.8 0-.5.2-1 .6-1.3s1-.5 1.7-.5 1.3.1 1.8.5.6.9.6 1.4h-1c0-.3-.2-.5-.4-.7s-.6-.4-1-.4-.7.1-.9.3-.3.4-.3.7c0 .2 0 .4.3.6l1.1.4c.5.2 1 .2 1.3.4l.8.6c.2.2.2.5.2.9 0 .5-.2 1-.7 1.3s-1 .5-1.7.5c-.5 0-1 0-1.4-.2s-.7-.5-.9-.8-.3-.7-.3-1h1c0 .3.2.6.5.8s.6.3 1 .3c.5 0 .8 0 1-.2s.4-.4.4-.7zM96.5 188.1v1.6h1.2v.8h-1.2v4l.1.5.6.2h.5v.8l-.8.1c-.5 0-.9-.1-1.1-.4s-.4-.7-.4-1.3v-3.9h-1.2v-.8h1.2V188h1zM102.8 196l-.1-.7c-.5.6-1.1.8-1.8.8-.6 0-1.1-.1-1.5-.5s-.6-.8-.6-1.3c0-.7.2-1.2.7-1.6s1.2-.5 2.1-.5h1v-.5c0-.4 0-.7-.3-1s-.5-.3-1-.3c-.3 0-.7.1-1 .3s-.3.5-.3.7h-1.1c0-.3 0-.6.3-.9l1-.7a3 3 0 0 1 1.2-.2c.7 0 1.3.1 1.7.5s.6.9.7 1.5v3c0 .5 0 1 .2 1.3v.1h-1.2zm-1.7-.8l1-.3.6-.7V193h-.9c-1.3 0-2 .4-2 1.2 0 .3.2.6.4.8s.5.3.9.3zM106.6 196h-1v-9h1v9zM109.6 196h-1.1v-9h1v9zM114 196.1c-1 0-1.6-.3-2.2-.8s-.8-1.3-.8-2.3v-.2c0-.6.1-1.2.4-1.7s.5-.8 1-1.1.9-.4 1.4-.4c.8 0 1.4.2 1.9.8s.7 1.3.7 2.3v.5H112c0 .6.2 1 .5 1.5s.8.5 1.4.5c.4 0 .7 0 1-.2l.6-.6.7.5c-.5.8-1.3 1.2-2.4 1.2zm-.2-5.7c-.5 0-.8.2-1.1.5s-.5.8-.6 1.4h3.2v-.1c0-.6-.2-1-.4-1.3s-.7-.5-1.1-.5zM120.7 190.6h-.5c-.7 0-1.2.3-1.5 1v4.4h-1v-6.3h1v.7c.4-.6.9-.8 1.5-.8h.5v1zM128.6 196l-.2-.7c-.5.6-1 .8-1.8.8-.6 0-1.1-.1-1.5-.5s-.6-.8-.6-1.3c0-.7.2-1.2.7-1.6s1.3-.5 2.2-.5h1v-.5c0-.4 0-.7-.3-1s-.6-.3-1-.3-.7.1-1 .3-.4.5-.4.7h-1c0-.3 0-.6.3-.9l.9-.7c.4-.2.8-.2 1.2-.2.8 0 1.3.1 1.8.5s.6.9.6 1.5v3c0 .5 0 1 .2 1.3v.1h-1.1zm-1.8-.8c.3 0 .7-.1 1-.3l.6-.7V193h-.8c-1.4 0-2 .4-2 1.2 0 .3 0 .6.3.8s.5.3.9.3zM132.2 189.7v.8c.5-.6 1.2-1 2-1 1.3 0 2 .8 2 2.3v4.2h-1v-4.2c-.1-.4-.2-.8-.4-1s-.5-.3-1-.3c-.3 0-.6 0-.9.3l-.6.7v4.5h-1.1v-6.3h1zM137.6 192.8c0-1 .2-1.8.7-2.4s1-.8 1.8-.8c.7 0 1.3.2 1.7.7V187h1.1v9h-1v-.7c-.5.6-1 .8-1.8.8s-1.4-.3-1.8-.9-.7-1.4-.7-2.3v-.1zm1 .1c0 .7.2 1.3.5 1.7s.7.6 1.2.6c.7 0 1.2-.3 1.5-1v-2.8c-.3-.6-.8-1-1.5-1-.5 0-1 .3-1.2.7s-.5 1-.5 1.8zM26.3 212.3c0-.3-.1-.5-.4-.7l-1.1-.4c-.5 0-1-.2-1.3-.4l-.7-.6c-.1-.2-.3-.5-.3-.8 0-.5.2-1 .7-1.3s1-.5 1.7-.5 1.3.1 1.7.5.7.9.7 1.4h-1.1c0-.3-.1-.5-.4-.7s-.5-.4-1-.4l-.9.3c-.3.2-.3.4-.3.7l.3.6c.2.2.6.2 1.1.4l1.4.4c.4.2.5.4.7.6s.2.5.2.9c0 .5-.2 1-.6 1.3s-1 .5-1.8.5c-.5 0-1 0-1.3-.2s-.7-.5-1-.8-.3-.7-.3-1h1l.5.8c.2.2.7.3 1.1.3.4 0 .7 0 1-.2s.4-.4.4-.7zM31.4 214.1c-.9 0-1.6-.3-2.1-.8s-.8-1.3-.8-2.3v-.2c0-.6.1-1.2.3-1.7s.6-.8 1-1.1 1-.4 1.5-.4c.8 0 1.4.2 1.9.8s.7 1.3.7 2.3v.5h-4.3c0 .6.2 1 .5 1.5s.8.5 1.3.5c.4 0 .8 0 1-.2l.7-.6.7.5c-.6.8-1.3 1.2-2.4 1.2zm-.1-5.7c-.5 0-.9.2-1.1.5s-.5.8-.6 1.4h3.2v-.1c0-.6-.2-1-.5-1.3s-.6-.5-1-.5zM36.6 206.1v1.6h1.2v.8h-1.2v4l.1.5.6.2h.5v.8l-.8.1c-.5 0-.9-.1-1.1-.4s-.4-.7-.4-1.3v-3.9h-1.2v-.8h1.2V206h1zM43 213.4c-.5.5-1 .7-2 .7-.6 0-1.1-.2-1.5-.6s-.5-1-.5-1.7v-4.1h1.1v4c0 1 .4 1.5 1.2 1.5.8 0 1.3-.3 1.6-1v-4.5H44v6.3h-1v-.6zM51 211c0 .9-.2 1.7-.7 2.2s-1 1-1.7 1c-.8 0-1.4-.3-1.9-.8v3h-1v-8.7h1v.7c.4-.6 1-.8 1.8-.8s1.4.2 1.8.8.7 1.4.7 2.4v.1zm-1-.2c0-.7-.2-1.3-.5-1.7s-.8-.6-1.3-.6c-.6 0-1.1.3-1.5.8v3c.4.7.9 1 1.5 1 .5 0 1-.3 1.3-.7s.4-1 .4-1.8zM56.8 206.1v1.6H58v.8h-1.2v4c0 .2 0 .4.2.5l.5.2h.5v.8l-.8.1c-.5 0-.8-.1-1-.4s-.5-.7-.5-1.3v-3.9h-1.1v-.8h1.1V206h1.1zM60.4 208.4c.4-.5 1-.8 1.8-.8 1.4 0 2 .7 2 2.2v4.2h-1v-4.2c0-.4-.1-.8-.3-1s-.6-.3-1-.3c-.3 0-.7 0-1 .3l-.5.7v4.5h-1.1v-9h1v3.4zM68.5 214.1c-.8 0-1.5-.3-2-.8s-.9-1.3-.9-2.3v-.2c0-.6.1-1.2.4-1.7s.5-.8 1-1.1.9-.4 1.4-.4c.8 0 1.4.2 1.9.8s.7 1.3.7 2.3v.5h-4.3c0 .6.2 1 .5 1.5s.8.5 1.4.5c.4 0 .7 0 1-.2l.6-.6.7.5c-.5.8-1.3 1.2-2.4 1.2zm-.1-5.7c-.5 0-.8.2-1.1.5s-.5.8-.6 1.4H70v-.1c0-.6-.2-1-.4-1.3s-.7-.5-1.1-.5zM77.8 214.1c-.8 0-1.5-.3-2-.8s-.9-1.3-.9-2.3v-.2c0-.6.2-1.2.4-1.7s.6-.8 1-1.1.9-.4 1.4-.4c.8 0 1.5.2 2 .8s.6 1.3.6 2.3v.5H76c0 .6.2 1 .6 1.5s.8.5 1.3.5c.4 0 .7 0 1-.2l.7-.6.6.5c-.5.8-1.3 1.2-2.4 1.2zm0-5.7c-.5 0-.9.2-1.2.5s-.5.8-.5 1.4h3.1v-.1c0-.6-.2-1-.4-1.3s-.6-.5-1-.5zM82.6 207.7v.8c.5-.6 1.1-1 2-1 1.3 0 2 .8 2 2.3v4.2h-1.1v-4.2c0-.4-.1-.8-.3-1s-.6-.3-1-.3-.7 0-1 .3l-.5.7v4.5h-1.1v-6.3h1zM90.3 212.5l1.6-4.8h1l-2.2 6.3h-.8l-2.3-6.3h1l1.7 4.8zM94 206c0-.2 0-.3.2-.5s.2-.1.4-.1l.5.1.2.5c0 .2 0 .3-.2.4l-.5.2c-.3 0-.3 0-.4-.2l-.2-.4zm1.2 8H94v-6.3h1v6.3zM100 208.6h-.6c-.7 0-1.1.3-1.4 1v4.4h-1v-6.3h1v.7c.3-.6.8-.8 1.5-.8h.5v1zM100.6 210.8c0-.6 0-1.2.3-1.7s.6-.9 1-1.1 1-.4 1.5-.4c1 0 1.6.3 2.1.9s.8 1.3.8 2.3v.1c0 .6 0 1.2-.3 1.7s-.6.8-1 1.1-1 .4-1.5.4c-.9 0-1.6-.3-2.1-.9s-.8-1.4-.8-2.3v-.1zm1 .1c0 .7.2 1.3.5 1.7s.8.6 1.4.6c.5 0 1-.2 1.3-.6s.5-1 .5-1.8c0-.7-.2-1.3-.5-1.7s-.8-.7-1.4-.7c-.5 0-1 .3-1.2.7s-.5 1-.5 1.8zM108.7 207.7v.8c.5-.6 1.2-1 2-1 1.3 0 2 .8 2 2.3v4.2h-1.1v-4.2c0-.4-.1-.8-.3-1s-.5-.3-1-.3c-.3 0-.6 0-.9.3l-.6.7v4.5h-1.1v-6.3h1zM115.3 207.7v.7c.5-.6 1.2-.8 2-.8s1.4.3 1.8 1a2.4 2.4 0 0 1 2-1c1.4 0 2 .7 2.1 2.2v4.2h-1v-4.2c0-.4-.2-.8-.4-1s-.5-.3-1-.3c-.4 0-.8.1-1 .3s-.5.6-.5 1v4.2h-1V210c0-1-.5-1.4-1.4-1.4-.8 0-1.2.3-1.5.9v4.6h-1v-6.3h1zM127.5 214.1c-.9 0-1.6-.3-2.1-.8s-.8-1.3-.8-2.3v-.2c0-.6 0-1.2.3-1.7s.6-.8 1-1.1 1-.4 1.4-.4c.9 0 1.5.2 2 .8s.6 1.3.6 2.3v.5h-4.3c0 .6.2 1 .6 1.5s.8.5 1.3.5c.4 0 .7 0 1-.2l.7-.6.7.5c-.6.8-1.4 1.2-2.4 1.2zm-.2-5.7c-.4 0-.8.2-1 .5s-.5.8-.6 1.4h3.2v-.1c0-.6-.2-1-.5-1.3s-.6-.5-1-.5zM132.2 207.7v.8c.5-.6 1.2-1 2-1 1.3 0 2 .8 2 2.3v4.2H135v-4.2c0-.4-.1-.8-.3-1s-.5-.3-1-.3c-.3 0-.6 0-.9.3l-.6.7v4.5h-1.1v-6.3h1zM139.3 206.1v1.6h1.2v.8h-1.2v4l.1.5.6.2h.5v.8l-.8.1c-.5 0-.9-.1-1.1-.4s-.4-.7-.4-1.3v-3.9h-1.1v-.8h1.1V206h1z"/></g></g><g><path fill="#FDFDFE" d="M374.5 309.5h-21.9v-30c0-.5 0-.6.6-.6h29.4c.5 0 .6.1.6.6v4c-.4-.5-.7-1-1.3-1.2l-6-2.9c-.5-.2-1-.3-1.6 0a1 1 0 0 0-.6.3l-6.3 5.8-4.9 4.4-.8.7c-.2 0-.4-.2-.5-.3l-4.6-3.5c-.6-.5-1.2-.5-1.7 0l-1.8 1.5c-.5.6-.5 1.3 0 1.8l2.5 2.3.6.6c.5.5 1.1.8 1.4 1.4l-.4.4-4 3.7c-.6.5-.6 1.2 0 1.8l1.7 1.5c.5.5 1 .5 1.6 0l4.1-3.1 1-.7c.4 0 .6.5 1 .7 1.1 1.2 2.5 2.3 3.7 3.5l5.6 5c.8.7 1.4 1.6 2.5 2v.3z"/><path fill="#21A0F0" d="M374.5 309.5l-.1-.2c.7-.2 1.2-.6 1.2-1.5v-6.7c.1 0 .3 0 .3-.2 0-.7.5-.7 1-.7h4.6c.6 0 1.1 0 1.7-.2v5.3c-.5.3-.8.8-1.4 1l-5.9 2.9c-.1 0-.4 0-.4.3h-1z"/><path fill="#24ABF1" d="M383.2 285.6v7.3c-.8.8-1.8.7-2.8.7h-1.6c-1.1 0-2.3-.3-3.2.6v-6.7-.7h6c.7 0 1.3-.1 1.3-1 0 0 .1-.2.3-.2z"/><path fill="#22A5F1" d="M375.6 294.2c1-.9 2.1-.6 3.2-.6h1.6c1 0 2 0 2.8-.7v7c-.6.4-1.1.3-1.7.3H377c-.6 0-1 0-1.1.7 0 .2-.2.2-.3.2v-7z"/><path fill="#27B1F2" d="M383.2 285.6c-.2 0-.3.1-.3.3 0 .8-.6.9-1.2.9h-6v-5.9c0-.7-.3-1.2-1-1.4l-.4-.1c.6-.3 1.1-.2 1.6 0l6 2.9c.6.3.9.7 1.3 1.1v2.2z"/><path fill="#FBFDFE" d="M375.5 309.5c0-.2.3-.2.4-.3 2-1 4-2 6-2.8.5-.3.8-.8 1.3-1v3.7c0 .3-.1.4-.5.4h-7.2z"/><path fill="#0177B8" d="M374.6 279.5c.8.2 1 .7 1 1.4V287.5c-.4 0-.8.4-1 .6-2.2 1.8-4.5 3.4-6.7 5-.5-.6-1.2-.9-1.9-1.3-1.2-.6-2.2-1.4-3.5-1.9l5-4.4c.2 0 .5 0 .6-.2.4-.4 1-.4 1.5-.4h3c.3 0 .8 0 1-.5l.3-1.3c.4-1.2.2-2.5.7-3.6z"/><path fill="#0188D1" d="M357.6 294.4c-.3-.6-.9-1-1.3-1.4l-.7-.6c0-.5.2-.7.7-.7h5c.6 0 .8-.1.7-.7l1.4 1c1 .8 2 1.7 3.1 2.2 0 .4.4.4.6.6l4.8 3.7c-.8-.2-1.5-.1-2.3-.1h-6c-.3 0-.7 0-1 .3-.4-.2-.6-.6-1-.7-.7-1-1.6-1.6-2.4-2.3-.5-.5-.9-1-1.6-1.3z"/><path fill="#0181CF" d="M362.5 298.7c.4-.3.8-.4 1.2-.3h8.2l3 2.4c-.3 0-.4.2-.4.6-.2 1.2-.4 2.4-.8 3.5-.2.9-.7 1.2-1.6 1.1-.5 0-.9 0-.3.6v.6l-5.5-5-3.8-3.5z"/><path fill="#036FB1" d="M360.6 298.7l-4.1 3.2c-.6.4-1.1.4-1.6 0l-1.7-1.6c-.6-.6-.6-1.3 0-1.8l4-3.7c0 .3.2.6.4.9l2 2.2c.3.3.5.7 1 .8z"/><path fill="#038FD4" d="M362 291c.1.6-.1.7-.7.7h-5c-.5 0-.7.2-.7.7l-2.5-2.3c-.5-.5-.5-1.2 0-1.8l1.8-1.5c.5-.5 1-.5 1.7 0l4.6 3.5c.1.1.3.3.5.3 0 .2.1.3.3.4z"/><path fill="#0279CC" d="M371.9 307.2l-.1-.6c-.6-.6-.2-.6.3-.6.9.1 1.4-.2 1.6-1 .4-1.2.6-2.4.8-3.6 0-.4.1-.6.5-.6.2 0 .3.3.6.3v6.7c0 .9-.5 1.3-1.2 1.5-1-.5-1.7-1.4-2.5-2.1z"/><path fill="#047CBC" d="M374.6 279.5c-.5 1.1-.3 2.4-.7 3.6l-.3 1.3c-.2.5-.7.5-1 .5h-3c-.5 0-1 0-1.5.4-.1.2-.4.2-.7.2l6.3-5.8.6-.3.3.1z"/><path fill="#026DB1" d="M362 291c-.2 0-.3-.2-.3-.4l.8-.7c1.3.5 2.3 1.3 3.5 2 .7.3 1.4.6 1.9 1.3l-1.4 1c-1.2-.5-2-1.4-3-2.2l-1.5-1z"/><path fill="#0269AD" d="M360.6 298.7c-.5 0-.7-.5-1-.8l-2-2.2c-.2-.3-.4-.6-.4-1l.4-.3c.7.2 1 .8 1.6 1.3.8.7 1.7 1.4 2.4 2.3l-1 .7z"/><path fill="#F9FCFD" d="M366.5 294.2l1.4-1 6.6-5c.3-.3.7-.6 1.1-.7V301.1c-.3 0-.4-.2-.6-.3l-3-2.3-4.9-3.7c-.2-.2-.5-.2-.6-.6z"/><g fill="#666"><path d="M256.7 287.5l2.8-8.2h1.5l-3.7 10H256l-3.7-10h1.5l2.8 8.2zM262.1 279.9c0-.2 0-.4.2-.6s.3-.2.6-.2.4.1.5.2l.2.6c0 .2 0 .3-.2.5s-.3.2-.5.2l-.6-.2-.2-.5zm1.4 9.3h-1.3v-7.4h1.3v7.4zM269.8 287.3a1 1 0 0 0-.4-.8c-.2-.2-.7-.4-1.3-.5l-1.5-.5c-.3-.2-.7-.4-.9-.7s-.2-.6-.2-1c0-.6.2-1 .7-1.5s1.2-.6 2-.6 1.5.2 2 .6.8 1 .8 1.7h-1.3c0-.4-.1-.7-.4-.9s-.7-.4-1.1-.4c-.5 0-.8.1-1 .3s-.5.5-.5.8c0 .3.1.5.4.7l1.3.4 1.5.5c.4.1.7.5.9.8.2.2.3.6.3 1 0 .6-.3 1.2-.8 1.6-.5.4-1.2.6-2 .6-.7 0-1.2-.2-1.6-.4s-.9-.5-1.1-.8c-.3-.4-.4-.8-.4-1.3h1.3c0 .5.2.8.5 1 .3.3.7.4 1.2.4a2 2 0 0 0 1.2-.3c.3-.2.4-.4.4-.7zM277.3 288.5c-.5.6-1.2.9-2.2.9-.8 0-1.4-.3-1.8-.7-.4-.5-.6-1.2-.6-2v-4.9h1.3v4.8c0 1.1.4 1.7 1.3 1.7 1 0 1.6-.4 2-1.1v-5.4h1.2v7.4h-1.2v-.7zM285 289.2l-.2-.8c-.6.6-1.3 1-2 1-.8 0-1.4-.3-1.9-.7a2 2 0 0 1-.7-1.5c0-.8.3-1.4 1-1.8.5-.5 1.3-.7 2.4-.7h1.2v-.5c0-.5-.1-.8-.4-1.1-.2-.3-.6-.4-1.2-.4-.4 0-.8.1-1 .3s-.5.5-.5.9h-1.3c0-.4.1-.8.4-1.1.2-.3.6-.6 1-.8s1-.3 1.5-.3a3 3 0 0 1 2 .6c.5.5.8 1 .8 1.8v3.4c0 .7 0 1.2.2 1.6v.1H285zm-2-1c.3 0 .7 0 1-.3s.7-.4.8-.8v-1.5h-1c-1.5 0-2.3.5-2.3 1.4 0 .4.1.7.4 1s.6.3 1 .3zM289.4 289.2h-1.2v-10.5h1.2v10.5zM298 284.8c-1-.3-1.9-.7-2.4-1.2s-.8-1-.8-1.8c0-.7.3-1.4 1-1.9.6-.5 1.4-.8 2.4-.8.7 0 1.3.2 1.8.4s1 .7 1.3 1.1.4 1 .4 1.5h-1.3c0-.6-.2-1-.6-1.4-.4-.3-.9-.5-1.6-.5-.6 0-1.1.1-1.5.4-.4.3-.5.7-.5 1.2 0 .4.1.8.5 1 .3.3.9.6 1.7.8.9.2 1.5.5 2 .8.4.3.8.6 1 1s.3.8.3 1.3c0 .8-.3 1.4-.9 2a4 4 0 0 1-2.5.7c-.7 0-1.3-.2-2-.4-.5-.3-1-.7-1.3-1.1s-.5-1-.5-1.6h1.3c0 .6.3 1.1.7 1.5.4.3 1 .5 1.8.5.7 0 1.2-.2 1.6-.4s.5-.7.5-1.2-.1-.9-.5-1.1a6 6 0 0 0-1.8-.8zM305 280v1.8h1.3v1H305v4.6l.2.7c.1.2.4.2.7.2l.6-.1v1l-1 .2c-.6 0-1-.2-1.3-.6s-.4-.8-.4-1.4v-4.6h-1.4v-1h1.4V280h1.2zM312.4 288.5c-.5.6-1.2.9-2.2.9-.8 0-1.4-.3-1.8-.7-.4-.5-.6-1.2-.6-2v-4.9h1.2v4.8c0 1.1.5 1.7 1.4 1.7 1 0 1.6-.4 2-1.1v-5.4h1.2v7.4h-1.2v-.7zM315.2 285.5c0-1.2.3-2 .8-2.8.6-.7 1.3-1 2.1-1 .9 0 1.6.3 2 .9v-3.9h1.4v10.5h-1.2v-.8c-.6.6-1.3 1-2.2 1-.8 0-1.5-.4-2-1.1s-.9-1.6-.9-2.7v-.1zm1.3.1c0 .8.2 1.5.5 2s.8.7 1.4.7c.8 0 1.4-.4 1.8-1.1v-3.4c-.4-.7-1-1-1.8-1-.6 0-1 .2-1.4.7s-.5 1.2-.5 2.1zM323.4 279.9c0-.2 0-.4.2-.6s.3-.2.6-.2.4.1.5.2l.2.6c0 .2 0 .3-.2.5s-.3.2-.5.2l-.6-.2-.2-.5zm1.4 9.3h-1.3v-7.4h1.3v7.4zM326.5 285.5c0-.8.1-1.4.4-2s.7-1 1.2-1.3 1-.5 1.7-.5c1 0 1.9.3 2.5 1s1 1.7 1 2.8v.1c0 .7-.2 1.4-.5 2a3.1 3.1 0 0 1-3 1.8c-1 0-1.8-.4-2.4-1s-1-1.7-1-2.9zm1.3.1c0 .8.1 1.5.5 2s1 .7 1.5.7c.7 0 1.2-.2 1.6-.7.4-.5.5-1.2.5-2.1 0-.9-.1-1.5-.5-2s-1-.8-1.6-.8c-.6 0-1 .3-1.5.8s-.6 1.2-.6 2.1zM260.7 302.9c-.1 1-.5 1.8-1.1 2.4-.7.6-1.6.9-2.7.9s-2-.5-2.8-1.3-1-2-1-3.4v-1c0-.9.1-1.7.5-2.4s.8-1.2 1.4-1.6c.6-.4 1.3-.6 2-.6 1.1 0 2 .3 2.6 1 .6.5 1 1.3 1.1 2.4h-1.3c-.1-.8-.4-1.4-.7-1.8s-1-.5-1.6-.5c-.9 0-1.5.3-2 1s-.7 1.4-.7 2.6v1c0 1 .2 1.9.7 2.5s1 1 1.9 1c.7 0 1.2-.2 1.6-.5.4-.3.7-1 .8-1.7h1.3zM262 302.3c0-.8.1-1.4.4-2s.7-1 1.2-1.3 1-.5 1.7-.5c1 0 1.9.3 2.5 1s1 1.7 1 2.8v.1c0 .7-.2 1.4-.5 2a3.1 3.1 0 0 1-3 1.8c-1 0-1.8-.4-2.4-1s-1-1.7-1-2.9zm1.3.1c0 .8.1 1.5.5 2s1 .7 1.6.7c.6 0 1.1-.2 1.5-.7.4-.5.6-1.2.6-2.1 0-.9-.2-1.5-.6-2-.4-.5-1-.8-1.6-.8-.6 0-1 .3-1.5.8s-.5 1.2-.5 2.1zM270 302.3c0-1.2.3-2 .8-2.8.5-.7 1.2-1 2.1-1 .9 0 1.6.3 2 .9v-3.9h1.3V306h-1.1v-.8c-.6.6-1.3 1-2.2 1-.9 0-1.6-.4-2-1.1s-.9-1.6-.9-2.7v-.1zm1.3.1c0 .8.1 1.5.5 2s.8.7 1.4.7c.8 0 1.4-.4 1.8-1.1v-3.4c-.4-.7-1-1-1.8-1-.6 0-1 .2-1.4.7s-.5 1.2-.5 2.1zM281.3 306.2c-1 0-1.9-.4-2.5-1-.6-.7-1-1.6-1-2.7v-.2c0-.7.2-1.4.5-2 .3-.6.7-1 1.2-1.3a3 3 0 0 1 1.6-.5c1 0 1.7.3 2.3 1s.8 1.5.8 2.7v.5h-5c0 .7.2 1.3.6 1.7.4.5 1 .7 1.5.7s.9 0 1.2-.3l.8-.7.8.6c-.7 1-1.6 1.5-2.8 1.5zm-.2-6.7c-.5 0-1 .2-1.3.6-.3.4-.5.9-.6 1.5h3.7c0-.7-.2-1.2-.5-1.5-.3-.4-.8-.6-1.3-.6z"/></g></g><g><g fill="#6E6E6E"><path d="M462.2 78v-8.5h2.4a3.6 3.6 0 0 1 3.3 1.9c.3.6.5 1.3.5 2v.6c0 .8-.2 1.5-.5 2.1s-.8 1-1.3 1.4-1.3.5-2 .5h-2.4zm1.1-7.6V77h1.2c.9 0 1.5-.3 2-.8.5-.6.8-1.3.8-2.3v-.5c0-1-.3-1.8-.7-2.3-.5-.5-1.1-.8-2-.8h-1.3zM472.5 78.1c-.8 0-1.5-.3-2-.8s-.9-1.3-.9-2.3v-.2c0-.6.1-1.2.4-1.7s.6-.9 1-1.1.9-.5 1.4-.5c.8 0 1.5.3 2 .9s.6 1.3.6 2.3v.4h-4.3c0 .7.2 1.2.6 1.6s.7.5 1.3.5c.4 0 .7 0 1-.2l.7-.6.6.5c-.5.8-1.3 1.2-2.4 1.2zm-.1-5.7c-.4 0-.8.2-1.1.5s-.5.8-.6 1.4h3.2v-.1c0-.6-.2-1-.4-1.3s-.7-.5-1.1-.5zM481.6 74.9c0 1-.2 1.7-.7 2.3s-1 1-1.7 1c-.8 0-1.4-.3-1.9-.8v3h-1v-8.7h1v.7c.4-.6 1-.9 1.8-.9s1.4.3 1.8.9.7 1.4.7 2.4v.1zm-1-.1c0-.7-.2-1.3-.5-1.7s-.8-.6-1.3-.6c-.6 0-1.1.3-1.5.8v3c.4.6.9 1 1.5 1 .5 0 1-.3 1.3-.7s.4-1 .4-1.8zM484.2 78H483v-9h1v9zM485.6 74.8c0-.6.1-1.2.4-1.7s.6-.9 1-1.2 1-.4 1.5-.4c.8 0 1.5.3 2 1s.9 1.3.9 2.3v.1c0 .6-.1 1.2-.4 1.7s-.5.8-1 1.1-1 .4-1.5.4c-.9 0-1.6-.3-2-.9s-.9-1.4-.9-2.4zm1.1.1c0 .7.2 1.3.5 1.7s.8.6 1.3.6 1-.2 1.3-.6.5-1 .5-1.8c0-.7-.2-1.3-.5-1.7s-.8-.7-1.3-.7-1 .2-1.3.7-.5 1-.5 1.8zM494.7 76.4l1.5-4.7h1.2l-2.6 7.3c-.4 1-1 1.6-1.9 1.6h-.2l-.4-.1v-1l.3.1c.4 0 .7 0 .9-.2l.5-.8.2-.7-2.2-6.2h1.1l1.6 4.7zM501.3 70c0-.2 0-.3.2-.5s.2-.1.4-.1l.5.1.2.5c0 .2 0 .3-.2.4l-.5.2c-.3 0-.3 0-.4-.2l-.2-.4zm1.2 8h-1.1v-6.3h1V78zM505.2 71.7v.8c.6-.7 1.2-1 2-1 1.3 0 2 .8 2 2.3V78h-1v-4.2c0-.5-.2-.8-.4-1s-.5-.3-1-.3c-.3 0-.6 0-.9.2s-.5.5-.6.8V78h-1v-6.3h1zM512.3 70.1v1.6h1.2v.8h-1.2v4c0 .2 0 .4.2.5l.5.2h.5v.8l-.8.1c-.5 0-.9-.1-1.1-.4s-.4-.7-.4-1.3v-3.9h-1.1v-.8h1.1V70h1.1zM514.4 74.8c0-.6 0-1.2.3-1.7s.6-.9 1-1.2 1-.4 1.5-.4c.9 0 1.6.3 2.1 1s.8 1.3.8 2.3v.1c0 .6-.1 1.2-.3 1.7s-.6.8-1 1.1-1 .4-1.6.4c-.8 0-1.5-.3-2-.9s-.8-1.4-.8-2.4zm1 .1c0 .7.2 1.3.5 1.7s.8.6 1.3.6c.6 0 1-.2 1.4-.6s.4-1 .4-1.8c0-.7-.1-1.3-.5-1.7s-.7-.7-1.3-.7c-.5 0-1 .2-1.3.7s-.5 1-.5 1.8zM526.5 76.4l1.5-4.7h1.2l-2.6 7.3c-.4 1-1 1.6-1.9 1.6h-.2l-.4-.1v-1l.3.1c.4 0 .7 0 .9-.2l.5-.8.2-.7-2.2-6.2h1.1l1.6 4.7zM529.8 74.8c0-.6 0-1.2.3-1.7s.6-.9 1-1.2 1-.4 1.5-.4c.9 0 1.6.3 2.1 1s.8 1.3.8 2.3v.1c0 .6 0 1.2-.3 1.7s-.6.8-1 1.1-1 .4-1.6.4c-.8 0-1.5-.3-2-.9s-.8-1.4-.8-2.4zm1 .1c0 .7.2 1.3.5 1.7s.8.6 1.3.6c.6 0 1-.2 1.4-.6s.4-1 .4-1.8c0-.7-.1-1.3-.5-1.7s-.7-.7-1.3-.7c-.5 0-1 .2-1.3.7s-.5 1-.5 1.8zM540.8 77.4c-.4.5-1 .7-1.9.7-.6 0-1.1-.2-1.5-.6s-.5-1-.5-1.7v-4.1h1v4c0 1 .4 1.5 1.2 1.5.8 0 1.4-.3 1.7-1v-4.5h1V78h-1v-.6zM546.6 72.6h-.6c-.7 0-1.2.3-1.4.9V78h-1.1v-6.3h1v.7c.4-.6 1-.9 1.6-.9l.5.1v1zM551 78v-5.5h-1v-.8h1V71c0-.7.2-1.2.6-1.6s.9-.5 1.6-.5h.7v1l-.6-.1c-.4 0-.7.1-.9.3s-.3.5-.3.9v.7h1.4v.8h-1.4V78h-1zM558.6 78l-.1-.7c-.5.6-1.1.8-1.8.8s-1.2-.2-1.6-.5-.6-.8-.6-1.4c0-.6.3-1.1.8-1.5s1.2-.5 2-.5h1.1v-.5c0-.4 0-.7-.3-1s-.6-.3-1-.3-.7.1-1 .3-.4.4-.4.7h-1c0-.3 0-.6.3-.9l.9-.7c.4-.2.8-.3 1.3-.3.7 0 1.3.2 1.7.6s.6.9.6 1.5v3l.2 1.3v.1h-1zm-1.8-.8c.4 0 .7-.1 1-.3l.6-.7V75h-.8c-1.3 0-2 .4-2 1.2 0 .3.1.6.3.8s.6.3 1 .3zM563.2 76.5l1.6-4.8h1.1l-2.3 6.3h-.8l-2.3-6.3h1.1l1.6 4.8zM566.6 74.8c0-.6.1-1.2.3-1.7s.6-.9 1-1.2 1-.4 1.6-.4c.8 0 1.5.3 2 1s.8 1.3.8 2.3v.1c0 .6 0 1.2-.3 1.7s-.6.8-1 1.1-1 .4-1.5.4c-.9 0-1.6-.3-2.1-.9s-.8-1.4-.8-2.4zm1 .1c0 .7.2 1.3.6 1.7s.7.6 1.3.6c.5 0 1-.2 1.3-.6s.5-1 .5-1.8c0-.7-.2-1.3-.5-1.7s-.8-.7-1.3-.7c-.6 0-1 .2-1.3.7s-.5 1-.5 1.8zM576.8 72.6h-.6c-.7 0-1.2.3-1.4.9V78h-1v-6.3h1v.7c.3-.6.8-.9 1.5-.9l.5.1v1zM577.8 70l.1-.5c.1-.2.3-.1.5-.1l.5.1.2.5-.2.4-.5.2c-.2 0-.4 0-.5-.2l-.1-.4zm1.1 8h-1v-6.3h1V78zM582.1 70.1v1.6h1.2v.8h-1.2v4l.2.5.5.2h.6v.8l-.9.1c-.5 0-.8-.1-1-.4s-.4-.7-.4-1.3v-3.9h-1.2v-.8h1.2V70h1zM587.2 78.1c-.8 0-1.5-.3-2-.8s-.9-1.3-.9-2.3v-.2c0-.6.1-1.2.4-1.7s.6-.9 1-1.1.9-.5 1.4-.5c.8 0 1.5.3 2 .9s.6 1.3.6 2.3v.4h-4.3c0 .7.2 1.2.6 1.6s.7.5 1.3.5c.4 0 .7 0 1-.2l.7-.6.6.5c-.5.8-1.3 1.2-2.4 1.2zm-.1-5.7c-.4 0-.8.2-1.1.5s-.5.8-.6 1.4h3.2v-.1c0-.6-.2-1-.4-1.3s-.7-.5-1.1-.5zM464.6 95.2c.4 0 .7 0 1-.3s.4-.5.5-.9h1c0 .4-.2.7-.4 1s-.5.6-1 .8-.7.3-1.1.3c-.9 0-1.6-.3-2-.8s-.9-1.4-.9-2.4v-.2c0-.6.2-1.2.4-1.6s.5-.9 1-1.2.9-.4 1.5-.4c.7 0 1.3.3 1.7.7s.8 1 .8 1.6h-1c0-.4-.2-.7-.5-1s-.6-.4-1-.4c-.6 0-1 .2-1.3.6s-.5 1-.5 1.7v.3c0 .7.2 1.2.5 1.6s.7.6 1.3.6zM468 92.8c0-.6.1-1.2.4-1.7s.6-.9 1-1.2 1-.4 1.5-.4c.9 0 1.6.3 2 1s.9 1.3.9 2.3v.1c0 .6-.1 1.2-.4 1.7s-.5.8-1 1.1-1 .4-1.5.4c-.8 0-1.5-.3-2-.9s-.9-1.4-.9-2.4zm1.1.1c0 .7.2 1.3.5 1.7s.8.6 1.3.6c.6 0 1-.2 1.3-.6s.5-1 .5-1.8c0-.7-.2-1.3-.5-1.7s-.8-.7-1.3-.7-1 .2-1.3.7-.5 1-.5 1.8zM476.2 89.7v.8c.5-.7 1.1-1 2-1 1.3 0 2 .8 2 2.3V96H479v-4.2c0-.5-.2-.8-.4-1s-.5-.3-1-.3c-.3 0-.6 0-.8.2l-.7.8V96h-1v-6.3h1zM483.2 88.1v1.6h1.2v.8h-1.2v4l.2.5.5.2h.6v.8l-.9.1c-.5 0-.8-.1-1-.4s-.4-.7-.4-1.3v-3.9H481v-.8h1.2V88h1zM489.6 96l-.1-.7c-.5.6-1.2.8-1.9.8-.6 0-1-.2-1.5-.5s-.6-.8-.6-1.4c0-.6.3-1.1.8-1.5s1.2-.5 2-.5h1.1v-.5c0-.4 0-.7-.3-1s-.6-.3-1-.3-.7.1-1 .3-.4.4-.4.7h-1c0-.3 0-.6.3-.9l.9-.7c.4-.2.8-.3 1.3-.3.7 0 1.3.2 1.7.6s.6.9.6 1.5v3c0 .5 0 1 .2 1.3v.1h-1zm-1.8-.8c.3 0 .7-.1 1-.3l.6-.7V93h-.8c-1.3 0-2 .4-2 1.2 0 .3.1.6.3.8s.6.3 1 .3zM492.2 88c0-.2 0-.3.2-.5s.3-.1.5-.1l.4.1.2.5c0 .2 0 .3-.2.4l-.4.2c-.2 0-.4 0-.5-.2l-.2-.4zm1.2 8h-1v-6.3h1V96zM496.2 89.7v.8c.5-.7 1.1-1 1.9-1 1.3 0 2 .8 2 2.3V96h-1v-4.2c0-.5-.2-.8-.4-1s-.5-.3-1-.3c-.3 0-.6 0-.9.2s-.4.5-.6.8V96h-1v-6.3h1zM504.4 96.1c-.9 0-1.6-.3-2.1-.8s-.8-1.3-.8-2.3v-.2c0-.6.1-1.2.3-1.7s.6-.9 1-1.1 1-.5 1.4-.5c.9 0 1.5.3 2 .9s.7 1.3.7 2.3v.4h-4.3c0 .7.2 1.2.5 1.6s.8.5 1.3.5c.4 0 .7 0 1-.2l.7-.6.7.5c-.6.8-1.4 1.2-2.4 1.2zm-.2-5.7c-.4 0-.8.2-1 .5s-.5.8-.6 1.4h3.2v-.1c0-.6-.2-1-.5-1.3s-.6-.5-1-.5zM511.2 90.6h-.6c-.7 0-1.2.3-1.4.9V96h-1v-6.3h1v.7c.3-.6.8-.9 1.5-.9l.5.1v1zM519 96l-.1-.7c-.5.6-1.1.8-1.8.8-.6 0-1.1-.2-1.5-.5s-.6-.8-.6-1.4c0-.6.2-1.1.7-1.5s1.2-.5 2.1-.5h1v-.5c0-.4 0-.7-.3-1s-.5-.3-1-.3c-.3 0-.7.1-1 .3s-.3.4-.3.7H515l.3-.9c.2-.3.6-.5 1-.7s.7-.3 1.2-.3c.7 0 1.3.2 1.7.6s.7.9.7 1.5v3c0 .5 0 1 .2 1.3v.1H519zm-1.7-.8l1-.3.6-.7V93h-.9c-1.3 0-2 .4-2 1.2 0 .3.2.6.4.8s.5.3.9.3zM527 92.9c0 1-.2 1.7-.6 2.3s-1 1-1.8 1-1.4-.3-1.8-.8v3h-1.1v-8.7h1v.7c.5-.6 1-.9 1.9-.9.7 0 1.3.3 1.8.9s.6 1.4.6 2.4v.1zm-1-.1c0-.7-.2-1.3-.5-1.7s-.7-.6-1.3-.6c-.6 0-1.1.3-1.4.8v3c.3.6.8 1 1.4 1 .6 0 1-.3 1.3-.7s.4-1 .4-1.8zM533.8 92.9c0 1-.3 1.7-.7 2.3s-1 1-1.8 1-1.4-.3-1.8-.8v3h-1.1v-8.7h1v.7c.5-.6 1.1-.9 1.9-.9.7 0 1.3.3 1.8.9s.7 1.4.7 2.4v.1zm-1.1-.1c0-.7-.2-1.3-.5-1.7s-.7-.6-1.2-.6c-.7 0-1.2.3-1.5.8v3c.3.6.8 1 1.5 1 .5 0 1-.3 1.2-.7s.5-1 .5-1.8zM536.3 96h-1v-9h1v9zM538 88l.2-.5c.1-.2.3-.1.5-.1l.5.1.1.5-.1.4-.5.2c-.2 0-.4 0-.5-.2l-.1-.4zm1.2 8h-1v-6.3h1V96zM543.5 95.2c.4 0 .7 0 1-.3s.5-.5.5-.9h1c0 .4-.1.7-.4 1s-.5.6-.9.8-.8.3-1.2.3c-.9 0-1.6-.3-2-.8s-.8-1.4-.8-2.4v-.2c0-.6 0-1.2.3-1.6s.6-.9 1-1.2 1-.4 1.5-.4c.7 0 1.3.3 1.8.7s.7 1 .7 1.6h-1c0-.4-.2-.7-.5-1s-.6-.4-1-.4c-.6 0-1 .2-1.3.6s-.4 1-.4 1.7v.3c0 .7.1 1.2.4 1.6s.7.6 1.3.6zM551.2 96c-.1-.1-.2-.3-.2-.7-.5.6-1.1.8-1.8.8-.6 0-1.1-.2-1.5-.5s-.6-.8-.6-1.4c0-.6.2-1.1.7-1.5s1.2-.5 2.1-.5h1v-.5c0-.4 0-.7-.3-1s-.5-.3-1-.3c-.3 0-.7.1-1 .3s-.3.4-.3.7h-1.1l.3-.9c.2-.3.6-.5 1-.7s.7-.3 1.2-.3c.7 0 1.3.2 1.7.6s.7.9.7 1.5v3c0 .5 0 1 .2 1.3v.1h-1.1zm-1.8-.8l1-.3.6-.7V93h-.9c-1.3 0-2 .4-2 1.2 0 .3.2.6.4.8s.5.3.9.3zM555.2 88.1v1.6h1.2v.8h-1.2v4c0 .2 0 .4.2.5l.5.2h.5v.8l-.8.1c-.5 0-.8-.1-1-.4s-.4-.7-.4-1.3v-3.9H553v-.8h1.2V88h1zM557.7 88c0-.2 0-.3.2-.5s.2-.1.4-.1l.5.1.2.5c0 .2 0 .3-.2.4l-.5.2c-.2 0-.3 0-.4-.2l-.2-.4zm1.2 8h-1.1v-6.3h1V96zM560.3 92.8c0-.6.1-1.2.4-1.7s.6-.9 1-1.2 1-.4 1.5-.4c.9 0 1.6.3 2 1s.9 1.3.9 2.3v.1c0 .6-.1 1.2-.4 1.7s-.5.8-1 1.1-1 .4-1.5.4c-.9 0-1.6-.3-2-.9s-.9-1.4-.9-2.4zm1.1.1c0 .7.2 1.3.5 1.7s.8.6 1.3.6c.6 0 1-.2 1.3-.6s.5-1 .5-1.8c0-.7-.2-1.3-.5-1.7s-.8-.7-1.3-.7-1 .2-1.3.7-.5 1-.5 1.8zM568.5 89.7v.8c.5-.7 1.1-1 1.9-1 1.3 0 2 .8 2 2.3V96h-1v-4.2c0-.5-.2-.8-.4-1s-.5-.3-1-.3c-.3 0-.6 0-.9.2s-.4.5-.6.8V96h-1v-6.3h1zM467.4 110.9c0 1-.2 1.7-.7 2.3s-1 1-1.8 1c-.7 0-1.3-.3-1.8-.8v3h-1v-8.7h1v.7c.4-.6 1-.9 1.8-.9s1.4.3 1.8 1 .7 1.3.7 2.3v.1zm-1.1-.1c0-.7-.2-1.3-.5-1.7s-.7-.6-1.2-.6c-.7 0-1.2.3-1.5.8v3c.3.6.8 1 1.5 1 .5 0 1-.3 1.2-.7s.5-1 .5-1.8zM470 114h-1.1v-9h1v9zM475.6 114l-.2-.7c-.5.6-1 .8-1.8.8-.6 0-1.1-.2-1.5-.5s-.6-.8-.6-1.4c0-.6.2-1.1.7-1.5s1.2-.5 2.2-.5h1v-.5c0-.4-.1-.7-.3-1s-.6-.3-1-.3-.7.1-1 .3-.4.4-.4.7h-1c0-.3 0-.6.3-.9l.9-.7 1.2-.3c.8 0 1.3.2 1.8.6s.6.9.6 1.5v3c0 .5 0 1 .2 1.3v.1h-1.1zm-1.8-.8l1-.3c.4-.2.5-.4.6-.7V111h-.8c-1.4 0-2 .4-2 1.2 0 .3 0 .6.3.8s.5.3.9.3zM479.7 106.1v1.6h1.2v.8h-1.2v4l.1.5.6.2h.5v.8l-.8.1c-.5 0-.9-.1-1.1-.4s-.4-.7-.4-1.3v-3.9h-1.2v-.8h1.2V106h1zM482.7 114v-5.5h-1v-.8h1v-.7c0-.7.1-1.2.5-1.6s.9-.5 1.5-.5h.8v1l-.7-.1c-.3 0-.6.1-.8.3s-.3.5-.3.9v.7h1.4v.8h-1.4v5.5h-1zM486 110.8c0-.6.1-1.2.4-1.7s.5-.9 1-1.2 1-.4 1.5-.4c.8 0 1.5.3 2 1s.9 1.3.9 2.3v.1c0 .6-.1 1.2-.4 1.7s-.6.8-1 1.1-1 .4-1.5.4c-.9 0-1.6-.3-2.1-.9s-.8-1.4-.8-2.4zm1 .1c0 .7.2 1.3.6 1.7s.7.6 1.3.6c.5 0 1-.2 1.3-.6s.5-1 .5-1.8c0-.7-.2-1.3-.5-1.7s-.8-.7-1.3-.7c-.6 0-1 .2-1.3.7s-.5 1-.5 1.8zM496.2 108.6h-.5c-.8 0-1.2.3-1.5.9v4.5h-1v-6.3h1v.7c.4-.6.9-.9 1.5-.9l.5.1v1zM498.2 107.7v.7c.5-.6 1.1-.9 2-.9.8 0 1.4.4 1.7 1a2.4 2.4 0 0 1 2-1c1.4 0 2.1.8 2.2 2.3v4.2H505v-4.2c0-.4-.1-.8-.3-1s-.6-.3-1-.3c-.5 0-.8 0-1 .3s-.5.6-.5 1v4.2H501v-4.2c0-.9-.5-1.3-1.4-1.3-.7 0-1.2.3-1.4.9v4.6h-1.1v-6.3h1z"/></g></g><g><g fill="#6E6E6E"><path d="M462.2 159.5V151h2.4a3.6 3.6 0 0 1 3.3 1.9c.3.6.5 1.3.5 2v.6c0 .8-.2 1.5-.5 2.1s-.8 1-1.3 1.4-1.3.5-2 .5h-2.4zm1.1-7.6v6.7h1.2c.9 0 1.5-.3 2-.8s.8-1.3.8-2.3v-.5c0-1-.3-1.8-.7-2.3-.5-.5-1.1-.8-2-.8h-1.3zM469.6 156.3c0-.7.1-1.2.4-1.7s.6-.9 1-1.2 1-.4 1.5-.4c.8 0 1.5.3 2 1s.9 1.3.9 2.3v.1c0 .6-.1 1.2-.4 1.7s-.5.8-1 1.1-1 .4-1.5.4c-.9 0-1.6-.3-2-.9s-.9-1.4-.9-2.4zm1.1.1c0 .7.2 1.3.5 1.7s.7.6 1.3.6c.5 0 1-.2 1.3-.6s.5-1 .5-1.8c0-.7-.2-1.3-.5-1.7s-.8-.7-1.3-.7c-.6 0-1 .2-1.3.7s-.5 1-.5 1.8zM482.4 158l1.2-4.8h1l-1.8 6.3h-.9l-1.5-4.8-1.5 4.8h-.9l-1.8-6.3h1l1.3 4.7 1.5-4.7h.8l1.6 4.8zM486.8 153.2v.8c.5-.7 1.1-1 2-1 1.3 0 2 .8 2 2.3v4.2h-1.1v-4.2c0-.5-.1-.8-.4-1s-.5-.3-1-.3c-.3 0-.6 0-.8.2l-.7.8v4.5h-1v-6.3h1zM493.6 159.5h-1.1v-9h1v9zM495 156.3c0-.7.1-1.2.4-1.7s.6-.9 1-1.2 1-.4 1.5-.4c.8 0 1.5.3 2 1s.9 1.3.9 2.3v.1c0 .6-.1 1.2-.4 1.7s-.6.8-1 1.1-1 .4-1.5.4c-.9 0-1.6-.3-2.1-.9s-.8-1.4-.8-2.4zm1 .1c0 .7.3 1.3.6 1.7s.7.6 1.3.6c.5 0 1-.2 1.3-.6s.5-1 .5-1.8c0-.7-.2-1.3-.5-1.7s-.8-.7-1.3-.7c-.6 0-1 .2-1.3.7s-.5 1-.5 1.8zM506 159.5l-.1-.7c-.5.6-1.1.8-1.8.8-.6 0-1.1-.2-1.5-.5s-.6-.8-.6-1.4c0-.6.2-1.1.7-1.5s1.2-.5 2.1-.5h1v-.5c0-.4 0-.7-.3-1s-.5-.3-1-.3c-.4 0-.7.1-1 .3s-.3.4-.3.7H502c0-.3 0-.6.3-.9l1-.7a3 3 0 0 1 1.2-.3c.7 0 1.3.2 1.7.6s.6.9.7 1.5v3c0 .5 0 1 .2 1.3v.1H506zm-1.8-.8c.4 0 .7-.1 1-.3l.7-.7v-1.3h-.9c-1.3 0-2 .4-2 1.2 0 .3.1.6.4.8s.5.3.8.3zM508.4 156.3c0-1 .2-1.8.7-2.4s1-.9 1.8-.9c.7 0 1.3.3 1.8.8v-3.3h1v9h-1v-.7c-.4.6-1 .8-1.8.8-.7 0-1.3-.3-1.8-.9s-.7-1.4-.7-2.3v-.1zm1 .1c0 .7.2 1.3.5 1.7s.7.6 1.3.6c.6 0 1.1-.3 1.5-1V155c-.4-.6-.9-1-1.5-1s-1 .3-1.3.7-.4 1-.4 1.8zM519.8 159.5h-1.1V151h1v8.5zM522.7 153.2v.8c.5-.7 1.1-1 2-1 1.3 0 2 .8 2 2.3v4.2h-1.1v-4.2c0-.5-.1-.8-.3-1s-.6-.3-1-.3-.7 0-1 .2-.4.5-.6.8v4.5h-1v-6.3h1zM532 157.8c0-.3-.1-.5-.4-.7l-1.1-.4c-.5 0-1-.2-1.3-.4l-.7-.6c-.1-.2-.3-.5-.3-.8 0-.5.3-1 .7-1.3s1-.6 1.7-.6 1.3.2 1.7.6.7.8.7 1.4h-1c0-.3-.2-.5-.5-.7s-.5-.4-1-.4c-.3 0-.6.1-.8.3s-.4.4-.4.7l.3.6c.2.2.6.2 1.2.3l1.3.5c.3.2.6.3.7.6l.3.8c0 .6-.3 1-.7 1.4s-1 .5-1.8.5c-.5 0-1 0-1.3-.3s-.7-.4-1-.7-.3-.7-.3-1h1.1c0 .3.2.6.4.8s.7.3 1.1.3c.4 0 .8 0 1-.2s.4-.4.4-.7zM536 151.6v1.6h1.1v.8H536v4l.2.5.5.2h.6v.8l-.9.1c-.5 0-.8-.1-1-.4s-.4-.7-.4-1.3V154h-1.2v-.8h1.2v-1.6h1zM542.3 159.5l-.1-.7c-.6.6-1.2.8-1.9.8-.6 0-1-.2-1.5-.5s-.6-.8-.6-1.4c0-.6.3-1.1.8-1.5s1.2-.5 2-.5h1.1v-.5c0-.4 0-.7-.3-1s-.6-.3-1-.3-.7.1-1 .3-.4.4-.4.7h-1c0-.3 0-.6.3-.9l.9-.7c.4-.2.8-.3 1.3-.3.7 0 1.3.2 1.7.6s.6.9.6 1.5v3c0 .5 0 1 .2 1.3v.1h-1zm-1.8-.8c.3 0 .7-.1 1-.3l.6-.7v-1.3h-.8c-1.3 0-2 .4-2 1.2 0 .3.1.6.3.8s.6.3 1 .3zM546.1 159.5h-1v-9h1v9zM549 159.5h-1v-9h1v9zM553.4 159.6c-.9 0-1.6-.3-2.1-.8s-.8-1.3-.8-2.3v-.2c0-.6 0-1.2.3-1.7s.6-.9 1-1.1 1-.5 1.4-.5c.9 0 1.5.3 2 .9s.6 1.3.6 2.3v.4h-4.2c0 .7.1 1.2.5 1.6s.8.5 1.3.5c.4 0 .7 0 1-.2l.7-.6.7.5c-.6.8-1.4 1.2-2.4 1.2zm-.2-5.7c-.4 0-.8.2-1 .5s-.5.8-.6 1.4h3.2v-.1c0-.6-.2-1-.5-1.3s-.6-.5-1-.5zM560.2 154.1h-.6c-.7 0-1.2.3-1.4.9v4.5H557v-6.3h1v.7c.4-.6 1-.9 1.6-.9l.5.1v1zM568 159.5l-.1-.7c-.5.6-1.1.8-1.8.8-.6 0-1.1-.2-1.5-.5s-.6-.8-.6-1.4c0-.6.2-1.1.7-1.5s1.2-.5 2.1-.5h1v-.5c0-.4 0-.7-.3-1s-.5-.3-1-.3c-.4 0-.7.1-1 .3s-.3.4-.3.7H564c0-.3 0-.6.3-.9l1-.7a3 3 0 0 1 1.2-.3c.7 0 1.3.2 1.7.6s.6.9.7 1.5v3c0 .5 0 1 .2 1.3v.1H568zm-1.8-.8c.4 0 .7-.1 1-.3l.7-.7v-1.3h-.9c-1.3 0-2 .4-2 1.2 0 .3.1.6.4.8s.5.3.8.3zM571.7 153.2v.8c.5-.7 1.1-1 2-1 1.3 0 2 .8 2 2.3v4.2h-1.1v-4.2c0-.5-.1-.8-.4-1s-.5-.3-1-.3c-.3 0-.6 0-.8.2l-.7.8v4.5h-1v-6.3h1zM577 156.3c0-1 .2-1.8.7-2.4s1-.9 1.8-.9 1.3.3 1.8.8v-3.3h1v9h-1v-.7c-.4.6-1 .8-1.8.8-.7 0-1.3-.3-1.8-.9s-.7-1.4-.7-2.3v-.1zm1.1.1c0 .7.1 1.3.4 1.7s.8.6 1.3.6c.7 0 1.2-.3 1.5-1V155c-.3-.6-.8-1-1.5-1-.5 0-1 .3-1.3.7s-.4 1-.4 1.8zM465.7 175.8c0-.3 0-.5-.3-.7l-1.2-.4c-.6 0-1-.2-1.3-.4l-.7-.6c-.2-.2-.2-.5-.2-.8 0-.5.2-1 .6-1.3s1-.6 1.7-.6 1.3.2 1.8.6.6.8.6 1.4h-1c0-.3-.2-.5-.4-.7s-.6-.4-1-.4-.7.1-.9.3-.3.4-.3.7c0 .2 0 .4.3.6l1.1.3 1.3.5c.3.2.6.3.8.6s.2.5.2.8c0 .6-.2 1-.7 1.4s-1 .5-1.7.5c-.5 0-1 0-1.4-.3s-.7-.4-1-.7-.2-.7-.2-1h1c0 .3.2.6.5.8s.6.3 1 .3c.5 0 .8 0 1-.2s.4-.4.4-.7zM470.8 177.6c-.8 0-1.5-.3-2-.8s-.9-1.3-.9-2.3v-.2c0-.6.2-1.2.4-1.7s.6-.9 1-1.1.9-.5 1.4-.5c.8 0 1.5.3 2 .9s.6 1.3.6 2.3v.4H469c0 .7.2 1.2.6 1.6s.8.5 1.3.5c.4 0 .7 0 1-.2l.7-.6.6.5c-.5.8-1.3 1.2-2.4 1.2zm0-5.7c-.5 0-.9.2-1.2.5s-.5.8-.5 1.4h3.1v-.1c0-.6-.1-1-.4-1.3s-.6-.5-1-.5zM476 169.6v1.6h1.2v.8H476v4c0 .2 0 .4.2.5l.5.2h.6v.8l-.9.1c-.5 0-.8-.1-1-.4s-.4-.7-.4-1.3V172h-1.2v-.8h1.2v-1.6h1zM482.4 176.9c-.4.5-1 .7-1.9.7-.6 0-1.1-.2-1.5-.6s-.5-1-.5-1.7v-4.1h1v4c0 1 .4 1.5 1.2 1.5.9 0 1.4-.3 1.7-1v-4.5h1v6.3h-1v-.6zM490.5 174.4c0 1-.3 1.7-.7 2.3s-1 1-1.8 1-1.4-.3-1.8-.8v3h-1v-8.7h.9v.7c.5-.6 1.1-.9 1.9-.9.8 0 1.4.3 1.8 1s.7 1.3.7 2.3v.1zm-1.1-.1c0-.7-.2-1.3-.5-1.7s-.7-.6-1.2-.6c-.7 0-1.2.3-1.5.8v3c.3.6.8 1 1.5 1 .5 0 1-.3 1.2-.7s.5-1 .5-1.8zM496.3 169.6v1.6h1.2v.8h-1.2v4l.1.5.6.2h.5v.8l-.8.1c-.5 0-.9-.1-1.1-.4s-.4-.7-.4-1.3V172H494v-.8h1.2v-1.6h1zM499.8 172c.5-.7 1.1-1 1.9-1 1.3 0 2 .8 2 2.3v4.2h-1v-4.2c0-.5-.2-.8-.4-1s-.5-.3-1-.3c-.3 0-.6 0-.9.2s-.4.5-.6.8v4.5h-1v-9h1v3.4zM508 177.6c-.9 0-1.6-.3-2.1-.8s-.8-1.3-.8-2.3v-.2c0-.6 0-1.2.3-1.7s.6-.9 1-1.1 1-.5 1.4-.5c.9 0 1.5.3 2 .9s.6 1.3.6 2.3v.4h-4.3c0 .7.2 1.2.6 1.6s.8.5 1.3.5c.4 0 .7 0 1-.2l.7-.6.7.5c-.6.8-1.4 1.2-2.4 1.2zm-.2-5.7c-.4 0-.8.2-1 .5s-.5.8-.6 1.4h3.2v-.1c0-.6-.2-1-.5-1.3s-.6-.5-1-.5zM517.3 177.6c-.9 0-1.6-.3-2.1-.8s-.8-1.3-.8-2.3v-.2c0-.6.1-1.2.4-1.7s.5-.9 1-1.1.9-.5 1.4-.5c.8 0 1.4.3 1.9.9s.7 1.3.7 2.3v.4h-4.3c0 .7.2 1.2.5 1.6s.8.5 1.4.5c.3 0 .7 0 1-.2l.6-.6.7.5c-.5.8-1.3 1.2-2.4 1.2zm-.1-5.7c-.5 0-.8.2-1.1.5s-.5.8-.6 1.4h3.2v-.1c0-.6-.2-1-.5-1.3s-.6-.5-1-.5zM522 171.2v.8c.6-.7 1.2-1 2-1 1.3 0 2 .8 2 2.3v4.2h-1v-4.2c0-.5-.2-.8-.4-1s-.5-.3-1-.3c-.3 0-.6 0-.9.2s-.4.5-.6.8v4.5h-1v-6.3h1zM529.7 176l1.6-4.8h1.1l-2.3 6.3h-.8l-2.3-6.3h1.1l1.6 4.8zM533.5 169.5l.1-.5c.1-.2.3-.1.5-.1l.5.1.1.5-.1.4-.5.2c-.2 0-.4 0-.5-.2l-.1-.4zm1.1 8h-1v-6.3h1v6.3zM539.4 172.1h-.5c-.7 0-1.2.3-1.4.9v4.5h-1.1v-6.3h1v.7c.4-.6.9-.9 1.6-.9l.4.1v1zM540 174.3c0-.7.1-1.2.4-1.7s.6-.9 1-1.2 1-.4 1.5-.4c.9 0 1.6.3 2.1 1s.8 1.3.8 2.3v.1c0 .6-.1 1.2-.4 1.7s-.5.8-1 1.1-1 .4-1.5.4c-.8 0-1.5-.3-2-.9s-.9-1.4-.9-2.4zm1.1.1c0 .7.2 1.3.5 1.7s.8.6 1.3.6c.6 0 1-.2 1.3-.6s.5-1 .5-1.8c0-.7-.2-1.3-.5-1.7s-.8-.7-1.3-.7-1 .2-1.3.7-.5 1-.5 1.8zM548.2 171.2v.8c.5-.7 1.1-1 2-1 1.3 0 2 .8 2 2.3v4.2H551v-4.2c0-.5-.1-.8-.4-1s-.5-.3-1-.3c-.3 0-.6 0-.8.2l-.7.8v4.5h-1v-6.3h1zM554.8 171.2v.7c.5-.6 1.1-.9 2-.9.8 0 1.4.4 1.7 1a2.4 2.4 0 0 1 2-1c1.4 0 2.1.8 2.2 2.3v4.2h-1.1v-4.2c0-.4-.1-.8-.3-1s-.6-.3-1-.3c-.5 0-.8 0-1 .3s-.5.6-.5 1v4.2h-1.1v-4.2c0-.9-.5-1.3-1.4-1.3-.7 0-1.2.3-1.4.9v4.6h-1.1v-6.3h1zM567 177.6c-1 0-1.6-.3-2.2-.8s-.8-1.3-.8-2.3v-.2c0-.6.1-1.2.4-1.7s.6-.9 1-1.1.9-.5 1.4-.5c.8 0 1.5.3 2 .9s.6 1.3.6 2.3v.4h-4.3c0 .7.2 1.2.6 1.6s.7.5 1.3.5c.4 0 .7 0 1-.2l.7-.6.6.5c-.5.8-1.3 1.2-2.4 1.2zm-.2-5.7c-.4 0-.8.2-1.1.5s-.5.8-.6 1.4h3.2v-.1c0-.6-.2-1-.4-1.3s-.7-.5-1.1-.5zM571.7 171.2v.8c.5-.7 1.1-1 2-1 1.3 0 2 .8 2 2.3v4.2h-1.1v-4.2c0-.5-.2-.8-.4-1s-.5-.3-1-.3c-.3 0-.6 0-.8.2l-.7.8v4.5h-1v-6.3h1zM578.7 169.6v1.6h1.2v.8h-1.2v4l.2.5.5.2h.6v.8l-.9.1c-.5 0-.8-.1-1-.4s-.4-.7-.4-1.3V172h-1.2v-.8h1.2v-1.6h1z"/></g></g><g><g fill="#6E6E6E"><path d="M465.3 224.7h-2v3.5h-1.1v-8.6h2.8c1 0 1.7.2 2.2.7s.8 1 .8 1.9c0 .5-.1 1-.4 1.4s-.7.7-1.2.9l2 3.6h-1.2l-1.9-3.4zm-2-1h1.8c.5 0 1 0 1.3-.4.3-.2.5-.6.5-1.1 0-.5-.2-1-.5-1.2-.3-.3-.8-.5-1.4-.5h-1.7v3.3zM473.3 227.5c-.4.5-1 .8-1.8.8-.7 0-1.2-.2-1.6-.6s-.5-1-.5-1.8v-4h1v4c0 1 .5 1.4 1.2 1.4.9 0 1.4-.3 1.7-.9v-4.6h1v6.4h-1v-.7zM477 221.8v.8c.6-.6 1.2-.9 2-.9 1.3 0 2 .8 2 2.3v4.2h-1V224c0-.5-.2-.8-.4-1s-.5-.4-1-.4l-.9.3-.6.7v4.6h-1v-6.4h1zM487.7 226.6l1.5-4.8h1.1l-2.5 7.3c-.4 1-1 1.6-1.9 1.6H485.3v-1h.3c.4 0 .6 0 .8-.2l.6-.8.2-.6-2.3-6.3h1.2l1.6 4.8zM491 225c0-.7 0-1.3.3-1.8s.6-.8 1-1.1 1-.4 1.5-.4c.9 0 1.6.3 2.1.9s.8 1.4.8 2.4c0 .7-.1 1.2-.4 1.7s-.5.9-1 1.2-1 .4-1.5.4c-.8 0-1.5-.3-2-1s-.9-1.3-.9-2.3zm1 0c0 .8.2 1.3.5 1.7s.8.7 1.3.7c.6 0 1-.2 1.3-.7s.5-1 .5-1.8c0-.7-.2-1.2-.5-1.7s-.8-.6-1.3-.6-1 .2-1.3.6-.5 1-.5 1.9zM502 227.5c-.5.5-1 .8-1.9.8-.7 0-1.2-.2-1.5-.6s-.6-1-.6-1.8v-4h1.1v4c0 1 .4 1.4 1.2 1.4.8 0 1.4-.3 1.6-.9v-4.6h1.1v6.4h-1v-.7zM507.7 222.8h-.5c-.7 0-1.2.2-1.4.9v4.5h-1.1v-6.4h1v.7c.4-.5.9-.8 1.6-.8h.4v1zM515.4 226.5c0-.3-.1-.6-.3-.7l-1.2-.4c-.6-.1-1-.3-1.3-.5l-.7-.5-.2-.8c0-.6.2-1 .6-1.4s1-.5 1.7-.5 1.3.2 1.7.6.7.8.7 1.4h-1c0-.3-.2-.6-.4-.8s-.6-.3-1-.3-.7 0-1 .2-.3.4-.3.7c0 .3.1.5.4.6l1 .4c.6 0 1 .3 1.4.4s.6.4.7.6l.3.9c0 .6-.2 1-.7 1.4s-1 .5-1.8.5c-.5 0-1-.1-1.3-.3s-.7-.4-1-.8-.3-.6-.3-1h1.1c0 .4.2.7.5.9s.6.3 1 .3.8-.1 1-.3.4-.4.4-.6zM520.5 228.3c-.8 0-1.5-.3-2-.9s-.9-1.3-.9-2.2v-.2c0-.7.1-1.2.4-1.7s.6-1 1-1.2.9-.4 1.4-.4c.8 0 1.5.3 2 .8s.6 1.3.6 2.3v.5h-4.3c0 .6.2 1.1.5 1.5s.8.6 1.4.6c.4 0 .7-.1 1-.3l.6-.6.7.5c-.5.9-1.3 1.3-2.4 1.3zm-.1-5.7c-.5 0-.8.1-1.1.5s-.5.7-.6 1.3h3.2c0-.6-.2-1-.4-1.4s-.7-.4-1.1-.4zM527.3 222.8h-.5c-.7 0-1.2.2-1.5.9v4.5h-1v-6.4h1v.7c.4-.5.9-.8 1.5-.8h.5v1zM530.5 226.7l1.6-4.9h1l-2.2 6.4h-.8l-2.3-6.4h1l1.7 4.9zM534.2 220.1c0-.1 0-.3.2-.4l.5-.2c.2 0 .3 0 .4.2l.2.4c0 .1 0 .4-.2.5l-.4.1-.5-.1a.6.6 0 0 1-.2-.5zm1.2 8h-1v-6.3h1v6.4zM539.7 227.4c.4 0 .7-.1 1-.4s.4-.5.5-.8h1c0 .3-.1.7-.4 1s-.5.6-.9.8-.8.3-1.2.3c-.9 0-1.6-.3-2-.9s-.8-1.4-.8-2.4v-.1c0-.7 0-1.2.3-1.7s.5-.8 1-1.1.9-.4 1.5-.4c.7 0 1.3.2 1.7.6s.8 1 .8 1.7h-1c0-.4-.2-.8-.5-1s-.6-.4-1-.4c-.6 0-1 .2-1.3.6s-.5 1-.5 1.7v.2c0 .7.2 1.3.5 1.7s.7.6 1.3.6zM546 228.3c-.8 0-1.5-.3-2-.9s-.9-1.3-.9-2.2v-.2c0-.7.2-1.2.4-1.7s.6-1 1-1.2 1-.4 1.4-.4c.8 0 1.5.3 2 .8s.6 1.3.6 2.3v.5h-4.3c0 .6.2 1.1.6 1.5s.8.6 1.3.6c.4 0 .7-.1 1-.3l.7-.6.6.5c-.5.9-1.3 1.3-2.4 1.3zm0-5.7c-.5 0-.9.1-1.2.5s-.5.7-.5 1.3h3.1c0-.6-.1-1-.4-1.4s-.6-.4-1-.4zM558.4 226.7l1.2-4.9h1l-1.8 6.4h-.9l-1.5-4.9-1.5 4.9h-.9l-1.8-6.4h1l1.3 4.8 1.5-4.8h.9l1.5 4.9zM561.8 220.1l.1-.4.5-.2c.2 0 .4 0 .5.2l.2.4-.2.5-.5.1-.5-.1a.6.6 0 0 1-.1-.5zm1.1 8h-1v-6.3h1v6.4zM566.1 220.3v1.5h1.2v.8h-1.2v4l.2.6c.1.2.3.1.5.1h.6v.9h-.9c-.5 0-.8 0-1-.4s-.4-.7-.4-1.2v-4h-1.2v-.8h1.2v-1.5h1zM569.7 222.6c.5-.6 1-1 1.9-1 1.3 0 2 .9 2 2.4v4.2h-1.1V224c0-.5-.1-.8-.3-1s-.5-.4-1-.4l-.9.3c-.3.2-.5.4-.6.7v4.6h-1.1v-9h1v3.4zM579.3 221.8v7c0 1.3-.6 2-1.7 2a2 2 0 0 1-.6-.2v-.9h.5l.5-.1.2-.7v-7h1.1zm-1.2-1.7c0-.1 0-.3.2-.4l.4-.2c.2 0 .4 0 .5.2l.2.4c0 .1 0 .4-.2.5l-.5.1-.4-.1a.6.6 0 0 1-.2-.5zM585 228.2l-.2-.7c-.5.5-1.1.8-1.8.8-.6 0-1.1-.2-1.5-.6s-.6-.8-.6-1.3c0-.7.2-1.2.7-1.5s1.2-.6 2.1-.6h1v-.5c0-.4 0-.7-.3-.9s-.5-.3-1-.3c-.3 0-.7 0-1 .3s-.3.4-.3.7H581c0-.3.1-.7.3-1s.6-.5 1-.6l1.2-.3c.7 0 1.3.2 1.7.5s.7 1 .7 1.6v2.9c0 .6 0 1 .2 1.4H585zm-1.8-.9c.3 0 .6 0 1-.2s.4-.4.6-.7V225h-.9c-1.3 0-2 .4-2 1.1 0 .4.2.6.4.8s.5.3.9.3zM589.6 226.7l1.5-4.9h1.2l-2.3 6.4h-.8l-2.3-6.4h1l1.7 4.9zM597.1 228.2l-.1-.7c-.5.5-1.1.8-1.8.8s-1.2-.2-1.6-.6-.6-.8-.6-1.3c0-.7.3-1.2.8-1.5s1.2-.6 2.1-.6h1v-.5c0-.4 0-.7-.3-.9s-.6-.3-1-.3-.7 0-1 .3-.4.4-.4.7h-1c0-.3 0-.7.3-1l.9-.6c.4-.1.8-.3 1.3-.3.7 0 1.3.2 1.7.5s.6 1 .6 1.6v2.9c0 .6.1 1 .3 1.4H597zm-1.8-.9c.4 0 .7 0 1-.2l.7-.7V225h-.9c-1.3 0-2 .4-2 1.1 0 .4.1.6.3.8s.6.3 1 .3z"/></g></g><g><path fill="none" stroke="#999" stroke-width="12" stroke-miterlimit="10" d="M406.9 190.4h19.9"/><path fill="#999" d="M424.8 175.8V205l14.6-14.6z"/></g><g><path fill="none" stroke="#999" stroke-width="12" stroke-miterlimit="10" d="M627.8 190.4h19.9"/><path fill="#999" d="M645.7 175.8V205l14.6-14.6z"/></g><path fill="none" stroke="#FF7300" d="M681.7 264.9h152.2"/><g><path fill="#FFF" d="M490 281l10.6 5.4 2.5 11-8 9.5h-12L475 297l3.6-11.7z"/><g fill="#3F85EB"><path d="M486 294c.2-.3.2-.6 0-.8l-2.6-2.3a6.4 6.4 0 0 0-1 4.2l3.3-1 .4-.1zM486.3 296.1l-3.4.6a6.5 6.5 0 0 0 2.6 3.3l1.3-3v-.4c0-.3-.3-.6-.5-.5zM487.6 291.7c.3 0 .5-.2.5-.6l.2-3.4c-.2 0-.5 0-.7.2-1.2.2-2.3.8-3.2 1.7l2.8 2 .4.1zM490.3 291.5c.2.2.5.2.7.1l2.8-2c-1-1-2.4-1.7-3.8-1.8l.2 3.4.1.3zM488.2 295.2l1 .4.9-.4.2-1-.6-.7h-1l-.7.7z"/><path d="M505.1 297l-2.6-11.6c-.2-.8-.7-1.4-1.4-1.8l-10.8-5.1c-.3-.2-.7-.2-1.1-.2-.4 0-.8 0-1.1.2l-10.8 5.2c-.7.3-1.2 1-1.4 1.7l-2.6 11.6c-.2.8 0 1.5.4 2.2l7.5 9.3c.5.6 1.2 1 2 1h12c.8 0 1.5-.5 2-1l7.5-9.3c.4-.7.6-1.5.4-2.3zm-5.2.4h-.4l-.4-.2h-.1c-.4 0-.8 0-1.2-.6-.2 0-.2.2-.3.2v.1h-.3c-.2.7-.5 1.4-.9 2-.7 1-1.7 2-2.8 2.6l.1.2v.4c0 .3.6.7.6 1v.2l.3.3v.8l-.3.4h-.2c-.2 0-.5-.1-.6-.4s-.1-.1-.1-.1l-.2-.4c0-.1.5-.2-.1-.2a2 2 0 0 0-.4-1c-.1-.2-.2-.2-.3-.2v-.2l-1.2.3c-.5.2-1.2.2-1.8.2-1 0-2.1-.1-3-.5l-.2.2-.3.2-.5 1v.2l-.2.4v.1c-.2.3-.5.4-.7.4h-.3c-.3-.2-.4-.6-.2-1 .2-.2 0-.3.2-.4v-.2c.5-.4.5-.7.7-1v-.3-.1l.1-.2-.8-.7a8.9 8.9 0 0 1-2.8-4l-.4.1v-.2l-.3-.2c-.3.6-.7.6-1.1.6h-.2l-.4.2h-.1-.1-.2c-.3 0-.6-.2-.7-.5 0-.3.2-.7.6-.8H479l.3-.1 1-.1.3-.2h.3c-.3-2 .1-4 1.2-5.7l.2-.1v-.5l-.2-.3-1-.7h-.3l-.4-.3h-.1c-.4-.3-.5-.8-.2-1 0-.2.3-.3.4-.3l.5.2h.1v.1c.2.1.2.2.3.4l.2.1c.3.3.5.6.9.8l.1.3.2.1h.2c1.1-1.2 2.6-2 4.3-2.5l1-.2v-.3l.2-.1.2-.3v-1.1-.3-.6-.5l.6-.2c.4 0 .6.3.6.7V284.4l-.2 1V286c1.7.2 3.3.8 4.5 1.8.4.2.6.6 1 1h.2l.2-.2s.2 0 .2-.2l.8-.8.2-.1.2-.3.1-.1h.1c.2-.2.3-.3.5-.3.1 0 .4.1.5.3.2.2.1.7-.2 1l-.2.1-.4.2-.1.1-.8.7v.3l-.3.2a8.6 8.6 0 0 1 1.2 5.9h.2v.1l.2.2h1.2l.2.2.4.1h.2v-.1c.4.5.7.6.7.8 0 .2-.3.6-.6.6z"/><path d="M489.4 297.6c-.3-.2-.5-.1-.8.1l-1.7 3c.8.3 1.5.4 2.2.4l1.5-.2.7-.1-1.6-3c-.1-.2-.2-.2-.3-.2zM494.9 291l-2.6 2.2-.1.3c-.1.3 0 .5.4.7l3.2 1c.1-.8 0-1.5-.1-2.2a7 7 0 0 0-.8-2zM491.8 296.1c-.3.2-.4.4-.4.7l1.4 3.2c.8-.6 1.5-1.2 2-2.1.3-.4.6-.8.7-1.3l-3.4-.6-.3.1z"/></g></g></svg>