<?xml version="1.0" encoding="utf-8"?>
<!-- Generator: Adobe Illustrator 16.0.0, SVG Export Plug-In . SVG Version: 6.00 Build 0)  -->
<!DOCTYPE svg PUBLIC "-//W3C//DTD SVG 1.1//EN" "http://www.w3.org/Graphics/SVG/1.1/DTD/svg11.dtd">
<svg version="1.1" id="Layer_1" xmlns="http://www.w3.org/2000/svg" xmlns:xlink="http://www.w3.org/1999/xlink" x="0px" y="0px"
	 width="756.15px" height="183.295px" viewBox="0 0 756.15 183.295" enable-background="new 0 0 756.15 183.295"
	 xml:space="preserve">
<g>
	<g>
		<g>
			<g>
				<g>
					
						<line fill="none" stroke="#585A5E" stroke-width="1.1" stroke-miterlimit="10" x1="117.769" y1="84.572" x2="207.874" y2="84.572"/>
					<g>
						<polygon fill="#585A5E" points="207.055,87.37 211.899,84.572 207.055,81.775 						"/>
					</g>
				</g>
			</g>
			<g>
				<g>
					
						<line fill="none" stroke="#585A5E" stroke-width="1.1" stroke-miterlimit="10" x1="211.899" y1="94.071" x2="121.794" y2="94.071"/>
					<g>
						<polygon fill="#585A5E" points="122.613,91.275 117.769,94.071 122.613,96.87 						"/>
					</g>
				</g>
			</g>
		</g>
		<g>
			<g>
				<g>
					
						<line fill="none" stroke="#585A5E" stroke-width="1.1" stroke-miterlimit="10" x1="412.288" y1="84.572" x2="502.395" y2="84.572"/>
					<g>
						<polygon fill="#585A5E" points="501.575,87.37 506.42,84.572 501.575,81.775 						"/>
					</g>
				</g>
			</g>
			<g>
				<g>
					
						<line fill="none" stroke="#585A5E" stroke-width="1.1" stroke-miterlimit="10" x1="506.42" y1="94.071" x2="416.314" y2="94.071"/>
					<g>
						<polygon fill="#585A5E" points="417.133,91.275 412.288,94.071 417.133,96.87 						"/>
					</g>
				</g>
			</g>
		</g>
		<g>
			<g>
				<path fill="#585A5E" d="M146.034,75.173h-0.963v3.237h-1.352v-7.982h3.081c0.841,0,1.504,0.206,1.989,0.618
					c0.484,0.412,0.728,1.003,0.728,1.774c0,0.659-0.18,1.181-0.54,1.566c-0.359,0.386-0.859,0.63-1.501,0.734l2.314,3.289h-1.534
					L146.034,75.173z M145.072,71.598v2.444h1.703c0.442,0,0.787-0.11,1.034-0.332c0.247-0.221,0.37-0.518,0.37-0.89
					s-0.123-0.669-0.37-0.891c-0.247-0.222-0.592-0.332-1.034-0.332L145.072,71.598L145.072,71.598z"/>
				<path fill="#585A5E" d="M154.419,76.616h1.196c-0.104,0.589-0.366,1.058-0.787,1.404c-0.42,0.347-0.969,0.52-1.646,0.52
					c-0.806,0-1.462-0.277-1.969-0.832c-0.507-0.554-0.761-1.278-0.761-2.171c0-0.867,0.256-1.588,0.767-2.165
					c0.511-0.576,1.157-0.864,1.938-0.864c0.797,0,1.414,0.258,1.853,0.773c0.438,0.515,0.657,1.207,0.657,2.073v0.468h-3.939
					c0.019,0.502,0.158,0.899,0.423,1.189c0.265,0.291,0.609,0.436,1.033,0.436C153.868,77.448,154.28,77.171,154.419,76.616z
					 M153.171,73.6c-0.364,0-0.669,0.11-0.917,0.332c-0.248,0.222-0.41,0.535-0.488,0.942h2.613
					c-0.009-0.373-0.117-0.678-0.325-0.917C153.847,73.719,153.552,73.6,153.171,73.6z"/>
				<path fill="#585A5E" d="M160.606,80.62v-2.704c-0.139,0.174-0.342,0.321-0.61,0.442c-0.27,0.121-0.556,0.182-0.858,0.182
					c-0.815,0-1.465-0.292-1.95-0.877c-0.484-0.585-0.728-1.298-0.728-2.139c0-0.84,0.243-1.553,0.728-2.138
					c0.485-0.585,1.135-0.877,1.95-0.877c0.303,0,0.589,0.061,0.858,0.182c0.269,0.122,0.472,0.269,0.61,0.442v-0.494h1.3v7.982
					L160.606,80.62L160.606,80.62z M160.606,76.616v-2.184c-0.111-0.225-0.281-0.41-0.507-0.552
					c-0.226-0.143-0.473-0.215-0.741-0.215c-0.494,0-0.884,0.174-1.17,0.52c-0.286,0.347-0.429,0.793-0.429,1.339
					s0.143,0.993,0.429,1.339c0.286,0.347,0.676,0.52,1.17,0.52c0.27,0,0.517-0.072,0.741-0.215
					C160.325,77.026,160.494,76.842,160.606,76.616z"/>
				<path fill="#585A5E" d="M168.315,72.638v5.772h-1.3v-0.546c-0.39,0.451-0.906,0.676-1.547,0.676s-1.14-0.195-1.495-0.585
					c-0.354-0.39-0.533-0.91-0.533-1.56v-3.757h1.301v3.536c0,0.789,0.359,1.183,1.078,1.183c0.286,0,0.54-0.084,0.762-0.253
					c0.221-0.169,0.365-0.392,0.436-0.669v-3.796L168.315,72.638L168.315,72.638z"/>
				<path fill="#585A5E" d="M173.49,76.616h1.195c-0.104,0.589-0.366,1.058-0.787,1.404c-0.42,0.347-0.968,0.52-1.645,0.52
					c-0.807,0-1.462-0.277-1.969-0.832c-0.508-0.554-0.762-1.278-0.762-2.171c0-0.867,0.256-1.588,0.768-2.165
					c0.511-0.576,1.156-0.864,1.937-0.864c0.797,0,1.415,0.258,1.854,0.773c0.438,0.515,0.656,1.207,0.656,2.073v0.468h-3.938
					c0.018,0.502,0.158,0.899,0.423,1.189c0.264,0.291,0.609,0.436,1.033,0.436C172.939,77.448,173.351,77.171,173.49,76.616z
					 M172.242,73.6c-0.364,0-0.67,0.11-0.917,0.332c-0.248,0.222-0.41,0.535-0.488,0.942h2.613c-0.01-0.373-0.117-0.678-0.325-0.917
					C172.917,73.719,172.623,73.6,172.242,73.6z"/>
				<path fill="#585A5E" d="M175.53,76.746h1.326c0.147,0.485,0.528,0.728,1.145,0.728c0.303,0,0.544-0.059,0.722-0.175
					c0.177-0.117,0.266-0.288,0.266-0.514c0-0.156-0.052-0.279-0.155-0.371c-0.104-0.091-0.277-0.167-0.521-0.228l-1.195-0.286
					c-0.953-0.226-1.431-0.754-1.431-1.586c0-0.52,0.206-0.951,0.617-1.293c0.412-0.342,0.934-0.513,1.567-0.513
					c0.657,0,1.183,0.149,1.572,0.448c0.391,0.299,0.638,0.717,0.741,1.254h-1.273c-0.131-0.424-0.481-0.637-1.054-0.637
					c-0.251,0-0.468,0.057-0.649,0.169c-0.183,0.113-0.273,0.277-0.273,0.494c0,0.251,0.199,0.429,0.599,0.533l1.222,0.286
					c0.988,0.234,1.481,0.78,1.481,1.638c0,0.563-0.21,1.012-0.63,1.345c-0.42,0.334-0.96,0.5-1.619,0.5
					c-0.676,0-1.232-0.16-1.67-0.481C175.879,77.739,175.617,77.301,175.53,76.746z"/>
				<path fill="#585A5E" d="M181.809,76.85v-3.133h-0.91v-1.079h0.91v-1.547h1.3v1.547h1.301v1.079h-1.301v2.99
					c0,0.451,0.23,0.676,0.689,0.676c0.277,0,0.523-0.078,0.741-0.234v1.183c-0.234,0.139-0.56,0.208-0.976,0.208
					c-0.537,0-0.964-0.143-1.279-0.429C181.967,77.825,181.809,77.405,181.809,76.85z"/>
			</g>
		</g>
		<g>
			<g>
				<path fill="#585A5E" d="M153.171,62.324h-0.962v3.237h-1.353v-7.982h3.081c0.841,0,1.504,0.206,1.989,0.618
					c0.485,0.412,0.728,1.003,0.728,1.774c0,0.659-0.18,1.181-0.54,1.566c-0.359,0.386-0.859,0.63-1.501,0.734l2.314,3.289h-1.534
					L153.171,62.324z M152.208,58.749v2.444h1.703c0.441,0,0.786-0.11,1.033-0.332c0.247-0.221,0.37-0.518,0.37-0.89
					s-0.123-0.669-0.37-0.891s-0.592-0.332-1.033-0.332L152.208,58.749L152.208,58.749z"/>
				<path fill="#585A5E" d="M158.071,57.579h5.214v1.196h-3.888v2.106h3.523v1.183h-3.523v2.288h3.888v1.209h-5.214V57.579z"/>
				<path fill="#585A5E" d="M164.129,63.351h1.378c0.251,0.797,0.854,1.196,1.807,1.196c0.469,0,0.844-0.106,1.125-0.318
					c0.282-0.212,0.423-0.5,0.423-0.864c0-0.286-0.089-0.514-0.267-0.683s-0.475-0.301-0.891-0.396l-1.353-0.325
					c-1.326-0.312-1.989-1.027-1.989-2.145c0-0.685,0.254-1.25,0.761-1.696c0.507-0.446,1.159-0.669,1.957-0.669
					c0.841,0,1.519,0.197,2.035,0.591c0.516,0.395,0.847,0.934,0.994,1.619h-1.352c-0.251-0.71-0.806-1.066-1.664-1.066
					c-0.434,0-0.782,0.102-1.046,0.305c-0.265,0.204-0.397,0.47-0.397,0.8c0,0.528,0.352,0.875,1.054,1.04l1.391,0.325
					c0.65,0.147,1.157,0.408,1.521,0.78c0.363,0.373,0.546,0.849,0.546,1.43c0,0.737-0.266,1.324-0.793,1.762
					c-0.529,0.438-1.214,0.656-2.055,0.656c-0.849,0-1.558-0.206-2.125-0.617C164.622,64.662,164.268,64.087,164.129,63.351z"/>
				<path fill="#585A5E" d="M170.876,58.774v-1.196h6.656v1.196h-2.652v6.786h-1.353v-6.786H170.876z"/>
			</g>
		</g>
		<g>
			<g>
				<path fill="#585A5E" d="M149.381,107.974h1.404c0.095,0.813,0.52,1.221,1.273,1.221c0.901,0,1.353-0.549,1.353-1.649v-5.228
					h1.352v5.228c0,0.937-0.239,1.649-0.715,2.146c-0.477,0.494-1.131,0.74-1.963,0.74c-0.823,0-1.465-0.223-1.924-0.668
					C149.702,109.315,149.442,108.72,149.381,107.974z"/>
				<path fill="#585A5E" d="M155.751,108.09h1.378c0.251,0.798,0.854,1.196,1.807,1.196c0.468,0,0.843-0.105,1.125-0.318
					s0.423-0.501,0.423-0.865c0-0.285-0.089-0.514-0.267-0.683s-0.475-0.301-0.891-0.396l-1.353-0.324
					c-1.326-0.312-1.989-1.027-1.989-2.146c0-0.685,0.253-1.25,0.761-1.695c0.507-0.446,1.158-0.67,1.957-0.67
					c0.841,0,1.519,0.197,2.034,0.592c0.517,0.395,0.848,0.935,0.995,1.617h-1.352c-0.251-0.709-0.806-1.064-1.664-1.064
					c-0.434,0-0.782,0.102-1.046,0.307c-0.266,0.202-0.397,0.469-0.397,0.799c0,0.528,0.352,0.875,1.054,1.039l1.391,0.326
					c0.65,0.146,1.157,0.406,1.521,0.779c0.364,0.372,0.547,0.85,0.547,1.43c0,0.737-0.266,1.324-0.793,1.762
					c-0.529,0.438-1.214,0.656-2.055,0.656c-0.849,0-1.558-0.205-2.125-0.617C156.243,109.401,155.89,108.827,155.751,108.09z"/>
				<path fill="#585A5E" d="M169.024,103.351c0.693,0.776,1.04,1.762,1.04,2.959c0,1.195-0.347,2.183-1.04,2.957
					c-0.692,0.775-1.578,1.164-2.651,1.164c-1.074,0-1.956-0.389-2.646-1.164c-0.688-0.774-1.033-1.762-1.033-2.957
					c0-1.197,0.345-2.183,1.033-2.959c0.689-0.774,1.571-1.162,2.646-1.162C167.447,102.188,168.331,102.576,169.024,103.351z
					 M168.056,108.401c0.429-0.545,0.645-1.242,0.645-2.092s-0.215-1.547-0.645-2.094c-0.429-0.546-0.99-0.818-1.684-0.818
					c-0.694,0-1.252,0.271-1.678,0.812c-0.425,0.541-0.637,1.241-0.637,2.1c0,0.857,0.212,1.559,0.637,2.1
					c0.425,0.542,0.983,0.812,1.678,0.812C167.066,109.222,167.627,108.949,168.056,108.401z"/>
				<path fill="#585A5E" d="M177.825,102.317v7.982h-1.04l-4.082-5.811v5.811h-1.301v-7.982h1.274l3.848,5.539v-5.539H177.825z"/>
			</g>
		</g>
		<g>
			<g>
				<path fill="#585A5E" d="M145.787,121.994v2.704h-1.301v-7.981h1.301v0.494c0.139-0.174,0.342-0.321,0.61-0.442
					c0.27-0.121,0.556-0.183,0.858-0.183c0.813,0,1.464,0.293,1.95,0.878c0.485,0.585,0.728,1.299,0.728,2.139
					c0,0.842-0.243,1.555-0.728,2.14c-0.485,0.585-1.136,0.877-1.95,0.877c-0.304,0-0.59-0.062-0.858-0.183
					C146.13,122.315,145.926,122.167,145.787,121.994z M145.787,118.511v2.184c0.112,0.226,0.281,0.408,0.507,0.553
					c0.226,0.143,0.473,0.214,0.741,0.214c0.493,0,0.884-0.173,1.17-0.521c0.286-0.346,0.429-0.793,0.429-1.338
					c0-0.547-0.143-0.992-0.429-1.34c-0.286-0.347-0.677-0.521-1.17-0.521c-0.27,0-0.517,0.071-0.741,0.215
					C146.069,118.101,145.9,118.285,145.787,118.511z"/>
				<path fill="#585A5E" d="M155.589,122.487h-1.235v-0.324c-0.104,0.104-0.292,0.201-0.564,0.293
					c-0.273,0.091-0.562,0.136-0.865,0.136c-0.615,0-1.129-0.171-1.541-0.513c-0.412-0.344-0.617-0.801-0.617-1.372
					c0-0.537,0.214-0.981,0.644-1.332c0.429-0.353,0.964-0.526,1.605-0.526c0.251,0,0.507,0.037,0.768,0.11
					c0.26,0.073,0.45,0.153,0.571,0.24v-0.468c0-0.305-0.096-0.553-0.286-0.748c-0.19-0.194-0.464-0.293-0.818-0.293
					c-0.513,0-0.841,0.209-0.988,0.625h-1.248c0.087-0.504,0.34-0.918,0.761-1.241c0.42-0.325,0.921-0.488,1.501-0.488
					c0.729,0,1.295,0.188,1.703,0.565c0.407,0.377,0.611,0.896,0.611,1.554V122.487z M154.354,120.954v-0.48
					c-0.068-0.174-0.217-0.313-0.441-0.423c-0.227-0.108-0.474-0.161-0.741-0.161c-0.321,0-0.601,0.068-0.838,0.207
					c-0.239,0.139-0.357,0.342-0.357,0.61s0.117,0.476,0.352,0.618c0.233,0.143,0.516,0.214,0.845,0.214
					c0.269,0,0.516-0.054,0.741-0.162C154.137,121.269,154.285,121.127,154.354,120.954z"/>
				<path fill="#585A5E" d="M159.099,124.698h-1.261l0.819-2.055l-2.236-5.928h1.391l1.508,4.25l1.482-4.25h1.339L159.099,124.698z"
					/>
				<path fill="#585A5E" d="M164.481,114.038v8.449h-1.3v-8.449H164.481z"/>
				<path fill="#585A5E" d="M170.416,117.431c0.507,0.563,0.761,1.287,0.761,2.172c0,0.883-0.253,1.606-0.761,2.17
					c-0.507,0.563-1.168,0.846-1.982,0.846s-1.476-0.281-1.981-0.846c-0.507-0.563-0.762-1.287-0.762-2.17
					c0-0.885,0.254-1.607,0.762-2.172c0.507-0.563,1.167-0.846,1.981-0.846S169.909,116.868,170.416,117.431z M169.499,120.974
					c0.251-0.352,0.377-0.809,0.377-1.371c0-0.563-0.125-1.021-0.377-1.373c-0.251-0.351-0.606-0.525-1.066-0.525
					s-0.814,0.176-1.065,0.525c-0.251,0.353-0.377,0.81-0.377,1.373c0,0.562,0.125,1.021,0.377,1.371
					c0.251,0.352,0.605,0.525,1.065,0.525S169.248,121.325,169.499,120.974z"/>
				<path fill="#585A5E" d="M176.831,122.487h-1.235v-0.324c-0.104,0.104-0.292,0.201-0.565,0.293
					c-0.272,0.091-0.562,0.136-0.864,0.136c-0.615,0-1.129-0.171-1.541-0.513c-0.412-0.344-0.617-0.801-0.617-1.372
					c0-0.537,0.214-0.981,0.643-1.332c0.43-0.353,0.964-0.526,1.606-0.526c0.251,0,0.507,0.037,0.767,0.11
					c0.261,0.073,0.451,0.153,0.572,0.24v-0.468c0-0.305-0.096-0.553-0.286-0.748c-0.19-0.194-0.464-0.293-0.818-0.293
					c-0.513,0-0.842,0.209-0.988,0.625h-1.248c0.087-0.504,0.34-0.918,0.761-1.241c0.42-0.325,0.921-0.488,1.501-0.488
					c0.729,0,1.295,0.188,1.703,0.565c0.407,0.377,0.611,0.896,0.611,1.554V122.487z M175.596,120.954v-0.48
					c-0.069-0.174-0.217-0.313-0.442-0.423c-0.226-0.108-0.473-0.161-0.74-0.161c-0.321,0-0.601,0.068-0.838,0.207
					c-0.239,0.139-0.357,0.342-0.357,0.61s0.117,0.476,0.351,0.618c0.234,0.143,0.517,0.214,0.846,0.214
					c0.269,0,0.516-0.054,0.74-0.162S175.527,121.127,175.596,120.954z"/>
				<path fill="#585A5E" d="M182.108,122.487v-0.493c-0.139,0.174-0.342,0.321-0.61,0.442c-0.27,0.121-0.556,0.182-0.858,0.182
					c-0.824,0-1.476-0.288-1.957-0.864c-0.48-0.575-0.722-1.294-0.722-2.151s0.241-1.574,0.722-2.15
					c0.481-0.576,1.133-0.865,1.957-0.865c0.303,0,0.589,0.061,0.858,0.182c0.269,0.123,0.472,0.271,0.61,0.443v-3.173h1.301v8.45
					h-1.301V122.487z M182.108,120.694v-2.184c-0.111-0.227-0.281-0.41-0.507-0.554s-0.473-0.215-0.741-0.215
					c-0.493,0-0.884,0.174-1.17,0.521c-0.286,0.348-0.429,0.793-0.429,1.34c0,0.545,0.143,0.992,0.429,1.338
					c0.286,0.348,0.677,0.521,1.17,0.521c0.27,0,0.517-0.071,0.741-0.214C181.827,121.103,181.996,120.919,182.108,120.694z"/>
			</g>
		</g>
		<g>
			<g>
				<path fill="#585A5E" d="M440.977,75.173h-0.963v3.237h-1.353v-7.982h3.08c0.843,0,1.504,0.206,1.99,0.618
					c0.484,0.412,0.728,1.003,0.728,1.774c0,0.659-0.181,1.181-0.539,1.566c-0.359,0.385-0.859,0.63-1.502,0.734l2.313,3.289h-1.533
					L440.977,75.173z M440.014,71.598v2.444h1.703c0.44,0,0.787-0.11,1.033-0.332c0.247-0.221,0.37-0.518,0.37-0.89
					s-0.123-0.669-0.37-0.891c-0.246-0.221-0.593-0.332-1.033-0.332L440.014,71.598L440.014,71.598z"/>
				<path fill="#585A5E" d="M449.361,76.616h1.195c-0.104,0.589-0.366,1.058-0.787,1.404c-0.42,0.347-0.968,0.52-1.646,0.52
					c-0.805,0-1.462-0.277-1.969-0.832c-0.507-0.554-0.761-1.278-0.761-2.171c0-0.867,0.256-1.588,0.767-2.165
					c0.513-0.576,1.158-0.864,1.938-0.864c0.797,0,1.415,0.258,1.853,0.773c0.438,0.515,0.657,1.207,0.657,2.073v0.468h-3.938
					c0.018,0.502,0.157,0.899,0.422,1.189c0.265,0.291,0.608,0.436,1.033,0.436C448.811,77.448,449.223,77.171,449.361,76.616z
					 M448.113,73.6c-0.365,0-0.67,0.11-0.917,0.332c-0.247,0.222-0.409,0.535-0.486,0.942h2.612
					c-0.01-0.373-0.117-0.678-0.326-0.917C448.788,73.719,448.493,73.6,448.113,73.6z"/>
				<path fill="#585A5E" d="M455.549,80.62v-2.704c-0.14,0.174-0.344,0.321-0.611,0.442c-0.269,0.121-0.555,0.182-0.857,0.182
					c-0.814,0-1.465-0.292-1.95-0.877c-0.484-0.585-0.729-1.298-0.729-2.139c0-0.84,0.243-1.553,0.729-2.138s1.136-0.877,1.95-0.877
					c0.304,0,0.59,0.061,0.857,0.182c0.27,0.122,0.473,0.269,0.611,0.442v-0.494h1.3v7.982L455.549,80.62L455.549,80.62z
					 M455.549,76.616v-2.184c-0.113-0.225-0.282-0.41-0.508-0.552c-0.226-0.143-0.474-0.215-0.74-0.215
					c-0.494,0-0.885,0.174-1.17,0.52c-0.286,0.347-0.431,0.793-0.431,1.339s0.145,0.993,0.431,1.339
					c0.285,0.347,0.676,0.52,1.17,0.52c0.268,0,0.516-0.072,0.74-0.215C455.267,77.026,455.436,76.842,455.549,76.616z"/>
				<path fill="#585A5E" d="M463.258,72.638v5.772h-1.302v-0.546c-0.39,0.451-0.904,0.676-1.547,0.676
					c-0.641,0-1.14-0.195-1.493-0.585c-0.355-0.39-0.533-0.91-0.533-1.56v-3.757h1.299v3.536c0,0.789,0.36,1.183,1.08,1.183
					c0.285,0,0.539-0.084,0.76-0.253s0.366-0.392,0.437-0.669v-3.796L463.258,72.638L463.258,72.638z"/>
				<path fill="#585A5E" d="M468.432,76.616h1.195c-0.104,0.589-0.365,1.058-0.786,1.404c-0.421,0.347-0.969,0.52-1.646,0.52
					c-0.806,0-1.462-0.277-1.97-0.832c-0.506-0.554-0.76-1.278-0.76-2.171c0-0.867,0.256-1.588,0.767-2.165
					c0.511-0.576,1.157-0.864,1.938-0.864c0.798,0,1.416,0.258,1.854,0.773c0.438,0.515,0.656,1.207,0.656,2.073v0.468h-3.939
					c0.019,0.502,0.158,0.899,0.423,1.189c0.266,0.29,0.608,0.436,1.033,0.436C467.881,77.448,468.293,77.171,468.432,76.616z
					 M467.184,73.6c-0.364,0-0.67,0.11-0.916,0.332c-0.248,0.221-0.41,0.535-0.488,0.942h2.613
					c-0.009-0.373-0.117-0.678-0.325-0.917C467.859,73.719,467.564,73.6,467.184,73.6z"/>
				<path fill="#585A5E" d="M470.473,76.746h1.326c0.146,0.485,0.526,0.728,1.144,0.728c0.304,0,0.544-0.059,0.722-0.175
					c0.179-0.117,0.267-0.288,0.267-0.514c0-0.156-0.051-0.279-0.155-0.371c-0.104-0.091-0.277-0.167-0.521-0.228L472.06,75.9
					c-0.953-0.226-1.43-0.754-1.43-1.586c0-0.52,0.204-0.951,0.616-1.293c0.411-0.342,0.935-0.513,1.566-0.513
					c0.658,0,1.183,0.149,1.572,0.448c0.391,0.299,0.638,0.717,0.742,1.254h-1.274c-0.13-0.424-0.481-0.637-1.054-0.637
					c-0.251,0-0.468,0.057-0.649,0.169c-0.183,0.113-0.271,0.277-0.271,0.494c0,0.251,0.198,0.429,0.598,0.533l1.222,0.286
					c0.988,0.234,1.481,0.78,1.481,1.638c0,0.563-0.209,1.012-0.63,1.345c-0.421,0.334-0.96,0.5-1.618,0.5
					c-0.676,0-1.233-0.16-1.671-0.481C470.821,77.739,470.559,77.301,470.473,76.746z"/>
				<path fill="#585A5E" d="M476.751,76.85v-3.133h-0.91v-1.079h0.91v-1.547h1.3v1.547h1.301v1.079h-1.301v2.99
					c0,0.451,0.229,0.676,0.688,0.676c0.277,0,0.523-0.078,0.74-0.234v1.183c-0.233,0.139-0.559,0.208-0.975,0.208
					c-0.537,0-0.965-0.143-1.28-0.429C476.908,77.825,476.751,77.405,476.751,76.85z"/>
			</g>
		</g>
		<g>
			<g>
				<path fill="#585A5E" d="M444.115,63.351h1.378c0.251,0.797,0.854,1.196,1.808,1.196c0.468,0,0.843-0.106,1.124-0.318
					s0.424-0.5,0.424-0.864c0-0.286-0.09-0.514-0.269-0.683c-0.178-0.169-0.475-0.301-0.891-0.396l-1.352-0.325
					c-1.326-0.312-1.988-1.027-1.988-2.145c0-0.685,0.253-1.25,0.76-1.696c0.508-0.446,1.159-0.669,1.957-0.669
					c0.84,0,1.52,0.197,2.034,0.591c0.516,0.395,0.847,0.934,0.995,1.619h-1.354c-0.251-0.71-0.806-1.066-1.664-1.066
					c-0.434,0-0.781,0.102-1.046,0.305c-0.266,0.204-0.396,0.47-0.396,0.8c0,0.528,0.351,0.875,1.054,1.04l1.391,0.325
					c0.65,0.147,1.156,0.408,1.521,0.78c0.363,0.373,0.545,0.849,0.545,1.43c0,0.737-0.264,1.324-0.793,1.762
					c-0.528,0.438-1.213,0.656-2.054,0.656c-0.85,0-1.559-0.206-2.126-0.617C444.607,64.662,444.254,64.087,444.115,63.351z"/>
				<path fill="#585A5E" d="M457.389,58.612c0.692,0.776,1.039,1.762,1.039,2.958c0,1.196-0.347,2.182-1.039,2.958
					c-0.693,0.776-1.578,1.164-2.652,1.164c-1.075,0-1.957-0.388-2.646-1.164c-0.688-0.775-1.033-1.761-1.033-2.958
					c0-1.196,0.345-2.182,1.033-2.958c0.688-0.775,1.57-1.163,2.646-1.163C455.811,57.449,456.695,57.836,457.389,58.612z
					 M456.42,63.663c0.429-0.546,0.643-1.244,0.643-2.093c0-0.849-0.214-1.547-0.643-2.093c-0.431-0.546-0.99-0.819-1.685-0.819
					c-0.693,0-1.253,0.271-1.678,0.812c-0.424,0.542-0.637,1.241-0.637,2.099c0,0.858,0.213,1.558,0.637,2.1
					c0.425,0.542,0.984,0.812,1.678,0.812C455.43,64.481,455.99,64.208,456.42,63.663z"/>
				<path fill="#585A5E" d="M462.211,57.579h1.3l3.066,7.982H465.2l-0.818-2.21h-3.057l-0.817,2.21h-1.365L462.211,57.579z
					 M462.848,59.229l-1.092,2.951h2.184L462.848,59.229z"/>
				<path fill="#585A5E" d="M470.804,62.583h-1.729v2.977h-1.352v-7.982h3.081c0.841,0,1.506,0.217,1.995,0.65
					c0.489,0.434,0.733,1.053,0.733,1.859c0,0.798-0.244,1.413-0.733,1.846C472.31,62.367,471.645,62.583,470.804,62.583z
					 M472.195,60.087c0-0.407-0.122-0.732-0.364-0.975c-0.242-0.242-0.594-0.364-1.054-0.364h-1.703v2.665h1.703
					c0.451,0,0.8-0.121,1.047-0.364C472.071,60.807,472.195,60.486,472.195,60.087z"/>
			</g>
		</g>
		<g>
			<g>
				<path fill="#585A5E" d="M444.115,108.09h1.378c0.251,0.798,0.854,1.196,1.808,1.196c0.468,0,0.843-0.105,1.124-0.318
					s0.424-0.501,0.424-0.865c0-0.285-0.09-0.514-0.269-0.683c-0.178-0.169-0.475-0.301-0.891-0.396l-1.352-0.324
					c-1.326-0.312-1.988-1.027-1.988-2.146c0-0.685,0.253-1.25,0.76-1.695c0.508-0.446,1.159-0.67,1.957-0.67
					c0.84,0,1.52,0.197,2.034,0.592c0.516,0.395,0.847,0.935,0.995,1.617h-1.354c-0.251-0.709-0.806-1.064-1.664-1.064
					c-0.434,0-0.781,0.102-1.046,0.307c-0.266,0.202-0.396,0.469-0.396,0.799c0,0.528,0.351,0.875,1.054,1.039l1.391,0.326
					c0.65,0.146,1.156,0.406,1.521,0.779c0.363,0.372,0.545,0.85,0.545,1.43c0,0.737-0.264,1.324-0.793,1.762
					c-0.528,0.438-1.213,0.656-2.054,0.656c-0.85,0-1.559-0.205-2.126-0.617C444.607,109.401,444.254,108.827,444.115,108.09z"/>
				<path fill="#585A5E" d="M457.389,103.351c0.692,0.776,1.039,1.762,1.039,2.959c0,1.195-0.347,2.183-1.039,2.957
					c-0.693,0.775-1.578,1.164-2.652,1.164c-1.075,0-1.957-0.389-2.646-1.164c-0.688-0.774-1.033-1.762-1.033-2.957
					c0-1.197,0.345-2.183,1.033-2.959c0.688-0.774,1.57-1.162,2.646-1.162C455.811,102.188,456.695,102.576,457.389,103.351z
					 M456.42,108.401c0.429-0.545,0.643-1.242,0.643-2.092s-0.214-1.547-0.643-2.094c-0.431-0.546-0.99-0.818-1.685-0.818
					c-0.693,0-1.253,0.271-1.678,0.812c-0.424,0.541-0.637,1.241-0.637,2.1c0,0.857,0.213,1.559,0.637,2.1
					c0.425,0.542,0.984,0.812,1.678,0.812C455.43,109.222,455.99,108.949,456.42,108.401z"/>
				<path fill="#585A5E" d="M462.211,102.317h1.3l3.066,7.982H465.2l-0.818-2.21h-3.057l-0.817,2.21h-1.365L462.211,102.317z
					 M462.848,103.97l-1.092,2.95h2.184L462.848,103.97z"/>
				<path fill="#585A5E" d="M470.804,107.324h-1.729v2.977h-1.352v-7.981h3.081c0.841,0,1.506,0.217,1.995,0.65
					s0.733,1.053,0.733,1.858c0,0.797-0.244,1.411-0.733,1.846C472.31,107.106,471.645,107.324,470.804,107.324z M472.195,104.828
					c0-0.408-0.122-0.731-0.364-0.976c-0.242-0.242-0.594-0.365-1.054-0.365h-1.703v2.666h1.703c0.451,0,0.8-0.121,1.047-0.363
					C472.071,105.546,472.195,105.226,472.195,104.828z"/>
			</g>
		</g>
		<g>
			<g>
				<path fill="#585A5E" d="M440.729,121.994v2.704h-1.299v-7.981h1.299v0.494c0.139-0.174,0.343-0.321,0.611-0.442
					s0.555-0.183,0.857-0.183c0.814,0,1.464,0.293,1.95,0.878c0.484,0.585,0.729,1.299,0.729,2.139c0,0.842-0.243,1.555-0.729,2.14
					c-0.486,0.585-1.136,0.877-1.95,0.877c-0.304,0-0.59-0.062-0.857-0.183C441.072,122.315,440.866,122.167,440.729,121.994z
					 M440.729,118.511v2.184c0.113,0.226,0.282,0.408,0.508,0.553c0.226,0.143,0.474,0.214,0.74,0.214
					c0.494,0,0.885-0.173,1.17-0.521c0.287-0.346,0.43-0.793,0.43-1.338c0-0.547-0.143-0.992-0.43-1.34
					c-0.285-0.347-0.676-0.521-1.17-0.521c-0.268,0-0.516,0.071-0.74,0.215C441.011,118.101,440.842,118.285,440.729,118.511z"/>
				<path fill="#585A5E" d="M450.531,122.487h-1.234v-0.324c-0.104,0.104-0.292,0.201-0.565,0.293
					c-0.273,0.091-0.562,0.136-0.865,0.136c-0.614,0-1.129-0.171-1.54-0.513c-0.411-0.344-0.616-0.801-0.616-1.372
					c0-0.537,0.214-0.981,0.644-1.332c0.429-0.353,0.964-0.526,1.605-0.526c0.251,0,0.507,0.037,0.767,0.11
					c0.261,0.073,0.45,0.153,0.572,0.24v-0.468c0-0.305-0.097-0.553-0.286-0.748c-0.191-0.194-0.464-0.293-0.818-0.293
					c-0.512,0-0.842,0.209-0.988,0.625h-1.247c0.086-0.504,0.34-0.918,0.76-1.241c0.421-0.325,0.922-0.488,1.502-0.488
					c0.729,0,1.295,0.188,1.703,0.565c0.406,0.377,0.61,0.896,0.61,1.554v3.782H450.531z M449.296,120.954v-0.48
					c-0.069-0.174-0.218-0.313-0.442-0.423c-0.225-0.108-0.473-0.161-0.74-0.161c-0.32,0-0.601,0.068-0.839,0.207
					c-0.239,0.139-0.356,0.342-0.356,0.61s0.115,0.476,0.351,0.618c0.234,0.143,0.516,0.214,0.846,0.214
					c0.269,0,0.517-0.054,0.74-0.162S449.227,121.127,449.296,120.954z"/>
				<path fill="#585A5E" d="M454.04,124.698h-1.262l0.82-2.055l-2.236-5.928h1.392l1.508,4.25l1.481-4.25h1.339L454.04,124.698z"/>
				<path fill="#585A5E" d="M459.423,114.038v8.449h-1.301v-8.449H459.423z"/>
				<path fill="#585A5E" d="M465.357,117.431c0.508,0.563,0.761,1.287,0.761,2.172c0,0.883-0.253,1.606-0.761,2.17
					c-0.507,0.563-1.168,0.846-1.981,0.846c-0.814,0-1.477-0.281-1.982-0.846c-0.506-0.563-0.761-1.287-0.761-2.17
					c0-0.885,0.254-1.607,0.761-2.172c0.507-0.563,1.168-0.846,1.982-0.846C464.189,116.585,464.851,116.868,465.357,117.431z
					 M464.441,120.974c0.251-0.352,0.377-0.809,0.377-1.371c0-0.563-0.126-1.021-0.377-1.373c-0.252-0.351-0.606-0.525-1.065-0.525
					c-0.46,0-0.814,0.176-1.066,0.525c-0.251,0.353-0.377,0.81-0.377,1.373c0,0.562,0.126,1.021,0.377,1.371
					c0.252,0.352,0.606,0.525,1.066,0.525C463.834,121.499,464.189,121.325,464.441,120.974z"/>
				<path fill="#585A5E" d="M471.773,122.487h-1.235v-0.324c-0.104,0.104-0.292,0.201-0.564,0.293
					c-0.273,0.091-0.562,0.136-0.865,0.136c-0.615,0-1.129-0.171-1.54-0.513c-0.411-0.344-0.617-0.801-0.617-1.372
					c0-0.537,0.214-0.981,0.645-1.332c0.429-0.353,0.964-0.526,1.604-0.526c0.251,0,0.508,0.037,0.768,0.11
					c0.261,0.073,0.45,0.153,0.571,0.24v-0.468c0-0.305-0.096-0.553-0.285-0.748c-0.191-0.194-0.465-0.293-0.818-0.293
					c-0.512,0-0.842,0.209-0.988,0.625h-1.248c0.086-0.504,0.34-0.918,0.761-1.241c0.421-0.325,0.922-0.488,1.502-0.488
					c0.729,0,1.295,0.188,1.703,0.565c0.406,0.377,0.61,0.896,0.61,1.554v3.782H471.773z M470.537,120.954v-0.48
					c-0.068-0.174-0.217-0.313-0.441-0.423c-0.226-0.108-0.474-0.161-0.74-0.161c-0.321,0-0.601,0.068-0.839,0.207
					c-0.239,0.139-0.357,0.342-0.357,0.61s0.116,0.476,0.352,0.618c0.233,0.143,0.516,0.214,0.846,0.214
					c0.269,0,0.517-0.054,0.74-0.162S470.469,121.127,470.537,120.954z"/>
				<path fill="#585A5E" d="M477.051,122.487v-0.493c-0.14,0.174-0.344,0.321-0.611,0.442s-0.555,0.182-0.857,0.182
					c-0.823,0-1.477-0.288-1.956-0.864c-0.48-0.575-0.723-1.294-0.723-2.151s0.241-1.574,0.723-2.15
					c0.48-0.576,1.133-0.865,1.956-0.865c0.304,0,0.59,0.061,0.857,0.182c0.27,0.123,0.473,0.271,0.611,0.443v-3.173h1.3v8.45h-1.3
					V122.487z M477.051,120.694v-2.184c-0.113-0.227-0.282-0.41-0.508-0.554s-0.474-0.215-0.74-0.215
					c-0.494,0-0.885,0.174-1.17,0.521c-0.286,0.348-0.431,0.793-0.431,1.34c0,0.545,0.145,0.992,0.431,1.338
					c0.285,0.348,0.676,0.521,1.17,0.521c0.268,0,0.516-0.071,0.74-0.214C476.769,121.103,476.938,120.919,477.051,120.694z"/>
			</g>
		</g>
		<g>
			<g>
				<rect x="211.897" y="65.561" fill="#20B5AE" width="198.392" height="47.521"/>
				<g>
					<g>
						<path fill="#FFFFFF" d="M246.383,91.837c0,0.139,0.021,0.292,0.064,0.462c0.044,0.169,0.134,0.325,0.27,0.468
							c0.136,0.144,0.323,0.264,0.562,0.364c0.24,0.101,0.553,0.149,0.938,0.149c0.201,0,0.399-0.012,0.596-0.032
							s0.371-0.065,0.523-0.138c0.152-0.067,0.276-0.164,0.374-0.284c0.096-0.122,0.144-0.282,0.144-0.481
							c0-0.243-0.068-0.442-0.208-0.598c-0.139-0.156-0.317-0.284-0.539-0.383c-0.221-0.1-0.468-0.182-0.741-0.247
							c-0.272-0.065-0.548-0.128-0.825-0.188c-0.407-0.087-0.793-0.188-1.157-0.306c-0.364-0.117-0.683-0.275-0.956-0.475
							c-0.273-0.199-0.49-0.459-0.65-0.78c-0.16-0.321-0.24-0.737-0.24-1.248c0-0.364,0.064-0.71,0.194-1.04
							c0.13-0.329,0.342-0.615,0.638-0.858c0.295-0.243,0.68-0.436,1.156-0.579c0.478-0.143,1.058-0.214,1.742-0.214
							c0.633,0,1.166,0.083,1.6,0.247c0.433,0.165,0.786,0.377,1.06,0.637c0.272,0.26,0.472,0.555,0.598,0.884
							c0.125,0.329,0.192,0.659,0.201,0.988h-2.054c-0.019-0.121-0.052-0.243-0.104-0.364c-0.051-0.122-0.137-0.228-0.257-0.319
							c-0.12-0.091-0.276-0.165-0.471-0.221c-0.193-0.057-0.433-0.084-0.715-0.084c-0.268,0-0.488,0.024-0.664,0.071
							c-0.176,0.048-0.318,0.113-0.425,0.195c-0.107,0.083-0.186,0.176-0.232,0.28s-0.071,0.212-0.071,0.325
							c0,0.2,0.057,0.362,0.169,0.488c0.112,0.125,0.259,0.229,0.437,0.312c0.177,0.083,0.37,0.147,0.578,0.195
							s0.412,0.089,0.61,0.124c0.478,0.096,0.93,0.202,1.358,0.318c0.429,0.117,0.804,0.28,1.125,0.488
							c0.32,0.208,0.574,0.475,0.76,0.799c0.188,0.325,0.28,0.734,0.28,1.229c0,0.122-0.011,0.283-0.033,0.481
							c-0.021,0.2-0.074,0.412-0.156,0.638c-0.083,0.225-0.206,0.449-0.371,0.676c-0.165,0.226-0.39,0.429-0.676,0.61
							c-0.286,0.183-0.642,0.331-1.065,0.448c-0.425,0.117-0.94,0.176-1.547,0.176c-0.842,0-1.52-0.111-2.034-0.332
							c-0.517-0.221-0.917-0.494-1.203-0.818s-0.479-0.674-0.579-1.047s-0.149-0.709-0.149-1.014h2.148V91.837z"/>
						<path fill="#FFFFFF" d="M252.701,88.184h1.195v-1.976h1.977v1.976h1.403v1.326h-1.403v3.172c0,0.104,0,0.207,0,0.312
							s0.023,0.198,0.071,0.286c0.048,0.087,0.125,0.158,0.234,0.215c0.108,0.057,0.267,0.085,0.475,0.085
							c0.147,0,0.275-0.017,0.384-0.046c0.107-0.03,0.188-0.055,0.24-0.071v1.326c-0.251,0.051-0.528,0.095-0.832,0.129
							c-0.304,0.035-0.562,0.054-0.779,0.054c-0.329,0-0.606-0.037-0.832-0.111c-0.226-0.072-0.407-0.188-0.546-0.344
							c-0.14-0.156-0.238-0.355-0.3-0.599c-0.061-0.243-0.091-0.533-0.091-0.871V89.51h-1.195L252.701,88.184L252.701,88.184z"/>
						<path fill="#FFFFFF" d="M261.645,95.035c-0.512,0-0.988-0.071-1.43-0.214c-0.442-0.145-0.826-0.362-1.15-0.657
							c-0.325-0.294-0.579-0.664-0.761-1.11c-0.182-0.447-0.273-0.974-0.273-1.58c0-0.65,0.103-1.2,0.307-1.651
							c0.204-0.451,0.475-0.815,0.812-1.092s0.725-0.479,1.157-0.604c0.435-0.125,0.88-0.188,1.339-0.188
							c0.521,0,0.999,0.072,1.438,0.214c0.438,0.143,0.818,0.36,1.144,0.65c0.325,0.291,0.579,0.659,0.761,1.105
							c0.183,0.446,0.273,0.968,0.273,1.566c0,0.606-0.091,1.132-0.273,1.58c-0.182,0.446-0.436,0.816-0.761,1.11
							c-0.325,0.295-0.708,0.515-1.149,0.657C262.633,94.963,262.156,95.035,261.645,95.035z M261.645,93.708
							c0.355,0,0.637-0.078,0.845-0.232c0.208-0.156,0.364-0.348,0.469-0.572c0.104-0.225,0.171-0.469,0.201-0.729
							c0.029-0.26,0.045-0.494,0.045-0.702c0-0.529-0.059-0.94-0.176-1.235c-0.116-0.295-0.258-0.514-0.422-0.657
							c-0.165-0.143-0.336-0.232-0.514-0.267c-0.178-0.034-0.327-0.052-0.448-0.052c-0.113,0-0.256,0.018-0.429,0.052
							c-0.173,0.035-0.345,0.124-0.514,0.267s-0.314,0.362-0.437,0.657c-0.121,0.294-0.182,0.706-0.182,1.235
							c0,0.208,0.015,0.442,0.045,0.702s0.1,0.506,0.208,0.734c0.107,0.229,0.264,0.42,0.468,0.572
							C261.01,93.633,261.29,93.708,261.645,93.708z"/>
						<path fill="#FFFFFF" d="M273.033,92.292c-0.019,0.26-0.081,0.548-0.188,0.865c-0.108,0.316-0.284,0.613-0.527,0.89
							c-0.242,0.278-0.569,0.513-0.98,0.703c-0.412,0.188-0.935,0.285-1.566,0.285c-0.538,0-1.024-0.076-1.462-0.228
							c-0.438-0.152-0.808-0.377-1.111-0.677c-0.304-0.299-0.537-0.669-0.701-1.11c-0.165-0.442-0.247-0.95-0.247-1.521
							c0-0.39,0.052-0.795,0.155-1.215c0.104-0.42,0.292-0.804,0.565-1.15c0.273-0.346,0.644-0.633,1.111-0.858
							c0.468-0.225,1.069-0.338,1.807-0.338c0.563,0,1.036,0.078,1.417,0.234c0.381,0.156,0.691,0.36,0.929,0.611
							c0.238,0.251,0.414,0.531,0.527,0.838c0.112,0.308,0.182,0.613,0.208,0.917h-1.898c-0.034-0.269-0.093-0.485-0.176-0.65
							s-0.18-0.292-0.292-0.384c-0.113-0.091-0.235-0.154-0.371-0.188c-0.134-0.034-0.274-0.052-0.422-0.052
							c-0.104,0-0.243,0.018-0.416,0.052c-0.173,0.035-0.34,0.119-0.5,0.253c-0.161,0.135-0.299,0.343-0.416,0.624
							c-0.117,0.282-0.175,0.67-0.175,1.164c0,0.546,0.058,0.978,0.174,1.292c0.116,0.317,0.253,0.554,0.412,0.709
							c0.159,0.156,0.32,0.254,0.483,0.291c0.163,0.039,0.296,0.06,0.398,0.06c0.257,0,0.471-0.051,0.638-0.155
							c0.167-0.104,0.298-0.23,0.393-0.384c0.095-0.151,0.161-0.308,0.2-0.468s0.058-0.297,0.058-0.41H273.033z"/>
						<path fill="#FFFFFF" d="M278.531,88.184h2.38l-2.613,2.6l2.847,4.004h-2.353l-1.847-2.744l-0.676,0.689v2.055h-1.976v-9.101
							h1.976v5.005L278.531,88.184z"/>
						<path fill="#FFFFFF" d="M293.611,94.789l-0.975,0.976l-1.157-1.185c-0.251,0.131-0.555,0.241-0.91,0.332
							c-0.354,0.091-0.818,0.137-1.391,0.137c-0.685,0-1.272-0.087-1.761-0.26c-0.49-0.175-0.906-0.397-1.248-0.677
							c-0.342-0.277-0.618-0.592-0.826-0.942s-0.366-0.704-0.474-1.06c-0.109-0.355-0.183-0.697-0.222-1.027
							c-0.039-0.329-0.059-0.611-0.059-0.845c0-0.529,0.072-1.077,0.215-1.645c0.143-0.568,0.388-1.085,0.734-1.554
							c0.346-0.468,0.813-0.854,1.403-1.157c0.589-0.304,1.334-0.455,2.236-0.455c0.78,0,1.458,0.121,2.035,0.364
							s1.055,0.579,1.437,1.008c0.382,0.429,0.665,0.938,0.853,1.527c0.186,0.589,0.278,1.227,0.278,1.911
							c0,0.511-0.045,0.964-0.136,1.358c-0.091,0.395-0.202,0.734-0.332,1.021s-0.265,0.525-0.402,0.714
							c-0.14,0.19-0.251,0.334-0.339,0.431L293.611,94.789z M291.063,92.239c0.069-0.129,0.154-0.348,0.253-0.656
							c0.1-0.308,0.149-0.756,0.149-1.345c0-0.598-0.065-1.092-0.195-1.482s-0.301-0.702-0.514-0.936
							c-0.212-0.234-0.457-0.396-0.734-0.488c-0.276-0.091-0.559-0.136-0.845-0.136c-0.364,0-0.674,0.056-0.929,0.169
							c-0.257,0.113-0.469,0.258-0.638,0.437c-0.169,0.178-0.301,0.377-0.396,0.598c-0.095,0.221-0.167,0.444-0.214,0.669
							c-0.048,0.226-0.076,0.442-0.084,0.65c-0.01,0.208-0.014,0.381-0.014,0.52c0,0.139,0.004,0.312,0.014,0.52
							c0.008,0.208,0.037,0.424,0.084,0.65c0.047,0.226,0.119,0.448,0.214,0.669c0.095,0.221,0.228,0.42,0.396,0.598
							c0.169,0.178,0.382,0.323,0.638,0.436c0.255,0.113,0.564,0.17,0.929,0.17c0.251,0,0.459-0.021,0.624-0.066
							c0.165-0.043,0.321-0.104,0.468-0.182l-1.144-1.104l0.845-0.819L291.063,92.239z"/>
						<path fill="#FFFFFF" d="M299.539,93.996c-0.364,0.405-0.727,0.683-1.085,0.825c-0.359,0.143-0.734,0.214-1.125,0.214
							c-0.537,0-0.953-0.104-1.248-0.312c-0.294-0.209-0.514-0.457-0.656-0.748s-0.23-0.59-0.26-0.896
							c-0.03-0.307-0.045-0.561-0.045-0.762v-4.133h1.976v3.822c0,0.33,0.024,0.603,0.071,0.82c0.048,0.217,0.117,0.389,0.208,0.521
							c0.091,0.129,0.206,0.223,0.345,0.278s0.299,0.084,0.481,0.084c0.312,0,0.557-0.069,0.733-0.214s0.312-0.312,0.403-0.514
							c0.091-0.199,0.146-0.401,0.169-0.604c0.021-0.204,0.032-0.366,0.032-0.487v-3.705h1.976v6.604h-1.976V93.996L299.539,93.996z
							"/>
						<path fill="#FFFFFF" d="M306.455,95.035c-0.513,0-0.988-0.071-1.431-0.214c-0.441-0.145-0.825-0.362-1.149-0.657
							c-0.325-0.294-0.579-0.664-0.762-1.11c-0.182-0.447-0.272-0.974-0.272-1.58c0-0.65,0.102-1.2,0.306-1.651
							c0.204-0.451,0.476-0.815,0.812-1.092s0.724-0.479,1.157-0.604s0.88-0.188,1.339-0.188c0.52,0,0.999,0.072,1.437,0.214
							c0.438,0.143,0.819,0.36,1.145,0.65c0.324,0.291,0.579,0.659,0.761,1.105c0.182,0.446,0.272,0.968,0.272,1.566
							c0,0.606-0.091,1.132-0.272,1.58c-0.182,0.446-0.437,0.816-0.761,1.11c-0.325,0.295-0.708,0.515-1.15,0.657
							C307.443,94.963,306.966,95.035,306.455,95.035z M306.455,93.708c0.354,0,0.637-0.078,0.845-0.232
							c0.208-0.156,0.364-0.348,0.468-0.572c0.104-0.225,0.171-0.469,0.201-0.729s0.045-0.494,0.045-0.702
							c0-0.529-0.058-0.94-0.175-1.235c-0.117-0.295-0.258-0.514-0.422-0.657c-0.165-0.143-0.336-0.232-0.515-0.267
							c-0.178-0.034-0.326-0.052-0.447-0.052c-0.113,0-0.257,0.018-0.43,0.052c-0.173,0.035-0.345,0.124-0.514,0.267
							s-0.314,0.362-0.436,0.657c-0.121,0.294-0.183,0.706-0.183,1.235c0,0.208,0.016,0.442,0.045,0.702
							c0.03,0.26,0.101,0.506,0.208,0.734c0.108,0.229,0.265,0.42,0.468,0.572C305.82,93.633,306.1,93.708,306.455,93.708z"/>
						<path fill="#FFFFFF" d="M310.745,88.184h1.195v-1.976h1.977v1.976h1.403v1.326h-1.403v3.172c0,0.104,0,0.207,0,0.312
							s0.023,0.198,0.071,0.286c0.048,0.087,0.125,0.158,0.234,0.215c0.108,0.057,0.268,0.085,0.476,0.085
							c0.146,0,0.274-0.017,0.383-0.046c0.107-0.03,0.188-0.055,0.24-0.071v1.326c-0.251,0.051-0.528,0.095-0.831,0.129
							c-0.305,0.035-0.563,0.054-0.78,0.054c-0.329,0-0.606-0.037-0.832-0.111c-0.226-0.072-0.407-0.188-0.546-0.344
							c-0.14-0.156-0.238-0.355-0.299-0.599c-0.062-0.243-0.092-0.533-0.092-0.871V89.51h-1.195L310.745,88.184L310.745,88.184z"/>
						<path fill="#FFFFFF" d="M323.056,92.876c-0.13,0.469-0.325,0.844-0.585,1.125s-0.55,0.5-0.871,0.656s-0.654,0.258-1.001,0.306
							s-0.671,0.071-0.975,0.071c-0.147,0-0.336-0.012-0.565-0.032c-0.229-0.021-0.477-0.069-0.741-0.144
							c-0.265-0.072-0.528-0.187-0.793-0.338c-0.265-0.15-0.505-0.359-0.722-0.623c-0.217-0.266-0.392-0.594-0.526-0.988
							s-0.201-0.873-0.201-1.437c0-0.572,0.091-1.077,0.272-1.515s0.438-0.806,0.768-1.105c0.328-0.299,0.722-0.526,1.176-0.683
							c0.455-0.156,0.951-0.234,1.488-0.234s0.992,0.072,1.365,0.214c0.373,0.143,0.686,0.328,0.937,0.553
							c0.251,0.226,0.451,0.479,0.598,0.76c0.147,0.282,0.258,0.559,0.332,0.832s0.119,0.527,0.137,0.761
							c0.018,0.234,0.03,0.416,0.039,0.546l0.014,0.364h-5.07c0,0.156,0.023,0.336,0.072,0.539c0.048,0.204,0.131,0.396,0.25,0.572
							c0.117,0.178,0.279,0.327,0.484,0.448s0.47,0.182,0.793,0.182c0.288,0,0.563-0.064,0.826-0.193
							c0.262-0.131,0.438-0.344,0.524-0.639h1.976V92.876z M321.145,90.862c-0.008-0.355-0.062-0.639-0.162-0.852
							c-0.1-0.212-0.221-0.373-0.363-0.481c-0.144-0.108-0.292-0.18-0.448-0.215c-0.156-0.034-0.295-0.052-0.416-0.052
							c-0.295,0-0.542,0.052-0.741,0.156s-0.364,0.234-0.494,0.39c-0.13,0.156-0.225,0.33-0.286,0.52
							c-0.061,0.191-0.096,0.369-0.104,0.533L321.145,90.862L321.145,90.862z"/>
						<path fill="#FFFFFF" d="M329.334,91.837c0,0.139,0.021,0.292,0.064,0.462c0.043,0.169,0.134,0.325,0.27,0.468
							c0.136,0.144,0.323,0.264,0.562,0.364c0.24,0.101,0.553,0.149,0.938,0.149c0.201,0,0.398-0.012,0.596-0.032
							c0.196-0.021,0.371-0.065,0.523-0.138c0.152-0.067,0.276-0.164,0.374-0.284c0.096-0.122,0.144-0.282,0.144-0.481
							c0-0.243-0.069-0.442-0.208-0.598c-0.139-0.156-0.318-0.284-0.539-0.383c-0.221-0.1-0.468-0.182-0.741-0.247
							c-0.272-0.065-0.548-0.128-0.825-0.188c-0.407-0.087-0.793-0.188-1.157-0.306c-0.364-0.117-0.684-0.275-0.956-0.475
							c-0.273-0.199-0.49-0.459-0.65-0.78c-0.161-0.321-0.241-0.737-0.241-1.248c0-0.364,0.065-0.71,0.195-1.04
							c0.13-0.329,0.342-0.615,0.637-0.858c0.296-0.243,0.681-0.436,1.157-0.579c0.478-0.143,1.058-0.214,1.742-0.214
							c0.633,0,1.166,0.083,1.599,0.247c0.434,0.165,0.787,0.377,1.061,0.637c0.272,0.26,0.472,0.555,0.598,0.884
							c0.125,0.329,0.192,0.659,0.201,0.988h-2.054c-0.019-0.121-0.053-0.243-0.104-0.364c-0.051-0.122-0.137-0.228-0.257-0.319
							c-0.12-0.091-0.277-0.165-0.471-0.221c-0.193-0.057-0.433-0.084-0.715-0.084c-0.268,0-0.488,0.024-0.664,0.071
							c-0.177,0.048-0.318,0.113-0.426,0.195c-0.106,0.083-0.185,0.176-0.231,0.28s-0.071,0.212-0.071,0.325
							c0,0.2,0.057,0.362,0.169,0.488c0.112,0.125,0.258,0.229,0.437,0.312c0.177,0.083,0.37,0.147,0.578,0.195
							s0.411,0.089,0.61,0.124c0.478,0.096,0.93,0.202,1.358,0.318c0.429,0.117,0.804,0.28,1.125,0.488
							c0.32,0.208,0.574,0.475,0.76,0.799c0.188,0.325,0.28,0.734,0.28,1.229c0,0.122-0.011,0.283-0.033,0.481
							c-0.021,0.2-0.074,0.412-0.156,0.638c-0.083,0.225-0.206,0.449-0.371,0.676c-0.165,0.226-0.39,0.429-0.676,0.61
							c-0.286,0.183-0.642,0.331-1.065,0.448c-0.425,0.117-0.94,0.176-1.548,0.176c-0.841,0-1.519-0.111-2.033-0.332
							c-0.517-0.221-0.917-0.494-1.203-0.818s-0.479-0.674-0.579-1.047c-0.101-0.373-0.149-0.709-0.149-1.014h2.148V91.837z"/>
						<path fill="#FFFFFF" d="M342.945,92.876c-0.13,0.469-0.324,0.844-0.585,1.125c-0.26,0.281-0.55,0.5-0.871,0.656
							c-0.32,0.156-0.653,0.258-1.001,0.306c-0.347,0.048-0.671,0.071-0.975,0.071c-0.146,0-0.336-0.012-0.565-0.032
							c-0.229-0.021-0.477-0.069-0.74-0.144c-0.266-0.072-0.529-0.187-0.793-0.338c-0.266-0.15-0.505-0.359-0.723-0.623
							c-0.217-0.266-0.392-0.594-0.525-0.988c-0.136-0.395-0.202-0.873-0.202-1.437c0-0.572,0.091-1.077,0.272-1.515
							c0.183-0.438,0.438-0.806,0.768-1.105s0.722-0.526,1.176-0.683c0.455-0.156,0.951-0.234,1.489-0.234
							c0.537,0,0.992,0.072,1.365,0.214c0.373,0.143,0.685,0.328,0.936,0.553c0.251,0.226,0.451,0.479,0.598,0.76
							c0.147,0.282,0.259,0.559,0.332,0.832c0.074,0.273,0.119,0.527,0.138,0.761c0.017,0.234,0.029,0.416,0.039,0.546l0.013,0.364
							h-5.07c0,0.156,0.024,0.336,0.072,0.539c0.048,0.204,0.131,0.396,0.25,0.572c0.118,0.178,0.28,0.327,0.485,0.448
							c0.204,0.121,0.47,0.182,0.793,0.182c0.287,0,0.562-0.064,0.825-0.193c0.263-0.131,0.438-0.344,0.524-0.639h1.976V92.876z
							 M341.034,90.862c-0.009-0.355-0.063-0.639-0.162-0.852c-0.101-0.212-0.222-0.373-0.364-0.481
							c-0.144-0.108-0.292-0.18-0.448-0.215c-0.156-0.034-0.295-0.052-0.416-0.052c-0.295,0-0.542,0.052-0.741,0.156
							c-0.198,0.104-0.363,0.234-0.493,0.39c-0.131,0.156-0.226,0.33-0.286,0.52c-0.062,0.191-0.097,0.369-0.104,0.533
							L341.034,90.862L341.034,90.862z"/>
						<path fill="#FFFFFF" d="M348.925,89.276c-0.087-0.008-0.173-0.013-0.26-0.013c-0.086,0-0.173,0-0.261,0
							c-0.285,0-0.553,0.039-0.799,0.117c-0.247,0.078-0.462,0.22-0.644,0.428c-0.183,0.208-0.328,0.495-0.437,0.862
							c-0.107,0.367-0.163,0.841-0.163,1.42v2.698h-1.976v-6.604h1.976v1.092c0.131-0.271,0.281-0.495,0.455-0.669
							c0.173-0.175,0.364-0.311,0.572-0.407c0.208-0.096,0.422-0.164,0.644-0.204c0.222-0.039,0.44-0.059,0.657-0.059h0.234V89.276
							L348.925,89.276z"/>
						<path fill="#FFFFFF" d="M354.502,88.184h2.054l-2.418,6.604h-2.184l-2.418-6.604h2.054l1.456,4.784L354.502,88.184z"/>
						<path fill="#FFFFFF" d="M357.219,85.688h1.976v1.547h-1.976V85.688z M359.195,88.184v6.604h-1.976v-6.604H359.195
							L359.195,88.184z"/>
						<path fill="#FFFFFF" d="M367.307,92.292c-0.018,0.26-0.081,0.548-0.188,0.865c-0.108,0.316-0.284,0.613-0.527,0.89
							c-0.243,0.278-0.57,0.513-0.981,0.703c-0.411,0.188-0.934,0.285-1.565,0.285c-0.538,0-1.025-0.076-1.462-0.228
							c-0.438-0.152-0.809-0.377-1.111-0.677c-0.304-0.299-0.538-0.669-0.702-1.11c-0.165-0.442-0.247-0.95-0.247-1.521
							c0-0.39,0.053-0.795,0.156-1.215c0.104-0.42,0.292-0.804,0.565-1.15c0.272-0.346,0.644-0.633,1.11-0.858
							c0.468-0.225,1.07-0.338,1.808-0.338c0.562,0,1.036,0.078,1.417,0.234c0.381,0.156,0.69,0.36,0.929,0.611
							c0.238,0.251,0.414,0.531,0.527,0.838c0.111,0.308,0.182,0.613,0.208,0.917h-1.898c-0.035-0.269-0.093-0.485-0.176-0.65
							s-0.181-0.292-0.292-0.384c-0.113-0.091-0.236-0.154-0.371-0.188c-0.134-0.034-0.275-0.052-0.422-0.052
							c-0.104,0-0.243,0.018-0.416,0.052c-0.173,0.035-0.34,0.119-0.5,0.253c-0.161,0.135-0.299,0.343-0.416,0.624
							c-0.117,0.282-0.175,0.67-0.175,1.164c0,0.546,0.058,0.978,0.174,1.292c0.116,0.317,0.253,0.554,0.412,0.709
							c0.159,0.156,0.319,0.254,0.482,0.291c0.163,0.039,0.296,0.06,0.399,0.06c0.257,0,0.47-0.051,0.637-0.155
							c0.167-0.104,0.298-0.23,0.394-0.384c0.095-0.151,0.16-0.308,0.199-0.468s0.059-0.297,0.059-0.41H367.307z"/>
						<path fill="#FFFFFF" d="M375.237,92.876c-0.13,0.469-0.324,0.844-0.585,1.125c-0.26,0.281-0.55,0.5-0.871,0.656
							c-0.32,0.156-0.653,0.258-1.001,0.306c-0.347,0.048-0.671,0.071-0.975,0.071c-0.146,0-0.336-0.012-0.565-0.032
							c-0.229-0.021-0.477-0.069-0.74-0.144c-0.266-0.072-0.529-0.187-0.793-0.338c-0.266-0.15-0.505-0.359-0.723-0.623
							c-0.217-0.266-0.392-0.594-0.525-0.988c-0.136-0.395-0.202-0.873-0.202-1.437c0-0.572,0.091-1.077,0.272-1.515
							c0.183-0.438,0.438-0.806,0.768-1.105s0.722-0.526,1.176-0.683c0.455-0.156,0.951-0.234,1.489-0.234
							c0.537,0,0.992,0.072,1.365,0.214c0.373,0.143,0.685,0.328,0.936,0.553c0.251,0.226,0.451,0.479,0.598,0.76
							c0.147,0.282,0.259,0.559,0.332,0.832c0.074,0.273,0.119,0.527,0.138,0.761c0.017,0.234,0.029,0.416,0.039,0.546l0.013,0.364
							h-5.07c0,0.156,0.024,0.336,0.072,0.539c0.048,0.204,0.131,0.396,0.25,0.572c0.118,0.178,0.28,0.327,0.485,0.448
							c0.204,0.121,0.47,0.182,0.793,0.182c0.287,0,0.562-0.064,0.825-0.193c0.263-0.131,0.438-0.344,0.524-0.639h1.976V92.876z
							 M373.326,90.862c-0.009-0.355-0.063-0.639-0.162-0.852c-0.101-0.212-0.222-0.373-0.364-0.481
							c-0.144-0.108-0.292-0.18-0.448-0.215c-0.156-0.034-0.295-0.052-0.416-0.052c-0.295,0-0.542,0.052-0.741,0.156
							c-0.198,0.104-0.363,0.234-0.493,0.39c-0.131,0.156-0.226,0.33-0.286,0.52c-0.062,0.191-0.097,0.369-0.104,0.533
							L373.326,90.862L373.326,90.862z"/>
					</g>
				</g>
			</g>
		</g>
		<g>
			<g>
				<rect x="508.313" y="65.839" fill="#20B5AE" width="197.391" height="47.52"/>
				<g>
					<g>
						<path fill="#FFFFFF" d="M559.396,93.267c0,0.139,0.022,0.291,0.065,0.461c0.044,0.17,0.134,0.324,0.269,0.469
							c0.136,0.144,0.323,0.265,0.563,0.363c0.239,0.1,0.553,0.149,0.937,0.149c0.201,0,0.399-0.011,0.596-0.032
							c0.197-0.021,0.371-0.066,0.524-0.137c0.152-0.068,0.277-0.164,0.373-0.286s0.145-0.282,0.145-0.481
							c0-0.242-0.068-0.44-0.208-0.598c-0.139-0.156-0.317-0.283-0.54-0.383c-0.221-0.1-0.468-0.182-0.74-0.247
							s-0.549-0.128-0.825-0.188c-0.407-0.086-0.793-0.188-1.157-0.306c-0.363-0.117-0.682-0.275-0.955-0.475
							c-0.273-0.199-0.49-0.459-0.65-0.78c-0.159-0.321-0.239-0.737-0.239-1.248c0-0.364,0.064-0.71,0.194-1.04
							c0.131-0.329,0.343-0.615,0.638-0.858s0.681-0.436,1.156-0.579c0.477-0.143,1.058-0.214,1.742-0.214
							c0.632,0,1.165,0.083,1.6,0.247c0.434,0.164,0.786,0.377,1.06,0.637c0.272,0.26,0.473,0.555,0.598,0.884
							c0.126,0.329,0.193,0.659,0.202,0.988h-2.055c-0.017-0.121-0.051-0.243-0.103-0.364c-0.053-0.122-0.139-0.228-0.259-0.319
							c-0.12-0.091-0.276-0.165-0.471-0.221c-0.193-0.057-0.432-0.084-0.715-0.084c-0.268,0-0.487,0.024-0.664,0.071
							c-0.176,0.048-0.317,0.113-0.425,0.195c-0.107,0.083-0.186,0.176-0.232,0.28s-0.07,0.212-0.07,0.325
							c0,0.2,0.057,0.362,0.17,0.488c0.111,0.125,0.258,0.229,0.436,0.312s0.37,0.147,0.578,0.195
							c0.208,0.048,0.412,0.089,0.611,0.124c0.477,0.096,0.93,0.202,1.357,0.318c0.429,0.117,0.804,0.28,1.124,0.488
							c0.321,0.208,0.574,0.475,0.761,0.799c0.188,0.325,0.279,0.735,0.279,1.229c0,0.121-0.011,0.281-0.032,0.48
							c-0.021,0.199-0.073,0.412-0.155,0.637c-0.082,0.228-0.206,0.451-0.37,0.677c-0.165,0.228-0.391,0.43-0.677,0.61
							c-0.285,0.182-0.642,0.332-1.065,0.449s-0.94,0.176-1.547,0.176c-0.841,0-1.52-0.11-2.034-0.332
							c-0.516-0.221-0.917-0.494-1.203-0.818c-0.285-0.325-0.479-0.674-0.578-1.047c-0.1-0.372-0.148-0.711-0.148-1.014H559.396z"/>
						<path fill="#FFFFFF" d="M570.688,96.478c-0.9,0-1.645-0.151-2.233-0.455c-0.588-0.303-1.058-0.688-1.407-1.158
							c-0.352-0.467-0.598-0.984-0.74-1.553c-0.144-0.567-0.214-1.115-0.214-1.645c0-0.529,0.07-1.077,0.214-1.645
							s0.39-1.085,0.74-1.554c0.351-0.468,0.819-0.854,1.407-1.157c0.59-0.304,1.333-0.455,2.233-0.455
							c0.778,0,1.458,0.121,2.038,0.364c0.58,0.243,1.058,0.579,1.435,1.008c0.376,0.429,0.657,0.938,0.845,1.527
							c0.186,0.589,0.278,1.227,0.278,1.911c0,0.692-0.094,1.332-0.278,1.918c-0.188,0.584-0.469,1.093-0.845,1.521
							c-0.377,0.43-0.854,0.766-1.435,1.008C572.146,96.356,571.466,96.478,570.688,96.478z M570.681,94.709
							c0.364,0,0.674-0.058,0.93-0.169c0.256-0.113,0.468-0.262,0.638-0.449c0.169-0.186,0.302-0.392,0.396-0.617
							c0.096-0.225,0.167-0.449,0.215-0.676c0.048-0.225,0.078-0.438,0.091-0.637c0.014-0.199,0.021-0.364,0.021-0.494
							c0-0.139-0.007-0.31-0.021-0.514c-0.013-0.204-0.043-0.418-0.091-0.644c-0.048-0.225-0.119-0.451-0.215-0.676
							c-0.095-0.226-0.228-0.427-0.396-0.604s-0.382-0.323-0.638-0.436s-0.564-0.169-0.93-0.169c-0.295,0-0.578,0.045-0.853,0.136
							c-0.271,0.091-0.516,0.251-0.728,0.481c-0.213,0.23-0.382,0.542-0.507,0.936c-0.126,0.395-0.188,0.891-0.188,1.489
							c0,0.599,0.062,1.092,0.188,1.481c0.125,0.39,0.294,0.699,0.507,0.93c0.212,0.229,0.455,0.393,0.728,0.486
							C570.103,94.662,570.386,94.709,570.681,94.709z"/>
						<path fill="#FFFFFF" d="M581.341,87.117l3.419,9.1h-2.275l-0.585-1.702h-3.302l-0.572,1.702h-2.262l3.406-9.1H581.341z
							 M581.432,92.967l-1.17-3.471l-1.196,3.471H581.432z"/>
						<path fill="#FFFFFF" d="M589.843,87.117c0.459,0,0.896,0.048,1.312,0.143c0.416,0.096,0.779,0.256,1.092,0.48
							c0.312,0.226,0.562,0.526,0.747,0.904c0.188,0.377,0.279,0.847,0.279,1.41c0,0.477-0.061,0.882-0.182,1.216
							c-0.121,0.333-0.279,0.613-0.476,0.838c-0.193,0.226-0.418,0.404-0.669,0.533c-0.252,0.131-0.508,0.229-0.768,0.293
							s-0.511,0.105-0.754,0.123c-0.242,0.019-0.455,0.026-0.638,0.026h-2.041v3.133h-2.146v-9.1H589.843z M587.75,91.316h1.677
							c0.512,0,0.895-0.098,1.149-0.292c0.256-0.195,0.385-0.514,0.385-0.956c0-0.312-0.058-0.548-0.17-0.708
							c-0.112-0.16-0.252-0.275-0.416-0.345c-0.164-0.069-0.334-0.108-0.507-0.117c-0.174-0.009-0.32-0.013-0.441-0.013h-1.678
							L587.75,91.316L587.75,91.316z"/>
						<path fill="#FFFFFF" d="M602.204,87.117c0.599,0,1.079,0.074,1.443,0.221c0.363,0.147,0.647,0.336,0.851,0.565
							c0.204,0.229,0.342,0.481,0.41,0.754c0.069,0.273,0.104,0.531,0.104,0.773c0,0.529-0.14,0.94-0.416,1.235
							c-0.277,0.294-0.638,0.516-1.079,0.663v0.013c0.174,0.035,0.373,0.098,0.599,0.188c0.226,0.091,0.438,0.226,0.638,0.403
							c0.198,0.178,0.365,0.408,0.501,0.689c0.134,0.28,0.2,0.631,0.2,1.047c0,0.546-0.105,0.985-0.317,1.319
							c-0.213,0.334-0.485,0.591-0.819,0.773c-0.334,0.182-0.706,0.303-1.118,0.363c-0.411,0.061-0.82,0.091-1.229,0.091h-4.329
							v-9.1h4.562V87.117z M599.786,90.705h1.977c0.217,0,0.395-0.032,0.533-0.097c0.138-0.065,0.247-0.145,0.324-0.241
							c0.078-0.095,0.133-0.197,0.162-0.305c0.03-0.108,0.046-0.206,0.046-0.293c0-0.095-0.016-0.195-0.046-0.299
							c-0.029-0.104-0.089-0.199-0.175-0.286c-0.087-0.086-0.206-0.158-0.356-0.214c-0.152-0.056-0.346-0.084-0.579-0.084h-1.886
							V90.705L599.786,90.705z M599.786,94.449h2.224c0.096,0,0.21-0.015,0.345-0.046c0.134-0.029,0.265-0.082,0.39-0.155
							c0.126-0.073,0.232-0.179,0.319-0.312c0.086-0.133,0.13-0.306,0.13-0.514c0-0.217-0.039-0.393-0.117-0.525
							c-0.078-0.135-0.185-0.242-0.317-0.319c-0.136-0.078-0.291-0.13-0.47-0.156c-0.178-0.026-0.36-0.039-0.552-0.039h-1.95
							L599.786,94.449L599.786,94.449z"/>
						<path fill="#FFFFFF" d="M607.041,91.745c0.018-0.381,0.089-0.706,0.215-0.975c0.125-0.269,0.283-0.49,0.475-0.663
							c0.19-0.173,0.4-0.31,0.63-0.41c0.23-0.1,0.457-0.173,0.684-0.221c0.226-0.047,0.436-0.078,0.631-0.091
							c0.194-0.013,0.353-0.021,0.475-0.021c0.494,0,0.912,0.043,1.254,0.13c0.343,0.087,0.626,0.2,0.853,0.338
							c0.226,0.138,0.4,0.297,0.525,0.474c0.126,0.178,0.219,0.36,0.28,0.546c0.061,0.186,0.095,0.364,0.104,0.533
							c0.009,0.169,0.013,0.318,0.013,0.449l-0.039,3.016c-0.008,0.364,0.007,0.652,0.046,0.864
							c0.039,0.214,0.154,0.341,0.345,0.384v0.117h-2.08l-0.169-0.648h-0.039c-0.26,0.328-0.592,0.561-0.994,0.695
							c-0.402,0.133-0.809,0.2-1.216,0.2c-0.528,0-0.944-0.073-1.248-0.221s-0.532-0.323-0.688-0.527
							c-0.155-0.202-0.255-0.413-0.299-0.63c-0.043-0.217-0.064-0.395-0.064-0.533c0-0.371,0.071-0.683,0.214-0.929
							c0.145-0.248,0.332-0.447,0.565-0.599s0.496-0.268,0.787-0.346c0.289-0.078,0.587-0.143,0.891-0.195
							c0.363-0.051,0.671-0.09,0.923-0.116c0.251-0.026,0.457-0.06,0.617-0.097c0.16-0.039,0.276-0.096,0.352-0.169
							c0.073-0.074,0.114-0.193,0.123-0.358v-0.182c-0.009-0.217-0.059-0.384-0.148-0.5c-0.091-0.117-0.195-0.204-0.312-0.26
							c-0.116-0.056-0.232-0.089-0.351-0.098c-0.117-0.008-0.201-0.013-0.254-0.013c-0.086,0-0.199,0.009-0.338,0.026
							c-0.14,0.018-0.272,0.063-0.402,0.137s-0.241,0.18-0.332,0.318s-0.137,0.33-0.137,0.572h-1.889V91.745z M611.2,93.071
							c-0.146,0.068-0.258,0.119-0.339,0.148c-0.081,0.031-0.16,0.057-0.236,0.078s-0.166,0.039-0.27,0.053
							c-0.102,0.014-0.247,0.037-0.435,0.071c-0.104,0.019-0.221,0.041-0.353,0.071c-0.133,0.031-0.257,0.08-0.371,0.148
							c-0.115,0.069-0.214,0.164-0.295,0.28s-0.121,0.267-0.121,0.447c0,0.155,0.034,0.284,0.104,0.385
							c0.068,0.101,0.152,0.179,0.256,0.233c0.102,0.057,0.211,0.096,0.326,0.117c0.115,0.021,0.22,0.031,0.312,0.031
							c0.119,0,0.26-0.023,0.422-0.07c0.162-0.049,0.317-0.133,0.468-0.254c0.148-0.121,0.274-0.291,0.378-0.508
							c0.103-0.217,0.152-0.488,0.152-0.818L611.2,93.071L611.2,93.071z"/>
						<path fill="#FFFFFF" d="M621.275,93.722c-0.017,0.26-0.08,0.547-0.188,0.863c-0.108,0.316-0.283,0.613-0.526,0.891
							c-0.242,0.277-0.569,0.512-0.981,0.703c-0.41,0.189-0.934,0.285-1.565,0.285c-0.537,0-1.024-0.076-1.463-0.229
							c-0.438-0.15-0.809-0.377-1.111-0.676s-0.537-0.67-0.702-1.111c-0.164-0.441-0.246-0.948-0.246-1.521
							c0-0.39,0.053-0.795,0.155-1.215c0.104-0.42,0.293-0.804,0.565-1.15c0.272-0.347,0.644-0.633,1.111-0.858
							c0.469-0.225,1.069-0.338,1.808-0.338c0.562,0,1.035,0.078,1.417,0.234c0.381,0.156,0.69,0.36,0.93,0.611
							s0.413,0.531,0.526,0.838c0.111,0.308,0.182,0.613,0.208,0.917h-1.898c-0.034-0.269-0.093-0.485-0.175-0.65
							c-0.083-0.165-0.182-0.292-0.293-0.384c-0.112-0.091-0.236-0.154-0.37-0.188c-0.135-0.034-0.275-0.052-0.423-0.052
							c-0.104,0-0.243,0.018-0.416,0.052c-0.174,0.035-0.34,0.119-0.5,0.253c-0.161,0.135-0.3,0.343-0.416,0.624
							c-0.117,0.282-0.176,0.67-0.176,1.164c0,0.546,0.058,0.978,0.174,1.293c0.115,0.315,0.253,0.553,0.412,0.708
							c0.158,0.156,0.318,0.254,0.481,0.293s0.297,0.059,0.399,0.059c0.258,0,0.471-0.052,0.638-0.156
							c0.167-0.104,0.299-0.23,0.394-0.383s0.16-0.309,0.198-0.469c0.039-0.16,0.06-0.297,0.06-0.408H621.275z"/>
						<path fill="#FFFFFF" d="M626.775,89.613h2.379l-2.612,2.6l2.847,4.004h-2.354l-1.846-2.743l-0.677,0.689v2.054h-1.977v-9.1
							h1.977v5.005L626.775,89.613z"/>
						<path fill="#FFFFFF" d="M636.72,94.306c-0.13,0.469-0.325,0.844-0.585,1.125c-0.261,0.281-0.552,0.5-0.871,0.656
							c-0.32,0.156-0.654,0.258-1.001,0.305c-0.347,0.049-0.672,0.072-0.976,0.072c-0.146,0-0.336-0.012-0.564-0.033
							c-0.23-0.021-0.479-0.068-0.741-0.143c-0.265-0.073-0.529-0.186-0.793-0.338c-0.265-0.151-0.505-0.359-0.722-0.624
							s-0.394-0.593-0.526-0.987c-0.135-0.395-0.201-0.873-0.201-1.438c0-0.572,0.091-1.076,0.272-1.514
							c0.182-0.438,0.438-0.806,0.768-1.105c0.329-0.299,0.721-0.526,1.176-0.683c0.455-0.156,0.951-0.234,1.488-0.234
							c0.538,0,0.993,0.072,1.365,0.214c0.373,0.143,0.685,0.328,0.937,0.553c0.251,0.226,0.45,0.479,0.599,0.76
							c0.146,0.282,0.258,0.559,0.331,0.832s0.119,0.527,0.137,0.761s0.03,0.416,0.039,0.545l0.014,0.363h-5.069
							c0,0.156,0.022,0.336,0.071,0.539c0.048,0.205,0.131,0.396,0.249,0.572c0.118,0.178,0.279,0.328,0.485,0.449
							c0.205,0.121,0.47,0.182,0.793,0.182c0.289,0,0.564-0.064,0.826-0.195c0.263-0.129,0.438-0.342,0.524-0.637h1.976V94.306z
							 M634.809,92.292c-0.009-0.355-0.062-0.639-0.162-0.852s-0.221-0.373-0.364-0.481c-0.143-0.108-0.292-0.18-0.447-0.215
							c-0.156-0.034-0.296-0.052-0.416-0.052c-0.296,0-0.542,0.052-0.741,0.156s-0.364,0.234-0.494,0.39
							c-0.13,0.156-0.227,0.33-0.286,0.52c-0.061,0.191-0.095,0.369-0.104,0.533L634.809,92.292L634.809,92.292z"/>
						<path fill="#FFFFFF" d="M640.062,90.406c0.269-0.364,0.606-0.628,1.014-0.793c0.408-0.165,0.832-0.247,1.273-0.247
							c0.226,0,0.466,0.026,0.722,0.078c0.256,0.052,0.494,0.169,0.715,0.351c0.223,0.182,0.405,0.453,0.554,0.812
							c0.146,0.359,0.222,0.847,0.222,1.462v4.147h-1.977v-3.822c0-0.164-0.01-0.345-0.026-0.54
							c-0.018-0.195-0.062-0.379-0.136-0.553c-0.074-0.173-0.188-0.318-0.338-0.437c-0.152-0.117-0.357-0.175-0.618-0.175
							c-0.329,0-0.583,0.08-0.761,0.24c-0.178,0.161-0.309,0.345-0.391,0.553s-0.132,0.412-0.148,0.611
							c-0.019,0.2-0.026,0.334-0.026,0.403v3.718h-1.977v-6.604h1.898V90.406z"/>
						<path fill="#FFFFFF" d="M650.875,96.217v-0.793h-0.024c-0.165,0.183-0.323,0.339-0.476,0.468
							c-0.151,0.131-0.306,0.238-0.462,0.325c-0.155,0.087-0.319,0.149-0.493,0.188s-0.363,0.059-0.571,0.059
							c-0.469,0-0.887-0.087-1.255-0.26c-0.368-0.174-0.684-0.418-0.942-0.734s-0.46-0.693-0.598-1.131
							c-0.141-0.438-0.208-0.922-0.208-1.449c0-0.521,0.067-0.998,0.208-1.431c0.138-0.434,0.34-0.804,0.604-1.112
							c0.265-0.308,0.585-0.548,0.962-0.721s0.799-0.26,1.269-0.26c0.164,0,0.34,0.02,0.525,0.059
							c0.187,0.039,0.368,0.098,0.546,0.175c0.179,0.078,0.348,0.174,0.508,0.286c0.16,0.113,0.297,0.243,0.408,0.39v-3.159h1.978
							v9.1H650.875z M650.98,92.916c0-0.72-0.135-1.27-0.403-1.651s-0.648-0.572-1.144-0.572c-0.277,0-0.514,0.063-0.709,0.188
							s-0.354,0.291-0.476,0.494c-0.12,0.203-0.21,0.44-0.267,0.708c-0.056,0.27-0.084,0.546-0.084,0.832
							c0,0.693,0.139,1.236,0.416,1.631s0.649,0.592,1.118,0.592c0.199,0,0.392-0.039,0.578-0.117
							c0.186-0.078,0.351-0.203,0.494-0.377c0.143-0.172,0.258-0.401,0.345-0.688C650.937,93.669,650.98,93.323,650.98,92.916z"/>
					</g>
				</g>
			</g>
		</g>
		<g>
			<g>
				<g>
					<g>
						<path fill="#585A5E" d="M74.343,136.205c-0.043,0.329-0.13,0.685-0.26,1.065s-0.34,0.736-0.63,1.065
							c-0.291,0.329-0.675,0.604-1.15,0.825c-0.477,0.221-1.079,0.332-1.807,0.332c-0.677,0-1.283-0.105-1.82-0.319
							c-0.538-0.212-0.99-0.521-1.359-0.923c-0.367-0.402-0.651-0.893-0.852-1.469c-0.199-0.576-0.299-1.229-0.299-1.956
							c0-0.808,0.089-1.489,0.267-2.048c0.177-0.561,0.403-1.022,0.676-1.391c0.273-0.369,0.579-0.658,0.917-0.865
							c0.338-0.209,0.665-0.361,0.981-0.461c0.316-0.101,0.604-0.16,0.865-0.184c0.26-0.021,0.455-0.031,0.585-0.031
							c0.728,0,1.326,0.096,1.794,0.285s0.843,0.436,1.125,0.734c0.282,0.298,0.484,0.631,0.61,0.994s0.206,0.72,0.241,1.065h-1.222
							c-0.018-0.163-0.063-0.364-0.136-0.598c-0.074-0.233-0.202-0.46-0.385-0.677c-0.182-0.217-0.436-0.4-0.76-0.553
							c-0.325-0.152-0.748-0.228-1.268-0.228c-0.572,0-1.049,0.11-1.431,0.331c-0.381,0.221-0.687,0.514-0.917,0.878
							c-0.229,0.362-0.395,0.778-0.493,1.248c-0.101,0.468-0.15,0.948-0.15,1.442c0,0.528,0.069,1.019,0.208,1.469
							c0.139,0.451,0.342,0.841,0.611,1.171c0.269,0.329,0.591,0.587,0.968,0.772c0.377,0.187,0.808,0.279,1.293,0.279
							c0.364,0,0.7-0.057,1.008-0.169s0.574-0.271,0.799-0.476c0.226-0.203,0.405-0.441,0.54-0.715
							c0.134-0.272,0.21-0.574,0.229-0.902h1.221V136.205z"/>
						<path fill="#585A5E" d="M76.917,130.121v9.101h-1.145v-9.101H76.917z"/>
						<path fill="#585A5E" d="M78.763,130.121h1.145v1.194h-1.145V130.121z M79.907,132.617v6.604h-1.145v-6.604H79.907z"/>
						<path fill="#585A5E" d="M87.603,137.31c-0.043,0.233-0.124,0.479-0.241,0.733c-0.116,0.256-0.285,0.49-0.507,0.702
							c-0.221,0.213-0.505,0.388-0.852,0.525c-0.348,0.139-0.776,0.209-1.287,0.209c-0.546,0-1.007-0.074-1.384-0.222
							s-0.689-0.336-0.937-0.565c-0.247-0.229-0.439-0.482-0.579-0.76c-0.139-0.279-0.239-0.547-0.306-0.807
							c-0.065-0.26-0.104-0.496-0.117-0.709c-0.013-0.212-0.02-0.37-0.02-0.475c0-0.146,0.008-0.34,0.025-0.578
							s0.062-0.489,0.13-0.754c0.069-0.266,0.174-0.531,0.312-0.801c0.139-0.269,0.327-0.511,0.565-0.728
							c0.237-0.218,0.534-0.394,0.891-0.526c0.354-0.135,0.789-0.201,1.3-0.201c0.658,0,1.186,0.115,1.579,0.344
							c0.395,0.23,0.698,0.519,0.91,0.865c0.212,0.346,0.354,0.727,0.429,1.138c0.073,0.411,0.119,0.795,0.136,1.149
							c0,0.053,0.002,0.106,0.008,0.164c0.004,0.055,0.006,0.109,0.006,0.161h-5.083c0,0.286,0.039,0.576,0.117,0.871
							c0.077,0.295,0.199,0.562,0.363,0.8s0.379,0.437,0.645,0.592c0.264,0.156,0.587,0.233,0.968,0.233
							c0.269,0,0.511-0.037,0.728-0.11c0.218-0.074,0.401-0.174,0.554-0.299c0.15-0.125,0.272-0.271,0.363-0.436
							c0.092-0.165,0.154-0.338,0.188-0.521h1.095V137.31z M86.458,135.373c-0.009-0.218-0.039-0.455-0.091-0.716
							c-0.053-0.26-0.146-0.5-0.279-0.721c-0.134-0.223-0.318-0.406-0.552-0.554c-0.234-0.147-0.538-0.221-0.91-0.221
							c-0.416,0-0.759,0.075-1.027,0.228c-0.269,0.151-0.479,0.34-0.631,0.565c-0.151,0.226-0.253,0.466-0.305,0.722
							c-0.053,0.256-0.078,0.487-0.078,0.695L86.458,135.373L86.458,135.373z"/>
						<path fill="#585A5E" d="M90.306,132.617v0.923c0.225-0.33,0.528-0.609,0.91-0.839c0.381-0.229,0.832-0.345,1.352-0.345
							c0.435,0,0.791,0.066,1.073,0.201c0.281,0.135,0.502,0.313,0.663,0.539c0.16,0.227,0.273,0.487,0.338,0.786
							c0.065,0.3,0.099,0.613,0.099,0.943v4.394h-1.145v-4.043c0-0.173-0.007-0.377-0.02-0.611
							c-0.014-0.232-0.062-0.455-0.144-0.662c-0.083-0.209-0.219-0.383-0.41-0.526c-0.189-0.144-0.463-0.214-0.818-0.214
							c-0.156,0-0.343,0.025-0.56,0.076c-0.217,0.054-0.425,0.164-0.624,0.332c-0.199,0.17-0.368,0.416-0.507,0.742
							c-0.139,0.324-0.208,0.76-0.208,1.307v3.602h-1.144v-6.604H90.306z"/>
						<path fill="#585A5E" d="M97.027,132.617v-1.978h1.145v1.978h1.404v0.806h-1.404v4.199c0,0.121,0.002,0.236,0.006,0.344
							c0.004,0.108,0.026,0.206,0.065,0.293c0.038,0.088,0.105,0.154,0.201,0.201c0.096,0.048,0.234,0.07,0.416,0.07
							c0.121,0,0.243-0.01,0.364-0.031c0.122-0.021,0.238-0.05,0.352-0.084v0.807c-0.183,0.077-0.378,0.141-0.585,0.188
							c-0.208,0.047-0.412,0.07-0.611,0.07c-0.338,0-0.601-0.051-0.787-0.155c-0.188-0.104-0.321-0.235-0.403-0.396
							c-0.083-0.16-0.13-0.336-0.143-0.527c-0.013-0.189-0.021-0.371-0.021-0.545v-4.434h-1.183v-0.806H97.027z"/>
					</g>
				</g>
				<g id="hVCAm4_30_">
					<g>
						<path fill="#585A5E" d="M60.267,112.312c0.151-0.211,0.444-0.432,0.436-0.639c-0.248-5.545,2.992-7.986,7.876-9.254
							c1.986-0.516,3.898-1.516,5.688-2.562c4.669-2.735,5.23-4.907,2.69-9.549c-2.777-5.079-2.292-10.461-1.206-15.788
							c0.247-1.214,1.588-2.461,2.743-3.185c3.265-2.043,9.67-1.34,12.622,1.114c2.579,2.146,2.084,5.188,2.549,8.024
							c0.73,4.472-0.407,8.446-2.452,12.294c-1.133,2.131-0.485,3.902,1.2,5.307c1.239,1.031,2.628,1.926,4.06,2.67
							c1.442,0.752,2.972,1.445,4.546,1.814c4.622,1.084,7.544,3.561,7.781,8.584c0.028,0.582,0.438,1.145,0.672,1.719
							c0,0.363,0,0.729,0,1.092c-13.1,12.721-33.545,14.994-49.203,0C60.267,113.405,60.267,112.86,60.267,112.312z"/>
					</g>
				</g>
			</g>
			<path fill="none" stroke="#585A5E" stroke-width="1.363" stroke-miterlimit="10" d="M118.544,90.28
				c0,9.077-3.535,17.331-9.305,23.454c-6.238,6.619-15.088,10.754-24.902,10.754c-9.444,0-17.996-3.829-24.188-10.02
				c-6.189-6.188-10.019-14.74-10.019-24.188c0-18.891,15.312-34.205,34.205-34.205S118.544,71.39,118.544,90.28z"/>
		</g>
	</g>
	
		<rect x="0.075" y="0.075" fill="none" stroke="#A6A8AB" stroke-width="0.15" stroke-miterlimit="10" width="756" height="183.145"/>
</g>
</svg>
